  0
SECTION
  2
HEADER
  9
$ACADVER
  1
AC1014
  9
$HANDSEED
  5
FFFF
  9
$MEASUREMENT
 70
     1
  0
ENDSEC
  0
SECTION
  2
TABLES
  0
TABLE
  2
VPORT
  5
8
330
0
100
AcDbSymbolTable
 70
     4
  0
VPORT
  5
2E
330
8
100
AcDbSymbolTableRecord
100
AcDbViewportTableRecord
  2
*ACTIVE
 70
     0
 10
0.0
 20
0.0
 11
1.0
 21
1.0
 12
210.0
 22
148.5
 13
0.0
 23
0.0
 14
10.0
 24
10.0
 15
10.0
 25
10.0
 16
0.0
 26
0.0
 36
1.0
 17
0.0
 27
0.0
 37
0.0
 40
341.0
 41
1.24
 42
50.0
 43
0.0
 44
0.0
 50
0.0
 51
0.0
 71
     0
 72
   100
 73
     1
 74
     3
 75
     0
 76
     0
 77
     0
 78
     0
  0
ENDTAB
  0
TABLE
  2
LTYPE
  5
5
330
0
100
AcDbSymbolTable
 70
     1
  0
LTYPE
  5
14
330
5
100
AcDbSymbolTableRecord
100
AcDbLinetypeTableRecord
  2
BYBLOCK
 70
     0
  3

 72
    65
 73
     0
 40
0.0
  0
LTYPE
  5
15
330
5
100
AcDbSymbolTableRecord
100
AcDbLinetypeTableRecord
  2
BYLAYER
 70
     0
  3

 72
    65
 73
     0
 40
0.0
  0
LTYPE
  5
16
330
5
100
AcDbSymbolTableRecord
100
AcDbLinetypeTableRecord
  2
CONTINUOUS
 70
     0
  3
Solid line
 72
    65
 73
     0
 40
0.0
  0
ENDTAB
  0
TABLE
  2
LAYER
  5
2
100
AcDbSymbolTable
 70
8
  0
LAYER
  5
50
100
AcDbSymbolTableRecord
100
AcDbLayerTableRecord
  2
0
 70
0
  6
CONTINUOUS
  0
LAYER
  5
51
100
AcDbSymbolTableRecord
100
AcDbLayerTableRecord
  2
none
 70
0
  6
CONTINUOUS
  0
LAYER
  5
52
100
AcDbSymbolTableRecord
100
AcDbLayerTableRecord
  2
Shape2DView
 70
0
  6
CONTINUOUS
  0
LAYER
  5
53
100
AcDbSymbolTableRecord
100
AcDbLayerTableRecord
  2
Shape2DView001
 70
0
  6
CONTINUOUS
  0
LAYER
  5
54
100
AcDbSymbolTableRecord
100
AcDbLayerTableRecord
  2
Shape2DView002
 70
0
  6
CONTINUOUS
  0
LAYER
  5
55
100
AcDbSymbolTableRecord
100
AcDbLayerTableRecord
  2
Shape2DView003
 70
0
  6
CONTINUOUS
  0
LAYER
  5
56
100
AcDbSymbolTableRecord
100
AcDbLayerTableRecord
  2
Shape2DView004
 70
0
  6
CONTINUOUS
  0
LAYER
  5
57
100
AcDbSymbolTableRecord
100
AcDbLayerTableRecord
  2
Shape2DView005
 70
0
  6
CONTINUOUS
  0
ENDTAB
  0
TABLE
  2
STYLE
  5
3
330
0
100
AcDbSymbolTable
 70
     1
  0
STYLE
  5
11
330
3
100
AcDbSymbolTableRecord
100
AcDbTextStyleTableRecord
  2
STANDARD
 70
     0
 40
0.0
 41
1.0
 50
0.0
 71
     0
 42
2.5
  3
txt
  4

  0
ENDTAB
  0
TABLE
  2
VIEW
  5
6
330
0
100
AcDbSymbolTable
 70
     0
  0
ENDTAB
  0
TABLE
  2
UCS
  5
7
330
0
100
AcDbSymbolTable
 70
     0
  0
ENDTAB
  0
TABLE
  2
APPID
  5
9
330
0
100
AcDbSymbolTable
 70
     2
  0
APPID
  5
12
330
9
100
AcDbSymbolTableRecord
100
AcDbRegAppTableRecord
  2
ACAD
 70
     0
  0
ENDTAB
  0
TABLE
  2
DIMSTYLE
  5
A
330
0
100
AcDbSymbolTable
 70
     1
  0
DIMSTYLE
105
27
330
A
100
AcDbSymbolTableRecord
100
AcDbDimStyleTableRecord
  2
ISO-25
 70
     0
  3

  4

  5

  6

  7

 40
1.0
 41
2.5
 42
0.625
 43
3.75
 44
1.25
 45
0.0
 46
0.0
 47
0.0
 48
0.0
140
2.5
141
2.5
142
0.0
143
0.03937007874016
144
1.0
145
0.0
146
1.0
147
0.625
 71
     0
 72
     0
 73
     0
 74
     0
 75
     0
 76
     0
 77
     1
 78
     8
170
     0
171
     3
172
     1
173
     0
174
     0
175
     0
176
     0
177
     0
178
     0
270
     2
271
     2
272
     2
273
     2
274
     3
340
11
275
     0
280
     0
281
     0
282
     0
283
     0
284
     8
285
     0
286
     0
287
     3
288
     0
  0
ENDTAB
  0
TABLE
  2
BLOCK_RECORD
  5
1
330
0
100
AcDbSymbolTable
 70
     1
  0
BLOCK_RECORD
  5
1F
330
1
100
AcDbSymbolTableRecord
100
AcDbBlockTableRecord
  2
*MODEL_SPACE
  0
BLOCK_RECORD
  5
1B
330
1
100
AcDbSymbolTableRecord
100
AcDbBlockTableRecord
  2
*PAPER_SPACE
  0
ENDTAB
  0
ENDSEC
  0
SECTION
  2
BLOCKS
  0
BLOCK
  5
20
330
1F
100
AcDbEntity
  8
0
100
AcDbBlockBegin
  2
*MODEL_SPACE
 70
     0
 10
0.0
 20
0.0
 30
0.0
  3
*MODEL_SPACE
  1

  0
ENDBLK
  5
21
330
1F
100
AcDbEntity
  8
0
100
AcDbBlockEnd
  0
BLOCK
  5
1C
330
1B
100
AcDbEntity
 67
     1
  8
0
100
AcDbBlockBegin
  2
*PAPER_SPACE
  1

  0
ENDBLK
  5
1D
330
1B
100
AcDbEntity
 67
     1
  8
0
100
AcDbBlockEnd
  0
ENDSEC
  0
SECTION
  2
ENTITIES
  0
LINE
  5
100
100
AcDbEntity
  8
Shape2DView001
 62
7
100
AcDbLine
 10
135.661061
 20
88.571389
 30
0.0
 11
136.797944
 21
88.571389
 31
0.0
  0
LINE
  5
101
100
AcDbEntity
  8
Shape2DView001
 62
7
100
AcDbLine
 10
136.797944
 20
88.571389
 30
0.0
 11
136.797944
 21
92.495353
 31
0.0
  0
LINE
  5
102
100
AcDbEntity
  8
Shape2DView001
 62
7
100
AcDbLine
 10
136.797944
 20
92.495353
 30
0.0
 11
135.561155
 21
92.247306
 31
0.0
  0
LINE
  5
103
100
AcDbEntity
  8
Shape2DView001
 62
7
100
AcDbLine
 10
135.561155
 20
92.247306
 30
0.0
 11
135.561155
 21
92.881203
 31
0.0
  0
LINE
  5
104
100
AcDbEntity
  8
Shape2DView001
 62
7
100
AcDbLine
 10
135.561155
 20
92.881203
 30
0.0
 11
136.791052
 21
93.129250
 31
0.0
  0
LINE
  5
105
100
AcDbEntity
  8
Shape2DView001
 62
7
100
AcDbLine
 10
136.791052
 20
93.129250
 30
0.0
 11
137.486962
 21
93.129250
 31
0.0
  0
LINE
  5
106
100
AcDbEntity
  8
Shape2DView001
 62
7
100
AcDbLine
 10
137.486962
 20
93.129250
 30
0.0
 11
137.486962
 21
88.571389
 31
0.0
  0
LINE
  5
107
100
AcDbEntity
  8
Shape2DView001
 62
7
100
AcDbLine
 10
137.486962
 20
88.571389
 30
0.0
 11
138.623844
 21
88.571389
 31
0.0
  0
LINE
  5
108
100
AcDbEntity
  8
Shape2DView001
 62
7
100
AcDbLine
 10
138.623844
 20
88.571389
 30
0.0
 11
138.623844
 21
87.985723
 31
0.0
  0
LINE
  5
109
100
AcDbEntity
  8
Shape2DView001
 62
7
100
AcDbLine
 10
138.623844
 20
87.985723
 30
0.0
 11
135.661061
 21
87.985723
 31
0.0
  0
LINE
  5
10a
100
AcDbEntity
  8
Shape2DView001
 62
7
100
AcDbLine
 10
135.661061
 20
87.985723
 30
0.0
 11
135.661061
 21
88.571389
 31
0.0
  0
LINE
  5
10b
100
AcDbEntity
  8
Shape2DView001
 62
7
100
AcDbLine
 10
140.628889
 20
88.571389
 30
0.0
 11
143.057682
 21
88.571389
 31
0.0
  0
LINE
  5
10c
100
AcDbEntity
  8
Shape2DView001
 62
7
100
AcDbLine
 10
143.057682
 20
88.571389
 30
0.0
 11
143.057682
 21
87.985723
 31
0.0
  0
LINE
  5
10d
100
AcDbEntity
  8
Shape2DView001
 62
7
100
AcDbLine
 10
143.057682
 20
87.985723
 30
0.0
 11
139.791731
 21
87.985723
 31
0.0
  0
LINE
  5
10e
100
AcDbEntity
  8
Shape2DView001
 62
7
100
AcDbLine
 10
139.791731
 20
87.985723
 30
0.0
 11
139.791731
 21
88.571389
 31
0.0
  0
SPLINE
  5
10f
100
AcDbEntity
  8
Shape2DView001
 62
7
100
AcDbSpline
 70
8
 71
3
 72
8
 73
4
 74
0
 40
0
 40
0
 40
0
 40
0
 40
1
 40
1
 40
1
 40
1
 10
139.791731
 20
88.571389
 30
0.0
 10
140.055854
 20
88.844700
 30
0.0
 10
140.415292
 20
89.211029
 30
0.0
 10
140.870046
 20
89.670375
 30
0.0
  0
SPLINE
  5
110
100
AcDbEntity
  8
Shape2DView001
 62
7
100
AcDbSpline
 70
8
 71
3
 72
8
 73
4
 74
0
 40
0
 40
0
 40
0
 40
0
 40
1
 40
1
 40
1
 40
1
 10
140.870046
 20
89.670375
 30
0.0
 10
141.327096
 20
90.132019
 30
0.0
 10
141.614187
 20
90.429445
 30
0.0
 10
141.731320
 20
90.562654
 30
0.0
  0
SPLINE
  5
111
100
AcDbEntity
  8
Shape2DView001
 62
7
100
AcDbSpline
 70
8
 71
3
 72
8
 73
4
 74
0
 40
0
 40
0
 40
0
 40
0
 40
1
 40
1
 40
1
 40
1
 10
141.731320
 20
90.562654
 30
0.0
 10
141.954103
 20
90.812997
 30
0.0
 10
142.109132
 20
91.024297
 30
0.0
 10
142.196407
 20
91.196553
 30
0.0
  0
SPLINE
  5
112
100
AcDbEntity
  8
Shape2DView001
 62
7
100
AcDbSpline
 70
8
 71
3
 72
8
 73
4
 74
0
 40
0
 40
0
 40
0
 40
0
 40
1
 40
1
 40
1
 40
1
 10
142.196407
 20
91.196553
 30
0.0
 10
142.285979
 20
91.371104
 30
0.0
 10
142.330765
 20
91.542210
 30
0.0
 10
142.330765
 20
91.709871
 30
0.0
  0
SPLINE
  5
113
100
AcDbEntity
  8
Shape2DView001
 62
7
100
AcDbSpline
 70
8
 71
3
 72
8
 73
4
 74
0
 40
0
 40
0
 40
0
 40
0
 40
1
 40
1
 40
1
 40
1
 10
142.330765
 20
91.709871
 30
0.0
 10
142.330765
 20
91.983182
 30
0.0
 10
142.234303
 20
92.205965
 30
0.0
 10
142.041377
 20
92.378219
 30
0.0
  0
SPLINE
  5
114
100
AcDbEntity
  8
Shape2DView001
 62
7
100
AcDbSpline
 70
8
 71
3
 72
8
 73
4
 74
0
 40
0
 40
0
 40
0
 40
0
 40
1
 40
1
 40
1
 40
1
 10
142.041377
 20
92.378219
 30
0.0
 10
141.850749
 20
92.550473
 30
0.0
 10
141.601553
 20
92.636601
 30
0.0
 10
141.293792
 20
92.636601
 30
0.0
  0
SPLINE
  5
115
100
AcDbEntity
  8
Shape2DView001
 62
7
100
AcDbSpline
 70
8
 71
3
 72
8
 73
4
 74
0
 40
0
 40
0
 40
0
 40
0
 40
1
 40
1
 40
1
 40
1
 10
141.293792
 20
92.636601
 30
0.0
 10
141.075602
 20
92.636601
 30
0.0
 10
140.844781
 20
92.598705
 30
0.0
 10
140.601327
 20
92.522914
 30
0.0
  0
SPLINE
  5
116
100
AcDbEntity
  8
Shape2DView001
 62
7
100
AcDbSpline
 70
8
 71
3
 72
8
 73
4
 74
0
 40
0
 40
0
 40
0
 40
0
 40
1
 40
1
 40
1
 40
1
 10
140.601327
 20
92.522914
 30
0.0
 10
140.360172
 20
92.447122
 30
0.0
 10
140.101790
 20
92.332285
 30
0.0
 10
139.826182
 20
92.178403
 30
0.0
  0
LINE
  5
117
100
AcDbEntity
  8
Shape2DView001
 62
7
100
AcDbLine
 10
139.826182
 20
92.178403
 30
0.0
 11
139.826182
 21
92.881203
 31
0.0
  0
SPLINE
  5
118
100
AcDbEntity
  8
Shape2DView001
 62
7
100
AcDbSpline
 70
8
 71
3
 72
8
 73
4
 74
0
 40
0
 40
0
 40
0
 40
0
 40
1
 40
1
 40
1
 40
1
 10
139.826182
 20
92.881203
 30
0.0
 10
140.106383
 20
92.993742
 30
0.0
 10
140.368210
 20
93.078722
 30
0.0
 10
140.611664
 20
93.136142
 30
0.0
  0
SPLINE
  5
119
100
AcDbEntity
  8
Shape2DView001
 62
7
100
AcDbSpline
 70
8
 71
3
 72
8
 73
4
 74
0
 40
0
 40
0
 40
0
 40
0
 40
1
 40
1
 40
1
 40
1
 10
140.611664
 20
93.136142
 30
0.0
 10
140.855118
 20
93.193560
 30
0.0
 10
141.077901
 20
93.222269
 30
0.0
 10
141.280012
 20
93.222269
 30
0.0
  0
SPLINE
  5
11a
100
AcDbEntity
  8
Shape2DView001
 62
7
100
AcDbSpline
 70
8
 71
3
 72
8
 73
4
 74
0
 40
0
 40
0
 40
0
 40
0
 40
1
 40
1
 40
1
 40
1
 10
141.280012
 20
93.222269
 30
0.0
 10
141.812853
 20
93.222269
 30
0.0
 10
142.237748
 20
93.089058
 30
0.0
 10
142.554698
 20
92.822637
 30
0.0
  0
SPLINE
  5
11b
100
AcDbEntity
  8
Shape2DView001
 62
7
100
AcDbSpline
 70
8
 71
3
 72
8
 73
4
 74
0
 40
0
 40
0
 40
0
 40
0
 40
1
 40
1
 40
1
 40
1
 10
142.554698
 20
92.822637
 30
0.0
 10
142.871646
 20
92.556216
 30
0.0
 10
143.030120
 20
92.200222
 30
0.0
 10
143.030120
 20
91.754657
 30
0.0
  0
SPLINE
  5
11c
100
AcDbEntity
  8
Shape2DView001
 62
7
100
AcDbSpline
 70
8
 71
3
 72
8
 73
4
 74
0
 40
0
 40
0
 40
0
 40
0
 40
1
 40
1
 40
1
 40
1
 10
143.030120
 20
91.754657
 30
0.0
 10
143.030120
 20
91.543357
 30
0.0
 10
142.989927
 20
91.342394
 30
0.0
 10
142.909541
 20
91.151767
 30
0.0
  0
SPLINE
  5
11d
100
AcDbEntity
  8
Shape2DView001
 62
7
100
AcDbSpline
 70
8
 71
3
 72
8
 73
4
 74
0
 40
0
 40
0
 40
0
 40
0
 40
1
 40
1
 40
1
 40
1
 10
142.909541
 20
91.151767
 30
0.0
 10
142.831452
 20
90.963435
 30
0.0
 10
142.687907
 20
90.740651
 30
0.0
 10
142.478906
 20
90.483416
 30
0.0
  0
SPLINE
  5
11e
100
AcDbEntity
  8
Shape2DView001
 62
7
100
AcDbSpline
 70
8
 71
3
 72
8
 73
4
 74
0
 40
0
 40
0
 40
0
 40
0
 40
1
 40
1
 40
1
 40
1
 10
142.478906
 20
90.483416
 30
0.0
 10
142.421487
 20
90.416812
 30
0.0
 10
142.238898
 20
90.223886
 30
0.0
 10
141.931136
 20
89.904640
 30
0.0
  0
SPLINE
  5
11f
100
AcDbEntity
  8
Shape2DView001
 62
7
100
AcDbSpline
 70
8
 71
3
 72
8
 73
4
 74
0
 40
0
 40
0
 40
0
 40
0
 40
1
 40
1
 40
1
 40
1
 10
141.931136
 20
89.904640
 30
0.0
 10
141.623373
 20
89.587692
 30
0.0
 10
141.189290
 20
89.143275
 30
0.0
 10
140.628889
 20
88.571389
 30
0.0
  0
LINE
  5
120
100
AcDbEntity
  8
Shape2DView001
 62
7
100
AcDbLine
 10
140.628889
 20
88.571389
 30
0.0
 11
140.628889
 21
88.571389
 31
0.0
  0
LINE
  5
121
100
AcDbEntity
  8
Shape2DView001
 62
7
100
AcDbLine
 10
145.782752
 20
87.985723
 30
0.0
 11
143.819047
 21
93.129250
 31
0.0
  0
LINE
  5
122
100
AcDbEntity
  8
Shape2DView001
 62
7
100
AcDbLine
 10
143.819047
 20
93.129250
 30
0.0
 11
144.545963
 21
93.129250
 31
0.0
  0
LINE
  5
123
100
AcDbEntity
  8
Shape2DView001
 62
7
100
AcDbLine
 10
144.545963
 20
93.129250
 30
0.0
 11
146.175492
 21
88.798766
 31
0.0
  0
LINE
  5
124
100
AcDbEntity
  8
Shape2DView001
 62
7
100
AcDbLine
 10
146.175492
 20
88.798766
 30
0.0
 11
147.808468
 21
93.129250
 31
0.0
  0
LINE
  5
125
100
AcDbEntity
  8
Shape2DView001
 62
7
100
AcDbLine
 10
147.808468
 20
93.129250
 30
0.0
 11
148.531937
 21
93.129250
 31
0.0
  0
LINE
  5
126
100
AcDbEntity
  8
Shape2DView001
 62
7
100
AcDbLine
 10
148.531937
 20
93.129250
 30
0.0
 11
146.571679
 21
87.985723
 31
0.0
  0
LINE
  5
127
100
AcDbEntity
  8
Shape2DView001
 62
7
100
AcDbLine
 10
146.571679
 20
87.985723
 30
0.0
 11
145.782752
 21
87.985723
 31
0.0
  0
LINE
  5
128
100
AcDbEntity
  8
Shape2DView001
 62
7
100
AcDbLine
 10
148.521603
 20
90.200921
 30
0.0
 11
150.378509
 21
90.200921
 31
0.0
  0
LINE
  5
129
100
AcDbEntity
  8
Shape2DView001
 62
7
100
AcDbLine
 10
150.378509
 20
90.200921
 30
0.0
 11
150.378509
 21
89.635924
 31
0.0
  0
LINE
  5
12a
100
AcDbEntity
  8
Shape2DView001
 62
7
100
AcDbLine
 10
150.378509
 20
89.635924
 30
0.0
 11
148.521603
 21
89.635924
 31
0.0
  0
LINE
  5
12b
100
AcDbEntity
  8
Shape2DView001
 62
7
100
AcDbLine
 10
148.521603
 20
89.635924
 30
0.0
 11
148.521603
 21
90.200921
 31
0.0
  0
LINE
  5
12c
100
AcDbEntity
  8
Shape2DView001
 62
7
100
AcDbLine
 10
152.076941
 20
88.571389
 30
0.0
 11
154.505734
 21
88.571389
 31
0.0
  0
LINE
  5
12d
100
AcDbEntity
  8
Shape2DView001
 62
7
100
AcDbLine
 10
154.505734
 20
88.571389
 30
0.0
 11
154.505734
 21
87.985723
 31
0.0
  0
LINE
  5
12e
100
AcDbEntity
  8
Shape2DView001
 62
7
100
AcDbLine
 10
154.505734
 20
87.985723
 30
0.0
 11
151.239784
 21
87.985723
 31
0.0
  0
LINE
  5
12f
100
AcDbEntity
  8
Shape2DView001
 62
7
100
AcDbLine
 10
151.239784
 20
87.985723
 30
0.0
 11
151.239784
 21
88.571389
 31
0.0
  0
SPLINE
  5
130
100
AcDbEntity
  8
Shape2DView001
 62
7
100
AcDbSpline
 70
8
 71
3
 72
8
 73
4
 74
0
 40
0
 40
0
 40
0
 40
0
 40
1
 40
1
 40
1
 40
1
 10
151.239784
 20
88.571389
 30
0.0
 10
151.503907
 20
88.844700
 30
0.0
 10
151.863345
 20
89.211029
 30
0.0
 10
152.318098
 20
89.670375
 30
0.0
  0
SPLINE
  5
131
100
AcDbEntity
  8
Shape2DView001
 62
7
100
AcDbSpline
 70
8
 71
3
 72
8
 73
4
 74
0
 40
0
 40
0
 40
0
 40
0
 40
1
 40
1
 40
1
 40
1
 10
152.318098
 20
89.670375
 30
0.0
 10
152.775147
 20
90.132019
 30
0.0
 10
153.062237
 20
90.429445
 30
0.0
 10
153.179370
 20
90.562654
 30
0.0
  0
SPLINE
  5
132
100
AcDbEntity
  8
Shape2DView001
 62
7
100
AcDbSpline
 70
8
 71
3
 72
8
 73
4
 74
0
 40
0
 40
0
 40
0
 40
0
 40
1
 40
1
 40
1
 40
1
 10
153.179370
 20
90.562654
 30
0.0
 10
153.402154
 20
90.812997
 30
0.0
 10
153.557184
 20
91.024297
 30
0.0
 10
153.644460
 20
91.196553
 30
0.0
  0
SPLINE
  5
133
100
AcDbEntity
  8
Shape2DView001
 62
7
100
AcDbSpline
 70
8
 71
3
 72
8
 73
4
 74
0
 40
0
 40
0
 40
0
 40
0
 40
1
 40
1
 40
1
 40
1
 10
153.644460
 20
91.196553
 30
0.0
 10
153.734032
 20
91.371104
 30
0.0
 10
153.778818
 20
91.542210
 30
0.0
 10
153.778818
 20
91.709871
 30
0.0
  0
SPLINE
  5
134
100
AcDbEntity
  8
Shape2DView001
 62
7
100
AcDbSpline
 70
8
 71
3
 72
8
 73
4
 74
0
 40
0
 40
0
 40
0
 40
0
 40
1
 40
1
 40
1
 40
1
 10
153.778818
 20
91.709871
 30
0.0
 10
153.778818
 20
91.983182
 30
0.0
 10
153.682355
 20
92.205965
 30
0.0
 10
153.489430
 20
92.378219
 30
0.0
  0
SPLINE
  5
135
100
AcDbEntity
  8
Shape2DView001
 62
7
100
AcDbSpline
 70
8
 71
3
 72
8
 73
4
 74
0
 40
0
 40
0
 40
0
 40
0
 40
1
 40
1
 40
1
 40
1
 10
153.489430
 20
92.378219
 30
0.0
 10
153.298801
 20
92.550473
 30
0.0
 10
153.049606
 20
92.636601
 30
0.0
 10
152.741844
 20
92.636601
 30
0.0
  0
SPLINE
  5
136
100
AcDbEntity
  8
Shape2DView001
 62
7
100
AcDbSpline
 70
8
 71
3
 72
8
 73
4
 74
0
 40
0
 40
0
 40
0
 40
0
 40
1
 40
1
 40
1
 40
1
 10
152.741844
 20
92.636601
 30
0.0
 10
152.523655
 20
92.636601
 30
0.0
 10
152.292833
 20
92.598705
 30
0.0
 10
152.049379
 20
92.522914
 30
0.0
  0
SPLINE
  5
137
100
AcDbEntity
  8
Shape2DView001
 62
7
100
AcDbSpline
 70
8
 71
3
 72
8
 73
4
 74
0
 40
0
 40
0
 40
0
 40
0
 40
1
 40
1
 40
1
 40
1
 10
152.049379
 20
92.522914
 30
0.0
 10
151.808222
 20
92.447122
 30
0.0
 10
151.549840
 20
92.332285
 30
0.0
 10
151.274232
 20
92.178403
 30
0.0
  0
LINE
  5
138
100
AcDbEntity
  8
Shape2DView001
 62
7
100
AcDbLine
 10
151.274232
 20
92.178403
 30
0.0
 11
151.274232
 21
92.881203
 31
0.0
  0
SPLINE
  5
139
100
AcDbEntity
  8
Shape2DView001
 62
7
100
AcDbSpline
 70
8
 71
3
 72
8
 73
4
 74
0
 40
0
 40
0
 40
0
 40
0
 40
1
 40
1
 40
1
 40
1
 10
151.274232
 20
92.881203
 30
0.0
 10
151.554435
 20
92.993742
 30
0.0
 10
151.816262
 20
93.078722
 30
0.0
 10
152.059714
 20
93.136142
 30
0.0
  0
SPLINE
  5
13a
100
AcDbEntity
  8
Shape2DView001
 62
7
100
AcDbSpline
 70
8
 71
3
 72
8
 73
4
 74
0
 40
0
 40
0
 40
0
 40
0
 40
1
 40
1
 40
1
 40
1
 10
152.059714
 20
93.136142
 30
0.0
 10
152.303168
 20
93.193560
 30
0.0
 10
152.525951
 20
93.222269
 30
0.0
 10
152.728065
 20
93.222269
 30
0.0
  0
SPLINE
  5
13b
100
AcDbEntity
  8
Shape2DView001
 62
7
100
AcDbSpline
 70
8
 71
3
 72
8
 73
4
 74
0
 40
0
 40
0
 40
0
 40
0
 40
1
 40
1
 40
1
 40
1
 10
152.728065
 20
93.222269
 30
0.0
 10
153.260906
 20
93.222269
 30
0.0
 10
153.685800
 20
93.089058
 30
0.0
 10
154.002748
 20
92.822637
 30
0.0
  0
SPLINE
  5
13c
100
AcDbEntity
  8
Shape2DView001
 62
7
100
AcDbSpline
 70
8
 71
3
 72
8
 73
4
 74
0
 40
0
 40
0
 40
0
 40
0
 40
1
 40
1
 40
1
 40
1
 10
154.002748
 20
92.822637
 30
0.0
 10
154.319698
 20
92.556216
 30
0.0
 10
154.478172
 20
92.200222
 30
0.0
 10
154.478172
 20
91.754657
 30
0.0
  0
SPLINE
  5
13d
100
AcDbEntity
  8
Shape2DView001
 62
7
100
AcDbSpline
 70
8
 71
3
 72
8
 73
4
 74
0
 40
0
 40
0
 40
0
 40
0
 40
1
 40
1
 40
1
 40
1
 10
154.478172
 20
91.754657
 30
0.0
 10
154.478172
 20
91.543357
 30
0.0
 10
154.437980
 20
91.342394
 30
0.0
 10
154.357594
 20
91.151767
 30
0.0
  0
SPLINE
  5
13e
100
AcDbEntity
  8
Shape2DView001
 62
7
100
AcDbSpline
 70
8
 71
3
 72
8
 73
4
 74
0
 40
0
 40
0
 40
0
 40
0
 40
1
 40
1
 40
1
 40
1
 10
154.357594
 20
91.151767
 30
0.0
 10
154.279505
 20
90.963435
 30
0.0
 10
154.135959
 20
90.740651
 30
0.0
 10
153.926958
 20
90.483416
 30
0.0
  0
SPLINE
  5
13f
100
AcDbEntity
  8
Shape2DView001
 62
7
100
AcDbSpline
 70
8
 71
3
 72
8
 73
4
 74
0
 40
0
 40
0
 40
0
 40
0
 40
1
 40
1
 40
1
 40
1
 10
153.926958
 20
90.483416
 30
0.0
 10
153.869538
 20
90.416812
 30
0.0
 10
153.686947
 20
90.223886
 30
0.0
 10
153.379186
 20
89.904640
 30
0.0
  0
SPLINE
  5
140
100
AcDbEntity
  8
Shape2DView001
 62
7
100
AcDbSpline
 70
8
 71
3
 72
8
 73
4
 74
0
 40
0
 40
0
 40
0
 40
0
 40
1
 40
1
 40
1
 40
1
 10
153.379186
 20
89.904640
 30
0.0
 10
153.071424
 20
89.587692
 30
0.0
 10
152.637343
 20
89.143275
 30
0.0
 10
152.076941
 20
88.571389
 30
0.0
  0
LINE
  5
141
100
AcDbEntity
  8
Shape2DView001
 62
7
100
AcDbLine
 10
152.076941
 20
88.571389
 30
0.0
 11
152.076941
 21
88.571389
 31
0.0
  0
SPLINE
  5
142
100
AcDbEntity
  8
Shape2DView001
 62
7
100
AcDbSpline
 70
8
 71
3
 72
8
 73
4
 74
0
 40
0
 40
0
 40
0
 40
0
 40
1
 40
1
 40
1
 40
1
 10
157.540862
 20
90.834817
 30
0.0
 10
157.228506
 20
90.834817
 30
0.0
 10
156.980459
 20
90.728019
 30
0.0
 10
156.796721
 20
90.514423
 30
0.0
  0
SPLINE
  5
143
100
AcDbEntity
  8
Shape2DView001
 62
7
100
AcDbSpline
 70
8
 71
3
 72
8
 73
4
 74
0
 40
0
 40
0
 40
0
 40
0
 40
1
 40
1
 40
1
 40
1
 10
156.796721
 20
90.514423
 30
0.0
 10
156.615279
 20
90.300826
 30
0.0
 10
156.524558
 20
90.007993
 30
0.0
 10
156.524558
 20
89.635924
 30
0.0
  0
SPLINE
  5
144
100
AcDbEntity
  8
Shape2DView001
 62
7
100
AcDbSpline
 70
8
 71
3
 72
8
 73
4
 74
0
 40
0
 40
0
 40
0
 40
0
 40
1
 40
1
 40
1
 40
1
 10
156.524558
 20
89.635924
 30
0.0
 10
156.524558
 20
89.266151
 30
0.0
 10
156.615279
 20
88.973318
 30
0.0
 10
156.796721
 20
88.757425
 30
0.0
  0
SPLINE
  5
145
100
AcDbEntity
  8
Shape2DView001
 62
7
100
AcDbSpline
 70
8
 71
3
 72
8
 73
4
 74
0
 40
0
 40
0
 40
0
 40
0
 40
1
 40
1
 40
1
 40
1
 10
156.796721
 20
88.757425
 30
0.0
 10
156.980459
 20
88.543829
 30
0.0
 10
157.228506
 20
88.437031
 30
0.0
 10
157.540862
 20
88.437031
 30
0.0
  0
SPLINE
  5
146
100
AcDbEntity
  8
Shape2DView001
 62
7
100
AcDbSpline
 70
8
 71
3
 72
8
 73
4
 74
0
 40
0
 40
0
 40
0
 40
0
 40
1
 40
1
 40
1
 40
1
 10
157.540862
 20
88.437031
 30
0.0
 10
157.853217
 20
88.437031
 30
0.0
 10
158.100115
 20
88.543829
 30
0.0
 10
158.281558
 20
88.757425
 30
0.0
  0
SPLINE
  5
147
100
AcDbEntity
  8
Shape2DView001
 62
7
100
AcDbSpline
 70
8
 71
3
 72
8
 73
4
 74
0
 40
0
 40
0
 40
0
 40
0
 40
1
 40
1
 40
1
 40
1
 10
158.281558
 20
88.757425
 30
0.0
 10
158.465295
 20
88.973318
 30
0.0
 10
158.557164
 20
89.266151
 30
0.0
 10
158.557164
 20
89.635924
 30
0.0
  0
SPLINE
  5
148
100
AcDbEntity
  8
Shape2DView001
 62
7
100
AcDbSpline
 70
8
 71
3
 72
8
 73
4
 74
0
 40
0
 40
0
 40
0
 40
0
 40
1
 40
1
 40
1
 40
1
 10
158.557164
 20
89.635924
 30
0.0
 10
158.557164
 20
90.007993
 30
0.0
 10
158.465295
 20
90.300826
 30
0.0
 10
158.281558
 20
90.514423
 30
0.0
  0
SPLINE
  5
149
100
AcDbEntity
  8
Shape2DView001
 62
7
100
AcDbSpline
 70
8
 71
3
 72
8
 73
4
 74
0
 40
0
 40
0
 40
0
 40
0
 40
1
 40
1
 40
1
 40
1
 10
158.281558
 20
90.514423
 30
0.0
 10
158.100115
 20
90.728019
 30
0.0
 10
157.853217
 20
90.834817
 30
0.0
 10
157.540862
 20
90.834817
 30
0.0
  0
LINE
  5
14a
100
AcDbEntity
  8
Shape2DView001
 62
7
100
AcDbLine
 10
157.540862
 20
90.834817
 30
0.0
 11
157.540862
 21
90.834817
 31
0.0
  0
LINE
  5
14b
100
AcDbEntity
  8
Shape2DView001
 62
7
100
AcDbLine
 10
158.922344
 20
93.015563
 30
0.0
 11
158.922344
 21
92.381664
 31
0.0
  0
SPLINE
  5
14c
100
AcDbEntity
  8
Shape2DView001
 62
7
100
AcDbSpline
 70
8
 71
3
 72
8
 73
4
 74
0
 40
0
 40
0
 40
0
 40
0
 40
1
 40
1
 40
1
 40
1
 10
158.922344
 20
92.381664
 30
0.0
 10
158.747793
 20
92.464346
 30
0.0
 10
158.570945
 20
92.527507
 30
0.0
 10
158.391799
 20
92.571145
 30
0.0
  0
SPLINE
  5
14d
100
AcDbEntity
  8
Shape2DView001
 62
7
100
AcDbSpline
 70
8
 71
3
 72
8
 73
4
 74
0
 40
0
 40
0
 40
0
 40
0
 40
1
 40
1
 40
1
 40
1
 10
158.391799
 20
92.571145
 30
0.0
 10
158.214952
 20
92.614782
 30
0.0
 10
158.039252
 20
92.636601
 30
0.0
 10
157.864702
 20
92.636601
 30
0.0
  0
SPLINE
  5
14e
100
AcDbEntity
  8
Shape2DView001
 62
7
100
AcDbSpline
 70
8
 71
3
 72
8
 73
4
 74
0
 40
0
 40
0
 40
0
 40
0
 40
1
 40
1
 40
1
 40
1
 10
157.864702
 20
92.636601
 30
0.0
 10
157.405355
 20
92.636601
 30
0.0
 10
157.053955
 20
92.481572
 30
0.0
 10
156.810501
 20
92.171513
 30
0.0
  0
SPLINE
  5
14f
100
AcDbEntity
  8
Shape2DView001
 62
7
100
AcDbSpline
 70
8
 71
3
 72
8
 73
4
 74
0
 40
0
 40
0
 40
0
 40
0
 40
1
 40
1
 40
1
 40
1
 10
156.810501
 20
92.171513
 30
0.0
 10
156.569344
 20
91.861455
 30
0.0
 10
156.431540
 20
91.392922
 30
0.0
 10
156.397090
 20
90.765914
 30
0.0
  0
SPLINE
  5
150
100
AcDbEntity
  8
Shape2DView001
 62
7
100
AcDbSpline
 70
8
 71
3
 72
8
 73
4
 74
0
 40
0
 40
0
 40
0
 40
0
 40
1
 40
1
 40
1
 40
1
 10
156.397090
 20
90.765914
 30
0.0
 10
156.532597
 20
90.965730
 30
0.0
 10
156.702555
 20
91.118462
 30
0.0
 10
156.906963
 20
91.224112
 30
0.0
  0
SPLINE
  5
151
100
AcDbEntity
  8
Shape2DView001
 62
7
100
AcDbSpline
 70
8
 71
3
 72
8
 73
4
 74
0
 40
0
 40
0
 40
0
 40
0
 40
1
 40
1
 40
1
 40
1
 10
156.906963
 20
91.224112
 30
0.0
 10
157.111373
 20
91.332058
 30
0.0
 10
157.336453
 20
91.386032
 30
0.0
 10
157.582203
 20
91.386032
 30
0.0
  0
SPLINE
  5
152
100
AcDbEntity
  8
Shape2DView001
 62
7
100
AcDbSpline
 70
8
 71
3
 72
8
 73
4
 74
0
 40
0
 40
0
 40
0
 40
0
 40
1
 40
1
 40
1
 40
1
 10
157.582203
 20
91.386032
 30
0.0
 10
158.098968
 20
91.386032
 30
0.0
 10
158.506637
 20
91.228706
 30
0.0
 10
158.805211
 20
90.914055
 30
0.0
  0
SPLINE
  5
153
100
AcDbEntity
  8
Shape2DView001
 62
7
100
AcDbSpline
 70
8
 71
3
 72
8
 73
4
 74
0
 40
0
 40
0
 40
0
 40
0
 40
1
 40
1
 40
1
 40
1
 10
158.805211
 20
90.914055
 30
0.0
 10
159.106082
 20
90.601700
 30
0.0
 10
159.256518
 20
90.175656
 30
0.0
 10
159.256518
 20
89.635924
 30
0.0
  0
SPLINE
  5
154
100
AcDbEntity
  8
Shape2DView001
 62
7
100
AcDbSpline
 70
8
 71
3
 72
8
 73
4
 74
0
 40
0
 40
0
 40
0
 40
0
 40
1
 40
1
 40
1
 40
1
 10
159.256518
 20
89.635924
 30
0.0
 10
159.256518
 20
89.107676
 30
0.0
 10
159.100341
 20
88.683929
 30
0.0
 10
158.787986
 20
88.364683
 30
0.0
  0
SPLINE
  5
155
100
AcDbEntity
  8
Shape2DView001
 62
7
100
AcDbSpline
 70
8
 71
3
 72
8
 73
4
 74
0
 40
0
 40
0
 40
0
 40
0
 40
1
 40
1
 40
1
 40
1
 10
158.787986
 20
88.364683
 30
0.0
 10
158.475631
 20
88.045439
 30
0.0
 10
158.059923
 20
87.885816
 30
0.0
 10
157.540862
 20
87.885816
 30
0.0
  0
SPLINE
  5
156
100
AcDbEntity
  8
Shape2DView001
 62
7
100
AcDbSpline
 70
8
 71
3
 72
8
 73
4
 74
0
 40
0
 40
0
 40
0
 40
0
 40
1
 40
1
 40
1
 40
1
 10
157.540862
 20
87.885816
 30
0.0
 10
156.946008
 20
87.885816
 30
0.0
 10
156.491256
 20
88.113192
 30
0.0
 10
156.176604
 20
88.567944
 30
0.0
  0
SPLINE
  5
157
100
AcDbEntity
  8
Shape2DView001
 62
7
100
AcDbSpline
 70
8
 71
3
 72
8
 73
4
 74
0
 40
0
 40
0
 40
0
 40
0
 40
1
 40
1
 40
1
 40
1
 10
156.176604
 20
88.567944
 30
0.0
 10
155.861951
 20
89.024994
 30
0.0
 10
155.704625
 20
89.686452
 30
0.0
 10
155.704625
 20
90.552319
 30
0.0
  0
SPLINE
  5
158
100
AcDbEntity
  8
Shape2DView001
 62
7
100
AcDbSpline
 70
8
 71
3
 72
8
 73
4
 74
0
 40
0
 40
0
 40
0
 40
0
 40
1
 40
1
 40
1
 40
1
 10
155.704625
 20
90.552319
 30
0.0
 10
155.704625
 20
91.365362
 30
0.0
 10
155.897550
 20
92.013040
 30
0.0
 10
156.283401
 20
92.495353
 30
0.0
  0
SPLINE
  5
159
100
AcDbEntity
  8
Shape2DView001
 62
7
100
AcDbSpline
 70
8
 71
3
 72
8
 73
4
 74
0
 40
0
 40
0
 40
0
 40
0
 40
1
 40
1
 40
1
 40
1
 10
156.283401
 20
92.495353
 30
0.0
 10
156.669251
 20
92.979964
 30
0.0
 10
157.187164
 20
93.222269
 30
0.0
 10
157.837140
 20
93.222269
 30
0.0
  0
SPLINE
  5
15a
100
AcDbEntity
  8
Shape2DView001
 62
7
100
AcDbSpline
 70
8
 71
3
 72
8
 73
4
 74
0
 40
0
 40
0
 40
0
 40
0
 40
1
 40
1
 40
1
 40
1
 10
157.837140
 20
93.222269
 30
0.0
 10
158.011691
 20
93.222269
 30
0.0
 10
158.187391
 20
93.205043
 30
0.0
 10
158.364240
 20
93.170591
 30
0.0
  0
SPLINE
  5
15b
100
AcDbEntity
  8
Shape2DView001
 62
7
100
AcDbSpline
 70
8
 71
3
 72
8
 73
4
 74
0
 40
0
 40
0
 40
0
 40
0
 40
1
 40
1
 40
1
 40
1
 10
158.364240
 20
93.170591
 30
0.0
 10
158.543384
 20
93.136140
 30
0.0
 10
158.729419
 20
93.084464
 30
0.0
 10
158.922344
 20
93.015563
 30
0.0
  0
LINE
  5
15c
100
AcDbEntity
  8
Shape2DView001
 62
7
100
AcDbLine
 10
158.922344
 20
93.015563
 30
0.0
 11
158.922344
 21
93.015563
 31
0.0
  0
LINE
  5
15d
100
AcDbEntity
  8
Shape2DView001
 62
7
100
AcDbLine
 10
161.719763
 20
87.985723
 30
0.0
 11
159.756060
 21
93.129250
 31
0.0
  0
LINE
  5
15e
100
AcDbEntity
  8
Shape2DView001
 62
7
100
AcDbLine
 10
159.756060
 20
93.129250
 30
0.0
 11
160.482973
 21
93.129250
 31
0.0
  0
LINE
  5
15f
100
AcDbEntity
  8
Shape2DView001
 62
7
100
AcDbLine
 10
160.482973
 20
93.129250
 30
0.0
 11
162.112505
 21
88.798766
 31
0.0
  0
LINE
  5
160
100
AcDbEntity
  8
Shape2DView001
 62
7
100
AcDbLine
 10
162.112505
 20
88.798766
 30
0.0
 11
163.745479
 21
93.129250
 31
0.0
  0
LINE
  5
161
100
AcDbEntity
  8
Shape2DView001
 62
7
100
AcDbLine
 10
163.745479
 20
93.129250
 30
0.0
 11
164.468950
 21
93.129250
 31
0.0
  0
LINE
  5
162
100
AcDbEntity
  8
Shape2DView001
 62
7
100
AcDbLine
 10
164.468950
 20
93.129250
 30
0.0
 11
162.508689
 21
87.985723
 31
0.0
  0
LINE
  5
163
100
AcDbEntity
  8
Shape2DView001
 62
7
100
AcDbLine
 10
162.508689
 20
87.985723
 30
0.0
 11
161.719763
 21
87.985723
 31
0.0
  0
LINE
  5
164
100
AcDbEntity
  8
Shape2DView001
 62
7
100
AcDbLine
 10
167.462737
 20
93.129250
 30
0.0
 11
168.158647
 21
93.129250
 31
0.0
  0
LINE
  5
165
100
AcDbEntity
  8
Shape2DView001
 62
7
100
AcDbLine
 10
168.158647
 20
93.129250
 30
0.0
 11
168.158647
 21
87.985723
 31
0.0
  0
LINE
  5
166
100
AcDbEntity
  8
Shape2DView001
 62
7
100
AcDbLine
 10
168.158647
 20
87.985723
 30
0.0
 11
167.462737
 21
87.985723
 31
0.0
  0
LINE
  5
167
100
AcDbEntity
  8
Shape2DView001
 62
7
100
AcDbLine
 10
167.462737
 20
87.985723
 30
0.0
 11
167.462737
 21
93.129250
 31
0.0
  0
LINE
  5
168
100
AcDbEntity
  8
Shape2DView001
 62
7
100
AcDbLine
 10
169.543577
 20
93.129250
 30
0.0
 11
170.480641
 21
93.129250
 31
0.0
  0
LINE
  5
169
100
AcDbEntity
  8
Shape2DView001
 62
7
100
AcDbLine
 10
170.480641
 20
93.129250
 30
0.0
 11
172.761294
 21
88.826325
 31
0.0
  0
LINE
  5
16a
100
AcDbEntity
  8
Shape2DView001
 62
7
100
AcDbLine
 10
172.761294
 20
88.826325
 30
0.0
 11
172.761294
 21
93.129250
 31
0.0
  0
LINE
  5
16b
100
AcDbEntity
  8
Shape2DView001
 62
7
100
AcDbLine
 10
172.761294
 20
93.129250
 30
0.0
 11
173.436534
 21
93.129250
 31
0.0
  0
LINE
  5
16c
100
AcDbEntity
  8
Shape2DView001
 62
7
100
AcDbLine
 10
173.436534
 20
93.129250
 30
0.0
 11
173.436534
 21
87.985723
 31
0.0
  0
LINE
  5
16d
100
AcDbEntity
  8
Shape2DView001
 62
7
100
AcDbLine
 10
173.436534
 20
87.985723
 30
0.0
 11
172.499467
 21
87.985723
 31
0.0
  0
LINE
  5
16e
100
AcDbEntity
  8
Shape2DView001
 62
7
100
AcDbLine
 10
172.499467
 20
87.985723
 30
0.0
 11
170.218814
 21
92.288647
 31
0.0
  0
LINE
  5
16f
100
AcDbEntity
  8
Shape2DView001
 62
7
100
AcDbLine
 10
170.218814
 20
92.288647
 30
0.0
 11
170.218814
 21
87.985723
 31
0.0
  0
LINE
  5
170
100
AcDbEntity
  8
Shape2DView001
 62
7
100
AcDbLine
 10
170.218814
 20
87.985723
 30
0.0
 11
169.543577
 21
87.985723
 31
0.0
  0
LINE
  5
171
100
AcDbEntity
  8
Shape2DView001
 62
7
100
AcDbLine
 10
169.543577
 20
87.985723
 30
0.0
 11
169.543577
 21
93.129250
 31
0.0
  0
LINE
  5
172
100
AcDbEntity
  8
Shape2DView001
 62
7
100
AcDbLine
 10
175.517368
 20
92.557366
 30
0.0
 11
175.517368
 21
90.624667
 31
0.0
  0
LINE
  5
173
100
AcDbEntity
  8
Shape2DView001
 62
7
100
AcDbLine
 10
175.517368
 20
90.624667
 30
0.0
 11
176.392422
 21
90.624667
 31
0.0
  0
SPLINE
  5
174
100
AcDbEntity
  8
Shape2DView001
 62
7
100
AcDbSpline
 70
8
 71
3
 72
8
 73
4
 74
0
 40
0
 40
0
 40
0
 40
0
 40
1
 40
1
 40
1
 40
1
 10
176.392422
 20
90.624667
 30
0.0
 10
176.716261
 20
90.624667
 30
0.0
 10
176.966605
 20
90.708497
 30
0.0
 10
177.143452
 20
90.876158
 30
0.0
  0
SPLINE
  5
175
100
AcDbEntity
  8
Shape2DView001
 62
7
100
AcDbSpline
 70
8
 71
3
 72
8
 73
4
 74
0
 40
0
 40
0
 40
0
 40
0
 40
1
 40
1
 40
1
 40
1
 10
177.143452
 20
90.876158
 30
0.0
 10
177.320302
 20
91.043820
 30
0.0
 10
177.408726
 20
91.282679
 30
0.0
 10
177.408726
 20
91.592737
 30
0.0
  0
SPLINE
  5
176
100
AcDbEntity
  8
Shape2DView001
 62
7
100
AcDbSpline
 70
8
 71
3
 72
8
 73
4
 74
0
 40
0
 40
0
 40
0
 40
0
 40
1
 40
1
 40
1
 40
1
 10
177.408726
 20
91.592737
 30
0.0
 10
177.408726
 20
91.900499
 30
0.0
 10
177.320302
 20
92.138210
 30
0.0
 10
177.143452
 20
92.305871
 30
0.0
  0
SPLINE
  5
177
100
AcDbEntity
  8
Shape2DView001
 62
7
100
AcDbSpline
 70
8
 71
3
 72
8
 73
4
 74
0
 40
0
 40
0
 40
0
 40
0
 40
1
 40
1
 40
1
 40
1
 10
177.143452
 20
92.305871
 30
0.0
 10
176.966605
 20
92.473534
 30
0.0
 10
176.716261
 20
92.557366
 30
0.0
 10
176.392422
 20
92.557366
 30
0.0
  0
LINE
  5
178
100
AcDbEntity
  8
Shape2DView001
 62
7
100
AcDbLine
 10
176.392422
 20
92.557366
 30
0.0
 11
175.517368
 21
92.557366
 31
0.0
  0
LINE
  5
179
100
AcDbEntity
  8
Shape2DView001
 62
7
100
AcDbLine
 10
174.821458
 20
93.129250
 30
0.0
 11
176.392422
 21
93.129250
 31
0.0
  0
SPLINE
  5
17a
100
AcDbEntity
  8
Shape2DView001
 62
7
100
AcDbSpline
 70
8
 71
3
 72
8
 73
4
 74
0
 40
0
 40
0
 40
0
 40
0
 40
1
 40
1
 40
1
 40
1
 10
176.392422
 20
93.129250
 30
0.0
 10
176.968901
 20
93.129250
 30
0.0
 10
177.404132
 20
92.998336
 30
0.0
 10
177.698114
 20
92.736510
 30
0.0
  0
SPLINE
  5
17b
100
AcDbEntity
  8
Shape2DView001
 62
7
100
AcDbSpline
 70
8
 71
3
 72
8
 73
4
 74
0
 40
0
 40
0
 40
0
 40
0
 40
1
 40
1
 40
1
 40
1
 10
177.698114
 20
92.736510
 30
0.0
 10
177.994393
 20
92.476978
 30
0.0
 10
178.142532
 20
92.095721
 30
0.0
 10
178.142532
 20
91.592737
 30
0.0
  0
SPLINE
  5
17c
100
AcDbEntity
  8
Shape2DView001
 62
7
100
AcDbSpline
 70
8
 71
3
 72
8
 73
4
 74
0
 40
0
 40
0
 40
0
 40
0
 40
1
 40
1
 40
1
 40
1
 10
178.142532
 20
91.592737
 30
0.0
 10
178.142532
 20
91.085161
 30
0.0
 10
177.994393
 20
90.701607
 30
0.0
 10
177.698114
 20
90.442075
 30
0.0
  0
SPLINE
  5
17d
100
AcDbEntity
  8
Shape2DView001
 62
7
100
AcDbSpline
 70
8
 71
3
 72
8
 73
4
 74
0
 40
0
 40
0
 40
0
 40
0
 40
1
 40
1
 40
1
 40
1
 10
177.698114
 20
90.442075
 30
0.0
 10
177.404132
 20
90.182545
 30
0.0
 10
176.968901
 20
90.052780
 30
0.0
 10
176.392422
 20
90.052780
 30
0.0
  0
LINE
  5
17e
100
AcDbEntity
  8
Shape2DView001
 62
7
100
AcDbLine
 10
176.392422
 20
90.052780
 30
0.0
 11
175.517368
 21
90.052780
 31
0.0
  0
LINE
  5
17f
100
AcDbEntity
  8
Shape2DView001
 62
7
100
AcDbLine
 10
175.517368
 20
90.052780
 30
0.0
 11
175.517368
 21
87.985723
 31
0.0
  0
LINE
  5
180
100
AcDbEntity
  8
Shape2DView001
 62
7
100
AcDbLine
 10
175.517368
 20
87.985723
 30
0.0
 11
174.821458
 21
87.985723
 31
0.0
  0
LINE
  5
181
100
AcDbEntity
  8
Shape2DView001
 62
7
100
AcDbLine
 10
174.821458
 20
87.985723
 30
0.0
 11
174.821458
 21
93.129250
 31
0.0
  0
LINE
  5
182
100
AcDbEntity
  8
Shape2DView001
 62
7
100
AcDbLine
 10
178.996917
 20
93.129250
 30
0.0
 11
179.696271
 21
93.129250
 31
0.0
  0
LINE
  5
183
100
AcDbEntity
  8
Shape2DView001
 62
7
100
AcDbLine
 10
179.696271
 20
93.129250
 30
0.0
 11
179.696271
 21
90.004549
 31
0.0
  0
SPLINE
  5
184
100
AcDbEntity
  8
Shape2DView001
 62
7
100
AcDbSpline
 70
8
 71
3
 72
8
 73
4
 74
0
 40
0
 40
0
 40
0
 40
0
 40
1
 40
1
 40
1
 40
1
 10
179.696271
 20
90.004549
 30
0.0
 10
179.696271
 20
89.453334
 30
0.0
 10
179.796179
 20
89.056000
 30
0.0
 10
179.995994
 20
88.812546
 30
0.0
  0
SPLINE
  5
185
100
AcDbEntity
  8
Shape2DView001
 62
7
100
AcDbSpline
 70
8
 71
3
 72
8
 73
4
 74
0
 40
0
 40
0
 40
0
 40
0
 40
1
 40
1
 40
1
 40
1
 10
179.995994
 20
88.812546
 30
0.0
 10
180.195809
 20
88.571389
 30
0.0
 10
180.519648
 20
88.450810
 30
0.0
 10
180.967510
 20
88.450810
 30
0.0
  0
SPLINE
  5
186
100
AcDbEntity
  8
Shape2DView001
 62
7
100
AcDbSpline
 70
8
 71
3
 72
8
 73
4
 74
0
 40
0
 40
0
 40
0
 40
0
 40
1
 40
1
 40
1
 40
1
 10
180.967510
 20
88.450810
 30
0.0
 10
181.413077
 20
88.450810
 30
0.0
 10
181.735768
 20
88.571389
 30
0.0
 10
181.935583
 20
88.812546
 30
0.0
  0
SPLINE
  5
187
100
AcDbEntity
  8
Shape2DView001
 62
7
100
AcDbSpline
 70
8
 71
3
 72
8
 73
4
 74
0
 40
0
 40
0
 40
0
 40
0
 40
1
 40
1
 40
1
 40
1
 10
181.935583
 20
88.812546
 30
0.0
 10
182.135398
 20
89.056000
 30
0.0
 10
182.235306
 20
89.453334
 30
0.0
 10
182.235306
 20
90.004549
 30
0.0
  0
LINE
  5
188
100
AcDbEntity
  8
Shape2DView001
 62
7
100
AcDbLine
 10
182.235306
 20
90.004549
 30
0.0
 11
182.235306
 21
93.129250
 31
0.0
  0
LINE
  5
189
100
AcDbEntity
  8
Shape2DView001
 62
7
100
AcDbLine
 10
182.235306
 20
93.129250
 30
0.0
 11
182.934660
 21
93.129250
 31
0.0
  0
LINE
  5
18a
100
AcDbEntity
  8
Shape2DView001
 62
7
100
AcDbLine
 10
182.934660
 20
93.129250
 30
0.0
 11
182.934660
 21
89.918422
 31
0.0
  0
SPLINE
  5
18b
100
AcDbEntity
  8
Shape2DView001
 62
7
100
AcDbSpline
 70
8
 71
3
 72
8
 73
4
 74
0
 40
0
 40
0
 40
0
 40
0
 40
1
 40
1
 40
1
 40
1
 10
182.934660
 20
89.918422
 30
0.0
 10
182.934660
 20
89.247776
 30
0.0
 10
182.768147
 20
88.741347
 30
0.0
 10
182.435122
 20
88.399135
 30
0.0
  0
SPLINE
  5
18c
100
AcDbEntity
  8
Shape2DView001
 62
7
100
AcDbSpline
 70
8
 71
3
 72
8
 73
4
 74
0
 40
0
 40
0
 40
0
 40
0
 40
1
 40
1
 40
1
 40
1
 10
182.435122
 20
88.399135
 30
0.0
 10
182.104392
 20
88.056922
 30
0.0
 10
181.615188
 20
87.885816
 30
0.0
 10
180.967510
 20
87.885816
 30
0.0
  0
SPLINE
  5
18d
100
AcDbEntity
  8
Shape2DView001
 62
7
100
AcDbSpline
 70
8
 71
3
 72
8
 73
4
 74
0
 40
0
 40
0
 40
0
 40
0
 40
1
 40
1
 40
1
 40
1
 10
180.967510
 20
87.885816
 30
0.0
 10
180.317536
 20
87.885816
 30
0.0
 10
179.826036
 20
88.056922
 30
0.0
 10
179.493011
 20
88.399135
 30
0.0
  0
SPLINE
  5
18e
100
AcDbEntity
  8
Shape2DView001
 62
7
100
AcDbSpline
 70
8
 71
3
 72
8
 73
4
 74
0
 40
0
 40
0
 40
0
 40
0
 40
1
 40
1
 40
1
 40
1
 10
179.493011
 20
88.399135
 30
0.0
 10
179.162281
 20
88.741347
 30
0.0
 10
178.996917
 20
89.247776
 30
0.0
 10
178.996917
 20
89.918422
 30
0.0
  0
LINE
  5
18f
100
AcDbEntity
  8
Shape2DView001
 62
7
100
AcDbLine
 10
178.996917
 20
89.918422
 30
0.0
 11
178.996917
 21
93.129250
 31
0.0
  0
LINE
  5
190
100
AcDbEntity
  8
Shape2DView001
 62
7
100
AcDbLine
 10
183.527218
 20
93.129250
 30
0.0
 11
187.878373
 21
93.129250
 31
0.0
  0
LINE
  5
191
100
AcDbEntity
  8
Shape2DView001
 62
7
100
AcDbLine
 10
187.878373
 20
93.129250
 30
0.0
 11
187.878373
 21
92.543584
 31
0.0
  0
LINE
  5
192
100
AcDbEntity
  8
Shape2DView001
 62
7
100
AcDbLine
 10
187.878373
 20
92.543584
 30
0.0
 11
186.052473
 21
92.543584
 31
0.0
  0
LINE
  5
193
100
AcDbEntity
  8
Shape2DView001
 62
7
100
AcDbLine
 10
186.052473
 20
92.543584
 30
0.0
 11
186.052473
 21
87.985723
 31
0.0
  0
LINE
  5
194
100
AcDbEntity
  8
Shape2DView001
 62
7
100
AcDbLine
 10
186.052473
 20
87.985723
 30
0.0
 11
185.353119
 21
87.985723
 31
0.0
  0
LINE
  5
195
100
AcDbEntity
  8
Shape2DView001
 62
7
100
AcDbLine
 10
185.353119
 20
87.985723
 30
0.0
 11
185.353119
 21
92.543584
 31
0.0
  0
LINE
  5
196
100
AcDbEntity
  8
Shape2DView001
 62
7
100
AcDbLine
 10
185.353119
 20
92.543584
 30
0.0
 11
183.527218
 21
92.543584
 31
0.0
  0
LINE
  5
197
100
AcDbEntity
  8
Shape2DView001
 62
7
100
AcDbLine
 10
183.527218
 20
92.543584
 30
0.0
 11
183.527218
 21
93.129250
 31
0.0
  0
SPLINE
  5
198
100
AcDbEntity
  8
Shape2DView001
 62
7
100
AcDbSpline
 70
8
 71
3
 72
8
 73
4
 74
0
 40
0
 40
0
 40
0
 40
0
 40
1
 40
1
 40
1
 40
1
 10
11.659971
 20
67.949851
 30
0.0
 10
11.205219
 20
67.949851
 30
0.0
 10
10.843484
 20
67.780352
 30
0.0
 10
10.574766
 20
67.441354
 30
0.0
  0
SPLINE
  5
199
100
AcDbEntity
  8
Shape2DView001
 62
7
100
AcDbSpline
 70
8
 71
3
 72
8
 73
4
 74
0
 40
0
 40
0
 40
0
 40
0
 40
1
 40
1
 40
1
 40
1
 10
10.574766
 20
67.441354
 30
0.0
 10
10.308116
 20
67.102357
 30
0.0
 10
10.174791
 20
66.640370
 30
0.0
 10
10.174791
 20
66.055392
 30
0.0
  0
SPLINE
  5
19a
100
AcDbEntity
  8
Shape2DView001
 62
7
100
AcDbSpline
 70
8
 71
3
 72
8
 73
4
 74
0
 40
0
 40
0
 40
0
 40
0
 40
1
 40
1
 40
1
 40
1
 10
10.174791
 20
66.055392
 30
0.0
 10
10.174791
 20
65.472482
 30
0.0
 10
10.308116
 20
65.011528
 30
0.0
 10
10.574766
 20
64.672531
 30
0.0
  0
SPLINE
  5
19b
100
AcDbEntity
  8
Shape2DView001
 62
7
100
AcDbSpline
 70
8
 71
3
 72
8
 73
4
 74
0
 40
0
 40
0
 40
0
 40
0
 40
1
 40
1
 40
1
 40
1
 10
10.574766
 20
64.672531
 30
0.0
 10
10.843484
 20
64.333533
 30
0.0
 10
11.205219
 20
64.164034
 30
0.0
 10
11.659971
 20
64.164034
 30
0.0
  0
SPLINE
  5
19c
100
AcDbEntity
  8
Shape2DView001
 62
7
100
AcDbSpline
 70
8
 71
3
 72
8
 73
4
 74
0
 40
0
 40
0
 40
0
 40
0
 40
1
 40
1
 40
1
 40
1
 10
11.659971
 20
64.164034
 30
0.0
 10
12.114724
 20
64.164034
 30
0.0
 10
12.474392
 20
64.333533
 30
0.0
 10
12.738975
 20
64.672531
 30
0.0
  0
SPLINE
  5
19d
100
AcDbEntity
  8
Shape2DView001
 62
7
100
AcDbSpline
 70
8
 71
3
 72
8
 73
4
 74
0
 40
0
 40
0
 40
0
 40
0
 40
1
 40
1
 40
1
 40
1
 10
12.738975
 20
64.672531
 30
0.0
 10
13.005626
 20
65.011528
 30
0.0
 10
13.138951
 20
65.472482
 30
0.0
 10
13.138951
 20
66.055392
 30
0.0
  0
SPLINE
  5
19e
100
AcDbEntity
  8
Shape2DView001
 62
7
100
AcDbSpline
 70
8
 71
3
 72
8
 73
4
 74
0
 40
0
 40
0
 40
0
 40
0
 40
1
 40
1
 40
1
 40
1
 10
13.138951
 20
66.055392
 30
0.0
 10
13.138951
 20
66.640370
 30
0.0
 10
13.005626
 20
67.102357
 30
0.0
 10
12.738975
 20
67.441354
 30
0.0
  0
SPLINE
  5
19f
100
AcDbEntity
  8
Shape2DView001
 62
7
100
AcDbSpline
 70
8
 71
3
 72
8
 73
4
 74
0
 40
0
 40
0
 40
0
 40
0
 40
1
 40
1
 40
1
 40
1
 10
12.738975
 20
67.441354
 30
0.0
 10
12.474392
 20
67.780352
 30
0.0
 10
12.114724
 20
67.949851
 30
0.0
 10
11.659971
 20
67.949851
 30
0.0
  0
LINE
  5
1a0
100
AcDbEntity
  8
Shape2DView001
 62
7
100
AcDbLine
 10
11.659971
 20
67.949851
 30
0.0
 11
11.659971
 21
67.949851
 31
0.0
  0
SPLINE
  5
1a1
100
AcDbEntity
  8
Shape2DView001
 62
7
100
AcDbSpline
 70
8
 71
3
 72
8
 73
4
 74
0
 40
0
 40
0
 40
0
 40
0
 40
1
 40
1
 40
1
 40
1
 10
11.659971
 20
68.458346
 30
0.0
 10
12.309027
 20
68.458346
 30
0.0
 10
12.827859
 20
68.240271
 30
0.0
 10
13.216466
 20
67.804121
 30
0.0
  0
SPLINE
  5
1a2
100
AcDbEntity
  8
Shape2DView001
 62
7
100
AcDbSpline
 70
8
 71
3
 72
8
 73
4
 74
0
 40
0
 40
0
 40
0
 40
0
 40
1
 40
1
 40
1
 40
1
 10
13.216466
 20
67.804121
 30
0.0
 10
13.605072
 20
67.370041
 30
0.0
 10
13.799376
 20
66.787131
 30
0.0
 10
13.799376
 20
66.055392
 30
0.0
  0
SPLINE
  5
1a3
100
AcDbEntity
  8
Shape2DView001
 62
7
100
AcDbSpline
 70
8
 71
3
 72
8
 73
4
 74
0
 40
0
 40
0
 40
0
 40
0
 40
1
 40
1
 40
1
 40
1
 10
13.799376
 20
66.055392
 30
0.0
 10
13.799376
 20
65.325721
 30
0.0
 10
13.605072
 20
64.742810
 30
0.0
 10
13.216466
 20
64.306660
 30
0.0
  0
SPLINE
  5
1a4
100
AcDbEntity
  8
Shape2DView001
 62
7
100
AcDbSpline
 70
8
 71
3
 72
8
 73
4
 74
0
 40
0
 40
0
 40
0
 40
0
 40
1
 40
1
 40
1
 40
1
 10
13.216466
 20
64.306660
 30
0.0
 10
12.827859
 20
63.872580
 30
0.0
 10
12.309027
 20
63.655539
 30
0.0
 10
11.659971
 20
63.655539
 30
0.0
  0
SPLINE
  5
1a5
100
AcDbEntity
  8
Shape2DView001
 62
7
100
AcDbSpline
 70
8
 71
3
 72
8
 73
4
 74
0
 40
0
 40
0
 40
0
 40
0
 40
1
 40
1
 40
1
 40
1
 10
11.659971
 20
63.655539
 30
0.0
 10
11.008848
 20
63.655539
 30
0.0
 10
10.487950
 20
63.872580
 30
0.0
 10
10.097276
 20
64.306660
 30
0.0
  0
SPLINE
  5
1a6
100
AcDbEntity
  8
Shape2DView001
 62
7
100
AcDbSpline
 70
8
 71
3
 72
8
 73
4
 74
0
 40
0
 40
0
 40
0
 40
0
 40
1
 40
1
 40
1
 40
1
 10
10.097276
 20
64.306660
 30
0.0
 10
9.708669
 20
64.740743
 30
0.0
 10
9.514366
 20
65.323653
 30
0.0
 10
9.514366
 20
66.055392
 30
0.0
  0
SPLINE
  5
1a7
100
AcDbEntity
  8
Shape2DView001
 62
7
100
AcDbSpline
 70
8
 71
3
 72
8
 73
4
 74
0
 40
0
 40
0
 40
0
 40
0
 40
1
 40
1
 40
1
 40
1
 10
9.514366
 20
66.055392
 30
0.0
 10
9.514366
 20
66.787131
 30
0.0
 10
9.708669
 20
67.370041
 30
0.0
 10
10.097276
 20
67.804121
 30
0.0
  0
SPLINE
  5
1a8
100
AcDbEntity
  8
Shape2DView001
 62
7
100
AcDbSpline
 70
8
 71
3
 72
8
 73
4
 74
0
 40
0
 40
0
 40
0
 40
0
 40
1
 40
1
 40
1
 40
1
 10
10.097276
 20
67.804121
 30
0.0
 10
10.487950
 20
68.240271
 30
0.0
 10
11.008848
 20
68.458346
 30
0.0
 10
11.659971
 20
68.458346
 30
0.0
  0
LINE
  5
1a9
100
AcDbEntity
  8
Shape2DView001
 62
7
100
AcDbLine
 10
11.659971
 20
68.458346
 30
0.0
 11
11.659971
 21
68.458346
 31
0.0
  0
LINE
  5
1aa
100
AcDbEntity
  8
Shape2DView001
 62
7
100
AcDbLine
 10
14.695445
 20
65.115915
 30
0.0
 11
14.695445
 21
67.218112
 31
0.0
  0
LINE
  5
1ab
100
AcDbEntity
  8
Shape2DView001
 62
7
100
AcDbLine
 10
14.695445
 20
67.218112
 30
0.0
 11
15.265953
 21
67.218112
 31
0.0
  0
LINE
  5
1ac
100
AcDbEntity
  8
Shape2DView001
 62
7
100
AcDbLine
 10
15.265953
 20
67.218112
 30
0.0
 11
15.265953
 21
65.137619
 31
0.0
  0
SPLINE
  5
1ad
100
AcDbEntity
  8
Shape2DView001
 62
7
100
AcDbSpline
 70
8
 71
3
 72
8
 73
4
 74
0
 40
0
 40
0
 40
0
 40
0
 40
1
 40
1
 40
1
 40
1
 10
15.265953
 20
65.137619
 30
0.0
 10
15.265953
 20
64.808957
 30
0.0
 10
15.330032
 20
64.561944
 30
0.0
 10
15.458189
 20
64.396579
 30
0.0
  0
SPLINE
  5
1ae
100
AcDbEntity
  8
Shape2DView001
 62
7
100
AcDbSpline
 70
8
 71
3
 72
8
 73
4
 74
0
 40
0
 40
0
 40
0
 40
0
 40
1
 40
1
 40
1
 40
1
 10
15.458189
 20
64.396579
 30
0.0
 10
15.586347
 20
64.233282
 30
0.0
 10
15.778583
 20
64.151633
 30
0.0
 10
16.034898
 20
64.151633
 30
0.0
  0
SPLINE
  5
1af
100
AcDbEntity
  8
Shape2DView001
 62
7
100
AcDbSpline
 70
8
 71
3
 72
8
 73
4
 74
0
 40
0
 40
0
 40
0
 40
0
 40
1
 40
1
 40
1
 40
1
 10
16.034898
 20
64.151633
 30
0.0
 10
16.342890
 20
64.151633
 30
0.0
 10
16.585769
 20
64.249818
 30
0.0
 10
16.763536
 20
64.446188
 30
0.0
  0
SPLINE
  5
1b0
100
AcDbEntity
  8
Shape2DView001
 62
7
100
AcDbSpline
 70
8
 71
3
 72
8
 73
4
 74
0
 40
0
 40
0
 40
0
 40
0
 40
1
 40
1
 40
1
 40
1
 10
16.763536
 20
64.446188
 30
0.0
 10
16.943370
 20
64.642559
 30
0.0
 10
17.033287
 20
64.910242
 30
0.0
 10
17.033287
 20
65.249238
 30
0.0
  0
LINE
  5
1b1
100
AcDbEntity
  8
Shape2DView001
 62
7
100
AcDbLine
 10
17.033287
 20
65.249238
 30
0.0
 11
17.033287
 21
67.218112
 31
0.0
  0
LINE
  5
1b2
100
AcDbEntity
  8
Shape2DView001
 62
7
100
AcDbLine
 10
17.033287
 20
67.218112
 30
0.0
 11
17.603795
 21
67.218112
 31
0.0
  0
LINE
  5
1b3
100
AcDbEntity
  8
Shape2DView001
 62
7
100
AcDbLine
 10
17.603795
 20
67.218112
 30
0.0
 11
17.603795
 21
63.745455
 31
0.0
  0
LINE
  5
1b4
100
AcDbEntity
  8
Shape2DView001
 62
7
100
AcDbLine
 10
17.603795
 20
63.745455
 30
0.0
 11
17.033287
 21
63.745455
 31
0.0
  0
LINE
  5
1b5
100
AcDbEntity
  8
Shape2DView001
 62
7
100
AcDbLine
 10
17.033287
 20
63.745455
 30
0.0
 11
17.033287
 21
64.278757
 31
0.0
  0
SPLINE
  5
1b6
100
AcDbEntity
  8
Shape2DView001
 62
7
100
AcDbSpline
 70
8
 71
3
 72
8
 73
4
 74
0
 40
0
 40
0
 40
0
 40
0
 40
1
 40
1
 40
1
 40
1
 10
17.033287
 20
64.278757
 30
0.0
 10
16.894794
 20
64.067916
 30
0.0
 10
16.733564
 20
63.910820
 30
0.0
 10
16.549595
 20
63.807468
 30
0.0
  0
SPLINE
  5
1b7
100
AcDbEntity
  8
Shape2DView001
 62
7
100
AcDbSpline
 70
8
 71
3
 72
8
 73
4
 74
0
 40
0
 40
0
 40
0
 40
0
 40
1
 40
1
 40
1
 40
1
 10
16.549595
 20
63.807468
 30
0.0
 10
16.367694
 20
63.706182
 30
0.0
 10
16.155821
 20
63.655539
 30
0.0
 10
15.913975
 20
63.655539
 30
0.0
  0
SPLINE
  5
1b8
100
AcDbEntity
  8
Shape2DView001
 62
7
100
AcDbSpline
 70
8
 71
3
 72
8
 73
4
 74
0
 40
0
 40
0
 40
0
 40
0
 40
1
 40
1
 40
1
 40
1
 10
15.913975
 20
63.655539
 30
0.0
 10
15.515033
 20
63.655539
 30
0.0
 10
15.212209
 20
63.779563
 30
0.0
 10
15.005504
 20
64.027610
 30
0.0
  0
SPLINE
  5
1b9
100
AcDbEntity
  8
Shape2DView001
 62
7
100
AcDbSpline
 70
8
 71
3
 72
8
 73
4
 74
0
 40
0
 40
0
 40
0
 40
0
 40
1
 40
1
 40
1
 40
1
 10
15.005504
 20
64.027610
 30
0.0
 10
14.798798
 20
64.275656
 30
0.0
 10
14.695445
 20
64.638425
 30
0.0
 10
14.695445
 20
65.115915
 30
0.0
  0
LINE
  5
1ba
100
AcDbEntity
  8
Shape2DView001
 62
7
100
AcDbLine
 10
14.695445
 20
65.115915
 30
0.0
 11
14.695445
 21
65.115915
 31
0.0
  0
LINE
  5
1bb
100
AcDbEntity
  8
Shape2DView001
 62
7
100
AcDbLine
 10
16.131016
 20
67.301828
 30
0.0
 11
16.131016
 21
67.301828
 31
0.0
  0
LINE
  5
1bc
100
AcDbEntity
  8
Shape2DView001
 62
7
100
AcDbLine
 10
19.343223
 20
68.204097
 30
0.0
 11
19.343223
 21
67.218112
 31
0.0
  0
LINE
  5
1bd
100
AcDbEntity
  8
Shape2DView001
 62
7
100
AcDbLine
 10
19.343223
 20
67.218112
 30
0.0
 11
20.518345
 21
67.218112
 31
0.0
  0
LINE
  5
1be
100
AcDbEntity
  8
Shape2DView001
 62
7
100
AcDbLine
 10
20.518345
 20
67.218112
 30
0.0
 11
20.518345
 21
66.774728
 31
0.0
  0
LINE
  5
1bf
100
AcDbEntity
  8
Shape2DView001
 62
7
100
AcDbLine
 10
20.518345
 20
66.774728
 30
0.0
 11
19.343223
 21
66.774728
 31
0.0
  0
LINE
  5
1c0
100
AcDbEntity
  8
Shape2DView001
 62
7
100
AcDbLine
 10
19.343223
 20
66.774728
 30
0.0
 11
19.343223
 21
64.889572
 31
0.0
  0
SPLINE
  5
1c1
100
AcDbEntity
  8
Shape2DView001
 62
7
100
AcDbSpline
 70
8
 71
3
 72
8
 73
4
 74
0
 40
0
 40
0
 40
0
 40
0
 40
1
 40
1
 40
1
 40
1
 10
19.343223
 20
64.889572
 30
0.0
 10
19.343223
 20
64.606385
 30
0.0
 10
19.381464
 20
64.424484
 30
0.0
 10
19.457945
 20
64.343869
 30
0.0
  0
SPLINE
  5
1c2
100
AcDbEntity
  8
Shape2DView001
 62
7
100
AcDbSpline
 70
8
 71
3
 72
8
 73
4
 74
0
 40
0
 40
0
 40
0
 40
0
 40
1
 40
1
 40
1
 40
1
 10
19.457945
 20
64.343869
 30
0.0
 10
19.536493
 20
64.263254
 30
0.0
 10
19.694623
 20
64.222946
 30
0.0
 10
19.932335
 20
64.222946
 30
0.0
  0
LINE
  5
1c3
100
AcDbEntity
  8
Shape2DView001
 62
7
100
AcDbLine
 10
19.932335
 20
64.222946
 30
0.0
 11
20.518345
 21
64.222946
 31
0.0
  0
LINE
  5
1c4
100
AcDbEntity
  8
Shape2DView001
 62
7
100
AcDbLine
 10
20.518345
 20
64.222946
 30
0.0
 11
20.518345
 21
63.745455
 31
0.0
  0
LINE
  5
1c5
100
AcDbEntity
  8
Shape2DView001
 62
7
100
AcDbLine
 10
20.518345
 20
63.745455
 30
0.0
 11
19.932335
 21
63.745455
 31
0.0
  0
SPLINE
  5
1c6
100
AcDbEntity
  8
Shape2DView001
 62
7
100
AcDbSpline
 70
8
 71
3
 72
8
 73
4
 74
0
 40
0
 40
0
 40
0
 40
0
 40
1
 40
1
 40
1
 40
1
 10
19.932335
 20
63.745455
 30
0.0
 10
19.492052
 20
63.745455
 30
0.0
 10
19.188194
 20
63.827104
 30
0.0
 10
19.020762
 20
63.990401
 30
0.0
  0
SPLINE
  5
1c7
100
AcDbEntity
  8
Shape2DView001
 62
7
100
AcDbSpline
 70
8
 71
3
 72
8
 73
4
 74
0
 40
0
 40
0
 40
0
 40
0
 40
1
 40
1
 40
1
 40
1
 10
19.020762
 20
63.990401
 30
0.0
 10
18.853331
 20
64.155766
 30
0.0
 10
18.769615
 20
64.455489
 30
0.0
 10
18.769615
 20
64.889572
 30
0.0
  0
LINE
  5
1c8
100
AcDbEntity
  8
Shape2DView001
 62
7
100
AcDbLine
 10
18.769615
 20
64.889572
 30
0.0
 11
18.769615
 21
66.774728
 31
0.0
  0
LINE
  5
1c9
100
AcDbEntity
  8
Shape2DView001
 62
7
100
AcDbLine
 10
18.769615
 20
66.774728
 30
0.0
 11
18.351036
 21
66.774728
 31
0.0
  0
LINE
  5
1ca
100
AcDbEntity
  8
Shape2DView001
 62
7
100
AcDbLine
 10
18.351036
 20
66.774728
 30
0.0
 11
18.351036
 21
67.218112
 31
0.0
  0
LINE
  5
1cb
100
AcDbEntity
  8
Shape2DView001
 62
7
100
AcDbLine
 10
18.351036
 20
67.218112
 30
0.0
 11
18.769615
 21
67.218112
 31
0.0
  0
LINE
  5
1cc
100
AcDbEntity
  8
Shape2DView001
 62
7
100
AcDbLine
 10
18.769615
 20
67.218112
 30
0.0
 11
18.769615
 21
68.204097
 31
0.0
  0
LINE
  5
1cd
100
AcDbEntity
  8
Shape2DView001
 62
7
100
AcDbLine
 10
18.769615
 20
68.204097
 30
0.0
 11
19.343223
 21
68.204097
 31
0.0
  0
LINE
  5
1ce
100
AcDbEntity
  8
Shape2DView001
 62
7
100
AcDbLine
 10
21.820592
 20
64.266354
 30
0.0
 11
21.820592
 21
62.424605
 31
0.0
  0
LINE
  5
1cf
100
AcDbEntity
  8
Shape2DView001
 62
7
100
AcDbLine
 10
21.820592
 20
62.424605
 30
0.0
 11
21.246983
 21
62.424605
 31
0.0
  0
LINE
  5
1d0
100
AcDbEntity
  8
Shape2DView001
 62
7
100
AcDbLine
 10
21.246983
 20
62.424605
 30
0.0
 11
21.246983
 21
67.218112
 31
0.0
  0
LINE
  5
1d1
100
AcDbEntity
  8
Shape2DView001
 62
7
100
AcDbLine
 10
21.246983
 20
67.218112
 30
0.0
 11
21.820592
 21
67.218112
 31
0.0
  0
LINE
  5
1d2
100
AcDbEntity
  8
Shape2DView001
 62
7
100
AcDbLine
 10
21.820592
 20
67.218112
 30
0.0
 11
21.820592
 21
66.691011
 31
0.0
  0
SPLINE
  5
1d3
100
AcDbEntity
  8
Shape2DView001
 62
7
100
AcDbSpline
 70
8
 71
3
 72
8
 73
4
 74
0
 40
0
 40
0
 40
0
 40
0
 40
1
 40
1
 40
1
 40
1
 10
21.820592
 20
66.691011
 30
0.0
 10
21.940481
 20
66.897718
 30
0.0
 10
22.091376
 20
67.050681
 30
0.0
 10
22.273277
 20
67.149899
 30
0.0
  0
SPLINE
  5
1d4
100
AcDbEntity
  8
Shape2DView001
 62
7
100
AcDbSpline
 70
8
 71
3
 72
8
 73
4
 74
0
 40
0
 40
0
 40
0
 40
0
 40
1
 40
1
 40
1
 40
1
 10
22.273277
 20
67.149899
 30
0.0
 10
22.457245
 20
67.251185
 30
0.0
 10
22.676353
 20
67.301828
 30
0.0
 10
22.930601
 20
67.301828
 30
0.0
  0
SPLINE
  5
1d5
100
AcDbEntity
  8
Shape2DView001
 62
7
100
AcDbSpline
 70
8
 71
3
 72
8
 73
4
 74
0
 40
0
 40
0
 40
0
 40
0
 40
1
 40
1
 40
1
 40
1
 10
22.930601
 20
67.301828
 30
0.0
 10
23.352281
 20
67.301828
 30
0.0
 10
23.694379
 20
67.134396
 30
0.0
 10
23.956895
 20
66.799533
 30
0.0
  0
SPLINE
  5
1d6
100
AcDbEntity
  8
Shape2DView001
 62
7
100
AcDbSpline
 70
8
 71
3
 72
8
 73
4
 74
0
 40
0
 40
0
 40
0
 40
0
 40
1
 40
1
 40
1
 40
1
 10
23.956895
 20
66.799533
 30
0.0
 10
24.221479
 20
66.464669
 30
0.0
 10
24.353770
 20
66.024386
 30
0.0
 10
24.353770
 20
65.478683
 30
0.0
  0
SPLINE
  5
1d7
100
AcDbEntity
  8
Shape2DView001
 62
7
100
AcDbSpline
 70
8
 71
3
 72
8
 73
4
 74
0
 40
0
 40
0
 40
0
 40
0
 40
1
 40
1
 40
1
 40
1
 10
24.353770
 20
65.478683
 30
0.0
 10
24.353770
 20
64.932979
 30
0.0
 10
24.221479
 20
64.492696
 30
0.0
 10
23.956895
 20
64.157832
 30
0.0
  0
SPLINE
  5
1d8
100
AcDbEntity
  8
Shape2DView001
 62
7
100
AcDbSpline
 70
8
 71
3
 72
8
 73
4
 74
0
 40
0
 40
0
 40
0
 40
0
 40
1
 40
1
 40
1
 40
1
 10
23.956895
 20
64.157832
 30
0.0
 10
23.694379
 20
63.822970
 30
0.0
 10
23.352281
 20
63.655539
 30
0.0
 10
22.930601
 20
63.655539
 30
0.0
  0
SPLINE
  5
1d9
100
AcDbEntity
  8
Shape2DView001
 62
7
100
AcDbSpline
 70
8
 71
3
 72
8
 73
4
 74
0
 40
0
 40
0
 40
0
 40
0
 40
1
 40
1
 40
1
 40
1
 10
22.930601
 20
63.655539
 30
0.0
 10
22.676353
 20
63.655539
 30
0.0
 10
22.457245
 20
63.705149
 30
0.0
 10
22.273277
 20
63.804367
 30
0.0
  0
SPLINE
  5
1da
100
AcDbEntity
  8
Shape2DView001
 62
7
100
AcDbSpline
 70
8
 71
3
 72
8
 73
4
 74
0
 40
0
 40
0
 40
0
 40
0
 40
1
 40
1
 40
1
 40
1
 10
22.273277
 20
63.804367
 30
0.0
 10
22.091376
 20
63.905653
 30
0.0
 10
21.940481
 20
64.059649
 30
0.0
 10
21.820592
 20
64.266354
 30
0.0
  0
LINE
  5
1db
100
AcDbEntity
  8
Shape2DView001
 62
7
100
AcDbLine
 10
21.820592
 20
64.266354
 30
0.0
 11
21.820592
 21
64.266354
 31
0.0
  0
SPLINE
  5
1dc
100
AcDbEntity
  8
Shape2DView001
 62
7
100
AcDbSpline
 70
8
 71
3
 72
8
 73
4
 74
0
 40
0
 40
0
 40
0
 40
0
 40
1
 40
1
 40
1
 40
1
 10
23.761558
 20
65.478683
 30
0.0
 10
23.761558
 20
65.898296
 30
0.0
 10
23.674742
 20
66.226958
 30
0.0
 10
23.501109
 20
66.464668
 30
0.0
  0
SPLINE
  5
1dd
100
AcDbEntity
  8
Shape2DView001
 62
7
100
AcDbSpline
 70
8
 71
3
 72
8
 73
4
 74
0
 40
0
 40
0
 40
0
 40
0
 40
1
 40
1
 40
1
 40
1
 10
23.501109
 20
66.464668
 30
0.0
 10
23.329543
 20
66.704448
 30
0.0
 10
23.092865
 20
66.824337
 30
0.0
 10
22.791075
 20
66.824337
 30
0.0
  0
SPLINE
  5
1de
100
AcDbEntity
  8
Shape2DView001
 62
7
100
AcDbSpline
 70
8
 71
3
 72
8
 73
4
 74
0
 40
0
 40
0
 40
0
 40
0
 40
1
 40
1
 40
1
 40
1
 10
22.791075
 20
66.824337
 30
0.0
 10
22.489285
 20
66.824337
 30
0.0
 10
22.251573
 20
66.704448
 30
0.0
 10
22.077940
 20
66.464668
 30
0.0
  0
SPLINE
  5
1df
100
AcDbEntity
  8
Shape2DView001
 62
7
100
AcDbSpline
 70
8
 71
3
 72
8
 73
4
 74
0
 40
0
 40
0
 40
0
 40
0
 40
1
 40
1
 40
1
 40
1
 10
22.077940
 20
66.464668
 30
0.0
 10
21.906374
 20
66.226958
 30
0.0
 10
21.820592
 20
65.898296
 30
0.0
 10
21.820592
 20
65.478683
 30
0.0
  0
SPLINE
  5
1e0
100
AcDbEntity
  8
Shape2DView001
 62
7
100
AcDbSpline
 70
8
 71
3
 72
8
 73
4
 74
0
 40
0
 40
0
 40
0
 40
0
 40
1
 40
1
 40
1
 40
1
 10
21.820592
 20
65.478683
 30
0.0
 10
21.820592
 20
65.059071
 30
0.0
 10
21.906374
 20
64.729375
 30
0.0
 10
22.077940
 20
64.489596
 30
0.0
  0
SPLINE
  5
1e1
100
AcDbEntity
  8
Shape2DView001
 62
7
100
AcDbSpline
 70
8
 71
3
 72
8
 73
4
 74
0
 40
0
 40
0
 40
0
 40
0
 40
1
 40
1
 40
1
 40
1
 10
22.077940
 20
64.489596
 30
0.0
 10
22.251573
 20
64.251884
 30
0.0
 10
22.489285
 20
64.133028
 30
0.0
 10
22.791075
 20
64.133028
 30
0.0
  0
SPLINE
  5
1e2
100
AcDbEntity
  8
Shape2DView001
 62
7
100
AcDbSpline
 70
8
 71
3
 72
8
 73
4
 74
0
 40
0
 40
0
 40
0
 40
0
 40
1
 40
1
 40
1
 40
1
 10
22.791075
 20
64.133028
 30
0.0
 10
23.092865
 20
64.133028
 30
0.0
 10
23.329543
 20
64.251884
 30
0.0
 10
23.501109
 20
64.489596
 30
0.0
  0
SPLINE
  5
1e3
100
AcDbEntity
  8
Shape2DView001
 62
7
100
AcDbSpline
 70
8
 71
3
 72
8
 73
4
 74
0
 40
0
 40
0
 40
0
 40
0
 40
1
 40
1
 40
1
 40
1
 10
23.501109
 20
64.489596
 30
0.0
 10
23.674742
 20
64.729375
 30
0.0
 10
23.761558
 20
65.059071
 30
0.0
 10
23.761558
 20
65.478683
 30
0.0
  0
LINE
  5
1e4
100
AcDbEntity
  8
Shape2DView001
 62
7
100
AcDbLine
 10
23.761558
 20
65.478683
 30
0.0
 11
23.761558
 21
65.478683
 31
0.0
  0
LINE
  5
1e5
100
AcDbEntity
  8
Shape2DView001
 62
7
100
AcDbLine
 10
25.240538
 20
65.115915
 30
0.0
 11
25.240538
 21
67.218112
 31
0.0
  0
LINE
  5
1e6
100
AcDbEntity
  8
Shape2DView001
 62
7
100
AcDbLine
 10
25.240538
 20
67.218112
 30
0.0
 11
25.811046
 21
67.218112
 31
0.0
  0
LINE
  5
1e7
100
AcDbEntity
  8
Shape2DView001
 62
7
100
AcDbLine
 10
25.811046
 20
67.218112
 30
0.0
 11
25.811046
 21
65.137619
 31
0.0
  0
SPLINE
  5
1e8
100
AcDbEntity
  8
Shape2DView001
 62
7
100
AcDbSpline
 70
8
 71
3
 72
8
 73
4
 74
0
 40
0
 40
0
 40
0
 40
0
 40
1
 40
1
 40
1
 40
1
 10
25.811046
 20
65.137619
 30
0.0
 10
25.811046
 20
64.808957
 30
0.0
 10
25.875124
 20
64.561944
 30
0.0
 10
26.003282
 20
64.396579
 30
0.0
  0
SPLINE
  5
1e9
100
AcDbEntity
  8
Shape2DView001
 62
7
100
AcDbSpline
 70
8
 71
3
 72
8
 73
4
 74
0
 40
0
 40
0
 40
0
 40
0
 40
1
 40
1
 40
1
 40
1
 10
26.003282
 20
64.396579
 30
0.0
 10
26.131439
 20
64.233282
 30
0.0
 10
26.323676
 20
64.151633
 30
0.0
 10
26.579991
 20
64.151633
 30
0.0
  0
SPLINE
  5
1ea
100
AcDbEntity
  8
Shape2DView001
 62
7
100
AcDbSpline
 70
8
 71
3
 72
8
 73
4
 74
0
 40
0
 40
0
 40
0
 40
0
 40
1
 40
1
 40
1
 40
1
 10
26.579991
 20
64.151633
 30
0.0
 10
26.887982
 20
64.151633
 30
0.0
 10
27.130861
 20
64.249818
 30
0.0
 10
27.308627
 20
64.446188
 30
0.0
  0
SPLINE
  5
1eb
100
AcDbEntity
  8
Shape2DView001
 62
7
100
AcDbSpline
 70
8
 71
3
 72
8
 73
4
 74
0
 40
0
 40
0
 40
0
 40
0
 40
1
 40
1
 40
1
 40
1
 10
27.308627
 20
64.446188
 30
0.0
 10
27.488463
 20
64.642559
 30
0.0
 10
27.578381
 20
64.910242
 30
0.0
 10
27.578381
 20
65.249238
 30
0.0
  0
LINE
  5
1ec
100
AcDbEntity
  8
Shape2DView001
 62
7
100
AcDbLine
 10
27.578381
 20
65.249238
 30
0.0
 11
27.578381
 21
67.218112
 31
0.0
  0
LINE
  5
1ed
100
AcDbEntity
  8
Shape2DView001
 62
7
100
AcDbLine
 10
27.578381
 20
67.218112
 30
0.0
 11
28.148889
 21
67.218112
 31
0.0
  0
LINE
  5
1ee
100
AcDbEntity
  8
Shape2DView001
 62
7
100
AcDbLine
 10
28.148889
 20
67.218112
 30
0.0
 11
28.148889
 21
63.745455
 31
0.0
  0
LINE
  5
1ef
100
AcDbEntity
  8
Shape2DView001
 62
7
100
AcDbLine
 10
28.148889
 20
63.745455
 30
0.0
 11
27.578381
 21
63.745455
 31
0.0
  0
LINE
  5
1f0
100
AcDbEntity
  8
Shape2DView001
 62
7
100
AcDbLine
 10
27.578381
 20
63.745455
 30
0.0
 11
27.578381
 21
64.278757
 31
0.0
  0
SPLINE
  5
1f1
100
AcDbEntity
  8
Shape2DView001
 62
7
100
AcDbSpline
 70
8
 71
3
 72
8
 73
4
 74
0
 40
0
 40
0
 40
0
 40
0
 40
1
 40
1
 40
1
 40
1
 10
27.578381
 20
64.278757
 30
0.0
 10
27.439887
 20
64.067916
 30
0.0
 10
27.278656
 20
63.910820
 30
0.0
 10
27.094688
 20
63.807468
 30
0.0
  0
SPLINE
  5
1f2
100
AcDbEntity
  8
Shape2DView001
 62
7
100
AcDbSpline
 70
8
 71
3
 72
8
 73
4
 74
0
 40
0
 40
0
 40
0
 40
0
 40
1
 40
1
 40
1
 40
1
 10
27.094688
 20
63.807468
 30
0.0
 10
26.912787
 20
63.706182
 30
0.0
 10
26.700914
 20
63.655539
 30
0.0
 10
26.459069
 20
63.655539
 30
0.0
  0
SPLINE
  5
1f3
100
AcDbEntity
  8
Shape2DView001
 62
7
100
AcDbSpline
 70
8
 71
3
 72
8
 73
4
 74
0
 40
0
 40
0
 40
0
 40
0
 40
1
 40
1
 40
1
 40
1
 10
26.459069
 20
63.655539
 30
0.0
 10
26.060126
 20
63.655539
 30
0.0
 10
25.757302
 20
63.779563
 30
0.0
 10
25.550596
 20
64.027610
 30
0.0
  0
SPLINE
  5
1f4
100
AcDbEntity
  8
Shape2DView001
 62
7
100
AcDbSpline
 70
8
 71
3
 72
8
 73
4
 74
0
 40
0
 40
0
 40
0
 40
0
 40
1
 40
1
 40
1
 40
1
 10
25.550596
 20
64.027610
 30
0.0
 10
25.343891
 20
64.275656
 30
0.0
 10
25.240538
 20
64.638425
 30
0.0
 10
25.240538
 20
65.115915
 30
0.0
  0
LINE
  5
1f5
100
AcDbEntity
  8
Shape2DView001
 62
7
100
AcDbLine
 10
25.240538
 20
65.115915
 30
0.0
 11
25.240538
 21
65.115915
 31
0.0
  0
LINE
  5
1f6
100
AcDbEntity
  8
Shape2DView001
 62
7
100
AcDbLine
 10
26.676109
 20
67.301828
 30
0.0
 11
26.676109
 21
67.301828
 31
0.0
  0
LINE
  5
1f7
100
AcDbEntity
  8
Shape2DView001
 62
7
100
AcDbLine
 10
29.888315
 20
68.204097
 30
0.0
 11
29.888315
 21
67.218112
 31
0.0
  0
LINE
  5
1f8
100
AcDbEntity
  8
Shape2DView001
 62
7
100
AcDbLine
 10
29.888315
 20
67.218112
 30
0.0
 11
31.063438
 21
67.218112
 31
0.0
  0
LINE
  5
1f9
100
AcDbEntity
  8
Shape2DView001
 62
7
100
AcDbLine
 10
31.063438
 20
67.218112
 30
0.0
 11
31.063438
 21
66.774728
 31
0.0
  0
LINE
  5
1fa
100
AcDbEntity
  8
Shape2DView001
 62
7
100
AcDbLine
 10
31.063438
 20
66.774728
 30
0.0
 11
29.888315
 21
66.774728
 31
0.0
  0
LINE
  5
1fb
100
AcDbEntity
  8
Shape2DView001
 62
7
100
AcDbLine
 10
29.888315
 20
66.774728
 30
0.0
 11
29.888315
 21
64.889572
 31
0.0
  0
SPLINE
  5
1fc
100
AcDbEntity
  8
Shape2DView001
 62
7
100
AcDbSpline
 70
8
 71
3
 72
8
 73
4
 74
0
 40
0
 40
0
 40
0
 40
0
 40
1
 40
1
 40
1
 40
1
 10
29.888315
 20
64.889572
 30
0.0
 10
29.888315
 20
64.606385
 30
0.0
 10
29.926556
 20
64.424484
 30
0.0
 10
30.003038
 20
64.343869
 30
0.0
  0
SPLINE
  5
1fd
100
AcDbEntity
  8
Shape2DView001
 62
7
100
AcDbSpline
 70
8
 71
3
 72
8
 73
4
 74
0
 40
0
 40
0
 40
0
 40
0
 40
1
 40
1
 40
1
 40
1
 10
30.003038
 20
64.343869
 30
0.0
 10
30.081586
 20
64.263254
 30
0.0
 10
30.239716
 20
64.222946
 30
0.0
 10
30.477428
 20
64.222946
 30
0.0
  0
LINE
  5
1fe
100
AcDbEntity
  8
Shape2DView001
 62
7
100
AcDbLine
 10
30.477428
 20
64.222946
 30
0.0
 11
31.063438
 21
64.222946
 31
0.0
  0
LINE
  5
1ff
100
AcDbEntity
  8
Shape2DView001
 62
7
100
AcDbLine
 10
31.063438
 20
64.222946
 30
0.0
 11
31.063438
 21
63.745455
 31
0.0
  0
LINE
  5
200
100
AcDbEntity
  8
Shape2DView001
 62
7
100
AcDbLine
 10
31.063438
 20
63.745455
 30
0.0
 11
30.477428
 21
63.745455
 31
0.0
  0
SPLINE
  5
201
100
AcDbEntity
  8
Shape2DView001
 62
7
100
AcDbSpline
 70
8
 71
3
 72
8
 73
4
 74
0
 40
0
 40
0
 40
0
 40
0
 40
1
 40
1
 40
1
 40
1
 10
30.477428
 20
63.745455
 30
0.0
 10
30.037144
 20
63.745455
 30
0.0
 10
29.733286
 20
63.827104
 30
0.0
 10
29.565854
 20
63.990401
 30
0.0
  0
SPLINE
  5
202
100
AcDbEntity
  8
Shape2DView001
 62
7
100
AcDbSpline
 70
8
 71
3
 72
8
 73
4
 74
0
 40
0
 40
0
 40
0
 40
0
 40
1
 40
1
 40
1
 40
1
 10
29.565854
 20
63.990401
 30
0.0
 10
29.398424
 20
64.155766
 30
0.0
 10
29.314709
 20
64.455489
 30
0.0
 10
29.314709
 20
64.889572
 30
0.0
  0
LINE
  5
203
100
AcDbEntity
  8
Shape2DView001
 62
7
100
AcDbLine
 10
29.314709
 20
64.889572
 30
0.0
 11
29.314709
 21
66.774728
 31
0.0
  0
LINE
  5
204
100
AcDbEntity
  8
Shape2DView001
 62
7
100
AcDbLine
 10
29.314709
 20
66.774728
 30
0.0
 11
28.896127
 21
66.774728
 31
0.0
  0
LINE
  5
205
100
AcDbEntity
  8
Shape2DView001
 62
7
100
AcDbLine
 10
28.896127
 20
66.774728
 30
0.0
 11
28.896127
 21
67.218112
 31
0.0
  0
LINE
  5
206
100
AcDbEntity
  8
Shape2DView001
 62
7
100
AcDbLine
 10
28.896127
 20
67.218112
 30
0.0
 11
29.314709
 21
67.218112
 31
0.0
  0
LINE
  5
207
100
AcDbEntity
  8
Shape2DView001
 62
7
100
AcDbLine
 10
29.314709
 20
67.218112
 30
0.0
 11
29.314709
 21
68.204097
 31
0.0
  0
LINE
  5
208
100
AcDbEntity
  8
Shape2DView001
 62
7
100
AcDbLine
 10
29.314709
 20
68.204097
 30
0.0
 11
29.888315
 21
68.204097
 31
0.0
  0
LINE
  5
209
100
AcDbEntity
  8
Shape2DView001
 62
7
100
AcDbLine
 10
39.107025
 20
96.625425
 30
0.0
 11
73.265988
 21
96.625425
 31
0.0
  0
LINE
  5
20a
100
AcDbEntity
  8
Shape2DView001
 62
7
100
AcDbLine
 10
73.265988
 20
96.625425
 30
0.0
 11
73.265988
 21
66.022335
 31
0.0
  0
LINE
  5
20b
100
AcDbEntity
  8
Shape2DView001
 62
7
100
AcDbLine
 10
73.265988
 20
66.022335
 30
0.0
 11
39.107025
 21
66.022335
 31
0.0
  0
LINE
  5
20c
100
AcDbEntity
  8
Shape2DView001
 62
7
100
AcDbLine
 10
39.107025
 20
66.022335
 30
0.0
 11
39.107025
 21
96.625425
 31
0.0
  0
LINE
  5
20d
100
AcDbEntity
  8
Shape2DView001
 62
7
100
AcDbLine
 10
73.265990
 20
96.625425
 30
0.0
 11
107.424953
 21
96.625425
 31
0.0
  0
LINE
  5
20e
100
AcDbEntity
  8
Shape2DView001
 62
7
100
AcDbLine
 10
107.424953
 20
96.625425
 30
0.0
 11
107.424953
 21
66.022335
 31
0.0
  0
LINE
  5
20f
100
AcDbEntity
  8
Shape2DView001
 62
7
100
AcDbLine
 10
107.424953
 20
66.022335
 30
0.0
 11
73.265990
 21
66.022335
 31
0.0
  0
LINE
  5
210
100
AcDbEntity
  8
Shape2DView001
 62
7
100
AcDbLine
 10
73.265990
 20
66.022335
 30
0.0
 11
73.265990
 21
96.625425
 31
0.0
  0
LINE
  5
211
100
AcDbEntity
  8
Shape2DView001
 62
7
100
AcDbLine
 10
48.925639
 20
71.386148
 30
0.0
 11
50.838010
 21
71.386148
 31
0.0
  0
LINE
  5
212
100
AcDbEntity
  8
Shape2DView001
 62
7
100
AcDbLine
 10
50.838010
 20
71.386148
 30
0.0
 11
50.838010
 21
70.976182
 31
0.0
  0
LINE
  5
213
100
AcDbEntity
  8
Shape2DView001
 62
7
100
AcDbLine
 10
50.838010
 20
70.976182
 30
0.0
 11
49.371777
 21
70.976182
 31
0.0
  0
LINE
  5
214
100
AcDbEntity
  8
Shape2DView001
 62
7
100
AcDbLine
 10
49.371777
 20
70.976182
 30
0.0
 11
49.371777
 21
70.093550
 31
0.0
  0
SPLINE
  5
215
100
AcDbEntity
  8
Shape2DView001
 62
7
100
AcDbSpline
 70
8
 71
3
 72
8
 73
4
 74
0
 40
0
 40
0
 40
0
 40
0
 40
1
 40
1
 40
1
 40
1
 10
49.371777
 20
70.093550
 30
0.0
 10
49.442517
 20
70.117666
 30
0.0
 10
49.513257
 20
70.135351
 30
0.0
 10
49.583996
 20
70.146605
 30
0.0
  0
SPLINE
  5
216
100
AcDbEntity
  8
Shape2DView001
 62
7
100
AcDbSpline
 70
8
 71
3
 72
8
 73
4
 74
0
 40
0
 40
0
 40
0
 40
0
 40
1
 40
1
 40
1
 40
1
 10
49.583996
 20
70.146605
 30
0.0
 10
49.654735
 20
70.159463
 30
0.0
 10
49.725474
 20
70.165893
 30
0.0
 10
49.796213
 20
70.165893
 30
0.0
  0
SPLINE
  5
217
100
AcDbEntity
  8
Shape2DView001
 62
7
100
AcDbSpline
 70
8
 71
3
 72
8
 73
4
 74
0
 40
0
 40
0
 40
0
 40
0
 40
1
 40
1
 40
1
 40
1
 10
49.796213
 20
70.165893
 30
0.0
 10
50.198142
 20
70.165893
 30
0.0
 10
50.516469
 20
70.055764
 30
0.0
 10
50.751195
 20
69.835507
 30
0.0
  0
SPLINE
  5
218
100
AcDbEntity
  8
Shape2DView001
 62
7
100
AcDbSpline
 70
8
 71
3
 72
8
 73
4
 74
0
 40
0
 40
0
 40
0
 40
0
 40
1
 40
1
 40
1
 40
1
 10
50.751195
 20
69.835507
 30
0.0
 10
50.985921
 20
69.615251
 30
0.0
 10
51.103284
 20
69.317020
 30
0.0
 10
51.103284
 20
68.940816
 30
0.0
  0
SPLINE
  5
219
100
AcDbEntity
  8
Shape2DView001
 62
7
100
AcDbSpline
 70
8
 71
3
 72
8
 73
4
 74
0
 40
0
 40
0
 40
0
 40
0
 40
1
 40
1
 40
1
 40
1
 10
51.103284
 20
68.940816
 30
0.0
 10
51.103284
 20
68.553357
 30
0.0
 10
50.982705
 20
68.251911
 30
0.0
 10
50.741548
 20
68.036478
 30
0.0
  0
SPLINE
  5
21a
100
AcDbEntity
  8
Shape2DView001
 62
7
100
AcDbSpline
 70
8
 71
3
 72
8
 73
4
 74
0
 40
0
 40
0
 40
0
 40
0
 40
1
 40
1
 40
1
 40
1
 10
50.741548
 20
68.036478
 30
0.0
 10
50.500391
 20
67.822653
 30
0.0
 10
50.160360
 20
67.715740
 30
0.0
 10
49.721455
 20
67.715740
 30
0.0
  0
SPLINE
  5
21b
100
AcDbEntity
  8
Shape2DView001
 62
7
100
AcDbSpline
 70
8
 71
3
 72
8
 73
4
 74
0
 40
0
 40
0
 40
0
 40
0
 40
1
 40
1
 40
1
 40
1
 10
49.721455
 20
67.715740
 30
0.0
 10
49.570330
 20
67.715740
 30
0.0
 10
49.415990
 20
67.728601
 30
0.0
 10
49.258434
 20
67.754324
 30
0.0
  0
SPLINE
  5
21c
100
AcDbEntity
  8
Shape2DView001
 62
7
100
AcDbSpline
 70
8
 71
3
 72
8
 73
4
 74
0
 40
0
 40
0
 40
0
 40
0
 40
1
 40
1
 40
1
 40
1
 10
49.258434
 20
67.754324
 30
0.0
 10
49.102485
 20
67.780049
 30
0.0
 10
48.940910
 20
67.818634
 30
0.0
 10
48.773710
 20
67.870079
 30
0.0
  0
LINE
  5
21d
100
AcDbEntity
  8
Shape2DView001
 62
7
100
AcDbLine
 10
48.773710
 20
67.870079
 30
0.0
 11
48.773710
 21
68.359627
 31
0.0
  0
SPLINE
  5
21e
100
AcDbEntity
  8
Shape2DView001
 62
7
100
AcDbSpline
 70
8
 71
3
 72
8
 73
4
 74
0
 40
0
 40
0
 40
0
 40
0
 40
1
 40
1
 40
1
 40
1
 10
48.773710
 20
68.359627
 30
0.0
 10
48.918403
 20
68.280850
 30
0.0
 10
49.067920
 20
68.222169
 30
0.0
 10
49.222260
 20
68.183584
 30
0.0
  0
SPLINE
  5
21f
100
AcDbEntity
  8
Shape2DView001
 62
7
100
AcDbSpline
 70
8
 71
3
 72
8
 73
4
 74
0
 40
0
 40
0
 40
0
 40
0
 40
1
 40
1
 40
1
 40
1
 10
49.222260
 20
68.183584
 30
0.0
 10
49.376601
 20
68.144999
 30
0.0
 10
49.539783
 20
68.125706
 30
0.0
 10
49.711808
 20
68.125706
 30
0.0
  0
SPLINE
  5
220
100
AcDbEntity
  8
Shape2DView001
 62
7
100
AcDbSpline
 70
8
 71
3
 72
8
 73
4
 74
0
 40
0
 40
0
 40
0
 40
0
 40
1
 40
1
 40
1
 40
1
 10
49.711808
 20
68.125706
 30
0.0
 10
49.989942
 20
68.125706
 30
0.0
 10
50.210199
 20
68.198857
 30
0.0
 10
50.372579
 20
68.345157
 30
0.0
  0
SPLINE
  5
221
100
AcDbEntity
  8
Shape2DView001
 62
7
100
AcDbSpline
 70
8
 71
3
 72
8
 73
4
 74
0
 40
0
 40
0
 40
0
 40
0
 40
1
 40
1
 40
1
 40
1
 10
50.372579
 20
68.345157
 30
0.0
 10
50.534957
 20
68.491459
 30
0.0
 10
50.616146
 20
68.690012
 30
0.0
 10
50.616146
 20
68.940816
 30
0.0
  0
SPLINE
  5
222
100
AcDbEntity
  8
Shape2DView001
 62
7
100
AcDbSpline
 70
8
 71
3
 72
8
 73
4
 74
0
 40
0
 40
0
 40
0
 40
0
 40
1
 40
1
 40
1
 40
1
 10
50.616146
 20
68.940816
 30
0.0
 10
50.616146
 20
69.191618
 30
0.0
 10
50.534957
 20
69.390170
 30
0.0
 10
50.372579
 20
69.536473
 30
0.0
  0
SPLINE
  5
223
100
AcDbEntity
  8
Shape2DView001
 62
7
100
AcDbSpline
 70
8
 71
3
 72
8
 73
4
 74
0
 40
0
 40
0
 40
0
 40
0
 40
1
 40
1
 40
1
 40
1
 10
50.372579
 20
69.536473
 30
0.0
 10
50.210199
 20
69.682775
 30
0.0
 10
49.989942
 20
69.755926
 30
0.0
 10
49.711808
 20
69.755926
 30
0.0
  0
SPLINE
  5
224
100
AcDbEntity
  8
Shape2DView001
 62
7
100
AcDbSpline
 70
8
 71
3
 72
8
 73
4
 74
0
 40
0
 40
0
 40
0
 40
0
 40
1
 40
1
 40
1
 40
1
 10
49.711808
 20
69.755926
 30
0.0
 10
49.581584
 20
69.755926
 30
0.0
 10
49.451360
 20
69.741456
 30
0.0
 10
49.321135
 20
69.712516
 30
0.0
  0
SPLINE
  5
225
100
AcDbEntity
  8
Shape2DView001
 62
7
100
AcDbSpline
 70
8
 71
3
 72
8
 73
4
 74
0
 40
0
 40
0
 40
0
 40
0
 40
1
 40
1
 40
1
 40
1
 10
49.321135
 20
69.712516
 30
0.0
 10
49.192518
 20
69.683578
 30
0.0
 10
49.060686
 20
69.638562
 30
0.0
 10
48.925639
 20
69.577470
 30
0.0
  0
LINE
  5
226
100
AcDbEntity
  8
Shape2DView001
 62
7
100
AcDbLine
 10
48.925639
 20
69.577470
 30
0.0
 11
48.925639
 21
71.386148
 31
0.0
  0
LINE
  5
227
100
AcDbEntity
  8
Shape2DView001
 62
7
100
AcDbLine
 10
51.682060
 20
70.486634
 30
0.0
 11
52.152315
 21
70.486634
 31
0.0
  0
LINE
  5
228
100
AcDbEntity
  8
Shape2DView001
 62
7
100
AcDbLine
 10
52.152315
 20
70.486634
 30
0.0
 11
52.996362
 21
68.219763
 31
0.0
  0
LINE
  5
229
100
AcDbEntity
  8
Shape2DView001
 62
7
100
AcDbLine
 10
52.996362
 20
68.219763
 30
0.0
 11
53.840412
 21
70.486634
 31
0.0
  0
LINE
  5
22a
100
AcDbEntity
  8
Shape2DView001
 62
7
100
AcDbLine
 10
53.840412
 20
70.486634
 30
0.0
 11
54.310666
 21
70.486634
 31
0.0
  0
LINE
  5
22b
100
AcDbEntity
  8
Shape2DView001
 62
7
100
AcDbLine
 10
54.310666
 20
70.486634
 30
0.0
 11
53.297810
 21
67.785680
 31
0.0
  0
LINE
  5
22c
100
AcDbEntity
  8
Shape2DView001
 62
7
100
AcDbLine
 10
53.297810
 20
67.785680
 30
0.0
 11
52.694917
 21
67.785680
 31
0.0
  0
LINE
  5
22d
100
AcDbEntity
  8
Shape2DView001
 62
7
100
AcDbLine
 10
52.694917
 20
67.785680
 30
0.0
 11
51.682060
 21
70.486634
 31
0.0
  0
SPLINE
  5
22e
100
AcDbEntity
  8
Shape2DView001
 62
7
100
AcDbSpline
 70
8
 71
3
 72
8
 73
4
 74
0
 40
0
 40
0
 40
0
 40
0
 40
1
 40
1
 40
1
 40
1
 10
58.031713
 20
69.726991
 30
0.0
 10
58.264832
 20
69.677153
 30
0.0
 10
58.446504
 20
69.573455
 30
0.0
 10
58.576729
 20
69.415899
 30
0.0
  0
SPLINE
  5
22f
100
AcDbEntity
  8
Shape2DView001
 62
7
100
AcDbSpline
 70
8
 71
3
 72
8
 73
4
 74
0
 40
0
 40
0
 40
0
 40
0
 40
1
 40
1
 40
1
 40
1
 10
58.576729
 20
69.415899
 30
0.0
 10
58.708560
 20
69.258344
 30
0.0
 10
58.774476
 20
69.063810
 30
0.0
 10
58.774476
 20
68.832300
 30
0.0
  0
SPLINE
  5
230
100
AcDbEntity
  8
Shape2DView001
 62
7
100
AcDbSpline
 70
8
 71
3
 72
8
 73
4
 74
0
 40
0
 40
0
 40
0
 40
0
 40
1
 40
1
 40
1
 40
1
 10
58.774476
 20
68.832300
 30
0.0
 10
58.774476
 20
68.476996
 30
0.0
 10
58.652290
 20
68.202078
 30
0.0
 10
58.407919
 20
68.007544
 30
0.0
  0
SPLINE
  5
231
100
AcDbEntity
  8
Shape2DView001
 62
7
100
AcDbSpline
 70
8
 71
3
 72
8
 73
4
 74
0
 40
0
 40
0
 40
0
 40
0
 40
1
 40
1
 40
1
 40
1
 10
58.407919
 20
68.007544
 30
0.0
 10
58.163546
 20
67.813011
 30
0.0
 10
57.816281
 20
67.715745
 30
0.0
 10
57.366122
 20
67.715745
 30
0.0
  0
SPLINE
  5
232
100
AcDbEntity
  8
Shape2DView001
 62
7
100
AcDbSpline
 70
8
 71
3
 72
8
 73
4
 74
0
 40
0
 40
0
 40
0
 40
0
 40
1
 40
1
 40
1
 40
1
 10
57.366122
 20
67.715745
 30
0.0
 10
57.214998
 20
67.715745
 30
0.0
 10
57.059049
 20
67.731019
 30
0.0
 10
56.898278
 20
67.761566
 30
0.0
  0
SPLINE
  5
233
100
AcDbEntity
  8
Shape2DView001
 62
7
100
AcDbSpline
 70
8
 71
3
 72
8
 73
4
 74
0
 40
0
 40
0
 40
0
 40
0
 40
1
 40
1
 40
1
 40
1
 10
56.898278
 20
67.761566
 30
0.0
 10
56.739114
 20
67.790504
 30
0.0
 10
56.574323
 20
67.834716
 30
0.0
 10
56.403907
 20
67.894201
 30
0.0
  0
LINE
  5
234
100
AcDbEntity
  8
Shape2DView001
 62
7
100
AcDbLine
 10
56.403907
 20
67.894201
 30
0.0
 11
56.403907
 21
68.364456
 31
0.0
  0
SPLINE
  5
235
100
AcDbEntity
  8
Shape2DView001
 62
7
100
AcDbSpline
 70
8
 71
3
 72
8
 73
4
 74
0
 40
0
 40
0
 40
0
 40
0
 40
1
 40
1
 40
1
 40
1
 10
56.403907
 20
68.364456
 30
0.0
 10
56.538954
 20
68.285679
 30
0.0
 10
56.686863
 20
68.226193
 30
0.0
 10
56.847634
 20
68.186000
 30
0.0
  0
SPLINE
  5
236
100
AcDbEntity
  8
Shape2DView001
 62
7
100
AcDbSpline
 70
8
 71
3
 72
8
 73
4
 74
0
 40
0
 40
0
 40
0
 40
0
 40
1
 40
1
 40
1
 40
1
 10
56.847634
 20
68.186000
 30
0.0
 10
57.008406
 20
68.145808
 30
0.0
 10
57.176412
 20
68.125712
 30
0.0
 10
57.351652
 20
68.125712
 30
0.0
  0
SPLINE
  5
237
100
AcDbEntity
  8
Shape2DView001
 62
7
100
AcDbSpline
 70
8
 71
3
 72
8
 73
4
 74
0
 40
0
 40
0
 40
0
 40
0
 40
1
 40
1
 40
1
 40
1
 10
57.351652
 20
68.125712
 30
0.0
 10
57.657117
 20
68.125712
 30
0.0
 10
57.889431
 20
68.186001
 30
0.0
 10
58.048594
 20
68.306578
 30
0.0
  0
SPLINE
  5
238
100
AcDbEntity
  8
Shape2DView001
 62
7
100
AcDbSpline
 70
8
 71
3
 72
8
 73
4
 74
0
 40
0
 40
0
 40
0
 40
0
 40
1
 40
1
 40
1
 40
1
 10
58.048594
 20
68.306578
 30
0.0
 10
58.209365
 20
68.427158
 30
0.0
 10
58.289751
 20
68.602398
 30
0.0
 10
58.289751
 20
68.832300
 30
0.0
  0
SPLINE
  5
239
100
AcDbEntity
  8
Shape2DView001
 62
7
100
AcDbSpline
 70
8
 71
3
 72
8
 73
4
 74
0
 40
0
 40
0
 40
0
 40
0
 40
1
 40
1
 40
1
 40
1
 10
58.289751
 20
68.832300
 30
0.0
 10
58.289751
 20
69.044519
 30
0.0
 10
58.214993
 20
69.210113
 30
0.0
 10
58.065477
 20
69.329082
 30
0.0
  0
SPLINE
  5
23a
100
AcDbEntity
  8
Shape2DView001
 62
7
100
AcDbSpline
 70
8
 71
3
 72
8
 73
4
 74
0
 40
0
 40
0
 40
0
 40
0
 40
1
 40
1
 40
1
 40
1
 10
58.065477
 20
69.329082
 30
0.0
 10
57.917566
 20
69.449661
 30
0.0
 10
57.710975
 20
69.509951
 30
0.0
 10
57.445704
 20
69.509951
 30
0.0
  0
LINE
  5
23b
100
AcDbEntity
  8
Shape2DView001
 62
7
100
AcDbLine
 10
57.445704
 20
69.509951
 30
0.0
 11
57.026090
 21
69.509951
 31
0.0
  0
LINE
  5
23c
100
AcDbEntity
  8
Shape2DView001
 62
7
100
AcDbLine
 10
57.026090
 20
69.509951
 30
0.0
 11
57.026090
 21
69.910271
 31
0.0
  0
LINE
  5
23d
100
AcDbEntity
  8
Shape2DView001
 62
7
100
AcDbLine
 10
57.026090
 20
69.910271
 30
0.0
 11
57.464997
 21
69.910271
 31
0.0
  0
SPLINE
  5
23e
100
AcDbEntity
  8
Shape2DView001
 62
7
100
AcDbSpline
 70
8
 71
3
 72
8
 73
4
 74
0
 40
0
 40
0
 40
0
 40
0
 40
1
 40
1
 40
1
 40
1
 10
57.464997
 20
69.910271
 30
0.0
 10
57.704545
 20
69.910271
 30
0.0
 10
57.887824
 20
69.957698
 30
0.0
 10
58.014833
 20
70.052553
 30
0.0
  0
SPLINE
  5
23f
100
AcDbEntity
  8
Shape2DView001
 62
7
100
AcDbSpline
 70
8
 71
3
 72
8
 73
4
 74
0
 40
0
 40
0
 40
0
 40
0
 40
1
 40
1
 40
1
 40
1
 10
58.014833
 20
70.052553
 30
0.0
 10
58.141842
 20
70.149015
 30
0.0
 10
58.205346
 20
70.287278
 30
0.0
 10
58.205346
 20
70.467343
 30
0.0
  0
SPLINE
  5
240
100
AcDbEntity
  8
Shape2DView001
 62
7
100
AcDbSpline
 70
8
 71
3
 72
8
 73
4
 74
0
 40
0
 40
0
 40
0
 40
0
 40
1
 40
1
 40
1
 40
1
 10
58.205346
 20
70.467343
 30
0.0
 10
58.205346
 20
70.652229
 30
0.0
 10
58.139431
 20
70.793707
 30
0.0
 10
58.007599
 20
70.891777
 30
0.0
  0
SPLINE
  5
241
100
AcDbEntity
  8
Shape2DView001
 62
7
100
AcDbSpline
 70
8
 71
3
 72
8
 73
4
 74
0
 40
0
 40
0
 40
0
 40
0
 40
1
 40
1
 40
1
 40
1
 10
58.007599
 20
70.891777
 30
0.0
 10
57.877373
 20
70.991456
 30
0.0
 10
57.690075
 20
71.041296
 30
0.0
 10
57.445704
 20
71.041296
 30
0.0
  0
SPLINE
  5
242
100
AcDbEntity
  8
Shape2DView001
 62
7
100
AcDbSpline
 70
8
 71
3
 72
8
 73
4
 74
0
 40
0
 40
0
 40
0
 40
0
 40
1
 40
1
 40
1
 40
1
 10
57.445704
 20
71.041296
 30
0.0
 10
57.312264
 20
71.041296
 30
0.0
 10
57.169177
 20
71.026827
 30
0.0
 10
57.016444
 20
70.997888
 30
0.0
  0
SPLINE
  5
243
100
AcDbEntity
  8
Shape2DView001
 62
7
100
AcDbSpline
 70
8
 71
3
 72
8
 73
4
 74
0
 40
0
 40
0
 40
0
 40
0
 40
1
 40
1
 40
1
 40
1
 10
57.016444
 20
70.997888
 30
0.0
 10
56.863712
 20
70.968948
 30
0.0
 10
56.695706
 20
70.923932
 30
0.0
 10
56.512426
 20
70.862840
 30
0.0
  0
LINE
  5
244
100
AcDbEntity
  8
Shape2DView001
 62
7
100
AcDbLine
 10
56.512426
 20
70.862840
 30
0.0
 11
56.512426
 21
71.296920
 31
0.0
  0
SPLINE
  5
245
100
AcDbEntity
  8
Shape2DView001
 62
7
100
AcDbSpline
 70
8
 71
3
 72
8
 73
4
 74
0
 40
0
 40
0
 40
0
 40
0
 40
1
 40
1
 40
1
 40
1
 10
56.512426
 20
71.296920
 30
0.0
 10
56.697313
 20
71.348368
 30
0.0
 10
56.870142
 20
71.386953
 30
0.0
 10
57.030914
 20
71.412675
 30
0.0
  0
SPLINE
  5
246
100
AcDbEntity
  8
Shape2DView001
 62
7
100
AcDbSpline
 70
8
 71
3
 72
8
 73
4
 74
0
 40
0
 40
0
 40
0
 40
0
 40
1
 40
1
 40
1
 40
1
 10
57.030914
 20
71.412675
 30
0.0
 10
57.193292
 20
71.438400
 30
0.0
 10
57.346024
 20
71.451262
 30
0.0
 10
57.489111
 20
71.451262
 30
0.0
  0
SPLINE
  5
247
100
AcDbEntity
  8
Shape2DView001
 62
7
100
AcDbSpline
 70
8
 71
3
 72
8
 73
4
 74
0
 40
0
 40
0
 40
0
 40
0
 40
1
 40
1
 40
1
 40
1
 10
57.489111
 20
71.451262
 30
0.0
 10
57.858884
 20
71.451262
 30
0.0
 10
58.151488
 20
71.366858
 30
0.0
 10
58.366922
 20
71.198048
 30
0.0
  0
SPLINE
  5
248
100
AcDbEntity
  8
Shape2DView001
 62
7
100
AcDbSpline
 70
8
 71
3
 72
8
 73
4
 74
0
 40
0
 40
0
 40
0
 40
0
 40
1
 40
1
 40
1
 40
1
 10
58.366922
 20
71.198048
 30
0.0
 10
58.582355
 20
71.030846
 30
0.0
 10
58.690071
 20
70.804158
 30
0.0
 10
58.690071
 20
70.517984
 30
0.0
  0
SPLINE
  5
249
100
AcDbEntity
  8
Shape2DView001
 62
7
100
AcDbSpline
 70
8
 71
3
 72
8
 73
4
 74
0
 40
0
 40
0
 40
0
 40
0
 40
1
 40
1
 40
1
 40
1
 10
58.690071
 20
70.517984
 30
0.0
 10
58.690071
 20
70.318630
 30
0.0
 10
58.632998
 20
70.149820
 30
0.0
 10
58.518851
 20
70.011556
 30
0.0
  0
SPLINE
  5
24a
100
AcDbEntity
  8
Shape2DView001
 62
7
100
AcDbSpline
 70
8
 71
3
 72
8
 73
4
 74
0
 40
0
 40
0
 40
0
 40
0
 40
1
 40
1
 40
1
 40
1
 10
58.518851
 20
70.011556
 30
0.0
 10
58.404703
 20
69.874900
 30
0.0
 10
58.242323
 20
69.780046
 30
0.0
 10
58.031713
 20
69.726991
 30
0.0
  0
LINE
  5
24b
100
AcDbEntity
  8
Shape2DView001
 62
7
100
AcDbLine
 10
58.031713
 20
69.726991
 30
0.0
 11
58.031713
 21
69.726991
 31
0.0
  0
LINE
  5
24c
100
AcDbEntity
  8
Shape2DView001
 62
7
100
AcDbLine
 10
60.858069
 20
70.906247
 30
0.0
 11
60.197302
 21
69.114454
 31
0.0
  0
LINE
  5
24d
100
AcDbEntity
  8
Shape2DView001
 62
7
100
AcDbLine
 10
60.197302
 20
69.114454
 30
0.0
 11
61.521250
 21
69.114454
 31
0.0
  0
LINE
  5
24e
100
AcDbEntity
  8
Shape2DView001
 62
7
100
AcDbLine
 10
61.521250
 20
69.114454
 30
0.0
 11
60.858069
 21
70.906247
 31
0.0
  0
LINE
  5
24f
100
AcDbEntity
  8
Shape2DView001
 62
7
100
AcDbLine
 10
60.583151
 20
71.386148
 30
0.0
 11
61.135400
 21
71.386148
 31
0.0
  0
LINE
  5
250
100
AcDbEntity
  8
Shape2DView001
 62
7
100
AcDbLine
 10
61.135400
 20
71.386148
 30
0.0
 11
62.507582
 21
67.785680
 31
0.0
  0
LINE
  5
251
100
AcDbEntity
  8
Shape2DView001
 62
7
100
AcDbLine
 10
62.507582
 20
67.785680
 30
0.0
 11
62.001151
 21
67.785680
 31
0.0
  0
LINE
  5
252
100
AcDbEntity
  8
Shape2DView001
 62
7
100
AcDbLine
 10
62.001151
 20
67.785680
 30
0.0
 11
61.673179
 21
68.709311
 31
0.0
  0
LINE
  5
253
100
AcDbEntity
  8
Shape2DView001
 62
7
100
AcDbLine
 10
61.673179
 20
68.709311
 30
0.0
 11
60.050196
 21
68.709311
 31
0.0
  0
LINE
  5
254
100
AcDbEntity
  8
Shape2DView001
 62
7
100
AcDbLine
 10
60.050196
 20
68.709311
 30
0.0
 11
59.722221
 21
67.785680
 31
0.0
  0
LINE
  5
255
100
AcDbEntity
  8
Shape2DView001
 62
7
100
AcDbLine
 10
59.722221
 20
67.785680
 30
0.0
 11
59.208559
 21
67.785680
 31
0.0
  0
LINE
  5
256
100
AcDbEntity
  8
Shape2DView001
 62
7
100
AcDbLine
 10
59.208559
 20
67.785680
 30
0.0
 11
60.583151
 21
71.386148
 31
0.0
  0
LINE
  5
257
100
AcDbEntity
  8
Shape2DView001
 62
7
100
AcDbLine
 10
83.321475
 20
71.386148
 30
0.0
 11
85.233849
 21
71.386148
 31
0.0
  0
LINE
  5
258
100
AcDbEntity
  8
Shape2DView001
 62
7
100
AcDbLine
 10
85.233849
 20
71.386148
 30
0.0
 11
85.233849
 21
70.976182
 31
0.0
  0
LINE
  5
259
100
AcDbEntity
  8
Shape2DView001
 62
7
100
AcDbLine
 10
85.233849
 20
70.976182
 30
0.0
 11
83.767615
 21
70.976182
 31
0.0
  0
LINE
  5
25a
100
AcDbEntity
  8
Shape2DView001
 62
7
100
AcDbLine
 10
83.767615
 20
70.976182
 30
0.0
 11
83.767615
 21
70.093550
 31
0.0
  0
SPLINE
  5
25b
100
AcDbEntity
  8
Shape2DView001
 62
7
100
AcDbSpline
 70
8
 71
3
 72
8
 73
4
 74
0
 40
0
 40
0
 40
0
 40
0
 40
1
 40
1
 40
1
 40
1
 10
83.767615
 20
70.093550
 30
0.0
 10
83.838354
 20
70.117666
 30
0.0
 10
83.909093
 20
70.135351
 30
0.0
 10
83.979832
 20
70.146605
 30
0.0
  0
SPLINE
  5
25c
100
AcDbEntity
  8
Shape2DView001
 62
7
100
AcDbSpline
 70
8
 71
3
 72
8
 73
4
 74
0
 40
0
 40
0
 40
0
 40
0
 40
1
 40
1
 40
1
 40
1
 10
83.979832
 20
70.146605
 30
0.0
 10
84.050571
 20
70.159463
 30
0.0
 10
84.121311
 20
70.165893
 30
0.0
 10
84.192052
 20
70.165893
 30
0.0
  0
SPLINE
  5
25d
100
AcDbEntity
  8
Shape2DView001
 62
7
100
AcDbSpline
 70
8
 71
3
 72
8
 73
4
 74
0
 40
0
 40
0
 40
0
 40
0
 40
1
 40
1
 40
1
 40
1
 10
84.192052
 20
70.165893
 30
0.0
 10
84.593979
 20
70.165893
 30
0.0
 10
84.912305
 20
70.055764
 30
0.0
 10
85.147031
 20
69.835507
 30
0.0
  0
SPLINE
  5
25e
100
AcDbEntity
  8
Shape2DView001
 62
7
100
AcDbSpline
 70
8
 71
3
 72
8
 73
4
 74
0
 40
0
 40
0
 40
0
 40
0
 40
1
 40
1
 40
1
 40
1
 10
85.147031
 20
69.835507
 30
0.0
 10
85.381757
 20
69.615251
 30
0.0
 10
85.499120
 20
69.317020
 30
0.0
 10
85.499120
 20
68.940816
 30
0.0
  0
SPLINE
  5
25f
100
AcDbEntity
  8
Shape2DView001
 62
7
100
AcDbSpline
 70
8
 71
3
 72
8
 73
4
 74
0
 40
0
 40
0
 40
0
 40
0
 40
1
 40
1
 40
1
 40
1
 10
85.499120
 20
68.940816
 30
0.0
 10
85.499120
 20
68.553357
 30
0.0
 10
85.378541
 20
68.251911
 30
0.0
 10
85.137384
 20
68.036478
 30
0.0
  0
SPLINE
  5
260
100
AcDbEntity
  8
Shape2DView001
 62
7
100
AcDbSpline
 70
8
 71
3
 72
8
 73
4
 74
0
 40
0
 40
0
 40
0
 40
0
 40
1
 40
1
 40
1
 40
1
 10
85.137384
 20
68.036478
 30
0.0
 10
84.896229
 20
67.822653
 30
0.0
 10
84.556198
 20
67.715740
 30
0.0
 10
84.117291
 20
67.715740
 30
0.0
  0
SPLINE
  5
261
100
AcDbEntity
  8
Shape2DView001
 62
7
100
AcDbSpline
 70
8
 71
3
 72
8
 73
4
 74
0
 40
0
 40
0
 40
0
 40
0
 40
1
 40
1
 40
1
 40
1
 10
84.117291
 20
67.715740
 30
0.0
 10
83.966166
 20
67.715740
 30
0.0
 10
83.811826
 20
67.728601
 30
0.0
 10
83.654270
 20
67.754324
 30
0.0
  0
SPLINE
  5
262
100
AcDbEntity
  8
Shape2DView001
 62
7
100
AcDbSpline
 70
8
 71
3
 72
8
 73
4
 74
0
 40
0
 40
0
 40
0
 40
0
 40
1
 40
1
 40
1
 40
1
 10
83.654270
 20
67.754324
 30
0.0
 10
83.498323
 20
67.780049
 30
0.0
 10
83.336748
 20
67.818634
 30
0.0
 10
83.169546
 20
67.870079
 30
0.0
  0
LINE
  5
263
100
AcDbEntity
  8
Shape2DView001
 62
7
100
AcDbLine
 10
83.169546
 20
67.870079
 30
0.0
 11
83.169546
 21
68.359627
 31
0.0
  0
SPLINE
  5
264
100
AcDbEntity
  8
Shape2DView001
 62
7
100
AcDbSpline
 70
8
 71
3
 72
8
 73
4
 74
0
 40
0
 40
0
 40
0
 40
0
 40
1
 40
1
 40
1
 40
1
 10
83.169546
 20
68.359627
 30
0.0
 10
83.314241
 20
68.280850
 30
0.0
 10
83.463759
 20
68.222169
 30
0.0
 10
83.618099
 20
68.183584
 30
0.0
  0
SPLINE
  5
265
100
AcDbEntity
  8
Shape2DView001
 62
7
100
AcDbSpline
 70
8
 71
3
 72
8
 73
4
 74
0
 40
0
 40
0
 40
0
 40
0
 40
1
 40
1
 40
1
 40
1
 10
83.618099
 20
68.183584
 30
0.0
 10
83.772439
 20
68.144999
 30
0.0
 10
83.935622
 20
68.125706
 30
0.0
 10
84.107647
 20
68.125706
 30
0.0
  0
SPLINE
  5
266
100
AcDbEntity
  8
Shape2DView001
 62
7
100
AcDbSpline
 70
8
 71
3
 72
8
 73
4
 74
0
 40
0
 40
0
 40
0
 40
0
 40
1
 40
1
 40
1
 40
1
 10
84.107647
 20
68.125706
 30
0.0
 10
84.385781
 20
68.125706
 30
0.0
 10
84.606037
 20
68.198857
 30
0.0
 10
84.768415
 20
68.345157
 30
0.0
  0
SPLINE
  5
267
100
AcDbEntity
  8
Shape2DView001
 62
7
100
AcDbSpline
 70
8
 71
3
 72
8
 73
4
 74
0
 40
0
 40
0
 40
0
 40
0
 40
1
 40
1
 40
1
 40
1
 10
84.768415
 20
68.345157
 30
0.0
 10
84.930793
 20
68.491459
 30
0.0
 10
85.011982
 20
68.690012
 30
0.0
 10
85.011982
 20
68.940816
 30
0.0
  0
SPLINE
  5
268
100
AcDbEntity
  8
Shape2DView001
 62
7
100
AcDbSpline
 70
8
 71
3
 72
8
 73
4
 74
0
 40
0
 40
0
 40
0
 40
0
 40
1
 40
1
 40
1
 40
1
 10
85.011982
 20
68.940816
 30
0.0
 10
85.011982
 20
69.191618
 30
0.0
 10
84.930793
 20
69.390170
 30
0.0
 10
84.768415
 20
69.536473
 30
0.0
  0
SPLINE
  5
269
100
AcDbEntity
  8
Shape2DView001
 62
7
100
AcDbSpline
 70
8
 71
3
 72
8
 73
4
 74
0
 40
0
 40
0
 40
0
 40
0
 40
1
 40
1
 40
1
 40
1
 10
84.768415
 20
69.536473
 30
0.0
 10
84.606037
 20
69.682775
 30
0.0
 10
84.385781
 20
69.755926
 30
0.0
 10
84.107647
 20
69.755926
 30
0.0
  0
SPLINE
  5
26a
100
AcDbEntity
  8
Shape2DView001
 62
7
100
AcDbSpline
 70
8
 71
3
 72
8
 73
4
 74
0
 40
0
 40
0
 40
0
 40
0
 40
1
 40
1
 40
1
 40
1
 10
84.107647
 20
69.755926
 30
0.0
 10
83.977421
 20
69.755926
 30
0.0
 10
83.847196
 20
69.741456
 30
0.0
 10
83.716971
 20
69.712516
 30
0.0
  0
SPLINE
  5
26b
100
AcDbEntity
  8
Shape2DView001
 62
7
100
AcDbSpline
 70
8
 71
3
 72
8
 73
4
 74
0
 40
0
 40
0
 40
0
 40
0
 40
1
 40
1
 40
1
 40
1
 10
83.716971
 20
69.712516
 30
0.0
 10
83.588356
 20
69.683578
 30
0.0
 10
83.456523
 20
69.638562
 30
0.0
 10
83.321475
 20
69.577470
 30
0.0
  0
LINE
  5
26c
100
AcDbEntity
  8
Shape2DView001
 62
7
100
AcDbLine
 10
83.321475
 20
69.577470
 30
0.0
 11
83.321475
 21
71.386148
 31
0.0
  0
LINE
  5
26d
100
AcDbEntity
  8
Shape2DView001
 62
7
100
AcDbLine
 10
86.077896
 20
70.486634
 30
0.0
 11
86.548150
 21
70.486634
 31
0.0
  0
LINE
  5
26e
100
AcDbEntity
  8
Shape2DView001
 62
7
100
AcDbLine
 10
86.548150
 20
70.486634
 30
0.0
 11
87.392200
 21
68.219763
 31
0.0
  0
LINE
  5
26f
100
AcDbEntity
  8
Shape2DView001
 62
7
100
AcDbLine
 10
87.392200
 20
68.219763
 30
0.0
 11
88.236248
 21
70.486634
 31
0.0
  0
LINE
  5
270
100
AcDbEntity
  8
Shape2DView001
 62
7
100
AcDbLine
 10
88.236248
 20
70.486634
 30
0.0
 11
88.706505
 21
70.486634
 31
0.0
  0
LINE
  5
271
100
AcDbEntity
  8
Shape2DView001
 62
7
100
AcDbLine
 10
88.706505
 20
70.486634
 30
0.0
 11
87.693646
 21
67.785680
 31
0.0
  0
LINE
  5
272
100
AcDbEntity
  8
Shape2DView001
 62
7
100
AcDbLine
 10
87.693646
 20
67.785680
 30
0.0
 11
87.090755
 21
67.785680
 31
0.0
  0
LINE
  5
273
100
AcDbEntity
  8
Shape2DView001
 62
7
100
AcDbLine
 10
87.090755
 20
67.785680
 30
0.0
 11
86.077896
 21
70.486634
 31
0.0
  0
SPLINE
  5
274
100
AcDbEntity
  8
Shape2DView001
 62
7
100
AcDbSpline
 70
8
 71
3
 72
8
 73
4
 74
0
 40
0
 40
0
 40
0
 40
0
 40
1
 40
1
 40
1
 40
1
 10
92.427552
 20
69.726991
 30
0.0
 10
92.660669
 20
69.677153
 30
0.0
 10
92.842340
 20
69.573455
 30
0.0
 10
92.972565
 20
69.415899
 30
0.0
  0
SPLINE
  5
275
100
AcDbEntity
  8
Shape2DView001
 62
7
100
AcDbSpline
 70
8
 71
3
 72
8
 73
4
 74
0
 40
0
 40
0
 40
0
 40
0
 40
1
 40
1
 40
1
 40
1
 10
92.972565
 20
69.415899
 30
0.0
 10
93.104398
 20
69.258344
 30
0.0
 10
93.170314
 20
69.063810
 30
0.0
 10
93.170314
 20
68.832300
 30
0.0
  0
SPLINE
  5
276
100
AcDbEntity
  8
Shape2DView001
 62
7
100
AcDbSpline
 70
8
 71
3
 72
8
 73
4
 74
0
 40
0
 40
0
 40
0
 40
0
 40
1
 40
1
 40
1
 40
1
 10
93.170314
 20
68.832300
 30
0.0
 10
93.170314
 20
68.476996
 30
0.0
 10
93.048128
 20
68.202078
 30
0.0
 10
92.803755
 20
68.007544
 30
0.0
  0
SPLINE
  5
277
100
AcDbEntity
  8
Shape2DView001
 62
7
100
AcDbSpline
 70
8
 71
3
 72
8
 73
4
 74
0
 40
0
 40
0
 40
0
 40
0
 40
1
 40
1
 40
1
 40
1
 10
92.803755
 20
68.007544
 30
0.0
 10
92.559384
 20
67.813011
 30
0.0
 10
92.212119
 20
67.715745
 30
0.0
 10
91.761958
 20
67.715745
 30
0.0
  0
SPLINE
  5
278
100
AcDbEntity
  8
Shape2DView001
 62
7
100
AcDbSpline
 70
8
 71
3
 72
8
 73
4
 74
0
 40
0
 40
0
 40
0
 40
0
 40
1
 40
1
 40
1
 40
1
 10
91.761958
 20
67.715745
 30
0.0
 10
91.610834
 20
67.715745
 30
0.0
 10
91.454885
 20
67.731019
 30
0.0
 10
91.294114
 20
67.761566
 30
0.0
  0
SPLINE
  5
279
100
AcDbEntity
  8
Shape2DView001
 62
7
100
AcDbSpline
 70
8
 71
3
 72
8
 73
4
 74
0
 40
0
 40
0
 40
0
 40
0
 40
1
 40
1
 40
1
 40
1
 10
91.294114
 20
67.761566
 30
0.0
 10
91.134951
 20
67.790504
 30
0.0
 10
90.970161
 20
67.834716
 30
0.0
 10
90.799743
 20
67.894201
 30
0.0
  0
LINE
  5
27a
100
AcDbEntity
  8
Shape2DView001
 62
7
100
AcDbLine
 10
90.799743
 20
67.894201
 30
0.0
 11
90.799743
 21
68.364456
 31
0.0
  0
SPLINE
  5
27b
100
AcDbEntity
  8
Shape2DView001
 62
7
100
AcDbSpline
 70
8
 71
3
 72
8
 73
4
 74
0
 40
0
 40
0
 40
0
 40
0
 40
1
 40
1
 40
1
 40
1
 10
90.799743
 20
68.364456
 30
0.0
 10
90.934791
 20
68.285679
 30
0.0
 10
91.082701
 20
68.226193
 30
0.0
 10
91.243473
 20
68.186000
 30
0.0
  0
SPLINE
  5
27c
100
AcDbEntity
  8
Shape2DView001
 62
7
100
AcDbSpline
 70
8
 71
3
 72
8
 73
4
 74
0
 40
0
 40
0
 40
0
 40
0
 40
1
 40
1
 40
1
 40
1
 10
91.243473
 20
68.186000
 30
0.0
 10
91.404244
 20
68.145808
 30
0.0
 10
91.572249
 20
68.125712
 30
0.0
 10
91.747488
 20
68.125712
 30
0.0
  0
SPLINE
  5
27d
100
AcDbEntity
  8
Shape2DView001
 62
7
100
AcDbSpline
 70
8
 71
3
 72
8
 73
4
 74
0
 40
0
 40
0
 40
0
 40
0
 40
1
 40
1
 40
1
 40
1
 10
91.747488
 20
68.125712
 30
0.0
 10
92.052955
 20
68.125712
 30
0.0
 10
92.285270
 20
68.186001
 30
0.0
 10
92.444432
 20
68.306578
 30
0.0
  0
SPLINE
  5
27e
100
AcDbEntity
  8
Shape2DView001
 62
7
100
AcDbSpline
 70
8
 71
3
 72
8
 73
4
 74
0
 40
0
 40
0
 40
0
 40
0
 40
1
 40
1
 40
1
 40
1
 10
92.444432
 20
68.306578
 30
0.0
 10
92.605204
 20
68.427158
 30
0.0
 10
92.685590
 20
68.602398
 30
0.0
 10
92.685590
 20
68.832300
 30
0.0
  0
SPLINE
  5
27f
100
AcDbEntity
  8
Shape2DView001
 62
7
100
AcDbSpline
 70
8
 71
3
 72
8
 73
4
 74
0
 40
0
 40
0
 40
0
 40
0
 40
1
 40
1
 40
1
 40
1
 10
92.685590
 20
68.832300
 30
0.0
 10
92.685590
 20
69.044519
 30
0.0
 10
92.610831
 20
69.210113
 30
0.0
 10
92.461313
 20
69.329082
 30
0.0
  0
SPLINE
  5
280
100
AcDbEntity
  8
Shape2DView001
 62
7
100
AcDbSpline
 70
8
 71
3
 72
8
 73
4
 74
0
 40
0
 40
0
 40
0
 40
0
 40
1
 40
1
 40
1
 40
1
 10
92.461313
 20
69.329082
 30
0.0
 10
92.313404
 20
69.449661
 30
0.0
 10
92.106813
 20
69.509951
 30
0.0
 10
91.841540
 20
69.509951
 30
0.0
  0
LINE
  5
281
100
AcDbEntity
  8
Shape2DView001
 62
7
100
AcDbLine
 10
91.841540
 20
69.509951
 30
0.0
 11
91.421929
 21
69.509951
 31
0.0
  0
LINE
  5
282
100
AcDbEntity
  8
Shape2DView001
 62
7
100
AcDbLine
 10
91.421929
 20
69.509951
 30
0.0
 11
91.421929
 21
69.910271
 31
0.0
  0
LINE
  5
283
100
AcDbEntity
  8
Shape2DView001
 62
7
100
AcDbLine
 10
91.421929
 20
69.910271
 30
0.0
 11
91.860833
 21
69.910271
 31
0.0
  0
SPLINE
  5
284
100
AcDbEntity
  8
Shape2DView001
 62
7
100
AcDbSpline
 70
8
 71
3
 72
8
 73
4
 74
0
 40
0
 40
0
 40
0
 40
0
 40
1
 40
1
 40
1
 40
1
 10
91.860833
 20
69.910271
 30
0.0
 10
92.100381
 20
69.910271
 30
0.0
 10
92.283661
 20
69.957698
 30
0.0
 10
92.410672
 20
70.052553
 30
0.0
  0
SPLINE
  5
285
100
AcDbEntity
  8
Shape2DView001
 62
7
100
AcDbSpline
 70
8
 71
3
 72
8
 73
4
 74
0
 40
0
 40
0
 40
0
 40
0
 40
1
 40
1
 40
1
 40
1
 10
92.410672
 20
70.052553
 30
0.0
 10
92.537680
 20
70.149015
 30
0.0
 10
92.601185
 20
70.287278
 30
0.0
 10
92.601185
 20
70.467343
 30
0.0
  0
SPLINE
  5
286
100
AcDbEntity
  8
Shape2DView001
 62
7
100
AcDbSpline
 70
8
 71
3
 72
8
 73
4
 74
0
 40
0
 40
0
 40
0
 40
0
 40
1
 40
1
 40
1
 40
1
 10
92.601185
 20
70.467343
 30
0.0
 10
92.601185
 20
70.652229
 30
0.0
 10
92.535268
 20
70.793707
 30
0.0
 10
92.403435
 20
70.891777
 30
0.0
  0
SPLINE
  5
287
100
AcDbEntity
  8
Shape2DView001
 62
7
100
AcDbSpline
 70
8
 71
3
 72
8
 73
4
 74
0
 40
0
 40
0
 40
0
 40
0
 40
1
 40
1
 40
1
 40
1
 10
92.403435
 20
70.891777
 30
0.0
 10
92.273211
 20
70.991456
 30
0.0
 10
92.085912
 20
71.041296
 30
0.0
 10
91.841540
 20
71.041296
 30
0.0
  0
SPLINE
  5
288
100
AcDbEntity
  8
Shape2DView001
 62
7
100
AcDbSpline
 70
8
 71
3
 72
8
 73
4
 74
0
 40
0
 40
0
 40
0
 40
0
 40
1
 40
1
 40
1
 40
1
 10
91.841540
 20
71.041296
 30
0.0
 10
91.708100
 20
71.041296
 30
0.0
 10
91.565014
 20
71.026827
 30
0.0
 10
91.412282
 20
70.997888
 30
0.0
  0
SPLINE
  5
289
100
AcDbEntity
  8
Shape2DView001
 62
7
100
AcDbSpline
 70
8
 71
3
 72
8
 73
4
 74
0
 40
0
 40
0
 40
0
 40
0
 40
1
 40
1
 40
1
 40
1
 10
91.412282
 20
70.997888
 30
0.0
 10
91.259549
 20
70.968948
 30
0.0
 10
91.091543
 20
70.923932
 30
0.0
 10
90.908264
 20
70.862840
 30
0.0
  0
LINE
  5
28a
100
AcDbEntity
  8
Shape2DView001
 62
7
100
AcDbLine
 10
90.908264
 20
70.862840
 30
0.0
 11
90.908264
 21
71.296920
 31
0.0
  0
SPLINE
  5
28b
100
AcDbEntity
  8
Shape2DView001
 62
7
100
AcDbSpline
 70
8
 71
3
 72
8
 73
4
 74
0
 40
0
 40
0
 40
0
 40
0
 40
1
 40
1
 40
1
 40
1
 10
90.908264
 20
71.296920
 30
0.0
 10
91.093152
 20
71.348368
 30
0.0
 10
91.265981
 20
71.386953
 30
0.0
 10
91.426752
 20
71.412675
 30
0.0
  0
SPLINE
  5
28c
100
AcDbEntity
  8
Shape2DView001
 62
7
100
AcDbSpline
 70
8
 71
3
 72
8
 73
4
 74
0
 40
0
 40
0
 40
0
 40
0
 40
1
 40
1
 40
1
 40
1
 10
91.426752
 20
71.412675
 30
0.0
 10
91.589131
 20
71.438400
 30
0.0
 10
91.741863
 20
71.451262
 30
0.0
 10
91.884950
 20
71.451262
 30
0.0
  0
SPLINE
  5
28d
100
AcDbEntity
  8
Shape2DView001
 62
7
100
AcDbSpline
 70
8
 71
3
 72
8
 73
4
 74
0
 40
0
 40
0
 40
0
 40
0
 40
1
 40
1
 40
1
 40
1
 10
91.884950
 20
71.451262
 30
0.0
 10
92.254723
 20
71.451262
 30
0.0
 10
92.547325
 20
71.366858
 30
0.0
 10
92.762758
 20
71.198048
 30
0.0
  0
SPLINE
  5
28e
100
AcDbEntity
  8
Shape2DView001
 62
7
100
AcDbSpline
 70
8
 71
3
 72
8
 73
4
 74
0
 40
0
 40
0
 40
0
 40
0
 40
1
 40
1
 40
1
 40
1
 10
92.762758
 20
71.198048
 30
0.0
 10
92.978192
 20
71.030846
 30
0.0
 10
93.085909
 20
70.804158
 30
0.0
 10
93.085909
 20
70.517984
 30
0.0
  0
SPLINE
  5
28f
100
AcDbEntity
  8
Shape2DView001
 62
7
100
AcDbSpline
 70
8
 71
3
 72
8
 73
4
 74
0
 40
0
 40
0
 40
0
 40
0
 40
1
 40
1
 40
1
 40
1
 10
93.085909
 20
70.517984
 30
0.0
 10
93.085909
 20
70.318630
 30
0.0
 10
93.028835
 20
70.149820
 30
0.0
 10
92.914687
 20
70.011556
 30
0.0
  0
SPLINE
  5
290
100
AcDbEntity
  8
Shape2DView001
 62
7
100
AcDbSpline
 70
8
 71
3
 72
8
 73
4
 74
0
 40
0
 40
0
 40
0
 40
0
 40
1
 40
1
 40
1
 40
1
 10
92.914687
 20
70.011556
 30
0.0
 10
92.800540
 20
69.874900
 30
0.0
 10
92.638162
 20
69.780046
 30
0.0
 10
92.427552
 20
69.726991
 30
0.0
  0
LINE
  5
291
100
AcDbEntity
  8
Shape2DView001
 62
7
100
AcDbLine
 10
92.427552
 20
69.726991
 30
0.0
 11
92.427552
 21
69.726991
 31
0.0
  0
LINE
  5
292
100
AcDbEntity
  8
Shape2DView001
 62
7
100
AcDbLine
 10
95.253908
 20
70.906247
 30
0.0
 11
94.593137
 21
69.114454
 31
0.0
  0
LINE
  5
293
100
AcDbEntity
  8
Shape2DView001
 62
7
100
AcDbLine
 10
94.593137
 20
69.114454
 30
0.0
 11
95.917089
 21
69.114454
 31
0.0
  0
LINE
  5
294
100
AcDbEntity
  8
Shape2DView001
 62
7
100
AcDbLine
 10
95.917089
 20
69.114454
 30
0.0
 11
95.253908
 21
70.906247
 31
0.0
  0
LINE
  5
295
100
AcDbEntity
  8
Shape2DView001
 62
7
100
AcDbLine
 10
94.978990
 20
71.386148
 30
0.0
 11
95.531236
 21
71.386148
 31
0.0
  0
LINE
  5
296
100
AcDbEntity
  8
Shape2DView001
 62
7
100
AcDbLine
 10
95.531236
 20
71.386148
 30
0.0
 11
96.903418
 21
67.785680
 31
0.0
  0
LINE
  5
297
100
AcDbEntity
  8
Shape2DView001
 62
7
100
AcDbLine
 10
96.903418
 20
67.785680
 30
0.0
 11
96.396990
 21
67.785680
 31
0.0
  0
LINE
  5
298
100
AcDbEntity
  8
Shape2DView001
 62
7
100
AcDbLine
 10
96.396990
 20
67.785680
 30
0.0
 11
96.069018
 21
68.709311
 31
0.0
  0
LINE
  5
299
100
AcDbEntity
  8
Shape2DView001
 62
7
100
AcDbLine
 10
96.069018
 20
68.709311
 30
0.0
 11
94.446032
 21
68.709311
 31
0.0
  0
LINE
  5
29a
100
AcDbEntity
  8
Shape2DView001
 62
7
100
AcDbLine
 10
94.446032
 20
68.709311
 30
0.0
 11
94.118060
 21
67.785680
 31
0.0
  0
LINE
  5
29b
100
AcDbEntity
  8
Shape2DView001
 62
7
100
AcDbLine
 10
94.118060
 20
67.785680
 30
0.0
 11
93.604395
 21
67.785680
 31
0.0
  0
LINE
  5
29c
100
AcDbEntity
  8
Shape2DView001
 62
7
100
AcDbLine
 10
93.604395
 20
67.785680
 30
0.0
 11
94.978990
 21
71.386148
 31
0.0
  0
LINE
  5
29d
100
AcDbEntity
  8
Shape2DView001
 62
7
100
AcDbLine
 10
7.861993
 20
78.450161
 30
0.0
 11
6.683771
 21
81.536279
 31
0.0
  0
LINE
  5
29e
100
AcDbEntity
  8
Shape2DView001
 62
7
100
AcDbLine
 10
6.683771
 20
81.536279
 30
0.0
 11
7.119920
 21
81.536279
 31
0.0
  0
LINE
  5
29f
100
AcDbEntity
  8
Shape2DView001
 62
7
100
AcDbLine
 10
7.119920
 20
81.536279
 30
0.0
 11
8.097638
 21
78.937986
 31
0.0
  0
LINE
  5
2a0
100
AcDbEntity
  8
Shape2DView001
 62
7
100
AcDbLine
 10
8.097638
 20
78.937986
 30
0.0
 11
9.077423
 21
81.536279
 31
0.0
  0
LINE
  5
2a1
100
AcDbEntity
  8
Shape2DView001
 62
7
100
AcDbLine
 10
9.077423
 20
81.536279
 30
0.0
 11
9.511505
 21
81.536279
 31
0.0
  0
LINE
  5
2a2
100
AcDbEntity
  8
Shape2DView001
 62
7
100
AcDbLine
 10
9.511505
 20
81.536279
 30
0.0
 11
8.335349
 21
78.450161
 31
0.0
  0
LINE
  5
2a3
100
AcDbEntity
  8
Shape2DView001
 62
7
100
AcDbLine
 10
8.335349
 20
78.450161
 30
0.0
 11
7.861993
 21
78.450161
 31
0.0
  0
LINE
  5
2a4
100
AcDbEntity
  8
Shape2DView001
 62
7
100
AcDbLine
 10
11.291241
 20
80.765265
 30
0.0
 11
11.671580
 21
80.765265
 31
0.0
  0
LINE
  5
2a5
100
AcDbEntity
  8
Shape2DView001
 62
7
100
AcDbLine
 10
11.671580
 20
80.765265
 30
0.0
 11
11.671580
 21
78.450161
 31
0.0
  0
LINE
  5
2a6
100
AcDbEntity
  8
Shape2DView001
 62
7
100
AcDbLine
 10
11.671580
 20
78.450161
 30
0.0
 11
11.291241
 21
78.450161
 31
0.0
  0
LINE
  5
2a7
100
AcDbEntity
  8
Shape2DView001
 62
7
100
AcDbLine
 10
11.291241
 20
78.450161
 30
0.0
 11
11.291241
 21
80.765265
 31
0.0
  0
LINE
  5
2a8
100
AcDbEntity
  8
Shape2DView001
 62
7
100
AcDbLine
 10
11.291241
 20
81.666502
 30
0.0
 11
11.671580
 21
81.666502
 31
0.0
  0
LINE
  5
2a9
100
AcDbEntity
  8
Shape2DView001
 62
7
100
AcDbLine
 10
11.671580
 20
81.666502
 30
0.0
 11
11.671580
 21
81.184878
 31
0.0
  0
LINE
  5
2aa
100
AcDbEntity
  8
Shape2DView001
 62
7
100
AcDbLine
 10
11.671580
 20
81.184878
 30
0.0
 11
11.291241
 21
81.184878
 31
0.0
  0
LINE
  5
2ab
100
AcDbEntity
  8
Shape2DView001
 62
7
100
AcDbLine
 10
11.291241
 20
81.184878
 30
0.0
 11
11.291241
 21
81.666502
 31
0.0
  0
LINE
  5
2ac
100
AcDbEntity
  8
Shape2DView001
 62
7
100
AcDbLine
 10
14.391827
 20
79.847492
 30
0.0
 11
14.391827
 21
78.450161
 31
0.0
  0
LINE
  5
2ad
100
AcDbEntity
  8
Shape2DView001
 62
7
100
AcDbLine
 10
14.391827
 20
78.450161
 30
0.0
 11
14.011489
 21
78.450161
 31
0.0
  0
LINE
  5
2ae
100
AcDbEntity
  8
Shape2DView001
 62
7
100
AcDbLine
 10
14.011489
 20
78.450161
 30
0.0
 11
14.011489
 21
79.835091
 31
0.0
  0
SPLINE
  5
2af
100
AcDbEntity
  8
Shape2DView001
 62
7
100
AcDbSpline
 70
8
 71
3
 72
8
 73
4
 74
0
 40
0
 40
0
 40
0
 40
0
 40
1
 40
1
 40
1
 40
1
 10
14.011489
 20
79.835091
 30
0.0
 10
14.011489
 20
80.054199
 30
0.0
 10
13.968770
 20
80.218185
 30
0.0
 10
13.883331
 20
80.327049
 30
0.0
  0
SPLINE
  5
2b0
100
AcDbEntity
  8
Shape2DView001
 62
7
100
AcDbSpline
 70
8
 71
3
 72
8
 73
4
 74
0
 40
0
 40
0
 40
0
 40
0
 40
1
 40
1
 40
1
 40
1
 10
13.883331
 20
80.327049
 30
0.0
 10
13.797893
 20
80.435914
 30
0.0
 10
13.669735
 20
80.490347
 30
0.0
 10
13.498859
 20
80.490347
 30
0.0
  0
SPLINE
  5
2b1
100
AcDbEntity
  8
Shape2DView001
 62
7
100
AcDbSpline
 70
8
 71
3
 72
8
 73
4
 74
0
 40
0
 40
0
 40
0
 40
0
 40
1
 40
1
 40
1
 40
1
 10
13.498859
 20
80.490347
 30
0.0
 10
13.293531
 20
80.490347
 30
0.0
 10
13.131612
 20
80.424890
 30
0.0
 10
13.013100
 20
80.293976
 30
0.0
  0
SPLINE
  5
2b2
100
AcDbEntity
  8
Shape2DView001
 62
7
100
AcDbSpline
 70
8
 71
3
 72
8
 73
4
 74
0
 40
0
 40
0
 40
0
 40
0
 40
1
 40
1
 40
1
 40
1
 10
13.013100
 20
80.293976
 30
0.0
 10
12.894589
 20
80.163064
 30
0.0
 10
12.835333
 20
79.984608
 30
0.0
 10
12.835333
 20
79.758610
 30
0.0
  0
LINE
  5
2b3
100
AcDbEntity
  8
Shape2DView001
 62
7
100
AcDbLine
 10
12.835333
 20
79.758610
 30
0.0
 11
12.835333
 21
78.450161
 31
0.0
  0
LINE
  5
2b4
100
AcDbEntity
  8
Shape2DView001
 62
7
100
AcDbLine
 10
12.835333
 20
78.450161
 30
0.0
 11
12.452928
 21
78.450161
 31
0.0
  0
LINE
  5
2b5
100
AcDbEntity
  8
Shape2DView001
 62
7
100
AcDbLine
 10
12.452928
 20
78.450161
 30
0.0
 11
12.452928
 21
80.765265
 31
0.0
  0
LINE
  5
2b6
100
AcDbEntity
  8
Shape2DView001
 62
7
100
AcDbLine
 10
12.452928
 20
80.765265
 30
0.0
 11
12.835333
 21
80.765265
 31
0.0
  0
LINE
  5
2b7
100
AcDbEntity
  8
Shape2DView001
 62
7
100
AcDbLine
 10
12.835333
 20
80.765265
 30
0.0
 11
12.835333
 21
80.405598
 31
0.0
  0
SPLINE
  5
2b8
100
AcDbEntity
  8
Shape2DView001
 62
7
100
AcDbSpline
 70
8
 71
3
 72
8
 73
4
 74
0
 40
0
 40
0
 40
0
 40
0
 40
1
 40
1
 40
1
 40
1
 10
12.835333
 20
80.405598
 30
0.0
 10
12.926284
 20
80.544780
 30
0.0
 10
13.033082
 20
80.648822
 30
0.0
 10
13.155727
 20
80.717725
 30
0.0
  0
SPLINE
  5
2b9
100
AcDbEntity
  8
Shape2DView001
 62
7
100
AcDbSpline
 70
8
 71
3
 72
8
 73
4
 74
0
 40
0
 40
0
 40
0
 40
0
 40
1
 40
1
 40
1
 40
1
 10
13.155727
 20
80.717725
 30
0.0
 10
13.279751
 20
80.786626
 30
0.0
 10
13.422377
 20
80.821076
 30
0.0
 10
13.583608
 20
80.821076
 30
0.0
  0
SPLINE
  5
2ba
100
AcDbEntity
  8
Shape2DView001
 62
7
100
AcDbSpline
 70
8
 71
3
 72
8
 73
4
 74
0
 40
0
 40
0
 40
0
 40
0
 40
1
 40
1
 40
1
 40
1
 10
13.583608
 20
80.821076
 30
0.0
 10
13.849569
 20
80.821076
 30
0.0
 10
14.050763
 20
80.738394
 30
0.0
 10
14.187189
 20
80.573029
 30
0.0
  0
SPLINE
  5
2bb
100
AcDbEntity
  8
Shape2DView001
 62
7
100
AcDbSpline
 70
8
 71
3
 72
8
 73
4
 74
0
 40
0
 40
0
 40
0
 40
0
 40
1
 40
1
 40
1
 40
1
 10
14.187189
 20
80.573029
 30
0.0
 10
14.323614
 20
80.409042
 30
0.0
 10
14.391827
 20
80.167196
 30
0.0
 10
14.391827
 20
79.847492
 30
0.0
  0
LINE
  5
2bc
100
AcDbEntity
  8
Shape2DView001
 62
7
100
AcDbLine
 10
14.391827
 20
79.847492
 30
0.0
 11
14.391827
 21
79.847492
 31
0.0
  0
LINE
  5
2bd
100
AcDbEntity
  8
Shape2DView001
 62
7
100
AcDbLine
 10
15.247589
 20
78.975195
 30
0.0
 11
15.683738
 21
78.975195
 31
0.0
  0
LINE
  5
2be
100
AcDbEntity
  8
Shape2DView001
 62
7
100
AcDbLine
 10
15.683738
 20
78.975195
 30
0.0
 11
15.683738
 21
78.619661
 31
0.0
  0
LINE
  5
2bf
100
AcDbEntity
  8
Shape2DView001
 62
7
100
AcDbLine
 10
15.683738
 20
78.619661
 30
0.0
 11
15.344741
 21
77.958203
 31
0.0
  0
LINE
  5
2c0
100
AcDbEntity
  8
Shape2DView001
 62
7
100
AcDbLine
 10
15.344741
 20
77.958203
 30
0.0
 11
15.078090
 21
77.958203
 31
0.0
  0
LINE
  5
2c1
100
AcDbEntity
  8
Shape2DView001
 62
7
100
AcDbLine
 10
15.078090
 20
77.958203
 30
0.0
 11
15.247589
 21
78.619661
 31
0.0
  0
LINE
  5
2c2
100
AcDbEntity
  8
Shape2DView001
 62
7
100
AcDbLine
 10
15.247589
 20
78.619661
 30
0.0
 11
15.247589
 21
78.975195
 31
0.0
  0
LINE
  5
2c3
100
AcDbEntity
  8
Shape2DView001
 62
7
100
AcDbLine
 10
18.889744
 20
81.124934
 30
0.0
 11
18.323370
 21
79.589110
 31
0.0
  0
LINE
  5
2c4
100
AcDbEntity
  8
Shape2DView001
 62
7
100
AcDbLine
 10
18.323370
 20
79.589110
 30
0.0
 11
19.458185
 21
79.589110
 31
0.0
  0
LINE
  5
2c5
100
AcDbEntity
  8
Shape2DView001
 62
7
100
AcDbLine
 10
19.458185
 20
79.589110
 30
0.0
 11
18.889744
 21
81.124934
 31
0.0
  0
LINE
  5
2c6
100
AcDbEntity
  8
Shape2DView001
 62
7
100
AcDbLine
 10
18.654099
 20
81.536279
 30
0.0
 11
19.127456
 21
81.536279
 31
0.0
  0
LINE
  5
2c7
100
AcDbEntity
  8
Shape2DView001
 62
7
100
AcDbLine
 10
19.127456
 20
81.536279
 30
0.0
 11
20.303611
 21
78.450161
 31
0.0
  0
LINE
  5
2c8
100
AcDbEntity
  8
Shape2DView001
 62
7
100
AcDbLine
 10
20.303611
 20
78.450161
 30
0.0
 11
19.869529
 21
78.450161
 31
0.0
  0
LINE
  5
2c9
100
AcDbEntity
  8
Shape2DView001
 62
7
100
AcDbLine
 10
19.869529
 20
78.450161
 30
0.0
 11
19.588409
 21
79.241844
 31
0.0
  0
LINE
  5
2ca
100
AcDbEntity
  8
Shape2DView001
 62
7
100
AcDbLine
 10
19.588409
 20
79.241844
 30
0.0
 11
18.197280
 21
79.241844
 31
0.0
  0
LINE
  5
2cb
100
AcDbEntity
  8
Shape2DView001
 62
7
100
AcDbLine
 10
18.197280
 20
79.241844
 30
0.0
 11
17.916160
 21
78.450161
 31
0.0
  0
LINE
  5
2cc
100
AcDbEntity
  8
Shape2DView001
 62
7
100
AcDbLine
 10
17.916160
 20
78.450161
 30
0.0
 11
17.475877
 21
78.450161
 31
0.0
  0
LINE
  5
2cd
100
AcDbEntity
  8
Shape2DView001
 62
7
100
AcDbLine
 10
17.475877
 20
78.450161
 30
0.0
 11
18.654099
 21
81.536279
 31
0.0
  0
LINE
  5
2ce
100
AcDbEntity
  8
Shape2DView001
 62
7
100
AcDbLine
 10
22.044073
 20
79.363802
 30
0.0
 11
22.044073
 21
80.765265
 31
0.0
  0
LINE
  5
2cf
100
AcDbEntity
  8
Shape2DView001
 62
7
100
AcDbLine
 10
22.044073
 20
80.765265
 30
0.0
 11
22.424412
 21
80.765265
 31
0.0
  0
LINE
  5
2d0
100
AcDbEntity
  8
Shape2DView001
 62
7
100
AcDbLine
 10
22.424412
 20
80.765265
 30
0.0
 11
22.424412
 21
79.378272
 31
0.0
  0
SPLINE
  5
2d1
100
AcDbEntity
  8
Shape2DView001
 62
7
100
AcDbSpline
 70
8
 71
3
 72
8
 73
4
 74
0
 40
0
 40
0
 40
0
 40
0
 40
1
 40
1
 40
1
 40
1
 10
22.424412
 20
79.378272
 30
0.0
 10
22.424412
 20
79.159163
 30
0.0
 10
22.467131
 20
78.994487
 30
0.0
 10
22.552570
 20
78.884244
 30
0.0
  0
SPLINE
  5
2d2
100
AcDbEntity
  8
Shape2DView001
 62
7
100
AcDbSpline
 70
8
 71
3
 72
8
 73
4
 74
0
 40
0
 40
0
 40
0
 40
0
 40
1
 40
1
 40
1
 40
1
 10
22.552570
 20
78.884244
 30
0.0
 10
22.638008
 20
78.775379
 30
0.0
 10
22.766165
 20
78.720946
 30
0.0
 10
22.937042
 20
78.720946
 30
0.0
  0
SPLINE
  5
2d3
100
AcDbEntity
  8
Shape2DView001
 62
7
100
AcDbSpline
 70
8
 71
3
 72
8
 73
4
 74
0
 40
0
 40
0
 40
0
 40
0
 40
1
 40
1
 40
1
 40
1
 10
22.937042
 20
78.720946
 30
0.0
 10
23.142370
 20
78.720946
 30
0.0
 10
23.304289
 20
78.786403
 30
0.0
 10
23.422801
 20
78.917317
 30
0.0
  0
SPLINE
  5
2d4
100
AcDbEntity
  8
Shape2DView001
 62
7
100
AcDbSpline
 70
8
 71
3
 72
8
 73
4
 74
0
 40
0
 40
0
 40
0
 40
0
 40
1
 40
1
 40
1
 40
1
 10
23.422801
 20
78.917317
 30
0.0
 10
23.542690
 20
79.048231
 30
0.0
 10
23.602635
 20
79.226687
 30
0.0
 10
23.602635
 20
79.452686
 30
0.0
  0
LINE
  5
2d5
100
AcDbEntity
  8
Shape2DView001
 62
7
100
AcDbLine
 10
23.602635
 20
79.452686
 30
0.0
 11
23.602635
 21
80.765265
 31
0.0
  0
LINE
  5
2d6
100
AcDbEntity
  8
Shape2DView001
 62
7
100
AcDbLine
 10
23.602635
 20
80.765265
 30
0.0
 11
23.982973
 21
80.765265
 31
0.0
  0
LINE
  5
2d7
100
AcDbEntity
  8
Shape2DView001
 62
7
100
AcDbLine
 10
23.982973
 20
80.765265
 30
0.0
 11
23.982973
 21
78.450161
 31
0.0
  0
LINE
  5
2d8
100
AcDbEntity
  8
Shape2DView001
 62
7
100
AcDbLine
 10
23.982973
 20
78.450161
 30
0.0
 11
23.602635
 21
78.450161
 31
0.0
  0
LINE
  5
2d9
100
AcDbEntity
  8
Shape2DView001
 62
7
100
AcDbLine
 10
23.602635
 20
78.450161
 30
0.0
 11
23.602635
 21
78.805695
 31
0.0
  0
SPLINE
  5
2da
100
AcDbEntity
  8
Shape2DView001
 62
7
100
AcDbSpline
 70
8
 71
3
 72
8
 73
4
 74
0
 40
0
 40
0
 40
0
 40
0
 40
1
 40
1
 40
1
 40
1
 10
23.602635
 20
78.805695
 30
0.0
 10
23.510306
 20
78.665136
 30
0.0
 10
23.402819
 20
78.560405
 30
0.0
 10
23.280174
 20
78.491502
 30
0.0
  0
SPLINE
  5
2db
100
AcDbEntity
  8
Shape2DView001
 62
7
100
AcDbSpline
 70
8
 71
3
 72
8
 73
4
 74
0
 40
0
 40
0
 40
0
 40
0
 40
1
 40
1
 40
1
 40
1
 10
23.280174
 20
78.491502
 30
0.0
 10
23.158906
 20
78.423979
 30
0.0
 10
23.017657
 20
78.390217
 30
0.0
 10
22.856427
 20
78.390217
 30
0.0
  0
SPLINE
  5
2dc
100
AcDbEntity
  8
Shape2DView001
 62
7
100
AcDbSpline
 70
8
 71
3
 72
8
 73
4
 74
0
 40
0
 40
0
 40
0
 40
0
 40
1
 40
1
 40
1
 40
1
 10
22.856427
 20
78.390217
 30
0.0
 10
22.590466
 20
78.390217
 30
0.0
 10
22.388583
 20
78.472899
 30
0.0
 10
22.250779
 20
78.638264
 30
0.0
  0
SPLINE
  5
2dd
100
AcDbEntity
  8
Shape2DView001
 62
7
100
AcDbSpline
 70
8
 71
3
 72
8
 73
4
 74
0
 40
0
 40
0
 40
0
 40
0
 40
1
 40
1
 40
1
 40
1
 10
22.250779
 20
78.638264
 30
0.0
 10
22.112975
 20
78.803628
 30
0.0
 10
22.044073
 20
79.045474
 30
0.0
 10
22.044073
 20
79.363802
 30
0.0
  0
LINE
  5
2de
100
AcDbEntity
  8
Shape2DView001
 62
7
100
AcDbLine
 10
22.044073
 20
79.363802
 30
0.0
 11
22.044073
 21
79.363802
 31
0.0
  0
LINE
  5
2df
100
AcDbEntity
  8
Shape2DView001
 62
7
100
AcDbLine
 10
23.001121
 20
80.821076
 30
0.0
 11
23.001121
 21
80.821076
 31
0.0
  0
LINE
  5
2e0
100
AcDbEntity
  8
Shape2DView001
 62
7
100
AcDbLine
 10
26.690817
 20
79.847492
 30
0.0
 11
26.690817
 21
78.450161
 31
0.0
  0
LINE
  5
2e1
100
AcDbEntity
  8
Shape2DView001
 62
7
100
AcDbLine
 10
26.690817
 20
78.450161
 30
0.0
 11
26.310480
 21
78.450161
 31
0.0
  0
LINE
  5
2e2
100
AcDbEntity
  8
Shape2DView001
 62
7
100
AcDbLine
 10
26.310480
 20
78.450161
 30
0.0
 11
26.310480
 21
79.835091
 31
0.0
  0
SPLINE
  5
2e3
100
AcDbEntity
  8
Shape2DView001
 62
7
100
AcDbSpline
 70
8
 71
3
 72
8
 73
4
 74
0
 40
0
 40
0
 40
0
 40
0
 40
1
 40
1
 40
1
 40
1
 10
26.310480
 20
79.835091
 30
0.0
 10
26.310480
 20
80.054199
 30
0.0
 10
26.267760
 20
80.218185
 30
0.0
 10
26.182322
 20
80.327049
 30
0.0
  0
SPLINE
  5
2e4
100
AcDbEntity
  8
Shape2DView001
 62
7
100
AcDbSpline
 70
8
 71
3
 72
8
 73
4
 74
0
 40
0
 40
0
 40
0
 40
0
 40
1
 40
1
 40
1
 40
1
 10
26.182322
 20
80.327049
 30
0.0
 10
26.096884
 20
80.435914
 30
0.0
 10
25.968726
 20
80.490347
 30
0.0
 10
25.797849
 20
80.490347
 30
0.0
  0
SPLINE
  5
2e5
100
AcDbEntity
  8
Shape2DView001
 62
7
100
AcDbSpline
 70
8
 71
3
 72
8
 73
4
 74
0
 40
0
 40
0
 40
0
 40
0
 40
1
 40
1
 40
1
 40
1
 10
25.797849
 20
80.490347
 30
0.0
 10
25.592522
 20
80.490347
 30
0.0
 10
25.430602
 20
80.424890
 30
0.0
 10
25.312091
 20
80.293976
 30
0.0
  0
SPLINE
  5
2e6
100
AcDbEntity
  8
Shape2DView001
 62
7
100
AcDbSpline
 70
8
 71
3
 72
8
 73
4
 74
0
 40
0
 40
0
 40
0
 40
0
 40
1
 40
1
 40
1
 40
1
 10
25.312091
 20
80.293976
 30
0.0
 10
25.193580
 20
80.163064
 30
0.0
 10
25.134324
 20
79.984608
 30
0.0
 10
25.134324
 20
79.758610
 30
0.0
  0
LINE
  5
2e7
100
AcDbEntity
  8
Shape2DView001
 62
7
100
AcDbLine
 10
25.134324
 20
79.758610
 30
0.0
 11
25.134324
 21
78.450161
 31
0.0
  0
LINE
  5
2e8
100
AcDbEntity
  8
Shape2DView001
 62
7
100
AcDbLine
 10
25.134324
 20
78.450161
 30
0.0
 11
24.751918
 21
78.450161
 31
0.0
  0
LINE
  5
2e9
100
AcDbEntity
  8
Shape2DView001
 62
7
100
AcDbLine
 10
24.751918
 20
78.450161
 30
0.0
 11
24.751918
 21
80.765265
 31
0.0
  0
LINE
  5
2ea
100
AcDbEntity
  8
Shape2DView001
 62
7
100
AcDbLine
 10
24.751918
 20
80.765265
 30
0.0
 11
25.134324
 21
80.765265
 31
0.0
  0
LINE
  5
2eb
100
AcDbEntity
  8
Shape2DView001
 62
7
100
AcDbLine
 10
25.134324
 20
80.765265
 30
0.0
 11
25.134324
 21
80.405598
 31
0.0
  0
SPLINE
  5
2ec
100
AcDbEntity
  8
Shape2DView001
 62
7
100
AcDbSpline
 70
8
 71
3
 72
8
 73
4
 74
0
 40
0
 40
0
 40
0
 40
0
 40
1
 40
1
 40
1
 40
1
 10
25.134324
 20
80.405598
 30
0.0
 10
25.225275
 20
80.544780
 30
0.0
 10
25.332073
 20
80.648822
 30
0.0
 10
25.454718
 20
80.717725
 30
0.0
  0
SPLINE
  5
2ed
100
AcDbEntity
  8
Shape2DView001
 62
7
100
AcDbSpline
 70
8
 71
3
 72
8
 73
4
 74
0
 40
0
 40
0
 40
0
 40
0
 40
1
 40
1
 40
1
 40
1
 10
25.454718
 20
80.717725
 30
0.0
 10
25.578741
 20
80.786626
 30
0.0
 10
25.721368
 20
80.821076
 30
0.0
 10
25.882599
 20
80.821076
 30
0.0
  0
SPLINE
  5
2ee
100
AcDbEntity
  8
Shape2DView001
 62
7
100
AcDbSpline
 70
8
 71
3
 72
8
 73
4
 74
0
 40
0
 40
0
 40
0
 40
0
 40
1
 40
1
 40
1
 40
1
 10
25.882599
 20
80.821076
 30
0.0
 10
26.148560
 20
80.821076
 30
0.0
 10
26.349754
 20
80.738394
 30
0.0
 10
26.486181
 20
80.573029
 30
0.0
  0
SPLINE
  5
2ef
100
AcDbEntity
  8
Shape2DView001
 62
7
100
AcDbSpline
 70
8
 71
3
 72
8
 73
4
 74
0
 40
0
 40
0
 40
0
 40
0
 40
1
 40
1
 40
1
 40
1
 10
26.486181
 20
80.573029
 30
0.0
 10
26.622605
 20
80.409042
 30
0.0
 10
26.690817
 20
80.167196
 30
0.0
 10
26.690817
 20
79.847492
 30
0.0
  0
LINE
  5
2f0
100
AcDbEntity
  8
Shape2DView001
 62
7
100
AcDbLine
 10
26.690817
 20
79.847492
 30
0.0
 11
26.690817
 21
79.847492
 31
0.0
  0
LINE
  5
2f1
100
AcDbEntity
  8
Shape2DView001
 62
7
100
AcDbLine
 10
27.449428
 20
81.666502
 30
0.0
 11
27.829767
 21
81.666502
 31
0.0
  0
LINE
  5
2f2
100
AcDbEntity
  8
Shape2DView001
 62
7
100
AcDbLine
 10
27.829767
 20
81.666502
 30
0.0
 11
27.829767
 21
78.450161
 31
0.0
  0
LINE
  5
2f3
100
AcDbEntity
  8
Shape2DView001
 62
7
100
AcDbLine
 10
27.829767
 20
78.450161
 30
0.0
 11
27.449428
 21
78.450161
 31
0.0
  0
LINE
  5
2f4
100
AcDbEntity
  8
Shape2DView001
 62
7
100
AcDbLine
 10
27.449428
 20
78.450161
 30
0.0
 11
27.449428
 21
81.666502
 31
0.0
  0
SPLINE
  5
2f5
100
AcDbEntity
  8
Shape2DView001
 62
7
100
AcDbSpline
 70
8
 71
3
 72
8
 73
4
 74
0
 40
0
 40
0
 40
0
 40
0
 40
1
 40
1
 40
1
 40
1
 10
30.428057
 20
80.320850
 30
0.0
 10
30.523143
 20
80.491726
 30
0.0
 10
30.636832
 20
80.617816
 30
0.0
 10
30.769123
 20
80.699119
 30
0.0
  0
SPLINE
  5
2f6
100
AcDbEntity
  8
Shape2DView001
 62
7
100
AcDbSpline
 70
8
 71
3
 72
8
 73
4
 74
0
 40
0
 40
0
 40
0
 40
0
 40
1
 40
1
 40
1
 40
1
 10
30.769123
 20
80.699119
 30
0.0
 10
30.901415
 20
80.780424
 30
0.0
 10
31.057133
 20
80.821076
 30
0.0
 10
31.236277
 20
80.821076
 30
0.0
  0
SPLINE
  5
2f7
100
AcDbEntity
  8
Shape2DView001
 62
7
100
AcDbSpline
 70
8
 71
3
 72
8
 73
4
 74
0
 40
0
 40
0
 40
0
 40
0
 40
1
 40
1
 40
1
 40
1
 10
31.236277
 20
80.821076
 30
0.0
 10
31.477434
 20
80.821076
 30
0.0
 10
31.663470
 20
80.736327
 30
0.0
 10
31.794384
 20
80.566828
 30
0.0
  0
SPLINE
  5
2f8
100
AcDbEntity
  8
Shape2DView001
 62
7
100
AcDbSpline
 70
8
 71
3
 72
8
 73
4
 74
0
 40
0
 40
0
 40
0
 40
0
 40
1
 40
1
 40
1
 40
1
 10
31.794384
 20
80.566828
 30
0.0
 10
31.925296
 20
80.398708
 30
0.0
 10
31.990752
 20
80.158929
 30
0.0
 10
31.990752
 20
79.847492
 30
0.0
  0
LINE
  5
2f9
100
AcDbEntity
  8
Shape2DView001
 62
7
100
AcDbLine
 10
31.990752
 20
79.847492
 30
0.0
 11
31.990752
 21
78.450161
 31
0.0
  0
LINE
  5
2fa
100
AcDbEntity
  8
Shape2DView001
 62
7
100
AcDbLine
 10
31.990752
 20
78.450161
 30
0.0
 11
31.608347
 21
78.450161
 31
0.0
  0
LINE
  5
2fb
100
AcDbEntity
  8
Shape2DView001
 62
7
100
AcDbLine
 10
31.608347
 20
78.450161
 30
0.0
 11
31.608347
 21
79.835091
 31
0.0
  0
SPLINE
  5
2fc
100
AcDbEntity
  8
Shape2DView001
 62
7
100
AcDbSpline
 70
8
 71
3
 72
8
 73
4
 74
0
 40
0
 40
0
 40
0
 40
0
 40
1
 40
1
 40
1
 40
1
 10
31.608347
 20
79.835091
 30
0.0
 10
31.608347
 20
80.056954
 30
0.0
 10
31.569074
 20
80.221630
 30
0.0
 10
31.490526
 20
80.329118
 30
0.0
  0
SPLINE
  5
2fd
100
AcDbEntity
  8
Shape2DView001
 62
7
100
AcDbSpline
 70
8
 71
3
 72
8
 73
4
 74
0
 40
0
 40
0
 40
0
 40
0
 40
1
 40
1
 40
1
 40
1
 10
31.490526
 20
80.329118
 30
0.0
 10
31.411978
 20
80.436604
 30
0.0
 10
31.292088
 20
80.490347
 30
0.0
 10
31.130856
 20
80.490347
 30
0.0
  0
SPLINE
  5
2fe
100
AcDbEntity
  8
Shape2DView001
 62
7
100
AcDbSpline
 70
8
 71
3
 72
8
 73
4
 74
0
 40
0
 40
0
 40
0
 40
0
 40
1
 40
1
 40
1
 40
1
 10
31.130856
 20
80.490347
 30
0.0
 10
30.933798
 20
80.490347
 30
0.0
 10
30.778080
 20
80.424890
 30
0.0
 10
30.663703
 20
80.293976
 30
0.0
  0
SPLINE
  5
2ff
100
AcDbEntity
  8
Shape2DView001
 62
7
100
AcDbSpline
 70
8
 71
3
 72
8
 73
4
 74
0
 40
0
 40
0
 40
0
 40
0
 40
1
 40
1
 40
1
 40
1
 10
30.663703
 20
80.293976
 30
0.0
 10
30.549325
 20
80.163064
 30
0.0
 10
30.492136
 20
79.984608
 30
0.0
 10
30.492136
 20
79.758610
 30
0.0
  0
LINE
  5
300
100
AcDbEntity
  8
Shape2DView001
 62
7
100
AcDbLine
 10
30.492136
 20
79.758610
 30
0.0
 11
30.492136
 21
78.450161
 31
0.0
  0
LINE
  5
301
100
AcDbEntity
  8
Shape2DView001
 62
7
100
AcDbLine
 10
30.492136
 20
78.450161
 30
0.0
 11
30.109731
 21
78.450161
 31
0.0
  0
LINE
  5
302
100
AcDbEntity
  8
Shape2DView001
 62
7
100
AcDbLine
 10
30.109731
 20
78.450161
 30
0.0
 11
30.109731
 21
79.835091
 31
0.0
  0
SPLINE
  5
303
100
AcDbEntity
  8
Shape2DView001
 62
7
100
AcDbSpline
 70
8
 71
3
 72
8
 73
4
 74
0
 40
0
 40
0
 40
0
 40
0
 40
1
 40
1
 40
1
 40
1
 10
30.109731
 20
79.835091
 30
0.0
 10
30.109731
 20
80.058332
 30
0.0
 10
30.070458
 20
80.223008
 30
0.0
 10
29.991910
 20
80.329118
 30
0.0
  0
SPLINE
  5
304
100
AcDbEntity
  8
Shape2DView001
 62
7
100
AcDbSpline
 70
8
 71
3
 72
8
 73
4
 74
0
 40
0
 40
0
 40
0
 40
0
 40
1
 40
1
 40
1
 40
1
 10
29.991910
 20
80.329118
 30
0.0
 10
29.913360
 20
80.436604
 30
0.0
 10
29.792093
 20
80.490347
 30
0.0
 10
29.628108
 20
80.490347
 30
0.0
  0
SPLINE
  5
305
100
AcDbEntity
  8
Shape2DView001
 62
7
100
AcDbSpline
 70
8
 71
3
 72
8
 73
4
 74
0
 40
0
 40
0
 40
0
 40
0
 40
1
 40
1
 40
1
 40
1
 10
29.628108
 20
80.490347
 30
0.0
 10
29.433803
 20
80.490347
 30
0.0
 10
29.279463
 20
80.424201
 30
0.0
 10
29.165087
 20
80.291910
 30
0.0
  0
SPLINE
  5
306
100
AcDbEntity
  8
Shape2DView001
 62
7
100
AcDbSpline
 70
8
 71
3
 72
8
 73
4
 74
0
 40
0
 40
0
 40
0
 40
0
 40
1
 40
1
 40
1
 40
1
 10
29.165087
 20
80.291910
 30
0.0
 10
29.050709
 20
80.160996
 30
0.0
 10
28.993521
 20
79.983229
 30
0.0
 10
28.993521
 20
79.758610
 30
0.0
  0
LINE
  5
307
100
AcDbEntity
  8
Shape2DView001
 62
7
100
AcDbLine
 10
28.993521
 20
79.758610
 30
0.0
 11
28.993521
 21
78.450161
 31
0.0
  0
LINE
  5
308
100
AcDbEntity
  8
Shape2DView001
 62
7
100
AcDbLine
 10
28.993521
 20
78.450161
 30
0.0
 11
28.611116
 21
78.450161
 31
0.0
  0
LINE
  5
309
100
AcDbEntity
  8
Shape2DView001
 62
7
100
AcDbLine
 10
28.611116
 20
78.450161
 30
0.0
 11
28.611116
 21
80.765265
 31
0.0
  0
LINE
  5
30a
100
AcDbEntity
  8
Shape2DView001
 62
7
100
AcDbLine
 10
28.611116
 20
80.765265
 30
0.0
 11
28.993521
 21
80.765265
 31
0.0
  0
LINE
  5
30b
100
AcDbEntity
  8
Shape2DView001
 62
7
100
AcDbLine
 10
28.993521
 20
80.765265
 30
0.0
 11
28.993521
 21
80.405598
 31
0.0
  0
SPLINE
  5
30c
100
AcDbEntity
  8
Shape2DView001
 62
7
100
AcDbSpline
 70
8
 71
3
 72
8
 73
4
 74
0
 40
0
 40
0
 40
0
 40
0
 40
1
 40
1
 40
1
 40
1
 10
28.993521
 20
80.405598
 30
0.0
 10
29.080337
 20
80.547537
 30
0.0
 10
29.184380
 20
80.652268
 30
0.0
 10
29.305647
 20
80.719791
 30
0.0
  0
SPLINE
  5
30d
100
AcDbEntity
  8
Shape2DView001
 62
7
100
AcDbSpline
 70
8
 71
3
 72
8
 73
4
 74
0
 40
0
 40
0
 40
0
 40
0
 40
1
 40
1
 40
1
 40
1
 10
29.305647
 20
80.719791
 30
0.0
 10
29.426914
 20
80.787315
 30
0.0
 10
29.570919
 20
80.821076
 30
0.0
 10
29.737661
 20
80.821076
 30
0.0
  0
SPLINE
  5
30e
100
AcDbEntity
  8
Shape2DView001
 62
7
100
AcDbSpline
 70
8
 71
3
 72
8
 73
4
 74
0
 40
0
 40
0
 40
0
 40
0
 40
1
 40
1
 40
1
 40
1
 10
29.737661
 20
80.821076
 30
0.0
 10
29.905781
 20
80.821076
 30
0.0
 10
30.048408
 20
80.778358
 30
0.0
 10
30.165543
 20
80.692920
 30
0.0
  0
SPLINE
  5
30f
100
AcDbEntity
  8
Shape2DView001
 62
7
100
AcDbSpline
 70
8
 71
3
 72
8
 73
4
 74
0
 40
0
 40
0
 40
0
 40
0
 40
1
 40
1
 40
1
 40
1
 10
30.165543
 20
80.692920
 30
0.0
 10
30.284053
 20
80.607481
 30
0.0
 10
30.371558
 20
80.483457
 30
0.0
 10
30.428057
 20
80.320850
 30
0.0
  0
LINE
  5
310
100
AcDbEntity
  8
Shape2DView001
 62
7
100
AcDbLine
 10
30.428057
 20
80.320850
 30
0.0
 11
30.428057
 21
80.320850
 31
0.0
  0
LINE
  5
311
100
AcDbEntity
  8
Shape2DView001
 62
7
100
AcDbLine
 10
33.125569
 20
81.422591
 30
0.0
 11
33.125569
 21
80.765265
 31
0.0
  0
LINE
  5
312
100
AcDbEntity
  8
Shape2DView001
 62
7
100
AcDbLine
 10
33.125569
 20
80.765265
 30
0.0
 11
33.908981
 21
80.765265
 31
0.0
  0
LINE
  5
313
100
AcDbEntity
  8
Shape2DView001
 62
7
100
AcDbLine
 10
33.908981
 20
80.765265
 30
0.0
 11
33.908981
 21
80.469678
 31
0.0
  0
LINE
  5
314
100
AcDbEntity
  8
Shape2DView001
 62
7
100
AcDbLine
 10
33.908981
 20
80.469678
 30
0.0
 11
33.125569
 21
80.469678
 31
0.0
  0
LINE
  5
315
100
AcDbEntity
  8
Shape2DView001
 62
7
100
AcDbLine
 10
33.125569
 20
80.469678
 30
0.0
 11
33.125569
 21
79.212907
 31
0.0
  0
SPLINE
  5
316
100
AcDbEntity
  8
Shape2DView001
 62
7
100
AcDbSpline
 70
8
 71
3
 72
8
 73
4
 74
0
 40
0
 40
0
 40
0
 40
0
 40
1
 40
1
 40
1
 40
1
 10
33.125569
 20
79.212907
 30
0.0
 10
33.125569
 20
79.024114
 30
0.0
 10
33.151062
 20
78.902847
 30
0.0
 10
33.202049
 20
78.849105
 30
0.0
  0
SPLINE
  5
317
100
AcDbEntity
  8
Shape2DView001
 62
7
100
AcDbSpline
 70
8
 71
3
 72
8
 73
4
 74
0
 40
0
 40
0
 40
0
 40
0
 40
1
 40
1
 40
1
 40
1
 10
33.202049
 20
78.849105
 30
0.0
 10
33.254414
 20
78.795361
 30
0.0
 10
33.359833
 20
78.768489
 30
0.0
 10
33.518308
 20
78.768489
 30
0.0
  0
LINE
  5
318
100
AcDbEntity
  8
Shape2DView001
 62
7
100
AcDbLine
 10
33.518308
 20
78.768489
 30
0.0
 11
33.908981
 21
78.768489
 31
0.0
  0
LINE
  5
319
100
AcDbEntity
  8
Shape2DView001
 62
7
100
AcDbLine
 10
33.908981
 20
78.768489
 30
0.0
 11
33.908981
 21
78.450161
 31
0.0
  0
LINE
  5
31a
100
AcDbEntity
  8
Shape2DView001
 62
7
100
AcDbLine
 10
33.908981
 20
78.450161
 30
0.0
 11
33.518308
 21
78.450161
 31
0.0
  0
SPLINE
  5
31b
100
AcDbEntity
  8
Shape2DView001
 62
7
100
AcDbSpline
 70
8
 71
3
 72
8
 73
4
 74
0
 40
0
 40
0
 40
0
 40
0
 40
1
 40
1
 40
1
 40
1
 10
33.518308
 20
78.450161
 30
0.0
 10
33.224787
 20
78.450161
 30
0.0
 10
33.022215
 20
78.504594
 30
0.0
 10
32.910595
 20
78.613459
 30
0.0
  0
SPLINE
  5
31c
100
AcDbEntity
  8
Shape2DView001
 62
7
100
AcDbSpline
 70
8
 71
3
 72
8
 73
4
 74
0
 40
0
 40
0
 40
0
 40
0
 40
1
 40
1
 40
1
 40
1
 10
32.910595
 20
78.613459
 30
0.0
 10
32.798972
 20
78.723702
 30
0.0
 10
32.743161
 20
78.923518
 30
0.0
 10
32.743161
 20
79.212907
 30
0.0
  0
LINE
  5
31d
100
AcDbEntity
  8
Shape2DView001
 62
7
100
AcDbLine
 10
32.743161
 20
79.212907
 30
0.0
 11
32.743161
 21
80.469678
 31
0.0
  0
LINE
  5
31e
100
AcDbEntity
  8
Shape2DView001
 62
7
100
AcDbLine
 10
32.743161
 20
80.469678
 30
0.0
 11
32.464110
 21
80.469678
 31
0.0
  0
LINE
  5
31f
100
AcDbEntity
  8
Shape2DView001
 62
7
100
AcDbLine
 10
32.464110
 20
80.469678
 30
0.0
 11
32.464110
 21
80.765265
 31
0.0
  0
LINE
  5
320
100
AcDbEntity
  8
Shape2DView001
 62
7
100
AcDbLine
 10
32.464110
 20
80.765265
 30
0.0
 11
32.743161
 21
80.765265
 31
0.0
  0
LINE
  5
321
100
AcDbEntity
  8
Shape2DView001
 62
7
100
AcDbLine
 10
32.743161
 20
80.765265
 30
0.0
 11
32.743161
 21
81.422591
 31
0.0
  0
LINE
  5
322
100
AcDbEntity
  8
Shape2DView001
 62
7
100
AcDbLine
 10
32.743161
 20
81.422591
 30
0.0
 11
33.125569
 21
81.422591
 31
0.0
  0
LINE
  5
323
100
AcDbEntity
  8
Shape2DView001
 62
7
100
AcDbLine
 10
35.932631
 20
80.413867
 30
0.0
 11
35.932631
 21
81.666502
 31
0.0
  0
LINE
  5
324
100
AcDbEntity
  8
Shape2DView001
 62
7
100
AcDbLine
 10
35.932631
 20
81.666502
 30
0.0
 11
36.312970
 21
81.666502
 31
0.0
  0
LINE
  5
325
100
AcDbEntity
  8
Shape2DView001
 62
7
100
AcDbLine
 10
36.312970
 20
81.666502
 30
0.0
 11
36.312970
 21
78.450161
 31
0.0
  0
LINE
  5
326
100
AcDbEntity
  8
Shape2DView001
 62
7
100
AcDbLine
 10
36.312970
 20
78.450161
 30
0.0
 11
35.932631
 21
78.450161
 31
0.0
  0
LINE
  5
327
100
AcDbEntity
  8
Shape2DView001
 62
7
100
AcDbLine
 10
35.932631
 20
78.450161
 30
0.0
 11
35.932631
 21
78.797427
 31
0.0
  0
SPLINE
  5
328
100
AcDbEntity
  8
Shape2DView001
 62
7
100
AcDbSpline
 70
8
 71
3
 72
8
 73
4
 74
0
 40
0
 40
0
 40
0
 40
0
 40
1
 40
1
 40
1
 40
1
 10
35.932631
 20
78.797427
 30
0.0
 10
35.852706
 20
78.659623
 30
0.0
 10
35.751420
 20
78.556959
 30
0.0
 10
35.628773
 20
78.489436
 30
0.0
  0
SPLINE
  5
329
100
AcDbEntity
  8
Shape2DView001
 62
7
100
AcDbSpline
 70
8
 71
3
 72
8
 73
4
 74
0
 40
0
 40
0
 40
0
 40
0
 40
1
 40
1
 40
1
 40
1
 10
35.628773
 20
78.489436
 30
0.0
 10
35.507506
 20
78.423290
 30
0.0
 10
35.361434
 20
78.390217
 30
0.0
 10
35.190557
 20
78.390217
 30
0.0
  0
SPLINE
  5
32a
100
AcDbEntity
  8
Shape2DView001
 62
7
100
AcDbSpline
 70
8
 71
3
 72
8
 73
4
 74
0
 40
0
 40
0
 40
0
 40
0
 40
1
 40
1
 40
1
 40
1
 10
35.190557
 20
78.390217
 30
0.0
 10
34.910817
 20
78.390217
 30
0.0
 10
34.682752
 20
78.501838
 30
0.0
 10
34.506363
 20
78.725081
 30
0.0
  0
SPLINE
  5
32b
100
AcDbEntity
  8
Shape2DView001
 62
7
100
AcDbSpline
 70
8
 71
3
 72
8
 73
4
 74
0
 40
0
 40
0
 40
0
 40
0
 40
1
 40
1
 40
1
 40
1
 10
34.506363
 20
78.725081
 30
0.0
 10
34.331352
 20
78.948323
 30
0.0
 10
34.243846
 20
79.241844
 30
0.0
 10
34.243846
 20
79.605647
 30
0.0
  0
SPLINE
  5
32c
100
AcDbEntity
  8
Shape2DView001
 62
7
100
AcDbSpline
 70
8
 71
3
 72
8
 73
4
 74
0
 40
0
 40
0
 40
0
 40
0
 40
1
 40
1
 40
1
 40
1
 10
34.243846
 20
79.605647
 30
0.0
 10
34.243846
 20
79.969449
 30
0.0
 10
34.331352
 20
80.262971
 30
0.0
 10
34.506363
 20
80.486214
 30
0.0
  0
SPLINE
  5
32d
100
AcDbEntity
  8
Shape2DView001
 62
7
100
AcDbSpline
 70
8
 71
3
 72
8
 73
4
 74
0
 40
0
 40
0
 40
0
 40
0
 40
1
 40
1
 40
1
 40
1
 10
34.506363
 20
80.486214
 30
0.0
 10
34.682752
 20
80.709456
 30
0.0
 10
34.910817
 20
80.821076
 30
0.0
 10
35.190557
 20
80.821076
 30
0.0
  0
SPLINE
  5
32e
100
AcDbEntity
  8
Shape2DView001
 62
7
100
AcDbSpline
 70
8
 71
3
 72
8
 73
4
 74
0
 40
0
 40
0
 40
0
 40
0
 40
1
 40
1
 40
1
 40
1
 10
35.190557
 20
80.821076
 30
0.0
 10
35.361434
 20
80.821076
 30
0.0
 10
35.507506
 20
80.787315
 30
0.0
 10
35.628773
 20
80.719791
 30
0.0
  0
SPLINE
  5
32f
100
AcDbEntity
  8
Shape2DView001
 62
7
100
AcDbSpline
 70
8
 71
3
 72
8
 73
4
 74
0
 40
0
 40
0
 40
0
 40
0
 40
1
 40
1
 40
1
 40
1
 10
35.628773
 20
80.719791
 30
0.0
 10
35.751420
 20
80.653645
 30
0.0
 10
35.852706
 20
80.551670
 30
0.0
 10
35.932631
 20
80.413867
 30
0.0
  0
LINE
  5
330
100
AcDbEntity
  8
Shape2DView001
 62
7
100
AcDbLine
 10
35.932631
 20
80.413867
 30
0.0
 11
35.932631
 21
80.413867
 31
0.0
  0
SPLINE
  5
331
100
AcDbEntity
  8
Shape2DView001
 62
7
100
AcDbSpline
 70
8
 71
3
 72
8
 73
4
 74
0
 40
0
 40
0
 40
0
 40
0
 40
1
 40
1
 40
1
 40
1
 10
34.636586
 20
79.605647
 30
0.0
 10
34.636586
 20
79.325904
 30
0.0
 10
34.693774
 20
79.106107
 30
0.0
 10
34.808152
 20
78.946255
 30
0.0
  0
SPLINE
  5
332
100
AcDbEntity
  8
Shape2DView001
 62
7
100
AcDbSpline
 70
8
 71
3
 72
8
 73
4
 74
0
 40
0
 40
0
 40
0
 40
0
 40
1
 40
1
 40
1
 40
1
 10
34.808152
 20
78.946255
 30
0.0
 10
34.923907
 20
78.787782
 30
0.0
 10
35.082382
 20
78.708545
 30
0.0
 10
35.283577
 20
78.708545
 30
0.0
  0
SPLINE
  5
333
100
AcDbEntity
  8
Shape2DView001
 62
7
100
AcDbSpline
 70
8
 71
3
 72
8
 73
4
 74
0
 40
0
 40
0
 40
0
 40
0
 40
1
 40
1
 40
1
 40
1
 10
35.283577
 20
78.708545
 30
0.0
 10
35.484769
 20
78.708545
 30
0.0
 10
35.643243
 20
78.787782
 30
0.0
 10
35.758998
 20
78.946255
 30
0.0
  0
SPLINE
  5
334
100
AcDbEntity
  8
Shape2DView001
 62
7
100
AcDbSpline
 70
8
 71
3
 72
8
 73
4
 74
0
 40
0
 40
0
 40
0
 40
0
 40
1
 40
1
 40
1
 40
1
 10
35.758998
 20
78.946255
 30
0.0
 10
35.874754
 20
79.106107
 30
0.0
 10
35.932631
 20
79.325904
 30
0.0
 10
35.932631
 20
79.605647
 30
0.0
  0
SPLINE
  5
335
100
AcDbEntity
  8
Shape2DView001
 62
7
100
AcDbSpline
 70
8
 71
3
 72
8
 73
4
 74
0
 40
0
 40
0
 40
0
 40
0
 40
1
 40
1
 40
1
 40
1
 10
35.932631
 20
79.605647
 30
0.0
 10
35.932631
 20
79.885389
 30
0.0
 10
35.874754
 20
80.104497
 30
0.0
 10
35.758998
 20
80.262972
 30
0.0
  0
SPLINE
  5
336
100
AcDbEntity
  8
Shape2DView001
 62
7
100
AcDbSpline
 70
8
 71
3
 72
8
 73
4
 74
0
 40
0
 40
0
 40
0
 40
0
 40
1
 40
1
 40
1
 40
1
 10
35.758998
 20
80.262972
 30
0.0
 10
35.643243
 20
80.422825
 30
0.0
 10
35.484769
 20
80.502751
 30
0.0
 10
35.283577
 20
80.502751
 30
0.0
  0
SPLINE
  5
337
100
AcDbEntity
  8
Shape2DView001
 62
7
100
AcDbSpline
 70
8
 71
3
 72
8
 73
4
 74
0
 40
0
 40
0
 40
0
 40
0
 40
1
 40
1
 40
1
 40
1
 10
35.283577
 20
80.502751
 30
0.0
 10
35.082382
 20
80.502751
 30
0.0
 10
34.923907
 20
80.422825
 30
0.0
 10
34.808152
 20
80.262972
 30
0.0
  0
SPLINE
  5
338
100
AcDbEntity
  8
Shape2DView001
 62
7
100
AcDbSpline
 70
8
 71
3
 72
8
 73
4
 74
0
 40
0
 40
0
 40
0
 40
0
 40
1
 40
1
 40
1
 40
1
 10
34.808152
 20
80.262972
 30
0.0
 10
34.693774
 20
80.104497
 30
0.0
 10
34.636586
 20
79.885389
 30
0.0
 10
34.636586
 20
79.605647
 30
0.0
  0
LINE
  5
339
100
AcDbEntity
  8
Shape2DView001
 62
7
100
AcDbLine
 10
34.636586
 20
79.605647
 30
0.0
 11
34.636586
 21
79.605647
 31
0.0
  0
SPLINE
  5
33a
100
AcDbEntity
  8
Shape2DView001
 62
7
100
AcDbSpline
 70
8
 71
3
 72
8
 73
4
 74
0
 40
0
 40
0
 40
0
 40
0
 40
1
 40
1
 40
1
 40
1
 10
16.850633
 20
73.057164
 30
0.0
 10
16.850633
 20
71.628098
 30
0.0
 10
17.613030
 20
70.307586
 30
0.0
 10
18.850638
 20
69.593053
 30
0.0
  0
SPLINE
  5
33b
100
AcDbEntity
  8
Shape2DView001
 62
7
100
AcDbSpline
 70
8
 71
3
 72
8
 73
4
 74
0
 40
0
 40
0
 40
0
 40
0
 40
1
 40
1
 40
1
 40
1
 10
18.850638
 20
69.593053
 30
0.0
 10
20.088245
 20
68.878520
 30
0.0
 10
21.613041
 20
68.878520
 30
0.0
 10
22.850648
 20
69.593053
 30
0.0
  0
SPLINE
  5
33c
100
AcDbEntity
  8
Shape2DView001
 62
7
100
AcDbSpline
 70
8
 71
3
 72
8
 73
4
 74
0
 40
0
 40
0
 40
0
 40
0
 40
1
 40
1
 40
1
 40
1
 10
22.850648
 20
69.593053
 30
0.0
 10
24.088256
 20
70.307586
 30
0.0
 10
24.850654
 20
71.628098
 30
0.0
 10
24.850654
 20
73.057164
 30
0.0
  0
SPLINE
  5
33d
100
AcDbEntity
  8
Shape2DView001
 62
7
100
AcDbSpline
 70
8
 71
3
 72
8
 73
4
 74
0
 40
0
 40
0
 40
0
 40
0
 40
1
 40
1
 40
1
 40
1
 10
24.850654
 20
73.057164
 30
0.0
 10
24.850654
 20
74.486230
 30
0.0
 10
24.088256
 20
75.806742
 30
0.0
 10
22.850648
 20
76.521275
 30
0.0
  0
SPLINE
  5
33e
100
AcDbEntity
  8
Shape2DView001
 62
7
100
AcDbSpline
 70
8
 71
3
 72
8
 73
4
 74
0
 40
0
 40
0
 40
0
 40
0
 40
1
 40
1
 40
1
 40
1
 10
22.850648
 20
76.521275
 30
0.0
 10
21.613041
 20
77.235808
 30
0.0
 10
20.088245
 20
77.235808
 30
0.0
 10
18.850638
 20
76.521275
 30
0.0
  0
SPLINE
  5
33f
100
AcDbEntity
  8
Shape2DView001
 62
7
100
AcDbSpline
 70
8
 71
3
 72
8
 73
4
 74
0
 40
0
 40
0
 40
0
 40
0
 40
1
 40
1
 40
1
 40
1
 10
18.850638
 20
76.521275
 30
0.0
 10
17.613030
 20
75.806742
 30
0.0
 10
16.850633
 20
74.486230
 30
0.0
 10
16.850633
 20
73.057164
 30
0.0
  0
LINE
  5
340
100
AcDbEntity
  8
Shape2DView001
 62
7
100
AcDbLine
 10
16.850633
 20
73.057164
 30
0.0
 11
16.850633
 21
73.057164
 31
0.0
  0
ENDSEC
  0
SECTION
  2
OBJECTS
  0
DICTIONARY
  5
C
330
0
100
AcDbDictionary
  3
ACAD_GROUP
350
D
  3
ACAD_MLINESTYLE
350
17
  0
DICTIONARY
  5
D
330
C
100
AcDbDictionary
  0
DICTIONARY
  5
1A
330
C
100
AcDbDictionary
  0
DICTIONARY
  5
17
330
C
100
AcDbDictionary
  3
STANDARD
350
18
  0
DICTIONARY
  5
19
330
C
100
AcDbDictionary
  0
ENDSEC
  0
EOF
