<svg xmlns="http://www.w3.org/2000/svg" id="tb" width="12.972222222222221in" height="12.972222222222221in" viewBox="-467,-467,934,934"><g fill="none" stroke="blue" stroke-width="0.5"><path d="M-121.10470442299197,198.42519685039363L-127.65159480112162,209.763779527559L-138.6171301950695,209.76377952755897L-141.65852564065017,207.72838184208888L-145.26231050952393,205.22446163859237L-148.8218470714289,202.65802807602674L-152.33605105704632,200.02986291491678L-154.40539409919901,198.42519685039363Z"/><path d="M-108.0109236667327,175.7480314960629L-114.55781404486234,187.08661417322827L-167.96519554236693,187.08661417322827L-169.1901176653246,185.99172721873688L-172.41035240830718,183.0106250791433L-175.57806928776958,179.9737761302868L-178.69230338646398,176.882105425776L-179.79546235161664,175.7480314960629Z"/><path d="M-94.91714291047343,153.0708661417322L-101.46403328860305,164.40944881889757L-190.22512904818743,164.40944881889754L-190.59568985939694,163.98628453756734L-193.42861650055,160.63495518752626L-196.20262291133193,157.23469487402934L-198.91686410251756,153.78653934930708L-199.46025334756715,153.07086614173218Z"/><path d="M-81.82336215421414,130.39370078740146L-88.37025253234374,141.73228346456682L-207.66698576377755,141.7322834645668L-209.1599193134102,139.53618406070572L-211.56330544154497,135.86458810176762L-213.90224733738248,132.15160647314383L-214.96722156840283,130.39370078740146Z"/><path d="M-68.72958139795483,107.71653543307075L-75.27647177608448,119.05511811023611L-221.44828184728908,119.0551181102361L-222.5996222807457,116.90862530149244L-224.60605612487257,113.00592047077005L-226.5440727884961,109.06879294195934L-227.18063658050522,107.71653543307075Z"/><path d="M-232.22146638923024,96.37795275590538L-233.60047720440775,93.00019117877335L-235.1879758554572,88.9091363270856L-236.61241024190744,85.03937007874005L-85.37804204904059,85.03937007874005L-84.1732560985479,86.23604466073495L-82.6554096029789,87.69193637002085L-81.11238546894391,89.12111626599759L-79.54465371654177,90.52314900662405L-77.95269189205119,91.89760751914568L-76.33698492246562,93.24407313018484L-74.69802496777967,94.56213569327296L-73.03631127107253,95.85139371378492L-72.33261105246682,96.37795275590538Z"/><path d="M-240.37909157506684,73.70078740157467L-240.8170576005928,72.28667427685542L-242.04195641577581,68.07282749995846L-243.1931269063215,63.83824508036875L-243.56685046211834,62.36220472440932L-103.10987014012059,62.36220472440933L-102.53533805249842,63.311111911100376L-101.4147901668031,65.0909577159785L-100.26335035359584,66.85097618458607L-99.081369352598,68.59063119824788L-97.8692072066726,70.30939284119434L-96.62723315215173,72.00673756197897L-95.35582550636369,73.68214833295731L-95.34116141555988,73.70078740157469Z"/><path d="M-246.20074281895046,51.023622047243975L-246.20087477912236,51.02301213580333L-247.05385153884126,46.718443352059595L-247.83157330211702,42.39964367789911L-248.27164754755702,39.68503937007863L-113.77956556213991,39.68503937007862L-113.45781523147016,40.60931671256708L-112.73180475625706,42.58324362184193L-111.97145508125769,44.544199262596415L-111.17699781634873,46.491586308746164L-110.34867496090914,48.42481156733217L-109.48673883010484,50.34328615921308L-109.16669094975116,51.023622047243975Z"/><path d="M-249.82240980536977,28.346456692913264L-250.18551767650203,25.00850364088419L-250.58387178028812,20.638355385435833L-250.85100736869427,17.00787401574791L-119.29562781850512,17.00787401574791L-119.12189853064635,18.214437444357166L-118.78586992321486,20.290627086048442L-118.4136579891002,22.360636006169592L-118.00537610766321,24.42383365995092L-117.56114864552008,26.47959157740043L-117.12350192114782,28.346456692913264Z"/><path d="M-251.35910263262434,5.669291338582553L-251.41312095849875,3.1082341164542977L-251.42907568753256,-1.2800032532903007L-251.36844268446382,-5.667850721644276L-251.36839762052037,-5.669291338582802L-120.36859682122831,-5.669291338582801L-120.4087722516835,-4.849742859391086L-120.475073095955,-2.7475813881126823L-120.50467606589322,-0.6445829769270407L-120.49757214414677,1.4586117804775884L-120.45376349463902,3.5613622306039945L-120.37326346190899,5.663027855295269L-120.37291398874592,5.669291338582554Z"/><path d="M-250.84713014556675,-17.007874015748158L-250.72731858260838,-18.81569094640488L-250.36075251176823,-23.1886202943718L-249.91792413041395,-27.554486163963844L-249.82360392518683,-28.34645669291351L-117.12106400138589,-28.346456692913517L-117.2711494049764,-27.735716291376153L-117.73734343445273,-25.684828244660995L-118.16767352857167,-23.626116350447994L-118.56200860461786,-21.56020771232332L-118.9202285443071,-19.487731626071053L-119.24222423037563,-17.409319387983587L-119.29726161715644,-17.007874015748158Z"/><path d="M-248.27428324182765,-39.68503937007887L-248.13332991901018,-40.59641723993711L-247.38703283743382,-44.920757933341385L-246.5653792691632,-49.23141532872201L-246.19123920641326,-51.023622047244224L-109.16748924391304,-51.023622047244224L-109.82432392847093,-49.60252326862306L-110.67328054838937,-47.67826982617449L-111.48852501493664,-45.73949312086712L-112.26980899675077,-43.786783722866694L-113.01689450716242,-41.82073644637219L-113.72955397668795,-39.841950168429555L-113.78299055441542,-39.685039370078876Z"/><path d="M-243.5732578256956,-62.36220472440958L-242.53054846683207,-66.311021480543L-241.33632299142764,-70.53366369608727L-240.3806134552343,-73.70078740157493L-95.33585293056423,-73.70078740157493L-95.85139371378621,-73.03631127107084L-97.11145447123961,-71.35235000643188L-98.3419341389213,-69.64665412477522L-99.54245790080456,-67.91974319758987L-100.71266006572179,-66.1721432586732L-101.85218417875757,-64.404386643896L-102.96068312982821,-62.617011829047776L-103.11261767369899,-62.36220472440957Z"/><path d="M-236.60456364236964,-85.03937007874029L-235.82826017844866,-87.19661811458822L-234.27055157287128,-91.29910829333475L-232.64148188785504,-95.3737878792608L-232.21954130571427,-96.37795275590565L-72.33522942078393,-96.37795275590565L-73.68214833295902,-95.35582550636238L-75.3351148077801,-94.05537155239244L-76.9651334768431,-92.72626742111282L-78.57170782067107,-91.3689179705172L-80.15434846115564,-89.98373666239718L-81.71257331062631,-88.57114543639774L-83.24590771869913,-87.13157458149045L-84.7538846168596,-85.66546260490311L-85.37576189865358,-85.03937007874029Z"/><path d="M-227.18720014087035,-107.71653543307099L-225.42183980041887,-111.36971154856111L-223.44383749161355,-115.28690297009804L-221.45778183211542,-119.05511811023636L-75.27647177608459,-119.05511811023635L-68.72958139795493,-107.716535433071Z"/><path d="M-214.97613424819158,-130.3937007874017L-214.85753171365693,-130.59272405203257L-212.54565057298308,-134.32261511719759L-210.16902596816874,-138.01159021258553L-207.7283818420914,-141.65852564064645L-207.6771346916099,-141.73228346456708L-88.3702525323439,-141.73228346456708L-81.82336215421424,-130.3937007874017Z"/><path d="M-199.46005268718935,-153.07086614173244L-197.3407667198329,-155.80385200579576L-194.5915586155205,-159.22419359192202L-191.78307603740308,-162.59603394624077L-190.21823748932687,-164.4094488188978L-101.46403328860319,-164.40944881889777L-94.91714291047354,-153.07086614173247Z"/><path d="M-179.8050453401145,-175.74803149606313L-176.88210542577917,-178.69230338646082L-173.73655471846024,-181.75210607851255L-170.5380821735503,-184.7565453183806L-167.96912354345704,-187.08661417322853L-114.55781404486251,-187.08661417322853L-108.01092366673288,-175.7480314960632Z"/><path d="M-154.41115044033327,-198.42519685039386L-153.7865393493106,-198.91686410251484L-150.29153895493891,-201.570513289944L-146.75075830189476,-204.1627621463676L-143.16527594626533,-206.69282104767237L-139.53618406070947,-209.1599193134077L-138.6136811403144,-209.76377952755925L-127.65159480112177,-209.76377952755925L-121.10470442299217,-198.4251968503939Z"/></g><g fill="none" stroke="blue" stroke-width="0.5"><path d="M197.64824718997417,-330.9994902515492L201.73726006428862,-338.08177695887963L207.60687508296985,-334.50948481052694L209.77470851957298,-333.1377125644753Z"/><path d="M182.84656617329435,-305.36255734554743L190.24740668163415,-318.1810237985483L223.55701639687982,-324.054406708215L224.82923083585055,-323.1857468572521L230.43535726389925,-319.2127129870914L235.97129084984786,-315.14244383227174L236.41074388885332,-314.8073670762636Z"/><path d="M168.0448851566145,-279.7256244395457L175.4457256649545,-292.5440908925466L248.4178000823032,-305.4110364505911L252.14118154751998,-302.3607689131323L257.3797022540586,-297.91424752356534L259.6878051005232,-295.88474381656266Z"/><path d="M153.24320413993462,-254.08869153354382L160.6440446482746,-266.90715798654475L270.2822610765497,-286.23933365960374L272.61859933978417,-284.0357535662267L277.53418562060483,-279.2346429471596L280.2537257046353,-276.48407331925483Z"/><path d="M138.44152312325477,-228.45175862754203L145.8423636315947,-241.27022508054296L289.64734551866286,-266.6269233475251L291.7678467195907,-264.3269445791205L296.33655033244617,-259.19463525888347L298.50207797461576,-256.67475299500416Z"/><path d="M306.85167319690794,-246.63351331922837L309.4956304785808,-243.33036128807638L313.6951931587137,-237.89185736177967L314.7254683252088,-236.50837724945822L159.1543644447304,-209.07699421673055L157.27386778243633,-210.50768415814255L153.57604854850075,-213.22043028073105L149.83144856245272,-215.86822739474337L146.2417531410207,-218.31365104394587Z"/><path d="M322.1490344107238,-226.30385365194647L325.7155826362712,-221.14829693631918L329.1314678421308,-216.02154646544383L181.5201678208324,-189.99369161423695L178.41634980997102,-192.91490532708357L175.02234680013763,-195.99931810453808L171.57503028798936,-199.02402759100997L170.86208257183065,-199.6278822136075Z"/><path d="M335.691735159109,-205.6648000026266L336.84320834203527,-203.7985844007859L340.3486812161736,-197.88882031163732L341.85874384105267,-195.2387114320562L200.15052862325757,-170.25172970111709L197.60406497296617,-173.20851042322175L194.55106359445148,-176.63079638369763L191.43880007730746,-179.99927889253408L191.250633508295,-180.19593665833412Z"/><path d="M347.64770958349254,-184.745963691385L350.23894581803785,-179.8051468734685L353.06147784587336,-174.18705851188545L215.75563279533813,-149.97633342050025L214.62678864880849,-151.6044068329521L211.94823822359712,-155.32707069530696L209.20512631183416,-159.0024204272409L208.29781826809844,-160.17481809368877Z"/><path d="M358.0974502846193,-163.5615377354802L359.1692298142255,-161.22864002582205L361.9283543559107,-154.93571674453366L362.7891812807854,-152.8753179048701L228.7801381060701,-129.2459079342422L227.02326360174473,-132.32154911609928L224.6793574035012,-136.2634981703513L222.57538517731425,-139.66534117573306Z"/><path d="M367.14535366824805,-142.12993003793653L369.5410530169427,-135.78151621280847L371.13626155228366,-131.3201361839537L239.49916953477273,-108.10896519926364L237.69195443827724,-112.03164451253714L235.7005310084594,-116.16287814616952L234.40986114350463,-118.7250814081975Z"/><path d="M374.8031140757509,-120.45320262665949L376.1408653381389,-116.25514798320143L378.1125093554981,-109.6728785015164L378.1525206803434,-109.53029478895186L248.0914951469438,-86.59702684880094L246.55166597920834,-90.88911144767809L244.92788125257144,-95.17818847823183L244.043399942494,-97.3967370352403Z"/><path d="M381.15051471854946,-98.54542343443029L381.7097016926743,-96.4101324737687L383.3341542728586,-89.73369588862518L383.83531667900166,-87.50532786645658L254.67236855150475,-64.73041520373097L253.5349704700714,-69.05485736435622L252.2911824288532,-73.46913532581328L251.61871852662648,-75.70547290616427Z"/><path d="M386.20964612265345,-76.41048761700252L386.2322982871861,-76.30086349261153L387.50510691858756,-69.54855945261598L388.2371753869239,-65.25449713900895L259.30502540044336,-42.52028041564188L258.58872074705647,-46.69505412002876L257.7343953692704,-51.200937691688544L257.2221839426745,-53.666517861559505Z"/><path d="M389.9574431506798,-54.04432816834171L390.6139350014024,-49.172795249408246L391.3622582213322,-42.77853637674316L262.00668882188614,-19.969659386714547L261.6744547190178,-23.9798733186033L261.2160939366446,-28.54307000575859L260.89205500473895,-31.28661796260185Z"/><path d="M392.4239642908539,-31.45224521092136L392.6521174396201,-28.66225183238098L393.09253988866726,-21.805162090581952L393.17356590413306,-20.070921608664655L311.49192653295205,-5.668244759026636L262.70978030257095,-5.667972322307937L262.6219887869278,-8.564654780319943Z"/><path d="M393.59771929150475,-8.632212703356782L393.61406771684983,-8.073147175369858L393.65603743511855,-5.668703626101968L376.7902899545563,-5.668609434901763Z"/></g><g fill="none" stroke="blue" stroke-width="0.5"><path d="M209.79310151944136,333.1409557466085L209.64626946688477,333.2351297635625L203.79858440078587,336.8432083420353L201.73726006428862,338.08177695887963L197.6482471899743,330.9994902515494Z"/><path d="M236.40076439859314,314.80560742287713L232.38088927122027,317.79920124417697L226.79913571066473,321.8064046143512L223.5510892954428,324.05336160031425L190.24740668163437,318.18102379854844L182.84656617329438,305.36255734554754Z"/><path d="M259.69980143507064,295.88685909401306L259.1946352588834,296.33655033244617L253.9833727418717,300.81498696139374L248.69474442913062,305.20179243125267L248.43052767819978,305.41328066914724L175.44572566495452,292.54409089254665L168.04488515661453,279.72562443954564Z"/><path d="M280.2593340436187,276.4850622207347L279.23464294715956,277.5341856206049L274.34847475084405,282.3652322999514L270.2895657116316,286.2406216638529L160.6440446482746,266.90715798654475L153.24320413993453,254.08869153354382Z"/><path d="M298.51124516385187,256.67636941780376L297.91424752356534,257.37970225405866L293.3769785682425,262.53982260999754L289.6537172817832,266.628046861278L145.84236363159474,241.27022508054299L138.441523123255,228.4517586275421Z"/><path d="M314.7320395348272,236.50953593100985L310.9761792362073,241.43534529469852L306.8653251086151,246.63592051960057L146.23073098890177,218.31170754114183L147.83556279965097,217.2399616750611L151.60440683295204,214.6267886488085L155.3270706953069,211.94823822359714L159.00242042724085,209.2051263118342L159.1654608267628,209.07895080827112Z"/><path d="M329.1214939963078,216.01978780732384L327.06033521814953,219.1546192461197L323.18574685725207,224.82923083585064L322.14161603004914,226.30254559128036L170.8591845662804,199.6273712170387L173.20851042322172,197.6040649729662L176.63079638369757,194.55106359445153L179.99927889253402,191.4388000773075L181.51124381146332,189.99211807060908Z"/><path d="M341.8688656672944,195.2404961831167L341.5510861228988,195.8061939219191L338.0817769588796,201.73726006428865L335.6914743945641,205.6647540228018L191.24152670884342,180.1943308838829L192.91490532708352,178.41634980997108L195.99931810453802,175.02234680013765L199.0240275910099,171.57503028798942L200.1455798253121,170.25085709451722Z"/><path d="M353.0511398644007,174.1852356468258L351.33070662702477,177.66244564025192L348.1765600487415,183.7669530752064L347.6487654147926,184.74614986293025L208.3002962707257,160.17525503241026L210.5076841581425,157.27386778243638L213.22043028073102,153.5760485485008L215.76465481227643,149.97792424550693Z"/><path d="M362.80101378869574,152.87740429526409L360.14735408498404,159.03173694425004L358.09952437529194,163.56190345362623L222.57052115663132,139.66448351765197L223.41395962728853,138.32843966635292L225.79409674999994,134.40826034780463L228.10545480352476,130.4471389711123L228.778704680575,129.24565518265254Z"/><path d="M371.1356518214615,131.3200286719588L370.36354641401,133.52173417671557L367.9768626789321,139.96513331144445L367.1326307037833,142.1276866360268L234.4158968696474,118.72614566956463L234.61991996263376,118.33024859941303L236.6493338047981,114.21754412793508L238.60666196741192,110.0700478860656L239.4912709517898,108.10757246597439Z"/><path d="M378.14066909964527,109.52820503551074L376.84396368283143,113.95541692141221L374.8162920024179,120.45552625068069L244.05313840496046,97.39845418892376L245.70352653656715,93.15756343081321L247.29192835908546,88.85525727449385L248.0817583637276,86.59530999121462Z"/><path d="M383.84742118502146,87.50746221745602L382.2914778413009,94.07675578927116L381.15035818159856,98.54539583274237L251.62789340785747,75.7070906852701L252.88776707154733,71.38859742590812L254.09515385699748,66.96422450279199L254.66345133211288,64.72884285735928Z"/><path d="M388.2388715971174,65.254796226631L387.9226977603288,67.18028410381015L386.6911576317622,73.94023680870687L386.19688210367224,76.40823697607384L257.23113780438456,53.66809666896051L257.2515620030261,53.5741395066201L258.14737900130433,49.076321088978226L258.964561807209,44.56355354851964L259.2980444965529,42.51904949393625Z"/><path d="M391.35140855557336,42.77662328793822L390.9070075943818,46.785910523638734L390.03094383772765,53.601052778572765L389.9658620997947,54.04581265621987L260.89879134056594,31.28780576035926L260.94193606400063,30.9493227719535L261.44233350321224,26.390544315468336L261.86309307499005,21.823727043533733L262.0014002602899,19.968726870616Z"/><path d="M311.491926532952,5.668244759026637L393.1795694033541,20.071980187556015L392.81986849223165,26.2633000147708L392.42738617877615,31.452848582087007L262.6275390661835,8.565633444303188L262.6463844304793,8.088963003280298L262.70978030257095,5.667972322307937Z"/><path d="M376.7902899545563,5.668609434901763L393.65603743511855,5.668703626101968L393.58753325475266,8.630416630250888Z"/></g><g fill="none" stroke="blue" stroke-width="0.5"><path d="M414.8468503937008,0L414.76481225996673,0.9377001594014237L414.5211905459447,1.846908773958611L414.12338757413676,2.6999999999999993L413.5834903865433,3.4710530923073115L412.91790348600813,4.136639992842481L412.1468503937008,4.676537180435968L411.2937591676594,5.074340152243904L410.3845505531022,5.3179618662659225L409.4468503937008,5.3999999999999995L408.5091502342994,5.3179618662659225L407.5999416197422,5.074340152243905L406.7468503937008,4.676537180435969L405.97579730139347,4.136639992842483L405.3102104008583,3.4710530923073146L404.77031321326484,2.7000000000000037L404.3725102414569,1.8469087739586163L404.12888852743487,0.9377001594014305L404.0468503937008,7.855554471110585e-15L404.12888852743487,-0.937700159401415L404.3725102414569,-1.8469087739586016L404.77031321326484,-2.69999999999999L405.3102104008583,-3.4710530923073026L405.97579730139347,-4.136639992842474L406.7468503937008,-4.676537180435962L407.5999416197422,-5.0743401522439004L408.50915023429934,-5.317961866265921L409.4468503937008,-5.3999999999999995L410.3845505531022,-5.317961866265926L411.2937591676594,-5.074340152243911L412.1468503937008,-4.676537180435978L412.9179034860081,-4.136639992842493L413.58349038654325,-3.471053092307328L414.12338757413676,-2.700000000000019L414.5211905459447,-1.8469087739586327L414.76481225996673,-0.9377001594014477L414.8468503937008,-2.530343587498252e-14L414.8468503937008,-1.3226185430791413e-15Z"/></g><g fill="none" stroke="blue" stroke-width="0.5"><path d="M-111.288909011873,-204.09234897331345L-117.83496446414352,-215.43141369514825L-112.35219676716892,-224.9278459124057L-109.06879294195815,-226.54407278849666L-105.09844200224418,-228.41308193296706L-101.09607705898489,-230.2125142399935L-97.06291727131371,-231.9418215850637L-94.63856417376864,-232.93159219645253Z"/><path d="M-98.19679810733186,-181.41421952964367L-104.7428535596024,-192.7532842514785L-78.0391628108504,-239.00543337792413L-76.47850183250964,-239.51880357681782L-72.28667427685414,-240.81705760059316L-68.07282749995719,-242.04195641577616L-63.83824508036747,-243.19312690632185L-62.30452876488979,-243.58145362970023Z"/><path d="M-85.10468720279076,-158.73609008597398L-91.65074265506128,-170.07515480780881L-47.27019477526871,-246.94451860335286L-46.718443352058294,-247.05385153884149L-42.3996436778978,-247.83157330211725L-38.067928661538446,-248.5338031673668L-33.72461778533649,-249.1603272285706L-32.833131984243884,-249.2730795151393Z"/><path d="M-72.0125762982496,-136.05796064230427L-78.55863175052015,-147.39702536413907L-18.910265134803474,-250.71102693105564L-16.261920487007515,-250.90589560926955L-11.880532050067412,-251.1514910718683L-7.495524687975561,-251.32058335732742L-5.440646591155164,-251.36392525289583Z"/><path d="M-58.9204653937085,-113.37983119863463L-65.46652084597906,-124.71889592046942L7.619384189623393,-251.307396759287L10.05397170776406,-251.23124041869255L14.437030156705324,-251.0175106833581L18.815690946406207,-250.7273185826083L20.30506219756669,-250.60247024317326Z"/><path d="M32.64497774326486,-249.29866557510073L36.25971048457654,-248.80404318457147L40.59641723993842,-248.13332991900995L44.65995031093878,-247.43204315952758L-30.957233785494793,-116.4592383792153L-32.59597734881455,-116.01420043096265L-34.6157398019998,-115.4276526613976L-36.62495796551116,-114.80594451065913L-38.62301981203228,-114.14926535707255L-40.609316712569075,-113.45781523146945L-42.583243621843934,-112.73180475625631L-44.54419926259843,-111.97145508125689L-46.491586308748204,-111.17699781634788L-47.29944992511704,-110.83085507144811Z"/><path d="M56.36279161885368,-245.0247935434213L57.80643252144833,-244.69702668516152L62.06818028548777,-243.65089678772702L66.31102148054428,-242.53054846683173L67.77617170371457,-242.11618238216445L-2.4523184572841554,-120.47686928446356L-3.5613622306056336,-120.45376349463896L-5.663027855296932,-120.3732634619089L-7.762968466844526,-120.25609656704637L-9.860544402995554,-120.10229850022253L-11.95511672180019,-119.91191610981845L-14.046047396239551,-119.68500738815449L-16.132699508574902,-119.4216414538254L-16.156173460899605,-119.41826151297536Z"/><path d="M78.91261852346615,-238.72790873543232L78.91321270235363,-238.72771806057315L83.06756700127264,-237.3141332114556L87.19661811458947,-235.82826017844823L89.76757152910483,-234.85207350064027L22.521530536396217,-118.37851389340943L21.560207712322025,-118.56200860461809L19.487731626069724,-118.92022854430732L17.409319387982226,-119.24222423037583L15.325604102561286,-119.52789757981841L13.237220489668244,-119.77716157376543L11.144804691182218,-119.98994028398967L10.395592588866489,-120.0529386331912Z"/><path d="M100.3624532993464,-230.5257816725533L103.43475937460951,-229.17126578725365L107.41859583402508,-227.33117643311L110.69625272234411,-225.7472819540806L44.918562947249704,-111.81698125911316L43.786783722865735,-112.26980899675114L41.82073644637121,-113.01689450716279L39.84195016842853,-113.72955397668832L37.85102764650692,-114.40757032234961L35.84857533489304,-115.0507370137997L34.01299935723571,-115.60515639036639Z"/><path d="M120.76980099564445,-220.51801402160376L123.01475077349032,-219.28426665301703L126.82305317804226,-217.1039651687985L130.59272405203367,-214.85753171365627L130.5939491309281,-214.85677237866747L65.09404873128199,-101.4076169957793L64.40438664389539,-101.85218417875795L62.61701182904714,-102.96068312982861L60.810563265811126,-104.0378192594154L58.985591215919214,-105.08326446141878L57.14265158353667,-106.09670028310276L55.28230574592848,-107.0778180220987L55.276706673705355,-107.08064711110443Z"/><path d="M140.15281603478647,-208.73605016460795L141.65852564064753,-207.72838184209067L145.26231050952134,-205.2244616385942L148.82184707142636,-202.65802807602861L149.46055356593195,-202.18035911773688L83.10928360403145,-87.25658839700651L82.65540960297702,-87.69193637002263L81.11238546894198,-89.12111626599936L79.54465371653977,-90.5231490066258L77.95269189204916,-91.8976075191474L76.33698492246353,-93.24407313018656L74.69802496777754,-94.56213569327464L74.37788177058144,-94.81052215450177Z"/><path d="M158.505393865588,-195.16931670875704L159.22419359192304,-194.5915586155197L162.5960339462418,-191.78307603740225L165.91834597351738,-188.91617447647943L167.2833724892158,-187.6960563183032L98.77149750796559,-69.03000792897076L97.86920720667125,-70.3093928411962L96.62723315215034,-72.00673756198084L95.35582550636225,-73.68214833295917L94.0553715523923,-75.33511480778029L92.72626742111265,-76.9651334768433L91.36891797051702,-78.57170782067128L91.2597475218817,-78.69644065364938Z"/><path d="M175.79388244019253,-179.7595265973847L178.69230338646176,-176.88210542577824L181.75210607851346,-173.7365547184593L184.01706089629738,-171.32532412873346L111.49468063396225,-45.71287682853854L111.17699781634798,-46.491586308747976L110.34867496090835,-48.42481156733398L109.48673883010402,-50.343286159214905L108.59145197803016,-52.246425698445364L107.6630871177348,-54.13365047028558L106.70192703814763,-56.0043856077881L105.70826451793985,-57.85806126690783L105.56356236419403,-58.11704399393068Z"/><path d="M191.94853663120048,-162.38587772625456L193.42861650054797,-160.63495518752867L196.20262291132994,-157.2346948740318L198.91686410251566,-153.78653934930955L199.5755261042079,-152.9190456479657L119.633370161743,-14.455169889022152L119.42164145382543,-16.132699508574678L119.1218985306461,-18.214437444358747L118.78586992321459,-20.29062708605004L118.4136579890999,-22.36063600617121L118.00537610766287,-24.423833659952553L117.56114864551971,-26.479591577402083L117.0811109186587,-28.527283554743576L116.56540915122166,-30.56628584516429L116.33413575934222,-31.41789363231558Z"/><path d="M206.87885616312133,-142.891619020118L209.15991931340847,-139.53618406070836L211.56330544154326,-135.86458810177027L213.83364765007917,-132.26050587724583L140.74299262206375,-5.663777810233418L127.65004679166354,-5.663295765563891Z"/><path d="M220.41232449945292,-120.97794307260753L220.52538243529963,-120.77571863243146L222.59962228074423,-116.90862530149522L224.60605612487115,-113.00592047077286L226.54407278849473,-109.06879294196219L226.5823253624968,-108.9875326958127L166.92888428286415,-5.664741899572471L153.83593845246395,-5.6642598549029435Z"/><path d="M232.29328500162228,-96.20203959642254L233.6004772044066,-93.00019117877628L235.1879758554561,-88.90913632708858L236.70383397074295,-84.7909988911935L237.49187804402615,-82.5291015194093L193.11477594366463,-5.665705988911522L180.02183011326434,-5.665223944241996Z"/><path d="M242.10478261075528,-67.84172124511997L243.19312690632069,-63.8382450803718L244.27021841454606,-59.58421691291564L245.27290284794358,-55.31203881578255L246.0063223537625,-51.92222095342698L219.30066760446502,-5.666670078250576L206.20772177406477,-5.666188033581048Z"/><path d="M249.0468364435358,-34.51138048371255L249.16032722857,-33.724617785340925L249.71095464042975,-29.371034063863853L250.1855176765017,-25.00850364088733L250.58387178028784,-20.63835538543898L250.90589560926924,-16.261920487011988L250.96760243486142,-15.161079415808276L245.48655926526544,-5.66763416758963L232.39361343486524,-5.6671521229201005Z"/></g><g fill="none" stroke="blue" stroke-width="0.5"><path d="M187.82984360255432,336.66814820575854L191.91877737083,343.75048058498163L185.8902741112763,347.0475702274179L183.6183677796874,348.2390829316644Z"/><path d="M173.02844893917947,311.031049973599L180.4291462708668,323.84959908967875L168.86084021916926,355.633258748058L167.47245150150195,356.30069884578825L161.22864002582236,359.16922981422533L154.93571674453403,361.9283543559105L154.42580524211155,362.14139347345287Z"/><path d="M158.22705427580462,285.3939517414395L165.62775160749206,298.2125008575192L140.28481612119572,367.84164384881365L135.78151621280884,369.5410530169426L129.31145537770365,371.85448433227236L126.39980218713187,372.83860817835784Z"/><path d="M143.42565961242977,259.75685350927995L150.82635694411718,272.57540262535974L112.7494039732723,377.19097111439186L109.67287850151675,378.11250935549805L103.05720159861512,379.9689766396494L99.31536838395583,380.9488826250795Z"/><path d="M128.62426494905492,234.1197552771204L136.02496228074233,246.93830439320024L86.08201619251157,384.15542103165393L83.02992555044449,384.84183955621L76.30086349261185,386.23229828718604L73.03581761646176,386.8477591059628Z"/><path d="M60.165051360605204,389.058100841898L55.982459148229395,389.69625899877053L49.17279524940853,390.61393500140235L47.45952874326034,390.814439412314L101.48880611621532,242.3702198406696L103.66806828156425,241.45700693009616L107.86628495471142,239.61097459619947L112.03164451253721,237.6919544382772L115.94429122647821,235.80589883606874Z"/><path d="M34.91036903153945,392.141174430288L28.662251832381237,392.65211743962004L22.514413082809483,393.04698556886854L73.77927958629893,252.19792243917553L77.8610338769387,250.9705440494676L82.22921520288834,249.57345761115832L86.57234871331488,248.1003486799883L87.45177601475676,247.7848451575228Z"/><path d="M10.265073886966247,393.5499704895793L8.07314717537008,393.61406771684983L1.2024049067251967,393.6950142335566L-1.8476880182260094,393.677712388216L47.367058647779984,258.4613072191849L51.2009376916886,257.7343953692704L55.69122496173288,256.8015615979257L60.16454814516081,255.79050358322567L60.42894205070105,255.72587543721917Z"/><path d="M-13.82915698836936,393.44472991247227L-19.403647985402994,393.2183979098366L-25.68032124115762,392.8537381681468L22.00549831092911,261.8380257206006L23.979873318603318,261.6744547190178L28.54307000575862,261.2160939366446L33.097572197287235,260.67816420160113L34.56655238163667,260.47861121989206Z"/><path d="M-37.40027838133679,391.90225784465594L-39.95651682713423,391.6639972897215L-46.78591052363906,390.9070075943818L-49.00068172315305,390.622306159753L-2.459829446796626,262.7523654482904L1.082191201779863,262.7686880872117L5.667972322307924,262.70978030257095L9.666040897748857,262.5886084085263Z"/><path d="M-60.484546783165726,389.0221681770928L-67.18028410381051,387.9226977603287L-71.84155681240587,387.07349886184073L-26.124474527976314,261.4668476020215L-21.823727043534053,261.86309307499L-17.25026205293079,262.2040866118924L-14.38599400587788,262.36743535195717Z"/><path d="M-83.08602359599384,384.8156195204472L-87.3905211948977,383.87511877589066L-94.07675578927156,382.29147784130083L-94.22024256894095,382.2548368087735L-49.05052243020708,258.15205068451746L-44.56355354851999,258.96456180720895L-40.03721151795369,259.7028614989411L-37.673651453016035,260.0461524937455Z"/><path d="M-105.23241723836384,379.35874012899416L-107.36122694183032,378.7753647737203L-113.95541692141259,376.84396368283126L-116.13582144066321,376.1637990468892L-71.27800031180685,252.91794840942188L-66.96422450279236,254.0951538569974L-62.51945362819568,255.22514079710768L-60.24649652106028,255.7609387648266Z"/><path d="M-126.93139966944591,372.6726085373166L-127.03766302830276,372.6374138250579L-133.52173417671597,370.3635464140098L-137.60653545990093,368.85050514809456L-92.8288696842377,245.82487953357375L-88.85525727449424,247.29192835908535L-84.52588494604886,248.80500266465475L-82.13452417057528,249.5942046420494Z"/><path d="M-148.174960451093,364.7352162474857L-152.72207763962288,362.8679884081221L-158.63382987168984,360.3189258904909L-113.70911207712564,236.88927817455442L-110.07004788606594,238.60666196741175L-105.88902324133785,240.49130822935572L-103.35102154825788,241.58245626093253Z"/><path d="M-168.9735387867115,355.5752447351376L-171.50382050330097,354.37783446865234L-177.66244564025214,351.3307066270247L-179.20485496159674,350.5337569738267L-150.83711931029086,272.59404383080584L-126.44628213221971,230.3473297258092L-123.89378577906307,231.71964127203188Z"/><path d="M-189.3231441537744,345.1817301297376L-189.8154833160638,344.9163555174053L-191.91877737082999,343.75048058498163L-183.48598520252085,329.14426771740096Z"/></g><g fill="none" stroke="blue" stroke-width="0.5"><path d="M-393.4050814773116,15.11567758126057L-393.41322254209126,14.941430285183841L-393.6140677168497,8.073147175374999L-393.65603743511855,5.66870362610213L-385.4780907925285,5.668657954209404Z"/><path d="M-390.83003548129744,47.32626373180108L-391.41262621547,42.34815284081159L-392.0920893518939,35.51061077461922L-392.4139879753376,31.5742415733791L-370.6765529525012,5.668575291130526L-355.87501511247365,5.668492628051646Z"/><path d="M-386.0954373389371,76.96319585353902L-386.23229828718524,76.30086349261582L-387.50510691858676,69.54855945262037L-388.65987774057464,62.775070247683615L-388.71092355172743,62.44050771031982L-341.0734772724464,5.668409964972768L-326.27193943241895,5.668327301893889Z"/><path d="M-379.57275467188595,104.4691718191148L-379.9689766396484,103.0572015986187L-381.70970169267326,96.4101324737727L-383.0364328117632,90.95731945221054L-311.4704015923917,5.668244638815009L-296.6688637523642,5.668161975736132Z"/><path d="M-371.54387904890206,130.18013691831737L-371.8544843322713,129.3114553777068L-374.0546451694382,122.80200502062547L-375.73352058418556,117.53345403598041L-281.867325912337,5.668079312657252L-267.06578807230943,5.667996649578366Z"/><path d="M-362.18928612093504,154.311173656542L-364.57723201477904,148.59559854303217L-367.0256352100419,142.435206824832L-262.17885016863846,17.483674079786443L-262.05310692758627,19.409372129736767L-261.67445471901783,23.9798733186031L-261.2160939366446,28.543070005758345L-260.67816420160113,33.0975721972869L-260.650413209941,33.30185707689786Z"/><path d="M-351.63937095942,177.01768082862813L-353.3236352329192,173.66524924611454L-356.3006988457871,167.4724515015045L-357.05456143815843,165.8315503025537L-258.31196704780314,48.15470869577473L-257.7343953692705,51.20093769168805L-256.8015615979258,55.69122496173227L-255.7905035832258,60.16454814516014L-255.29362267369217,62.1972891779344Z"/><path d="M-340.0176623757052,198.44687433928885L-340.3486812161722,197.88882031163968L-343.7504805849804,191.91877737083217L-345.95663884410664,187.8849676481458L-251.67363151780185,75.52285494643573L-250.9705440494679,77.86103387693782L-249.5734576111586,82.2292152028874L-248.10034867998863,86.5723487133139L-247.51435717258175,88.20572803662769Z"/><path d="M-327.3744089665298,218.65863813421075L-329.5255445364412,215.43009424841722L-333.23512976356113,209.64626946688705L-333.81924174006065,208.69958751204223L-242.86598805108144,100.30572067006864L-241.45700693009664,103.66806828156307L-239.61097459620004,107.86628495471021L-237.76701980960488,111.86871018345796Z"/><path d="M-313.79622267867126,237.7561923121276L-317.7992012441756,232.38088927122214L-320.6985256698236,228.3423334653144L-232.23825131103558,122.91948369635917L-231.50292263056969,124.31794476412497L-229.2980163146722,128.33929363615758L-227.02326360174555,132.32154911609794L-226.31937305722806,133.50534250694912Z"/><path d="M-299.29430676634803,255.75288839150306L-300.8149869613925,253.98337274187318L-305.20179243125136,248.69474442913221L-306.65250255980396,246.88234142967283L-220.0278066780781,143.64704890524513L-219.78696130453758,144.0216866218045L-217.23996167506206,147.83556279964955L-214.62678864880957,151.60440683295056L-213.36953957289543,153.35173839588467Z"/><path d="M-283.92454254148566,272.7153231265831L-287.1102677942048,269.37873735144734L-291.7256917605219,264.3726675010402L-206.37610481942343,162.65699063755414L-203.52857975402947,166.20671406468279L-200.59687423905794,169.7334634725608L-199.03461748284414,171.54744996289372Z"/><path d="M-267.707395893533,288.667886814644L-272.6185993397832,284.03575356622764L-275.9179953079468,280.81319493043077L-191.3782104839846,180.06260264933223L-188.26822244715225,183.31293187732598L-185.0402964926428,186.57074596727753L-183.38854793810032,188.18059684035214Z"/><path d="M-250.63174704959795,303.59732742639306L-252.1411815475192,302.360768913133L-257.3797022540578,297.9142475235661L-259.2699153314974,296.25219227608716L-175.0935039902718,195.9346516484935L-175.0223468001396,195.99931810453634L-171.5750302879914,199.0240275910082L-168.07545035953288,201.98811243068678L-166.47159925479275,203.2991689386742Z"/><path d="M-232.7213467332577,317.5319499719799L-235.9712908498473,315.14244383227214L-241.43534529469775,310.9761792362079L-241.78797777835817,310.69743685901165L-157.54543028742677,210.3010782374057L-157.27386778243866,210.5076841581408L-153.57604854850317,213.22043028072935L-149.83144856245522,215.86822739474167L-148.2941248813313,216.9155050171981Z"/><path d="M-160.6548072226609,266.9257990717791L-213.97262944835856,330.46750525855373L-219.15461924611924,327.0603352181498L-223.45265898286095,324.12566128050344L-138.73182569536365,223.15930384255327L-138.32843966635562,223.41395962728689L-136.26349817035117,224.67935740350129Z"/><path d="M-193.304304752035,323.4756582824994L-201.7372600642884,338.08177695887974L-204.26792667441737,336.54159409634326Z"/></g><g fill="none" stroke="blue" stroke-width="0.5"><path d="M-207.4234251968503,359.26791112090734L-208.19447828915762,358.7280139333139L-208.8600651896928,358.0624270327787L-209.39996237728627,357.2913739404714L-209.79776534909422,356.43828271443L-210.04138706311625,355.52907409987284L-210.12342519685032,354.5913739404714L-210.04138706311625,353.65367378107L-209.79776534909422,352.7444651665128L-209.3999623772863,351.8913739404714L-208.8600651896928,351.12032084816406L-208.19447828915764,350.45473394762894L-207.42342519685033,349.9148367600354L-206.57033397080895,349.5170337882275L-205.66112535625174,349.27341207420545L-204.72342519685034,349.1913739404714L-203.7857250374489,349.27341207420545L-202.8765164228917,349.5170337882275L-202.02342519685033,349.9148367600354L-201.252372104543,350.4547339476289L-200.58678520400784,351.12032084816406L-200.04688801641436,351.89137394047134L-199.6490850446064,352.7444651665127L-199.40546333058438,353.6536737810699L-199.3234251968503,354.5913739404714L-199.40546333058438,355.5290740998728L-199.6490850446064,356.43828271443L-200.04688801641433,357.2913739404714L-200.5867852040078,358.06242703277866L-201.25237210454299,358.72801393331383L-202.0234251968503,359.26791112090734L-202.87651642289168,359.6657140927153L-203.78572503744886,359.9093358067373L-204.7234251968503,359.99137394047136L-205.66112535625172,359.9093358067373L-206.5703339708089,359.6657140927153L-207.42342519685027,359.26791112090734L-207.4234251968503,359.26791112090734Z"/></g><g fill="none" stroke="blue" stroke-width="0.5"><path d="M232.39361343486487,5.667152122919967L245.48655926526507,5.667634167589468L250.96932696223922,15.16406638484614L250.72731858260815,18.81569094640807L250.36075251176794,23.188620294375028L249.91792413041358,27.554486163967113L249.3989683283598,31.911958670147353L249.0439582729688,34.50639534605808Z"/><path d="M206.2077217740645,5.6661880335809665L219.30066760446465,5.666670078250467L246.00435835321676,51.91881920469616L245.66861949783396,53.52707635808157L244.697026685161,57.806432521450574L243.65089678772645,62.06818028549005L242.53054846683108,66.3110214805466L242.09999111650635,67.83342213363717Z"/><path d="M180.02183011326412,5.6652239442419665L193.11477594366428,5.665705988911466L237.49532382345654,82.53506978445496L237.31413321145473,83.06756700127511L235.82826017844727,87.19661811459198L234.2705515728698,91.29910829333853L232.64148188785347,95.37378787926461L232.29338533181098,96.20221337340732Z"/><path d="M153.83593845246367,5.664259854902962L166.92888428286383,5.664741899572465L226.57725089858025,108.97874346648855L225.42183980041696,111.36971154856502L223.44383749161156,115.28690297010195L221.39777202535717,119.1689768841849L220.4078681595582,120.97022446549464Z"/><path d="M127.65004679166336,5.66329576556396L140.74299262206353,5.663777810233463L213.82889765766603,132.2522786490512L212.54565057298058,134.32261511720154L210.16902596816615,138.0115902125895L207.7283818420887,141.6585256406504L206.87557438293823,142.88593481010207Z"/><path d="M199.576488645966,152.92071281919564L197.34076671982982,155.80385200579968L194.5915586155173,159.22419359192594L191.95245993096873,162.39267308078703L116.33527583453541,31.419868300475127L116.76923344735981,29.77815577022851L117.27114940497604,27.735716291377624L117.7373434344524,25.684828244662473L118.16767352857137,23.62611635044948L118.56200860461759,21.560207712324807L118.92022854430687,19.48773162607254L119.24222423037541,17.40931938798508L119.52789757981803,15.325604102564176L119.63206097758396,14.45290231554274Z"/><path d="M184.01629995621315,171.32400614184652L183.01062507914273,172.41035240830777L179.97377613028624,175.57806928777018L176.88210542577534,178.69230338646463L175.79067875840332,179.75397765775503L105.56218859740464,58.11466456005426L106.09670028310164,57.142651583538736L107.07781802209762,55.28230574593059L108.02631882043794,53.405120382460524L108.9419137555911,51.51166730197493L109.8243239284703,49.60252326862444L110.67328054838877,47.678269826175885L111.48852501493607,45.73949312086851L111.49733487645989,45.71747411140059Z"/><path d="M167.28812429548435,187.70428668818863L167.28766207676662,187.7047059247715L163.9862845375665,190.59568985939768L160.63495518752535,193.4286165005508L158.50407601845242,195.16703413056214L91.25803502574337,78.6934745233305L91.89760751914608,77.95269189205071L93.24407313018526,76.33698492246512L94.56213569327335,74.69802496777919L95.85139371378528,73.03631127107204L97.11145447123872,71.35235000643308L98.34193413892042,69.64665412477645L98.77109836088466,69.0293165859474Z"/><path d="M149.4599565060234,202.17932497964063L146.75075830189,204.16276214637105L143.16527594626044,206.69282104767578L140.15475464635009,208.7394079383328L74.37706487125558,94.8091072433652L75.33511480777892,94.0553715523934L76.96513347684194,92.72626742111379L78.57170782066991,91.36891797051818L80.1543484611545,89.98373666239819L81.7125733106252,88.57114543639878L83.11050256391212,87.25869969745274Z"/><path d="M130.58930163697985,214.8487226830217L128.39837018500555,216.1760325365643L124.60602250948735,218.38396842209036L120.7757186324271,220.52538243530202L120.77444848959244,220.52606371725008L55.274548089946286,107.0769083343618L56.004385607786816,106.70192703814831L57.85806126690654,105.70826451794056L59.694112800080724,104.68240223634172L61.51198092822615,103.62465268094047L63.31111191110091,102.53533805249808L65.09095771597904,101.41479016680275L65.09620731504042,101.41135577252177Z"/><path d="M110.69431411078021,225.74392418035623L109.06879294195757,226.54407278849695L105.09844200224356,228.41308193296737L101.09607705898419,230.2125142399938L100.363050359255,230.5268158106507L34.01178039735445,115.6030450899202L34.61573980199845,115.42765266139801L36.62495796550979,114.80594451065957L38.623019812030904,114.14926535707302L40.609316712567676,113.45781523146995L42.58324362184251,112.73180475625684L44.544199262597,111.97145508125746L44.91937984657495,111.81839617024964Z"/><path d="M89.76888937623978,234.8543560788351L88.90913632708352,235.187975855458L84.79099889118834,236.7038339707448L80.64703329564207,238.14758980520256L78.90786671719754,238.71967836554788L10.3959917359472,120.05362997621519L11.955116721799085,119.91191610981856L14.046047396238421,119.68500738815463L16.132699508573747,119.42164145382556L18.21443744435779,119.12189853064625L20.290627086049067,118.78586992321475L22.360636006170218,118.41365798910009L22.523243032533966,118.38148002372829Z"/><path d="M67.77937538550297,242.1217313217938L63.838245080366256,243.19312690632214L59.584216912910016,244.27021841454743L56.363552558937236,245.02611153030804L-16.158827703397886,119.4136642301132L-15.325604102562044,119.52789757981832L-13.237220489669031,119.77716157376534L-11.144804691183031,119.9899402839896L-9.04899407722595,120.16616889603469L-6.950427052013373,120.30579372895822L-4.849742859390453,120.40877225168353L-2.7475813881120477,120.47507309595501L-2.450944690495189,120.47924871834039Z"/><path d="M44.65602701116939,247.42524780499417L42.399643677896286,247.83157330211753L38.06792866153687,248.53380316736707L33.72461778533485,249.16032722857082L32.6440152015064,249.2969984038712L-47.298140740958445,110.83312264492778L-45.73949312086653,111.48852501493688L-43.786783722866105,112.269808996751L-41.82073644637159,113.01689450716265L-39.84195016842895,113.72955397668817L-37.85102764650737,114.40757032234947L-35.84857533489352,115.05073701379955L-33.83520319995972,115.65885813623373L-31.811524534362235,116.23174845006709L-30.958373860688585,116.45726371105573Z"/><path d="M20.308343977749228,250.60815445318914L16.261920487005643,250.90589560926966L11.880532050065485,251.15149107186838L7.624134182036347,251.31562398748227L-65.46652084597922,124.71889592046965L-58.92046539370869,113.37983119863479Z"/><path d="M-5.436190251260919,251.371643860009L-5.667850721647753,251.36844268446373L-10.053971707766268,251.23124041869247L-14.437030156707586,251.01751068335795L-18.81569094640852,250.7273185826081L-18.90519067088755,250.71981616037976L-78.55863175052029,147.39702536413938L-72.01257629824978,136.05796064230452Z"/><path d="M-32.83323231443273,249.27290573815515L-36.25971048457905,248.80404318457113L-40.596417239940976,248.13332991900953L-44.9207579333453,247.3870328374331L-47.27364055469994,246.93855033830692L-91.65074265506144,170.07515480780918L-85.10468720279086,158.73609008597427Z"/><path d="M-62.29973727064116,243.5897527411835L-66.31102148054713,242.53054846683094L-70.53366369609142,241.3363229914264L-74.73482067439893,240.06858413416123L-78.03719881030443,239.00883512665624L-104.74285355960245,192.75328425147893L-98.19679810733196,181.41421952964404Z"/><path d="M-94.63568600320227,232.9365773341068L-95.37378787926511,232.64148188785327L-99.41941568549653,230.94154735380525L-103.43475937461264,229.17126578725222L-107.41859583402825,227.3311764331085L-111.36971154856545,225.42183980041673L-112.35392129454752,224.92485894336747L-117.83496446414365,215.43141369514854L-111.28890901187307,204.09234897331385Z"/></g><g fill="none" stroke="blue" stroke-width="0.5"><path d="M-385.47809079252835,-5.668657954209404L-393.65603743511855,-5.66870362610213L-393.4971491942461,-12.538085416890997L-393.3930762992614,-15.101370367189663Z"/><path d="M-355.8750151124737,-5.668492628051647L-370.676552952501,-5.668575291130525L-392.4178566160477,-31.578852039844016L-392.3016823373525,-33.114951988535935L-391.6639972897216,-39.95651682713369L-390.90700759438187,-46.785910523638435L-390.8365491309627,-47.334026397190534Z"/><path d="M-326.27193943241895,-5.668327301893888L-341.0734772724463,-5.668409964972766L-388.7026162034978,-62.430607398222165L-387.92269776032884,-67.18028410380963L-386.69115763176234,-73.94023680870627L-386.08760728765566,-76.95386436179427Z"/><path d="M-296.66886375236425,-5.66816197573613L-311.4704015923917,-5.668244638815009L-383.0316650498221,-90.95163745478857L-382.2914778413011,-94.07675578927035L-380.59138721922017,-100.73433369248872L-379.56909408859264,-104.4648093058239Z"/><path d="M-267.06578807230954,-5.667996649578372L-281.8673259123369,-5.668079312657252L-375.72936171117453,-117.52849768412848L-374.7977722700356,-120.51489497708819L-372.6374138250584,-127.0376630283012L-371.5378955910774,-130.1730061109586Z"/><path d="M-367.0167245575141,-142.42458752266967L-365.47808962681074,-146.36589771069254L-362.86798840812287,-152.722077639621L-362.1849970684685,-154.30606216285622L-260.6431705609467,-33.29322562393908L-260.9419360640003,-30.949322771956545L-261.44233350321196,-26.390544315471434L-261.86309307498976,-21.823727043536888L-262.1860443674986,-17.492247792123763Z"/><path d="M-357.059403442264,-165.837320778342L-354.3778344686533,-171.503820503299L-351.6458809249408,-177.0254391034252L-255.29944740713304,-62.20423082493848L-256.2773836869092,-58.05563872238662L-257.25156200302547,-53.574139506622856L-258.1473790013038,-49.07632108898103L-258.31385858658723,-48.15696294391627Z"/><path d="M-345.9568090460746,-187.88517048695266L-344.9163555174064,-189.81548331606186L-341.55108612289996,-195.80619392191716L-340.0110558228259,-198.43900095616027L-247.51758727103845,-88.20957751806793L-248.80500266465413,-84.52588494605078L-250.24228855618372,-80.17076521423029L-251.60334822246764,-75.79122469069388L-251.67957555899696,-75.52993877888451Z"/><path d="M-333.8185525951224,-208.69876622108617L-330.83529783263623,-213.41325103636584L-327.3811566047156,-218.6666796562601L-237.76113110626807,-111.86169230010054L-238.60666196741107,-110.07004788606747L-240.491308229355,-105.88902324133944L-242.30269850912066,-101.6757437743621L-242.8643706497348,-100.30379312620293Z"/><path d="M-320.6971719032823,-228.3407201091752L-319.2127129870929,-230.43535726389706L-315.1424438322734,-235.97129084984564L-313.78849955763246,-237.74698825488352L-226.32030865927368,-133.50645751404824L-228.10545480352386,-130.44713897111384L-230.34732972580838,-126.44628213222119L-232.24142607506235,-122.92326723279365Z"/><path d="M-306.6608068850829,-246.89223813915797L-302.3607689131343,-252.14118154751768L-299.2947047398779,-255.75336267788697L-213.3746950067968,-153.357882402758L-215.8682273947425,-149.83144856245403L-218.45026895552792,-146.0412084657241L-220.02386713762715,-143.6423539437594Z"/><path d="M-291.717090479756,-264.3624168937865L-288.7503441432436,-267.6199707926866L-284.035753566229,-272.6185993397817L-283.93227811140116,-272.7245420198206L-199.04097271673632,-171.5550238357164L-201.98811243068772,-168.07545035953174L-204.89066973461712,-164.5246730207102L-206.36974848947753,-162.6494154585053Z"/><path d="M-275.9180974801853,-280.81331669456307L-274.34847475084666,-282.3652322999489L-269.37873735144876,-287.11026779420337L-267.6994952383388,-288.65847118043246L-183.39436823969723,-188.18753320569022L-186.57074596727855,-185.04029649264177L-189.77172880065703,-181.75600547129505L-191.372222005566,-180.05546585866264Z"/><path d="M-259.27824645320715,-296.26212092031506L-259.1946352588863,-296.33655033244366L-253.98337274187472,-300.8149869613912L-250.63063992702294,-303.59600800908686L-166.47615571620568,-203.30459911793255L-169.73346347256194,-200.59687423905697L-173.20851042322118,-197.60406497296668L-175.08765977209944,-195.92768678049063Z"/><path d="M-241.78248269958738,-310.69088807914494L-237.891857361783,-313.69519315871116L-232.72842834964288,-317.54038951374815L-148.2975767447598,-216.91961878784008L-151.60440683295175,-214.6267886488087L-155.32707069530662,-211.9482382235974L-157.54103345648141,-210.29583829833052Z"/><path d="M-223.45042550414198,-324.1229995242161L-221.14829693632285,-325.7155826362687L-215.43009424841892,-329.5255445364401L-213.96871094253586,-330.462835365162L-160.65480722266093,-266.92579907177924L-136.26349817035117,-224.67935740350129L-138.72820300786458,-223.1549864917114Z"/><path d="M-204.27457513773047,-336.54951742638195L-203.79858440078993,-336.8432083420328L-201.7372600642884,-338.08177695887974L-193.30430475203516,-323.47565828249964Z"/></g><g fill="none" stroke="blue" stroke-width="0.5"><path d="M183.61197995786955,-348.2566333278688L183.76695307520652,-348.17656004874146L189.81548331606385,-344.9163555174053L191.91877737083,-343.75048058498163L187.82984360255432,-336.6681482057586Z"/><path d="M154.42927108270723,-362.1318711546772L159.03173694425013,-360.14735408498404L165.29295364122942,-357.3170153889658L168.86289867989584,-355.6276031736931L180.42914627086688,-323.84959908967875L173.0284489391795,-311.031049973599Z"/><path d="M126.39563590386648,-372.8500549475527L127.03766302830248,-372.63741382505793L133.52173417671568,-370.36354641401L139.96513331144456,-367.97686267893204L140.28039587352885,-367.8537883794668L165.62775160749203,-298.2125008575192L158.22705427580462,-285.39395174143954Z"/><path d="M99.31342062826829,-380.9542340398496L100.73433369248971,-380.5913872192199L107.36122694183004,-378.7753647737203L112.74686710013131,-377.1979411160625L150.82635694411718,-272.5754026253597L143.42565961242974,-259.75685350927995Z"/><path d="M73.03263388505164,-386.8565063361217L73.94023680870694,-386.6911576317622L80.67766660119658,-385.34182763061966L86.07980330240352,-384.1615008972575L136.02496228074233,-246.93830439320013L128.6242649490549,-234.1197552771204Z"/><path d="M47.45724658611035,-390.82070958755133L53.6010527785728,-390.03094383772765L60.16031010142604,-389.07112734443257L115.94811917973674,-235.7953816209283L114.21754412793531,-236.649333804798L110.07004788606581,-238.6066619674118L105.88902324133772,-240.49130822935578L101.67574377436033,-242.30269850912143L101.48495238317831,-242.3808078851694Z"/><path d="M22.517876963112652,-393.0374686359519L26.26330001477079,-392.81986849223165L33.114951988536085,-392.3016823373525L34.91294540811081,-392.13409589383394L87.45278248152124,-247.7820799128138L84.52588494604873,-248.8050026646548L80.17076521422817,-250.2422885561844L75.79122469069169,-251.6033482224683L73.78237886222799,-252.1894072485438Z"/><path d="M-1.851203291589292,-393.6873705224048L-1.2024049067254983,-393.6950142335566L5.668703626101931,-393.65603743511855L10.265164449542143,-393.5497216709467L60.43210480896042,-255.71718583031824L58.05563872238415,-256.2773836869098L53.57413950662033,-257.25156200302604L49.07632108897844,-258.1473790013043L47.36877734727026,-258.45658513114444Z"/><path d="M-25.67673089787055,-392.8438737810374L-21.805162090582495,-393.0925398886672L-14.941430285179315,-393.41322254209143L-13.829523674731329,-393.44573737497166L34.56569178035574,-260.48097570247853L30.94932277195369,-260.94193606400063L26.390544315468517,-261.44233350321224L22.002364997329177,-261.8466344289645Z"/><path d="M-49.00479111002499,-390.6335966073914L-42.348152840807444,-391.41262621547054L-37.40099870546791,-391.90423691894097L9.667730154403733,-262.5839672140113L8.088963003280455,-262.6463844304793L3.503919564671539,-262.7475539839636L-1.082191201780006,-262.7686880872117L-2.4593316233463565,-262.7509976896019Z"/><path d="M-71.8413450551135,-387.0729170634615L-69.54855945261659,-387.50510691858744L-62.77507024767974,-388.65987774057527L-60.48012814397813,-389.0100280657001L-14.388090191568821,-262.37319457480993L-14.832958658097146,-262.3519352212191L-19.40937212973707,-262.0531069275862L-23.97987331860346,-261.6744547190178L-26.12173137889394,-261.45931086185936Z"/><path d="M-94.21612655815953,-382.2435281620933L-89.73369588862582,-383.3341542728584L-83.09060024189637,-384.8281937517212L-37.67703358553742,-260.0554448264775L-42.17494678253905,-259.36427749549773L-46.69505412002895,-258.5887207470564L-49.04714088088333,-258.14275995410765Z"/><path d="M-116.14002529148647,-376.1753490321008L-109.67287850151705,-378.11250935549793L-105.23236287365111,-379.3585907631733L-60.24968292387239,-255.76969333460204L-64.61954462439678,-254.70152930323593L-69.05485736435647,-253.53497047007133L-71.27490339401245,-252.9094396977118Z"/><path d="M-137.60712454751933,-368.85212365302425L-135.78151621280912,-369.54105301694244L-129.31145537770394,-371.85448433227225L-126.92696677217451,-372.6604292521606L-82.13763381411337,-249.60274831745284L-82.22921520288847,-249.57345761115826L-86.57234871331501,-248.10034867998826L-90.8891114476783,-246.55166597920825L-92.82644524175979,-245.81821843261096Z"/><path d="M-158.63006182231516,-360.3085732599186L-154.93571674453432,-361.9283543559104L-148.59559854302958,-364.5772320147801L-148.17788432143627,-364.7432495152312L-103.35336105313903,-241.58888399776617L-103.66806828156437,-241.45700693009607L-107.86628495471155,-239.6109745961994L-112.03164451253731,-237.69195443827718L-113.70727537895846,-236.88423188781385Z"/><path d="M-150.83711931029097,-272.5940438308059L-179.20693995499553,-350.5394854461095L-173.66524924611227,-353.3236352329203L-168.97472719591505,-355.5785098625893L-123.89571337081944,-231.72493728685637L-124.31794476412627,-231.502922630569L-126.44628213221971,-230.3473297258092Z"/><path d="M-183.48598520252102,-329.14426771740125L-191.91877737082999,-343.75048058498163L-189.31960658033503,-345.17201072659304Z"/></g><g fill="none" stroke="blue" stroke-width="0.5"><path d="M-207.4234251968503,-359.26791112090734L-206.57033397080892,-359.6657140927153L-205.66112535625174,-359.9093358067373L-204.72342519685031,-359.99137394047136L-203.78572503744888,-359.9093358067373L-202.8765164228917,-359.6657140927153L-202.02342519685033,-359.26791112090734L-201.252372104543,-358.7280139333139L-200.58678520400784,-358.0624270327787L-200.04688801641436,-357.2913739404714L-199.6490850446064,-356.43828271443L-199.40546333058438,-355.5290740998728L-199.3234251968503,-354.5913739404714L-199.40546333058438,-353.65367378107L-199.6490850446064,-352.7444651665128L-200.04688801641436,-351.8913739404714L-200.58678520400784,-351.12032084816406L-201.252372104543,-350.4547339476289L-202.02342519685033,-349.9148367600354L-202.8765164228917,-349.5170337882275L-203.78572503744888,-349.27341207420545L-204.72342519685031,-349.1913739404714L-205.66112535625174,-349.27341207420545L-206.57033397080892,-349.5170337882275L-207.4234251968503,-349.9148367600354L-208.19447828915762,-350.4547339476289L-208.8600651896928,-351.12032084816406L-209.39996237728627,-351.8913739404714L-209.79776534909422,-352.7444651665128L-210.04138706311625,-353.65367378107L-210.12342519685032,-354.5913739404714L-210.04138706311625,-355.5290740998728L-209.79776534909422,-356.43828271443L-209.3999623772863,-357.2913739404714L-208.8600651896928,-358.0624270327787L-208.19447828915764,-358.72801393331383L-207.42342519685033,-359.26791112090734L-207.4234251968503,-359.26791112090734Z"/></g><g fill="none" stroke="blue" stroke-width="0.5"><path d="M425.1968503937008,0L425.13209085389866,7.420708248923698L424.93783196087537,14.83915607822876L424.6141328877716,22.253083756842262L424.1610922364607,29.660232930572963L423.57884800751384,37.058347310027884L422.8675775581635,44.4451733578999L422.02749754827863,51.81846097541703L421.0588638743685,59.17596418774436L419.9619715916334,66.51544182812967L418.73715482408846,73.83465822058456L417.38478666278627,81.13138386089307L415.90527905216936,88.40339609574018L414.29908266458824,95.64847979975362L412.5666867630221,102.86442805025241L410.7086190520448,110.04904279949702L408.72544551708046,117.20013554423586L406.61777025199933,124.31552799234477L404.38623527510464,131.39305272635562L402.03152033356776,138.43055386367294L399.5543426963705,145.42588771327652L396.95545693581806,152.3769234287104L394.2356546976891,159.28154365715952L391.3957644600927,166.13764518441567L388.43665128110587,172.94313957553717L385.35921653526844,179.69595381100615L382.1643976390159,186.39403091819048L378.85316776513275,193.03533059791764L375.42653554631534,199.61782984596942L371.885544767932,206.13952356930875L368.2312740500762,212.59842519685049L364.4648365190083,218.9925672845901L360.58737946808657,225.32000211490617L356.6000840082905,231.5788022898542L352.5041647084429,237.76706131827044L348.30086922524055,243.88289419650792L343.99147792320593,249.92443798262653L339.5773034846756,255.88985236386318L335.0596905099447,261.7773202172092L330.4400151076883,267.58504816292316L325.7196844757858,273.31126711081214L320.9001364726746,278.9542327991135L315.98283917936436,284.5122263258139L310.96929045224556,289.98355467224366L305.8610174668279,295.3665512187864L300.6595762525476,300.659576252548L295.36655121878607,305.8610174668283L289.98355467224326,310.9692904522459L284.5122263258135,315.9828391793647L278.95423279911313,320.9001364726749L273.31126711081174,325.71968447578615L267.58504816292276,330.4400151076886L261.77732021720874,335.05969050994497L255.88985236386276,339.57730348467595L249.9244379826261,343.9914779232062L243.8828941965075,348.30086922524083L237.76706131827,352.5041647084431L231.5788022898537,356.60008400829076L225.3200021149057,360.58737946808685L218.99256728458963,364.4648365190086L212.59842519685003,368.2312740500765L206.13952356930827,371.8855447679323L199.6178298459689,375.4265355463156L193.03533059791715,378.853167765133L186.39403091819,382.1643976390161L179.69595381100564,385.3592165352687L172.94313957553666,388.4366512811061L166.13764518441516,391.39576446009295L159.281543657159,394.2356546976893L152.3769234287099,396.9554569358183L145.42588771327596,399.55434269637067L138.4305538636724,402.0315203335679L131.39305272635508,404.38623527510487L124.31552799234423,406.6177702519995L117.20013554423532,408.72544551708063L110.04904279949646,410.7086190520449L102.86442805025186,412.5666867630223L95.64847979975305,414.29908266458835L88.40339609573961,415.9052790521695L81.13138386089247,417.3847866627864L73.83465822058393,418.7371548240886L66.51544182812904,419.96197159163347L59.17596418774372,421.05886387436857L51.81846097541639,422.02749754827875L44.445173357899236,422.86757755816353L37.05834731002721,423.5788480075139L29.660232930572274,424.1610922364607L22.253083756841562,424.61413288777163L14.83915607822805,424.93783196087537L7.420708248922979,425.13209085389866L-7.292655351961864e-13,425.1968503937008L-7.420708248924439,425.1320908538986L-14.839156078229509,424.9378319608753L-22.25308375684302,424.6141328877716L-29.66023293057373,424.16109223646066L-37.05834731002866,423.5788480075138L-44.445173357900686,422.8675775581634L-51.818460975417835,422.0274975482786L-59.175964187745166,421.0588638743684L-66.51544182813048,419.96197159163324L-73.83465822058538,418.7371548240883L-81.13138386089389,417.3847866627861L-88.40339609574102,415.9052790521692L-95.64847979975447,414.299082664588L-102.86442805025327,412.56668676302195L-110.04904279949788,410.7086190520446L-117.20013554423674,408.7254455170802L-124.31552799234562,406.6177702519991L-131.39305272635647,404.38623527510435L-138.4305538636738,402.03152033356747L-145.42588771327735,399.5543426963702L-152.37692342871122,396.9554569358177L-159.28154365716034,394.2356546976888L-166.1376451844165,391.3957644600924L-172.943139575538,388.4366512811055L-179.69595381100686,385.3592165352681L-186.39403091819113,382.16439763901553L-193.03533059791818,378.85316776513247L-199.61782984596988,375.4265355463151L-206.13952356930915,371.88554476793183L-212.59842519685083,368.231274050076L-218.99256728459028,364.46483651900814L-225.32000211490632,360.5873794680865L-231.57880228985422,356.6000840082904L-237.76706131827044,352.5041647084429L-243.88289419650783,348.30086922524055L-249.92443798262633,343.991477923206L-255.88985236386296,339.5773034846758L-261.77732021720885,335.0596905099449L-267.5850481629228,330.4400151076886L-273.31126711081174,325.71968447578615L-278.954232799113,320.900136472675L-284.51222632581334,315.9828391793649L-289.98355467224303,310.9692904522461L-295.36655121878573,305.86101746682857L-300.65957625254725,300.65957625254833L-305.86101746682743,295.3665512187869L-310.96929045224505,289.98355467224417L-315.9828391793638,284.5122263258145L-320.900136472674,278.9542327991142L-325.7196844757852,273.31126711081293L-330.4400151076876,267.585048162924L-335.0596905099439,261.7773202172101L-339.5773034846748,255.88985236386424L-343.9914779232051,249.92443798262767L-348.3008692252397,243.88289419650914L-352.504164708442,237.76706131827177L-356.60008400828957,231.57880228985556L-360.58737946808566,225.32000211490762L-364.46483651900735,218.99256728459167L-368.2312740500753,212.5984251968522L-371.8855447679311,206.13952356931054L-375.4265355463143,199.61782984597127L-378.85316776513173,193.0353305979196L-382.16439763901485,186.39403091819256L-385.3592165352674,179.6959538110083L-388.43665128110484,172.94313957553945L-391.39576446009175,166.13764518441806L-394.2356546976881,159.281543657162L-396.9554569358171,152.37692342871298L-399.55434269636953,145.4258877132792L-402.0315203335668,138.43055386367573L-404.38623527510373,131.39305272635852L-406.6177702519984,124.31552799234777L-408.7254455170796,117.20013554423899L-410.70861905204396,110.04904279950021L-412.5666867630213,102.86442805025573L-414.29908266458744,95.64847979975703L-415.9052790521686,88.40339609574369L-417.3847866627856,81.13138386089666L-418.73715482408784,73.83465822058825L-419.9619715916328,66.51544182813343L-421.05886387436794,59.175964187748235L-422.0274975482782,51.818460975421004L-422.867577558163,44.445173357903954L-423.5788480075135,37.05834731003203L-424.16109223646043,29.6602329305772L-424.61413288777135,22.253083756846586L-424.9378319608752,14.839156078233172L-425.13209085389855,7.4207082489281975L-425.1968503937008,4.583879595913991e-12L-425.1320908538987,-7.420708248919031L-424.93783196087554,-14.839156078224011L-424.61413288777186,-22.25308375683743L-424.16109223646106,-29.660232930568053L-423.5788480075143,-37.0583473100229L-422.86757755816404,-44.44517335789484L-422.0274975482793,-51.8184609754119L-421.0588638743692,-59.175964187739154L-419.9619715916342,-66.51544182812438L-418.73715482408943,-73.83465822057921L-417.3847866627873,-81.13138386088767L-415.9052790521705,-88.40339609573472L-414.2990826645895,-95.64847979974809L-412.56668676302354,-102.86442805024683L-410.70861905204634,-110.04904279949137L-408.7254455170821,-117.20013554423018L-406.61777025200115,-124.31552799233901L-404.38623527510657,-131.3930527263498L-402.0315203335698,-138.4305538636671L-399.55434269637266,-145.42588771327058L-396.95545693582034,-152.37692342870443L-394.2356546976916,-159.2815436571535L-391.39576446009534,-166.1376451844096L-388.4366512811086,-172.94313957553106L-385.35921653527134,-179.695953811L-382.16439763901883,-186.3940309181843L-378.85316776513594,-193.03533059791144L-375.4265355463187,-199.6178298459632L-371.8855447679355,-206.13952356930253L-368.23127405007983,-212.59842519684423L-364.46483651901207,-218.99256728458383L-360.5873794680905,-225.3200021148999L-356.6000840082946,-231.57880228984786L-352.5041647084471,-237.76706131826415L-348.3008692252449,-243.88289419650164L-343.9914779232105,-249.9244379826202L-339.57730348468033,-255.8898523638569L-335.0596905099496,-261.7773202172029L-330.4400151076934,-267.5850481629169L-325.71968447579104,-273.31126711080594L-320.90013647268,-278.9542327991073L-315.98283917936993,-284.5122263258077L-310.96929045225136,-289.98355467223746L-305.86101746683386,-295.3665512187803L-300.6595762525537,-300.65957625254185L-295.3665512187923,-305.86101746682215L-289.98355467224974,-310.96929045223993L-284.51222632582017,-315.98283917935873L-278.9542327991199,-320.90013647266903L-273.31126711081873,-325.7196844757803L-267.5850481629299,-330.4400151076828L-261.77732021721613,-335.0596905099393L-255.88985236387026,-339.57730348467027L-249.92443798263375,-343.99147792320065L-243.88289419651534,-348.3008692252353L-237.76706131827805,-352.5041647084377L-231.57880228986193,-356.6000840082855L-225.3200021149141,-360.5873794680816L-218.99256728459818,-364.4648365190034L-212.59842519685876,-368.2312740500715L-206.13952356931716,-371.8855447679274L-199.61782984597795,-375.4265355463108L-193.03533059792636,-378.8531677651283L-186.39403091819938,-382.16439763901155L-179.6959538110152,-385.35921653526424L-172.94313957554638,-388.4366512811018L-166.13764518442505,-391.39576446008874L-159.281543657169,-394.2356546976853L-152.37692342872006,-396.95545693581437L-145.42588771328633,-399.5543426963669L-138.43055386368292,-402.03152033356434L-131.39305272636574,-404.3862352751014L-124.31552799235502,-406.6177702519962L-117.20013554424628,-408.7254455170775L-110.04904279950753,-410.70861905204197L-102.86442805026309,-412.5666867630195L-95.64847979976442,-414.29908266458574L-88.4033960957511,-415.905279052167L-81.13138386090411,-417.3847866627841L-73.8346582205957,-418.73715482408653L-66.51544182814094,-419.9619715916316L-59.17596418775574,-421.0588638743669L-51.81846097542853,-422.02749754827727L-44.4451733579115,-422.8675775581623L-37.058347310039586,-423.5788480075128L-29.66023293058476,-424.16109223645987L-22.253083756854153,-424.61413288777095L-14.839156078240746,-424.937831960875L-7.420708248935775,-425.13209085389843L-1.2162928726889056e-11,-425.1968503937008L7.4207082489114535,-425.13209085389883L14.839156078216435,-424.9378319608758L22.25308375682986,-424.6141328877722L29.660232930560497,-424.16109223646157L37.05834731001535,-423.578848007515L44.445173357887306,-422.8675775581648L51.818460975404385,-422.0274975482802L59.17596418773165,-421.0588638743703L66.5154418281169,-419.9619715916354L73.83465822057175,-418.73715482409074L81.13138386088023,-417.38478666278877L88.4033960957273,-415.9052790521721L95.6484797997407,-414.2990826645912L102.86442805023948,-412.56668676302536L110.04904279948406,-410.7086190520483L117.20013554422289,-408.7254455170842L124.31552799233174,-406.61777025200337L131.39305272634257,-404.3862352751089L138.4305538636599,-402.0315203335723L145.42588771326345,-399.5543426963753L152.37692342869735,-396.95545693582307L159.28154365714647,-394.2356546976944L166.13764518440263,-391.39576446009823L172.94313957552416,-388.43665128111166L179.69595381099313,-385.3592165352745L186.39403091817752,-382.1643976390222L193.03533059790468,-378.8531677651394L199.6178298459565,-375.4265355463222L206.13952356929587,-371.88554476793917L212.59842519683767,-368.23127405008364L218.99256728457732,-364.464836519016L225.32000211489347,-360.5873794680945L231.57880228984152,-356.60008400829867L237.76706131825784,-352.50416470845136L243.8828941964954,-348.3008692252493L249.9244379826141,-343.9914779232149L255.88985236385088,-339.57730348468493L261.7773202171969,-335.05969050995424L267.585048162911,-330.4400151076982L273.31126711080015,-325.71968447579593L278.95423279910153,-320.90013647268495L284.5122263258021,-315.982839179375L289.98355467223195,-310.9692904522565L295.3665512187748,-305.8610174668391L300.6595762525365,-300.6595762525591L305.8610174668169,-295.3665512187978L310.9692904522347,-289.98355467225525L315.9828391793536,-284.5122263258258L320.90013647266403,-278.95423279912563L325.7196844757754,-273.31126711082453L330.44001510767805,-267.5850481629358L335.0596905099346,-261.7773202172221L339.5773034846657,-255.88985236387632L343.9914779231962,-249.9244379826399L348.300869225231,-243.88289419652156L352.5041647084335,-237.7670613182843L356.60008400828127,-231.57880228986826L360.58737946807764,-225.32000211492053L364.46483651899956,-218.9925672846047L368.23127405006767,-212.59842519686532L371.8855447679237,-206.1395235693238L375.42653554630726,-199.61782984598466L378.8531677651249,-193.0353305979331L382.1643976390082,-186.3940309182062L385.35921653526106,-179.69595381102204L388.4366512810987,-172.9431395755533L391.3957644600858,-166.13764518443202L394.23565469768243,-159.28154365717603L396.95545693581164,-152.37692342872714L399.55434269636436,-145.42588771329343L402.0315203335619,-138.43055386369008L404.38623527509907,-131.39305272637293L406.617770251994,-124.31552799236226L408.7254455170754,-117.20013554425357L410.70861905204,-110.04904279951488L412.56668676301763,-102.86442805027043L414.29908266458403,-95.64847979977179L415.90527905216544,-88.40339609575851L417.3847866627827,-81.13138386091154L418.7371548240852,-73.83465822060317L419.9619715916304,-66.51544182814841L421.05886387436584,-59.17596418776324L422.02749754827636,-51.818460975436054L422.8675775581615,-44.44517335791903L423.5788480075122,-37.05834731004713L424.16109223645935,-29.66023293059232L424.61413288777055,-22.25308375686172L424.9378319608747,-14.839156078248323L425.13209085389826,-7.420708248943353L425.1968503937008,-1.974197785786412e-11L425.1968503937008,-1.0414319236843634e-13"/><path d="M103.50000000000001,0L103.48423644868652,1.8063240662588438L103.43695059647642,3.6120979087088507L103.3581568470984,5.4167714711446875L103.24787920189182,7.21979503251697L103.10615125249568,9.02061937438262L102.9330161706163,10.818695948202134L102.72852669487683,12.613477042432764L102.49274511475255,14.404415949366776L102.22574325159677,16.190967131663896L101.92760243676355,17.97258638852729L101.59841348683324,19.74873102147239L101.2382766759489,21.518859999638092L100.84730170527186,23.28243412459003L100.42560766956565,25.038916194565612L99.97332302091858,26.7877711681109L99.49058552961601,28.528466327059416L98.97754224217418,30.26047143880326L98.4343494365484,31.983258917807067L97.86117257452929,33.696303986315726L97.25818625134153,35.399084834206725L96.6255741424604,37.091082777938595L95.9635289476625,38.77178241854691L95.27225233232758,40.440671798639855L94.5519548660092,42.09724255834534L93.80285595829326,43.74099009016241L93.02518379196378,45.37141369266954L92.21917525349608,46.988016723043124L91.38507586089894,48.59030674833973L90.52313968892746,50.17779569549591L89.6336292916894,51.75000000000003L88.71681562266862,53.30644075319065L87.77297795219009,54.84664384813675L86.80240378235138,56.37014012405535L85.80538875944681,57.876465509222335L84.78223658391065,59.36516116233331L83.73325891780705,60.83577361227101L82.65877528989479,62.287854896237036L81.5591129982957,63.720962696205675L80.43460701079647,65.13466047365823L79.2855998628142,66.52851760255687L78.11244155305688,67.90210950051755L76.91548943691028,69.25501775814189L75.69510811758411,70.58683026646865L74.45166933505037,71.89714134250627L73.18555185280763,73.18555185280773L71.89714134250617,74.45166933505045L70.58683026646855,75.6951081175842L69.25501775814178,76.91548943691036L67.90210950051745,78.11244155305695L66.52851760255676,79.2855998628143L65.13466047365812,80.43460701079654L63.720962696205575,81.55911299829579L62.28785489623694,82.65877528989488L60.835773612270906,83.73325891780712L59.36516116233321,84.7822365839107L57.876465509222236,85.80538875944687L56.37014012405523,86.80240378235145L54.84664384813664,87.77297795219016L53.30644075319053,88.71681562266869L51.749999999999915,89.63362929168946L50.177795695495796,90.52313968892753L48.59030674833961,91.38507586089901L46.988016723043,92.21917525349613L45.37141369266942,93.02518379196384L43.74099009016229,93.80285595829332L42.097242558345215,94.55195486600925L40.44067179863973,95.27225233232764L38.77178241854679,95.96352894766255L37.09108277793847,96.62557414246044L35.3990848342066,97.25818625134157L33.6963039863156,97.86117257452935L31.98325891780694,98.43434943654844L30.260471438803126,98.97754224217422L28.528466327059284,99.49058552961606L26.78777116811077,99.97332302091861L25.038916194565477,100.42560766956568L23.28243412458989,100.8473017052719L21.51885999963795,101.23827667594892L19.748731021472242,101.59841348683325L17.97258638852714,101.92760243676358L16.190967131663744,102.2257432515968L14.40441594936662,102.49274511475255L12.613477042432608,102.72852669487686L10.818695948201974,102.93301617061633L9.020619374382457,103.10615125249569L7.219795032516802,103.24787920189183L5.416771471144518,103.35815684709841L3.6120979087086784,103.43695059647642L1.8063240662586688,103.48423644868652L-1.775153856923384e-13,103.50000000000001L-1.8063240662590239,103.4842364486865L-3.6120979087090332,103.43695059647641L-5.416771471144872,103.3581568470984L-7.2197950325171565,103.2478792018918L-9.020619374382811,103.10615125249565L-10.818695948202327,102.93301617061628L-12.61347704243296,102.72852669487682L-14.404415949366971,102.49274511475251L-16.190967131664095,102.22574325159674L-17.972586388527493,101.92760243676351L-19.74873102147259,101.5984134868332L-21.518859999638295,101.23827667594885L-23.282434124590235,100.84730170527182L-25.038916194565818,100.42560766956561L-26.787771168111114,99.97332302091853L-28.52846632705963,99.49058552961596L-30.260471438803467,98.97754224217412L-31.983258917807273,98.43434943654833L-33.69630398631593,97.86117257452922L-35.39908483420694,97.25818625134146L-37.091082777938794,96.62557414246031L-38.77178241854712,95.96352894766243L-40.440671798640054,95.2722523323275L-42.09724255834555,94.55195486600911L-43.74099009016259,93.8028559582932L-45.3714136926697,93.02518379196371L-46.98801672304326,92.219175253496L-48.590306748339835,91.38507586089888L-50.17779569549601,90.52313968892742L-51.750000000000114,89.63362929168935L-53.30644075319069,88.71681562266858L-54.846643848136786,87.77297795219006L-56.370140124055354,86.80240378235136L-57.876465509222335,85.80538875944681L-59.36516116233329,84.78223658391065L-60.83577361227097,83.73325891780708L-62.28785489623698,82.65877528989485L-63.720962696205596,81.55911299829576L-65.13466047365813,80.43460701079654L-66.52851760255676,79.2855998628143L-67.90210950051743,78.11244155305698L-69.25501775814173,76.9154894369104L-70.5868302664685,75.69510811758425L-71.8971413425061,74.45166933505052L-73.18555185280755,73.1855518528078L-74.45166933505025,71.89714134250639L-75.695108117584,70.58683026646878L-76.91548943691014,69.25501775814202L-78.11244155305673,67.90210950051772L-79.28559986281405,66.52851760255705L-80.4346070107963,65.13466047365843L-81.55911299829552,63.72096269620591L-82.6587752898946,62.28785489623729L-83.73325891780684,60.83577361227129L-84.78223658391043,59.36516116233361L-85.80538875944659,57.876465509222655L-86.80240378235116,56.37014012405568L-87.77297795218986,54.846643848137106L-88.71681562266839,53.306440753191026L-89.63362929168916,51.75000000000044L-90.52313968892723,50.17779569549634L-91.3850758608987,48.59030674834018L-92.21917525349582,46.9880167230436L-93.02518379196354,45.37141369267004L-93.80285595829302,43.740990090162946L-94.55195486600896,42.0972425583459L-95.27225233232734,40.44067179864043L-95.96352894766225,38.77178241854752L-96.62557414246015,37.09108277793922L-97.2581862513413,35.399084834207386L-97.86117257452906,33.69630398631641L-98.43434943654817,31.983258917807774L-98.97754224217397,30.26047143880399L-99.4905855296158,28.528466327060176L-99.97332302091837,26.787771168111682L-100.42560766956545,25.03891619456642L-100.84730170527166,23.282434124590857L-101.23827667594873,21.518859999638945L-101.59841348683307,19.748731021473265L-101.9276024367634,17.972586388528192L-102.22574325159663,16.190967131664816L-102.49274511475241,14.404415949367717L-102.72852669487672,12.61347704243373L-102.9330161706162,10.818695948203123L-103.1061512524956,9.020619374383632L-103.24787920189175,7.219795032518001L-103.35815684709836,5.416771471145741L-103.43695059647638,3.612097908709925L-103.48423644868649,1.806324066259939L-103.50000000000001,1.1157926916387307e-12L-103.48423644868652,-1.8063240662577076L-103.43695059647646,-3.612097908707695L-103.35815684709847,-5.4167714711435115L-103.2478792018919,-7.2197950325157745L-103.10615125249578,-9.02061937438141L-102.93301617061644,-10.818695948200903L-102.728526694877,-12.613477042431516L-102.49274511475272,-14.404415949365507L-102.22574325159697,-16.190967131662614L-101.92760243676378,-17.972586388525993L-101.5984134868335,-19.748731021471073L-101.23827667594918,-21.518859999636764L-100.84730170527217,-23.282434124588683L-100.42560766956599,-25.03891619456425L-99.97332302091895,-26.787771168109526L-99.49058552961641,-28.528466327058034L-98.97754224217462,-30.260471438801858L-98.43434943654886,-31.983258917805653L-97.86117257452979,-33.6963039863143L-97.25818625134205,-35.39908483420528L-96.62557414246095,-37.09108277793714L-95.9635289476631,-38.77178241854545L-95.27225233232821,-40.44067179863838L-94.55195486600985,-42.09724255834386L-93.80285595829397,-43.74099009016092L-93.02518379196451,-45.371413692668035L-92.21917525349684,-46.98801672304161L-91.38507586089975,-48.590306748338215L-90.52313968892831,-50.177795695494396L-89.63362929169028,-51.74999999999851L-88.71681562266953,-53.30644075318912L-87.77297795219104,-54.84664384813522L-86.80240378235237,-56.370140124053805L-85.80538875944784,-57.87646550922081L-84.78223658391171,-59.36516116233178L-83.73325891780816,-60.83577361226947L-82.65877528989594,-62.28785489623551L-81.5591129982969,-63.72096269620415L-80.4346070107977,-65.1346604736567L-79.28559986281547,-66.52851760255535L-78.1124415530582,-67.90210950051605L-76.91548943691164,-69.25501775814037L-75.69510811758552,-70.58683026646715L-74.4516693350518,-71.89714134250478L-73.18555185280913,-73.18555185280624L-71.89714134250771,-74.45166933504898L-70.58683026647013,-75.69510811758273L-69.2550177581434,-76.91548943690891L-67.9021095005191,-78.11244155305552L-66.52851760255847,-79.28559986281286L-65.13466047365986,-80.43460701079513L-63.720962696207366,-81.5591129982944L-62.28785489623876,-82.6587752898935L-60.83577361227277,-83.73325891780576L-59.36516116233511,-84.78223658390938L-57.87646550922418,-85.80538875944555L-56.37014012405723,-86.80240378235015L-54.84664384813868,-87.77297795218888L-53.30644075319261,-88.71681562266743L-51.75000000000204,-89.63362929168824L-50.17779569549796,-90.52313968892634L-48.59030674834181,-91.38507586089783L-46.98801672304524,-92.219175253495L-45.3714136926717,-93.02518379196273L-43.740990090164615,-93.80285595829224L-42.09724255834759,-94.5519548660082L-40.440671798642136,-95.27225233232662L-38.77178241854923,-95.96352894766157L-37.09108277794095,-96.62557414245948L-35.39908483420912,-97.25818625134066L-33.696303986318156,-97.86117257452847L-31.98325891780953,-98.4343494365476L-30.26047143880575,-98.97754224217343L-28.528466327061953,-99.4905855296153L-26.787771168113462,-99.97332302091789L-25.03891619456821,-100.42560766956501L-23.28243412459266,-100.84730170527125L-21.51885999964075,-101.23827667594833L-19.748731021475077,-101.59841348683271L-17.972586388530008,-101.92760243676307L-16.19096713166664,-102.22574325159634L-14.404415949369545,-102.49274511475215L-12.613477042435562,-102.7285266948765L-10.818695948204958,-102.93301617061601L-9.02061937438547,-103.10615125249542L-7.2197950325198414,-103.24787920189162L-5.416771471147583,-103.35815684709826L-3.612097908711769,-103.43695059647632L-1.8063240662617837,-103.48423644868646L-2.9606595676035777e-12,-103.50000000000001L1.8063240662558633,-103.48423644868656L3.612097908705851,-103.43695059647654L5.4167714711416695,-103.35815684709857L7.219795032513935,-103.24787920189203L9.02061937437957,-103.10615125249595L10.81869594819907,-102.93301617061663L12.613477042429684,-102.72852669487722L14.404415949363681,-102.49274511475298L16.19096713166079,-102.22574325159725L17.972586388524174,-101.92760243676409L19.748731021469265,-101.59841348683385L21.51885999963496,-101.23827667594956L23.282434124586885,-100.84730170527259L25.03891619456246,-100.42560766956643L26.787771168107746,-99.97332302091942L28.528466327056258,-99.49058552961692L30.26047143880009,-98.97754224217516L31.983258917803894,-98.43434943654944L33.69630398631255,-97.8611725745304L35.39908483420355,-97.25818625134268L37.09108277793542,-96.62557414246162L38.77178241854374,-95.96352894766379L40.44067179863668,-95.27225233232892L42.097242558342174,-94.5519548660106L43.74099009015925,-93.80285595829476L45.37141369266638,-93.02518379196533L46.98801672303997,-92.21917525349768L48.59030674833658,-91.38507586090061L50.177795695492776,-90.5231396889292L51.74999999999691,-89.6336292916912L53.30644075318753,-88.7168156226705L54.84664384813366,-87.77297795219202L56.37014012405226,-86.80240378235338L57.876465509219265,-85.80538875944887L59.36516116233027,-84.78223658391278L60.83577361226799,-83.73325891780924L62.28785489623404,-82.65877528989706L63.72096269620269,-81.55911299829803L65.13466047365526,-80.43460701079887L66.52851760255393,-79.28559986281667L67.90210950051464,-78.11244155305941L69.255017758139,-76.91548943691286L70.5868302664658,-75.69510811758677L71.89714134250345,-74.45166933505308L73.18555185280493,-73.18555185281043L74.4516693350477,-71.89714134250904L75.69510811758147,-70.58683026647148L76.91548943690768,-69.25501775814477L78.11244155305431,-67.90210950052051L79.28559986281168,-66.52851760255987L80.43460701079397,-65.1346604736613L81.55911299829326,-63.720962696208815L82.65877528989239,-62.28785489624023L83.73325891780468,-60.83577361227427L84.78223658390831,-59.365161162336626L85.80538875944454,-57.87646550922572L86.80240378234915,-56.37014012405877L87.7729779521879,-54.84664384814024L88.71681562266649,-53.306440753194195L89.63362929168731,-51.75000000000364L90.52313968892544,-50.177795695499576L91.38507586089696,-48.59030674834344L92.21917525349416,-46.98801672304689L93.02518379196192,-45.371413692673364L93.80285595829146,-43.740990090166285L94.55195486600745,-42.09724255834927L95.27225233232589,-40.44067179864383L95.96352894766088,-38.771782418550934L96.62557414245883,-37.09108277794267L97.25818625134004,-35.399084834210846L97.86117257452787,-33.6963039863199L98.43434943654704,-31.983258917811284L98.97754224217289,-30.260471438807517L99.49058552961478,-28.528466327063725L99.9733230209174,-26.78777116811525L100.42560766956456,-25.038916194569996L100.84730170527084,-23.282434124594452L101.23827667594794,-21.518859999642554L101.59841348683236,-19.748731021476885L101.92760243676275,-17.972586388531823L102.22574325159604,-16.19096713166846L102.4927451147519,-14.404415949371371L102.72852669487628,-12.613477042437394L102.93301617061582,-10.818695948206793L103.10615125249527,-9.020619374387307L103.2478792018915,-7.219795032521681L103.35815684709816,-5.416771471149425L103.43695059647625,-3.612097908713613L103.48423644868642,-1.8063240662636282L103.50000000000001,-4.805526443568425e-12L103.50000000000001,-2.5350188742350214e-14"/></g></svg>