  0
SECTION
  2
HEADER
  9
$ACADVER
  1
AC1014
  9
$HANDSEED
  5
FFFF
  9
$MEASUREMENT
 70
     1
  0
ENDSEC
  0
SECTION
  2
TABLES
  0
TABLE
  2
VPORT
  5
8
330
0
100
AcDbSymbolTable
 70
     4
  0
VPORT
  5
2E
330
8
100
AcDbSymbolTableRecord
100
AcDbViewportTableRecord
  2
*ACTIVE
 70
     0
 10
0.0
 20
0.0
 11
1.0
 21
1.0
 12
210.0
 22
148.5
 13
0.0
 23
0.0
 14
10.0
 24
10.0
 15
10.0
 25
10.0
 16
0.0
 26
0.0
 36
1.0
 17
0.0
 27
0.0
 37
0.0
 40
341.0
 41
1.24
 42
50.0
 43
0.0
 44
0.0
 50
0.0
 51
0.0
 71
     0
 72
   100
 73
     1
 74
     3
 75
     0
 76
     0
 77
     0
 78
     0
  0
ENDTAB
  0
TABLE
  2
LTYPE
  5
5
330
0
100
AcDbSymbolTable
 70
     1
  0
LTYPE
  5
14
330
5
100
AcDbSymbolTableRecord
100
AcDbLinetypeTableRecord
  2
BYBLOCK
 70
     0
  3

 72
    65
 73
     0
 40
0.0
  0
LTYPE
  5
15
330
5
100
AcDbSymbolTableRecord
100
AcDbLinetypeTableRecord
  2
BYLAYER
 70
     0
  3

 72
    65
 73
     0
 40
0.0
  0
LTYPE
  5
16
330
5
100
AcDbSymbolTableRecord
100
AcDbLinetypeTableRecord
  2
CONTINUOUS
 70
     0
  3
Solid line
 72
    65
 73
     0
 40
0.0
  0
ENDTAB
  0
TABLE
  2
LAYER
  5
2
100
AcDbSymbolTable
 70
1
  0
LAYER
  5
50
100
AcDbSymbolTableRecord
100
AcDbLayerTableRecord
  2
0
 70
0
  6
CONTINUOUS
  0
ENDTAB
  0
TABLE
  2
STYLE
  5
3
330
0
100
AcDbSymbolTable
 70
     1
  0
STYLE
  5
11
330
3
100
AcDbSymbolTableRecord
100
AcDbTextStyleTableRecord
  2
STANDARD
 70
     0
 40
0.0
 41
1.0
 50
0.0
 71
     0
 42
2.5
  3
txt
  4

  0
ENDTAB
  0
TABLE
  2
VIEW
  5
6
330
0
100
AcDbSymbolTable
 70
     0
  0
ENDTAB
  0
TABLE
  2
UCS
  5
7
330
0
100
AcDbSymbolTable
 70
     0
  0
ENDTAB
  0
TABLE
  2
APPID
  5
9
330
0
100
AcDbSymbolTable
 70
     2
  0
APPID
  5
12
330
9
100
AcDbSymbolTableRecord
100
AcDbRegAppTableRecord
  2
ACAD
 70
     0
  0
ENDTAB
  0
TABLE
  2
DIMSTYLE
  5
A
330
0
100
AcDbSymbolTable
 70
     1
  0
DIMSTYLE
105
27
330
A
100
AcDbSymbolTableRecord
100
AcDbDimStyleTableRecord
  2
ISO-25
 70
     0
  3

  4

  5

  6

  7

 40
1.0
 41
2.5
 42
0.625
 43
3.75
 44
1.25
 45
0.0
 46
0.0
 47
0.0
 48
0.0
140
2.5
141
2.5
142
0.0
143
0.03937007874016
144
1.0
145
0.0
146
1.0
147
0.625
 71
     0
 72
     0
 73
     0
 74
     0
 75
     0
 76
     0
 77
     1
 78
     8
170
     0
171
     3
172
     1
173
     0
174
     0
175
     0
176
     0
177
     0
178
     0
270
     2
271
     2
272
     2
273
     2
274
     3
340
11
275
     0
280
     0
281
     0
282
     0
283
     0
284
     8
285
     0
286
     0
287
     3
288
     0
  0
ENDTAB
  0
TABLE
  2
BLOCK_RECORD
  5
1
330
0
100
AcDbSymbolTable
 70
     1
  0
BLOCK_RECORD
  5
1F
330
1
100
AcDbSymbolTableRecord
100
AcDbBlockTableRecord
  2
*MODEL_SPACE
  0
BLOCK_RECORD
  5
1B
330
1
100
AcDbSymbolTableRecord
100
AcDbBlockTableRecord
  2
*PAPER_SPACE
  0
ENDTAB
  0
ENDSEC
  0
SECTION
  2
BLOCKS
  0
BLOCK
  5
20
330
1F
100
AcDbEntity
  8
0
100
AcDbBlockBegin
  2
*MODEL_SPACE
 70
     0
 10
0.0
 20
0.0
 30
0.0
  3
*MODEL_SPACE
  1

  0
ENDBLK
  5
21
330
1F
100
AcDbEntity
  8
0
100
AcDbBlockEnd
  0
BLOCK
  5
1C
330
1B
100
AcDbEntity
 67
     1
  8
0
100
AcDbBlockBegin
  2
*PAPER_SPACE
  1

  0
ENDBLK
  5
1D
330
1B
100
AcDbEntity
 67
     1
  8
0
100
AcDbBlockEnd
  0
ENDSEC
  0
SECTION
  2
ENTITIES
  0
SPLINE
  5
100
100
AcDbEntity
  8
0
 62
7
100
AcDbSpline
 70
8
 71
3
 72
8
 73
4
 74
0
 40
0
 40
0
 40
0
 40
0
 40
1
 40
1
 40
1
 40
1
 10
174.446702
 20
88.157044
 30
0.0
 10
174.446702
 20
119.060517
 30
0.0
 10
157.959895
 20
147.616504
 30
0.0
 10
131.196702
 20
163.068241
 30
0.0
  0
SPLINE
  5
101
100
AcDbEntity
  8
0
 62
7
100
AcDbSpline
 70
8
 71
3
 72
8
 73
4
 74
0
 40
0
 40
0
 40
0
 40
0
 40
1
 40
1
 40
1
 40
1
 10
131.196702
 20
163.068241
 30
0.0
 10
104.433509
 20
178.519978
 30
0.0
 10
71.459895
 20
178.519978
 30
0.0
 10
44.696702
 20
163.068241
 30
0.0
  0
SPLINE
  5
102
100
AcDbEntity
  8
0
 62
7
100
AcDbSpline
 70
8
 71
3
 72
8
 73
4
 74
0
 40
0
 40
0
 40
0
 40
0
 40
1
 40
1
 40
1
 40
1
 10
44.696702
 20
163.068241
 30
0.0
 10
17.933509
 20
147.616504
 30
0.0
 10
1.446702
 20
119.060517
 30
0.0
 10
1.446702
 20
88.157044
 30
0.0
  0
SPLINE
  5
103
100
AcDbEntity
  8
0
 62
7
100
AcDbSpline
 70
8
 71
3
 72
8
 73
4
 74
0
 40
0
 40
0
 40
0
 40
0
 40
1
 40
1
 40
1
 40
1
 10
1.446702
 20
88.157044
 30
0.0
 10
1.446702
 20
57.253570
 30
0.0
 10
17.933509
 20
28.697583
 30
0.0
 10
44.696702
 20
13.245846
 30
0.0
  0
SPLINE
  5
104
100
AcDbEntity
  8
0
 62
7
100
AcDbSpline
 70
8
 71
3
 72
8
 73
4
 74
0
 40
0
 40
0
 40
0
 40
0
 40
1
 40
1
 40
1
 40
1
 10
44.696702
 20
13.245846
 30
0.0
 10
71.459895
 20
-2.205890
 30
0.0
 10
104.433509
 20
-2.205890
 30
0.0
 10
131.196702
 20
13.245846
 30
0.0
  0
SPLINE
  5
105
100
AcDbEntity
  8
0
 62
7
100
AcDbSpline
 70
8
 71
3
 72
8
 73
4
 74
0
 40
0
 40
0
 40
0
 40
0
 40
1
 40
1
 40
1
 40
1
 10
131.196702
 20
13.245846
 30
0.0
 10
157.959895
 20
28.697583
 30
0.0
 10
174.446702
 20
57.253570
 30
0.0
 10
174.446702
 20
88.157044
 30
0.0
  0
LINE
  5
106
100
AcDbEntity
  8
0
 62
7
100
AcDbLine
 10
174.446702
 20
88.157044
 30
0.0
 11
174.446702
 21
88.157044
 31
0.0
  0
SPLINE
  5
107
100
AcDbEntity
  8
0
 62
7
100
AcDbSpline
 70
8
 71
3
 72
8
 73
4
 74
0
 40
0
 40
0
 40
0
 40
0
 40
1
 40
1
 40
1
 40
1
 10
174.446702
 20
88.157044
 30
0.0
 10
174.446702
 20
119.060517
 30
0.0
 10
157.959895
 20
147.616504
 30
0.0
 10
131.196702
 20
163.068241
 30
0.0
  0
SPLINE
  5
108
100
AcDbEntity
  8
0
 62
7
100
AcDbSpline
 70
8
 71
3
 72
8
 73
4
 74
0
 40
0
 40
0
 40
0
 40
0
 40
1
 40
1
 40
1
 40
1
 10
131.196702
 20
163.068241
 30
0.0
 10
104.433509
 20
178.519978
 30
0.0
 10
71.459895
 20
178.519978
 30
0.0
 10
44.696702
 20
163.068241
 30
0.0
  0
SPLINE
  5
109
100
AcDbEntity
  8
0
 62
7
100
AcDbSpline
 70
8
 71
3
 72
8
 73
4
 74
0
 40
0
 40
0
 40
0
 40
0
 40
1
 40
1
 40
1
 40
1
 10
44.696702
 20
163.068241
 30
0.0
 10
17.933509
 20
147.616504
 30
0.0
 10
1.446702
 20
119.060517
 30
0.0
 10
1.446702
 20
88.157044
 30
0.0
  0
SPLINE
  5
10a
100
AcDbEntity
  8
0
 62
7
100
AcDbSpline
 70
8
 71
3
 72
8
 73
4
 74
0
 40
0
 40
0
 40
0
 40
0
 40
1
 40
1
 40
1
 40
1
 10
1.446702
 20
88.157044
 30
0.0
 10
1.446702
 20
57.253570
 30
0.0
 10
17.933509
 20
28.697583
 30
0.0
 10
44.696702
 20
13.245846
 30
0.0
  0
SPLINE
  5
10b
100
AcDbEntity
  8
0
 62
7
100
AcDbSpline
 70
8
 71
3
 72
8
 73
4
 74
0
 40
0
 40
0
 40
0
 40
0
 40
1
 40
1
 40
1
 40
1
 10
44.696702
 20
13.245846
 30
0.0
 10
71.459895
 20
-2.205890
 30
0.0
 10
104.433509
 20
-2.205890
 30
0.0
 10
131.196702
 20
13.245846
 30
0.0
  0
SPLINE
  5
10c
100
AcDbEntity
  8
0
 62
7
100
AcDbSpline
 70
8
 71
3
 72
8
 73
4
 74
0
 40
0
 40
0
 40
0
 40
0
 40
1
 40
1
 40
1
 40
1
 10
131.196702
 20
13.245846
 30
0.0
 10
157.959895
 20
28.697583
 30
0.0
 10
174.446702
 20
57.253570
 30
0.0
 10
174.446702
 20
88.157044
 30
0.0
  0
LINE
  5
10d
100
AcDbEntity
  8
0
 62
7
100
AcDbLine
 10
174.446702
 20
88.157044
 30
0.0
 11
174.446702
 21
88.157044
 31
0.0
  0
SPLINE
  5
10e
100
AcDbEntity
  8
0
 62
7
100
AcDbSpline
 70
8
 71
3
 72
8
 73
4
 74
0
 40
0
 40
0
 40
0
 40
0
 40
1
 40
1
 40
1
 40
1
 10
174.446702
 20
88.157044
 30
0.0
 10
174.446702
 20
119.060517
 30
0.0
 10
157.959895
 20
147.616504
 30
0.0
 10
131.196702
 20
163.068241
 30
0.0
  0
SPLINE
  5
10f
100
AcDbEntity
  8
0
 62
7
100
AcDbSpline
 70
8
 71
3
 72
8
 73
4
 74
0
 40
0
 40
0
 40
0
 40
0
 40
1
 40
1
 40
1
 40
1
 10
131.196702
 20
163.068241
 30
0.0
 10
104.433509
 20
178.519978
 30
0.0
 10
71.459895
 20
178.519978
 30
0.0
 10
44.696702
 20
163.068241
 30
0.0
  0
SPLINE
  5
110
100
AcDbEntity
  8
0
 62
7
100
AcDbSpline
 70
8
 71
3
 72
8
 73
4
 74
0
 40
0
 40
0
 40
0
 40
0
 40
1
 40
1
 40
1
 40
1
 10
44.696702
 20
163.068241
 30
0.0
 10
17.933509
 20
147.616504
 30
0.0
 10
1.446702
 20
119.060517
 30
0.0
 10
1.446702
 20
88.157044
 30
0.0
  0
SPLINE
  5
111
100
AcDbEntity
  8
0
 62
7
100
AcDbSpline
 70
8
 71
3
 72
8
 73
4
 74
0
 40
0
 40
0
 40
0
 40
0
 40
1
 40
1
 40
1
 40
1
 10
1.446702
 20
88.157044
 30
0.0
 10
1.446702
 20
57.253570
 30
0.0
 10
17.933509
 20
28.697583
 30
0.0
 10
44.696702
 20
13.245846
 30
0.0
  0
SPLINE
  5
112
100
AcDbEntity
  8
0
 62
7
100
AcDbSpline
 70
8
 71
3
 72
8
 73
4
 74
0
 40
0
 40
0
 40
0
 40
0
 40
1
 40
1
 40
1
 40
1
 10
44.696702
 20
13.245846
 30
0.0
 10
71.459895
 20
-2.205890
 30
0.0
 10
104.433509
 20
-2.205890
 30
0.0
 10
131.196702
 20
13.245846
 30
0.0
  0
SPLINE
  5
113
100
AcDbEntity
  8
0
 62
7
100
AcDbSpline
 70
8
 71
3
 72
8
 73
4
 74
0
 40
0
 40
0
 40
0
 40
0
 40
1
 40
1
 40
1
 40
1
 10
131.196702
 20
13.245846
 30
0.0
 10
157.959895
 20
28.697583
 30
0.0
 10
174.446702
 20
57.253570
 30
0.0
 10
174.446702
 20
88.157044
 30
0.0
  0
LINE
  5
114
100
AcDbEntity
  8
0
 62
7
100
AcDbLine
 10
174.446702
 20
88.157044
 30
0.0
 11
174.446702
 21
88.157044
 31
0.0
  0
SPLINE
  5
115
100
AcDbEntity
  8
0
 62
7
100
AcDbSpline
 70
8
 71
3
 72
8
 73
4
 74
0
 40
0
 40
0
 40
0
 40
0
 40
1
 40
1
 40
1
 40
1
 10
68.696702
 20
129.293251
 30
0.0
 10
68.696702
 20
130.900946
 30
0.0
 10
67.839007
 20
132.386517
 30
0.0
 10
66.446702
 20
133.190365
 30
0.0
  0
SPLINE
  5
116
100
AcDbEntity
  8
0
 62
7
100
AcDbSpline
 70
8
 71
3
 72
8
 73
4
 74
0
 40
0
 40
0
 40
0
 40
0
 40
1
 40
1
 40
1
 40
1
 10
66.446702
 20
133.190365
 30
0.0
 10
65.054397
 20
133.994212
 30
0.0
 10
63.339007
 20
133.994212
 30
0.0
 10
61.946702
 20
133.190365
 30
0.0
  0
SPLINE
  5
117
100
AcDbEntity
  8
0
 62
7
100
AcDbSpline
 70
8
 71
3
 72
8
 73
4
 74
0
 40
0
 40
0
 40
0
 40
0
 40
1
 40
1
 40
1
 40
1
 10
61.946702
 20
133.190365
 30
0.0
 10
60.554397
 20
132.386517
 30
0.0
 10
59.696702
 20
130.900946
 30
0.0
 10
59.696702
 20
129.293251
 30
0.0
  0
SPLINE
  5
118
100
AcDbEntity
  8
0
 62
7
100
AcDbSpline
 70
8
 71
3
 72
8
 73
4
 74
0
 40
0
 40
0
 40
0
 40
0
 40
1
 40
1
 40
1
 40
1
 10
59.696702
 20
129.293251
 30
0.0
 10
59.696702
 20
127.685555
 30
0.0
 10
60.554397
 20
126.199984
 30
0.0
 10
61.946702
 20
125.396136
 30
0.0
  0
SPLINE
  5
119
100
AcDbEntity
  8
0
 62
7
100
AcDbSpline
 70
8
 71
3
 72
8
 73
4
 74
0
 40
0
 40
0
 40
0
 40
0
 40
1
 40
1
 40
1
 40
1
 10
61.946702
 20
125.396136
 30
0.0
 10
63.339007
 20
124.592289
 30
0.0
 10
65.054397
 20
124.592289
 30
0.0
 10
66.446702
 20
125.396136
 30
0.0
  0
SPLINE
  5
11a
100
AcDbEntity
  8
0
 62
7
100
AcDbSpline
 70
8
 71
3
 72
8
 73
4
 74
0
 40
0
 40
0
 40
0
 40
0
 40
1
 40
1
 40
1
 40
1
 10
66.446702
 20
125.396136
 30
0.0
 10
67.839007
 20
126.199984
 30
0.0
 10
68.696702
 20
127.685555
 30
0.0
 10
68.696702
 20
129.293251
 30
0.0
  0
LINE
  5
11b
100
AcDbEntity
  8
0
 62
7
100
AcDbLine
 10
68.696702
 20
129.293251
 30
0.0
 11
68.696702
 21
129.293251
 31
0.0
  0
SPLINE
  5
11c
100
AcDbEntity
  8
0
 62
7
100
AcDbSpline
 70
8
 71
3
 72
8
 73
4
 74
0
 40
0
 40
0
 40
0
 40
0
 40
1
 40
1
 40
1
 40
1
 10
53.196702
 20
24.504177
 30
0.0
 10
53.196702
 20
25.218708
 30
0.0
 10
52.815504
 20
25.878962
 30
0.0
 10
52.196702
 20
26.236227
 30
0.0
  0
SPLINE
  5
11d
100
AcDbEntity
  8
0
 62
7
100
AcDbSpline
 70
8
 71
3
 72
8
 73
4
 74
0
 40
0
 40
0
 40
0
 40
0
 40
1
 40
1
 40
1
 40
1
 10
52.196702
 20
26.236227
 30
0.0
 10
51.577900
 20
26.593493
 30
0.0
 10
50.815504
 20
26.593493
 30
0.0
 10
50.196702
 20
26.236227
 30
0.0
  0
SPLINE
  5
11e
100
AcDbEntity
  8
0
 62
7
100
AcDbSpline
 70
8
 71
3
 72
8
 73
4
 74
0
 40
0
 40
0
 40
0
 40
0
 40
1
 40
1
 40
1
 40
1
 10
50.196702
 20
26.236227
 30
0.0
 10
49.577900
 20
25.878962
 30
0.0
 10
49.196702
 20
25.218708
 30
0.0
 10
49.196702
 20
24.504177
 30
0.0
  0
SPLINE
  5
11f
100
AcDbEntity
  8
0
 62
7
100
AcDbSpline
 70
8
 71
3
 72
8
 73
4
 74
0
 40
0
 40
0
 40
0
 40
0
 40
1
 40
1
 40
1
 40
1
 10
49.196702
 20
24.504177
 30
0.0
 10
49.196702
 20
23.789645
 30
0.0
 10
49.577900
 20
23.129391
 30
0.0
 10
50.196702
 20
22.772126
 30
0.0
  0
SPLINE
  5
120
100
AcDbEntity
  8
0
 62
7
100
AcDbSpline
 70
8
 71
3
 72
8
 73
4
 74
0
 40
0
 40
0
 40
0
 40
0
 40
1
 40
1
 40
1
 40
1
 10
50.196702
 20
22.772126
 30
0.0
 10
50.815504
 20
22.414860
 30
0.0
 10
51.577900
 20
22.414860
 30
0.0
 10
52.196702
 20
22.772126
 30
0.0
  0
SPLINE
  5
121
100
AcDbEntity
  8
0
 62
7
100
AcDbSpline
 70
8
 71
3
 72
8
 73
4
 74
0
 40
0
 40
0
 40
0
 40
0
 40
1
 40
1
 40
1
 40
1
 10
52.196702
 20
22.772126
 30
0.0
 10
52.815504
 20
23.129391
 30
0.0
 10
53.196702
 20
23.789645
 30
0.0
 10
53.196702
 20
24.504177
 30
0.0
  0
LINE
  5
122
100
AcDbEntity
  8
0
 62
7
100
AcDbLine
 10
53.196702
 20
24.504177
 30
0.0
 11
53.196702
 21
24.504177
 31
0.0
  0
SPLINE
  5
123
100
AcDbEntity
  8
0
 62
7
100
AcDbSpline
 70
8
 71
3
 72
8
 73
4
 74
0
 40
0
 40
0
 40
0
 40
0
 40
1
 40
1
 40
1
 40
1
 10
68.696702
 20
47.020837
 30
0.0
 10
68.696702
 20
48.628532
 30
0.0
 10
67.839007
 20
50.114104
 30
0.0
 10
66.446702
 20
50.917951
 30
0.0
  0
SPLINE
  5
124
100
AcDbEntity
  8
0
 62
7
100
AcDbSpline
 70
8
 71
3
 72
8
 73
4
 74
0
 40
0
 40
0
 40
0
 40
0
 40
1
 40
1
 40
1
 40
1
 10
66.446702
 20
50.917951
 30
0.0
 10
65.054397
 20
51.721799
 30
0.0
 10
63.339007
 20
51.721799
 30
0.0
 10
61.946702
 20
50.917951
 30
0.0
  0
SPLINE
  5
125
100
AcDbEntity
  8
0
 62
7
100
AcDbSpline
 70
8
 71
3
 72
8
 73
4
 74
0
 40
0
 40
0
 40
0
 40
0
 40
1
 40
1
 40
1
 40
1
 10
61.946702
 20
50.917951
 30
0.0
 10
60.554397
 20
50.114104
 30
0.0
 10
59.696702
 20
48.628532
 30
0.0
 10
59.696702
 20
47.020837
 30
0.0
  0
SPLINE
  5
126
100
AcDbEntity
  8
0
 62
7
100
AcDbSpline
 70
8
 71
3
 72
8
 73
4
 74
0
 40
0
 40
0
 40
0
 40
0
 40
1
 40
1
 40
1
 40
1
 10
59.696702
 20
47.020837
 30
0.0
 10
59.696702
 20
45.413142
 30
0.0
 10
60.554397
 20
43.927570
 30
0.0
 10
61.946702
 20
43.123723
 30
0.0
  0
SPLINE
  5
127
100
AcDbEntity
  8
0
 62
7
100
AcDbSpline
 70
8
 71
3
 72
8
 73
4
 74
0
 40
0
 40
0
 40
0
 40
0
 40
1
 40
1
 40
1
 40
1
 10
61.946702
 20
43.123723
 30
0.0
 10
63.339007
 20
42.319875
 30
0.0
 10
65.054397
 20
42.319875
 30
0.0
 10
66.446702
 20
43.123723
 30
0.0
  0
SPLINE
  5
128
100
AcDbEntity
  8
0
 62
7
100
AcDbSpline
 70
8
 71
3
 72
8
 73
4
 74
0
 40
0
 40
0
 40
0
 40
0
 40
1
 40
1
 40
1
 40
1
 10
66.446702
 20
43.123723
 30
0.0
 10
67.839007
 20
43.927570
 30
0.0
 10
68.696702
 20
45.413142
 30
0.0
 10
68.696702
 20
47.020837
 30
0.0
  0
LINE
  5
129
100
AcDbEntity
  8
0
 62
7
100
AcDbLine
 10
68.696702
 20
47.020837
 30
0.0
 11
68.696702
 21
47.020837
 31
0.0
  0
SPLINE
  5
12a
100
AcDbEntity
  8
0
 62
7
100
AcDbSpline
 70
8
 71
3
 72
8
 73
4
 74
0
 40
0
 40
0
 40
0
 40
0
 40
1
 40
1
 40
1
 40
1
 10
23.808518
 20
77.206631
 30
0.0
 10
23.808518
 20
78.992959
 30
0.0
 10
22.855524
 20
80.643594
 30
0.0
 10
21.308518
 20
81.536758
 30
0.0
  0
SPLINE
  5
12b
100
AcDbEntity
  8
0
 62
7
100
AcDbSpline
 70
8
 71
3
 72
8
 73
4
 74
0
 40
0
 40
0
 40
0
 40
0
 40
1
 40
1
 40
1
 40
1
 10
21.308518
 20
81.536758
 30
0.0
 10
19.761513
 20
82.429922
 30
0.0
 10
17.855524
 20
82.429922
 30
0.0
 10
16.308518
 20
81.536758
 30
0.0
  0
SPLINE
  5
12c
100
AcDbEntity
  8
0
 62
7
100
AcDbSpline
 70
8
 71
3
 72
8
 73
4
 74
0
 40
0
 40
0
 40
0
 40
0
 40
1
 40
1
 40
1
 40
1
 10
16.308518
 20
81.536758
 30
0.0
 10
14.761513
 20
80.643594
 30
0.0
 10
13.808518
 20
78.992959
 30
0.0
 10
13.808518
 20
77.206631
 30
0.0
  0
SPLINE
  5
12d
100
AcDbEntity
  8
0
 62
7
100
AcDbSpline
 70
8
 71
3
 72
8
 73
4
 74
0
 40
0
 40
0
 40
0
 40
0
 40
1
 40
1
 40
1
 40
1
 10
13.808518
 20
77.206631
 30
0.0
 10
13.808518
 20
75.420303
 30
0.0
 10
14.761513
 20
73.769668
 30
0.0
 10
16.308518
 20
72.876504
 30
0.0
  0
SPLINE
  5
12e
100
AcDbEntity
  8
0
 62
7
100
AcDbSpline
 70
8
 71
3
 72
8
 73
4
 74
0
 40
0
 40
0
 40
0
 40
0
 40
1
 40
1
 40
1
 40
1
 10
16.308518
 20
72.876504
 30
0.0
 10
17.855524
 20
71.983340
 30
0.0
 10
19.761513
 20
71.983340
 30
0.0
 10
21.308518
 20
72.876504
 30
0.0
  0
SPLINE
  5
12f
100
AcDbEntity
  8
0
 62
7
100
AcDbSpline
 70
8
 71
3
 72
8
 73
4
 74
0
 40
0
 40
0
 40
0
 40
0
 40
1
 40
1
 40
1
 40
1
 10
21.308518
 20
72.876504
 30
0.0
 10
22.855524
 20
73.769668
 30
0.0
 10
23.808518
 20
75.420303
 30
0.0
 10
23.808518
 20
77.206631
 30
0.0
  0
LINE
  5
130
100
AcDbEntity
  8
0
 62
7
100
AcDbLine
 10
23.808518
 20
77.206631
 30
0.0
 11
23.808518
 21
77.206631
 31
0.0
  0
SPLINE
  5
131
100
AcDbEntity
  8
0
 62
7
100
AcDbSpline
 70
8
 71
3
 72
8
 73
4
 74
0
 40
0
 40
0
 40
0
 40
0
 40
1
 40
1
 40
1
 40
1
 10
36.742219
 20
34.004177
 30
0.0
 10
36.742219
 20
34.718708
 30
0.0
 10
36.361021
 20
35.378962
 30
0.0
 10
35.742219
 20
35.736227
 30
0.0
  0
SPLINE
  5
132
100
AcDbEntity
  8
0
 62
7
100
AcDbSpline
 70
8
 71
3
 72
8
 73
4
 74
0
 40
0
 40
0
 40
0
 40
0
 40
1
 40
1
 40
1
 40
1
 10
35.742219
 20
35.736227
 30
0.0
 10
35.123417
 20
36.093493
 30
0.0
 10
34.361021
 20
36.093493
 30
0.0
 10
33.742219
 20
35.736227
 30
0.0
  0
SPLINE
  5
133
100
AcDbEntity
  8
0
 62
7
100
AcDbSpline
 70
8
 71
3
 72
8
 73
4
 74
0
 40
0
 40
0
 40
0
 40
0
 40
1
 40
1
 40
1
 40
1
 10
33.742219
 20
35.736227
 30
0.0
 10
33.123417
 20
35.378962
 30
0.0
 10
32.742219
 20
34.718708
 30
0.0
 10
32.742219
 20
34.004177
 30
0.0
  0
SPLINE
  5
134
100
AcDbEntity
  8
0
 62
7
100
AcDbSpline
 70
8
 71
3
 72
8
 73
4
 74
0
 40
0
 40
0
 40
0
 40
0
 40
1
 40
1
 40
1
 40
1
 10
32.742219
 20
34.004177
 30
0.0
 10
32.742219
 20
33.289645
 30
0.0
 10
33.123417
 20
32.629391
 30
0.0
 10
33.742219
 20
32.272126
 30
0.0
  0
SPLINE
  5
135
100
AcDbEntity
  8
0
 62
7
100
AcDbSpline
 70
8
 71
3
 72
8
 73
4
 74
0
 40
0
 40
0
 40
0
 40
0
 40
1
 40
1
 40
1
 40
1
 10
33.742219
 20
32.272126
 30
0.0
 10
34.361021
 20
31.914860
 30
0.0
 10
35.123417
 20
31.914860
 30
0.0
 10
35.742219
 20
32.272126
 30
0.0
  0
SPLINE
  5
136
100
AcDbEntity
  8
0
 62
7
100
AcDbSpline
 70
8
 71
3
 72
8
 73
4
 74
0
 40
0
 40
0
 40
0
 40
0
 40
1
 40
1
 40
1
 40
1
 10
35.742219
 20
32.272126
 30
0.0
 10
36.361021
 20
32.629391
 30
0.0
 10
36.742219
 20
33.289645
 30
0.0
 10
36.742219
 20
34.004177
 30
0.0
  0
LINE
  5
137
100
AcDbEntity
  8
0
 62
7
100
AcDbLine
 10
36.742219
 20
34.004177
 30
0.0
 11
36.742219
 21
34.004177
 31
0.0
  0
SPLINE
  5
138
100
AcDbEntity
  8
0
 62
7
100
AcDbSpline
 70
8
 71
3
 72
8
 73
4
 74
0
 40
0
 40
0
 40
0
 40
0
 40
1
 40
1
 40
1
 40
1
 10
36.742219
 20
142.309911
 30
0.0
 10
36.742219
 20
143.024442
 30
0.0
 10
36.361021
 20
143.684696
 30
0.0
 10
35.742219
 20
144.041962
 30
0.0
  0
SPLINE
  5
139
100
AcDbEntity
  8
0
 62
7
100
AcDbSpline
 70
8
 71
3
 72
8
 73
4
 74
0
 40
0
 40
0
 40
0
 40
0
 40
1
 40
1
 40
1
 40
1
 10
35.742219
 20
144.041962
 30
0.0
 10
35.123417
 20
144.399227
 30
0.0
 10
34.361021
 20
144.399227
 30
0.0
 10
33.742219
 20
144.041962
 30
0.0
  0
SPLINE
  5
13a
100
AcDbEntity
  8
0
 62
7
100
AcDbSpline
 70
8
 71
3
 72
8
 73
4
 74
0
 40
0
 40
0
 40
0
 40
0
 40
1
 40
1
 40
1
 40
1
 10
33.742219
 20
144.041962
 30
0.0
 10
33.123417
 20
143.684696
 30
0.0
 10
32.742219
 20
143.024442
 30
0.0
 10
32.742219
 20
142.309911
 30
0.0
  0
SPLINE
  5
13b
100
AcDbEntity
  8
0
 62
7
100
AcDbSpline
 70
8
 71
3
 72
8
 73
4
 74
0
 40
0
 40
0
 40
0
 40
0
 40
1
 40
1
 40
1
 40
1
 10
32.742219
 20
142.309911
 30
0.0
 10
32.742219
 20
141.595380
 30
0.0
 10
33.123417
 20
140.935126
 30
0.0
 10
33.742219
 20
140.577860
 30
0.0
  0
SPLINE
  5
13c
100
AcDbEntity
  8
0
 62
7
100
AcDbSpline
 70
8
 71
3
 72
8
 73
4
 74
0
 40
0
 40
0
 40
0
 40
0
 40
1
 40
1
 40
1
 40
1
 10
33.742219
 20
140.577860
 30
0.0
 10
34.361021
 20
140.220595
 30
0.0
 10
35.123417
 20
140.220595
 30
0.0
 10
35.742219
 20
140.577860
 30
0.0
  0
SPLINE
  5
13d
100
AcDbEntity
  8
0
 62
7
100
AcDbSpline
 70
8
 71
3
 72
8
 73
4
 74
0
 40
0
 40
0
 40
0
 40
0
 40
1
 40
1
 40
1
 40
1
 10
35.742219
 20
140.577860
 30
0.0
 10
36.361021
 20
140.935126
 30
0.0
 10
36.742219
 20
141.595380
 30
0.0
 10
36.742219
 20
142.309911
 30
0.0
  0
LINE
  5
13e
100
AcDbEntity
  8
0
 62
7
100
AcDbLine
 10
36.742219
 20
142.309911
 30
0.0
 11
36.742219
 21
142.309911
 31
0.0
  0
SPLINE
  5
13f
100
AcDbEntity
  8
0
 62
7
100
AcDbSpline
 70
8
 71
3
 72
8
 73
4
 74
0
 40
0
 40
0
 40
0
 40
0
 40
1
 40
1
 40
1
 40
1
 10
69.651185
 20
15.004177
 30
0.0
 10
69.651185
 20
15.718708
 30
0.0
 10
69.269987
 20
16.378962
 30
0.0
 10
68.651185
 20
16.736227
 30
0.0
  0
SPLINE
  5
140
100
AcDbEntity
  8
0
 62
7
100
AcDbSpline
 70
8
 71
3
 72
8
 73
4
 74
0
 40
0
 40
0
 40
0
 40
0
 40
1
 40
1
 40
1
 40
1
 10
68.651185
 20
16.736227
 30
0.0
 10
68.032383
 20
17.093493
 30
0.0
 10
67.269987
 20
17.093493
 30
0.0
 10
66.651185
 20
16.736227
 30
0.0
  0
SPLINE
  5
141
100
AcDbEntity
  8
0
 62
7
100
AcDbSpline
 70
8
 71
3
 72
8
 73
4
 74
0
 40
0
 40
0
 40
0
 40
0
 40
1
 40
1
 40
1
 40
1
 10
66.651185
 20
16.736227
 30
0.0
 10
66.032383
 20
16.378962
 30
0.0
 10
65.651185
 20
15.718708
 30
0.0
 10
65.651185
 20
15.004177
 30
0.0
  0
SPLINE
  5
142
100
AcDbEntity
  8
0
 62
7
100
AcDbSpline
 70
8
 71
3
 72
8
 73
4
 74
0
 40
0
 40
0
 40
0
 40
0
 40
1
 40
1
 40
1
 40
1
 10
65.651185
 20
15.004177
 30
0.0
 10
65.651185
 20
14.289645
 30
0.0
 10
66.032383
 20
13.629391
 30
0.0
 10
66.651185
 20
13.272126
 30
0.0
  0
SPLINE
  5
143
100
AcDbEntity
  8
0
 62
7
100
AcDbSpline
 70
8
 71
3
 72
8
 73
4
 74
0
 40
0
 40
0
 40
0
 40
0
 40
1
 40
1
 40
1
 40
1
 10
66.651185
 20
13.272126
 30
0.0
 10
67.269987
 20
12.914860
 30
0.0
 10
68.032383
 20
12.914860
 30
0.0
 10
68.651185
 20
13.272126
 30
0.0
  0
SPLINE
  5
144
100
AcDbEntity
  8
0
 62
7
100
AcDbSpline
 70
8
 71
3
 72
8
 73
4
 74
0
 40
0
 40
0
 40
0
 40
0
 40
1
 40
1
 40
1
 40
1
 10
68.651185
 20
13.272126
 30
0.0
 10
69.269987
 20
13.629391
 30
0.0
 10
69.651185
 20
14.289645
 30
0.0
 10
69.651185
 20
15.004177
 30
0.0
  0
LINE
  5
145
100
AcDbEntity
  8
0
 62
7
100
AcDbLine
 10
69.651185
 20
15.004177
 30
0.0
 11
69.651185
 21
15.004177
 31
0.0
  0
SPLINE
  5
146
100
AcDbEntity
  8
0
 62
7
100
AcDbSpline
 70
8
 71
3
 72
8
 73
4
 74
0
 40
0
 40
0
 40
0
 40
0
 40
1
 40
1
 40
1
 40
1
 10
118.032458
 20
153.507674
 30
0.0
 10
118.032458
 20
155.294002
 30
0.0
 10
117.079464
 20
156.944637
 30
0.0
 10
115.532458
 20
157.837801
 30
0.0
  0
SPLINE
  5
147
100
AcDbEntity
  8
0
 62
7
100
AcDbSpline
 70
8
 71
3
 72
8
 73
4
 74
0
 40
0
 40
0
 40
0
 40
0
 40
1
 40
1
 40
1
 40
1
 10
115.532458
 20
157.837801
 30
0.0
 10
113.985453
 20
158.730965
 30
0.0
 10
112.079464
 20
158.730965
 30
0.0
 10
110.532458
 20
157.837801
 30
0.0
  0
SPLINE
  5
148
100
AcDbEntity
  8
0
 62
7
100
AcDbSpline
 70
8
 71
3
 72
8
 73
4
 74
0
 40
0
 40
0
 40
0
 40
0
 40
1
 40
1
 40
1
 40
1
 10
110.532458
 20
157.837801
 30
0.0
 10
108.985453
 20
156.944637
 30
0.0
 10
108.032458
 20
155.294002
 30
0.0
 10
108.032458
 20
153.507674
 30
0.0
  0
SPLINE
  5
149
100
AcDbEntity
  8
0
 62
7
100
AcDbSpline
 70
8
 71
3
 72
8
 73
4
 74
0
 40
0
 40
0
 40
0
 40
0
 40
1
 40
1
 40
1
 40
1
 10
108.032458
 20
153.507674
 30
0.0
 10
108.032458
 20
151.721346
 30
0.0
 10
108.985453
 20
150.070711
 30
0.0
 10
110.532458
 20
149.177547
 30
0.0
  0
SPLINE
  5
14a
100
AcDbEntity
  8
0
 62
7
100
AcDbSpline
 70
8
 71
3
 72
8
 73
4
 74
0
 40
0
 40
0
 40
0
 40
0
 40
1
 40
1
 40
1
 40
1
 10
110.532458
 20
149.177547
 30
0.0
 10
112.079464
 20
148.284383
 30
0.0
 10
113.985453
 20
148.284383
 30
0.0
 10
115.532458
 20
149.177547
 30
0.0
  0
SPLINE
  5
14b
100
AcDbEntity
  8
0
 62
7
100
AcDbSpline
 70
8
 71
3
 72
8
 73
4
 74
0
 40
0
 40
0
 40
0
 40
0
 40
1
 40
1
 40
1
 40
1
 10
115.532458
 20
149.177547
 30
0.0
 10
117.079464
 20
150.070711
 30
0.0
 10
118.032458
 20
151.721346
 30
0.0
 10
118.032458
 20
153.507674
 30
0.0
  0
LINE
  5
14c
100
AcDbEntity
  8
0
 62
7
100
AcDbLine
 10
118.032458
 20
153.507674
 30
0.0
 11
118.032458
 21
153.507674
 31
0.0
  0
SPLINE
  5
14d
100
AcDbEntity
  8
0
 62
7
100
AcDbSpline
 70
8
 71
3
 72
8
 73
4
 74
0
 40
0
 40
0
 40
0
 40
0
 40
1
 40
1
 40
1
 40
1
 10
53.196702
 20
151.809911
 30
0.0
 10
53.196702
 20
152.524442
 30
0.0
 10
52.815504
 20
153.184696
 30
0.0
 10
52.196702
 20
153.541962
 30
0.0
  0
SPLINE
  5
14e
100
AcDbEntity
  8
0
 62
7
100
AcDbSpline
 70
8
 71
3
 72
8
 73
4
 74
0
 40
0
 40
0
 40
0
 40
0
 40
1
 40
1
 40
1
 40
1
 10
52.196702
 20
153.541962
 30
0.0
 10
51.577900
 20
153.899227
 30
0.0
 10
50.815504
 20
153.899227
 30
0.0
 10
50.196702
 20
153.541962
 30
0.0
  0
SPLINE
  5
14f
100
AcDbEntity
  8
0
 62
7
100
AcDbSpline
 70
8
 71
3
 72
8
 73
4
 74
0
 40
0
 40
0
 40
0
 40
0
 40
1
 40
1
 40
1
 40
1
 10
50.196702
 20
153.541962
 30
0.0
 10
49.577900
 20
153.184696
 30
0.0
 10
49.196702
 20
152.524442
 30
0.0
 10
49.196702
 20
151.809911
 30
0.0
  0
SPLINE
  5
150
100
AcDbEntity
  8
0
 62
7
100
AcDbSpline
 70
8
 71
3
 72
8
 73
4
 74
0
 40
0
 40
0
 40
0
 40
0
 40
1
 40
1
 40
1
 40
1
 10
49.196702
 20
151.809911
 30
0.0
 10
49.196702
 20
151.095380
 30
0.0
 10
49.577900
 20
150.435126
 30
0.0
 10
50.196702
 20
150.077860
 30
0.0
  0
SPLINE
  5
151
100
AcDbEntity
  8
0
 62
7
100
AcDbSpline
 70
8
 71
3
 72
8
 73
4
 74
0
 40
0
 40
0
 40
0
 40
0
 40
1
 40
1
 40
1
 40
1
 10
50.196702
 20
150.077860
 30
0.0
 10
50.815504
 20
149.720595
 30
0.0
 10
51.577900
 20
149.720595
 30
0.0
 10
52.196702
 20
150.077860
 30
0.0
  0
SPLINE
  5
152
100
AcDbEntity
  8
0
 62
7
100
AcDbSpline
 70
8
 71
3
 72
8
 73
4
 74
0
 40
0
 40
0
 40
0
 40
0
 40
1
 40
1
 40
1
 40
1
 10
52.196702
 20
150.077860
 30
0.0
 10
52.815504
 20
150.435126
 30
0.0
 10
53.196702
 20
151.095380
 30
0.0
 10
53.196702
 20
151.809911
 30
0.0
  0
LINE
  5
153
100
AcDbEntity
  8
0
 62
7
100
AcDbLine
 10
53.196702
 20
151.809911
 30
0.0
 11
53.196702
 21
151.809911
 31
0.0
  0
SPLINE
  5
154
100
AcDbEntity
  8
0
 62
7
100
AcDbSpline
 70
8
 71
3
 72
8
 73
4
 74
0
 40
0
 40
0
 40
0
 40
0
 40
1
 40
1
 40
1
 40
1
 10
89.946702
 20
88.157044
 30
0.0
 10
89.946702
 20
88.871575
 30
0.0
 10
89.565504
 20
89.531829
 30
0.0
 10
88.946702
 20
89.889095
 30
0.0
  0
SPLINE
  5
155
100
AcDbEntity
  8
0
 62
7
100
AcDbSpline
 70
8
 71
3
 72
8
 73
4
 74
0
 40
0
 40
0
 40
0
 40
0
 40
1
 40
1
 40
1
 40
1
 10
88.946702
 20
89.889095
 30
0.0
 10
88.327900
 20
90.246360
 30
0.0
 10
87.565504
 20
90.246360
 30
0.0
 10
86.946702
 20
89.889095
 30
0.0
  0
SPLINE
  5
156
100
AcDbEntity
  8
0
 62
7
100
AcDbSpline
 70
8
 71
3
 72
8
 73
4
 74
0
 40
0
 40
0
 40
0
 40
0
 40
1
 40
1
 40
1
 40
1
 10
86.946702
 20
89.889095
 30
0.0
 10
86.327900
 20
89.531829
 30
0.0
 10
85.946702
 20
88.871575
 30
0.0
 10
85.946702
 20
88.157044
 30
0.0
  0
SPLINE
  5
157
100
AcDbEntity
  8
0
 62
7
100
AcDbSpline
 70
8
 71
3
 72
8
 73
4
 74
0
 40
0
 40
0
 40
0
 40
0
 40
1
 40
1
 40
1
 40
1
 10
85.946702
 20
88.157044
 30
0.0
 10
85.946702
 20
87.442513
 30
0.0
 10
86.327900
 20
86.782259
 30
0.0
 10
86.946702
 20
86.424993
 30
0.0
  0
SPLINE
  5
158
100
AcDbEntity
  8
0
 62
7
100
AcDbSpline
 70
8
 71
3
 72
8
 73
4
 74
0
 40
0
 40
0
 40
0
 40
0
 40
1
 40
1
 40
1
 40
1
 10
86.946702
 20
86.424993
 30
0.0
 10
87.565504
 20
86.067727
 30
0.0
 10
88.327900
 20
86.067727
 30
0.0
 10
88.946702
 20
86.424993
 30
0.0
  0
SPLINE
  5
159
100
AcDbEntity
  8
0
 62
7
100
AcDbSpline
 70
8
 71
3
 72
8
 73
4
 74
0
 40
0
 40
0
 40
0
 40
0
 40
1
 40
1
 40
1
 40
1
 10
88.946702
 20
86.424993
 30
0.0
 10
89.565504
 20
86.782259
 30
0.0
 10
89.946702
 20
87.442513
 30
0.0
 10
89.946702
 20
88.157044
 30
0.0
  0
LINE
  5
15a
100
AcDbEntity
  8
0
 62
7
100
AcDbLine
 10
89.946702
 20
88.157044
 30
0.0
 11
89.946702
 21
88.157044
 31
0.0
  0
SPLINE
  5
15b
100
AcDbEntity
  8
0
 62
7
100
AcDbSpline
 70
8
 71
3
 72
8
 73
4
 74
0
 40
0
 40
0
 40
0
 40
0
 40
1
 40
1
 40
1
 40
1
 10
136.999129
 20
33.756827
 30
0.0
 10
136.999129
 20
35.543154
 30
0.0
 10
136.046135
 20
37.193790
 30
0.0
 10
134.499129
 20
38.086954
 30
0.0
  0
SPLINE
  5
15c
100
AcDbEntity
  8
0
 62
7
100
AcDbSpline
 70
8
 71
3
 72
8
 73
4
 74
0
 40
0
 40
0
 40
0
 40
0
 40
1
 40
1
 40
1
 40
1
 10
134.499129
 20
38.086954
 30
0.0
 10
132.952124
 20
38.980118
 30
0.0
 10
131.046135
 20
38.980118
 30
0.0
 10
129.499129
 20
38.086954
 30
0.0
  0
SPLINE
  5
15d
100
AcDbEntity
  8
0
 62
7
100
AcDbSpline
 70
8
 71
3
 72
8
 73
4
 74
0
 40
0
 40
0
 40
0
 40
0
 40
1
 40
1
 40
1
 40
1
 10
129.499129
 20
38.086954
 30
0.0
 10
127.952124
 20
37.193790
 30
0.0
 10
126.999129
 20
35.543154
 30
0.0
 10
126.999129
 20
33.756827
 30
0.0
  0
SPLINE
  5
15e
100
AcDbEntity
  8
0
 62
7
100
AcDbSpline
 70
8
 71
3
 72
8
 73
4
 74
0
 40
0
 40
0
 40
0
 40
0
 40
1
 40
1
 40
1
 40
1
 10
126.999129
 20
33.756827
 30
0.0
 10
126.999129
 20
31.970499
 30
0.0
 10
127.952124
 20
30.319863
 30
0.0
 10
129.499129
 20
29.426700
 30
0.0
  0
SPLINE
  5
15f
100
AcDbEntity
  8
0
 62
7
100
AcDbSpline
 70
8
 71
3
 72
8
 73
4
 74
0
 40
0
 40
0
 40
0
 40
0
 40
1
 40
1
 40
1
 40
1
 10
129.499129
 20
29.426700
 30
0.0
 10
131.046135
 20
28.533536
 30
0.0
 10
132.952124
 20
28.533536
 30
0.0
 10
134.499129
 20
29.426700
 30
0.0
  0
SPLINE
  5
160
100
AcDbEntity
  8
0
 62
7
100
AcDbSpline
 70
8
 71
3
 72
8
 73
4
 74
0
 40
0
 40
0
 40
0
 40
0
 40
1
 40
1
 40
1
 40
1
 10
134.499129
 20
29.426700
 30
0.0
 10
136.046135
 20
30.319863
 30
0.0
 10
136.999129
 20
31.970499
 30
0.0
 10
136.999129
 20
33.756827
 30
0.0
  0
LINE
  5
161
100
AcDbEntity
  8
0
 62
7
100
AcDbLine
 10
136.999129
 20
33.756827
 30
0.0
 11
136.999129
 21
33.756827
 31
0.0
  0
SPLINE
  5
162
100
AcDbEntity
  8
0
 62
7
100
AcDbSpline
 70
8
 71
3
 72
8
 73
4
 74
0
 40
0
 40
0
 40
0
 40
0
 40
1
 40
1
 40
1
 40
1
 10
139.946702
 20
88.157044
 30
0.0
 10
139.946702
 20
89.764739
 30
0.0
 10
139.089007
 20
91.250311
 30
0.0
 10
137.696702
 20
92.054158
 30
0.0
  0
SPLINE
  5
163
100
AcDbEntity
  8
0
 62
7
100
AcDbSpline
 70
8
 71
3
 72
8
 73
4
 74
0
 40
0
 40
0
 40
0
 40
0
 40
1
 40
1
 40
1
 40
1
 10
137.696702
 20
92.054158
 30
0.0
 10
136.304397
 20
92.858006
 30
0.0
 10
134.589007
 20
92.858006
 30
0.0
 10
133.196702
 20
92.054158
 30
0.0
  0
SPLINE
  5
164
100
AcDbEntity
  8
0
 62
7
100
AcDbSpline
 70
8
 71
3
 72
8
 73
4
 74
0
 40
0
 40
0
 40
0
 40
0
 40
1
 40
1
 40
1
 40
1
 10
133.196702
 20
92.054158
 30
0.0
 10
131.804397
 20
91.250311
 30
0.0
 10
130.946702
 20
89.764739
 30
0.0
 10
130.946702
 20
88.157044
 30
0.0
  0
SPLINE
  5
165
100
AcDbEntity
  8
0
 62
7
100
AcDbSpline
 70
8
 71
3
 72
8
 73
4
 74
0
 40
0
 40
0
 40
0
 40
0
 40
1
 40
1
 40
1
 40
1
 10
130.946702
 20
88.157044
 30
0.0
 10
130.946702
 20
86.549349
 30
0.0
 10
131.804397
 20
85.063777
 30
0.0
 10
133.196702
 20
84.259930
 30
0.0
  0
SPLINE
  5
166
100
AcDbEntity
  8
0
 62
7
100
AcDbSpline
 70
8
 71
3
 72
8
 73
4
 74
0
 40
0
 40
0
 40
0
 40
0
 40
1
 40
1
 40
1
 40
1
 10
133.196702
 20
84.259930
 30
0.0
 10
134.589007
 20
83.456082
 30
0.0
 10
136.304397
 20
83.456082
 30
0.0
 10
137.696702
 20
84.259930
 30
0.0
  0
SPLINE
  5
167
100
AcDbEntity
  8
0
 62
7
100
AcDbSpline
 70
8
 71
3
 72
8
 73
4
 74
0
 40
0
 40
0
 40
0
 40
0
 40
1
 40
1
 40
1
 40
1
 10
137.696702
 20
84.259930
 30
0.0
 10
139.089007
 20
85.063777
 30
0.0
 10
139.946702
 20
86.549349
 30
0.0
 10
139.946702
 20
88.157044
 30
0.0
  0
LINE
  5
168
100
AcDbEntity
  8
0
 62
7
100
AcDbLine
 10
139.946702
 20
88.157044
 30
0.0
 11
139.946702
 21
88.157044
 31
0.0
  0
SPLINE
  5
169
100
AcDbEntity
  8
0
 62
7
100
AcDbSpline
 70
8
 71
3
 72
8
 73
4
 74
0
 40
0
 40
0
 40
0
 40
0
 40
1
 40
1
 40
1
 40
1
 10
163.446702
 20
88.157044
 30
0.0
 10
163.446702
 20
88.871575
 30
0.0
 10
163.065504
 20
89.531829
 30
0.0
 10
162.446702
 20
89.889095
 30
0.0
  0
SPLINE
  5
16a
100
AcDbEntity
  8
0
 62
7
100
AcDbSpline
 70
8
 71
3
 72
8
 73
4
 74
0
 40
0
 40
0
 40
0
 40
0
 40
1
 40
1
 40
1
 40
1
 10
162.446702
 20
89.889095
 30
0.0
 10
161.827900
 20
90.246360
 30
0.0
 10
161.065504
 20
90.246360
 30
0.0
 10
160.446702
 20
89.889095
 30
0.0
  0
SPLINE
  5
16b
100
AcDbEntity
  8
0
 62
7
100
AcDbSpline
 70
8
 71
3
 72
8
 73
4
 74
0
 40
0
 40
0
 40
0
 40
0
 40
1
 40
1
 40
1
 40
1
 10
160.446702
 20
89.889095
 30
0.0
 10
159.827900
 20
89.531829
 30
0.0
 10
159.446702
 20
88.871575
 30
0.0
 10
159.446702
 20
88.157044
 30
0.0
  0
SPLINE
  5
16c
100
AcDbEntity
  8
0
 62
7
100
AcDbSpline
 70
8
 71
3
 72
8
 73
4
 74
0
 40
0
 40
0
 40
0
 40
0
 40
1
 40
1
 40
1
 40
1
 10
159.446702
 20
88.157044
 30
0.0
 10
159.446702
 20
87.442513
 30
0.0
 10
159.827900
 20
86.782259
 30
0.0
 10
160.446702
 20
86.424993
 30
0.0
  0
SPLINE
  5
16d
100
AcDbEntity
  8
0
 62
7
100
AcDbSpline
 70
8
 71
3
 72
8
 73
4
 74
0
 40
0
 40
0
 40
0
 40
0
 40
1
 40
1
 40
1
 40
1
 10
160.446702
 20
86.424993
 30
0.0
 10
161.065504
 20
86.067727
 30
0.0
 10
161.827900
 20
86.067727
 30
0.0
 10
162.446702
 20
86.424993
 30
0.0
  0
SPLINE
  5
16e
100
AcDbEntity
  8
0
 62
7
100
AcDbSpline
 70
8
 71
3
 72
8
 73
4
 74
0
 40
0
 40
0
 40
0
 40
0
 40
1
 40
1
 40
1
 40
1
 10
162.446702
 20
86.424993
 30
0.0
 10
163.065504
 20
86.782259
 30
0.0
 10
163.446702
 20
87.442513
 30
0.0
 10
163.446702
 20
88.157044
 30
0.0
  0
LINE
  5
16f
100
AcDbEntity
  8
0
 62
7
100
AcDbLine
 10
163.446702
 20
88.157044
 30
0.0
 11
163.446702
 21
88.157044
 31
0.0
  0
SPLINE
  5
170
100
AcDbEntity
  8
0
 62
7
100
AcDbSpline
 70
8
 71
3
 72
8
 73
4
 74
0
 40
0
 40
0
 40
0
 40
0
 40
1
 40
1
 40
1
 40
1
 10
163.446702
 20
69.157044
 30
0.0
 10
163.446702
 20
69.871575
 30
0.0
 10
163.065504
 20
70.531829
 30
0.0
 10
162.446702
 20
70.889095
 30
0.0
  0
SPLINE
  5
171
100
AcDbEntity
  8
0
 62
7
100
AcDbSpline
 70
8
 71
3
 72
8
 73
4
 74
0
 40
0
 40
0
 40
0
 40
0
 40
1
 40
1
 40
1
 40
1
 10
162.446702
 20
70.889095
 30
0.0
 10
161.827900
 20
71.246360
 30
0.0
 10
161.065504
 20
71.246360
 30
0.0
 10
160.446702
 20
70.889095
 30
0.0
  0
SPLINE
  5
172
100
AcDbEntity
  8
0
 62
7
100
AcDbSpline
 70
8
 71
3
 72
8
 73
4
 74
0
 40
0
 40
0
 40
0
 40
0
 40
1
 40
1
 40
1
 40
1
 10
160.446702
 20
70.889095
 30
0.0
 10
159.827900
 20
70.531829
 30
0.0
 10
159.446702
 20
69.871575
 30
0.0
 10
159.446702
 20
69.157044
 30
0.0
  0
SPLINE
  5
173
100
AcDbEntity
  8
0
 62
7
100
AcDbSpline
 70
8
 71
3
 72
8
 73
4
 74
0
 40
0
 40
0
 40
0
 40
0
 40
1
 40
1
 40
1
 40
1
 10
159.446702
 20
69.157044
 30
0.0
 10
159.446702
 20
68.442513
 30
0.0
 10
159.827900
 20
67.782259
 30
0.0
 10
160.446702
 20
67.424993
 30
0.0
  0
SPLINE
  5
174
100
AcDbEntity
  8
0
 62
7
100
AcDbSpline
 70
8
 71
3
 72
8
 73
4
 74
0
 40
0
 40
0
 40
0
 40
0
 40
1
 40
1
 40
1
 40
1
 10
160.446702
 20
67.424993
 30
0.0
 10
161.065504
 20
67.067727
 30
0.0
 10
161.827900
 20
67.067727
 30
0.0
 10
162.446702
 20
67.424993
 30
0.0
  0
SPLINE
  5
175
100
AcDbEntity
  8
0
 62
7
100
AcDbSpline
 70
8
 71
3
 72
8
 73
4
 74
0
 40
0
 40
0
 40
0
 40
0
 40
1
 40
1
 40
1
 40
1
 10
162.446702
 20
67.424993
 30
0.0
 10
163.065504
 20
67.782259
 30
0.0
 10
163.446702
 20
68.442513
 30
0.0
 10
163.446702
 20
69.157044
 30
0.0
  0
LINE
  5
176
100
AcDbEntity
  8
0
 62
7
100
AcDbLine
 10
163.446702
 20
69.157044
 30
0.0
 11
163.446702
 21
69.157044
 31
0.0
  0
SPLINE
  5
177
100
AcDbEntity
  8
0
 62
7
100
AcDbSpline
 70
8
 71
3
 72
8
 73
4
 74
0
 40
0
 40
0
 40
0
 40
0
 40
1
 40
1
 40
1
 40
1
 10
163.446702
 20
107.157044
 30
0.0
 10
163.446702
 20
107.871575
 30
0.0
 10
163.065504
 20
108.531829
 30
0.0
 10
162.446702
 20
108.889095
 30
0.0
  0
SPLINE
  5
178
100
AcDbEntity
  8
0
 62
7
100
AcDbSpline
 70
8
 71
3
 72
8
 73
4
 74
0
 40
0
 40
0
 40
0
 40
0
 40
1
 40
1
 40
1
 40
1
 10
162.446702
 20
108.889095
 30
0.0
 10
161.827900
 20
109.246360
 30
0.0
 10
161.065504
 20
109.246360
 30
0.0
 10
160.446702
 20
108.889095
 30
0.0
  0
SPLINE
  5
179
100
AcDbEntity
  8
0
 62
7
100
AcDbSpline
 70
8
 71
3
 72
8
 73
4
 74
0
 40
0
 40
0
 40
0
 40
0
 40
1
 40
1
 40
1
 40
1
 10
160.446702
 20
108.889095
 30
0.0
 10
159.827900
 20
108.531829
 30
0.0
 10
159.446702
 20
107.871575
 30
0.0
 10
159.446702
 20
107.157044
 30
0.0
  0
SPLINE
  5
17a
100
AcDbEntity
  8
0
 62
7
100
AcDbSpline
 70
8
 71
3
 72
8
 73
4
 74
0
 40
0
 40
0
 40
0
 40
0
 40
1
 40
1
 40
1
 40
1
 10
159.446702
 20
107.157044
 30
0.0
 10
159.446702
 20
106.442513
 30
0.0
 10
159.827900
 20
105.782259
 30
0.0
 10
160.446702
 20
105.424993
 30
0.0
  0
SPLINE
  5
17b
100
AcDbEntity
  8
0
 62
7
100
AcDbSpline
 70
8
 71
3
 72
8
 73
4
 74
0
 40
0
 40
0
 40
0
 40
0
 40
1
 40
1
 40
1
 40
1
 10
160.446702
 20
105.424993
 30
0.0
 10
161.065504
 20
105.067727
 30
0.0
 10
161.827900
 20
105.067727
 30
0.0
 10
162.446702
 20
105.424993
 30
0.0
  0
SPLINE
  5
17c
100
AcDbEntity
  8
0
 62
7
100
AcDbSpline
 70
8
 71
3
 72
8
 73
4
 74
0
 40
0
 40
0
 40
0
 40
0
 40
1
 40
1
 40
1
 40
1
 10
162.446702
 20
105.424993
 30
0.0
 10
163.065504
 20
105.782259
 30
0.0
 10
163.446702
 20
106.442513
 30
0.0
 10
163.446702
 20
107.157044
 30
0.0
  0
LINE
  5
17d
100
AcDbEntity
  8
0
 62
7
100
AcDbLine
 10
163.446702
 20
107.157044
 30
0.0
 11
163.446702
 21
107.157044
 31
0.0
  0
SPLINE
  5
17e
100
AcDbEntity
  8
0
 62
7
100
AcDbSpline
 70
8
 71
3
 72
8
 73
4
 74
0
 40
0
 40
0
 40
0
 40
0
 40
1
 40
1
 40
1
 40
1
 10
69.651185
 20
161.309911
 30
0.0
 10
69.651185
 20
162.024442
 30
0.0
 10
69.269987
 20
162.684696
 30
0.0
 10
68.651185
 20
163.041962
 30
0.0
  0
SPLINE
  5
17f
100
AcDbEntity
  8
0
 62
7
100
AcDbSpline
 70
8
 71
3
 72
8
 73
4
 74
0
 40
0
 40
0
 40
0
 40
0
 40
1
 40
1
 40
1
 40
1
 10
68.651185
 20
163.041962
 30
0.0
 10
68.032383
 20
163.399227
 30
0.0
 10
67.269987
 20
163.399227
 30
0.0
 10
66.651185
 20
163.041962
 30
0.0
  0
SPLINE
  5
180
100
AcDbEntity
  8
0
 62
7
100
AcDbSpline
 70
8
 71
3
 72
8
 73
4
 74
0
 40
0
 40
0
 40
0
 40
0
 40
1
 40
1
 40
1
 40
1
 10
66.651185
 20
163.041962
 30
0.0
 10
66.032383
 20
162.684696
 30
0.0
 10
65.651185
 20
162.024442
 30
0.0
 10
65.651185
 20
161.309911
 30
0.0
  0
SPLINE
  5
181
100
AcDbEntity
  8
0
 62
7
100
AcDbSpline
 70
8
 71
3
 72
8
 73
4
 74
0
 40
0
 40
0
 40
0
 40
0
 40
1
 40
1
 40
1
 40
1
 10
65.651185
 20
161.309911
 30
0.0
 10
65.651185
 20
160.595380
 30
0.0
 10
66.032383
 20
159.935126
 30
0.0
 10
66.651185
 20
159.577860
 30
0.0
  0
SPLINE
  5
182
100
AcDbEntity
  8
0
 62
7
100
AcDbSpline
 70
8
 71
3
 72
8
 73
4
 74
0
 40
0
 40
0
 40
0
 40
0
 40
1
 40
1
 40
1
 40
1
 10
66.651185
 20
159.577860
 30
0.0
 10
67.269987
 20
159.220595
 30
0.0
 10
68.032383
 20
159.220595
 30
0.0
 10
68.651185
 20
159.577860
 30
0.0
  0
SPLINE
  5
183
100
AcDbEntity
  8
0
 62
7
100
AcDbSpline
 70
8
 71
3
 72
8
 73
4
 74
0
 40
0
 40
0
 40
0
 40
0
 40
1
 40
1
 40
1
 40
1
 10
68.651185
 20
159.577860
 30
0.0
 10
69.269987
 20
159.935126
 30
0.0
 10
69.651185
 20
160.595380
 30
0.0
 10
69.651185
 20
161.309911
 30
0.0
  0
LINE
  5
184
100
AcDbEntity
  8
0
 62
7
100
AcDbLine
 10
69.651185
 20
161.309911
 30
0.0
 11
69.651185
 21
161.309911
 31
0.0
  0
ENDSEC
  0
SECTION
  2
OBJECTS
  0
DICTIONARY
  5
C
330
0
100
AcDbDictionary
  3
ACAD_GROUP
350
D
  3
ACAD_MLINESTYLE
350
17
  0
DICTIONARY
  5
D
330
C
100
AcDbDictionary
  0
DICTIONARY
  5
1A
330
C
100
AcDbDictionary
  0
DICTIONARY
  5
17
330
C
100
AcDbDictionary
  3
STANDARD
350
18
  0
DICTIONARY
  5
19
330
C
100
AcDbDictionary
  0
ENDSEC
  0
EOF
