<?xml version="1.0"?>
<!DOCTYPE svg PUBLIC "-//W3C//DTD SVG 1.1//EN" "http://www.w3.org/Graphics/SVG/1.1/DTD/svg11.dtd">
<svg width="196.72949066736388mm" height="196.79345522374015mm" viewBox="0 0 196.72949066736388 196.79345522374015" xmlns="http://www.w3.org/2000/svg" version="1.1">
<g id="Cut066" transform="translate(98.300770,98.396728) scale(1,-1)">
<circle cx="0.0" cy="0.0" r="96.5" stroke="#191919" stroke-width="0.35 px" style="stroke-width:0.35;stroke-miterlimit:4;stroke-dasharray:none;fill:#cccccc"/>
<circle cx="0.0" cy="0.0" r="96.5" stroke="#191919" stroke-width="0.35 px" style="stroke-width:0.35;stroke-miterlimit:4;stroke-dasharray:none;fill:#cccccc"/>
<circle cx="0.0" cy="0.0" r="96.5" stroke="#191919" stroke-width="0.35 px" style="stroke-width:0.35;stroke-miterlimit:4;stroke-dasharray:none;fill:#cccccc"/>
<circle cx="73.5" cy="18.0" r="2.0" stroke="#191919" stroke-width="0.35 px" style="stroke-width:0.35;stroke-miterlimit:4;stroke-dasharray:none;fill:#cccccc"/>
<path id="Cut066_f0004"  d="M 63.72009102316115 10.00000000000143 L 63.72009102316161 10.0 A 64.5 64.5 0 0 1 -23.1998 60.1832L -23.199791473736397 60.18321755751472 A 64.5 64.5 0 0 0 63.7201 10Z " stroke="#191919" stroke-width="0.35 px" style="stroke-width:0.35;stroke-miterlimit:4;stroke-dasharray:none;fill:#cccccc;fill-opacity:1.0;fill-rule: evenodd "/>
<path id="Cut066_f0005"  d="M 83.0 10.0 L 83.0 10.0 L 63.72009102316115 10.0 L 63.72009102316161 10.0 L 83.0 10.0 Z " stroke="#191919" stroke-width="0.35 px" style="stroke-width:0.35;stroke-miterlimit:4;stroke-dasharray:none;fill:#cccccc;fill-opacity:1.0;fill-rule: evenodd "/>
<path id="Cut066_f0006"  d="M -32.839745962155604 76.88010851410844 L -23.1997914737364 60.183217557514716 L -23.199791473736397 60.18321755751472 L -32.83974596215561 76.88010851410844 L -32.839745962155604 76.88010851410844 Z " stroke="#191919" stroke-width="0.35 px" style="stroke-width:0.35;stroke-miterlimit:4;stroke-dasharray:none;fill:#cccccc;fill-opacity:1.0;fill-rule: evenodd "/>
<path id="Cut066_f0007"  d="M 83.0 10.0 L 83.0 -10.0 L 83.0 -10.0 L 83.0 10.0 L 83.0 10.0 Z " stroke="#191919" stroke-width="0.35 px" style="stroke-width:0.35;stroke-miterlimit:4;stroke-dasharray:none;fill:#cccccc;fill-opacity:1.0;fill-rule: evenodd "/>
<path id="Cut066_f0008"  d="M -50.160254037844396 66.88010851410844 L -32.83974596215561 76.88010851410844 L -32.839745962155604 76.88010851410844 L -50.160254037844396 66.88010851410844 L -50.160254037844396 66.88010851410844 Z " stroke="#191919" stroke-width="0.35 px" style="stroke-width:0.35;stroke-miterlimit:4;stroke-dasharray:none;fill:#cccccc;fill-opacity:1.0;fill-rule: evenodd "/>
<path id="Cut066_f0009"  d="M 83.0 -10.0 L 63.72009102316161 -10.000000000000002 L 63.7200910231616 -10.0 L 83.0 -10.0 L 83.0 -10.0 Z " stroke="#191919" stroke-width="0.35 px" style="stroke-width:0.35;stroke-miterlimit:4;stroke-dasharray:none;fill:#cccccc;fill-opacity:1.0;fill-rule: evenodd "/>
<path id="Cut066_f0010"  d="M -50.160254037844396 66.88010851410844 L -50.160254037844396 66.88010851410844 L -40.520299549424934 50.18321755751429 L -40.52029954942519 50.18321755751471 L -50.160254037844396 66.88010851410846 Z " stroke="#191919" stroke-width="0.35 px" style="stroke-width:0.35;stroke-miterlimit:4;stroke-dasharray:none;fill:#cccccc;fill-opacity:1.0;fill-rule: evenodd "/>
<path id="Cut066_f0011"  d="M -23.199791473736457 -60.183217557514695 A 64.5 64.5 0 0 1 63.7201 -10L 63.7200910231616 -10.0 A 64.5 64.5 0 0 0 -23.1998 -60.1832L -23.199791473736457 -60.183217557514695 Z " stroke="#191919" stroke-width="0.35 px" style="stroke-width:0.35;stroke-miterlimit:4;stroke-dasharray:none;fill:#cccccc;fill-opacity:1.0;fill-rule: evenodd "/>
<path id="Cut066_f0012"  d="M -40.52029954942631 50.183217557513494 L -40.52029954942519 50.18321755751471 A 64.5 64.5 0 0 1 -40.5203 -50.1832L -40.520299549425204 -50.1832175575147 A 64.5 64.5 0 0 0 -40.5203 50.1832Z " stroke="#191919" stroke-width="0.35 px" style="stroke-width:0.35;stroke-miterlimit:4;stroke-dasharray:none;fill:#cccccc;fill-opacity:1.0;fill-rule: evenodd "/>
<path id="Cut066_f0013"  d="M -32.83974596215563 -76.88010851410837 L -32.83974596215563 -76.88010851410837 L -23.19979147373684 -60.18321755751539 L -23.199791473736457 -60.183217557514695 L -32.83974596215563 -76.88010851410837 Z " stroke="#191919" stroke-width="0.35 px" style="stroke-width:0.35;stroke-miterlimit:4;stroke-dasharray:none;fill:#cccccc;fill-opacity:1.0;fill-rule: evenodd "/>
<path id="Cut066_f0014"  d="M -50.160254037844396 -66.88010851410837 L -40.520299549425246 -50.183217557514666 L -40.520299549425204 -50.1832175575147 L -50.160254037844396 -66.88010851410837 L -50.160254037844396 -66.88010851410837 Z " stroke="#191919" stroke-width="0.35 px" style="stroke-width:0.35;stroke-miterlimit:4;stroke-dasharray:none;fill:#cccccc;fill-opacity:1.0;fill-rule: evenodd "/>
<path id="Cut066_f0015"  d="M -32.83974596215563 -76.88010851410837 L -50.160254037844396 -66.88010851410837 L -50.160254037844396 -66.88010851410837 L -32.83974596215563 -76.88010851410837 L -32.83974596215563 -76.88010851410837 Z " stroke="#191919" stroke-width="0.35 px" style="stroke-width:0.35;stroke-miterlimit:4;stroke-dasharray:none;fill:#cccccc;fill-opacity:1.0;fill-rule: evenodd "/>
<circle cx="-21.161542731880147" cy="-72.65286717815623" r="2.0" stroke="#191919" stroke-width="0.35 px" style="stroke-width:0.35;stroke-miterlimit:4;stroke-dasharray:none;fill:#cccccc"/>
<circle cx="73.5" cy="-18.0" r="2.0" stroke="#191919" stroke-width="0.35 px" style="stroke-width:0.35;stroke-miterlimit:4;stroke-dasharray:none;fill:#cccccc"/>
<circle cx="-52.33845726811988" cy="54.65286717815624" r="2.0" stroke="#191919" stroke-width="0.35 px" style="stroke-width:0.35;stroke-miterlimit:4;stroke-dasharray:none;fill:#cccccc"/>
<circle cx="-52.338457268119924" cy="-54.652867178156214" r="2.0" stroke="#191919" stroke-width="0.35 px" style="stroke-width:0.35;stroke-miterlimit:4;stroke-dasharray:none;fill:#cccccc"/>
<circle cx="-21.16154273188009" cy="72.65286717815624" r="2.0" stroke="#191919" stroke-width="0.35 px" style="stroke-width:0.35;stroke-miterlimit:4;stroke-dasharray:none;fill:#cccccc"/>
<title>b'Cut066'</title>
</g>
</svg>