  0
SECTION
  2
HEADER
  9
$ACADVER
  1
AC1014
  9
$HANDSEED
  5
FFFF
  9
$MEASUREMENT
 70
     1
  0
ENDSEC
  0
SECTION
  2
TABLES
  0
TABLE
  2
VPORT
  5
8
330
0
100
AcDbSymbolTable
 70
     4
  0
VPORT
  5
2E
330
8
100
AcDbSymbolTableRecord
100
AcDbViewportTableRecord
  2
*ACTIVE
 70
     0
 10
0.0
 20
0.0
 11
1.0
 21
1.0
 12
210.0
 22
148.5
 13
0.0
 23
0.0
 14
10.0
 24
10.0
 15
10.0
 25
10.0
 16
0.0
 26
0.0
 36
1.0
 17
0.0
 27
0.0
 37
0.0
 40
341.0
 41
1.24
 42
50.0
 43
0.0
 44
0.0
 50
0.0
 51
0.0
 71
     0
 72
   100
 73
     1
 74
     3
 75
     0
 76
     0
 77
     0
 78
     0
  0
ENDTAB
  0
TABLE
  2
LTYPE
  5
5
330
0
100
AcDbSymbolTable
 70
     1
  0
LTYPE
  5
14
330
5
100
AcDbSymbolTableRecord
100
AcDbLinetypeTableRecord
  2
BYBLOCK
 70
     0
  3

 72
    65
 73
     0
 40
0.0
  0
LTYPE
  5
15
330
5
100
AcDbSymbolTableRecord
100
AcDbLinetypeTableRecord
  2
BYLAYER
 70
     0
  3

 72
    65
 73
     0
 40
0.0
  0
LTYPE
  5
16
330
5
100
AcDbSymbolTableRecord
100
AcDbLinetypeTableRecord
  2
CONTINUOUS
 70
     0
  3
Solid line
 72
    65
 73
     0
 40
0.0
  0
ENDTAB
  0
TABLE
  2
LAYER
  5
2
100
AcDbSymbolTable
 70
1
  0
LAYER
  5
50
100
AcDbSymbolTableRecord
100
AcDbLayerTableRecord
  2
0
 70
0
  6
CONTINUOUS
  0
ENDTAB
  0
TABLE
  2
STYLE
  5
3
330
0
100
AcDbSymbolTable
 70
     1
  0
STYLE
  5
11
330
3
100
AcDbSymbolTableRecord
100
AcDbTextStyleTableRecord
  2
STANDARD
 70
     0
 40
0.0
 41
1.0
 50
0.0
 71
     0
 42
2.5
  3
txt
  4

  0
ENDTAB
  0
TABLE
  2
VIEW
  5
6
330
0
100
AcDbSymbolTable
 70
     0
  0
ENDTAB
  0
TABLE
  2
UCS
  5
7
330
0
100
AcDbSymbolTable
 70
     0
  0
ENDTAB
  0
TABLE
  2
APPID
  5
9
330
0
100
AcDbSymbolTable
 70
     2
  0
APPID
  5
12
330
9
100
AcDbSymbolTableRecord
100
AcDbRegAppTableRecord
  2
ACAD
 70
     0
  0
ENDTAB
  0
TABLE
  2
DIMSTYLE
  5
A
330
0
100
AcDbSymbolTable
 70
     1
  0
DIMSTYLE
105
27
330
A
100
AcDbSymbolTableRecord
100
AcDbDimStyleTableRecord
  2
ISO-25
 70
     0
  3

  4

  5

  6

  7

 40
1.0
 41
2.5
 42
0.625
 43
3.75
 44
1.25
 45
0.0
 46
0.0
 47
0.0
 48
0.0
140
2.5
141
2.5
142
0.0
143
0.03937007874016
144
1.0
145
0.0
146
1.0
147
0.625
 71
     0
 72
     0
 73
     0
 74
     0
 75
     0
 76
     0
 77
     1
 78
     8
170
     0
171
     3
172
     1
173
     0
174
     0
175
     0
176
     0
177
     0
178
     0
270
     2
271
     2
272
     2
273
     2
274
     3
340
11
275
     0
280
     0
281
     0
282
     0
283
     0
284
     8
285
     0
286
     0
287
     3
288
     0
  0
ENDTAB
  0
TABLE
  2
BLOCK_RECORD
  5
1
330
0
100
AcDbSymbolTable
 70
     1
  0
BLOCK_RECORD
  5
1F
330
1
100
AcDbSymbolTableRecord
100
AcDbBlockTableRecord
  2
*MODEL_SPACE
  0
BLOCK_RECORD
  5
1B
330
1
100
AcDbSymbolTableRecord
100
AcDbBlockTableRecord
  2
*PAPER_SPACE
  0
ENDTAB
  0
ENDSEC
  0
SECTION
  2
BLOCKS
  0
BLOCK
  5
20
330
1F
100
AcDbEntity
  8
0
100
AcDbBlockBegin
  2
*MODEL_SPACE
 70
     0
 10
0.0
 20
0.0
 30
0.0
  3
*MODEL_SPACE
  1

  0
ENDBLK
  5
21
330
1F
100
AcDbEntity
  8
0
100
AcDbBlockEnd
  0
BLOCK
  5
1C
330
1B
100
AcDbEntity
 67
     1
  8
0
100
AcDbBlockBegin
  2
*PAPER_SPACE
  1

  0
ENDBLK
  5
1D
330
1B
100
AcDbEntity
 67
     1
  8
0
100
AcDbBlockEnd
  0
ENDSEC
  0
SECTION
  2
ENTITIES
  0
SPLINE
  5
100
100
AcDbEntity
  8
0
 62
1
100
AcDbSpline
 70
8
 71
3
 72
8
 73
4
 74
0
 40
0
 40
0
 40
0
 40
0
 40
1
 40
1
 40
1
 40
1
 10
202.000000
 20
101.998602
 30
0.0
 10
202.000000
 20
128.520251
 30
0.0
 10
191.464316
 20
153.955642
 30
0.0
 10
172.710678
 20
172.709280
 30
0.0
  0
SPLINE
  5
101
100
AcDbEntity
  8
0
 62
1
100
AcDbSpline
 70
8
 71
3
 72
8
 73
4
 74
0
 40
0
 40
0
 40
0
 40
0
 40
1
 40
1
 40
1
 40
1
 10
172.710678
 20
172.709280
 30
0.0
 10
153.957040
 20
191.462918
 30
0.0
 10
128.521649
 20
201.998602
 30
0.0
 10
102.000000
 20
201.998602
 30
0.0
  0
SPLINE
  5
102
100
AcDbEntity
  8
0
 62
1
100
AcDbSpline
 70
8
 71
3
 72
8
 73
4
 74
0
 40
0
 40
0
 40
0
 40
0
 40
1
 40
1
 40
1
 40
1
 10
102.000000
 20
201.998602
 30
0.0
 10
75.478351
 20
201.998602
 30
0.0
 10
50.042960
 20
191.462918
 30
0.0
 10
31.289322
 20
172.709280
 30
0.0
  0
SPLINE
  5
103
100
AcDbEntity
  8
0
 62
1
100
AcDbSpline
 70
8
 71
3
 72
8
 73
4
 74
0
 40
0
 40
0
 40
0
 40
0
 40
1
 40
1
 40
1
 40
1
 10
31.289322
 20
172.709280
 30
0.0
 10
12.535684
 20
153.955642
 30
0.0
 10
2.000000
 20
128.520251
 30
0.0
 10
2.000000
 20
101.998602
 30
0.0
  0
SPLINE
  5
104
100
AcDbEntity
  8
0
 62
1
100
AcDbSpline
 70
8
 71
3
 72
8
 73
4
 74
0
 40
0
 40
0
 40
0
 40
0
 40
1
 40
1
 40
1
 40
1
 10
2.000000
 20
101.998602
 30
0.0
 10
2.000000
 20
75.476953
 30
0.0
 10
12.535684
 20
50.041562
 30
0.0
 10
31.289322
 20
31.287924
 30
0.0
  0
SPLINE
  5
105
100
AcDbEntity
  8
0
 62
1
100
AcDbSpline
 70
8
 71
3
 72
8
 73
4
 74
0
 40
0
 40
0
 40
0
 40
0
 40
1
 40
1
 40
1
 40
1
 10
31.289322
 20
31.287924
 30
0.0
 10
50.042960
 20
12.534286
 30
0.0
 10
75.478351
 20
1.998602
 30
0.0
 10
102.000000
 20
1.998602
 30
0.0
  0
SPLINE
  5
106
100
AcDbEntity
  8
0
 62
1
100
AcDbSpline
 70
8
 71
3
 72
8
 73
4
 74
0
 40
0
 40
0
 40
0
 40
0
 40
1
 40
1
 40
1
 40
1
 10
102.000000
 20
1.998602
 30
0.0
 10
128.521649
 20
1.998602
 30
0.0
 10
153.957040
 20
12.534286
 30
0.0
 10
172.710678
 20
31.287924
 30
0.0
  0
SPLINE
  5
107
100
AcDbEntity
  8
0
 62
1
100
AcDbSpline
 70
8
 71
3
 72
8
 73
4
 74
0
 40
0
 40
0
 40
0
 40
0
 40
1
 40
1
 40
1
 40
1
 10
172.710678
 20
31.287924
 30
0.0
 10
191.464316
 20
50.041562
 30
0.0
 10
202.000000
 20
75.476953
 30
0.0
 10
202.000000
 20
101.998602
 30
0.0
  0
LINE
  5
108
100
AcDbEntity
  8
0
 62
1
100
AcDbLine
 10
202.000000
 20
101.998602
 30
0.0
 11
202.000000
 21
101.998602
 31
0.0
  0
SPLINE
  5
109
100
AcDbEntity
  8
0
 62
1
100
AcDbSpline
 70
8
 71
3
 72
8
 73
4
 74
0
 40
0
 40
0
 40
0
 40
0
 40
1
 40
1
 40
1
 40
1
 10
202.000000
 20
101.998602
 30
0.0
 10
202.000000
 20
128.520251
 30
0.0
 10
191.464316
 20
153.955642
 30
0.0
 10
172.710678
 20
172.709280
 30
0.0
  0
SPLINE
  5
10a
100
AcDbEntity
  8
0
 62
1
100
AcDbSpline
 70
8
 71
3
 72
8
 73
4
 74
0
 40
0
 40
0
 40
0
 40
0
 40
1
 40
1
 40
1
 40
1
 10
172.710678
 20
172.709280
 30
0.0
 10
153.957040
 20
191.462918
 30
0.0
 10
128.521649
 20
201.998602
 30
0.0
 10
102.000000
 20
201.998602
 30
0.0
  0
SPLINE
  5
10b
100
AcDbEntity
  8
0
 62
1
100
AcDbSpline
 70
8
 71
3
 72
8
 73
4
 74
0
 40
0
 40
0
 40
0
 40
0
 40
1
 40
1
 40
1
 40
1
 10
102.000000
 20
201.998602
 30
0.0
 10
75.478351
 20
201.998602
 30
0.0
 10
50.042960
 20
191.462918
 30
0.0
 10
31.289322
 20
172.709280
 30
0.0
  0
SPLINE
  5
10c
100
AcDbEntity
  8
0
 62
1
100
AcDbSpline
 70
8
 71
3
 72
8
 73
4
 74
0
 40
0
 40
0
 40
0
 40
0
 40
1
 40
1
 40
1
 40
1
 10
31.289322
 20
172.709280
 30
0.0
 10
12.535684
 20
153.955642
 30
0.0
 10
2.000000
 20
128.520251
 30
0.0
 10
2.000000
 20
101.998602
 30
0.0
  0
SPLINE
  5
10d
100
AcDbEntity
  8
0
 62
1
100
AcDbSpline
 70
8
 71
3
 72
8
 73
4
 74
0
 40
0
 40
0
 40
0
 40
0
 40
1
 40
1
 40
1
 40
1
 10
2.000000
 20
101.998602
 30
0.0
 10
2.000000
 20
75.476953
 30
0.0
 10
12.535684
 20
50.041562
 30
0.0
 10
31.289322
 20
31.287924
 30
0.0
  0
SPLINE
  5
10e
100
AcDbEntity
  8
0
 62
1
100
AcDbSpline
 70
8
 71
3
 72
8
 73
4
 74
0
 40
0
 40
0
 40
0
 40
0
 40
1
 40
1
 40
1
 40
1
 10
31.289322
 20
31.287924
 30
0.0
 10
50.042960
 20
12.534286
 30
0.0
 10
75.478351
 20
1.998602
 30
0.0
 10
102.000000
 20
1.998602
 30
0.0
  0
SPLINE
  5
10f
100
AcDbEntity
  8
0
 62
1
100
AcDbSpline
 70
8
 71
3
 72
8
 73
4
 74
0
 40
0
 40
0
 40
0
 40
0
 40
1
 40
1
 40
1
 40
1
 10
102.000000
 20
1.998602
 30
0.0
 10
128.521649
 20
1.998602
 30
0.0
 10
153.957040
 20
12.534286
 30
0.0
 10
172.710678
 20
31.287924
 30
0.0
  0
SPLINE
  5
110
100
AcDbEntity
  8
0
 62
1
100
AcDbSpline
 70
8
 71
3
 72
8
 73
4
 74
0
 40
0
 40
0
 40
0
 40
0
 40
1
 40
1
 40
1
 40
1
 10
172.710678
 20
31.287924
 30
0.0
 10
191.464316
 20
50.041562
 30
0.0
 10
202.000000
 20
75.476953
 30
0.0
 10
202.000000
 20
101.998602
 30
0.0
  0
LINE
  5
111
100
AcDbEntity
  8
0
 62
1
100
AcDbLine
 10
202.000000
 20
101.998602
 30
0.0
 11
202.000000
 21
101.998602
 31
0.0
  0
SPLINE
  5
112
100
AcDbEntity
  8
0
 62
1
100
AcDbSpline
 70
8
 71
3
 72
8
 73
4
 74
0
 40
0
 40
0
 40
0
 40
0
 40
1
 40
1
 40
1
 40
1
 10
202.000000
 20
101.998602
 30
0.0
 10
202.000000
 20
128.520251
 30
0.0
 10
191.464316
 20
153.955642
 30
0.0
 10
172.710678
 20
172.709280
 30
0.0
  0
SPLINE
  5
113
100
AcDbEntity
  8
0
 62
1
100
AcDbSpline
 70
8
 71
3
 72
8
 73
4
 74
0
 40
0
 40
0
 40
0
 40
0
 40
1
 40
1
 40
1
 40
1
 10
172.710678
 20
172.709280
 30
0.0
 10
153.957040
 20
191.462918
 30
0.0
 10
128.521649
 20
201.998602
 30
0.0
 10
102.000000
 20
201.998602
 30
0.0
  0
SPLINE
  5
114
100
AcDbEntity
  8
0
 62
1
100
AcDbSpline
 70
8
 71
3
 72
8
 73
4
 74
0
 40
0
 40
0
 40
0
 40
0
 40
1
 40
1
 40
1
 40
1
 10
102.000000
 20
201.998602
 30
0.0
 10
75.478351
 20
201.998602
 30
0.0
 10
50.042960
 20
191.462918
 30
0.0
 10
31.289322
 20
172.709280
 30
0.0
  0
SPLINE
  5
115
100
AcDbEntity
  8
0
 62
1
100
AcDbSpline
 70
8
 71
3
 72
8
 73
4
 74
0
 40
0
 40
0
 40
0
 40
0
 40
1
 40
1
 40
1
 40
1
 10
31.289322
 20
172.709280
 30
0.0
 10
12.535684
 20
153.955642
 30
0.0
 10
2.000000
 20
128.520251
 30
0.0
 10
2.000000
 20
101.998602
 30
0.0
  0
SPLINE
  5
116
100
AcDbEntity
  8
0
 62
1
100
AcDbSpline
 70
8
 71
3
 72
8
 73
4
 74
0
 40
0
 40
0
 40
0
 40
0
 40
1
 40
1
 40
1
 40
1
 10
2.000000
 20
101.998602
 30
0.0
 10
2.000000
 20
75.476953
 30
0.0
 10
12.535684
 20
50.041562
 30
0.0
 10
31.289322
 20
31.287924
 30
0.0
  0
SPLINE
  5
117
100
AcDbEntity
  8
0
 62
1
100
AcDbSpline
 70
8
 71
3
 72
8
 73
4
 74
0
 40
0
 40
0
 40
0
 40
0
 40
1
 40
1
 40
1
 40
1
 10
31.289322
 20
31.287924
 30
0.0
 10
50.042960
 20
12.534286
 30
0.0
 10
75.478351
 20
1.998602
 30
0.0
 10
102.000000
 20
1.998602
 30
0.0
  0
SPLINE
  5
118
100
AcDbEntity
  8
0
 62
1
100
AcDbSpline
 70
8
 71
3
 72
8
 73
4
 74
0
 40
0
 40
0
 40
0
 40
0
 40
1
 40
1
 40
1
 40
1
 10
102.000000
 20
1.998602
 30
0.0
 10
128.521649
 20
1.998602
 30
0.0
 10
153.957040
 20
12.534286
 30
0.0
 10
172.710678
 20
31.287924
 30
0.0
  0
SPLINE
  5
119
100
AcDbEntity
  8
0
 62
1
100
AcDbSpline
 70
8
 71
3
 72
8
 73
4
 74
0
 40
0
 40
0
 40
0
 40
0
 40
1
 40
1
 40
1
 40
1
 10
172.710678
 20
31.287924
 30
0.0
 10
191.464316
 20
50.041562
 30
0.0
 10
202.000000
 20
75.476953
 30
0.0
 10
202.000000
 20
101.998602
 30
0.0
  0
LINE
  5
11a
100
AcDbEntity
  8
0
 62
1
100
AcDbLine
 10
202.000000
 20
101.998602
 30
0.0
 11
202.000000
 21
101.998602
 31
0.0
  0
SPLINE
  5
11b
100
AcDbEntity
  8
0
 62
1
100
AcDbSpline
 70
8
 71
3
 72
8
 73
4
 74
0
 40
0
 40
0
 40
0
 40
0
 40
1
 40
1
 40
1
 40
1
 10
66.000000
 20
32.716566
 30
0.0
 10
66.000000
 20
33.777432
 30
0.0
 10
65.578573
 20
34.794847
 30
0.0
 10
64.828427
 20
35.544993
 30
0.0
  0
SPLINE
  5
11c
100
AcDbEntity
  8
0
 62
1
100
AcDbSpline
 70
8
 71
3
 72
8
 73
4
 74
0
 40
0
 40
0
 40
0
 40
0
 40
1
 40
1
 40
1
 40
1
 10
64.828427
 20
35.544993
 30
0.0
 10
64.078282
 20
36.295138
 30
0.0
 10
63.060866
 20
36.716566
 30
0.0
 10
62.000000
 20
36.716566
 30
0.0
  0
SPLINE
  5
11d
100
AcDbEntity
  8
0
 62
1
100
AcDbSpline
 70
8
 71
3
 72
8
 73
4
 74
0
 40
0
 40
0
 40
0
 40
0
 40
1
 40
1
 40
1
 40
1
 10
62.000000
 20
36.716566
 30
0.0
 10
60.939134
 20
36.716566
 30
0.0
 10
59.921718
 20
36.295138
 30
0.0
 10
59.171573
 20
35.544993
 30
0.0
  0
SPLINE
  5
11e
100
AcDbEntity
  8
0
 62
1
100
AcDbSpline
 70
8
 71
3
 72
8
 73
4
 74
0
 40
0
 40
0
 40
0
 40
0
 40
1
 40
1
 40
1
 40
1
 10
59.171573
 20
35.544993
 30
0.0
 10
58.421427
 20
34.794847
 30
0.0
 10
58.000000
 20
33.777432
 30
0.0
 10
58.000000
 20
32.716566
 30
0.0
  0
SPLINE
  5
11f
100
AcDbEntity
  8
0
 62
1
100
AcDbSpline
 70
8
 71
3
 72
8
 73
4
 74
0
 40
0
 40
0
 40
0
 40
0
 40
1
 40
1
 40
1
 40
1
 10
58.000000
 20
32.716566
 30
0.0
 10
58.000000
 20
31.655700
 30
0.0
 10
58.421427
 20
30.638284
 30
0.0
 10
59.171573
 20
29.888139
 30
0.0
  0
SPLINE
  5
120
100
AcDbEntity
  8
0
 62
1
100
AcDbSpline
 70
8
 71
3
 72
8
 73
4
 74
0
 40
0
 40
0
 40
0
 40
0
 40
1
 40
1
 40
1
 40
1
 10
59.171573
 20
29.888139
 30
0.0
 10
59.921718
 20
29.137993
 30
0.0
 10
60.939134
 20
28.716566
 30
0.0
 10
62.000000
 20
28.716566
 30
0.0
  0
SPLINE
  5
121
100
AcDbEntity
  8
0
 62
1
100
AcDbSpline
 70
8
 71
3
 72
8
 73
4
 74
0
 40
0
 40
0
 40
0
 40
0
 40
1
 40
1
 40
1
 40
1
 10
62.000000
 20
28.716566
 30
0.0
 10
63.060866
 20
28.716566
 30
0.0
 10
64.078282
 20
29.137993
 30
0.0
 10
64.828427
 20
29.888139
 30
0.0
  0
SPLINE
  5
122
100
AcDbEntity
  8
0
 62
1
100
AcDbSpline
 70
8
 71
3
 72
8
 73
4
 74
0
 40
0
 40
0
 40
0
 40
0
 40
1
 40
1
 40
1
 40
1
 10
64.828427
 20
29.888139
 30
0.0
 10
65.578573
 20
30.638284
 30
0.0
 10
66.000000
 20
31.655700
 30
0.0
 10
66.000000
 20
32.716566
 30
0.0
  0
LINE
  5
123
100
AcDbEntity
  8
0
 62
1
100
AcDbLine
 10
66.000000
 20
32.716566
 30
0.0
 11
66.000000
 21
32.716566
 31
0.0
  0
SPLINE
  5
124
100
AcDbEntity
  8
0
 62
1
100
AcDbSpline
 70
8
 71
3
 72
8
 73
4
 74
0
 40
0
 40
0
 40
0
 40
0
 40
1
 40
1
 40
1
 40
1
 10
50.478531
 20
41.966570
 30
0.0
 10
50.478531
 20
43.160044
 30
0.0
 10
50.004425
 20
44.304637
 30
0.0
 10
49.160512
 20
45.148550
 30
0.0
  0
SPLINE
  5
125
100
AcDbEntity
  8
0
 62
1
100
AcDbSpline
 70
8
 71
3
 72
8
 73
4
 74
0
 40
0
 40
0
 40
0
 40
0
 40
1
 40
1
 40
1
 40
1
 10
49.160512
 20
45.148550
 30
0.0
 10
48.316598
 20
45.992464
 30
0.0
 10
47.172005
 20
46.466570
 30
0.0
 10
45.978531
 20
46.466570
 30
0.0
  0
SPLINE
  5
126
100
AcDbEntity
  8
0
 62
1
100
AcDbSpline
 70
8
 71
3
 72
8
 73
4
 74
0
 40
0
 40
0
 40
0
 40
0
 40
1
 40
1
 40
1
 40
1
 10
45.978531
 20
46.466570
 30
0.0
 10
44.785057
 20
46.466570
 30
0.0
 10
43.640464
 20
45.992464
 30
0.0
 10
42.796550
 20
45.148550
 30
0.0
  0
SPLINE
  5
127
100
AcDbEntity
  8
0
 62
1
100
AcDbSpline
 70
8
 71
3
 72
8
 73
4
 74
0
 40
0
 40
0
 40
0
 40
0
 40
1
 40
1
 40
1
 40
1
 10
42.796550
 20
45.148550
 30
0.0
 10
41.952637
 20
44.304637
 30
0.0
 10
41.478531
 20
43.160044
 30
0.0
 10
41.478531
 20
41.966570
 30
0.0
  0
SPLINE
  5
128
100
AcDbEntity
  8
0
 62
1
100
AcDbSpline
 70
8
 71
3
 72
8
 73
4
 74
0
 40
0
 40
0
 40
0
 40
0
 40
1
 40
1
 40
1
 40
1
 10
41.478531
 20
41.966570
 30
0.0
 10
41.478531
 20
39.481288
 30
0.0
 10
43.493250
 20
37.466570
 30
0.0
 10
45.978531
 20
37.466570
 30
0.0
  0
SPLINE
  5
129
100
AcDbEntity
  8
0
 62
1
100
AcDbSpline
 70
8
 71
3
 72
8
 73
4
 74
0
 40
0
 40
0
 40
0
 40
0
 40
1
 40
1
 40
1
 40
1
 10
45.978531
 20
37.466570
 30
0.0
 10
47.172005
 20
37.466570
 30
0.0
 10
48.316598
 20
37.940676
 30
0.0
 10
49.160512
 20
38.784589
 30
0.0
  0
SPLINE
  5
12a
100
AcDbEntity
  8
0
 62
1
100
AcDbSpline
 70
8
 71
3
 72
8
 73
4
 74
0
 40
0
 40
0
 40
0
 40
0
 40
1
 40
1
 40
1
 40
1
 10
49.160512
 20
38.784589
 30
0.0
 10
50.004425
 20
39.628503
 30
0.0
 10
50.478531
 20
40.773096
 30
0.0
 10
50.478531
 20
41.966570
 30
0.0
  0
LINE
  5
12b
100
AcDbEntity
  8
0
 62
1
100
AcDbLine
 10
50.478531
 20
41.966570
 30
0.0
 11
50.478531
 21
41.966570
 31
0.0
  0
SPLINE
  5
12c
100
AcDbEntity
  8
0
 62
1
100
AcDbSpline
 70
8
 71
3
 72
8
 73
4
 74
0
 40
0
 40
0
 40
0
 40
0
 40
1
 40
1
 40
1
 40
1
 10
80.625000
 20
57.181788
 30
0.0
 10
80.625000
 20
58.375262
 30
0.0
 10
80.150894
 20
59.519855
 30
0.0
 10
79.306981
 20
60.363768
 30
0.0
  0
SPLINE
  5
12d
100
AcDbEntity
  8
0
 62
1
100
AcDbSpline
 70
8
 71
3
 72
8
 73
4
 74
0
 40
0
 40
0
 40
0
 40
0
 40
1
 40
1
 40
1
 40
1
 10
79.306981
 20
60.363768
 30
0.0
 10
78.463067
 20
61.207682
 30
0.0
 10
77.318474
 20
61.681788
 30
0.0
 10
76.125000
 20
61.681788
 30
0.0
  0
SPLINE
  5
12e
100
AcDbEntity
  8
0
 62
1
100
AcDbSpline
 70
8
 71
3
 72
8
 73
4
 74
0
 40
0
 40
0
 40
0
 40
0
 40
1
 40
1
 40
1
 40
1
 10
76.125000
 20
61.681788
 30
0.0
 10
74.931526
 20
61.681788
 30
0.0
 10
73.786933
 20
61.207682
 30
0.0
 10
72.943019
 20
60.363768
 30
0.0
  0
SPLINE
  5
12f
100
AcDbEntity
  8
0
 62
1
100
AcDbSpline
 70
8
 71
3
 72
8
 73
4
 74
0
 40
0
 40
0
 40
0
 40
0
 40
1
 40
1
 40
1
 40
1
 10
72.943019
 20
60.363768
 30
0.0
 10
72.099106
 20
59.519855
 30
0.0
 10
71.625000
 20
58.375262
 30
0.0
 10
71.625000
 20
57.181788
 30
0.0
  0
SPLINE
  5
130
100
AcDbEntity
  8
0
 62
1
100
AcDbSpline
 70
8
 71
3
 72
8
 73
4
 74
0
 40
0
 40
0
 40
0
 40
0
 40
1
 40
1
 40
1
 40
1
 10
71.625000
 20
57.181788
 30
0.0
 10
71.625000
 20
55.988314
 30
0.0
 10
72.099106
 20
54.843721
 30
0.0
 10
72.943019
 20
53.999807
 30
0.0
  0
SPLINE
  5
131
100
AcDbEntity
  8
0
 62
1
100
AcDbSpline
 70
8
 71
3
 72
8
 73
4
 74
0
 40
0
 40
0
 40
0
 40
0
 40
1
 40
1
 40
1
 40
1
 10
72.943019
 20
53.999807
 30
0.0
 10
73.786933
 20
53.155894
 30
0.0
 10
74.931526
 20
52.681788
 30
0.0
 10
76.125000
 20
52.681788
 30
0.0
  0
SPLINE
  5
132
100
AcDbEntity
  8
0
 62
1
100
AcDbSpline
 70
8
 71
3
 72
8
 73
4
 74
0
 40
0
 40
0
 40
0
 40
0
 40
1
 40
1
 40
1
 40
1
 10
76.125000
 20
52.681788
 30
0.0
 10
77.318474
 20
52.681788
 30
0.0
 10
78.463067
 20
53.155894
 30
0.0
 10
79.306981
 20
53.999807
 30
0.0
  0
SPLINE
  5
133
100
AcDbEntity
  8
0
 62
1
100
AcDbSpline
 70
8
 71
3
 72
8
 73
4
 74
0
 40
0
 40
0
 40
0
 40
0
 40
1
 40
1
 40
1
 40
1
 10
79.306981
 20
53.999807
 30
0.0
 10
80.150894
 20
54.843721
 30
0.0
 10
80.625000
 20
55.988314
 30
0.0
 10
80.625000
 20
57.181788
 30
0.0
  0
LINE
  5
134
100
AcDbEntity
  8
0
 62
1
100
AcDbLine
 10
80.625000
 20
57.181788
 30
0.0
 11
80.625000
 21
57.181788
 31
0.0
  0
SPLINE
  5
135
100
AcDbEntity
  8
0
 62
1
100
AcDbSpline
 70
8
 71
3
 72
8
 73
4
 74
0
 40
0
 40
0
 40
0
 40
0
 40
1
 40
1
 40
1
 40
1
 10
50.478531
 20
162.030634
 30
0.0
 10
50.478531
 20
163.224108
 30
0.0
 10
50.004425
 20
164.368701
 30
0.0
 10
49.160512
 20
165.212614
 30
0.0
  0
SPLINE
  5
136
100
AcDbEntity
  8
0
 62
1
100
AcDbSpline
 70
8
 71
3
 72
8
 73
4
 74
0
 40
0
 40
0
 40
0
 40
0
 40
1
 40
1
 40
1
 40
1
 10
49.160512
 20
165.212614
 30
0.0
 10
48.316598
 20
166.056528
 30
0.0
 10
47.172005
 20
166.530634
 30
0.0
 10
45.978531
 20
166.530634
 30
0.0
  0
SPLINE
  5
137
100
AcDbEntity
  8
0
 62
1
100
AcDbSpline
 70
8
 71
3
 72
8
 73
4
 74
0
 40
0
 40
0
 40
0
 40
0
 40
1
 40
1
 40
1
 40
1
 10
45.978531
 20
166.530634
 30
0.0
 10
44.785057
 20
166.530634
 30
0.0
 10
43.640464
 20
166.056528
 30
0.0
 10
42.796550
 20
165.212614
 30
0.0
  0
SPLINE
  5
138
100
AcDbEntity
  8
0
 62
1
100
AcDbSpline
 70
8
 71
3
 72
8
 73
4
 74
0
 40
0
 40
0
 40
0
 40
0
 40
1
 40
1
 40
1
 40
1
 10
42.796550
 20
165.212614
 30
0.0
 10
41.952637
 20
164.368701
 30
0.0
 10
41.478531
 20
163.224108
 30
0.0
 10
41.478531
 20
162.030634
 30
0.0
  0
SPLINE
  5
139
100
AcDbEntity
  8
0
 62
1
100
AcDbSpline
 70
8
 71
3
 72
8
 73
4
 74
0
 40
0
 40
0
 40
0
 40
0
 40
1
 40
1
 40
1
 40
1
 10
41.478531
 20
162.030634
 30
0.0
 10
41.478531
 20
159.545352
 30
0.0
 10
43.493250
 20
157.530634
 30
0.0
 10
45.978531
 20
157.530634
 30
0.0
  0
SPLINE
  5
13a
100
AcDbEntity
  8
0
 62
1
100
AcDbSpline
 70
8
 71
3
 72
8
 73
4
 74
0
 40
0
 40
0
 40
0
 40
0
 40
1
 40
1
 40
1
 40
1
 10
45.978531
 20
157.530634
 30
0.0
 10
47.172005
 20
157.530634
 30
0.0
 10
48.316598
 20
158.004740
 30
0.0
 10
49.160512
 20
158.848653
 30
0.0
  0
SPLINE
  5
13b
100
AcDbEntity
  8
0
 62
1
100
AcDbSpline
 70
8
 71
3
 72
8
 73
4
 74
0
 40
0
 40
0
 40
0
 40
0
 40
1
 40
1
 40
1
 40
1
 10
49.160512
 20
158.848653
 30
0.0
 10
50.004425
 20
159.692567
 30
0.0
 10
50.478531
 20
160.837160
 30
0.0
 10
50.478531
 20
162.030634
 30
0.0
  0
LINE
  5
13c
100
AcDbEntity
  8
0
 62
1
100
AcDbLine
 10
50.478531
 20
162.030634
 30
0.0
 11
50.478531
 21
162.030634
 31
0.0
  0
SPLINE
  5
13d
100
AcDbEntity
  8
0
 62
1
100
AcDbSpline
 70
8
 71
3
 72
8
 73
4
 74
0
 40
0
 40
0
 40
0
 40
0
 40
1
 40
1
 40
1
 40
1
 10
80.625000
 20
146.815416
 30
0.0
 10
80.625000
 20
148.008890
 30
0.0
 10
80.150894
 20
149.153483
 30
0.0
 10
79.306981
 20
149.997396
 30
0.0
  0
SPLINE
  5
13e
100
AcDbEntity
  8
0
 62
1
100
AcDbSpline
 70
8
 71
3
 72
8
 73
4
 74
0
 40
0
 40
0
 40
0
 40
0
 40
1
 40
1
 40
1
 40
1
 10
79.306981
 20
149.997396
 30
0.0
 10
78.463067
 20
150.841310
 30
0.0
 10
77.318474
 20
151.315416
 30
0.0
 10
76.125000
 20
151.315416
 30
0.0
  0
SPLINE
  5
13f
100
AcDbEntity
  8
0
 62
1
100
AcDbSpline
 70
8
 71
3
 72
8
 73
4
 74
0
 40
0
 40
0
 40
0
 40
0
 40
1
 40
1
 40
1
 40
1
 10
76.125000
 20
151.315416
 30
0.0
 10
74.931526
 20
151.315416
 30
0.0
 10
73.786933
 20
150.841310
 30
0.0
 10
72.943019
 20
149.997396
 30
0.0
  0
SPLINE
  5
140
100
AcDbEntity
  8
0
 62
1
100
AcDbSpline
 70
8
 71
3
 72
8
 73
4
 74
0
 40
0
 40
0
 40
0
 40
0
 40
1
 40
1
 40
1
 40
1
 10
72.943019
 20
149.997396
 30
0.0
 10
72.099106
 20
149.153483
 30
0.0
 10
71.625000
 20
148.008890
 30
0.0
 10
71.625000
 20
146.815416
 30
0.0
  0
SPLINE
  5
141
100
AcDbEntity
  8
0
 62
1
100
AcDbSpline
 70
8
 71
3
 72
8
 73
4
 74
0
 40
0
 40
0
 40
0
 40
0
 40
1
 40
1
 40
1
 40
1
 10
71.625000
 20
146.815416
 30
0.0
 10
71.625000
 20
145.621942
 30
0.0
 10
72.099106
 20
144.477349
 30
0.0
 10
72.943019
 20
143.633435
 30
0.0
  0
SPLINE
  5
142
100
AcDbEntity
  8
0
 62
1
100
AcDbSpline
 70
8
 71
3
 72
8
 73
4
 74
0
 40
0
 40
0
 40
0
 40
0
 40
1
 40
1
 40
1
 40
1
 10
72.943019
 20
143.633435
 30
0.0
 10
73.786933
 20
142.789522
 30
0.0
 10
74.931526
 20
142.315416
 30
0.0
 10
76.125000
 20
142.315416
 30
0.0
  0
SPLINE
  5
143
100
AcDbEntity
  8
0
 62
1
100
AcDbSpline
 70
8
 71
3
 72
8
 73
4
 74
0
 40
0
 40
0
 40
0
 40
0
 40
1
 40
1
 40
1
 40
1
 10
76.125000
 20
142.315416
 30
0.0
 10
77.318474
 20
142.315416
 30
0.0
 10
78.463067
 20
142.789522
 30
0.0
 10
79.306981
 20
143.633435
 30
0.0
  0
SPLINE
  5
144
100
AcDbEntity
  8
0
 62
1
100
AcDbSpline
 70
8
 71
3
 72
8
 73
4
 74
0
 40
0
 40
0
 40
0
 40
0
 40
1
 40
1
 40
1
 40
1
 10
79.306981
 20
143.633435
 30
0.0
 10
80.150894
 20
144.477349
 30
0.0
 10
80.625000
 20
145.621942
 30
0.0
 10
80.625000
 20
146.815416
 30
0.0
  0
LINE
  5
145
100
AcDbEntity
  8
0
 62
1
100
AcDbLine
 10
80.625000
 20
146.815416
 30
0.0
 11
80.625000
 21
146.815416
 31
0.0
  0
SPLINE
  5
146
100
AcDbEntity
  8
0
 62
1
100
AcDbSpline
 70
8
 71
3
 72
8
 73
4
 74
0
 40
0
 40
0
 40
0
 40
0
 40
1
 40
1
 40
1
 40
1
 10
82.521469
 20
23.466566
 30
0.0
 10
82.521469
 20
24.660040
 30
0.0
 10
82.047363
 20
25.804633
 30
0.0
 10
81.203450
 20
26.648546
 30
0.0
  0
SPLINE
  5
147
100
AcDbEntity
  8
0
 62
1
100
AcDbSpline
 70
8
 71
3
 72
8
 73
4
 74
0
 40
0
 40
0
 40
0
 40
0
 40
1
 40
1
 40
1
 40
1
 10
81.203450
 20
26.648546
 30
0.0
 10
80.359536
 20
27.492460
 30
0.0
 10
79.214943
 20
27.966566
 30
0.0
 10
78.021469
 20
27.966566
 30
0.0
  0
SPLINE
  5
148
100
AcDbEntity
  8
0
 62
1
100
AcDbSpline
 70
8
 71
3
 72
8
 73
4
 74
0
 40
0
 40
0
 40
0
 40
0
 40
1
 40
1
 40
1
 40
1
 10
78.021469
 20
27.966566
 30
0.0
 10
75.536188
 20
27.966566
 30
0.0
 10
73.521469
 20
25.951847
 30
0.0
 10
73.521469
 20
23.466566
 30
0.0
  0
SPLINE
  5
149
100
AcDbEntity
  8
0
 62
1
100
AcDbSpline
 70
8
 71
3
 72
8
 73
4
 74
0
 40
0
 40
0
 40
0
 40
0
 40
1
 40
1
 40
1
 40
1
 10
73.521469
 20
23.466566
 30
0.0
 10
73.521469
 20
20.981284
 30
0.0
 10
75.536188
 20
18.966566
 30
0.0
 10
78.021469
 20
18.966566
 30
0.0
  0
SPLINE
  5
14a
100
AcDbEntity
  8
0
 62
1
100
AcDbSpline
 70
8
 71
3
 72
8
 73
4
 74
0
 40
0
 40
0
 40
0
 40
0
 40
1
 40
1
 40
1
 40
1
 10
78.021469
 20
18.966566
 30
0.0
 10
79.214943
 20
18.966566
 30
0.0
 10
80.359536
 20
19.440672
 30
0.0
 10
81.203450
 20
20.284585
 30
0.0
  0
SPLINE
  5
14b
100
AcDbEntity
  8
0
 62
1
100
AcDbSpline
 70
8
 71
3
 72
8
 73
4
 74
0
 40
0
 40
0
 40
0
 40
0
 40
1
 40
1
 40
1
 40
1
 10
81.203450
 20
20.284585
 30
0.0
 10
82.047363
 20
21.128499
 30
0.0
 10
82.521469
 20
22.273092
 30
0.0
 10
82.521469
 20
23.466566
 30
0.0
  0
LINE
  5
14c
100
AcDbEntity
  8
0
 62
1
100
AcDbLine
 10
82.521469
 20
23.466566
 30
0.0
 11
82.521469
 21
23.466566
 31
0.0
  0
SPLINE
  5
14d
100
AcDbEntity
  8
0
 62
1
100
AcDbSpline
 70
8
 71
3
 72
8
 73
4
 74
0
 40
0
 40
0
 40
0
 40
0
 40
1
 40
1
 40
1
 40
1
 10
186.000000
 20
101.998602
 30
0.0
 10
186.000000
 20
103.059468
 30
0.0
 10
185.578573
 20
104.076883
 30
0.0
 10
184.828427
 20
104.827029
 30
0.0
  0
SPLINE
  5
14e
100
AcDbEntity
  8
0
 62
1
100
AcDbSpline
 70
8
 71
3
 72
8
 73
4
 74
0
 40
0
 40
0
 40
0
 40
0
 40
1
 40
1
 40
1
 40
1
 10
184.828427
 20
104.827029
 30
0.0
 10
184.078282
 20
105.577174
 30
0.0
 10
183.060866
 20
105.998602
 30
0.0
 10
182.000000
 20
105.998602
 30
0.0
  0
SPLINE
  5
14f
100
AcDbEntity
  8
0
 62
1
100
AcDbSpline
 70
8
 71
3
 72
8
 73
4
 74
0
 40
0
 40
0
 40
0
 40
0
 40
1
 40
1
 40
1
 40
1
 10
182.000000
 20
105.998602
 30
0.0
 10
180.939134
 20
105.998602
 30
0.0
 10
179.921718
 20
105.577174
 30
0.0
 10
179.171573
 20
104.827029
 30
0.0
  0
SPLINE
  5
150
100
AcDbEntity
  8
0
 62
1
100
AcDbSpline
 70
8
 71
3
 72
8
 73
4
 74
0
 40
0
 40
0
 40
0
 40
0
 40
1
 40
1
 40
1
 40
1
 10
179.171573
 20
104.827029
 30
0.0
 10
178.421427
 20
104.076883
 30
0.0
 10
178.000000
 20
103.059468
 30
0.0
 10
178.000000
 20
101.998602
 30
0.0
  0
SPLINE
  5
151
100
AcDbEntity
  8
0
 62
1
100
AcDbSpline
 70
8
 71
3
 72
8
 73
4
 74
0
 40
0
 40
0
 40
0
 40
0
 40
1
 40
1
 40
1
 40
1
 10
178.000000
 20
101.998602
 30
0.0
 10
178.000000
 20
100.937736
 30
0.0
 10
178.421427
 20
99.920320
 30
0.0
 10
179.171573
 20
99.170175
 30
0.0
  0
SPLINE
  5
152
100
AcDbEntity
  8
0
 62
1
100
AcDbSpline
 70
8
 71
3
 72
8
 73
4
 74
0
 40
0
 40
0
 40
0
 40
0
 40
1
 40
1
 40
1
 40
1
 10
179.171573
 20
99.170175
 30
0.0
 10
179.921718
 20
98.420029
 30
0.0
 10
180.939134
 20
97.998602
 30
0.0
 10
182.000000
 20
97.998602
 30
0.0
  0
SPLINE
  5
153
100
AcDbEntity
  8
0
 62
1
100
AcDbSpline
 70
8
 71
3
 72
8
 73
4
 74
0
 40
0
 40
0
 40
0
 40
0
 40
1
 40
1
 40
1
 40
1
 10
182.000000
 20
97.998602
 30
0.0
 10
183.060866
 20
97.998602
 30
0.0
 10
184.078282
 20
98.420029
 30
0.0
 10
184.828427
 20
99.170175
 30
0.0
  0
SPLINE
  5
154
100
AcDbEntity
  8
0
 62
1
100
AcDbSpline
 70
8
 71
3
 72
8
 73
4
 74
0
 40
0
 40
0
 40
0
 40
0
 40
1
 40
1
 40
1
 40
1
 10
184.828427
 20
99.170175
 30
0.0
 10
185.578573
 20
99.920320
 30
0.0
 10
186.000000
 20
100.937736
 30
0.0
 10
186.000000
 20
101.998602
 30
0.0
  0
LINE
  5
155
100
AcDbEntity
  8
0
 62
1
100
AcDbLine
 10
186.000000
 20
101.998602
 30
0.0
 11
186.000000
 21
101.998602
 31
0.0
  0
SPLINE
  5
156
100
AcDbEntity
  8
0
 62
1
100
AcDbSpline
 70
8
 71
3
 72
8
 73
4
 74
0
 40
0
 40
0
 40
0
 40
0
 40
1
 40
1
 40
1
 40
1
 10
186.500000
 20
83.498602
 30
0.0
 10
186.500000
 20
84.692076
 30
0.0
 10
186.025894
 20
85.836669
 30
0.0
 10
185.181981
 20
86.680582
 30
0.0
  0
SPLINE
  5
157
100
AcDbEntity
  8
0
 62
1
100
AcDbSpline
 70
8
 71
3
 72
8
 73
4
 74
0
 40
0
 40
0
 40
0
 40
0
 40
1
 40
1
 40
1
 40
1
 10
185.181981
 20
86.680582
 30
0.0
 10
184.338067
 20
87.524496
 30
0.0
 10
183.193474
 20
87.998602
 30
0.0
 10
182.000000
 20
87.998602
 30
0.0
  0
SPLINE
  5
158
100
AcDbEntity
  8
0
 62
1
100
AcDbSpline
 70
8
 71
3
 72
8
 73
4
 74
0
 40
0
 40
0
 40
0
 40
0
 40
1
 40
1
 40
1
 40
1
 10
182.000000
 20
87.998602
 30
0.0
 10
180.806526
 20
87.998602
 30
0.0
 10
179.661933
 20
87.524496
 30
0.0
 10
178.818019
 20
86.680582
 30
0.0
  0
SPLINE
  5
159
100
AcDbEntity
  8
0
 62
1
100
AcDbSpline
 70
8
 71
3
 72
8
 73
4
 74
0
 40
0
 40
0
 40
0
 40
0
 40
1
 40
1
 40
1
 40
1
 10
178.818019
 20
86.680582
 30
0.0
 10
177.974106
 20
85.836669
 30
0.0
 10
177.500000
 20
84.692076
 30
0.0
 10
177.500000
 20
83.498602
 30
0.0
  0
SPLINE
  5
15a
100
AcDbEntity
  8
0
 62
1
100
AcDbSpline
 70
8
 71
3
 72
8
 73
4
 74
0
 40
0
 40
0
 40
0
 40
0
 40
1
 40
1
 40
1
 40
1
 10
177.500000
 20
83.498602
 30
0.0
 10
177.500000
 20
82.305128
 30
0.0
 10
177.974106
 20
81.160535
 30
0.0
 10
178.818019
 20
80.316621
 30
0.0
  0
SPLINE
  5
15b
100
AcDbEntity
  8
0
 62
1
100
AcDbSpline
 70
8
 71
3
 72
8
 73
4
 74
0
 40
0
 40
0
 40
0
 40
0
 40
1
 40
1
 40
1
 40
1
 10
178.818019
 20
80.316621
 30
0.0
 10
179.661933
 20
79.472708
 30
0.0
 10
180.806526
 20
78.998602
 30
0.0
 10
182.000000
 20
78.998602
 30
0.0
  0
SPLINE
  5
15c
100
AcDbEntity
  8
0
 62
1
100
AcDbSpline
 70
8
 71
3
 72
8
 73
4
 74
0
 40
0
 40
0
 40
0
 40
0
 40
1
 40
1
 40
1
 40
1
 10
182.000000
 20
78.998602
 30
0.0
 10
183.193474
 20
78.998602
 30
0.0
 10
184.338067
 20
79.472708
 30
0.0
 10
185.181981
 20
80.316621
 30
0.0
  0
SPLINE
  5
15d
100
AcDbEntity
  8
0
 62
1
100
AcDbSpline
 70
8
 71
3
 72
8
 73
4
 74
0
 40
0
 40
0
 40
0
 40
0
 40
1
 40
1
 40
1
 40
1
 10
185.181981
 20
80.316621
 30
0.0
 10
186.025894
 20
81.160535
 30
0.0
 10
186.500000
 20
82.305128
 30
0.0
 10
186.500000
 20
83.498602
 30
0.0
  0
LINE
  5
15e
100
AcDbEntity
  8
0
 62
1
100
AcDbLine
 10
186.500000
 20
83.498602
 30
0.0
 11
186.500000
 21
83.498602
 31
0.0
  0
SPLINE
  5
15f
100
AcDbEntity
  8
0
 62
1
100
AcDbSpline
 70
8
 71
3
 72
8
 73
4
 74
0
 40
0
 40
0
 40
0
 40
0
 40
1
 40
1
 40
1
 40
1
 10
158.250000
 20
101.998602
 30
0.0
 10
158.250000
 20
103.192076
 30
0.0
 10
157.775894
 20
104.336669
 30
0.0
 10
156.931981
 20
105.180582
 30
0.0
  0
SPLINE
  5
160
100
AcDbEntity
  8
0
 62
1
100
AcDbSpline
 70
8
 71
3
 72
8
 73
4
 74
0
 40
0
 40
0
 40
0
 40
0
 40
1
 40
1
 40
1
 40
1
 10
156.931981
 20
105.180582
 30
0.0
 10
156.088067
 20
106.024496
 30
0.0
 10
154.943474
 20
106.498602
 30
0.0
 10
153.750000
 20
106.498602
 30
0.0
  0
SPLINE
  5
161
100
AcDbEntity
  8
0
 62
1
100
AcDbSpline
 70
8
 71
3
 72
8
 73
4
 74
0
 40
0
 40
0
 40
0
 40
0
 40
1
 40
1
 40
1
 40
1
 10
153.750000
 20
106.498602
 30
0.0
 10
152.556526
 20
106.498602
 30
0.0
 10
151.411933
 20
106.024496
 30
0.0
 10
150.568019
 20
105.180582
 30
0.0
  0
SPLINE
  5
162
100
AcDbEntity
  8
0
 62
1
100
AcDbSpline
 70
8
 71
3
 72
8
 73
4
 74
0
 40
0
 40
0
 40
0
 40
0
 40
1
 40
1
 40
1
 40
1
 10
150.568019
 20
105.180582
 30
0.0
 10
149.724106
 20
104.336669
 30
0.0
 10
149.250000
 20
103.192076
 30
0.0
 10
149.250000
 20
101.998602
 30
0.0
  0
SPLINE
  5
163
100
AcDbEntity
  8
0
 62
1
100
AcDbSpline
 70
8
 71
3
 72
8
 73
4
 74
0
 40
0
 40
0
 40
0
 40
0
 40
1
 40
1
 40
1
 40
1
 10
149.250000
 20
101.998602
 30
0.0
 10
149.250000
 20
100.805128
 30
0.0
 10
149.724106
 20
99.660535
 30
0.0
 10
150.568019
 20
98.816621
 30
0.0
  0
SPLINE
  5
164
100
AcDbEntity
  8
0
 62
1
100
AcDbSpline
 70
8
 71
3
 72
8
 73
4
 74
0
 40
0
 40
0
 40
0
 40
0
 40
1
 40
1
 40
1
 40
1
 10
150.568019
 20
98.816621
 30
0.0
 10
151.411933
 20
97.972708
 30
0.0
 10
152.556526
 20
97.498602
 30
0.0
 10
153.750000
 20
97.498602
 30
0.0
  0
SPLINE
  5
165
100
AcDbEntity
  8
0
 62
1
100
AcDbSpline
 70
8
 71
3
 72
8
 73
4
 74
0
 40
0
 40
0
 40
0
 40
0
 40
1
 40
1
 40
1
 40
1
 10
153.750000
 20
97.498602
 30
0.0
 10
154.943474
 20
97.498602
 30
0.0
 10
156.088067
 20
97.972708
 30
0.0
 10
156.931981
 20
98.816621
 30
0.0
  0
SPLINE
  5
166
100
AcDbEntity
  8
0
 62
1
100
AcDbSpline
 70
8
 71
3
 72
8
 73
4
 74
0
 40
0
 40
0
 40
0
 40
0
 40
1
 40
1
 40
1
 40
1
 10
156.931981
 20
98.816621
 30
0.0
 10
157.775894
 20
99.660535
 30
0.0
 10
158.250000
 20
100.805128
 30
0.0
 10
158.250000
 20
101.998602
 30
0.0
  0
LINE
  5
167
100
AcDbEntity
  8
0
 62
1
100
AcDbLine
 10
158.250000
 20
101.998602
 30
0.0
 11
158.250000
 21
101.998602
 31
0.0
  0
SPLINE
  5
168
100
AcDbEntity
  8
0
 62
1
100
AcDbSpline
 70
8
 71
3
 72
8
 73
4
 74
0
 40
0
 40
0
 40
0
 40
0
 40
1
 40
1
 40
1
 40
1
 10
186.500000
 20
120.498602
 30
0.0
 10
186.500000
 20
121.692076
 30
0.0
 10
186.025894
 20
122.836669
 30
0.0
 10
185.181981
 20
123.680582
 30
0.0
  0
SPLINE
  5
169
100
AcDbEntity
  8
0
 62
1
100
AcDbSpline
 70
8
 71
3
 72
8
 73
4
 74
0
 40
0
 40
0
 40
0
 40
0
 40
1
 40
1
 40
1
 40
1
 10
185.181981
 20
123.680582
 30
0.0
 10
184.338067
 20
124.524496
 30
0.0
 10
183.193474
 20
124.998602
 30
0.0
 10
182.000000
 20
124.998602
 30
0.0
  0
SPLINE
  5
16a
100
AcDbEntity
  8
0
 62
1
100
AcDbSpline
 70
8
 71
3
 72
8
 73
4
 74
0
 40
0
 40
0
 40
0
 40
0
 40
1
 40
1
 40
1
 40
1
 10
182.000000
 20
124.998602
 30
0.0
 10
180.806526
 20
124.998602
 30
0.0
 10
179.661933
 20
124.524496
 30
0.0
 10
178.818019
 20
123.680582
 30
0.0
  0
SPLINE
  5
16b
100
AcDbEntity
  8
0
 62
1
100
AcDbSpline
 70
8
 71
3
 72
8
 73
4
 74
0
 40
0
 40
0
 40
0
 40
0
 40
1
 40
1
 40
1
 40
1
 10
178.818019
 20
123.680582
 30
0.0
 10
177.974106
 20
122.836669
 30
0.0
 10
177.500000
 20
121.692076
 30
0.0
 10
177.500000
 20
120.498602
 30
0.0
  0
SPLINE
  5
16c
100
AcDbEntity
  8
0
 62
1
100
AcDbSpline
 70
8
 71
3
 72
8
 73
4
 74
0
 40
0
 40
0
 40
0
 40
0
 40
1
 40
1
 40
1
 40
1
 10
177.500000
 20
120.498602
 30
0.0
 10
177.500000
 20
119.305128
 30
0.0
 10
177.974106
 20
118.160535
 30
0.0
 10
178.818019
 20
117.316621
 30
0.0
  0
SPLINE
  5
16d
100
AcDbEntity
  8
0
 62
1
100
AcDbSpline
 70
8
 71
3
 72
8
 73
4
 74
0
 40
0
 40
0
 40
0
 40
0
 40
1
 40
1
 40
1
 40
1
 10
178.818019
 20
117.316621
 30
0.0
 10
179.661933
 20
116.472708
 30
0.0
 10
180.806526
 20
115.998602
 30
0.0
 10
182.000000
 20
115.998602
 30
0.0
  0
SPLINE
  5
16e
100
AcDbEntity
  8
0
 62
1
100
AcDbSpline
 70
8
 71
3
 72
8
 73
4
 74
0
 40
0
 40
0
 40
0
 40
0
 40
1
 40
1
 40
1
 40
1
 10
182.000000
 20
115.998602
 30
0.0
 10
183.193474
 20
115.998602
 30
0.0
 10
184.338067
 20
116.472708
 30
0.0
 10
185.181981
 20
117.316621
 30
0.0
  0
SPLINE
  5
16f
100
AcDbEntity
  8
0
 62
1
100
AcDbSpline
 70
8
 71
3
 72
8
 73
4
 74
0
 40
0
 40
0
 40
0
 40
0
 40
1
 40
1
 40
1
 40
1
 10
185.181981
 20
117.316621
 30
0.0
 10
186.025894
 20
118.160535
 30
0.0
 10
186.500000
 20
119.305128
 30
0.0
 10
186.500000
 20
120.498602
 30
0.0
  0
LINE
  5
170
100
AcDbEntity
  8
0
 62
1
100
AcDbLine
 10
186.500000
 20
120.498602
 30
0.0
 11
186.500000
 21
120.498602
 31
0.0
  0
SPLINE
  5
171
100
AcDbEntity
  8
0
 62
1
100
AcDbSpline
 70
8
 71
3
 72
8
 73
4
 74
0
 40
0
 40
0
 40
0
 40
0
 40
1
 40
1
 40
1
 40
1
 10
66.000000
 20
171.280638
 30
0.0
 10
66.000000
 20
172.341504
 30
0.0
 10
65.578573
 20
173.358919
 30
0.0
 10
64.828427
 20
174.109065
 30
0.0
  0
SPLINE
  5
172
100
AcDbEntity
  8
0
 62
1
100
AcDbSpline
 70
8
 71
3
 72
8
 73
4
 74
0
 40
0
 40
0
 40
0
 40
0
 40
1
 40
1
 40
1
 40
1
 10
64.828427
 20
174.109065
 30
0.0
 10
64.078282
 20
174.859210
 30
0.0
 10
63.060866
 20
175.280638
 30
0.0
 10
62.000000
 20
175.280638
 30
0.0
  0
SPLINE
  5
173
100
AcDbEntity
  8
0
 62
1
100
AcDbSpline
 70
8
 71
3
 72
8
 73
4
 74
0
 40
0
 40
0
 40
0
 40
0
 40
1
 40
1
 40
1
 40
1
 10
62.000000
 20
175.280638
 30
0.0
 10
60.939134
 20
175.280638
 30
0.0
 10
59.921718
 20
174.859210
 30
0.0
 10
59.171573
 20
174.109065
 30
0.0
  0
SPLINE
  5
174
100
AcDbEntity
  8
0
 62
1
100
AcDbSpline
 70
8
 71
3
 72
8
 73
4
 74
0
 40
0
 40
0
 40
0
 40
0
 40
1
 40
1
 40
1
 40
1
 10
59.171573
 20
174.109065
 30
0.0
 10
58.421427
 20
173.358919
 30
0.0
 10
58.000000
 20
172.341504
 30
0.0
 10
58.000000
 20
171.280638
 30
0.0
  0
SPLINE
  5
175
100
AcDbEntity
  8
0
 62
1
100
AcDbSpline
 70
8
 71
3
 72
8
 73
4
 74
0
 40
0
 40
0
 40
0
 40
0
 40
1
 40
1
 40
1
 40
1
 10
58.000000
 20
171.280638
 30
0.0
 10
58.000000
 20
170.219772
 30
0.0
 10
58.421427
 20
169.202356
 30
0.0
 10
59.171573
 20
168.452211
 30
0.0
  0
SPLINE
  5
176
100
AcDbEntity
  8
0
 62
1
100
AcDbSpline
 70
8
 71
3
 72
8
 73
4
 74
0
 40
0
 40
0
 40
0
 40
0
 40
1
 40
1
 40
1
 40
1
 10
59.171573
 20
168.452211
 30
0.0
 10
59.921718
 20
167.702065
 30
0.0
 10
60.939134
 20
167.280638
 30
0.0
 10
62.000000
 20
167.280638
 30
0.0
  0
SPLINE
  5
177
100
AcDbEntity
  8
0
 62
1
100
AcDbSpline
 70
8
 71
3
 72
8
 73
4
 74
0
 40
0
 40
0
 40
0
 40
0
 40
1
 40
1
 40
1
 40
1
 10
62.000000
 20
167.280638
 30
0.0
 10
63.060866
 20
167.280638
 30
0.0
 10
64.078282
 20
167.702065
 30
0.0
 10
64.828427
 20
168.452211
 30
0.0
  0
SPLINE
  5
178
100
AcDbEntity
  8
0
 62
1
100
AcDbSpline
 70
8
 71
3
 72
8
 73
4
 74
0
 40
0
 40
0
 40
0
 40
0
 40
1
 40
1
 40
1
 40
1
 10
64.828427
 20
168.452211
 30
0.0
 10
65.578573
 20
169.202356
 30
0.0
 10
66.000000
 20
170.219772
 30
0.0
 10
66.000000
 20
171.280638
 30
0.0
  0
LINE
  5
179
100
AcDbEntity
  8
0
 62
1
100
AcDbLine
 10
66.000000
 20
171.280638
 30
0.0
 11
66.000000
 21
171.280638
 31
0.0
  0
SPLINE
  5
17a
100
AcDbEntity
  8
0
 62
1
100
AcDbSpline
 70
8
 71
3
 72
8
 73
4
 74
0
 40
0
 40
0
 40
0
 40
0
 40
1
 40
1
 40
1
 40
1
 10
82.521469
 20
180.530638
 30
0.0
 10
82.521469
 20
181.724112
 30
0.0
 10
82.047363
 20
182.868705
 30
0.0
 10
81.203450
 20
183.712618
 30
0.0
  0
SPLINE
  5
17b
100
AcDbEntity
  8
0
 62
1
100
AcDbSpline
 70
8
 71
3
 72
8
 73
4
 74
0
 40
0
 40
0
 40
0
 40
0
 40
1
 40
1
 40
1
 40
1
 10
81.203450
 20
183.712618
 30
0.0
 10
80.359536
 20
184.556532
 30
0.0
 10
79.214943
 20
185.030638
 30
0.0
 10
78.021469
 20
185.030638
 30
0.0
  0
SPLINE
  5
17c
100
AcDbEntity
  8
0
 62
1
100
AcDbSpline
 70
8
 71
3
 72
8
 73
4
 74
0
 40
0
 40
0
 40
0
 40
0
 40
1
 40
1
 40
1
 40
1
 10
78.021469
 20
185.030638
 30
0.0
 10
75.536188
 20
185.030638
 30
0.0
 10
73.521469
 20
183.015919
 30
0.0
 10
73.521469
 20
180.530638
 30
0.0
  0
SPLINE
  5
17d
100
AcDbEntity
  8
0
 62
1
100
AcDbSpline
 70
8
 71
3
 72
8
 73
4
 74
0
 40
0
 40
0
 40
0
 40
0
 40
1
 40
1
 40
1
 40
1
 10
73.521469
 20
180.530638
 30
0.0
 10
73.521469
 20
178.045356
 30
0.0
 10
75.536188
 20
176.030638
 30
0.0
 10
78.021469
 20
176.030638
 30
0.0
  0
SPLINE
  5
17e
100
AcDbEntity
  8
0
 62
1
100
AcDbSpline
 70
8
 71
3
 72
8
 73
4
 74
0
 40
0
 40
0
 40
0
 40
0
 40
1
 40
1
 40
1
 40
1
 10
78.021469
 20
176.030638
 30
0.0
 10
79.214943
 20
176.030638
 30
0.0
 10
80.359536
 20
176.504744
 30
0.0
 10
81.203450
 20
177.348657
 30
0.0
  0
SPLINE
  5
17f
100
AcDbEntity
  8
0
 62
1
100
AcDbSpline
 70
8
 71
3
 72
8
 73
4
 74
0
 40
0
 40
0
 40
0
 40
0
 40
1
 40
1
 40
1
 40
1
 10
81.203450
 20
177.348657
 30
0.0
 10
82.047363
 20
178.192571
 30
0.0
 10
82.521469
 20
179.337164
 30
0.0
 10
82.521469
 20
180.530638
 30
0.0
  0
LINE
  5
180
100
AcDbEntity
  8
0
 62
1
100
AcDbLine
 10
82.521469
 20
180.530638
 30
0.0
 11
82.521469
 21
180.530638
 31
0.0
  0
SPLINE
  5
181
100
AcDbEntity
  8
0
 62
1
100
AcDbSpline
 70
8
 71
3
 72
8
 73
4
 74
0
 40
0
 40
0
 40
0
 40
0
 40
1
 40
1
 40
1
 40
1
 10
104.000000
 20
101.998602
 30
0.0
 10
104.000000
 20
102.529035
 30
0.0
 10
103.789286
 20
103.037743
 30
0.0
 10
103.414214
 20
103.412815
 30
0.0
  0
SPLINE
  5
182
100
AcDbEntity
  8
0
 62
1
100
AcDbSpline
 70
8
 71
3
 72
8
 73
4
 74
0
 40
0
 40
0
 40
0
 40
0
 40
1
 40
1
 40
1
 40
1
 10
103.414214
 20
103.412815
 30
0.0
 10
103.039141
 20
103.787888
 30
0.0
 10
102.530433
 20
103.998602
 30
0.0
 10
102.000000
 20
103.998602
 30
0.0
  0
SPLINE
  5
183
100
AcDbEntity
  8
0
 62
1
100
AcDbSpline
 70
8
 71
3
 72
8
 73
4
 74
0
 40
0
 40
0
 40
0
 40
0
 40
1
 40
1
 40
1
 40
1
 10
102.000000
 20
103.998602
 30
0.0
 10
101.469567
 20
103.998602
 30
0.0
 10
100.960859
 20
103.787888
 30
0.0
 10
100.585786
 20
103.412815
 30
0.0
  0
SPLINE
  5
184
100
AcDbEntity
  8
0
 62
1
100
AcDbSpline
 70
8
 71
3
 72
8
 73
4
 74
0
 40
0
 40
0
 40
0
 40
0
 40
1
 40
1
 40
1
 40
1
 10
100.585786
 20
103.412815
 30
0.0
 10
100.210714
 20
103.037743
 30
0.0
 10
100.000000
 20
102.529035
 30
0.0
 10
100.000000
 20
101.998602
 30
0.0
  0
SPLINE
  5
185
100
AcDbEntity
  8
0
 62
1
100
AcDbSpline
 70
8
 71
3
 72
8
 73
4
 74
0
 40
0
 40
0
 40
0
 40
0
 40
1
 40
1
 40
1
 40
1
 10
100.000000
 20
101.998602
 30
0.0
 10
100.000000
 20
101.468169
 30
0.0
 10
100.210714
 20
100.959461
 30
0.0
 10
100.585786
 20
100.584388
 30
0.0
  0
SPLINE
  5
186
100
AcDbEntity
  8
0
 62
1
100
AcDbSpline
 70
8
 71
3
 72
8
 73
4
 74
0
 40
0
 40
0
 40
0
 40
0
 40
1
 40
1
 40
1
 40
1
 10
100.585786
 20
100.584388
 30
0.0
 10
100.960859
 20
100.209315
 30
0.0
 10
101.469567
 20
99.998602
 30
0.0
 10
102.000000
 20
99.998602
 30
0.0
  0
SPLINE
  5
187
100
AcDbEntity
  8
0
 62
1
100
AcDbSpline
 70
8
 71
3
 72
8
 73
4
 74
0
 40
0
 40
0
 40
0
 40
0
 40
1
 40
1
 40
1
 40
1
 10
102.000000
 20
99.998602
 30
0.0
 10
102.530433
 20
99.998602
 30
0.0
 10
103.039141
 20
100.209315
 30
0.0
 10
103.414214
 20
100.584388
 30
0.0
  0
SPLINE
  5
188
100
AcDbEntity
  8
0
 62
1
100
AcDbSpline
 70
8
 71
3
 72
8
 73
4
 74
0
 40
0
 40
0
 40
0
 40
0
 40
1
 40
1
 40
1
 40
1
 10
103.414214
 20
100.584388
 30
0.0
 10
103.789286
 20
100.959461
 30
0.0
 10
104.000000
 20
101.468169
 30
0.0
 10
104.000000
 20
101.998602
 30
0.0
  0
LINE
  5
189
100
AcDbEntity
  8
0
 62
1
100
AcDbLine
 10
104.000000
 20
101.998602
 30
0.0
 11
104.000000
 21
101.998602
 31
0.0
  0
SPLINE
  5
18a
100
AcDbEntity
  8
0
 62
1
100
AcDbSpline
 70
8
 71
3
 72
8
 73
4
 74
0
 40
0
 40
0
 40
0
 40
0
 40
1
 40
1
 40
1
 40
1
 10
104.000000
 20
101.998602
 30
0.0
 10
104.000000
 20
102.529035
 30
0.0
 10
103.789286
 20
103.037743
 30
0.0
 10
103.414214
 20
103.412815
 30
0.0
  0
SPLINE
  5
18b
100
AcDbEntity
  8
0
 62
1
100
AcDbSpline
 70
8
 71
3
 72
8
 73
4
 74
0
 40
0
 40
0
 40
0
 40
0
 40
1
 40
1
 40
1
 40
1
 10
103.414214
 20
103.412815
 30
0.0
 10
103.039141
 20
103.787888
 30
0.0
 10
102.530433
 20
103.998602
 30
0.0
 10
102.000000
 20
103.998602
 30
0.0
  0
SPLINE
  5
18c
100
AcDbEntity
  8
0
 62
1
100
AcDbSpline
 70
8
 71
3
 72
8
 73
4
 74
0
 40
0
 40
0
 40
0
 40
0
 40
1
 40
1
 40
1
 40
1
 10
102.000000
 20
103.998602
 30
0.0
 10
101.469567
 20
103.998602
 30
0.0
 10
100.960859
 20
103.787888
 30
0.0
 10
100.585786
 20
103.412815
 30
0.0
  0
SPLINE
  5
18d
100
AcDbEntity
  8
0
 62
1
100
AcDbSpline
 70
8
 71
3
 72
8
 73
4
 74
0
 40
0
 40
0
 40
0
 40
0
 40
1
 40
1
 40
1
 40
1
 10
100.585786
 20
103.412815
 30
0.0
 10
100.210714
 20
103.037743
 30
0.0
 10
100.000000
 20
102.529035
 30
0.0
 10
100.000000
 20
101.998602
 30
0.0
  0
SPLINE
  5
18e
100
AcDbEntity
  8
0
 62
1
100
AcDbSpline
 70
8
 71
3
 72
8
 73
4
 74
0
 40
0
 40
0
 40
0
 40
0
 40
1
 40
1
 40
1
 40
1
 10
100.000000
 20
101.998602
 30
0.0
 10
100.000000
 20
101.468169
 30
0.0
 10
100.210714
 20
100.959461
 30
0.0
 10
100.585786
 20
100.584388
 30
0.0
  0
SPLINE
  5
18f
100
AcDbEntity
  8
0
 62
1
100
AcDbSpline
 70
8
 71
3
 72
8
 73
4
 74
0
 40
0
 40
0
 40
0
 40
0
 40
1
 40
1
 40
1
 40
1
 10
100.585786
 20
100.584388
 30
0.0
 10
100.960859
 20
100.209315
 30
0.0
 10
101.469567
 20
99.998602
 30
0.0
 10
102.000000
 20
99.998602
 30
0.0
  0
SPLINE
  5
190
100
AcDbEntity
  8
0
 62
1
100
AcDbSpline
 70
8
 71
3
 72
8
 73
4
 74
0
 40
0
 40
0
 40
0
 40
0
 40
1
 40
1
 40
1
 40
1
 10
102.000000
 20
99.998602
 30
0.0
 10
102.530433
 20
99.998602
 30
0.0
 10
103.039141
 20
100.209315
 30
0.0
 10
103.414214
 20
100.584388
 30
0.0
  0
SPLINE
  5
191
100
AcDbEntity
  8
0
 62
1
100
AcDbSpline
 70
8
 71
3
 72
8
 73
4
 74
0
 40
0
 40
0
 40
0
 40
0
 40
1
 40
1
 40
1
 40
1
 10
103.414214
 20
100.584388
 30
0.0
 10
103.789286
 20
100.959461
 30
0.0
 10
104.000000
 20
101.468169
 30
0.0
 10
104.000000
 20
101.998602
 30
0.0
  0
LINE
  5
192
100
AcDbEntity
  8
0
 62
1
100
AcDbLine
 10
104.000000
 20
101.998602
 30
0.0
 11
104.000000
 21
101.998602
 31
0.0
  0
SPLINE
  5
193
100
AcDbEntity
  8
0
 62
7
100
AcDbSpline
 70
8
 71
3
 72
8
 73
4
 74
0
 40
0
 40
0
 40
0
 40
0
 40
1
 40
1
 40
1
 40
1
 10
104.000000
 20
101.998602
 30
0.0
 10
104.000000
 20
102.713133
 30
0.0
 10
103.618802
 20
103.373387
 30
0.0
 10
103.000000
 20
103.730652
 30
0.0
  0
SPLINE
  5
194
100
AcDbEntity
  8
0
 62
7
100
AcDbSpline
 70
8
 71
3
 72
8
 73
4
 74
0
 40
0
 40
0
 40
0
 40
0
 40
1
 40
1
 40
1
 40
1
 10
103.000000
 20
103.730652
 30
0.0
 10
102.381198
 20
104.087917
 30
0.0
 10
101.618802
 20
104.087917
 30
0.0
 10
101.000000
 20
103.730652
 30
0.0
  0
SPLINE
  5
195
100
AcDbEntity
  8
0
 62
7
100
AcDbSpline
 70
8
 71
3
 72
8
 73
4
 74
0
 40
0
 40
0
 40
0
 40
0
 40
1
 40
1
 40
1
 40
1
 10
101.000000
 20
103.730652
 30
0.0
 10
100.159447
 20
103.245358
 30
0.0
 10
99.788654
 20
102.226614
 30
0.0
 10
100.120615
 20
101.314560
 30
0.0
  0
SPLINE
  5
196
100
AcDbEntity
  8
0
 62
7
100
AcDbSpline
 70
8
 71
3
 72
8
 73
4
 74
0
 40
0
 40
0
 40
0
 40
0
 40
1
 40
1
 40
1
 40
1
 10
100.120615
 20
101.314560
 30
0.0
 10
100.452575
 20
100.402507
 30
0.0
 10
101.391455
 20
99.860445
 30
0.0
 10
102.347297
 20
100.028986
 30
0.0
  0
SPLINE
  5
197
100
AcDbEntity
  8
0
 62
7
100
AcDbSpline
 70
8
 71
3
 72
8
 73
4
 74
0
 40
0
 40
0
 40
0
 40
0
 40
1
 40
1
 40
1
 40
1
 10
102.347297
 20
100.028986
 30
0.0
 10
103.303139
 20
100.197527
 30
0.0
 10
104.000000
 20
101.028014
 30
0.0
 10
104.000000
 20
101.998602
 30
0.0
  0
SPLINE
  5
198
100
AcDbEntity
  8
0
 62
7
100
AcDbSpline
 70
8
 71
3
 72
8
 73
4
 74
0
 40
0
 40
0
 40
0
 40
0
 40
1
 40
1
 40
1
 40
1
 10
104.000000
 20
101.998602
 30
0.0
 10
104.000000
 20
101.998602
 30
0.0
 10
104.000000
 20
101.998602
 30
0.0
 10
104.000000
 20
101.998602
 30
0.0
  0
SPLINE
  5
199
100
AcDbEntity
  8
0
 62
7
100
AcDbSpline
 70
8
 71
3
 72
8
 73
4
 74
0
 40
0
 40
0
 40
0
 40
0
 40
1
 40
1
 40
1
 40
1
 10
104.000000
 20
101.998602
 30
0.0
 10
104.000000
 20
102.713133
 30
0.0
 10
103.618802
 20
103.373387
 30
0.0
 10
103.000000
 20
103.730652
 30
0.0
  0
SPLINE
  5
19a
100
AcDbEntity
  8
0
 62
7
100
AcDbSpline
 70
8
 71
3
 72
8
 73
4
 74
0
 40
0
 40
0
 40
0
 40
0
 40
1
 40
1
 40
1
 40
1
 10
103.000000
 20
103.730652
 30
0.0
 10
102.381198
 20
104.087917
 30
0.0
 10
101.618802
 20
104.087917
 30
0.0
 10
101.000000
 20
103.730652
 30
0.0
  0
SPLINE
  5
19b
100
AcDbEntity
  8
0
 62
7
100
AcDbSpline
 70
8
 71
3
 72
8
 73
4
 74
0
 40
0
 40
0
 40
0
 40
0
 40
1
 40
1
 40
1
 40
1
 10
101.000000
 20
103.730652
 30
0.0
 10
100.381199
 20
103.373386
 30
0.0
 10
100.000001
 20
102.713132
 30
0.0
 10
100.000001
 20
101.998602
 30
0.0
  0
SPLINE
  5
19c
100
AcDbEntity
  8
0
 62
7
100
AcDbSpline
 70
8
 71
3
 72
8
 73
4
 74
0
 40
0
 40
0
 40
0
 40
0
 40
1
 40
1
 40
1
 40
1
 10
100.000001
 20
101.998602
 30
0.0
 10
100.000001
 20
101.284071
 30
0.0
 10
100.381199
 20
100.623818
 30
0.0
 10
101.000000
 20
100.266552
 30
0.0
  0
SPLINE
  5
19d
100
AcDbEntity
  8
0
 62
7
100
AcDbSpline
 70
8
 71
3
 72
8
 73
4
 74
0
 40
0
 40
0
 40
0
 40
0
 40
1
 40
1
 40
1
 40
1
 10
101.000000
 20
100.266552
 30
0.0
 10
101.618802
 20
99.909286
 30
0.0
 10
102.381198
 20
99.909286
 30
0.0
 10
103.000000
 20
100.266552
 30
0.0
  0
SPLINE
  5
19e
100
AcDbEntity
  8
0
 62
7
100
AcDbSpline
 70
8
 71
3
 72
8
 73
4
 74
0
 40
0
 40
0
 40
0
 40
0
 40
1
 40
1
 40
1
 40
1
 10
103.000000
 20
100.266552
 30
0.0
 10
103.618802
 20
100.623817
 30
0.0
 10
104.000000
 20
101.284071
 30
0.0
 10
104.000000
 20
101.998602
 30
0.0
  0
LINE
  5
19f
100
AcDbEntity
  8
0
 62
7
100
AcDbLine
 10
104.000000
 20
101.998602
 30
0.0
 11
104.000000
 21
101.998602
 31
0.0
  0
SPLINE
  5
1a0
100
AcDbEntity
  8
0
 62
1
100
AcDbSpline
 70
8
 71
3
 72
8
 73
4
 74
0
 40
0
 40
0
 40
0
 40
0
 40
1
 40
1
 40
1
 40
1
 10
36.861816
 20
91.048189
 30
0.0
 10
36.861816
 20
92.109055
 30
0.0
 10
36.440389
 20
93.126470
 30
0.0
 10
35.690243
 20
93.876616
 30
0.0
  0
SPLINE
  5
1a1
100
AcDbEntity
  8
0
 62
1
100
AcDbSpline
 70
8
 71
3
 72
8
 73
4
 74
0
 40
0
 40
0
 40
0
 40
0
 40
1
 40
1
 40
1
 40
1
 10
35.690243
 20
93.876616
 30
0.0
 10
34.940098
 20
94.626762
 30
0.0
 10
33.922682
 20
95.048189
 30
0.0
 10
32.861816
 20
95.048189
 30
0.0
  0
SPLINE
  5
1a2
100
AcDbEntity
  8
0
 62
1
100
AcDbSpline
 70
8
 71
3
 72
8
 73
4
 74
0
 40
0
 40
0
 40
0
 40
0
 40
1
 40
1
 40
1
 40
1
 10
32.861816
 20
95.048189
 30
0.0
 10
31.800950
 20
95.048189
 30
0.0
 10
30.783534
 20
94.626762
 30
0.0
 10
30.033389
 20
93.876616
 30
0.0
  0
SPLINE
  5
1a3
100
AcDbEntity
  8
0
 62
1
100
AcDbSpline
 70
8
 71
3
 72
8
 73
4
 74
0
 40
0
 40
0
 40
0
 40
0
 40
1
 40
1
 40
1
 40
1
 10
30.033389
 20
93.876616
 30
0.0
 10
29.283243
 20
93.126470
 30
0.0
 10
28.861816
 20
92.109055
 30
0.0
 10
28.861816
 20
91.048189
 30
0.0
  0
SPLINE
  5
1a4
100
AcDbEntity
  8
0
 62
1
100
AcDbSpline
 70
8
 71
3
 72
8
 73
4
 74
0
 40
0
 40
0
 40
0
 40
0
 40
1
 40
1
 40
1
 40
1
 10
28.861816
 20
91.048189
 30
0.0
 10
28.861816
 20
89.987323
 30
0.0
 10
29.283243
 20
88.969907
 30
0.0
 10
30.033389
 20
88.219762
 30
0.0
  0
SPLINE
  5
1a5
100
AcDbEntity
  8
0
 62
1
100
AcDbSpline
 70
8
 71
3
 72
8
 73
4
 74
0
 40
0
 40
0
 40
0
 40
0
 40
1
 40
1
 40
1
 40
1
 10
30.033389
 20
88.219762
 30
0.0
 10
30.783534
 20
87.469616
 30
0.0
 10
31.800950
 20
87.048189
 30
0.0
 10
32.861816
 20
87.048189
 30
0.0
  0
SPLINE
  5
1a6
100
AcDbEntity
  8
0
 62
1
100
AcDbSpline
 70
8
 71
3
 72
8
 73
4
 74
0
 40
0
 40
0
 40
0
 40
0
 40
1
 40
1
 40
1
 40
1
 10
32.861816
 20
87.048189
 30
0.0
 10
33.922682
 20
87.048189
 30
0.0
 10
34.940098
 20
87.469616
 30
0.0
 10
35.690243
 20
88.219762
 30
0.0
  0
SPLINE
  5
1a7
100
AcDbEntity
  8
0
 62
1
100
AcDbSpline
 70
8
 71
3
 72
8
 73
4
 74
0
 40
0
 40
0
 40
0
 40
0
 40
1
 40
1
 40
1
 40
1
 10
35.690243
 20
88.219762
 30
0.0
 10
36.440389
 20
88.969907
 30
0.0
 10
36.861816
 20
89.987323
 30
0.0
 10
36.861816
 20
91.048189
 30
0.0
  0
LINE
  5
1a8
100
AcDbEntity
  8
0
 62
1
100
AcDbLine
 10
36.861816
 20
91.048189
 30
0.0
 11
36.861816
 21
91.048189
 31
0.0
  0
SPLINE
  5
1a9
100
AcDbEntity
  8
0
 62
1
100
AcDbSpline
 70
8
 71
3
 72
8
 73
4
 74
0
 40
0
 40
0
 40
0
 40
0
 40
1
 40
1
 40
1
 40
1
 10
36.861816
 20
91.048189
 30
0.0
 10
36.861816
 20
92.109055
 30
0.0
 10
36.440389
 20
93.126470
 30
0.0
 10
35.690243
 20
93.876616
 30
0.0
  0
SPLINE
  5
1aa
100
AcDbEntity
  8
0
 62
1
100
AcDbSpline
 70
8
 71
3
 72
8
 73
4
 74
0
 40
0
 40
0
 40
0
 40
0
 40
1
 40
1
 40
1
 40
1
 10
35.690243
 20
93.876616
 30
0.0
 10
34.940098
 20
94.626762
 30
0.0
 10
33.922682
 20
95.048189
 30
0.0
 10
32.861816
 20
95.048189
 30
0.0
  0
SPLINE
  5
1ab
100
AcDbEntity
  8
0
 62
1
100
AcDbSpline
 70
8
 71
3
 72
8
 73
4
 74
0
 40
0
 40
0
 40
0
 40
0
 40
1
 40
1
 40
1
 40
1
 10
32.861816
 20
95.048189
 30
0.0
 10
31.800950
 20
95.048189
 30
0.0
 10
30.783534
 20
94.626762
 30
0.0
 10
30.033389
 20
93.876616
 30
0.0
  0
SPLINE
  5
1ac
100
AcDbEntity
  8
0
 62
1
100
AcDbSpline
 70
8
 71
3
 72
8
 73
4
 74
0
 40
0
 40
0
 40
0
 40
0
 40
1
 40
1
 40
1
 40
1
 10
30.033389
 20
93.876616
 30
0.0
 10
29.283243
 20
93.126470
 30
0.0
 10
28.861816
 20
92.109055
 30
0.0
 10
28.861816
 20
91.048189
 30
0.0
  0
SPLINE
  5
1ad
100
AcDbEntity
  8
0
 62
1
100
AcDbSpline
 70
8
 71
3
 72
8
 73
4
 74
0
 40
0
 40
0
 40
0
 40
0
 40
1
 40
1
 40
1
 40
1
 10
28.861816
 20
91.048189
 30
0.0
 10
28.861816
 20
89.987323
 30
0.0
 10
29.283243
 20
88.969907
 30
0.0
 10
30.033389
 20
88.219762
 30
0.0
  0
SPLINE
  5
1ae
100
AcDbEntity
  8
0
 62
1
100
AcDbSpline
 70
8
 71
3
 72
8
 73
4
 74
0
 40
0
 40
0
 40
0
 40
0
 40
1
 40
1
 40
1
 40
1
 10
30.033389
 20
88.219762
 30
0.0
 10
30.783534
 20
87.469616
 30
0.0
 10
31.800950
 20
87.048189
 30
0.0
 10
32.861816
 20
87.048189
 30
0.0
  0
SPLINE
  5
1af
100
AcDbEntity
  8
0
 62
1
100
AcDbSpline
 70
8
 71
3
 72
8
 73
4
 74
0
 40
0
 40
0
 40
0
 40
0
 40
1
 40
1
 40
1
 40
1
 10
32.861816
 20
87.048189
 30
0.0
 10
33.922682
 20
87.048189
 30
0.0
 10
34.940098
 20
87.469616
 30
0.0
 10
35.690243
 20
88.219762
 30
0.0
  0
SPLINE
  5
1b0
100
AcDbEntity
  8
0
 62
1
100
AcDbSpline
 70
8
 71
3
 72
8
 73
4
 74
0
 40
0
 40
0
 40
0
 40
0
 40
1
 40
1
 40
1
 40
1
 10
35.690243
 20
88.219762
 30
0.0
 10
36.440389
 20
88.969907
 30
0.0
 10
36.861816
 20
89.987323
 30
0.0
 10
36.861816
 20
91.048189
 30
0.0
  0
LINE
  5
1b1
100
AcDbEntity
  8
0
 62
1
100
AcDbLine
 10
36.861816
 20
91.048189
 30
0.0
 11
36.861816
 21
91.048189
 31
0.0
  0
SPLINE
  5
1b2
100
AcDbEntity
  8
0
 62
1
100
AcDbSpline
 70
8
 71
3
 72
8
 73
4
 74
0
 40
0
 40
0
 40
0
 40
0
 40
1
 40
1
 40
1
 40
1
 10
36.861816
 20
91.048189
 30
0.0
 10
36.861816
 20
92.109055
 30
0.0
 10
36.440389
 20
93.126470
 30
0.0
 10
35.690243
 20
93.876616
 30
0.0
  0
SPLINE
  5
1b3
100
AcDbEntity
  8
0
 62
1
100
AcDbSpline
 70
8
 71
3
 72
8
 73
4
 74
0
 40
0
 40
0
 40
0
 40
0
 40
1
 40
1
 40
1
 40
1
 10
35.690243
 20
93.876616
 30
0.0
 10
34.940098
 20
94.626762
 30
0.0
 10
33.922682
 20
95.048189
 30
0.0
 10
32.861816
 20
95.048189
 30
0.0
  0
SPLINE
  5
1b4
100
AcDbEntity
  8
0
 62
1
100
AcDbSpline
 70
8
 71
3
 72
8
 73
4
 74
0
 40
0
 40
0
 40
0
 40
0
 40
1
 40
1
 40
1
 40
1
 10
32.861816
 20
95.048189
 30
0.0
 10
31.800950
 20
95.048189
 30
0.0
 10
30.783534
 20
94.626762
 30
0.0
 10
30.033389
 20
93.876616
 30
0.0
  0
SPLINE
  5
1b5
100
AcDbEntity
  8
0
 62
1
100
AcDbSpline
 70
8
 71
3
 72
8
 73
4
 74
0
 40
0
 40
0
 40
0
 40
0
 40
1
 40
1
 40
1
 40
1
 10
30.033389
 20
93.876616
 30
0.0
 10
29.283243
 20
93.126470
 30
0.0
 10
28.861816
 20
92.109055
 30
0.0
 10
28.861816
 20
91.048189
 30
0.0
  0
SPLINE
  5
1b6
100
AcDbEntity
  8
0
 62
1
100
AcDbSpline
 70
8
 71
3
 72
8
 73
4
 74
0
 40
0
 40
0
 40
0
 40
0
 40
1
 40
1
 40
1
 40
1
 10
28.861816
 20
91.048189
 30
0.0
 10
28.861816
 20
89.987323
 30
0.0
 10
29.283243
 20
88.969907
 30
0.0
 10
30.033389
 20
88.219762
 30
0.0
  0
SPLINE
  5
1b7
100
AcDbEntity
  8
0
 62
1
100
AcDbSpline
 70
8
 71
3
 72
8
 73
4
 74
0
 40
0
 40
0
 40
0
 40
0
 40
1
 40
1
 40
1
 40
1
 10
30.033389
 20
88.219762
 30
0.0
 10
30.783534
 20
87.469616
 30
0.0
 10
31.800950
 20
87.048189
 30
0.0
 10
32.861816
 20
87.048189
 30
0.0
  0
SPLINE
  5
1b8
100
AcDbEntity
  8
0
 62
1
100
AcDbSpline
 70
8
 71
3
 72
8
 73
4
 74
0
 40
0
 40
0
 40
0
 40
0
 40
1
 40
1
 40
1
 40
1
 10
32.861816
 20
87.048189
 30
0.0
 10
33.922682
 20
87.048189
 30
0.0
 10
34.940098
 20
87.469616
 30
0.0
 10
35.690243
 20
88.219762
 30
0.0
  0
SPLINE
  5
1b9
100
AcDbEntity
  8
0
 62
1
100
AcDbSpline
 70
8
 71
3
 72
8
 73
4
 74
0
 40
0
 40
0
 40
0
 40
0
 40
1
 40
1
 40
1
 40
1
 10
35.690243
 20
88.219762
 30
0.0
 10
36.440389
 20
88.969907
 30
0.0
 10
36.861816
 20
89.987323
 30
0.0
 10
36.861816
 20
91.048189
 30
0.0
  0
LINE
  5
1ba
100
AcDbEntity
  8
0
 62
1
100
AcDbLine
 10
36.861816
 20
91.048189
 30
0.0
 11
36.861816
 21
91.048189
 31
0.0
  0
SPLINE
  5
1bb
100
AcDbEntity
  8
0
 62
1
100
AcDbSpline
 70
8
 71
3
 72
8
 73
4
 74
0
 40
0
 40
0
 40
0
 40
0
 40
1
 40
1
 40
1
 40
1
 10
131.085756
 20
167.349234
 30
0.0
 10
131.085756
 20
168.410100
 30
0.0
 10
130.664329
 20
169.427515
 30
0.0
 10
129.914183
 20
170.177661
 30
0.0
  0
SPLINE
  5
1bc
100
AcDbEntity
  8
0
 62
1
100
AcDbSpline
 70
8
 71
3
 72
8
 73
4
 74
0
 40
0
 40
0
 40
0
 40
0
 40
1
 40
1
 40
1
 40
1
 10
129.914183
 20
170.177661
 30
0.0
 10
129.164038
 20
170.927806
 30
0.0
 10
128.146622
 20
171.349234
 30
0.0
 10
127.085756
 20
171.349234
 30
0.0
  0
SPLINE
  5
1bd
100
AcDbEntity
  8
0
 62
1
100
AcDbSpline
 70
8
 71
3
 72
8
 73
4
 74
0
 40
0
 40
0
 40
0
 40
0
 40
1
 40
1
 40
1
 40
1
 10
127.085756
 20
171.349234
 30
0.0
 10
126.024890
 20
171.349234
 30
0.0
 10
125.007474
 20
170.927806
 30
0.0
 10
124.257329
 20
170.177661
 30
0.0
  0
SPLINE
  5
1be
100
AcDbEntity
  8
0
 62
1
100
AcDbSpline
 70
8
 71
3
 72
8
 73
4
 74
0
 40
0
 40
0
 40
0
 40
0
 40
1
 40
1
 40
1
 40
1
 10
124.257329
 20
170.177661
 30
0.0
 10
123.507183
 20
169.427515
 30
0.0
 10
123.085756
 20
168.410100
 30
0.0
 10
123.085756
 20
167.349234
 30
0.0
  0
SPLINE
  5
1bf
100
AcDbEntity
  8
0
 62
1
100
AcDbSpline
 70
8
 71
3
 72
8
 73
4
 74
0
 40
0
 40
0
 40
0
 40
0
 40
1
 40
1
 40
1
 40
1
 10
123.085756
 20
167.349234
 30
0.0
 10
123.085756
 20
166.288368
 30
0.0
 10
123.507183
 20
165.270952
 30
0.0
 10
124.257329
 20
164.520807
 30
0.0
  0
SPLINE
  5
1c0
100
AcDbEntity
  8
0
 62
1
100
AcDbSpline
 70
8
 71
3
 72
8
 73
4
 74
0
 40
0
 40
0
 40
0
 40
0
 40
1
 40
1
 40
1
 40
1
 10
124.257329
 20
164.520807
 30
0.0
 10
125.007474
 20
163.770661
 30
0.0
 10
126.024890
 20
163.349234
 30
0.0
 10
127.085756
 20
163.349234
 30
0.0
  0
SPLINE
  5
1c1
100
AcDbEntity
  8
0
 62
1
100
AcDbSpline
 70
8
 71
3
 72
8
 73
4
 74
0
 40
0
 40
0
 40
0
 40
0
 40
1
 40
1
 40
1
 40
1
 10
127.085756
 20
163.349234
 30
0.0
 10
128.146622
 20
163.349234
 30
0.0
 10
129.164038
 20
163.770661
 30
0.0
 10
129.914183
 20
164.520807
 30
0.0
  0
SPLINE
  5
1c2
100
AcDbEntity
  8
0
 62
1
100
AcDbSpline
 70
8
 71
3
 72
8
 73
4
 74
0
 40
0
 40
0
 40
0
 40
0
 40
1
 40
1
 40
1
 40
1
 10
129.914183
 20
164.520807
 30
0.0
 10
130.664329
 20
165.270952
 30
0.0
 10
131.085756
 20
166.288368
 30
0.0
 10
131.085756
 20
167.349234
 30
0.0
  0
LINE
  5
1c3
100
AcDbEntity
  8
0
 62
1
100
AcDbLine
 10
131.085756
 20
167.349234
 30
0.0
 11
131.085756
 21
167.349234
 31
0.0
  0
SPLINE
  5
1c4
100
AcDbEntity
  8
0
 62
1
100
AcDbSpline
 70
8
 71
3
 72
8
 73
4
 74
0
 40
0
 40
0
 40
0
 40
0
 40
1
 40
1
 40
1
 40
1
 10
131.085756
 20
167.349234
 30
0.0
 10
131.085756
 20
168.410100
 30
0.0
 10
130.664329
 20
169.427515
 30
0.0
 10
129.914183
 20
170.177661
 30
0.0
  0
SPLINE
  5
1c5
100
AcDbEntity
  8
0
 62
1
100
AcDbSpline
 70
8
 71
3
 72
8
 73
4
 74
0
 40
0
 40
0
 40
0
 40
0
 40
1
 40
1
 40
1
 40
1
 10
129.914183
 20
170.177661
 30
0.0
 10
129.164038
 20
170.927806
 30
0.0
 10
128.146622
 20
171.349234
 30
0.0
 10
127.085756
 20
171.349234
 30
0.0
  0
SPLINE
  5
1c6
100
AcDbEntity
  8
0
 62
1
100
AcDbSpline
 70
8
 71
3
 72
8
 73
4
 74
0
 40
0
 40
0
 40
0
 40
0
 40
1
 40
1
 40
1
 40
1
 10
127.085756
 20
171.349234
 30
0.0
 10
126.024890
 20
171.349234
 30
0.0
 10
125.007474
 20
170.927806
 30
0.0
 10
124.257329
 20
170.177661
 30
0.0
  0
SPLINE
  5
1c7
100
AcDbEntity
  8
0
 62
1
100
AcDbSpline
 70
8
 71
3
 72
8
 73
4
 74
0
 40
0
 40
0
 40
0
 40
0
 40
1
 40
1
 40
1
 40
1
 10
124.257329
 20
170.177661
 30
0.0
 10
123.507183
 20
169.427515
 30
0.0
 10
123.085756
 20
168.410100
 30
0.0
 10
123.085756
 20
167.349234
 30
0.0
  0
SPLINE
  5
1c8
100
AcDbEntity
  8
0
 62
1
100
AcDbSpline
 70
8
 71
3
 72
8
 73
4
 74
0
 40
0
 40
0
 40
0
 40
0
 40
1
 40
1
 40
1
 40
1
 10
123.085756
 20
167.349234
 30
0.0
 10
123.085756
 20
166.288368
 30
0.0
 10
123.507183
 20
165.270952
 30
0.0
 10
124.257329
 20
164.520807
 30
0.0
  0
SPLINE
  5
1c9
100
AcDbEntity
  8
0
 62
1
100
AcDbSpline
 70
8
 71
3
 72
8
 73
4
 74
0
 40
0
 40
0
 40
0
 40
0
 40
1
 40
1
 40
1
 40
1
 10
124.257329
 20
164.520807
 30
0.0
 10
125.007474
 20
163.770661
 30
0.0
 10
126.024890
 20
163.349234
 30
0.0
 10
127.085756
 20
163.349234
 30
0.0
  0
SPLINE
  5
1ca
100
AcDbEntity
  8
0
 62
1
100
AcDbSpline
 70
8
 71
3
 72
8
 73
4
 74
0
 40
0
 40
0
 40
0
 40
0
 40
1
 40
1
 40
1
 40
1
 10
127.085756
 20
163.349234
 30
0.0
 10
128.146622
 20
163.349234
 30
0.0
 10
129.164038
 20
163.770661
 30
0.0
 10
129.914183
 20
164.520807
 30
0.0
  0
SPLINE
  5
1cb
100
AcDbEntity
  8
0
 62
1
100
AcDbSpline
 70
8
 71
3
 72
8
 73
4
 74
0
 40
0
 40
0
 40
0
 40
0
 40
1
 40
1
 40
1
 40
1
 10
129.914183
 20
164.520807
 30
0.0
 10
130.664329
 20
165.270952
 30
0.0
 10
131.085756
 20
166.288368
 30
0.0
 10
131.085756
 20
167.349234
 30
0.0
  0
LINE
  5
1cc
100
AcDbEntity
  8
0
 62
1
100
AcDbLine
 10
131.085756
 20
167.349234
 30
0.0
 11
131.085756
 21
167.349234
 31
0.0
  0
SPLINE
  5
1cd
100
AcDbEntity
  8
0
 62
1
100
AcDbSpline
 70
8
 71
3
 72
8
 73
4
 74
0
 40
0
 40
0
 40
0
 40
0
 40
1
 40
1
 40
1
 40
1
 10
131.085756
 20
167.349234
 30
0.0
 10
131.085756
 20
168.410100
 30
0.0
 10
130.664329
 20
169.427515
 30
0.0
 10
129.914183
 20
170.177661
 30
0.0
  0
SPLINE
  5
1ce
100
AcDbEntity
  8
0
 62
1
100
AcDbSpline
 70
8
 71
3
 72
8
 73
4
 74
0
 40
0
 40
0
 40
0
 40
0
 40
1
 40
1
 40
1
 40
1
 10
129.914183
 20
170.177661
 30
0.0
 10
129.164038
 20
170.927806
 30
0.0
 10
128.146622
 20
171.349234
 30
0.0
 10
127.085756
 20
171.349234
 30
0.0
  0
SPLINE
  5
1cf
100
AcDbEntity
  8
0
 62
1
100
AcDbSpline
 70
8
 71
3
 72
8
 73
4
 74
0
 40
0
 40
0
 40
0
 40
0
 40
1
 40
1
 40
1
 40
1
 10
127.085756
 20
171.349234
 30
0.0
 10
126.024890
 20
171.349234
 30
0.0
 10
125.007474
 20
170.927806
 30
0.0
 10
124.257329
 20
170.177661
 30
0.0
  0
SPLINE
  5
1d0
100
AcDbEntity
  8
0
 62
1
100
AcDbSpline
 70
8
 71
3
 72
8
 73
4
 74
0
 40
0
 40
0
 40
0
 40
0
 40
1
 40
1
 40
1
 40
1
 10
124.257329
 20
170.177661
 30
0.0
 10
123.507183
 20
169.427515
 30
0.0
 10
123.085756
 20
168.410100
 30
0.0
 10
123.085756
 20
167.349234
 30
0.0
  0
SPLINE
  5
1d1
100
AcDbEntity
  8
0
 62
1
100
AcDbSpline
 70
8
 71
3
 72
8
 73
4
 74
0
 40
0
 40
0
 40
0
 40
0
 40
1
 40
1
 40
1
 40
1
 10
123.085756
 20
167.349234
 30
0.0
 10
123.085756
 20
166.288368
 30
0.0
 10
123.507183
 20
165.270952
 30
0.0
 10
124.257329
 20
164.520807
 30
0.0
  0
SPLINE
  5
1d2
100
AcDbEntity
  8
0
 62
1
100
AcDbSpline
 70
8
 71
3
 72
8
 73
4
 74
0
 40
0
 40
0
 40
0
 40
0
 40
1
 40
1
 40
1
 40
1
 10
124.257329
 20
164.520807
 30
0.0
 10
125.007474
 20
163.770661
 30
0.0
 10
126.024890
 20
163.349234
 30
0.0
 10
127.085756
 20
163.349234
 30
0.0
  0
SPLINE
  5
1d3
100
AcDbEntity
  8
0
 62
1
100
AcDbSpline
 70
8
 71
3
 72
8
 73
4
 74
0
 40
0
 40
0
 40
0
 40
0
 40
1
 40
1
 40
1
 40
1
 10
127.085756
 20
163.349234
 30
0.0
 10
128.146622
 20
163.349234
 30
0.0
 10
129.164038
 20
163.770661
 30
0.0
 10
129.914183
 20
164.520807
 30
0.0
  0
SPLINE
  5
1d4
100
AcDbEntity
  8
0
 62
1
100
AcDbSpline
 70
8
 71
3
 72
8
 73
4
 74
0
 40
0
 40
0
 40
0
 40
0
 40
1
 40
1
 40
1
 40
1
 10
129.914183
 20
164.520807
 30
0.0
 10
130.664329
 20
165.270952
 30
0.0
 10
131.085756
 20
166.288368
 30
0.0
 10
131.085756
 20
167.349234
 30
0.0
  0
LINE
  5
1d5
100
AcDbEntity
  8
0
 62
1
100
AcDbLine
 10
131.085756
 20
167.349234
 30
0.0
 11
131.085756
 21
167.349234
 31
0.0
  0
SPLINE
  5
1d6
100
AcDbEntity
  8
0
 62
1
100
AcDbSpline
 70
8
 71
3
 72
8
 73
4
 74
0
 40
0
 40
0
 40
0
 40
0
 40
1
 40
1
 40
1
 40
1
 10
150.052429
 20
47.598383
 30
0.0
 10
150.052429
 20
48.659249
 30
0.0
 10
149.631002
 20
49.676664
 30
0.0
 10
148.880856
 20
50.426810
 30
0.0
  0
SPLINE
  5
1d7
100
AcDbEntity
  8
0
 62
1
100
AcDbSpline
 70
8
 71
3
 72
8
 73
4
 74
0
 40
0
 40
0
 40
0
 40
0
 40
1
 40
1
 40
1
 40
1
 10
148.880856
 20
50.426810
 30
0.0
 10
148.130711
 20
51.176955
 30
0.0
 10
147.113295
 20
51.598383
 30
0.0
 10
146.052429
 20
51.598383
 30
0.0
  0
SPLINE
  5
1d8
100
AcDbEntity
  8
0
 62
1
100
AcDbSpline
 70
8
 71
3
 72
8
 73
4
 74
0
 40
0
 40
0
 40
0
 40
0
 40
1
 40
1
 40
1
 40
1
 10
146.052429
 20
51.598383
 30
0.0
 10
144.991563
 20
51.598383
 30
0.0
 10
143.974147
 20
51.176955
 30
0.0
 10
143.224002
 20
50.426810
 30
0.0
  0
SPLINE
  5
1d9
100
AcDbEntity
  8
0
 62
1
100
AcDbSpline
 70
8
 71
3
 72
8
 73
4
 74
0
 40
0
 40
0
 40
0
 40
0
 40
1
 40
1
 40
1
 40
1
 10
143.224002
 20
50.426810
 30
0.0
 10
142.473856
 20
49.676664
 30
0.0
 10
142.052429
 20
48.659249
 30
0.0
 10
142.052429
 20
47.598383
 30
0.0
  0
SPLINE
  5
1da
100
AcDbEntity
  8
0
 62
1
100
AcDbSpline
 70
8
 71
3
 72
8
 73
4
 74
0
 40
0
 40
0
 40
0
 40
0
 40
1
 40
1
 40
1
 40
1
 10
142.052429
 20
47.598383
 30
0.0
 10
142.052429
 20
46.537517
 30
0.0
 10
142.473856
 20
45.520101
 30
0.0
 10
143.224002
 20
44.769956
 30
0.0
  0
SPLINE
  5
1db
100
AcDbEntity
  8
0
 62
1
100
AcDbSpline
 70
8
 71
3
 72
8
 73
4
 74
0
 40
0
 40
0
 40
0
 40
0
 40
1
 40
1
 40
1
 40
1
 10
143.224002
 20
44.769956
 30
0.0
 10
143.974147
 20
44.019810
 30
0.0
 10
144.991563
 20
43.598383
 30
0.0
 10
146.052429
 20
43.598383
 30
0.0
  0
SPLINE
  5
1dc
100
AcDbEntity
  8
0
 62
1
100
AcDbSpline
 70
8
 71
3
 72
8
 73
4
 74
0
 40
0
 40
0
 40
0
 40
0
 40
1
 40
1
 40
1
 40
1
 10
146.052429
 20
43.598383
 30
0.0
 10
147.113295
 20
43.598383
 30
0.0
 10
148.130711
 20
44.019810
 30
0.0
 10
148.880856
 20
44.769956
 30
0.0
  0
SPLINE
  5
1dd
100
AcDbEntity
  8
0
 62
1
100
AcDbSpline
 70
8
 71
3
 72
8
 73
4
 74
0
 40
0
 40
0
 40
0
 40
0
 40
1
 40
1
 40
1
 40
1
 10
148.880856
 20
44.769956
 30
0.0
 10
149.631002
 20
45.520101
 30
0.0
 10
150.052429
 20
46.537517
 30
0.0
 10
150.052429
 20
47.598383
 30
0.0
  0
LINE
  5
1de
100
AcDbEntity
  8
0
 62
1
100
AcDbLine
 10
150.052429
 20
47.598383
 30
0.0
 11
150.052429
 21
47.598383
 31
0.0
  0
SPLINE
  5
1df
100
AcDbEntity
  8
0
 62
1
100
AcDbSpline
 70
8
 71
3
 72
8
 73
4
 74
0
 40
0
 40
0
 40
0
 40
0
 40
1
 40
1
 40
1
 40
1
 10
150.052429
 20
47.598383
 30
0.0
 10
150.052429
 20
48.659249
 30
0.0
 10
149.631002
 20
49.676664
 30
0.0
 10
148.880856
 20
50.426810
 30
0.0
  0
SPLINE
  5
1e0
100
AcDbEntity
  8
0
 62
1
100
AcDbSpline
 70
8
 71
3
 72
8
 73
4
 74
0
 40
0
 40
0
 40
0
 40
0
 40
1
 40
1
 40
1
 40
1
 10
148.880856
 20
50.426810
 30
0.0
 10
148.130711
 20
51.176955
 30
0.0
 10
147.113295
 20
51.598383
 30
0.0
 10
146.052429
 20
51.598383
 30
0.0
  0
SPLINE
  5
1e1
100
AcDbEntity
  8
0
 62
1
100
AcDbSpline
 70
8
 71
3
 72
8
 73
4
 74
0
 40
0
 40
0
 40
0
 40
0
 40
1
 40
1
 40
1
 40
1
 10
146.052429
 20
51.598383
 30
0.0
 10
144.991563
 20
51.598383
 30
0.0
 10
143.974147
 20
51.176955
 30
0.0
 10
143.224002
 20
50.426810
 30
0.0
  0
SPLINE
  5
1e2
100
AcDbEntity
  8
0
 62
1
100
AcDbSpline
 70
8
 71
3
 72
8
 73
4
 74
0
 40
0
 40
0
 40
0
 40
0
 40
1
 40
1
 40
1
 40
1
 10
143.224002
 20
50.426810
 30
0.0
 10
142.473856
 20
49.676664
 30
0.0
 10
142.052429
 20
48.659249
 30
0.0
 10
142.052429
 20
47.598383
 30
0.0
  0
SPLINE
  5
1e3
100
AcDbEntity
  8
0
 62
1
100
AcDbSpline
 70
8
 71
3
 72
8
 73
4
 74
0
 40
0
 40
0
 40
0
 40
0
 40
1
 40
1
 40
1
 40
1
 10
142.052429
 20
47.598383
 30
0.0
 10
142.052429
 20
46.537517
 30
0.0
 10
142.473856
 20
45.520101
 30
0.0
 10
143.224002
 20
44.769956
 30
0.0
  0
SPLINE
  5
1e4
100
AcDbEntity
  8
0
 62
1
100
AcDbSpline
 70
8
 71
3
 72
8
 73
4
 74
0
 40
0
 40
0
 40
0
 40
0
 40
1
 40
1
 40
1
 40
1
 10
143.224002
 20
44.769956
 30
0.0
 10
143.974147
 20
44.019810
 30
0.0
 10
144.991563
 20
43.598383
 30
0.0
 10
146.052429
 20
43.598383
 30
0.0
  0
SPLINE
  5
1e5
100
AcDbEntity
  8
0
 62
1
100
AcDbSpline
 70
8
 71
3
 72
8
 73
4
 74
0
 40
0
 40
0
 40
0
 40
0
 40
1
 40
1
 40
1
 40
1
 10
146.052429
 20
43.598383
 30
0.0
 10
147.113295
 20
43.598383
 30
0.0
 10
148.130711
 20
44.019810
 30
0.0
 10
148.880856
 20
44.769956
 30
0.0
  0
SPLINE
  5
1e6
100
AcDbEntity
  8
0
 62
1
100
AcDbSpline
 70
8
 71
3
 72
8
 73
4
 74
0
 40
0
 40
0
 40
0
 40
0
 40
1
 40
1
 40
1
 40
1
 10
148.880856
 20
44.769956
 30
0.0
 10
149.631002
 20
45.520101
 30
0.0
 10
150.052429
 20
46.537517
 30
0.0
 10
150.052429
 20
47.598383
 30
0.0
  0
LINE
  5
1e7
100
AcDbEntity
  8
0
 62
1
100
AcDbLine
 10
150.052429
 20
47.598383
 30
0.0
 11
150.052429
 21
47.598383
 31
0.0
  0
SPLINE
  5
1e8
100
AcDbEntity
  8
0
 62
1
100
AcDbSpline
 70
8
 71
3
 72
8
 73
4
 74
0
 40
0
 40
0
 40
0
 40
0
 40
1
 40
1
 40
1
 40
1
 10
150.052429
 20
47.598383
 30
0.0
 10
150.052429
 20
48.659249
 30
0.0
 10
149.631002
 20
49.676664
 30
0.0
 10
148.880856
 20
50.426810
 30
0.0
  0
SPLINE
  5
1e9
100
AcDbEntity
  8
0
 62
1
100
AcDbSpline
 70
8
 71
3
 72
8
 73
4
 74
0
 40
0
 40
0
 40
0
 40
0
 40
1
 40
1
 40
1
 40
1
 10
148.880856
 20
50.426810
 30
0.0
 10
148.130711
 20
51.176955
 30
0.0
 10
147.113295
 20
51.598383
 30
0.0
 10
146.052429
 20
51.598383
 30
0.0
  0
SPLINE
  5
1ea
100
AcDbEntity
  8
0
 62
1
100
AcDbSpline
 70
8
 71
3
 72
8
 73
4
 74
0
 40
0
 40
0
 40
0
 40
0
 40
1
 40
1
 40
1
 40
1
 10
146.052429
 20
51.598383
 30
0.0
 10
144.991563
 20
51.598383
 30
0.0
 10
143.974147
 20
51.176955
 30
0.0
 10
143.224002
 20
50.426810
 30
0.0
  0
SPLINE
  5
1eb
100
AcDbEntity
  8
0
 62
1
100
AcDbSpline
 70
8
 71
3
 72
8
 73
4
 74
0
 40
0
 40
0
 40
0
 40
0
 40
1
 40
1
 40
1
 40
1
 10
143.224002
 20
50.426810
 30
0.0
 10
142.473856
 20
49.676664
 30
0.0
 10
142.052429
 20
48.659249
 30
0.0
 10
142.052429
 20
47.598383
 30
0.0
  0
SPLINE
  5
1ec
100
AcDbEntity
  8
0
 62
1
100
AcDbSpline
 70
8
 71
3
 72
8
 73
4
 74
0
 40
0
 40
0
 40
0
 40
0
 40
1
 40
1
 40
1
 40
1
 10
142.052429
 20
47.598383
 30
0.0
 10
142.052429
 20
46.537517
 30
0.0
 10
142.473856
 20
45.520101
 30
0.0
 10
143.224002
 20
44.769956
 30
0.0
  0
SPLINE
  5
1ed
100
AcDbEntity
  8
0
 62
1
100
AcDbSpline
 70
8
 71
3
 72
8
 73
4
 74
0
 40
0
 40
0
 40
0
 40
0
 40
1
 40
1
 40
1
 40
1
 10
143.224002
 20
44.769956
 30
0.0
 10
143.974147
 20
44.019810
 30
0.0
 10
144.991563
 20
43.598383
 30
0.0
 10
146.052429
 20
43.598383
 30
0.0
  0
SPLINE
  5
1ee
100
AcDbEntity
  8
0
 62
1
100
AcDbSpline
 70
8
 71
3
 72
8
 73
4
 74
0
 40
0
 40
0
 40
0
 40
0
 40
1
 40
1
 40
1
 40
1
 10
146.052429
 20
43.598383
 30
0.0
 10
147.113295
 20
43.598383
 30
0.0
 10
148.130711
 20
44.019810
 30
0.0
 10
148.880856
 20
44.769956
 30
0.0
  0
SPLINE
  5
1ef
100
AcDbEntity
  8
0
 62
1
100
AcDbSpline
 70
8
 71
3
 72
8
 73
4
 74
0
 40
0
 40
0
 40
0
 40
0
 40
1
 40
1
 40
1
 40
1
 10
148.880856
 20
44.769956
 30
0.0
 10
149.631002
 20
45.520101
 30
0.0
 10
150.052429
 20
46.537517
 30
0.0
 10
150.052429
 20
47.598383
 30
0.0
  0
LINE
  5
1f0
100
AcDbEntity
  8
0
 62
1
100
AcDbLine
 10
150.052429
 20
47.598383
 30
0.0
 11
150.052429
 21
47.598383
 31
0.0
  0
ENDSEC
  0
SECTION
  2
OBJECTS
  0
DICTIONARY
  5
C
330
0
100
AcDbDictionary
  3
ACAD_GROUP
350
D
  3
ACAD_MLINESTYLE
350
17
  0
DICTIONARY
  5
D
330
C
100
AcDbDictionary
  0
DICTIONARY
  5
1A
330
C
100
AcDbDictionary
  0
DICTIONARY
  5
17
330
C
100
AcDbDictionary
  3
STANDARD
350
18
  0
DICTIONARY
  5
19
330
C
100
AcDbDictionary
  0
ENDSEC
  0
EOF
