<?xml version="1.0" encoding="UTF-8" standalone="no"?>
<svg
   xmlns:dc="http://purl.org/dc/elements/1.1/"
   xmlns:cc="http://creativecommons.org/ns#"
   xmlns:rdf="http://www.w3.org/1999/02/22-rdf-syntax-ns#"
   xmlns:svg="http://www.w3.org/2000/svg"
   xmlns="http://www.w3.org/2000/svg"
   xmlns:xlink="http://www.w3.org/1999/xlink"
   xmlns:sodipodi="http://sodipodi.sourceforge.net/DTD/sodipodi-0.dtd"
   xmlns:inkscape="http://www.inkscape.org/namespaces/inkscape"
   inkscape:version="1.0 (4035a4f, 2020-05-01)"
   sodipodi:docname="base_20201011.svg"
   id="svg61"
   version="1.1"
   height="1122.5196850393702"
   width="793.7007874015749"
   viewBox="0 0 793.7007874015749 1122.5196850393702">
  <metadata
     id="metadata65">
    <rdf:RDF>
      <cc:Work
         rdf:about="">
        <dc:format>image/svg+xml</dc:format>
        <dc:type
           rdf:resource="http://purl.org/dc/dcmitype/StillImage" />
        <dc:title></dc:title>
      </cc:Work>
    </rdf:RDF>
  </metadata>
  <sodipodi:namedview
     inkscape:current-layer="g57"
     inkscape:window-maximized="0"
     inkscape:window-y="23"
     inkscape:window-x="0"
     inkscape:cy="752.49166"
     inkscape:cx="396.8504"
     inkscape:zoom="0.49450749"
     showgrid="false"
     id="namedview63"
     inkscape:window-height="950"
     inkscape:window-width="1920"
     inkscape:pageshadow="2"
     inkscape:pageopacity="0"
     guidetolerance="10"
     gridtolerance="10"
     objecttolerance="10"
     borderopacity="1"
     bordercolor="#666666"
     pagecolor="#ffffff" />
  <defs
     id="defs39">
    <marker
       style="overflow:visible"
       refY="0.0"
       refX="0.0"
       orient="auto"
       id="DistanceX">
      <path
         id="path28"
         style="stroke:#000000; stroke-width:0.5"
         d="M 3,-3 L -3,3 M 0,-5 L  0,5" />
    </marker>
    <pattern
       y="0"
       x="0"
       height="8"
       width="8"
       patternUnits="userSpaceOnUse"
       id="Hatch">
      <path
         id="path31"
         linecap="square"
         stroke-width="0.25"
         stroke="#000000"
         d="M8 4 l-4,4" />
      <path
         id="path33"
         linecap="square"
         stroke-width="0.25"
         stroke="#000000"
         d="M6 2 l-4,4" />
      <path
         id="path35"
         linecap="square"
         stroke-width="0.25"
         stroke="#000000"
         d="M4 0 l-4,4" />
    </pattern>
    <symbol
       id="CUT009" />
  </defs>
  <g
     id="g57"
     inkscape:label="0"
     inkscape:groupmode="layer">
    <path
       id="path41"
       style="fill:none;stroke:#000000"
       d="m 773.95276,694.5197 a 377.95276,377.95276 0 1 0 -755.90552,0 377.95276,377.95276 0 1 0 755.90552,0 z" />
    <path
       id="path43"
       style="fill:none;stroke:#000000"
       d="m 222.11025,462.14301 a 17.007875,17.007875 0 1 0 -34.01575,0 17.007875,17.007875 0 1 0 34.01575,0 z" />
    <path
       id="path45"
       style="fill:none;stroke:#000000"
       d="m 222.11025,926.8964 a 17.007875,17.007875 0 1 0 -34.01575,0 17.007875,17.007875 0 1 0 34.01575,0 z" />
    <path
       id="path47"
       style="fill:none;stroke:#000000"
       d="m 307.21259,976.0302 a 17.007875,17.007875 0 1 0 -34.01575,0 17.007875,17.007875 0 1 0 34.01575,0 z" />
    <path
       id="path49"
       style="fill:none;stroke:#000000"
       d="m 307.21259,413.00916 a 17.007875,17.007875 0 1 0 -34.01575,0 17.007875,17.007875 0 1 0 34.01575,0 z" />
    <path
       id="path51"
       style="fill:none;stroke:#000000"
       d="m 709.70079,645.3858 a 17.007875,17.007875 0 1 0 -34.01575,0 17.007875,17.007875 0 1 0 34.01575,0 z" />
    <path
       id="path53"
       style="fill:none;stroke:#000000"
       d="m 709.70079,743.6535 a 17.007875,17.007875 0 1 0 -34.01575,0 17.007875,17.007875 0 1 0 34.01575,0 z" />
    <use
       id="use55"
       transform="translate(0.000000, 0.000000)"
       xlink:href="#CUT009" />
  </g>
  <desc
     id="desc59">base.dxf - scale = 1.000000, origin = (0.000000, 0.000000), method = manual</desc>
</svg>
