  0
SECTION
  2
HEADER
  9
$ACADVER
  1
AC1014
  9
$HANDSEED
  5
FFFF
  9
$MEASUREMENT
 70
     1
  0
ENDSEC
  0
SECTION
  2
TABLES
  0
TABLE
  2
VPORT
  5
8
330
0
100
AcDbSymbolTable
 70
     4
  0
VPORT
  5
2E
330
8
100
AcDbSymbolTableRecord
100
AcDbViewportTableRecord
  2
*ACTIVE
 70
     0
 10
0.0
 20
0.0
 11
1.0
 21
1.0
 12
210.0
 22
148.5
 13
0.0
 23
0.0
 14
10.0
 24
10.0
 15
10.0
 25
10.0
 16
0.0
 26
0.0
 36
1.0
 17
0.0
 27
0.0
 37
0.0
 40
341.0
 41
1.24
 42
50.0
 43
0.0
 44
0.0
 50
0.0
 51
0.0
 71
     0
 72
   100
 73
     1
 74
     3
 75
     0
 76
     0
 77
     0
 78
     0
  0
ENDTAB
  0
TABLE
  2
LTYPE
  5
5
330
0
100
AcDbSymbolTable
 70
     1
  0
LTYPE
  5
14
330
5
100
AcDbSymbolTableRecord
100
AcDbLinetypeTableRecord
  2
BYBLOCK
 70
     0
  3

 72
    65
 73
     0
 40
0.0
  0
LTYPE
  5
15
330
5
100
AcDbSymbolTableRecord
100
AcDbLinetypeTableRecord
  2
BYLAYER
 70
     0
  3

 72
    65
 73
     0
 40
0.0
  0
LTYPE
  5
16
330
5
100
AcDbSymbolTableRecord
100
AcDbLinetypeTableRecord
  2
CONTINUOUS
 70
     0
  3
Solid line
 72
    65
 73
     0
 40
0.0
  0
ENDTAB
  0
TABLE
  2
LAYER
  5
2
100
AcDbSymbolTable
 70
1
  0
LAYER
  5
50
100
AcDbSymbolTableRecord
100
AcDbLayerTableRecord
  2
0
 70
0
  6
CONTINUOUS
  0
ENDTAB
  0
TABLE
  2
STYLE
  5
3
330
0
100
AcDbSymbolTable
 70
     1
  0
STYLE
  5
11
330
3
100
AcDbSymbolTableRecord
100
AcDbTextStyleTableRecord
  2
STANDARD
 70
     0
 40
0.0
 41
1.0
 50
0.0
 71
     0
 42
2.5
  3
txt
  4

  0
ENDTAB
  0
TABLE
  2
VIEW
  5
6
330
0
100
AcDbSymbolTable
 70
     0
  0
ENDTAB
  0
TABLE
  2
UCS
  5
7
330
0
100
AcDbSymbolTable
 70
     0
  0
ENDTAB
  0
TABLE
  2
APPID
  5
9
330
0
100
AcDbSymbolTable
 70
     2
  0
APPID
  5
12
330
9
100
AcDbSymbolTableRecord
100
AcDbRegAppTableRecord
  2
ACAD
 70
     0
  0
ENDTAB
  0
TABLE
  2
DIMSTYLE
  5
A
330
0
100
AcDbSymbolTable
 70
     1
  0
DIMSTYLE
105
27
330
A
100
AcDbSymbolTableRecord
100
AcDbDimStyleTableRecord
  2
ISO-25
 70
     0
  3

  4

  5

  6

  7

 40
1.0
 41
2.5
 42
0.625
 43
3.75
 44
1.25
 45
0.0
 46
0.0
 47
0.0
 48
0.0
140
2.5
141
2.5
142
0.0
143
0.03937007874016
144
1.0
145
0.0
146
1.0
147
0.625
 71
     0
 72
     0
 73
     0
 74
     0
 75
     0
 76
     0
 77
     1
 78
     8
170
     0
171
     3
172
     1
173
     0
174
     0
175
     0
176
     0
177
     0
178
     0
270
     2
271
     2
272
     2
273
     2
274
     3
340
11
275
     0
280
     0
281
     0
282
     0
283
     0
284
     8
285
     0
286
     0
287
     3
288
     0
  0
ENDTAB
  0
TABLE
  2
BLOCK_RECORD
  5
1
330
0
100
AcDbSymbolTable
 70
     1
  0
BLOCK_RECORD
  5
1F
330
1
100
AcDbSymbolTableRecord
100
AcDbBlockTableRecord
  2
*MODEL_SPACE
  0
BLOCK_RECORD
  5
1B
330
1
100
AcDbSymbolTableRecord
100
AcDbBlockTableRecord
  2
*PAPER_SPACE
  0
ENDTAB
  0
ENDSEC
  0
SECTION
  2
BLOCKS
  0
BLOCK
  5
20
330
1F
100
AcDbEntity
  8
0
100
AcDbBlockBegin
  2
*MODEL_SPACE
 70
     0
 10
0.0
 20
0.0
 30
0.0
  3
*MODEL_SPACE
  1

  0
ENDBLK
  5
21
330
1F
100
AcDbEntity
  8
0
100
AcDbBlockEnd
  0
BLOCK
  5
1C
330
1B
100
AcDbEntity
 67
     1
  8
0
100
AcDbBlockBegin
  2
*PAPER_SPACE
  1

  0
ENDBLK
  5
1D
330
1B
100
AcDbEntity
 67
     1
  8
0
100
AcDbBlockEnd
  0
ENDSEC
  0
SECTION
  2
ENTITIES
  0
SPLINE
  5
100
100
AcDbEntity
  8
0
 62
7
100
AcDbSpline
 70
0
 71
3
 72
61
 73
57
 74
55
 40
0.000000
 40
0.000000
 40
0.000000
 40
0.000000
 40
34.896412
 40
69.293401
 40
104.189812
 40
139.086224
 40
173.483213
 40
208.379624
 40
243.276036
 40
277.673025
 40
312.569437
 40
347.465848
 40
381.862837
 40
416.759249
 40
451.655660
 40
486.052650
 40
520.949061
 40
555.845473
 40
590.242462
 40
625.138873
 40
660.035285
 40
694.432274
 40
729.328686
 40
764.225097
 40
798.622086
 40
833.518498
 40
868.414909
 40
902.811898
 40
937.708310
 40
972.604721
 40
1007.001711
 40
1041.898122
 40
1076.794534
 40
1111.191523
 40
1146.087934
 40
1180.984346
 40
1215.381335
 40
1250.277747
 40
1285.174158
 40
1319.571147
 40
1354.467559
 40
1389.363970
 40
1423.760960
 40
1458.657371
 40
1493.553783
 40
1527.950772
 40
1562.847183
 40
1597.743595
 40
1632.140584
 40
1667.036996
 40
1701.933407
 40
1736.330396
 40
1771.226808
 40
1806.123219
 40
1840.520208
 40
1875.416620
 40
1875.416620
 40
1875.416620
 40
1875.416620
 10
202.000000
 20
101.998602
 30
0.0
 10
200.805204
 20
113.690066
 30
0.0
 10
198.432712
 20
136.905670
 30
0.0
 10
180.026044
 20
167.585448
 30
0.0
 10
153.075567
 20
190.395059
 30
0.0
 10
119.702476
 20
202.492516
 30
0.0
 10
84.289864
 20
202.492516
 30
0.0
 10
50.963515
 20
190.395059
 30
0.0
 10
23.826408
 20
167.585448
 30
0.0
 10
6.113173
 20
136.905670
 30
0.0
 10
-0.071422
 20
101.998602
 30
0.0
 10
6.113224
 20
67.091534
 30
0.0
 10
23.826207
 20
36.411755
 30
0.0
 10
50.964281
 20
13.602145
 30
0.0
 10
84.287022
 20
1.504687
 30
0.0
 10
119.712978
 20
1.504687
 30
0.0
 10
153.035718
 20
13.602145
 30
0.0
 10
180.173794
 20
36.411755
 30
0.0
 10
197.886772
 20
67.091534
 30
0.0
 10
204.071437
 20
101.998602
 30
0.0
 10
197.886772
 20
136.905670
 30
0.0
 10
180.173794
 20
167.585448
 30
0.0
 10
153.035718
 20
190.395059
 30
0.0
 10
119.712978
 20
202.492516
 30
0.0
 10
84.287022
 20
202.492516
 30
0.0
 10
50.964282
 20
190.395059
 30
0.0
 10
23.826206
 20
167.585448
 30
0.0
 10
6.113228
 20
136.905670
 30
0.0
 10
-0.071437
 20
101.998602
 30
0.0
 10
6.113228
 20
67.091534
 30
0.0
 10
23.826206
 20
36.411755
 30
0.0
 10
50.964282
 20
13.602145
 30
0.0
 10
84.287022
 20
1.504687
 30
0.0
 10
119.712978
 20
1.504687
 30
0.0
 10
153.035718
 20
13.602145
 30
0.0
 10
180.173794
 20
36.411755
 30
0.0
 10
197.886772
 20
67.091534
 30
0.0
 10
204.071437
 20
101.998602
 30
0.0
 10
197.886772
 20
136.905670
 30
0.0
 10
180.173794
 20
167.585448
 30
0.0
 10
153.035718
 20
190.395059
 30
0.0
 10
119.712978
 20
202.492516
 30
0.0
 10
84.287022
 20
202.492516
 30
0.0
 10
50.964281
 20
190.395059
 30
0.0
 10
23.826207
 20
167.585448
 30
0.0
 10
6.113224
 20
136.905670
 30
0.0
 10
-0.071422
 20
101.998602
 30
0.0
 10
6.113173
 20
67.091534
 30
0.0
 10
23.826408
 20
36.411755
 30
0.0
 10
50.963515
 20
13.602145
 30
0.0
 10
84.289864
 20
1.504687
 30
0.0
 10
119.702476
 20
1.504687
 30
0.0
 10
153.075567
 20
13.602145
 30
0.0
 10
180.026044
 20
36.411755
 30
0.0
 10
198.432712
 20
67.091534
 30
0.0
 10
200.805204
 20
90.307138
 30
0.0
 10
202.000000
 20
101.998602
 30
0.0
 11
202.000000
 21
101.998602
 31
0.0
 11
195.912617
 21
136.359965
 31
0.0
 11
178.714122
 21
166.148632
 31
0.0
 11
152.000000
 21
188.601142
 31
0.0
 11
119.198495
 21
200.509995
 31
0.0
 11
84.801505
 21
200.509995
 31
0.0
 11
52.000000
 21
188.601142
 31
0.0
 11
25.285878
 21
166.148632
 31
0.0
 11
8.087383
 21
136.359965
 31
0.0
 11
2.000000
 21
101.998602
 31
0.0
 11
8.087383
 21
67.637238
 31
0.0
 11
25.285878
 21
37.848572
 31
0.0
 11
52.000000
 21
15.396061
 31
0.0
 11
84.801505
 21
3.487208
 31
0.0
 11
119.198495
 21
3.487208
 31
0.0
 11
152.000000
 21
15.396061
 31
0.0
 11
178.714122
 21
37.848572
 31
0.0
 11
195.912617
 21
67.637238
 31
0.0
 11
202.000000
 21
101.998602
 31
0.0
 11
195.912617
 21
136.359965
 31
0.0
 11
178.714122
 21
166.148632
 31
0.0
 11
152.000000
 21
188.601142
 31
0.0
 11
119.198495
 21
200.509995
 31
0.0
 11
84.801505
 21
200.509995
 31
0.0
 11
52.000000
 21
188.601142
 31
0.0
 11
25.285878
 21
166.148632
 31
0.0
 11
8.087383
 21
136.359965
 31
0.0
 11
2.000000
 21
101.998602
 31
0.0
 11
8.087383
 21
67.637238
 31
0.0
 11
25.285878
 21
37.848572
 31
0.0
 11
52.000000
 21
15.396061
 31
0.0
 11
84.801505
 21
3.487208
 31
0.0
 11
119.198495
 21
3.487208
 31
0.0
 11
152.000000
 21
15.396061
 31
0.0
 11
178.714122
 21
37.848572
 31
0.0
 11
195.912617
 21
67.637238
 31
0.0
 11
202.000000
 21
101.998602
 31
0.0
 11
195.912617
 21
136.359965
 31
0.0
 11
178.714122
 21
166.148632
 31
0.0
 11
152.000000
 21
188.601142
 31
0.0
 11
119.198495
 21
200.509995
 31
0.0
 11
84.801505
 21
200.509995
 31
0.0
 11
52.000000
 21
188.601142
 31
0.0
 11
25.285878
 21
166.148632
 31
0.0
 11
8.087383
 21
136.359965
 31
0.0
 11
2.000000
 21
101.998602
 31
0.0
 11
8.087383
 21
67.637238
 31
0.0
 11
25.285878
 21
37.848572
 31
0.0
 11
52.000000
 21
15.396061
 31
0.0
 11
84.801505
 21
3.487208
 31
0.0
 11
119.198495
 21
3.487208
 31
0.0
 11
152.000000
 21
15.396061
 31
0.0
 11
178.714122
 21
37.848572
 31
0.0
 11
195.912617
 21
67.637238
 31
0.0
 11
202.000000
 21
101.998602
 31
0.0
  0
LWPOLYLINE
  5
101
100
AcDbEntity
  8
0
 62
7
100
AcDbPolyline
 90
3
 70
1
 10
202.000000
 20
101.998602
 30
0.0
 10
202.000000
 20
101.998602
 30
0.0
 10
202.000000
 20
101.998602
 30
0.0
  0
SPLINE
  5
102
100
AcDbEntity
  8
0
 62
7
100
AcDbSpline
 70
0
 71
3
 72
25
 73
21
 74
19
 40
0.000000
 40
0.000000
 40
0.000000
 40
0.000000
 40
1.395856
 40
2.771736
 40
4.167592
 40
5.563449
 40
6.939329
 40
8.335185
 40
9.731041
 40
11.106921
 40
12.502777
 40
13.898634
 40
15.274513
 40
16.670370
 40
18.066226
 40
19.442106
 40
20.837962
 40
22.233819
 40
23.609698
 40
25.005555
 40
25.005555
 40
25.005555
 40
25.005555
 10
66.000000
 20
32.716569
 30
0.0
 10
65.952208
 20
33.184228
 30
0.0
 10
65.857308
 20
34.112852
 30
0.0
 10
65.121042
 20
35.340043
 30
0.0
 10
64.043023
 20
36.252428
 30
0.0
 10
62.708099
 20
36.736326
 30
0.0
 10
61.291595
 20
36.736326
 30
0.0
 10
59.958541
 20
36.252428
 30
0.0
 10
58.873056
 20
35.340043
 30
0.0
 10
58.164527
 20
34.112852
 30
0.0
 10
57.917144
 20
32.716569
 30
0.0
 10
58.164527
 20
31.320287
 30
0.0
 10
58.873056
 20
30.093096
 30
0.0
 10
59.958541
 20
29.180711
 30
0.0
 10
61.291595
 20
28.696813
 30
0.0
 10
62.708099
 20
28.696813
 30
0.0
 10
64.043023
 20
29.180711
 30
0.0
 10
65.121042
 20
30.093096
 30
0.0
 10
65.857308
 20
31.320287
 30
0.0
 10
65.952208
 20
32.248911
 30
0.0
 10
66.000000
 20
32.716569
 30
0.0
 11
66.000000
 21
32.716569
 31
0.0
 11
65.756505
 21
34.091024
 31
0.0
 11
65.068565
 21
35.282571
 31
0.0
 11
64.000000
 21
36.180671
 31
0.0
 11
62.687940
 21
36.657025
 31
0.0
 11
61.312060
 21
36.657025
 31
0.0
 11
60.000000
 21
36.180671
 31
0.0
 11
58.931435
 21
35.282571
 31
0.0
 11
58.243495
 21
34.091024
 31
0.0
 11
58.000000
 21
32.716569
 31
0.0
 11
58.243495
 21
31.342115
 31
0.0
 11
58.931435
 21
30.150568
 31
0.0
 11
60.000000
 21
29.252468
 31
0.0
 11
61.312060
 21
28.776114
 31
0.0
 11
62.687940
 21
28.776114
 31
0.0
 11
64.000000
 21
29.252468
 31
0.0
 11
65.068565
 21
30.150568
 31
0.0
 11
65.756505
 21
31.342115
 31
0.0
 11
66.000000
 21
32.716569
 31
0.0
  0
LWPOLYLINE
  5
103
100
AcDbEntity
  8
0
 62
7
100
AcDbPolyline
 90
1
 70
1
 10
66.000000
 20
32.716569
 30
0.0
  0
SPLINE
  5
104
100
AcDbEntity
  8
0
 62
7
100
AcDbSpline
 70
0
 71
3
 72
19
 73
15
 74
13
 40
0.000000
 40
0.000000
 40
0.000000
 40
0.000000
 40
2.352866
 40
4.635947
 40
6.988813
 40
9.341679
 40
11.624760
 40
13.977626
 40
16.330492
 40
18.613572
 40
20.966438
 40
23.319304
 40
25.602385
 40
27.955251
 40
27.955251
 40
27.955251
 40
27.955251
 10
50.478530
 20
41.966569
 30
0.0
 10
50.354848
 20
42.759845
 30
0.0
 10
50.111153
 20
44.322868
 30
0.0
 10
48.319628
 20
46.043629
 30
0.0
 10
45.982660
 20
46.681223
 30
0.0
 10
43.621157
 20
46.043629
 30
0.0
 10
41.901783
 20
44.322868
 30
0.0
 10
41.263718
 20
41.966569
 30
0.0
 10
41.901783
 20
39.610271
 30
0.0
 10
43.621157
 20
37.889510
 30
0.0
 10
45.982660
 20
37.251916
 30
0.0
 10
48.319628
 20
37.889510
 30
0.0
 10
50.111153
 20
39.610271
 30
0.0
 10
50.354848
 20
41.173294
 30
0.0
 10
50.478530
 20
41.966569
 30
0.0
 11
50.478530
 21
41.966569
 31
0.0
 11
49.864148
 21
44.237806
 31
0.0
 11
48.249766
 21
45.852187
 31
0.0
 11
45.978530
 21
46.466569
 31
0.0
 11
43.707294
 21
45.852187
 31
0.0
 11
42.092912
 21
44.237806
 31
0.0
 11
41.478530
 21
41.966569
 31
0.0
 11
42.092912
 21
39.695333
 31
0.0
 11
43.707294
 21
38.080952
 31
0.0
 11
45.978530
 21
37.466570
 31
0.0
 11
48.249766
 21
38.080952
 31
0.0
 11
49.864148
 21
39.695333
 31
0.0
 11
50.478530
 21
41.966569
 31
0.0
  0
LWPOLYLINE
  5
105
100
AcDbEntity
  8
0
 62
7
100
AcDbPolyline
 90
1
 70
1
 10
50.478530
 20
41.966569
 30
0.0
  0
SPLINE
  5
106
100
AcDbEntity
  8
0
 62
7
100
AcDbSpline
 70
0
 71
3
 72
25
 73
21
 74
19
 40
0.000000
 40
0.000000
 40
0.000000
 40
0.000000
 40
1.570339
 40
3.118203
 40
4.688542
 40
6.258880
 40
7.806745
 40
9.377083
 40
10.947422
 40
12.495286
 40
14.065625
 40
15.635963
 40
17.183828
 40
18.754166
 40
20.324505
 40
21.872369
 40
23.442708
 40
25.013046
 40
26.560911
 40
28.131249
 40
28.131249
 40
28.131249
 40
28.131249
 10
80.625000
 20
57.181787
 30
0.0
 10
80.571234
 20
57.707903
 30
0.0
 10
80.464472
 20
58.752605
 30
0.0
 10
79.636172
 20
60.133195
 30
0.0
 10
78.423400
 20
61.159628
 30
0.0
 10
76.921611
 20
61.704013
 30
0.0
 10
75.328044
 20
61.704013
 30
0.0
 10
73.828358
 20
61.159628
 30
0.0
 10
72.607188
 20
60.133195
 30
0.0
 10
71.810093
 20
58.752605
 30
0.0
 10
71.531787
 20
57.181787
 30
0.0
 10
71.810093
 20
55.610969
 30
0.0
 10
72.607188
 20
54.230379
 30
0.0
 10
73.828358
 20
53.203947
 30
0.0
 10
75.328044
 20
52.659561
 30
0.0
 10
76.921611
 20
52.659561
 30
0.0
 10
78.423400
 20
53.203947
 30
0.0
 10
79.636172
 20
54.230379
 30
0.0
 10
80.464472
 20
55.610969
 30
0.0
 10
80.571234
 20
56.655671
 30
0.0
 10
80.625000
 20
57.181787
 30
0.0
 11
80.625000
 21
57.181787
 31
0.0
 11
80.351068
 21
58.728048
 31
0.0
 11
79.577135
 21
60.068538
 31
0.0
 11
78.375000
 21
61.078901
 31
0.0
 11
76.898932
 21
61.614800
 31
0.0
 11
75.351068
 21
61.614800
 31
0.0
 11
73.875000
 21
61.078901
 31
0.0
 11
72.672865
 21
60.068538
 31
0.0
 11
71.898932
 21
58.728048
 31
0.0
 11
71.625000
 21
57.181787
 31
0.0
 11
71.898932
 21
55.635526
 31
0.0
 11
72.672865
 21
54.295036
 31
0.0
 11
73.875000
 21
53.284673
 31
0.0
 11
75.351068
 21
52.748774
 31
0.0
 11
76.898932
 21
52.748774
 31
0.0
 11
78.375000
 21
53.284673
 31
0.0
 11
79.577135
 21
54.295036
 31
0.0
 11
80.351068
 21
55.635526
 31
0.0
 11
80.625000
 21
57.181787
 31
0.0
  0
LWPOLYLINE
  5
107
100
AcDbEntity
  8
0
 62
7
100
AcDbPolyline
 90
1
 70
1
 10
80.625000
 20
57.181787
 30
0.0
  0
SPLINE
  5
108
100
AcDbEntity
  8
0
 62
7
100
AcDbSpline
 70
0
 71
3
 72
19
 73
15
 74
13
 40
0.000000
 40
0.000000
 40
0.000000
 40
0.000000
 40
2.352866
 40
4.635947
 40
6.988813
 40
9.341679
 40
11.624760
 40
13.977626
 40
16.330492
 40
18.613572
 40
20.966438
 40
23.319304
 40
25.602385
 40
27.955251
 40
27.955251
 40
27.955251
 40
27.955251
 10
50.478530
 20
162.030634
 30
0.0
 10
50.354848
 20
162.823910
 30
0.0
 10
50.111153
 20
164.386933
 30
0.0
 10
48.319628
 20
166.107694
 30
0.0
 10
45.982660
 20
166.745287
 30
0.0
 10
43.621157
 20
166.107694
 30
0.0
 10
41.901783
 20
164.386933
 30
0.0
 10
41.263718
 20
162.030634
 30
0.0
 10
41.901783
 20
159.674335
 30
0.0
 10
43.621157
 20
157.953574
 30
0.0
 10
45.982660
 20
157.315981
 30
0.0
 10
48.319628
 20
157.953574
 30
0.0
 10
50.111153
 20
159.674335
 30
0.0
 10
50.354848
 20
161.237358
 30
0.0
 10
50.478530
 20
162.030634
 30
0.0
 11
50.478530
 21
162.030634
 31
0.0
 11
49.864148
 21
164.301870
 31
0.0
 11
48.249766
 21
165.916252
 31
0.0
 11
45.978530
 21
166.530634
 31
0.0
 11
43.707294
 21
165.916252
 31
0.0
 11
42.092912
 21
164.301870
 31
0.0
 11
41.478530
 21
162.030634
 31
0.0
 11
42.092912
 21
159.759398
 31
0.0
 11
43.707294
 21
158.145016
 31
0.0
 11
45.978530
 21
157.530634
 31
0.0
 11
48.249766
 21
158.145016
 31
0.0
 11
49.864148
 21
159.759398
 31
0.0
 11
50.478530
 21
162.030634
 31
0.0
  0
LWPOLYLINE
  5
109
100
AcDbEntity
  8
0
 62
7
100
AcDbPolyline
 90
1
 70
1
 10
50.478530
 20
162.030634
 30
0.0
  0
SPLINE
  5
10a
100
AcDbEntity
  8
0
 62
7
100
AcDbSpline
 70
0
 71
3
 72
25
 73
21
 74
19
 40
0.000000
 40
0.000000
 40
0.000000
 40
0.000000
 40
1.570339
 40
3.118203
 40
4.688542
 40
6.258880
 40
7.806745
 40
9.377083
 40
10.947422
 40
12.495286
 40
14.065625
 40
15.635963
 40
17.183828
 40
18.754166
 40
20.324505
 40
21.872369
 40
23.442708
 40
25.013046
 40
26.560911
 40
28.131249
 40
28.131249
 40
28.131249
 40
28.131249
 10
80.625000
 20
146.815416
 30
0.0
 10
80.571234
 20
147.341532
 30
0.0
 10
80.464472
 20
148.386234
 30
0.0
 10
79.636172
 20
149.766825
 30
0.0
 10
78.423400
 20
150.793257
 30
0.0
 10
76.921611
 20
151.337643
 30
0.0
 10
75.328044
 20
151.337643
 30
0.0
 10
73.828358
 20
150.793257
 30
0.0
 10
72.607188
 20
149.766825
 30
0.0
 10
71.810093
 20
148.386234
 30
0.0
 10
71.531787
 20
146.815416
 30
0.0
 10
71.810093
 20
145.244598
 30
0.0
 10
72.607188
 20
143.864008
 30
0.0
 10
73.828358
 20
142.837576
 30
0.0
 10
75.328044
 20
142.293190
 30
0.0
 10
76.921611
 20
142.293190
 30
0.0
 10
78.423400
 20
142.837576
 30
0.0
 10
79.636172
 20
143.864008
 30
0.0
 10
80.464472
 20
145.244598
 30
0.0
 10
80.571234
 20
146.289301
 30
0.0
 10
80.625000
 20
146.815416
 30
0.0
 11
80.625000
 21
146.815416
 31
0.0
 11
80.351068
 21
148.361678
 31
0.0
 11
79.577135
 21
149.702168
 31
0.0
 11
78.375000
 21
150.712531
 31
0.0
 11
76.898932
 21
151.248429
 31
0.0
 11
75.351068
 21
151.248429
 31
0.0
 11
73.875000
 21
150.712531
 31
0.0
 11
72.672865
 21
149.702168
 31
0.0
 11
71.898932
 21
148.361678
 31
0.0
 11
71.625000
 21
146.815416
 31
0.0
 11
71.898932
 21
145.269155
 31
0.0
 11
72.672865
 21
143.928665
 31
0.0
 11
73.875000
 21
142.918302
 31
0.0
 11
75.351068
 21
142.382404
 31
0.0
 11
76.898932
 21
142.382404
 31
0.0
 11
78.375000
 21
142.918302
 31
0.0
 11
79.577135
 21
143.928665
 31
0.0
 11
80.351068
 21
145.269155
 31
0.0
 11
80.625000
 21
146.815416
 31
0.0
  0
LWPOLYLINE
  5
10b
100
AcDbEntity
  8
0
 62
7
100
AcDbPolyline
 90
1
 70
1
 10
80.625000
 20
146.815416
 30
0.0
  0
SPLINE
  5
10c
100
AcDbEntity
  8
0
 62
7
100
AcDbSpline
 70
0
 71
3
 72
25
 73
21
 74
19
 40
0.000000
 40
0.000000
 40
0.000000
 40
0.000000
 40
1.570339
 40
3.118203
 40
4.688542
 40
6.258880
 40
7.806745
 40
9.377083
 40
10.947422
 40
12.495286
 40
14.065625
 40
15.635963
 40
17.183828
 40
18.754166
 40
20.324505
 40
21.872369
 40
23.442708
 40
25.013046
 40
26.560911
 40
28.131249
 40
28.131249
 40
28.131249
 40
28.131249
 10
82.521470
 20
23.466569
 30
0.0
 10
82.467704
 20
23.992685
 30
0.0
 10
82.360942
 20
25.037388
 30
0.0
 10
81.532642
 20
26.417978
 30
0.0
 10
80.319870
 20
27.444410
 30
0.0
 10
78.818081
 20
27.988796
 30
0.0
 10
77.224514
 20
27.988796
 30
0.0
 10
75.724828
 20
27.444410
 30
0.0
 10
74.503658
 20
26.417978
 30
0.0
 10
73.706563
 20
25.037388
 30
0.0
 10
73.428257
 20
23.466569
 30
0.0
 10
73.706563
 20
21.895751
 30
0.0
 10
74.503658
 20
20.515161
 30
0.0
 10
75.724828
 20
19.488729
 30
0.0
 10
77.224514
 20
18.944343
 30
0.0
 10
78.818081
 20
18.944343
 30
0.0
 10
80.319870
 20
19.488729
 30
0.0
 10
81.532642
 20
20.515161
 30
0.0
 10
82.360942
 20
21.895751
 30
0.0
 10
82.467704
 20
22.940454
 30
0.0
 10
82.521470
 20
23.466569
 30
0.0
 11
82.521470
 21
23.466569
 31
0.0
 11
82.247538
 21
25.012831
 31
0.0
 11
81.473605
 21
26.353321
 31
0.0
 11
80.271470
 21
27.363684
 31
0.0
 11
78.795402
 21
27.899582
 31
0.0
 11
77.247538
 21
27.899582
 31
0.0
 11
75.771470
 21
27.363684
 31
0.0
 11
74.569334
 21
26.353321
 31
0.0
 11
73.795402
 21
25.012831
 31
0.0
 11
73.521470
 21
23.466569
 31
0.0
 11
73.795402
 21
21.920308
 31
0.0
 11
74.569334
 21
20.579818
 31
0.0
 11
75.771470
 21
19.569455
 31
0.0
 11
77.247538
 21
19.033557
 31
0.0
 11
78.795402
 21
19.033557
 31
0.0
 11
80.271470
 21
19.569455
 31
0.0
 11
81.473605
 21
20.579818
 31
0.0
 11
82.247538
 21
21.920308
 31
0.0
 11
82.521470
 21
23.466569
 31
0.0
  0
LWPOLYLINE
  5
10d
100
AcDbEntity
  8
0
 62
7
100
AcDbPolyline
 90
1
 70
1
 10
82.521470
 20
23.466569
 30
0.0
  0
SPLINE
  5
10e
100
AcDbEntity
  8
0
 62
7
100
AcDbSpline
 70
0
 71
3
 72
25
 73
21
 74
19
 40
0.000000
 40
0.000000
 40
0.000000
 40
0.000000
 40
1.395856
 40
2.771736
 40
4.167592
 40
5.563449
 40
6.939329
 40
8.335185
 40
9.731041
 40
11.106921
 40
12.502777
 40
13.898634
 40
15.274513
 40
16.670370
 40
18.066226
 40
19.442106
 40
20.837962
 40
22.233819
 40
23.609698
 40
25.005555
 40
25.005555
 40
25.005555
 40
25.005555
 10
186.000000
 20
101.998602
 30
0.0
 10
185.952208
 20
102.466260
 30
0.0
 10
185.857308
 20
103.394885
 30
0.0
 10
185.121042
 20
104.622076
 30
0.0
 10
184.043023
 20
105.534460
 30
0.0
 10
182.708099
 20
106.018358
 30
0.0
 10
181.291595
 20
106.018358
 30
0.0
 10
179.958541
 20
105.534460
 30
0.0
 10
178.873056
 20
104.622076
 30
0.0
 10
178.164527
 20
103.394885
 30
0.0
 10
177.917144
 20
101.998602
 30
0.0
 10
178.164527
 20
100.602319
 30
0.0
 10
178.873056
 20
99.375128
 30
0.0
 10
179.958541
 20
98.462743
 30
0.0
 10
181.291595
 20
97.978845
 30
0.0
 10
182.708099
 20
97.978845
 30
0.0
 10
184.043023
 20
98.462743
 30
0.0
 10
185.121042
 20
99.375128
 30
0.0
 10
185.857308
 20
100.602319
 30
0.0
 10
185.952208
 20
101.530943
 30
0.0
 10
186.000000
 20
101.998602
 30
0.0
 11
186.000000
 21
101.998602
 31
0.0
 11
185.756505
 21
103.373056
 31
0.0
 11
185.068565
 21
104.564603
 31
0.0
 11
184.000000
 21
105.462703
 31
0.0
 11
182.687940
 21
105.939058
 31
0.0
 11
181.312060
 21
105.939058
 31
0.0
 11
180.000000
 21
105.462703
 31
0.0
 11
178.931435
 21
104.564603
 31
0.0
 11
178.243495
 21
103.373056
 31
0.0
 11
178.000000
 21
101.998602
 31
0.0
 11
178.243495
 21
100.624147
 31
0.0
 11
178.931435
 21
99.432601
 31
0.0
 11
180.000000
 21
98.534500
 31
0.0
 11
181.312060
 21
98.058146
 31
0.0
 11
182.687940
 21
98.058146
 31
0.0
 11
184.000000
 21
98.534500
 31
0.0
 11
185.068565
 21
99.432601
 31
0.0
 11
185.756505
 21
100.624147
 31
0.0
 11
186.000000
 21
101.998602
 31
0.0
  0
LWPOLYLINE
  5
10f
100
AcDbEntity
  8
0
 62
7
100
AcDbPolyline
 90
1
 70
1
 10
186.000000
 20
101.998602
 30
0.0
  0
SPLINE
  5
110
100
AcDbEntity
  8
0
 62
7
100
AcDbSpline
 70
0
 71
3
 72
19
 73
15
 74
13
 40
0.000000
 40
0.000000
 40
0.000000
 40
0.000000
 40
2.352866
 40
4.635947
 40
6.988813
 40
9.341679
 40
11.624759
 40
13.977625
 40
16.330491
 40
18.613572
 40
20.966438
 40
23.319304
 40
25.602385
 40
27.955251
 40
27.955251
 40
27.955251
 40
27.955251
 10
186.500000
 20
83.498602
 30
0.0
 10
186.376318
 20
84.291877
 30
0.0
 10
186.132623
 20
85.854901
 30
0.0
 10
184.341098
 20
87.575661
 30
0.0
 10
182.004130
 20
88.213255
 30
0.0
 10
179.642627
 20
87.575661
 30
0.0
 10
177.923253
 20
85.854901
 30
0.0
 10
177.285188
 20
83.498602
 30
0.0
 10
177.923253
 20
81.142303
 30
0.0
 10
179.642627
 20
79.421542
 30
0.0
 10
182.004130
 20
78.783949
 30
0.0
 10
184.341098
 20
79.421542
 30
0.0
 10
186.132623
 20
81.142303
 30
0.0
 10
186.376318
 20
82.705326
 30
0.0
 10
186.500000
 20
83.498602
 30
0.0
 11
186.500000
 21
83.498602
 31
0.0
 11
185.885618
 21
85.769838
 31
0.0
 11
184.271236
 21
87.384220
 31
0.0
 11
182.000000
 21
87.998602
 31
0.0
 11
179.728764
 21
87.384220
 31
0.0
 11
178.114382
 21
85.769838
 31
0.0
 11
177.500000
 21
83.498602
 31
0.0
 11
178.114382
 21
81.227366
 31
0.0
 11
179.728764
 21
79.612984
 31
0.0
 11
182.000000
 21
78.998602
 31
0.0
 11
184.271236
 21
79.612984
 31
0.0
 11
185.885618
 21
81.227366
 31
0.0
 11
186.500000
 21
83.498602
 31
0.0
  0
LWPOLYLINE
  5
111
100
AcDbEntity
  8
0
 62
7
100
AcDbPolyline
 90
1
 70
1
 10
186.500000
 20
83.498602
 30
0.0
  0
SPLINE
  5
112
100
AcDbEntity
  8
0
 62
7
100
AcDbSpline
 70
0
 71
3
 72
25
 73
21
 74
19
 40
0.000000
 40
0.000000
 40
0.000000
 40
0.000000
 40
1.570339
 40
3.118203
 40
4.688542
 40
6.258880
 40
7.806745
 40
9.377083
 40
10.947422
 40
12.495286
 40
14.065625
 40
15.635963
 40
17.183828
 40
18.754166
 40
20.324505
 40
21.872369
 40
23.442708
 40
25.013046
 40
26.560911
 40
28.131249
 40
28.131249
 40
28.131249
 40
28.131249
 10
158.250000
 20
101.998602
 30
0.0
 10
158.196234
 20
102.524718
 30
0.0
 10
158.089472
 20
103.569420
 30
0.0
 10
157.261172
 20
104.950010
 30
0.0
 10
156.048400
 20
105.976442
 30
0.0
 10
154.546611
 20
106.520828
 30
0.0
 10
152.953044
 20
106.520828
 30
0.0
 10
151.453358
 20
105.976442
 30
0.0
 10
150.232188
 20
104.950010
 30
0.0
 10
149.435093
 20
103.569420
 30
0.0
 10
149.156787
 20
101.998602
 30
0.0
 10
149.435093
 20
100.427784
 30
0.0
 10
150.232188
 20
99.047194
 30
0.0
 10
151.453358
 20
98.020761
 30
0.0
 10
152.953044
 20
97.476376
 30
0.0
 10
154.546611
 20
97.476376
 30
0.0
 10
156.048400
 20
98.020761
 30
0.0
 10
157.261172
 20
99.047194
 30
0.0
 10
158.089472
 20
100.427784
 30
0.0
 10
158.196234
 20
101.472486
 30
0.0
 10
158.250000
 20
101.998602
 30
0.0
 11
158.250000
 21
101.998602
 31
0.0
 11
157.976068
 21
103.544863
 31
0.0
 11
157.202135
 21
104.885353
 31
0.0
 11
156.000000
 21
105.895716
 31
0.0
 11
154.523932
 21
106.431614
 31
0.0
 11
152.976068
 21
106.431614
 31
0.0
 11
151.500000
 21
105.895716
 31
0.0
 11
150.297865
 21
104.885353
 31
0.0
 11
149.523932
 21
103.544863
 31
0.0
 11
149.250000
 21
101.998602
 31
0.0
 11
149.523932
 21
100.452340
 31
0.0
 11
150.297865
 21
99.111850
 31
0.0
 11
151.500000
 21
98.101487
 31
0.0
 11
152.976068
 21
97.565589
 31
0.0
 11
154.523932
 21
97.565589
 31
0.0
 11
156.000000
 21
98.101487
 31
0.0
 11
157.202135
 21
99.111850
 31
0.0
 11
157.976068
 21
100.452340
 31
0.0
 11
158.250000
 21
101.998602
 31
0.0
  0
LWPOLYLINE
  5
113
100
AcDbEntity
  8
0
 62
7
100
AcDbPolyline
 90
1
 70
1
 10
158.250000
 20
101.998602
 30
0.0
  0
SPLINE
  5
114
100
AcDbEntity
  8
0
 62
7
100
AcDbSpline
 70
0
 71
3
 72
19
 73
15
 74
13
 40
0.000000
 40
0.000000
 40
0.000000
 40
0.000000
 40
2.352866
 40
4.635947
 40
6.988813
 40
9.341679
 40
11.624759
 40
13.977625
 40
16.330491
 40
18.613572
 40
20.966438
 40
23.319304
 40
25.602385
 40
27.955251
 40
27.955251
 40
27.955251
 40
27.955251
 10
186.500000
 20
120.498602
 30
0.0
 10
186.376318
 20
121.291877
 30
0.0
 10
186.132623
 20
122.854901
 30
0.0
 10
184.341098
 20
124.575661
 30
0.0
 10
182.004130
 20
125.213255
 30
0.0
 10
179.642627
 20
124.575661
 30
0.0
 10
177.923253
 20
122.854901
 30
0.0
 10
177.285188
 20
120.498602
 30
0.0
 10
177.923253
 20
118.142303
 30
0.0
 10
179.642627
 20
116.421542
 30
0.0
 10
182.004130
 20
115.783949
 30
0.0
 10
184.341098
 20
116.421542
 30
0.0
 10
186.132623
 20
118.142303
 30
0.0
 10
186.376318
 20
119.705326
 30
0.0
 10
186.500000
 20
120.498602
 30
0.0
 11
186.500000
 21
120.498602
 31
0.0
 11
185.885618
 21
122.769838
 31
0.0
 11
184.271236
 21
124.384220
 31
0.0
 11
182.000000
 21
124.998602
 31
0.0
 11
179.728764
 21
124.384220
 31
0.0
 11
178.114382
 21
122.769838
 31
0.0
 11
177.500000
 21
120.498602
 31
0.0
 11
178.114382
 21
118.227366
 31
0.0
 11
179.728764
 21
116.612984
 31
0.0
 11
182.000000
 21
115.998602
 31
0.0
 11
184.271236
 21
116.612984
 31
0.0
 11
185.885618
 21
118.227366
 31
0.0
 11
186.500000
 21
120.498602
 31
0.0
  0
LWPOLYLINE
  5
115
100
AcDbEntity
  8
0
 62
7
100
AcDbPolyline
 90
1
 70
1
 10
186.500000
 20
120.498602
 30
0.0
  0
SPLINE
  5
116
100
AcDbEntity
  8
0
 62
7
100
AcDbSpline
 70
0
 71
3
 72
25
 73
21
 74
19
 40
0.000000
 40
0.000000
 40
0.000000
 40
0.000000
 40
1.395856
 40
2.771736
 40
4.167592
 40
5.563449
 40
6.939329
 40
8.335185
 40
9.731041
 40
11.106921
 40
12.502777
 40
13.898634
 40
15.274513
 40
16.670370
 40
18.066226
 40
19.442106
 40
20.837962
 40
22.233819
 40
23.609698
 40
25.005555
 40
25.005555
 40
25.005555
 40
25.005555
 10
66.000000
 20
171.280634
 30
0.0
 10
65.952208
 20
171.748293
 30
0.0
 10
65.857308
 20
172.676917
 30
0.0
 10
65.121042
 20
173.904108
 30
0.0
 10
64.043023
 20
174.816492
 30
0.0
 10
62.708099
 20
175.300391
 30
0.0
 10
61.291595
 20
175.300391
 30
0.0
 10
59.958541
 20
174.816492
 30
0.0
 10
58.873056
 20
173.904108
 30
0.0
 10
58.164527
 20
172.676917
 30
0.0
 10
57.917144
 20
171.280634
 30
0.0
 10
58.164527
 20
169.884351
 30
0.0
 10
58.873056
 20
168.657160
 30
0.0
 10
59.958541
 20
167.744776
 30
0.0
 10
61.291595
 20
167.260878
 30
0.0
 10
62.708099
 20
167.260878
 30
0.0
 10
64.043023
 20
167.744776
 30
0.0
 10
65.121042
 20
168.657160
 30
0.0
 10
65.857308
 20
169.884351
 30
0.0
 10
65.952208
 20
170.812976
 30
0.0
 10
66.000000
 20
171.280634
 30
0.0
 11
66.000000
 21
171.280634
 31
0.0
 11
65.756505
 21
172.655089
 31
0.0
 11
65.068565
 21
173.846635
 31
0.0
 11
64.000000
 21
174.744736
 31
0.0
 11
62.687940
 21
175.221090
 31
0.0
 11
61.312060
 21
175.221090
 31
0.0
 11
60.000000
 21
174.744736
 31
0.0
 11
58.931435
 21
173.846635
 31
0.0
 11
58.243495
 21
172.655089
 31
0.0
 11
58.000000
 21
171.280634
 31
0.0
 11
58.243495
 21
169.906180
 31
0.0
 11
58.931435
 21
168.714633
 31
0.0
 11
60.000000
 21
167.816532
 31
0.0
 11
61.312060
 21
167.340178
 31
0.0
 11
62.687940
 21
167.340178
 31
0.0
 11
64.000000
 21
167.816532
 31
0.0
 11
65.068565
 21
168.714633
 31
0.0
 11
65.756505
 21
169.906180
 31
0.0
 11
66.000000
 21
171.280634
 31
0.0
  0
LWPOLYLINE
  5
117
100
AcDbEntity
  8
0
 62
7
100
AcDbPolyline
 90
1
 70
1
 10
66.000000
 20
171.280634
 30
0.0
  0
SPLINE
  5
118
100
AcDbEntity
  8
0
 62
7
100
AcDbSpline
 70
0
 71
3
 72
25
 73
21
 74
19
 40
0.000000
 40
0.000000
 40
0.000000
 40
0.000000
 40
1.570339
 40
3.118203
 40
4.688542
 40
6.258880
 40
7.806745
 40
9.377083
 40
10.947422
 40
12.495286
 40
14.065625
 40
15.635963
 40
17.183828
 40
18.754166
 40
20.324505
 40
21.872369
 40
23.442708
 40
25.013046
 40
26.560911
 40
28.131249
 40
28.131249
 40
28.131249
 40
28.131249
 10
82.521470
 20
180.530634
 30
0.0
 10
82.467704
 20
181.056750
 30
0.0
 10
82.360942
 20
182.101452
 30
0.0
 10
81.532642
 20
183.482042
 30
0.0
 10
80.319870
 20
184.508475
 30
0.0
 10
78.818081
 20
185.052860
 30
0.0
 10
77.224514
 20
185.052860
 30
0.0
 10
75.724828
 20
184.508475
 30
0.0
 10
74.503658
 20
183.482042
 30
0.0
 10
73.706563
 20
182.101452
 30
0.0
 10
73.428257
 20
180.530634
 30
0.0
 10
73.706563
 20
178.959816
 30
0.0
 10
74.503658
 20
177.579226
 30
0.0
 10
75.724828
 20
176.552794
 30
0.0
 10
77.224514
 20
176.008408
 30
0.0
 10
78.818081
 20
176.008408
 30
0.0
 10
80.319870
 20
176.552794
 30
0.0
 10
81.532642
 20
177.579226
 30
0.0
 10
82.360942
 20
178.959816
 30
0.0
 10
82.467704
 20
180.004518
 30
0.0
 10
82.521470
 20
180.530634
 30
0.0
 11
82.521470
 21
180.530634
 31
0.0
 11
82.247538
 21
182.076895
 31
0.0
 11
81.473605
 21
183.417385
 31
0.0
 11
80.271470
 21
184.427748
 31
0.0
 11
78.795402
 21
184.963647
 31
0.0
 11
77.247538
 21
184.963647
 31
0.0
 11
75.771470
 21
184.427748
 31
0.0
 11
74.569334
 21
183.417385
 31
0.0
 11
73.795402
 21
182.076895
 31
0.0
 11
73.521470
 21
180.530634
 31
0.0
 11
73.795402
 21
178.984373
 31
0.0
 11
74.569334
 21
177.643883
 31
0.0
 11
75.771470
 21
176.633520
 31
0.0
 11
77.247538
 21
176.097621
 31
0.0
 11
78.795402
 21
176.097621
 31
0.0
 11
80.271470
 21
176.633520
 31
0.0
 11
81.473605
 21
177.643883
 31
0.0
 11
82.247538
 21
178.984373
 31
0.0
 11
82.521470
 21
180.530634
 31
0.0
  0
LWPOLYLINE
  5
119
100
AcDbEntity
  8
0
 62
7
100
AcDbPolyline
 90
1
 70
1
 10
82.521470
 20
180.530634
 30
0.0
  0
SPLINE
  5
11a
100
AcDbEntity
  8
0
 62
7
100
AcDbSpline
 70
0
 71
3
 72
79
 73
75
 74
73
 40
0.000000
 40
0.000000
 40
0.000000
 40
0.000000
 40
0.697928
 40
1.385868
 40
2.083796
 40
2.781724
 40
3.469664
 40
4.167592
 40
4.865521
 40
5.553461
 40
6.251389
 40
6.949317
 40
7.637257
 40
8.335185
 40
9.033113
 40
9.721053
 40
10.418981
 40
11.116909
 40
11.804849
 40
12.502777
 40
13.200706
 40
13.888645
 40
14.586574
 40
15.284502
 40
15.972442
 40
16.670370
 40
17.368298
 40
18.056238
 40
18.754166
 40
19.452094
 40
20.140034
 40
20.837962
 40
21.535891
 40
22.223830
 40
22.921759
 40
23.619687
 40
24.307627
 40
25.005555
 40
25.703483
 40
26.391423
 40
27.089351
 40
27.787279
 40
28.475219
 40
29.173147
 40
30.103154
 40
31.010666
 40
31.940673
 40
32.870681
 40
33.778192
 40
34.708200
 40
35.638208
 40
36.545719
 40
37.475727
 40
37.475727
 40
37.475727
 40
37.475727
 40
38.173655
 40
38.861594
 40
39.559522
 40
40.257451
 40
40.945390
 40
41.643318
 40
42.341246
 40
43.029185
 40
43.727113
 40
44.425041
 40
45.112980
 40
45.810908
 40
46.508836
 40
47.196775
 40
47.894703
 40
48.592632
 40
49.280571
 40
49.978499
 40
49.978499
 40
49.978499
 40
49.978499
 10
104.000000
 20
101.998602
 30
0.0
 10
103.976104
 20
102.232431
 30
0.0
 10
103.928654
 20
102.696743
 30
0.0
 10
103.560521
 20
103.310339
 30
0.0
 10
103.021511
 20
103.766531
 30
0.0
 10
102.354050
 20
104.008480
 30
0.0
 10
101.645797
 20
104.008480
 30
0.0
 10
100.979270
 20
103.766531
 30
0.0
 10
100.436528
 20
103.310339
 30
0.0
 10
100.082263
 20
102.696743
 30
0.0
 10
99.958572
 20
101.998602
 30
0.0
 10
100.082264
 20
101.300460
 30
0.0
 10
100.436524
 20
100.686865
 30
0.0
 10
100.979286
 20
100.230673
 30
0.0
 10
101.645740
 20
99.988723
 30
0.0
 10
102.354260
 20
99.988723
 30
0.0
 10
103.020714
 20
100.230673
 30
0.0
 10
103.563476
 20
100.686865
 30
0.0
 10
103.917735
 20
101.300460
 30
0.0
 10
104.041429
 20
101.998602
 30
0.0
 10
103.917735
 20
102.696743
 30
0.0
 10
103.563476
 20
103.310339
 30
0.0
 10
103.020714
 20
103.766531
 30
0.0
 10
102.354260
 20
104.008480
 30
0.0
 10
101.645740
 20
104.008480
 30
0.0
 10
100.979286
 20
103.766531
 30
0.0
 10
100.436524
 20
103.310339
 30
0.0
 10
100.082265
 20
102.696743
 30
0.0
 10
99.958571
 20
101.998602
 30
0.0
 10
100.082265
 20
101.300460
 30
0.0
 10
100.436524
 20
100.686865
 30
0.0
 10
100.979286
 20
100.230673
 30
0.0
 10
101.645740
 20
99.988723
 30
0.0
 10
102.354260
 20
99.988723
 30
0.0
 10
103.020714
 20
100.230673
 30
0.0
 10
103.563476
 20
100.686865
 30
0.0
 10
103.917735
 20
101.300460
 30
0.0
 10
104.041429
 20
101.998602
 30
0.0
 10
103.917735
 20
102.696742
 30
0.0
 10
103.563478
 20
103.310342
 30
0.0
 10
103.020706
 20
103.766517
 30
0.0
 10
102.354288
 20
104.008527
 30
0.0
 10
101.645634
 20
104.008303
 30
0.0
 10
100.905522
 20
103.740348
 30
0.0
 10
100.267335
 20
103.137287
 30
0.0
 10
99.941094
 20
102.239807
 30
0.0
 10
100.050358
 20
101.289014
 30
0.0
 10
100.577762
 20
100.490262
 30
0.0
 10
101.404922
 20
100.013026
 30
0.0
 10
102.360276
 20
99.954386
 30
0.0
 10
103.238384
 20
100.339734
 30
0.0
 10
103.852335
 20
101.054232
 30
0.0
 10
103.999992
 20
101.715650
 30
0.0
 10
104.000000
 20
101.998602
 30
0.0
 10
104.000000
 20
101.998602
 30
0.0
 10
104.000070
 20
101.604116
 30
0.0
 10
103.917703
 20
102.983840
 30
0.0
 10
103.563484
 20
103.232640
 30
0.0
 10
103.020712
 20
103.787486
 30
0.0
 10
102.354260
 20
104.002956
 30
0.0
 10
101.645740
 20
104.009974
 30
0.0
 10
100.979286
 20
103.766127
 30
0.0
 10
100.436525
 20
103.310444
 30
0.0
 10
100.082266
 20
102.696714
 30
0.0
 10
99.958573
 20
101.998610
 30
0.0
 10
100.082265
 20
101.300459
 30
0.0
 10
100.436529
 20
100.686866
 30
0.0
 10
100.979270
 20
100.230673
 30
0.0
 10
101.645797
 20
99.988724
 30
0.0
 10
102.354049
 20
99.988724
 30
0.0
 10
103.021511
 20
100.230673
 30
0.0
 10
103.560521
 20
100.686865
 30
0.0
 10
103.928654
 20
101.300461
 30
0.0
 10
103.976104
 20
101.764773
 30
0.0
 10
104.000000
 20
101.998602
 30
0.0
 11
104.000000
 21
101.998602
 31
0.0
 11
103.878252
 21
102.685829
 31
0.0
 11
103.534282
 21
103.281602
 31
0.0
 11
103.000000
 21
103.730653
 31
0.0
 11
102.343970
 21
103.968830
 31
0.0
 11
101.656030
 21
103.968830
 31
0.0
 11
101.000000
 21
103.730653
 31
0.0
 11
100.465718
 21
103.281602
 31
0.0
 11
100.121748
 21
102.685829
 31
0.0
 11
100.000000
 21
101.998602
 31
0.0
 11
100.121748
 21
101.311375
 31
0.0
 11
100.465718
 21
100.715601
 31
0.0
 11
101.000000
 21
100.266551
 31
0.0
 11
101.656030
 21
100.028374
 31
0.0
 11
102.343970
 21
100.028374
 31
0.0
 11
103.000000
 21
100.266551
 31
0.0
 11
103.534282
 21
100.715601
 31
0.0
 11
103.878252
 21
101.311375
 31
0.0
 11
104.000000
 21
101.998602
 31
0.0
 11
103.878252
 21
102.685829
 31
0.0
 11
103.534282
 21
103.281602
 31
0.0
 11
103.000000
 21
103.730653
 31
0.0
 11
102.343970
 21
103.968830
 31
0.0
 11
101.656030
 21
103.968830
 31
0.0
 11
101.000000
 21
103.730653
 31
0.0
 11
100.465718
 21
103.281602
 31
0.0
 11
100.121748
 21
102.685829
 31
0.0
 11
100.000000
 21
101.998602
 31
0.0
 11
100.121748
 21
101.311375
 31
0.0
 11
100.465718
 21
100.715601
 31
0.0
 11
101.000000
 21
100.266551
 31
0.0
 11
101.656030
 21
100.028374
 31
0.0
 11
102.343970
 21
100.028374
 31
0.0
 11
103.000000
 21
100.266551
 31
0.0
 11
103.534282
 21
100.715601
 31
0.0
 11
103.878252
 21
101.311375
 31
0.0
 11
104.000000
 21
101.998602
 31
0.0
 11
103.878252
 21
102.685829
 31
0.0
 11
103.534282
 21
103.281602
 31
0.0
 11
103.000000
 21
103.730652
 31
0.0
 11
102.343970
 21
103.968829
 31
0.0
 11
101.656030
 21
103.968829
 31
0.0
 11
101.000000
 21
103.730652
 31
0.0
 11
100.324663
 21
103.091250
 31
0.0
 11
100.014276
 21
102.238469
 31
0.0
 11
100.120615
 21
101.314560
 31
0.0
 11
100.633031
 21
100.538452
 31
0.0
 11
101.418959
 21
100.084697
 31
0.0
 11
102.347297
 21
100.028986
 31
0.0
 11
103.200594
 21
100.398848
 31
0.0
 11
103.783931
 21
101.094042
 31
0.0
 11
104.000000
 21
101.998602
 31
0.0
 11
104.000000
 21
101.998602
 31
0.0
 11
104.000000
 21
101.998602
 31
0.0
 11
104.000000
 21
101.998602
 31
0.0
 11
103.878252
 21
102.685829
 31
0.0
 11
103.534282
 21
103.281602
 31
0.0
 11
103.000000
 21
103.730652
 31
0.0
 11
102.343970
 21
103.968829
 31
0.0
 11
101.656030
 21
103.968829
 31
0.0
 11
101.000000
 21
103.730652
 31
0.0
 11
100.465718
 21
103.281602
 31
0.0
 11
100.121749
 21
102.685829
 31
0.0
 11
100.000001
 21
101.998602
 31
0.0
 11
100.121749
 21
101.311375
 31
0.0
 11
100.465718
 21
100.715602
 31
0.0
 11
101.000000
 21
100.266552
 31
0.0
 11
101.656030
 21
100.028375
 31
0.0
 11
102.343970
 21
100.028375
 31
0.0
 11
103.000000
 21
100.266552
 31
0.0
 11
103.534282
 21
100.715602
 31
0.0
 11
103.878252
 21
101.311375
 31
0.0
 11
104.000000
 21
101.998602
 31
0.0
  0
LWPOLYLINE
  5
11b
100
AcDbEntity
  8
0
 62
7
100
AcDbPolyline
 90
3
 70
1
 10
104.000000
 20
101.998602
 30
0.0
 10
104.000000
 20
101.998602
 30
0.0
 10
104.000000
 20
101.998602
 30
0.0
  0
SPLINE
  5
11c
100
AcDbEntity
  8
0
 62
7
100
AcDbSpline
 70
0
 71
3
 72
61
 73
57
 74
55
 40
0.000000
 40
0.000000
 40
0.000000
 40
0.000000
 40
1.395856
 40
2.771736
 40
4.167592
 40
5.563449
 40
6.939329
 40
8.335185
 40
9.731041
 40
11.106921
 40
12.502777
 40
13.898634
 40
15.274513
 40
16.670370
 40
18.066226
 40
19.442106
 40
20.837962
 40
22.233819
 40
23.609698
 40
25.005555
 40
26.401411
 40
27.777291
 40
29.173147
 40
30.569004
 40
31.944883
 40
33.340740
 40
34.736596
 40
36.112476
 40
37.508332
 40
38.904189
 40
40.280068
 40
41.675925
 40
43.071781
 40
44.447661
 40
45.843517
 40
47.239374
 40
48.615253
 40
50.011110
 40
51.406966
 40
52.782846
 40
54.178702
 40
55.574559
 40
56.950438
 40
58.346295
 40
59.742151
 40
61.118031
 40
62.513887
 40
63.909744
 40
65.285623
 40
66.681480
 40
68.077336
 40
69.453216
 40
70.849072
 40
72.244929
 40
73.620808
 40
75.016665
 40
75.016665
 40
75.016665
 40
75.016665
 10
36.861816
 20
91.048189
 30
0.0
 10
36.814024
 20
91.515848
 30
0.0
 10
36.719125
 20
92.444472
 30
0.0
 10
35.982858
 20
93.671663
 30
0.0
 10
34.904839
 20
94.584048
 30
0.0
 10
33.569915
 20
95.067946
 30
0.0
 10
32.153411
 20
95.067946
 30
0.0
 10
30.820357
 20
94.584048
 30
0.0
 10
29.734872
 20
93.671663
 30
0.0
 10
29.026343
 20
92.444472
 30
0.0
 10
28.778959
 20
91.048189
 30
0.0
 10
29.026345
 20
89.651907
 30
0.0
 10
29.734864
 20
88.424715
 30
0.0
 10
30.820387
 20
87.512331
 30
0.0
 10
32.153297
 20
87.028433
 30
0.0
 10
33.570335
 20
87.028433
 30
0.0
 10
34.903245
 20
87.512331
 30
0.0
 10
35.988768
 20
88.424715
 30
0.0
 10
36.697287
 20
89.651907
 30
0.0
 10
36.944674
 20
91.048189
 30
0.0
 10
36.697287
 20
92.444472
 30
0.0
 10
35.988768
 20
93.671663
 30
0.0
 10
34.903245
 20
94.584048
 30
0.0
 10
33.570335
 20
95.067946
 30
0.0
 10
32.153297
 20
95.067946
 30
0.0
 10
30.820387
 20
94.584048
 30
0.0
 10
29.734864
 20
93.671663
 30
0.0
 10
29.026345
 20
92.444472
 30
0.0
 10
28.778959
 20
91.048189
 30
0.0
 10
29.026345
 20
89.651907
 30
0.0
 10
29.734864
 20
88.424715
 30
0.0
 10
30.820387
 20
87.512331
 30
0.0
 10
32.153297
 20
87.028433
 30
0.0
 10
33.570335
 20
87.028433
 30
0.0
 10
34.903245
 20
87.512331
 30
0.0
 10
35.988768
 20
88.424715
 30
0.0
 10
36.697287
 20
89.651907
 30
0.0
 10
36.944674
 20
91.048189
 30
0.0
 10
36.697287
 20
92.444472
 30
0.0
 10
35.988768
 20
93.671663
 30
0.0
 10
34.903245
 20
94.584048
 30
0.0
 10
33.570335
 20
95.067946
 30
0.0
 10
32.153297
 20
95.067946
 30
0.0
 10
30.820387
 20
94.584048
 30
0.0
 10
29.734864
 20
93.671663
 30
0.0
 10
29.026345
 20
92.444472
 30
0.0
 10
28.778959
 20
91.048189
 30
0.0
 10
29.026343
 20
89.651907
 30
0.0
 10
29.734872
 20
88.424715
 30
0.0
 10
30.820357
 20
87.512331
 30
0.0
 10
32.153411
 20
87.028433
 30
0.0
 10
33.569915
 20
87.028433
 30
0.0
 10
34.904839
 20
87.512331
 30
0.0
 10
35.982858
 20
88.424715
 30
0.0
 10
36.719125
 20
89.651907
 30
0.0
 10
36.814024
 20
90.580531
 30
0.0
 10
36.861816
 20
91.048189
 30
0.0
 11
36.861816
 21
91.048189
 31
0.0
 11
36.618321
 21
92.422644
 31
0.0
 11
35.930381
 21
93.614190
 31
0.0
 11
34.861816
 21
94.512291
 31
0.0
 11
33.549756
 21
94.988645
 31
0.0
 11
32.173876
 21
94.988645
 31
0.0
 11
30.861816
 21
94.512291
 31
0.0
 11
29.793251
 21
93.614190
 31
0.0
 11
29.105311
 21
92.422644
 31
0.0
 11
28.861816
 21
91.048189
 31
0.0
 11
29.105311
 21
89.673735
 31
0.0
 11
29.793251
 21
88.482188
 31
0.0
 11
30.861816
 21
87.584088
 31
0.0
 11
32.173876
 21
87.107733
 31
0.0
 11
33.549756
 21
87.107733
 31
0.0
 11
34.861816
 21
87.584088
 31
0.0
 11
35.930381
 21
88.482188
 31
0.0
 11
36.618321
 21
89.673735
 31
0.0
 11
36.861816
 21
91.048189
 31
0.0
 11
36.618321
 21
92.422644
 31
0.0
 11
35.930381
 21
93.614190
 31
0.0
 11
34.861816
 21
94.512291
 31
0.0
 11
33.549756
 21
94.988645
 31
0.0
 11
32.173876
 21
94.988645
 31
0.0
 11
30.861816
 21
94.512291
 31
0.0
 11
29.793251
 21
93.614190
 31
0.0
 11
29.105311
 21
92.422644
 31
0.0
 11
28.861816
 21
91.048189
 31
0.0
 11
29.105311
 21
89.673735
 31
0.0
 11
29.793251
 21
88.482188
 31
0.0
 11
30.861816
 21
87.584088
 31
0.0
 11
32.173876
 21
87.107733
 31
0.0
 11
33.549756
 21
87.107733
 31
0.0
 11
34.861816
 21
87.584088
 31
0.0
 11
35.930381
 21
88.482188
 31
0.0
 11
36.618321
 21
89.673735
 31
0.0
 11
36.861816
 21
91.048189
 31
0.0
 11
36.618321
 21
92.422644
 31
0.0
 11
35.930381
 21
93.614190
 31
0.0
 11
34.861816
 21
94.512291
 31
0.0
 11
33.549756
 21
94.988645
 31
0.0
 11
32.173876
 21
94.988645
 31
0.0
 11
30.861816
 21
94.512291
 31
0.0
 11
29.793251
 21
93.614190
 31
0.0
 11
29.105311
 21
92.422644
 31
0.0
 11
28.861816
 21
91.048189
 31
0.0
 11
29.105311
 21
89.673735
 31
0.0
 11
29.793251
 21
88.482188
 31
0.0
 11
30.861816
 21
87.584088
 31
0.0
 11
32.173876
 21
87.107733
 31
0.0
 11
33.549756
 21
87.107733
 31
0.0
 11
34.861816
 21
87.584088
 31
0.0
 11
35.930381
 21
88.482188
 31
0.0
 11
36.618321
 21
89.673735
 31
0.0
 11
36.861816
 21
91.048189
 31
0.0
  0
LWPOLYLINE
  5
11d
100
AcDbEntity
  8
0
 62
7
100
AcDbPolyline
 90
3
 70
1
 10
36.861816
 20
91.048189
 30
0.0
 10
36.861816
 20
91.048189
 30
0.0
 10
36.861816
 20
91.048189
 30
0.0
  0
SPLINE
  5
11e
100
AcDbEntity
  8
0
 62
7
100
AcDbSpline
 70
0
 71
3
 72
61
 73
57
 74
55
 40
0.000000
 40
0.000000
 40
0.000000
 40
0.000000
 40
1.395856
 40
2.771736
 40
4.167592
 40
5.563449
 40
6.939329
 40
8.335185
 40
9.731041
 40
11.106921
 40
12.502777
 40
13.898634
 40
15.274513
 40
16.670370
 40
18.066226
 40
19.442106
 40
20.837962
 40
22.233819
 40
23.609698
 40
25.005555
 40
26.401411
 40
27.777291
 40
29.173147
 40
30.569004
 40
31.944883
 40
33.340740
 40
34.736596
 40
36.112476
 40
37.508332
 40
38.904189
 40
40.280068
 40
41.675925
 40
43.071781
 40
44.447661
 40
45.843517
 40
47.239374
 40
48.615253
 40
50.011110
 40
51.406966
 40
52.782846
 40
54.178702
 40
55.574559
 40
56.950438
 40
58.346295
 40
59.742151
 40
61.118031
 40
62.513887
 40
63.909744
 40
65.285623
 40
66.681480
 40
68.077336
 40
69.453216
 40
70.849072
 40
72.244929
 40
73.620808
 40
75.016665
 40
75.016665
 40
75.016665
 40
75.016665
 10
131.085756
 20
167.349232
 30
0.0
 10
131.037965
 20
167.816890
 30
0.0
 10
130.943065
 20
168.745514
 30
0.0
 10
130.206798
 20
169.972706
 30
0.0
 10
129.128779
 20
170.885090
 30
0.0
 10
127.793856
 20
171.368988
 30
0.0
 10
126.377351
 20
171.368988
 30
0.0
 10
125.044297
 20
170.885090
 30
0.0
 10
123.958813
 20
169.972706
 30
0.0
 10
123.250283
 20
168.745514
 30
0.0
 10
123.002900
 20
167.349232
 30
0.0
 10
123.250285
 20
165.952949
 30
0.0
 10
123.958805
 20
164.725758
 30
0.0
 10
125.044328
 20
163.813373
 30
0.0
 10
126.377237
 20
163.329475
 30
0.0
 10
127.794276
 20
163.329475
 30
0.0
 10
129.127185
 20
163.813373
 30
0.0
 10
130.212708
 20
164.725758
 30
0.0
 10
130.921227
 20
165.952949
 30
0.0
 10
131.168614
 20
167.349232
 30
0.0
 10
130.921227
 20
168.745514
 30
0.0
 10
130.212708
 20
169.972706
 30
0.0
 10
129.127185
 20
170.885090
 30
0.0
 10
127.794276
 20
171.368988
 30
0.0
 10
126.377237
 20
171.368988
 30
0.0
 10
125.044328
 20
170.885090
 30
0.0
 10
123.958805
 20
169.972706
 30
0.0
 10
123.250286
 20
168.745514
 30
0.0
 10
123.002899
 20
167.349232
 30
0.0
 10
123.250286
 20
165.952949
 30
0.0
 10
123.958805
 20
164.725758
 30
0.0
 10
125.044328
 20
163.813373
 30
0.0
 10
126.377237
 20
163.329475
 30
0.0
 10
127.794276
 20
163.329475
 30
0.0
 10
129.127185
 20
163.813373
 30
0.0
 10
130.212708
 20
164.725758
 30
0.0
 10
130.921227
 20
165.952949
 30
0.0
 10
131.168614
 20
167.349232
 30
0.0
 10
130.921227
 20
168.745514
 30
0.0
 10
130.212708
 20
169.972706
 30
0.0
 10
129.127185
 20
170.885090
 30
0.0
 10
127.794276
 20
171.368988
 30
0.0
 10
126.377237
 20
171.368988
 30
0.0
 10
125.044328
 20
170.885090
 30
0.0
 10
123.958805
 20
169.972706
 30
0.0
 10
123.250285
 20
168.745514
 30
0.0
 10
123.002900
 20
167.349232
 30
0.0
 10
123.250283
 20
165.952949
 30
0.0
 10
123.958813
 20
164.725758
 30
0.0
 10
125.044297
 20
163.813373
 30
0.0
 10
126.377351
 20
163.329475
 30
0.0
 10
127.793856
 20
163.329475
 30
0.0
 10
129.128779
 20
163.813373
 30
0.0
 10
130.206798
 20
164.725758
 30
0.0
 10
130.943065
 20
165.952949
 30
0.0
 10
131.037965
 20
166.881573
 30
0.0
 10
131.085756
 20
167.349232
 30
0.0
 11
131.085756
 21
167.349232
 31
0.0
 11
130.842261
 21
168.723686
 31
0.0
 11
130.154321
 21
169.915233
 31
0.0
 11
129.085756
 21
170.813333
 31
0.0
 11
127.773696
 21
171.289687
 31
0.0
 11
126.397817
 21
171.289687
 31
0.0
 11
125.085756
 21
170.813333
 31
0.0
 11
124.017192
 21
169.915233
 31
0.0
 11
123.329252
 21
168.723686
 31
0.0
 11
123.085756
 21
167.349232
 31
0.0
 11
123.329252
 21
165.974777
 31
0.0
 11
124.017192
 21
164.783230
 31
0.0
 11
125.085756
 21
163.885130
 31
0.0
 11
126.397817
 21
163.408776
 31
0.0
 11
127.773696
 21
163.408776
 31
0.0
 11
129.085756
 21
163.885130
 31
0.0
 11
130.154321
 21
164.783230
 31
0.0
 11
130.842261
 21
165.974777
 31
0.0
 11
131.085756
 21
167.349232
 31
0.0
 11
130.842261
 21
168.723686
 31
0.0
 11
130.154321
 21
169.915233
 31
0.0
 11
129.085756
 21
170.813333
 31
0.0
 11
127.773696
 21
171.289687
 31
0.0
 11
126.397817
 21
171.289687
 31
0.0
 11
125.085756
 21
170.813333
 31
0.0
 11
124.017192
 21
169.915233
 31
0.0
 11
123.329252
 21
168.723686
 31
0.0
 11
123.085756
 21
167.349232
 31
0.0
 11
123.329252
 21
165.974777
 31
0.0
 11
124.017192
 21
164.783230
 31
0.0
 11
125.085756
 21
163.885130
 31
0.0
 11
126.397817
 21
163.408776
 31
0.0
 11
127.773696
 21
163.408776
 31
0.0
 11
129.085756
 21
163.885130
 31
0.0
 11
130.154321
 21
164.783230
 31
0.0
 11
130.842261
 21
165.974777
 31
0.0
 11
131.085756
 21
167.349232
 31
0.0
 11
130.842261
 21
168.723686
 31
0.0
 11
130.154321
 21
169.915233
 31
0.0
 11
129.085756
 21
170.813333
 31
0.0
 11
127.773696
 21
171.289687
 31
0.0
 11
126.397817
 21
171.289687
 31
0.0
 11
125.085756
 21
170.813333
 31
0.0
 11
124.017192
 21
169.915233
 31
0.0
 11
123.329252
 21
168.723686
 31
0.0
 11
123.085756
 21
167.349232
 31
0.0
 11
123.329252
 21
165.974777
 31
0.0
 11
124.017192
 21
164.783230
 31
0.0
 11
125.085756
 21
163.885130
 31
0.0
 11
126.397817
 21
163.408776
 31
0.0
 11
127.773696
 21
163.408776
 31
0.0
 11
129.085756
 21
163.885130
 31
0.0
 11
130.154321
 21
164.783230
 31
0.0
 11
130.842261
 21
165.974777
 31
0.0
 11
131.085756
 21
167.349232
 31
0.0
  0
LWPOLYLINE
  5
11f
100
AcDbEntity
  8
0
 62
7
100
AcDbPolyline
 90
3
 70
1
 10
131.085756
 20
167.349232
 30
0.0
 10
131.085756
 20
167.349232
 30
0.0
 10
131.085756
 20
167.349232
 30
0.0
  0
SPLINE
  5
120
100
AcDbEntity
  8
0
 62
7
100
AcDbSpline
 70
0
 71
3
 72
61
 73
57
 74
55
 40
0.000000
 40
0.000000
 40
0.000000
 40
0.000000
 40
1.395856
 40
2.771736
 40
4.167592
 40
5.563449
 40
6.939329
 40
8.335185
 40
9.731041
 40
11.106921
 40
12.502777
 40
13.898634
 40
15.274513
 40
16.670370
 40
18.066226
 40
19.442106
 40
20.837962
 40
22.233819
 40
23.609698
 40
25.005555
 40
26.401411
 40
27.777291
 40
29.173147
 40
30.569004
 40
31.944883
 40
33.340740
 40
34.736596
 40
36.112476
 40
37.508332
 40
38.904189
 40
40.280068
 40
41.675925
 40
43.071781
 40
44.447661
 40
45.843517
 40
47.239374
 40
48.615253
 40
50.011110
 40
51.406966
 40
52.782846
 40
54.178702
 40
55.574559
 40
56.950438
 40
58.346295
 40
59.742151
 40
61.118031
 40
62.513887
 40
63.909744
 40
65.285623
 40
66.681480
 40
68.077336
 40
69.453216
 40
70.849072
 40
72.244929
 40
73.620808
 40
75.016665
 40
75.016665
 40
75.016665
 40
75.016665
 10
150.052427
 20
47.598384
 30
0.0
 10
150.004636
 20
48.066043
 30
0.0
 10
149.909736
 20
48.994667
 30
0.0
 10
149.173469
 20
50.221858
 30
0.0
 10
148.095450
 20
51.134243
 30
0.0
 10
146.760526
 20
51.618141
 30
0.0
 10
145.344022
 20
51.618141
 30
0.0
 10
144.010968
 20
51.134243
 30
0.0
 10
142.925484
 20
50.221858
 30
0.0
 10
142.216954
 20
48.994667
 30
0.0
 10
141.969570
 20
47.598384
 30
0.0
 10
142.216956
 20
46.202102
 30
0.0
 10
142.925476
 20
44.974911
 30
0.0
 10
144.010999
 20
44.062526
 30
0.0
 10
145.343908
 20
43.578628
 30
0.0
 10
146.760947
 20
43.578628
 30
0.0
 10
148.093856
 20
44.062526
 30
0.0
 10
149.179379
 20
44.974911
 30
0.0
 10
149.887898
 20
46.202102
 30
0.0
 10
150.135285
 20
47.598384
 30
0.0
 10
149.887898
 20
48.994667
 30
0.0
 10
149.179379
 20
50.221858
 30
0.0
 10
148.093856
 20
51.134243
 30
0.0
 10
146.760947
 20
51.618141
 30
0.0
 10
145.343908
 20
51.618141
 30
0.0
 10
144.010999
 20
51.134243
 30
0.0
 10
142.925476
 20
50.221858
 30
0.0
 10
142.216956
 20
48.994667
 30
0.0
 10
141.969570
 20
47.598384
 30
0.0
 10
142.216956
 20
46.202102
 30
0.0
 10
142.925476
 20
44.974911
 30
0.0
 10
144.010999
 20
44.062526
 30
0.0
 10
145.343908
 20
43.578628
 30
0.0
 10
146.760947
 20
43.578628
 30
0.0
 10
148.093856
 20
44.062526
 30
0.0
 10
149.179379
 20
44.974911
 30
0.0
 10
149.887898
 20
46.202102
 30
0.0
 10
150.135285
 20
47.598384
 30
0.0
 10
149.887898
 20
48.994667
 30
0.0
 10
149.179379
 20
50.221858
 30
0.0
 10
148.093856
 20
51.134243
 30
0.0
 10
146.760947
 20
51.618141
 30
0.0
 10
145.343908
 20
51.618141
 30
0.0
 10
144.010999
 20
51.134243
 30
0.0
 10
142.925476
 20
50.221858
 30
0.0
 10
142.216956
 20
48.994667
 30
0.0
 10
141.969570
 20
47.598384
 30
0.0
 10
142.216954
 20
46.202102
 30
0.0
 10
142.925484
 20
44.974911
 30
0.0
 10
144.010968
 20
44.062526
 30
0.0
 10
145.344022
 20
43.578628
 30
0.0
 10
146.760526
 20
43.578628
 30
0.0
 10
148.095450
 20
44.062526
 30
0.0
 10
149.173469
 20
44.974911
 30
0.0
 10
149.909736
 20
46.202102
 30
0.0
 10
150.004636
 20
47.130726
 30
0.0
 10
150.052427
 20
47.598384
 30
0.0
 11
150.052427
 21
47.598384
 31
0.0
 11
149.808932
 21
48.972839
 31
0.0
 11
149.120992
 21
50.164386
 31
0.0
 11
148.052427
 21
51.062486
 31
0.0
 11
146.740367
 21
51.538840
 31
0.0
 11
145.364488
 21
51.538840
 31
0.0
 11
144.052427
 21
51.062486
 31
0.0
 11
142.983862
 21
50.164386
 31
0.0
 11
142.295923
 21
48.972839
 31
0.0
 11
142.052427
 21
47.598384
 31
0.0
 11
142.295923
 21
46.223930
 31
0.0
 11
142.983862
 21
45.032383
 31
0.0
 11
144.052427
 21
44.134283
 31
0.0
 11
145.364488
 21
43.657929
 31
0.0
 11
146.740367
 21
43.657929
 31
0.0
 11
148.052427
 21
44.134283
 31
0.0
 11
149.120992
 21
45.032383
 31
0.0
 11
149.808932
 21
46.223930
 31
0.0
 11
150.052427
 21
47.598384
 31
0.0
 11
149.808932
 21
48.972839
 31
0.0
 11
149.120992
 21
50.164386
 31
0.0
 11
148.052427
 21
51.062486
 31
0.0
 11
146.740367
 21
51.538840
 31
0.0
 11
145.364488
 21
51.538840
 31
0.0
 11
144.052427
 21
51.062486
 31
0.0
 11
142.983862
 21
50.164386
 31
0.0
 11
142.295923
 21
48.972839
 31
0.0
 11
142.052427
 21
47.598384
 31
0.0
 11
142.295923
 21
46.223930
 31
0.0
 11
142.983862
 21
45.032383
 31
0.0
 11
144.052427
 21
44.134283
 31
0.0
 11
145.364488
 21
43.657929
 31
0.0
 11
146.740367
 21
43.657929
 31
0.0
 11
148.052427
 21
44.134283
 31
0.0
 11
149.120992
 21
45.032383
 31
0.0
 11
149.808932
 21
46.223930
 31
0.0
 11
150.052427
 21
47.598384
 31
0.0
 11
149.808932
 21
48.972839
 31
0.0
 11
149.120992
 21
50.164386
 31
0.0
 11
148.052427
 21
51.062486
 31
0.0
 11
146.740367
 21
51.538840
 31
0.0
 11
145.364488
 21
51.538840
 31
0.0
 11
144.052427
 21
51.062486
 31
0.0
 11
142.983862
 21
50.164386
 31
0.0
 11
142.295923
 21
48.972839
 31
0.0
 11
142.052427
 21
47.598384
 31
0.0
 11
142.295923
 21
46.223930
 31
0.0
 11
142.983862
 21
45.032383
 31
0.0
 11
144.052427
 21
44.134283
 31
0.0
 11
145.364488
 21
43.657929
 31
0.0
 11
146.740367
 21
43.657929
 31
0.0
 11
148.052427
 21
44.134283
 31
0.0
 11
149.120992
 21
45.032383
 31
0.0
 11
149.808932
 21
46.223930
 31
0.0
 11
150.052427
 21
47.598384
 31
0.0
  0
LWPOLYLINE
  5
121
100
AcDbEntity
  8
0
 62
7
100
AcDbPolyline
 90
3
 70
1
 10
150.052427
 20
47.598384
 30
0.0
 10
150.052427
 20
47.598384
 30
0.0
 10
150.052427
 20
47.598384
 30
0.0
  0
ENDSEC
  0
SECTION
  2
OBJECTS
  0
DICTIONARY
  5
C
330
0
100
AcDbDictionary
  3
ACAD_GROUP
350
D
  3
ACAD_MLINESTYLE
350
17
  0
DICTIONARY
  5
D
330
C
100
AcDbDictionary
  0
DICTIONARY
  5
1A
330
C
100
AcDbDictionary
  0
DICTIONARY
  5
17
330
C
100
AcDbDictionary
  3
STANDARD
350
18
  0
DICTIONARY
  5
19
330
C
100
AcDbDictionary
  0
ENDSEC
  0
EOF
