<?xml version="1.0" encoding="UTF-8" standalone="no"?>
<svg
   xmlns:dc="http://purl.org/dc/elements/1.1/"
   xmlns:cc="http://creativecommons.org/ns#"
   xmlns:rdf="http://www.w3.org/1999/02/22-rdf-syntax-ns#"
   xmlns:svg="http://www.w3.org/2000/svg"
   xmlns="http://www.w3.org/2000/svg"
   xmlns:sodipodi="http://sodipodi.sourceforge.net/DTD/sodipodi-0.dtd"
   xmlns:inkscape="http://www.inkscape.org/namespaces/inkscape"
   width="141.912109611mm"
   height="142.483046327mm"
   viewBox="0 0 141.912109611 142.483046327"
   version="1.1"
   id="svg5258"
   sodipodi:docname="cover.svg"
   inkscape:version="0.92.5 (0.92.5+68)">
  <metadata
     id="metadata5264">
    <rdf:RDF>
      <cc:Work
         rdf:about="">
        <dc:format>image/svg+xml</dc:format>
        <dc:type
           rdf:resource="http://purl.org/dc/dcmitype/StillImage" />
        <dc:title></dc:title>
      </cc:Work>
    </rdf:RDF>
  </metadata>
  <defs
     id="defs5262" />
  <sodipodi:namedview
     pagecolor="#ffffff"
     bordercolor="#666666"
     borderopacity="1"
     objecttolerance="10"
     gridtolerance="10"
     guidetolerance="10"
     inkscape:pageopacity="0"
     inkscape:pageshadow="2"
     inkscape:window-width="1920"
     inkscape:window-height="1053"
     id="namedview5260"
     showgrid="false"
     inkscape:zoom="0.43823927"
     inkscape:cx="268.18036"
     inkscape:cy="360.53364"
     inkscape:window-x="0"
     inkscape:window-y="0"
     inkscape:window-maximized="1"
     inkscape:current-layer="svg5258" />
  <g
     id="Fillet"
     transform="translate(80.521188,76.740402) scale(1,-1)">
    <path
       id="Fillet_f0000"
       d="M 34.9626398741 66.9149745052 L 38.2376749621 46.2372167576 L 38.2376749621 46.2372167576 L 34.9626398741 66.9149745052 L 34.9626398741 66.9149745052 Z "
       stroke="#191919"
       stroke-width="0.35 px"
       style="stroke-width:0.35;stroke-miterlimit:4;stroke-dasharray:none;fill:#cccccc;fill-opacity:1.0;fill-rule: evenodd " />
    <circle
       cx="44.0524273735"
       cy="-54.400217302"
       r="4.0"
       stroke="#191919"
       stroke-width="0.35 px"
       style="stroke-width:0.35;stroke-miterlimit:4;stroke-dasharray:none;fill:#cccccc"
       id="circle5234" />
    <path
       id="Fillet_f0002"
       d="M 34.9626398741 66.9149745052 A 10 10 0 0 1 18.7926 73.1221L 18.7925525577 73.1220894694 A 10 10 0 0 0 34.9626 66.915L 34.9626398741 66.9149745052 Z "
       stroke="#191919"
       stroke-width="0.35 px"
       style="stroke-width:0.35;stroke-miterlimit:4;stroke-dasharray:none;fill:#cccccc;fill-opacity:1.0;fill-rule: evenodd " />
    <path
       id="Fillet_f0003"
       d="M 38.2376749621 46.2372167576 L 38.2376749621 46.2372167576 A 60 60 0 0 0 50.6543 -32.1581L 50.6542756914 -32.158114904 A 60 60 0 0 1 38.2377 46.2372Z "
       stroke="#191919"
       stroke-width="0.35 px"
       style="stroke-width:0.35;stroke-miterlimit:4;stroke-dasharray:none;fill:#cccccc;fill-opacity:1.0;fill-rule: evenodd " />
    <circle
       cx="25.0857564682"
       cy="65.3506298548"
       r="4.0"
       stroke="#191919"
       stroke-width="0.35 px"
       style="stroke-width:0.35;stroke-miterlimit:4;stroke-dasharray:none;fill:#cccccc"
       id="circle5238" />
    <path
       id="Fillet_f0005"
       d="M 2.52260659896 59.9469470111 L 18.7925525577 73.1220894694 L 18.7925525577 73.1220894694 L 2.52260659896 59.9469470111 L 2.52260659896 59.9469470111 Z "
       stroke="#191919"
       stroke-width="0.35 px"
       style="stroke-width:0.35;stroke-miterlimit:4;stroke-dasharray:none;fill:#cccccc;fill-opacity:1.0;fill-rule: evenodd " />
    <path
       id="Fillet_f0006"
       d="M 50.6542756914 -32.158114904 L 53.9293107794 -52.8358726516 L 53.9293107794 -52.8358726516 L 50.6542756914 -32.158114904 L 50.6542756914 -32.158114904 Z "
       stroke="#191919"
       stroke-width="0.35 px"
       style="stroke-width:0.35;stroke-miterlimit:4;stroke-dasharray:none;fill:#cccccc;fill-opacity:1.0;fill-rule: evenodd " />
    <path
       id="Fillet_f0007"
       d="M -59.1614417934 9.99618952006 A 60 60 0 0 0 2.52261 59.9469L 2.52260659896 59.9469470111 A 60 60 0 0 1 -59.1614 9.99619L -59.1614417934 9.99618952007 Z "
       stroke="#191919"
       stroke-width="0.35 px"
       style="stroke-width:0.35;stroke-miterlimit:4;stroke-dasharray:none;fill:#cccccc;fill-opacity:1.0;fill-rule: evenodd " />
    <path
       id="Fillet_f0008"
       d="M 53.9293107794 -52.8358726516 A 10 10 0 0 0 40.4687 -63.736L 40.468747878 -63.736021567 A 10 10 0 0 1 53.9293 -52.8359L 53.9293107794 -52.8358726516 Z "
       stroke="#191919"
       stroke-width="0.35 px"
       style="stroke-width:0.35;stroke-miterlimit:4;stroke-dasharray:none;fill:#cccccc;fill-opacity:1.0;fill-rule: evenodd " />
    <path
       id="Fillet_f0009"
       d="M -75.4313877522 -3.17895293825 L -59.1614417934 9.99618952006 L -59.1614417934 9.99618952007 L -75.4313877522 -3.17895293825 L -75.4313877522 -3.17895293825 Z "
       stroke="#191919"
       stroke-width="0.35 px"
       style="stroke-width:0.35;stroke-miterlimit:4;stroke-dasharray:none;fill:#cccccc;fill-opacity:1.0;fill-rule: evenodd " />
    <path
       id="Fillet_f0010"
       d="M 40.468747878 -63.736021567 L 20.9237668313 -56.2334062777 L 20.9237668313 -56.2334062777 L 40.468747878 -63.736021567 L 40.468747878 -63.736021567 Z "
       stroke="#191919"
       stroke-width="0.35 px"
       style="stroke-width:0.35;stroke-miterlimit:4;stroke-dasharray:none;fill:#cccccc;fill-opacity:1.0;fill-rule: evenodd " />
    <path
       id="Fillet_f0011"
       d="M -72.7218633371 -20.2862168178 A 10 10 0 0 0 -75.4314 -3.17895L -75.4313877522 -3.17895293825 A 10 10 0 0 1 -72.7219 -20.2862L -72.7218633371 -20.2862168178 Z "
       stroke="#191919"
       stroke-width="0.35 px"
       style="stroke-width:0.35;stroke-miterlimit:4;stroke-dasharray:none;fill:#cccccc;fill-opacity:1.0;fill-rule: evenodd " />
    <path
       id="Fillet_f0012"
       d="M 20.9237668313 -56.2334062777 A 60 60 0 0 0 -53.1769 -27.7888L -53.1768822904 -27.7888321071 A 60 60 0 0 1 20.9238 -56.2334L 20.9237668313 -56.2334062777 Z "
       stroke="#191919"
       stroke-width="0.35 px"
       style="stroke-width:0.35;stroke-miterlimit:4;stroke-dasharray:none;fill:#cccccc;fill-opacity:1.0;fill-rule: evenodd " />
    <path
       id="Fillet_f0013"
       d="M -53.1768822904 -27.7888321071 L -72.7218633371 -20.2862168178 L -72.7218633371 -20.2862168178 L -53.1768822904 -27.7888321071 L -53.1768822904 -27.7888321071 Z "
       stroke="#191919"
       stroke-width="0.35 px"
       style="stroke-width:0.35;stroke-miterlimit:4;stroke-dasharray:none;fill:#cccccc;fill-opacity:1.0;fill-rule: evenodd " />
    <circle
       cx="44.0524273735"
       cy="-54.400217302"
       r="4.0"
       stroke="#191919"
       stroke-width="0.35 px"
       style="stroke-width:0.35;stroke-miterlimit:4;stroke-dasharray:none;fill:#cccccc"
       id="circle5249" />
    <circle
       cx="-69.1381838417"
       cy="-10.9504125528"
       r="4.0"
       stroke="#191919"
       stroke-width="0.35 px"
       style="stroke-width:0.35;stroke-miterlimit:4;stroke-dasharray:none;fill:#cccccc"
       id="circle5251" />
    <circle
       cx="25.0857564682"
       cy="65.3506298548"
       r="4.0"
       stroke="#191919"
       stroke-width="0.35 px"
       style="stroke-width:0.35;stroke-miterlimit:4;stroke-dasharray:none;fill:#cccccc"
       id="circle5253" />
    <title
       id="title5255">Fillet</title>
  </g>
</svg>
