  0
SECTION
  2
HEADER
  9
$ACADVER
  1
AC1014
  9
$HANDSEED
  5
FFFF
  9
$MEASUREMENT
 70
     1
  0
ENDSEC
  0
SECTION
  2
TABLES
  0
TABLE
  2
VPORT
  5
8
330
0
100
AcDbSymbolTable
 70
     4
  0
VPORT
  5
2E
330
8
100
AcDbSymbolTableRecord
100
AcDbViewportTableRecord
  2
*ACTIVE
 70
     0
 10
0.0
 20
0.0
 11
1.0
 21
1.0
 12
210.0
 22
148.5
 13
0.0
 23
0.0
 14
10.0
 24
10.0
 15
10.0
 25
10.0
 16
0.0
 26
0.0
 36
1.0
 17
0.0
 27
0.0
 37
0.0
 40
341.0
 41
1.24
 42
50.0
 43
0.0
 44
0.0
 50
0.0
 51
0.0
 71
     0
 72
   100
 73
     1
 74
     3
 75
     0
 76
     0
 77
     0
 78
     0
  0
ENDTAB
  0
TABLE
  2
LTYPE
  5
5
330
0
100
AcDbSymbolTable
 70
     1
  0
LTYPE
  5
14
330
5
100
AcDbSymbolTableRecord
100
AcDbLinetypeTableRecord
  2
BYBLOCK
 70
     0
  3

 72
    65
 73
     0
 40
0.0
  0
LTYPE
  5
15
330
5
100
AcDbSymbolTableRecord
100
AcDbLinetypeTableRecord
  2
BYLAYER
 70
     0
  3

 72
    65
 73
     0
 40
0.0
  0
LTYPE
  5
16
330
5
100
AcDbSymbolTableRecord
100
AcDbLinetypeTableRecord
  2
CONTINUOUS
 70
     0
  3
Solid line
 72
    65
 73
     0
 40
0.0
  0
ENDTAB
  0
TABLE
  2
LAYER
  5
2
100
AcDbSymbolTable
 70
1
  0
LAYER
  5
50
100
AcDbSymbolTableRecord
100
AcDbLayerTableRecord
  2
0
 70
0
  6
CONTINUOUS
  0
ENDTAB
  0
TABLE
  2
STYLE
  5
3
330
0
100
AcDbSymbolTable
 70
     1
  0
STYLE
  5
11
330
3
100
AcDbSymbolTableRecord
100
AcDbTextStyleTableRecord
  2
STANDARD
 70
     0
 40
0.0
 41
1.0
 50
0.0
 71
     0
 42
2.5
  3
txt
  4

  0
ENDTAB
  0
TABLE
  2
VIEW
  5
6
330
0
100
AcDbSymbolTable
 70
     0
  0
ENDTAB
  0
TABLE
  2
UCS
  5
7
330
0
100
AcDbSymbolTable
 70
     0
  0
ENDTAB
  0
TABLE
  2
APPID
  5
9
330
0
100
AcDbSymbolTable
 70
     2
  0
APPID
  5
12
330
9
100
AcDbSymbolTableRecord
100
AcDbRegAppTableRecord
  2
ACAD
 70
     0
  0
ENDTAB
  0
TABLE
  2
DIMSTYLE
  5
A
330
0
100
AcDbSymbolTable
 70
     1
  0
DIMSTYLE
105
27
330
A
100
AcDbSymbolTableRecord
100
AcDbDimStyleTableRecord
  2
ISO-25
 70
     0
  3

  4

  5

  6

  7

 40
1.0
 41
2.5
 42
0.625
 43
3.75
 44
1.25
 45
0.0
 46
0.0
 47
0.0
 48
0.0
140
2.5
141
2.5
142
0.0
143
0.03937007874016
144
1.0
145
0.0
146
1.0
147
0.625
 71
     0
 72
     0
 73
     0
 74
     0
 75
     0
 76
     0
 77
     1
 78
     8
170
     0
171
     3
172
     1
173
     0
174
     0
175
     0
176
     0
177
     0
178
     0
270
     2
271
     2
272
     2
273
     2
274
     3
340
11
275
     0
280
     0
281
     0
282
     0
283
     0
284
     8
285
     0
286
     0
287
     3
288
     0
  0
ENDTAB
  0
TABLE
  2
BLOCK_RECORD
  5
1
330
0
100
AcDbSymbolTable
 70
     1
  0
BLOCK_RECORD
  5
1F
330
1
100
AcDbSymbolTableRecord
100
AcDbBlockTableRecord
  2
*MODEL_SPACE
  0
BLOCK_RECORD
  5
1B
330
1
100
AcDbSymbolTableRecord
100
AcDbBlockTableRecord
  2
*PAPER_SPACE
  0
ENDTAB
  0
ENDSEC
  0
SECTION
  2
BLOCKS
  0
BLOCK
  5
20
330
1F
100
AcDbEntity
  8
0
100
AcDbBlockBegin
  2
*MODEL_SPACE
 70
     0
 10
0.0
 20
0.0
 30
0.0
  3
*MODEL_SPACE
  1

  0
ENDBLK
  5
21
330
1F
100
AcDbEntity
  8
0
100
AcDbBlockEnd
  0
BLOCK
  5
1C
330
1B
100
AcDbEntity
 67
     1
  8
0
100
AcDbBlockBegin
  2
*PAPER_SPACE
  1

  0
ENDBLK
  5
1D
330
1B
100
AcDbEntity
 67
     1
  8
0
100
AcDbBlockEnd
  0
ENDSEC
  0
SECTION
  2
ENTITIES
  0
LINE
  5
100
100
AcDbEntity
  8
0
 62
7
100
AcDbLine
 10
115.483828
 20
132.657619
 30
0.0
 11
118.758863
 21
111.979861
 31
0.0
  0
LINE
  5
101
100
AcDbEntity
  8
0
 62
7
100
AcDbLine
 10
118.758863
 20
111.979861
 30
0.0
 11
118.758863
 21
111.979861
 31
0.0
  0
LINE
  5
102
100
AcDbEntity
  8
0
 62
7
100
AcDbLine
 10
118.758863
 20
111.979861
 30
0.0
 11
115.483828
 21
132.657619
 31
0.0
  0
LINE
  5
103
100
AcDbEntity
  8
0
 62
7
100
AcDbLine
 10
115.483828
 20
132.657619
 30
0.0
 11
115.483828
 21
132.657619
 31
0.0
  0
LINE
  5
104
100
AcDbEntity
  8
0
 62
7
100
AcDbLine
 10
115.483828
 20
132.657619
 30
0.0
 11
115.483828
 21
132.657619
 31
0.0
  0
SPLINE
  5
105
100
AcDbEntity
  8
0
 62
7
100
AcDbSpline
 70
8
 71
3
 72
8
 73
4
 74
0
 40
0
 40
0
 40
0
 40
0
 40
1
 40
1
 40
1
 40
1
 10
128.573615
 20
11.342427
 30
0.0
 10
128.573615
 20
12.771489
 30
0.0
 10
127.811220
 20
14.091997
 30
0.0
 10
126.573615
 20
14.806529
 30
0.0
  0
SPLINE
  5
106
100
AcDbEntity
  8
0
 62
7
100
AcDbSpline
 70
8
 71
3
 72
8
 73
4
 74
0
 40
0
 40
0
 40
0
 40
0
 40
1
 40
1
 40
1
 40
1
 10
126.573615
 20
14.806529
 30
0.0
 10
125.336011
 20
15.521060
 30
0.0
 10
123.811220
 20
15.521060
 30
0.0
 10
122.573615
 20
14.806529
 30
0.0
  0
SPLINE
  5
107
100
AcDbEntity
  8
0
 62
7
100
AcDbSpline
 70
8
 71
3
 72
8
 73
4
 74
0
 40
0
 40
0
 40
0
 40
0
 40
1
 40
1
 40
1
 40
1
 10
122.573615
 20
14.806529
 30
0.0
 10
121.336011
 20
14.091997
 30
0.0
 10
120.573615
 20
12.771489
 30
0.0
 10
120.573615
 20
11.342427
 30
0.0
  0
SPLINE
  5
108
100
AcDbEntity
  8
0
 62
7
100
AcDbSpline
 70
8
 71
3
 72
8
 73
4
 74
0
 40
0
 40
0
 40
0
 40
0
 40
1
 40
1
 40
1
 40
1
 10
120.573615
 20
11.342427
 30
0.0
 10
120.573615
 20
9.913365
 30
0.0
 10
121.336011
 20
8.592857
 30
0.0
 10
122.573615
 20
7.878325
 30
0.0
  0
SPLINE
  5
109
100
AcDbEntity
  8
0
 62
7
100
AcDbSpline
 70
8
 71
3
 72
8
 73
4
 74
0
 40
0
 40
0
 40
0
 40
0
 40
1
 40
1
 40
1
 40
1
 10
122.573615
 20
7.878325
 30
0.0
 10
123.811220
 20
7.163794
 30
0.0
 10
125.336011
 20
7.163794
 30
0.0
 10
126.573615
 20
7.878325
 30
0.0
  0
SPLINE
  5
10a
100
AcDbEntity
  8
0
 62
7
100
AcDbSpline
 70
8
 71
3
 72
8
 73
4
 74
0
 40
0
 40
0
 40
0
 40
0
 40
1
 40
1
 40
1
 40
1
 10
126.573615
 20
7.878325
 30
0.0
 10
127.811220
 20
8.592857
 30
0.0
 10
128.573615
 20
9.913365
 30
0.0
 10
128.573615
 20
11.342427
 30
0.0
  0
LINE
  5
10b
100
AcDbEntity
  8
0
 62
7
100
AcDbLine
 10
128.573615
 20
11.342427
 30
0.0
 11
128.573615
 21
11.342427
 31
0.0
  0
SPLINE
  5
10c
100
AcDbEntity
  8
0
 62
7
100
AcDbSpline
 70
8
 71
3
 72
8
 73
4
 74
0
 40
0
 40
0
 40
0
 40
0
 40
1
 40
1
 40
1
 40
1
 10
115.483828
 20
132.657619
 30
0.0
 10
114.924935
 20
136.186274
 30
0.0
 10
112.525988
 20
139.148723
 30
0.0
 10
109.190642
 20
140.429048
 30
0.0
  0
SPLINE
  5
10d
100
AcDbEntity
  8
0
 62
7
100
AcDbSpline
 70
8
 71
3
 72
8
 73
4
 74
0
 40
0
 40
0
 40
0
 40
0
 40
1
 40
1
 40
1
 40
1
 10
109.190642
 20
140.429048
 30
0.0
 10
105.855296
 20
141.709374
 30
0.0
 10
102.090264
 20
141.113065
 30
0.0
 10
99.313788
 20
138.864744
 30
0.0
  0
SPLINE
  5
10e
100
AcDbEntity
  8
0
 62
7
100
AcDbSpline
 70
8
 71
3
 72
8
 73
4
 74
0
 40
0
 40
0
 40
0
 40
0
 40
1
 40
1
 40
1
 40
1
 10
99.313788
 20
138.864744
 30
0.0
 10
99.313788
 20
138.864744
 30
0.0
 10
99.313741
 20
138.864734
 30
0.0
 10
99.313741
 20
138.864734
 30
0.0
  0
SPLINE
  5
10f
100
AcDbEntity
  8
0
 62
7
100
AcDbSpline
 70
8
 71
3
 72
8
 73
4
 74
0
 40
0
 40
0
 40
0
 40
0
 40
1
 40
1
 40
1
 40
1
 10
99.313741
 20
138.864734
 30
0.0
 10
102.090212
 20
141.113057
 30
0.0
 10
105.855240
 20
141.709372
 30
0.0
 10
109.190587
 20
140.429055
 30
0.0
  0
SPLINE
  5
110
100
AcDbEntity
  8
0
 62
7
100
AcDbSpline
 70
8
 71
3
 72
8
 73
4
 74
0
 40
0
 40
0
 40
0
 40
0
 40
1
 40
1
 40
1
 40
1
 10
109.190587
 20
140.429055
 30
0.0
 10
112.525934
 20
139.148737
 30
0.0
 10
114.924886
 20
136.186296
 30
0.0
 10
115.483788
 20
132.657644
 30
0.0
  0
LINE
  5
111
100
AcDbEntity
  8
0
 62
7
100
AcDbLine
 10
115.483788
 20
132.657644
 30
0.0
 11
115.483828
 21
132.657619
 31
0.0
  0
LINE
  5
112
100
AcDbEntity
  8
0
 62
7
100
AcDbLine
 10
115.483828
 20
132.657619
 30
0.0
 11
115.483828
 21
132.657619
 31
0.0
  0
LINE
  5
113
100
AcDbEntity
  8
0
 62
7
100
AcDbLine
 10
118.758863
 20
111.979861
 30
0.0
 11
118.758863
 21
111.979861
 31
0.0
  0
SPLINE
  5
114
100
AcDbEntity
  8
0
 62
7
100
AcDbSpline
 70
8
 71
3
 72
8
 73
4
 74
0
 40
0
 40
0
 40
0
 40
0
 40
1
 40
1
 40
1
 40
1
 10
118.758863
 20
111.979861
 30
0.0
 10
142.060230
 20
92.709893
 30
0.0
 10
147.381640
 20
59.111902
 30
0.0
 10
131.175488
 20
33.584544
 30
0.0
  0
LINE
  5
115
100
AcDbEntity
  8
0
 62
7
100
AcDbLine
 10
131.175488
 20
33.584544
 30
0.0
 11
131.175464
 21
33.584529
 31
0.0
  0
SPLINE
  5
116
100
AcDbEntity
  8
0
 62
7
100
AcDbSpline
 70
8
 71
3
 72
8
 73
4
 74
0
 40
0
 40
0
 40
0
 40
0
 40
1
 40
1
 40
1
 40
1
 10
131.175464
 20
33.584529
 30
0.0
 10
147.381626
 20
59.111875
 30
0.0
 10
142.060237
 20
92.709862
 30
0.0
 10
118.758888
 20
111.979844
 30
0.0
  0
LINE
  5
117
100
AcDbEntity
  8
0
 62
7
100
AcDbLine
 10
118.758888
 20
111.979844
 30
0.0
 11
118.758863
 21
111.979861
 31
0.0
  0
SPLINE
  5
118
100
AcDbEntity
  8
0
 62
7
100
AcDbSpline
 70
8
 71
3
 72
8
 73
4
 74
0
 40
0
 40
0
 40
0
 40
0
 40
1
 40
1
 40
1
 40
1
 10
109.606944
 20
131.093274
 30
0.0
 10
109.606944
 20
132.522337
 30
0.0
 10
108.844549
 20
133.842845
 30
0.0
 10
107.606944
 20
134.557376
 30
0.0
  0
SPLINE
  5
119
100
AcDbEntity
  8
0
 62
7
100
AcDbSpline
 70
8
 71
3
 72
8
 73
4
 74
0
 40
0
 40
0
 40
0
 40
0
 40
1
 40
1
 40
1
 40
1
 10
107.606944
 20
134.557376
 30
0.0
 10
106.369340
 20
135.271907
 30
0.0
 10
104.844549
 20
135.271907
 30
0.0
 10
103.606944
 20
134.557376
 30
0.0
  0
SPLINE
  5
11a
100
AcDbEntity
  8
0
 62
7
100
AcDbSpline
 70
8
 71
3
 72
8
 73
4
 74
0
 40
0
 40
0
 40
0
 40
0
 40
1
 40
1
 40
1
 40
1
 10
103.606944
 20
134.557376
 30
0.0
 10
102.369340
 20
133.842845
 30
0.0
 10
101.606944
 20
132.522337
 30
0.0
 10
101.606944
 20
131.093274
 30
0.0
  0
SPLINE
  5
11b
100
AcDbEntity
  8
0
 62
7
100
AcDbSpline
 70
8
 71
3
 72
8
 73
4
 74
0
 40
0
 40
0
 40
0
 40
0
 40
1
 40
1
 40
1
 40
1
 10
101.606944
 20
131.093274
 30
0.0
 10
101.606944
 20
129.664212
 30
0.0
 10
102.369340
 20
128.343704
 30
0.0
 10
103.606944
 20
127.629173
 30
0.0
  0
SPLINE
  5
11c
100
AcDbEntity
  8
0
 62
7
100
AcDbSpline
 70
8
 71
3
 72
8
 73
4
 74
0
 40
0
 40
0
 40
0
 40
0
 40
1
 40
1
 40
1
 40
1
 10
103.606944
 20
127.629173
 30
0.0
 10
104.844549
 20
126.914641
 30
0.0
 10
106.369340
 20
126.914641
 30
0.0
 10
107.606944
 20
127.629173
 30
0.0
  0
SPLINE
  5
11d
100
AcDbEntity
  8
0
 62
7
100
AcDbSpline
 70
8
 71
3
 72
8
 73
4
 74
0
 40
0
 40
0
 40
0
 40
0
 40
1
 40
1
 40
1
 40
1
 10
107.606944
 20
127.629173
 30
0.0
 10
108.844549
 20
128.343704
 30
0.0
 10
109.606944
 20
129.664212
 30
0.0
 10
109.606944
 20
131.093274
 30
0.0
  0
LINE
  5
11e
100
AcDbEntity
  8
0
 62
7
100
AcDbLine
 10
109.606944
 20
131.093274
 30
0.0
 11
109.606944
 21
131.093274
 31
0.0
  0
LINE
  5
11f
100
AcDbEntity
  8
0
 62
7
100
AcDbLine
 10
83.043795
 20
125.689591
 30
0.0
 11
99.313741
 21
138.864734
 31
0.0
  0
LINE
  5
120
100
AcDbEntity
  8
0
 62
7
100
AcDbLine
 10
99.313741
 20
138.864734
 30
0.0
 11
99.313741
 21
138.864734
 31
0.0
  0
LINE
  5
121
100
AcDbEntity
  8
0
 62
7
100
AcDbLine
 10
99.313741
 20
138.864734
 30
0.0
 11
83.043795
 21
125.689591
 31
0.0
  0
LINE
  5
122
100
AcDbEntity
  8
0
 62
7
100
AcDbLine
 10
83.043795
 20
125.689591
 30
0.0
 11
83.043795
 21
125.689591
 31
0.0
  0
LINE
  5
123
100
AcDbEntity
  8
0
 62
7
100
AcDbLine
 10
83.043795
 20
125.689591
 30
0.0
 11
83.043795
 21
125.689591
 31
0.0
  0
LINE
  5
124
100
AcDbEntity
  8
0
 62
7
100
AcDbLine
 10
131.175464
 20
33.584529
 30
0.0
 11
134.450499
 21
12.906772
 31
0.0
  0
LINE
  5
125
100
AcDbEntity
  8
0
 62
7
100
AcDbLine
 10
134.450499
 20
12.906772
 30
0.0
 11
134.450499
 21
12.906772
 31
0.0
  0
LINE
  5
126
100
AcDbEntity
  8
0
 62
7
100
AcDbLine
 10
134.450499
 20
12.906772
 30
0.0
 11
131.175464
 21
33.584529
 31
0.0
  0
LINE
  5
127
100
AcDbEntity
  8
0
 62
7
100
AcDbLine
 10
131.175464
 20
33.584529
 30
0.0
 11
131.175464
 21
33.584529
 31
0.0
  0
LINE
  5
128
100
AcDbEntity
  8
0
 62
7
100
AcDbLine
 10
131.175464
 20
33.584529
 30
0.0
 11
131.175464
 21
33.584529
 31
0.0
  0
SPLINE
  5
129
100
AcDbEntity
  8
0
 62
7
100
AcDbSpline
 70
8
 71
3
 72
8
 73
4
 74
0
 40
0
 40
0
 40
0
 40
0
 40
1
 40
1
 40
1
 40
1
 10
21.359746
 20
75.738834
 30
0.0
 10
26.397373
 20
105.553381
 30
0.0
 10
52.833390
 20
126.960824
 30
0.0
 10
83.043798
 20
125.689544
 30
0.0
  0
SPLINE
  5
12a
100
AcDbEntity
  8
0
 62
7
100
AcDbSpline
 70
8
 71
3
 72
8
 73
4
 74
0
 40
0
 40
0
 40
0
 40
0
 40
1
 40
1
 40
1
 40
1
 10
83.043798
 20
125.689544
 30
0.0
 10
83.043798
 20
125.689544
 30
0.0
 10
83.043795
 20
125.689591
 30
0.0
 10
83.043795
 20
125.689591
 30
0.0
  0
SPLINE
  5
12b
100
AcDbEntity
  8
0
 62
7
100
AcDbSpline
 70
8
 71
3
 72
8
 73
4
 74
0
 40
0
 40
0
 40
0
 40
0
 40
1
 40
1
 40
1
 40
1
 10
83.043795
 20
125.689591
 30
0.0
 10
52.833389
 20
126.960844
 30
0.0
 10
26.397392
 20
105.553382
 30
0.0
 10
21.359788
 20
75.738834
 30
0.0
  0
LINE
  5
12c
100
AcDbEntity
  8
0
 62
7
100
AcDbLine
 10
21.359788
 20
75.738834
 30
0.0
 11
21.359746
 21
75.738834
 31
0.0
  0
LINE
  5
12d
100
AcDbEntity
  8
0
 62
7
100
AcDbLine
 10
21.359746
 20
75.738834
 30
0.0
 11
21.359746
 21
75.738834
 31
0.0
  0
SPLINE
  5
12e
100
AcDbEntity
  8
0
 62
7
100
AcDbSpline
 70
8
 71
3
 72
8
 73
4
 74
0
 40
0
 40
0
 40
0
 40
0
 40
1
 40
1
 40
1
 40
1
 10
134.450499
 20
12.906772
 30
0.0
 10
135.009385
 20
9.378093
 30
0.0
 10
133.643285
 20
5.819297
 30
0.0
 10
130.866798
 20
3.570954
 30
0.0
  0
SPLINE
  5
12f
100
AcDbEntity
  8
0
 62
7
100
AcDbSpline
 70
8
 71
3
 72
8
 73
4
 74
0
 40
0
 40
0
 40
0
 40
0
 40
1
 40
1
 40
1
 40
1
 10
130.866798
 20
3.570954
 30
0.0
 10
128.090310
 20
1.322611
 30
0.0
 10
124.325251
 20
0.726299
 30
0.0
 10
120.989888
 20
2.006644
 30
0.0
  0
SPLINE
  5
130
100
AcDbEntity
  8
0
 62
7
100
AcDbSpline
 70
8
 71
3
 72
8
 73
4
 74
0
 40
0
 40
0
 40
0
 40
0
 40
1
 40
1
 40
1
 40
1
 10
120.989888
 20
2.006644
 30
0.0
 10
120.989888
 20
2.006644
 30
0.0
 10
120.989936
 20
2.006623
 30
0.0
 10
120.989936
 20
2.006623
 30
0.0
  0
SPLINE
  5
131
100
AcDbEntity
  8
0
 62
7
100
AcDbSpline
 70
8
 71
3
 72
8
 73
4
 74
0
 40
0
 40
0
 40
0
 40
0
 40
1
 40
1
 40
1
 40
1
 10
120.989936
 20
2.006623
 30
0.0
 10
124.325291
 20
0.726306
 30
0.0
 10
128.090327
 20
1.322631
 30
0.0
 10
130.866797
 20
3.570968
 30
0.0
  0
SPLINE
  5
132
100
AcDbEntity
  8
0
 62
7
100
AcDbSpline
 70
8
 71
3
 72
8
 73
4
 74
0
 40
0
 40
0
 40
0
 40
0
 40
1
 40
1
 40
1
 40
1
 10
130.866797
 20
3.570968
 30
0.0
 10
133.643267
 20
5.819305
 30
0.0
 10
135.009361
 20
9.378081
 30
0.0
 10
134.450488
 20
12.906744
 30
0.0
  0
LINE
  5
133
100
AcDbEntity
  8
0
 62
7
100
AcDbLine
 10
134.450488
 20
12.906744
 30
0.0
 11
134.450499
 21
12.906772
 31
0.0
  0
LINE
  5
134
100
AcDbEntity
  8
0
 62
7
100
AcDbLine
 10
134.450499
 20
12.906772
 30
0.0
 11
134.450499
 21
12.906772
 31
0.0
  0
LINE
  5
135
100
AcDbEntity
  8
0
 62
7
100
AcDbLine
 10
5.089800
 20
62.563691
 30
0.0
 11
21.359746
 21
75.738834
 31
0.0
  0
LINE
  5
136
100
AcDbEntity
  8
0
 62
7
100
AcDbLine
 10
21.359746
 20
75.738834
 30
0.0
 11
21.359746
 21
75.738834
 31
0.0
  0
LINE
  5
137
100
AcDbEntity
  8
0
 62
7
100
AcDbLine
 10
21.359746
 20
75.738834
 30
0.0
 11
5.089800
 21
62.563691
 31
0.0
  0
LINE
  5
138
100
AcDbEntity
  8
0
 62
7
100
AcDbLine
 10
5.089800
 20
62.563691
 30
0.0
 11
5.089800
 21
62.563691
 31
0.0
  0
LINE
  5
139
100
AcDbEntity
  8
0
 62
7
100
AcDbLine
 10
5.089800
 20
62.563691
 30
0.0
 11
5.089800
 21
62.563691
 31
0.0
  0
LINE
  5
13a
100
AcDbEntity
  8
0
 62
7
100
AcDbLine
 10
120.989936
 20
2.006623
 30
0.0
 11
101.444955
 21
9.509238
 31
0.0
  0
LINE
  5
13b
100
AcDbEntity
  8
0
 62
7
100
AcDbLine
 10
101.444955
 20
9.509238
 30
0.0
 11
101.444955
 21
9.509238
 31
0.0
  0
LINE
  5
13c
100
AcDbEntity
  8
0
 62
7
100
AcDbLine
 10
101.444955
 20
9.509238
 30
0.0
 11
120.989936
 21
2.006623
 31
0.0
  0
LINE
  5
13d
100
AcDbEntity
  8
0
 62
7
100
AcDbLine
 10
120.989936
 20
2.006623
 30
0.0
 11
120.989936
 21
2.006623
 31
0.0
  0
LINE
  5
13e
100
AcDbEntity
  8
0
 62
7
100
AcDbLine
 10
120.989936
 20
2.006623
 30
0.0
 11
120.989936
 21
2.006623
 31
0.0
  0
SPLINE
  5
13f
100
AcDbEntity
  8
0
 62
7
100
AcDbSpline
 70
8
 71
3
 72
8
 73
4
 74
0
 40
0
 40
0
 40
0
 40
0
 40
1
 40
1
 40
1
 40
1
 10
7.799325
 20
45.456428
 30
0.0
 10
4.463960
 20
46.736750
 30
0.0
 10
2.065000
 20
49.699213
 30
0.0
 10
1.506111
 20
53.227885
 30
0.0
  0
SPLINE
  5
140
100
AcDbEntity
  8
0
 62
7
100
AcDbSpline
 70
8
 71
3
 72
8
 73
4
 74
0
 40
0
 40
0
 40
0
 40
0
 40
1
 40
1
 40
1
 40
1
 10
1.506111
 20
53.227885
 30
0.0
 10
0.947222
 20
56.756557
 30
0.0
 10
2.313312
 20
60.315348
 30
0.0
 10
5.089788
 20
62.563694
 30
0.0
  0
SPLINE
  5
141
100
AcDbEntity
  8
0
 62
7
100
AcDbSpline
 70
8
 71
3
 72
8
 73
4
 74
0
 40
0
 40
0
 40
0
 40
0
 40
1
 40
1
 40
1
 40
1
 10
5.089788
 20
62.563694
 30
0.0
 10
5.089788
 20
62.563694
 30
0.0
 10
5.089800
 20
62.563691
 30
0.0
 10
5.089800
 20
62.563691
 30
0.0
  0
SPLINE
  5
142
100
AcDbEntity
  8
0
 62
7
100
AcDbSpline
 70
8
 71
3
 72
8
 73
4
 74
0
 40
0
 40
0
 40
0
 40
0
 40
1
 40
1
 40
1
 40
1
 10
5.089800
 20
62.563691
 30
0.0
 10
2.313332
 20
60.315350
 30
0.0
 10
0.947242
 20
56.756572
 30
0.0
 10
1.506120
 20
53.227908
 30
0.0
  0
SPLINE
  5
143
100
AcDbEntity
  8
0
 62
7
100
AcDbSpline
 70
8
 71
3
 72
8
 73
4
 74
0
 40
0
 40
0
 40
0
 40
0
 40
1
 40
1
 40
1
 40
1
 10
1.506120
 20
53.227908
 30
0.0
 10
2.064998
 20
49.699244
 30
0.0
 10
4.463939
 20
46.736781
 30
0.0
 10
7.799288
 20
45.456444
 30
0.0
  0
LINE
  5
144
100
AcDbEntity
  8
0
 62
7
100
AcDbLine
 10
7.799288
 20
45.456444
 30
0.0
 11
7.799325
 21
45.456428
 31
0.0
  0
LINE
  5
145
100
AcDbEntity
  8
0
 62
7
100
AcDbLine
 10
7.799325
 20
45.456428
 30
0.0
 11
7.799325
 21
45.456428
 31
0.0
  0
SPLINE
  5
146
100
AcDbEntity
  8
0
 62
7
100
AcDbSpline
 70
8
 71
3
 72
8
 73
4
 74
0
 40
0
 40
0
 40
0
 40
0
 40
1
 40
1
 40
1
 40
1
 10
101.444955
 20
9.509238
 30
0.0
 10
73.105969
 20
-1.035355
 30
0.0
 10
41.348533
 20
11.155193
 30
0.0
 10
27.344288
 20
37.953844
 30
0.0
  0
SPLINE
  5
147
100
AcDbEntity
  8
0
 62
7
100
AcDbSpline
 70
8
 71
3
 72
8
 73
4
 74
0
 40
0
 40
0
 40
0
 40
0
 40
1
 40
1
 40
1
 40
1
 10
27.344288
 20
37.953844
 30
0.0
 10
27.344288
 20
37.953844
 30
0.0
 10
27.344306
 20
37.953812
 30
0.0
 10
27.344306
 20
37.953812
 30
0.0
  0
SPLINE
  5
148
100
AcDbEntity
  8
0
 62
7
100
AcDbSpline
 70
8
 71
3
 72
8
 73
4
 74
0
 40
0
 40
0
 40
0
 40
0
 40
1
 40
1
 40
1
 40
1
 10
27.344306
 20
37.953812
 30
0.0
 10
41.348565
 20
11.155168
 30
0.0
 10
73.106007
 20
-1.035363
 30
0.0
 10
101.444988
 20
9.509244
 30
0.0
  0
LINE
  5
149
100
AcDbEntity
  8
0
 62
7
100
AcDbLine
 10
101.444988
 20
9.509244
 30
0.0
 11
101.444955
 21
9.509238
 31
0.0
  0
LINE
  5
14a
100
AcDbEntity
  8
0
 62
7
100
AcDbLine
 10
101.444955
 20
9.509238
 30
0.0
 11
101.444955
 21
9.509238
 31
0.0
  0
LINE
  5
14b
100
AcDbEntity
  8
0
 62
7
100
AcDbLine
 10
27.344306
 20
37.953812
 30
0.0
 11
7.799325
 21
45.456428
 31
0.0
  0
LINE
  5
14c
100
AcDbEntity
  8
0
 62
7
100
AcDbLine
 10
7.799325
 20
45.456428
 30
0.0
 11
7.799325
 21
45.456428
 31
0.0
  0
LINE
  5
14d
100
AcDbEntity
  8
0
 62
7
100
AcDbLine
 10
7.799325
 20
45.456428
 30
0.0
 11
27.344306
 21
37.953812
 31
0.0
  0
LINE
  5
14e
100
AcDbEntity
  8
0
 62
7
100
AcDbLine
 10
27.344306
 20
37.953812
 30
0.0
 11
27.344306
 21
37.953812
 31
0.0
  0
LINE
  5
14f
100
AcDbEntity
  8
0
 62
7
100
AcDbLine
 10
27.344306
 20
37.953812
 30
0.0
 11
27.344306
 21
37.953812
 31
0.0
  0
SPLINE
  5
150
100
AcDbEntity
  8
0
 62
7
100
AcDbSpline
 70
8
 71
3
 72
8
 73
4
 74
0
 40
0
 40
0
 40
0
 40
0
 40
1
 40
1
 40
1
 40
1
 10
128.573615
 20
11.342427
 30
0.0
 10
128.573615
 20
12.771489
 30
0.0
 10
127.811220
 20
14.091997
 30
0.0
 10
126.573615
 20
14.806529
 30
0.0
  0
SPLINE
  5
151
100
AcDbEntity
  8
0
 62
7
100
AcDbSpline
 70
8
 71
3
 72
8
 73
4
 74
0
 40
0
 40
0
 40
0
 40
0
 40
1
 40
1
 40
1
 40
1
 10
126.573615
 20
14.806529
 30
0.0
 10
125.336011
 20
15.521060
 30
0.0
 10
123.811220
 20
15.521060
 30
0.0
 10
122.573615
 20
14.806529
 30
0.0
  0
SPLINE
  5
152
100
AcDbEntity
  8
0
 62
7
100
AcDbSpline
 70
8
 71
3
 72
8
 73
4
 74
0
 40
0
 40
0
 40
0
 40
0
 40
1
 40
1
 40
1
 40
1
 10
122.573615
 20
14.806529
 30
0.0
 10
121.336011
 20
14.091997
 30
0.0
 10
120.573615
 20
12.771489
 30
0.0
 10
120.573615
 20
11.342427
 30
0.0
  0
SPLINE
  5
153
100
AcDbEntity
  8
0
 62
7
100
AcDbSpline
 70
8
 71
3
 72
8
 73
4
 74
0
 40
0
 40
0
 40
0
 40
0
 40
1
 40
1
 40
1
 40
1
 10
120.573615
 20
11.342427
 30
0.0
 10
120.573615
 20
9.913365
 30
0.0
 10
121.336011
 20
8.592857
 30
0.0
 10
122.573615
 20
7.878325
 30
0.0
  0
SPLINE
  5
154
100
AcDbEntity
  8
0
 62
7
100
AcDbSpline
 70
8
 71
3
 72
8
 73
4
 74
0
 40
0
 40
0
 40
0
 40
0
 40
1
 40
1
 40
1
 40
1
 10
122.573615
 20
7.878325
 30
0.0
 10
123.811220
 20
7.163794
 30
0.0
 10
125.336011
 20
7.163794
 30
0.0
 10
126.573615
 20
7.878325
 30
0.0
  0
SPLINE
  5
155
100
AcDbEntity
  8
0
 62
7
100
AcDbSpline
 70
8
 71
3
 72
8
 73
4
 74
0
 40
0
 40
0
 40
0
 40
0
 40
1
 40
1
 40
1
 40
1
 10
126.573615
 20
7.878325
 30
0.0
 10
127.811220
 20
8.592857
 30
0.0
 10
128.573615
 20
9.913365
 30
0.0
 10
128.573615
 20
11.342427
 30
0.0
  0
LINE
  5
156
100
AcDbEntity
  8
0
 62
7
100
AcDbLine
 10
128.573615
 20
11.342427
 30
0.0
 11
128.573615
 21
11.342427
 31
0.0
  0
SPLINE
  5
157
100
AcDbEntity
  8
0
 62
7
100
AcDbSpline
 70
8
 71
3
 72
8
 73
4
 74
0
 40
0
 40
0
 40
0
 40
0
 40
1
 40
1
 40
1
 40
1
 10
15.383004
 20
54.792232
 30
0.0
 10
15.383004
 20
56.221294
 30
0.0
 10
14.620608
 20
57.541802
 30
0.0
 10
13.383004
 20
58.256333
 30
0.0
  0
SPLINE
  5
158
100
AcDbEntity
  8
0
 62
7
100
AcDbSpline
 70
8
 71
3
 72
8
 73
4
 74
0
 40
0
 40
0
 40
0
 40
0
 40
1
 40
1
 40
1
 40
1
 10
13.383004
 20
58.256333
 30
0.0
 10
12.145400
 20
58.970865
 30
0.0
 10
10.620608
 20
58.970865
 30
0.0
 10
9.383004
 20
58.256333
 30
0.0
  0
SPLINE
  5
159
100
AcDbEntity
  8
0
 62
7
100
AcDbSpline
 70
8
 71
3
 72
8
 73
4
 74
0
 40
0
 40
0
 40
0
 40
0
 40
1
 40
1
 40
1
 40
1
 10
9.383004
 20
58.256333
 30
0.0
 10
8.145400
 20
57.541802
 30
0.0
 10
7.383004
 20
56.221294
 30
0.0
 10
7.383004
 20
54.792232
 30
0.0
  0
SPLINE
  5
15a
100
AcDbEntity
  8
0
 62
7
100
AcDbSpline
 70
8
 71
3
 72
8
 73
4
 74
0
 40
0
 40
0
 40
0
 40
0
 40
1
 40
1
 40
1
 40
1
 10
7.383004
 20
54.792232
 30
0.0
 10
7.383004
 20
53.363169
 30
0.0
 10
8.145400
 20
52.042661
 30
0.0
 10
9.383004
 20
51.328130
 30
0.0
  0
SPLINE
  5
15b
100
AcDbEntity
  8
0
 62
7
100
AcDbSpline
 70
8
 71
3
 72
8
 73
4
 74
0
 40
0
 40
0
 40
0
 40
0
 40
1
 40
1
 40
1
 40
1
 10
9.383004
 20
51.328130
 30
0.0
 10
10.620608
 20
50.613599
 30
0.0
 10
12.145400
 20
50.613599
 30
0.0
 10
13.383004
 20
51.328130
 30
0.0
  0
SPLINE
  5
15c
100
AcDbEntity
  8
0
 62
7
100
AcDbSpline
 70
8
 71
3
 72
8
 73
4
 74
0
 40
0
 40
0
 40
0
 40
0
 40
1
 40
1
 40
1
 40
1
 10
13.383004
 20
51.328130
 30
0.0
 10
14.620608
 20
52.042661
 30
0.0
 10
15.383004
 20
53.363169
 30
0.0
 10
15.383004
 20
54.792232
 30
0.0
  0
LINE
  5
15d
100
AcDbEntity
  8
0
 62
7
100
AcDbLine
 10
15.383004
 20
54.792232
 30
0.0
 11
15.383004
 21
54.792232
 31
0.0
  0
SPLINE
  5
15e
100
AcDbEntity
  8
0
 62
7
100
AcDbSpline
 70
8
 71
3
 72
8
 73
4
 74
0
 40
0
 40
0
 40
0
 40
0
 40
1
 40
1
 40
1
 40
1
 10
109.606944
 20
131.093274
 30
0.0
 10
109.606944
 20
132.522337
 30
0.0
 10
108.844549
 20
133.842845
 30
0.0
 10
107.606944
 20
134.557376
 30
0.0
  0
SPLINE
  5
15f
100
AcDbEntity
  8
0
 62
7
100
AcDbSpline
 70
8
 71
3
 72
8
 73
4
 74
0
 40
0
 40
0
 40
0
 40
0
 40
1
 40
1
 40
1
 40
1
 10
107.606944
 20
134.557376
 30
0.0
 10
106.369340
 20
135.271907
 30
0.0
 10
104.844549
 20
135.271907
 30
0.0
 10
103.606944
 20
134.557376
 30
0.0
  0
SPLINE
  5
160
100
AcDbEntity
  8
0
 62
7
100
AcDbSpline
 70
8
 71
3
 72
8
 73
4
 74
0
 40
0
 40
0
 40
0
 40
0
 40
1
 40
1
 40
1
 40
1
 10
103.606944
 20
134.557376
 30
0.0
 10
102.369340
 20
133.842845
 30
0.0
 10
101.606944
 20
132.522337
 30
0.0
 10
101.606944
 20
131.093274
 30
0.0
  0
SPLINE
  5
161
100
AcDbEntity
  8
0
 62
7
100
AcDbSpline
 70
8
 71
3
 72
8
 73
4
 74
0
 40
0
 40
0
 40
0
 40
0
 40
1
 40
1
 40
1
 40
1
 10
101.606944
 20
131.093274
 30
0.0
 10
101.606944
 20
129.664212
 30
0.0
 10
102.369340
 20
128.343704
 30
0.0
 10
103.606944
 20
127.629173
 30
0.0
  0
SPLINE
  5
162
100
AcDbEntity
  8
0
 62
7
100
AcDbSpline
 70
8
 71
3
 72
8
 73
4
 74
0
 40
0
 40
0
 40
0
 40
0
 40
1
 40
1
 40
1
 40
1
 10
103.606944
 20
127.629173
 30
0.0
 10
104.844549
 20
126.914641
 30
0.0
 10
106.369340
 20
126.914641
 30
0.0
 10
107.606944
 20
127.629173
 30
0.0
  0
SPLINE
  5
163
100
AcDbEntity
  8
0
 62
7
100
AcDbSpline
 70
8
 71
3
 72
8
 73
4
 74
0
 40
0
 40
0
 40
0
 40
0
 40
1
 40
1
 40
1
 40
1
 10
107.606944
 20
127.629173
 30
0.0
 10
108.844549
 20
128.343704
 30
0.0
 10
109.606944
 20
129.664212
 30
0.0
 10
109.606944
 20
131.093274
 30
0.0
  0
LINE
  5
164
100
AcDbEntity
  8
0
 62
7
100
AcDbLine
 10
109.606944
 20
131.093274
 30
0.0
 11
109.606944
 21
131.093274
 31
0.0
  0
ENDSEC
  0
SECTION
  2
OBJECTS
  0
DICTIONARY
  5
C
330
0
100
AcDbDictionary
  3
ACAD_GROUP
350
D
  3
ACAD_MLINESTYLE
350
17
  0
DICTIONARY
  5
D
330
C
100
AcDbDictionary
  0
DICTIONARY
  5
1A
330
C
100
AcDbDictionary
  0
DICTIONARY
  5
17
330
C
100
AcDbDictionary
  3
STANDARD
350
18
  0
DICTIONARY
  5
19
330
C
100
AcDbDictionary
  0
ENDSEC
  0
EOF
