  0
SECTION
  2
HEADER
  9
$ACADVER
  1
AC1014
  9
$HANDSEED
  5
FFFF
  9
$MEASUREMENT
 70
     1
  0
ENDSEC
  0
SECTION
  2
TABLES
  0
TABLE
  2
VPORT
  5
8
330
0
100
AcDbSymbolTable
 70
     4
  0
VPORT
  5
2E
330
8
100
AcDbSymbolTableRecord
100
AcDbViewportTableRecord
  2
*ACTIVE
 70
     0
 10
0.0
 20
0.0
 11
1.0
 21
1.0
 12
210.0
 22
148.5
 13
0.0
 23
0.0
 14
10.0
 24
10.0
 15
10.0
 25
10.0
 16
0.0
 26
0.0
 36
1.0
 17
0.0
 27
0.0
 37
0.0
 40
341.0
 41
1.24
 42
50.0
 43
0.0
 44
0.0
 50
0.0
 51
0.0
 71
     0
 72
   100
 73
     1
 74
     3
 75
     0
 76
     0
 77
     0
 78
     0
  0
ENDTAB
  0
TABLE
  2
LTYPE
  5
5
330
0
100
AcDbSymbolTable
 70
     1
  0
LTYPE
  5
14
330
5
100
AcDbSymbolTableRecord
100
AcDbLinetypeTableRecord
  2
BYBLOCK
 70
     0
  3

 72
    65
 73
     0
 40
0.0
  0
LTYPE
  5
15
330
5
100
AcDbSymbolTableRecord
100
AcDbLinetypeTableRecord
  2
BYLAYER
 70
     0
  3

 72
    65
 73
     0
 40
0.0
  0
LTYPE
  5
16
330
5
100
AcDbSymbolTableRecord
100
AcDbLinetypeTableRecord
  2
CONTINUOUS
 70
     0
  3
Solid line
 72
    65
 73
     0
 40
0.0
  0
ENDTAB
  0
TABLE
  2
LAYER
  5
2
100
AcDbSymbolTable
 70
1
  0
LAYER
  5
50
100
AcDbSymbolTableRecord
100
AcDbLayerTableRecord
  2
0
 70
0
  6
CONTINUOUS
  0
ENDTAB
  0
TABLE
  2
STYLE
  5
3
330
0
100
AcDbSymbolTable
 70
     1
  0
STYLE
  5
11
330
3
100
AcDbSymbolTableRecord
100
AcDbTextStyleTableRecord
  2
STANDARD
 70
     0
 40
0.0
 41
1.0
 50
0.0
 71
     0
 42
2.5
  3
txt
  4

  0
ENDTAB
  0
TABLE
  2
VIEW
  5
6
330
0
100
AcDbSymbolTable
 70
     0
  0
ENDTAB
  0
TABLE
  2
UCS
  5
7
330
0
100
AcDbSymbolTable
 70
     0
  0
ENDTAB
  0
TABLE
  2
APPID
  5
9
330
0
100
AcDbSymbolTable
 70
     2
  0
APPID
  5
12
330
9
100
AcDbSymbolTableRecord
100
AcDbRegAppTableRecord
  2
ACAD
 70
     0
  0
ENDTAB
  0
TABLE
  2
DIMSTYLE
  5
A
330
0
100
AcDbSymbolTable
 70
     1
  0
DIMSTYLE
105
27
330
A
100
AcDbSymbolTableRecord
100
AcDbDimStyleTableRecord
  2
ISO-25
 70
     0
  3

  4

  5

  6

  7

 40
1.0
 41
2.5
 42
0.625
 43
3.75
 44
1.25
 45
0.0
 46
0.0
 47
0.0
 48
0.0
140
2.5
141
2.5
142
0.0
143
0.03937007874016
144
1.0
145
0.0
146
1.0
147
0.625
 71
     0
 72
     0
 73
     0
 74
     0
 75
     0
 76
     0
 77
     1
 78
     8
170
     0
171
     3
172
     1
173
     0
174
     0
175
     0
176
     0
177
     0
178
     0
270
     2
271
     2
272
     2
273
     2
274
     3
340
11
275
     0
280
     0
281
     0
282
     0
283
     0
284
     8
285
     0
286
     0
287
     3
288
     0
  0
ENDTAB
  0
TABLE
  2
BLOCK_RECORD
  5
1
330
0
100
AcDbSymbolTable
 70
     1
  0
BLOCK_RECORD
  5
1F
330
1
100
AcDbSymbolTableRecord
100
AcDbBlockTableRecord
  2
*MODEL_SPACE
  0
BLOCK_RECORD
  5
1B
330
1
100
AcDbSymbolTableRecord
100
AcDbBlockTableRecord
  2
*PAPER_SPACE
  0
ENDTAB
  0
ENDSEC
  0
SECTION
  2
BLOCKS
  0
BLOCK
  5
20
330
1F
100
AcDbEntity
  8
0
100
AcDbBlockBegin
  2
*MODEL_SPACE
 70
     0
 10
0.0
 20
0.0
 30
0.0
  3
*MODEL_SPACE
  1

  0
ENDBLK
  5
21
330
1F
100
AcDbEntity
  8
0
100
AcDbBlockEnd
  0
BLOCK
  5
1C
330
1B
100
AcDbEntity
 67
     1
  8
0
100
AcDbBlockBegin
  2
*PAPER_SPACE
  1

  0
ENDBLK
  5
1D
330
1B
100
AcDbEntity
 67
     1
  8
0
100
AcDbBlockEnd
  0
ENDSEC
  0
SECTION
  2
ENTITIES
  0
LINE
  5
100
100
AcDbEntity
  8
0
 62
7
100
AcDbLine
 10
66.200750
 20
122.229426
 30
0.0
 11
66.200750
 21
122.229426
 31
0.0
  0
LINE
  5
101
100
AcDbEntity
  8
0
 62
7
100
AcDbLine
 10
66.200750
 20
122.229426
 30
0.0
 11
66.200750
 21
122.229426
 31
0.0
  0
LINE
  5
102
100
AcDbEntity
  8
0
 62
7
100
AcDbLine
 10
66.200750
 20
48.229426
 30
0.0
 11
66.200750
 21
122.229426
 31
0.0
  0
LINE
  5
103
100
AcDbEntity
  8
0
 62
7
100
AcDbLine
 10
66.200750
 20
48.229426
 30
0.0
 11
66.200750
 21
48.229426
 31
0.0
  0
LINE
  5
104
100
AcDbEntity
  8
0
 62
7
100
AcDbLine
 10
66.200750
 20
122.229426
 30
0.0
 11
66.200750
 21
48.229426
 31
0.0
  0
LINE
  5
105
100
AcDbEntity
  8
0
 62
7
100
AcDbLine
 10
66.200750
 20
48.229426
 30
0.0
 11
47.508425
 21
48.229426
 31
0.0
  0
LINE
  5
106
100
AcDbEntity
  8
0
 62
7
100
AcDbLine
 10
66.200750
 20
48.229426
 30
0.0
 11
66.200750
 21
48.229426
 31
0.0
  0
LINE
  5
107
100
AcDbEntity
  8
0
 62
7
100
AcDbLine
 10
30.709296
 20
48.229426
 30
0.0
 11
66.200750
 21
48.229426
 31
0.0
  0
LINE
  5
108
100
AcDbEntity
  8
0
 62
7
100
AcDbLine
 10
47.508425
 20
48.229426
 30
0.0
 11
30.709296
 21
48.229426
 31
0.0
  0
LINE
  5
109
100
AcDbEntity
  8
0
 62
7
100
AcDbLine
 10
66.200750
 20
48.229426
 30
0.0
 11
47.508425
 21
48.229426
 31
0.0
  0
LINE
  5
10a
100
AcDbEntity
  8
0
 62
7
100
AcDbLine
 10
30.709296
 20
48.229426
 30
0.0
 11
30.709296
 21
42.229428
 31
0.0
  0
LINE
  5
10b
100
AcDbEntity
  8
0
 62
7
100
AcDbLine
 10
30.709296
 20
42.229428
 30
0.0
 11
47.508425
 21
42.229428
 31
0.0
  0
LINE
  5
10c
100
AcDbEntity
  8
0
 62
7
100
AcDbLine
 10
47.508425
 20
42.229428
 30
0.0
 11
30.709296
 21
42.229428
 31
0.0
  0
LINE
  5
10d
100
AcDbEntity
  8
0
 62
7
100
AcDbLine
 10
130.893074
 20
42.229428
 30
0.0
 11
47.508425
 21
42.229428
 31
0.0
  0
LINE
  5
10e
100
AcDbEntity
  8
0
 62
7
100
AcDbLine
 10
147.692200
 20
42.229428
 30
0.0
 11
130.893074
 21
42.229428
 31
0.0
  0
LINE
  5
10f
100
AcDbEntity
  8
0
 62
7
100
AcDbLine
 10
30.709296
 20
42.229428
 30
0.0
 11
147.692200
 21
42.229428
 31
0.0
  0
LINE
  5
110
100
AcDbEntity
  8
0
 62
7
100
AcDbLine
 10
147.692200
 20
42.229428
 30
0.0
 11
147.692200
 21
48.229426
 31
0.0
  0
LINE
  5
111
100
AcDbEntity
  8
0
 62
7
100
AcDbLine
 10
110.200750
 20
48.229426
 30
0.0
 11
147.692200
 21
48.229426
 31
0.0
  0
LINE
  5
112
100
AcDbEntity
  8
0
 62
7
100
AcDbLine
 10
130.893074
 20
48.229426
 30
0.0
 11
110.200750
 21
48.229426
 31
0.0
  0
LINE
  5
113
100
AcDbEntity
  8
0
 62
7
100
AcDbLine
 10
147.692200
 20
48.229426
 30
0.0
 11
130.893074
 21
48.229426
 31
0.0
  0
LINE
  5
114
100
AcDbEntity
  8
0
 62
7
100
AcDbLine
 10
110.200750
 20
48.229426
 30
0.0
 11
147.692200
 21
48.229426
 31
0.0
  0
LINE
  5
115
100
AcDbEntity
  8
0
 62
7
100
AcDbLine
 10
110.200750
 20
48.229426
 30
0.0
 11
110.200750
 21
48.229426
 31
0.0
  0
LINE
  5
116
100
AcDbEntity
  8
0
 62
7
100
AcDbLine
 10
110.200750
 20
48.229426
 30
0.0
 11
110.200750
 21
48.229426
 31
0.0
  0
LINE
  5
117
100
AcDbEntity
  8
0
 62
7
100
AcDbLine
 10
110.200750
 20
122.229426
 30
0.0
 11
110.200750
 21
48.229426
 31
0.0
  0
LINE
  5
118
100
AcDbEntity
  8
0
 62
7
100
AcDbLine
 10
110.200750
 20
122.229426
 30
0.0
 11
110.200750
 21
122.229426
 31
0.0
  0
LINE
  5
119
100
AcDbEntity
  8
0
 62
7
100
AcDbLine
 10
110.200750
 20
48.229426
 30
0.0
 11
110.200750
 21
122.229426
 31
0.0
  0
LINE
  5
11a
100
AcDbEntity
  8
0
 62
7
100
AcDbLine
 10
110.200750
 20
48.229426
 30
0.0
 11
110.200750
 21
48.229426
 31
0.0
  0
LINE
  5
11b
100
AcDbEntity
  8
0
 62
7
100
AcDbLine
 10
110.200750
 20
122.229426
 30
0.0
 11
147.692200
 21
122.229426
 31
0.0
  0
LINE
  5
11c
100
AcDbEntity
  8
0
 62
7
100
AcDbLine
 10
110.200750
 20
122.229426
 30
0.0
 11
110.200750
 21
122.229426
 31
0.0
  0
LINE
  5
11d
100
AcDbEntity
  8
0
 62
7
100
AcDbLine
 10
130.893074
 20
122.229426
 30
0.0
 11
110.200750
 21
122.229426
 31
0.0
  0
LINE
  5
11e
100
AcDbEntity
  8
0
 62
7
100
AcDbLine
 10
147.692200
 20
122.229426
 30
0.0
 11
130.893074
 21
122.229426
 31
0.0
  0
LINE
  5
11f
100
AcDbEntity
  8
0
 62
7
100
AcDbLine
 10
110.200750
 20
122.229426
 30
0.0
 11
147.692200
 21
122.229426
 31
0.0
  0
LINE
  5
120
100
AcDbEntity
  8
0
 62
7
100
AcDbLine
 10
147.692200
 20
122.229426
 30
0.0
 11
147.692200
 21
128.229427
 31
0.0
  0
LINE
  5
121
100
AcDbEntity
  8
0
 62
7
100
AcDbLine
 10
47.508425
 20
128.229427
 30
0.0
 11
147.692200
 21
128.229427
 31
0.0
  0
LINE
  5
122
100
AcDbEntity
  8
0
 62
7
100
AcDbLine
 10
130.893074
 20
128.229427
 30
0.0
 11
47.508425
 21
128.229427
 31
0.0
  0
LINE
  5
123
100
AcDbEntity
  8
0
 62
7
100
AcDbLine
 10
147.692200
 20
128.229427
 30
0.0
 11
130.893074
 21
128.229427
 31
0.0
  0
LINE
  5
124
100
AcDbEntity
  8
0
 62
7
100
AcDbLine
 10
30.709296
 20
128.229427
 30
0.0
 11
147.692200
 21
128.229427
 31
0.0
  0
LINE
  5
125
100
AcDbEntity
  8
0
 62
7
100
AcDbLine
 10
47.508425
 20
128.229427
 30
0.0
 11
30.709296
 21
128.229427
 31
0.0
  0
LINE
  5
126
100
AcDbEntity
  8
0
 62
7
100
AcDbLine
 10
30.709296
 20
128.229427
 30
0.0
 11
30.709296
 21
122.229426
 31
0.0
  0
LINE
  5
127
100
AcDbEntity
  8
0
 62
7
100
AcDbLine
 10
47.508425
 20
128.229427
 30
0.0
 11
30.709296
 21
128.229427
 31
0.0
  0
LINE
  5
128
100
AcDbEntity
  8
0
 62
7
100
AcDbLine
 10
47.508425
 20
122.229426
 30
0.0
 11
47.508425
 21
122.229426
 31
0.0
  0
LINE
  5
129
100
AcDbEntity
  8
0
 62
7
100
AcDbLine
 10
66.200750
 20
122.229426
 30
0.0
 11
47.508425
 21
122.229426
 31
0.0
  0
LINE
  5
12a
100
AcDbEntity
  8
0
 62
7
100
AcDbLine
 10
66.200750
 20
122.229426
 30
0.0
 11
66.200750
 21
122.229426
 31
0.0
  0
LINE
  5
12b
100
AcDbEntity
  8
0
 62
7
100
AcDbLine
 10
30.709296
 20
122.229426
 30
0.0
 11
66.200750
 21
122.229426
 31
0.0
  0
LINE
  5
12c
100
AcDbEntity
  8
0
 62
7
100
AcDbLine
 10
47.508425
 20
122.229426
 30
0.0
 11
30.709296
 21
122.229426
 31
0.0
  0
LINE
  5
12d
100
AcDbEntity
  8
0
 62
7
100
AcDbLine
 10
98.242787
 20
2.314306
 30
0.0
 11
88.200749
 21
1.729419
 31
0.0
  0
LINE
  5
12e
100
AcDbEntity
  8
0
 62
7
100
AcDbLine
 10
108.149022
 20
4.061033
 30
0.0
 11
98.242787
 21
2.314306
 31
0.0
  0
LINE
  5
12f
100
AcDbEntity
  8
0
 62
7
100
AcDbLine
 10
117.785491
 20
6.946023
 30
0.0
 11
108.149022
 21
4.061033
 31
0.0
  0
LINE
  5
130
100
AcDbEntity
  8
0
 62
7
100
AcDbLine
 10
127.021878
 20
10.930198
 30
0.0
 11
117.785491
 21
6.946023
 31
0.0
  0
LINE
  5
131
100
AcDbEntity
  8
0
 62
7
100
AcDbLine
 10
135.733277
 20
15.959742
 30
0.0
 11
127.021878
 21
10.930198
 31
0.0
  0
LINE
  5
132
100
AcDbEntity
  8
0
 62
7
100
AcDbLine
 10
143.801878
 20
21.966578
 30
0.0
 11
135.733277
 21
15.959742
 31
0.0
  0
LINE
  5
133
100
AcDbEntity
  8
0
 62
7
100
AcDbLine
 10
151.118570
 20
28.869530
 30
0.0
 11
143.801878
 21
21.966578
 31
0.0
  0
LINE
  5
134
100
AcDbEntity
  8
0
 62
7
100
AcDbLine
 10
157.584405
 20
36.575208
 30
0.0
 11
151.118570
 21
28.869530
 31
0.0
  0
LINE
  5
135
100
AcDbEntity
  8
0
 62
7
100
AcDbLine
 10
163.111945
 20
44.979427
 30
0.0
 11
157.584405
 21
36.575208
 31
0.0
  0
LINE
  5
136
100
AcDbEntity
  8
0
 62
7
100
AcDbLine
 10
167.626443
 20
53.968527
 30
0.0
 11
163.111945
 21
44.979427
 31
0.0
  0
LINE
  5
137
100
AcDbEntity
  8
0
 62
7
100
AcDbLine
 10
171.066841
 20
63.420946
 30
0.0
 11
167.626443
 21
53.968527
 31
0.0
  0
LINE
  5
138
100
AcDbEntity
  8
0
 62
7
100
AcDbLine
 10
173.386620
 20
73.208858
 30
0.0
 11
171.066841
 21
63.420946
 31
0.0
  0
LINE
  5
139
100
AcDbEntity
  8
0
 62
7
100
AcDbLine
 10
174.554404
 20
83.199900
 30
0.0
 11
173.386620
 21
73.208858
 31
0.0
  0
LINE
  5
13a
100
AcDbEntity
  8
0
 62
7
100
AcDbLine
 10
174.554404
 20
93.258954
 30
0.0
 11
174.554404
 21
83.199900
 31
0.0
  0
LINE
  5
13b
100
AcDbEntity
  8
0
 62
7
100
AcDbLine
 10
173.386620
 20
103.249993
 30
0.0
 11
174.554404
 21
93.258954
 31
0.0
  0
LINE
  5
13c
100
AcDbEntity
  8
0
 62
7
100
AcDbLine
 10
171.066841
 20
113.037907
 30
0.0
 11
173.386620
 21
103.249993
 31
0.0
  0
LINE
  5
13d
100
AcDbEntity
  8
0
 62
7
100
AcDbLine
 10
167.626443
 20
122.490327
 30
0.0
 11
171.066841
 21
113.037907
 31
0.0
  0
LINE
  5
13e
100
AcDbEntity
  8
0
 62
7
100
AcDbLine
 10
163.111945
 20
131.479426
 30
0.0
 11
167.626443
 21
122.490327
 31
0.0
  0
LINE
  5
13f
100
AcDbEntity
  8
0
 62
7
100
AcDbLine
 10
157.584405
 20
139.883646
 30
0.0
 11
163.111945
 21
131.479426
 31
0.0
  0
LINE
  5
140
100
AcDbEntity
  8
0
 62
7
100
AcDbLine
 10
151.118570
 20
147.589329
 30
0.0
 11
157.584405
 21
139.883646
 31
0.0
  0
LINE
  5
141
100
AcDbEntity
  8
0
 62
7
100
AcDbLine
 10
143.801878
 20
154.492271
 30
0.0
 11
151.118570
 21
147.589329
 31
0.0
  0
LINE
  5
142
100
AcDbEntity
  8
0
 62
7
100
AcDbLine
 10
135.733277
 20
160.499122
 30
0.0
 11
143.801878
 21
154.492271
 31
0.0
  0
LINE
  5
143
100
AcDbEntity
  8
0
 62
7
100
AcDbLine
 10
127.021878
 20
165.528650
 30
0.0
 11
135.733277
 21
160.499122
 31
0.0
  0
LINE
  5
144
100
AcDbEntity
  8
0
 62
7
100
AcDbLine
 10
117.785491
 20
169.512839
 30
0.0
 11
127.021878
 21
165.528650
 31
0.0
  0
LINE
  5
145
100
AcDbEntity
  8
0
 62
7
100
AcDbLine
 10
108.149022
 20
172.397808
 30
0.0
 11
117.785491
 21
169.512839
 31
0.0
  0
LINE
  5
146
100
AcDbEntity
  8
0
 62
7
100
AcDbLine
 10
98.242787
 20
174.144544
 30
0.0
 11
108.149022
 21
172.397808
 31
0.0
  0
LINE
  5
147
100
AcDbEntity
  8
0
 62
7
100
AcDbLine
 10
88.200749
 20
174.729427
 30
0.0
 11
98.242787
 21
174.144544
 31
0.0
  0
LINE
  5
148
100
AcDbEntity
  8
0
 62
7
100
AcDbLine
 10
78.158713
 20
174.144544
 30
0.0
 11
88.200749
 21
174.729427
 31
0.0
  0
LINE
  5
149
100
AcDbEntity
  8
0
 62
7
100
AcDbLine
 10
68.252475
 20
172.397808
 30
0.0
 11
78.158713
 21
174.144544
 31
0.0
  0
LINE
  5
14a
100
AcDbEntity
  8
0
 62
7
100
AcDbLine
 10
58.616006
 20
169.512839
 30
0.0
 11
68.252475
 21
172.397808
 31
0.0
  0
LINE
  5
14b
100
AcDbEntity
  8
0
 62
7
100
AcDbLine
 10
49.379619
 20
165.528650
 30
0.0
 11
58.616006
 21
169.512839
 31
0.0
  0
LINE
  5
14c
100
AcDbEntity
  8
0
 62
7
100
AcDbLine
 10
40.668223
 20
160.499122
 30
0.0
 11
49.379619
 21
165.528650
 31
0.0
  0
LINE
  5
14d
100
AcDbEntity
  8
0
 62
7
100
AcDbLine
 10
32.599622
 20
154.492271
 30
0.0
 11
40.668223
 21
160.499122
 31
0.0
  0
LINE
  5
14e
100
AcDbEntity
  8
0
 62
7
100
AcDbLine
 10
25.282929
 20
147.589329
 30
0.0
 11
32.599622
 21
154.492271
 31
0.0
  0
LINE
  5
14f
100
AcDbEntity
  8
0
 62
7
100
AcDbLine
 10
18.817093
 20
139.883646
 30
0.0
 11
25.282929
 21
147.589329
 31
0.0
  0
LINE
  5
150
100
AcDbEntity
  8
0
 62
7
100
AcDbLine
 10
13.289552
 20
131.479426
 30
0.0
 11
18.817093
 21
139.883646
 31
0.0
  0
LINE
  5
151
100
AcDbEntity
  8
0
 62
7
100
AcDbLine
 10
8.775056
 20
122.490327
 30
0.0
 11
13.289552
 21
131.479426
 31
0.0
  0
LINE
  5
152
100
AcDbEntity
  8
0
 62
7
100
AcDbLine
 10
5.334656
 20
113.037907
 30
0.0
 11
8.775056
 21
122.490327
 31
0.0
  0
LINE
  5
153
100
AcDbEntity
  8
0
 62
7
100
AcDbLine
 10
3.014878
 20
103.249993
 30
0.0
 11
5.334656
 21
113.037907
 31
0.0
  0
LINE
  5
154
100
AcDbEntity
  8
0
 62
7
100
AcDbLine
 10
1.847093
 20
93.258954
 30
0.0
 11
3.014878
 21
103.249993
 31
0.0
  0
LINE
  5
155
100
AcDbEntity
  8
0
 62
7
100
AcDbLine
 10
1.847093
 20
83.199900
 30
0.0
 11
1.847093
 21
93.258954
 31
0.0
  0
LINE
  5
156
100
AcDbEntity
  8
0
 62
7
100
AcDbLine
 10
3.014878
 20
73.208858
 30
0.0
 11
1.847093
 21
83.199900
 31
0.0
  0
LINE
  5
157
100
AcDbEntity
  8
0
 62
7
100
AcDbLine
 10
5.334656
 20
63.420946
 30
0.0
 11
3.014878
 21
73.208858
 31
0.0
  0
LINE
  5
158
100
AcDbEntity
  8
0
 62
7
100
AcDbLine
 10
8.775056
 20
53.968527
 30
0.0
 11
5.334656
 21
63.420946
 31
0.0
  0
LINE
  5
159
100
AcDbEntity
  8
0
 62
7
100
AcDbLine
 10
13.289552
 20
44.979427
 30
0.0
 11
8.775056
 21
53.968527
 31
0.0
  0
LINE
  5
15a
100
AcDbEntity
  8
0
 62
7
100
AcDbLine
 10
18.817093
 20
36.575208
 30
0.0
 11
13.289552
 21
44.979427
 31
0.0
  0
LINE
  5
15b
100
AcDbEntity
  8
0
 62
7
100
AcDbLine
 10
25.282929
 20
28.869530
 30
0.0
 11
18.817093
 21
36.575208
 31
0.0
  0
LINE
  5
15c
100
AcDbEntity
  8
0
 62
7
100
AcDbLine
 10
32.599622
 20
21.966578
 30
0.0
 11
25.282929
 21
28.869530
 31
0.0
  0
LINE
  5
15d
100
AcDbEntity
  8
0
 62
7
100
AcDbLine
 10
40.668223
 20
15.959742
 30
0.0
 11
32.599622
 21
21.966578
 31
0.0
  0
LINE
  5
15e
100
AcDbEntity
  8
0
 62
7
100
AcDbLine
 10
49.379619
 20
10.930198
 30
0.0
 11
40.668223
 21
15.959742
 31
0.0
  0
LINE
  5
15f
100
AcDbEntity
  8
0
 62
7
100
AcDbLine
 10
58.616006
 20
6.946023
 30
0.0
 11
49.379619
 21
10.930198
 31
0.0
  0
LINE
  5
160
100
AcDbEntity
  8
0
 62
7
100
AcDbLine
 10
68.252475
 20
4.061033
 30
0.0
 11
58.616006
 21
6.946023
 31
0.0
  0
LINE
  5
161
100
AcDbEntity
  8
0
 62
7
100
AcDbLine
 10
78.158713
 20
2.314306
 30
0.0
 11
68.252475
 21
4.061033
 31
0.0
  0
LINE
  5
162
100
AcDbEntity
  8
0
 62
7
100
AcDbLine
 10
88.200749
 20
1.729419
 30
0.0
 11
78.158713
 21
2.314306
 31
0.0
  0
LINE
  5
163
100
AcDbEntity
  8
0
 62
7
100
AcDbLine
 10
98.242787
 20
2.314306
 30
0.0
 11
88.200749
 21
1.729419
 31
0.0
  0
LINE
  5
164
100
AcDbEntity
  8
0
 62
7
100
AcDbLine
 10
108.149022
 20
4.061033
 30
0.0
 11
98.242787
 21
2.314306
 31
0.0
  0
LINE
  5
165
100
AcDbEntity
  8
0
 62
7
100
AcDbLine
 10
117.785491
 20
6.946023
 30
0.0
 11
108.149022
 21
4.061033
 31
0.0
  0
LINE
  5
166
100
AcDbEntity
  8
0
 62
7
100
AcDbLine
 10
127.021878
 20
10.930198
 30
0.0
 11
117.785491
 21
6.946023
 31
0.0
  0
LINE
  5
167
100
AcDbEntity
  8
0
 62
7
100
AcDbLine
 10
135.733277
 20
15.959742
 30
0.0
 11
127.021878
 21
10.930198
 31
0.0
  0
LINE
  5
168
100
AcDbEntity
  8
0
 62
7
100
AcDbLine
 10
143.801878
 20
21.966578
 30
0.0
 11
135.733277
 21
15.959742
 31
0.0
  0
LINE
  5
169
100
AcDbEntity
  8
0
 62
7
100
AcDbLine
 10
151.118570
 20
28.869530
 30
0.0
 11
143.801878
 21
21.966578
 31
0.0
  0
LINE
  5
16a
100
AcDbEntity
  8
0
 62
7
100
AcDbLine
 10
157.584405
 20
36.575208
 30
0.0
 11
151.118570
 21
28.869530
 31
0.0
  0
LINE
  5
16b
100
AcDbEntity
  8
0
 62
7
100
AcDbLine
 10
163.111945
 20
44.979427
 30
0.0
 11
157.584405
 21
36.575208
 31
0.0
  0
LINE
  5
16c
100
AcDbEntity
  8
0
 62
7
100
AcDbLine
 10
167.626443
 20
53.968527
 30
0.0
 11
163.111945
 21
44.979427
 31
0.0
  0
LINE
  5
16d
100
AcDbEntity
  8
0
 62
7
100
AcDbLine
 10
171.066841
 20
63.420946
 30
0.0
 11
167.626443
 21
53.968527
 31
0.0
  0
LINE
  5
16e
100
AcDbEntity
  8
0
 62
7
100
AcDbLine
 10
173.386620
 20
73.208858
 30
0.0
 11
171.066841
 21
63.420946
 31
0.0
  0
LINE
  5
16f
100
AcDbEntity
  8
0
 62
7
100
AcDbLine
 10
174.554404
 20
83.199900
 30
0.0
 11
173.386620
 21
73.208858
 31
0.0
  0
LINE
  5
170
100
AcDbEntity
  8
0
 62
7
100
AcDbLine
 10
174.554404
 20
93.258954
 30
0.0
 11
174.554404
 21
83.199900
 31
0.0
  0
LINE
  5
171
100
AcDbEntity
  8
0
 62
7
100
AcDbLine
 10
173.386620
 20
103.249993
 30
0.0
 11
174.554404
 21
93.258954
 31
0.0
  0
LINE
  5
172
100
AcDbEntity
  8
0
 62
7
100
AcDbLine
 10
171.066841
 20
113.037907
 30
0.0
 11
173.386620
 21
103.249993
 31
0.0
  0
LINE
  5
173
100
AcDbEntity
  8
0
 62
7
100
AcDbLine
 10
167.626443
 20
122.490327
 30
0.0
 11
171.066841
 21
113.037907
 31
0.0
  0
LINE
  5
174
100
AcDbEntity
  8
0
 62
7
100
AcDbLine
 10
163.111945
 20
131.479426
 30
0.0
 11
167.626443
 21
122.490327
 31
0.0
  0
LINE
  5
175
100
AcDbEntity
  8
0
 62
7
100
AcDbLine
 10
157.584405
 20
139.883646
 30
0.0
 11
163.111945
 21
131.479426
 31
0.0
  0
LINE
  5
176
100
AcDbEntity
  8
0
 62
7
100
AcDbLine
 10
151.118570
 20
147.589329
 30
0.0
 11
157.584405
 21
139.883646
 31
0.0
  0
LINE
  5
177
100
AcDbEntity
  8
0
 62
7
100
AcDbLine
 10
143.801878
 20
154.492271
 30
0.0
 11
151.118570
 21
147.589329
 31
0.0
  0
LINE
  5
178
100
AcDbEntity
  8
0
 62
7
100
AcDbLine
 10
135.733277
 20
160.499122
 30
0.0
 11
143.801878
 21
154.492271
 31
0.0
  0
LINE
  5
179
100
AcDbEntity
  8
0
 62
7
100
AcDbLine
 10
127.021878
 20
165.528650
 30
0.0
 11
135.733277
 21
160.499122
 31
0.0
  0
LINE
  5
17a
100
AcDbEntity
  8
0
 62
7
100
AcDbLine
 10
117.785491
 20
169.512839
 30
0.0
 11
127.021878
 21
165.528650
 31
0.0
  0
LINE
  5
17b
100
AcDbEntity
  8
0
 62
7
100
AcDbLine
 10
108.149022
 20
172.397808
 30
0.0
 11
117.785491
 21
169.512839
 31
0.0
  0
LINE
  5
17c
100
AcDbEntity
  8
0
 62
7
100
AcDbLine
 10
98.242787
 20
174.144544
 30
0.0
 11
108.149022
 21
172.397808
 31
0.0
  0
LINE
  5
17d
100
AcDbEntity
  8
0
 62
7
100
AcDbLine
 10
88.200749
 20
174.729427
 30
0.0
 11
98.242787
 21
174.144544
 31
0.0
  0
LINE
  5
17e
100
AcDbEntity
  8
0
 62
7
100
AcDbLine
 10
78.158713
 20
174.144544
 30
0.0
 11
88.200749
 21
174.729427
 31
0.0
  0
LINE
  5
17f
100
AcDbEntity
  8
0
 62
7
100
AcDbLine
 10
68.252475
 20
172.397808
 30
0.0
 11
78.158713
 21
174.144544
 31
0.0
  0
LINE
  5
180
100
AcDbEntity
  8
0
 62
7
100
AcDbLine
 10
58.616006
 20
169.512839
 30
0.0
 11
68.252475
 21
172.397808
 31
0.0
  0
LINE
  5
181
100
AcDbEntity
  8
0
 62
7
100
AcDbLine
 10
49.379619
 20
165.528650
 30
0.0
 11
58.616006
 21
169.512839
 31
0.0
  0
LINE
  5
182
100
AcDbEntity
  8
0
 62
7
100
AcDbLine
 10
40.668223
 20
160.499122
 30
0.0
 11
49.379619
 21
165.528650
 31
0.0
  0
LINE
  5
183
100
AcDbEntity
  8
0
 62
7
100
AcDbLine
 10
32.599622
 20
154.492271
 30
0.0
 11
40.668223
 21
160.499122
 31
0.0
  0
LINE
  5
184
100
AcDbEntity
  8
0
 62
7
100
AcDbLine
 10
25.282929
 20
147.589329
 30
0.0
 11
32.599622
 21
154.492271
 31
0.0
  0
LINE
  5
185
100
AcDbEntity
  8
0
 62
7
100
AcDbLine
 10
18.817093
 20
139.883646
 30
0.0
 11
25.282929
 21
147.589329
 31
0.0
  0
LINE
  5
186
100
AcDbEntity
  8
0
 62
7
100
AcDbLine
 10
13.289552
 20
131.479426
 30
0.0
 11
18.817093
 21
139.883646
 31
0.0
  0
LINE
  5
187
100
AcDbEntity
  8
0
 62
7
100
AcDbLine
 10
8.775056
 20
122.490327
 30
0.0
 11
13.289552
 21
131.479426
 31
0.0
  0
LINE
  5
188
100
AcDbEntity
  8
0
 62
7
100
AcDbLine
 10
5.334656
 20
113.037907
 30
0.0
 11
8.775056
 21
122.490327
 31
0.0
  0
LINE
  5
189
100
AcDbEntity
  8
0
 62
7
100
AcDbLine
 10
3.014878
 20
103.249993
 30
0.0
 11
5.334656
 21
113.037907
 31
0.0
  0
LINE
  5
18a
100
AcDbEntity
  8
0
 62
7
100
AcDbLine
 10
1.847093
 20
93.258954
 30
0.0
 11
3.014878
 21
103.249993
 31
0.0
  0
LINE
  5
18b
100
AcDbEntity
  8
0
 62
7
100
AcDbLine
 10
1.847093
 20
83.199900
 30
0.0
 11
1.847093
 21
93.258954
 31
0.0
  0
LINE
  5
18c
100
AcDbEntity
  8
0
 62
7
100
AcDbLine
 10
3.014878
 20
73.208858
 30
0.0
 11
1.847093
 21
83.199900
 31
0.0
  0
LINE
  5
18d
100
AcDbEntity
  8
0
 62
7
100
AcDbLine
 10
5.334656
 20
63.420946
 30
0.0
 11
3.014878
 21
73.208858
 31
0.0
  0
LINE
  5
18e
100
AcDbEntity
  8
0
 62
7
100
AcDbLine
 10
8.775056
 20
53.968527
 30
0.0
 11
5.334656
 21
63.420946
 31
0.0
  0
LINE
  5
18f
100
AcDbEntity
  8
0
 62
7
100
AcDbLine
 10
13.289552
 20
44.979427
 30
0.0
 11
8.775056
 21
53.968527
 31
0.0
  0
LINE
  5
190
100
AcDbEntity
  8
0
 62
7
100
AcDbLine
 10
18.817093
 20
36.575208
 30
0.0
 11
13.289552
 21
44.979427
 31
0.0
  0
LINE
  5
191
100
AcDbEntity
  8
0
 62
7
100
AcDbLine
 10
25.282929
 20
28.869530
 30
0.0
 11
18.817093
 21
36.575208
 31
0.0
  0
LINE
  5
192
100
AcDbEntity
  8
0
 62
7
100
AcDbLine
 10
32.599622
 20
21.966578
 30
0.0
 11
25.282929
 21
28.869530
 31
0.0
  0
LINE
  5
193
100
AcDbEntity
  8
0
 62
7
100
AcDbLine
 10
40.668223
 20
15.959742
 30
0.0
 11
32.599622
 21
21.966578
 31
0.0
  0
LINE
  5
194
100
AcDbEntity
  8
0
 62
7
100
AcDbLine
 10
49.379619
 20
10.930198
 30
0.0
 11
40.668223
 21
15.959742
 31
0.0
  0
LINE
  5
195
100
AcDbEntity
  8
0
 62
7
100
AcDbLine
 10
58.616006
 20
6.946023
 30
0.0
 11
49.379619
 21
10.930198
 31
0.0
  0
LINE
  5
196
100
AcDbEntity
  8
0
 62
7
100
AcDbLine
 10
68.252475
 20
4.061033
 30
0.0
 11
58.616006
 21
6.946023
 31
0.0
  0
LINE
  5
197
100
AcDbEntity
  8
0
 62
7
100
AcDbLine
 10
78.158713
 20
2.314306
 30
0.0
 11
68.252475
 21
4.061033
 31
0.0
  0
LINE
  5
198
100
AcDbEntity
  8
0
 62
7
100
AcDbLine
 10
88.200749
 20
1.729419
 30
0.0
 11
78.158713
 21
2.314306
 31
0.0
  0
LINE
  5
199
100
AcDbEntity
  8
0
 62
7
100
AcDbLine
 10
98.242787
 20
2.314306
 30
0.0
 11
88.200749
 21
1.729419
 31
0.0
  0
LINE
  5
19a
100
AcDbEntity
  8
0
 62
7
100
AcDbLine
 10
108.149022
 20
4.061033
 30
0.0
 11
98.242787
 21
2.314306
 31
0.0
  0
LINE
  5
19b
100
AcDbEntity
  8
0
 62
7
100
AcDbLine
 10
117.785491
 20
6.946023
 30
0.0
 11
108.149022
 21
4.061033
 31
0.0
  0
LINE
  5
19c
100
AcDbEntity
  8
0
 62
7
100
AcDbLine
 10
127.021878
 20
10.930198
 30
0.0
 11
117.785491
 21
6.946023
 31
0.0
  0
LINE
  5
19d
100
AcDbEntity
  8
0
 62
7
100
AcDbLine
 10
135.733277
 20
15.959742
 30
0.0
 11
127.021878
 21
10.930198
 31
0.0
  0
LINE
  5
19e
100
AcDbEntity
  8
0
 62
7
100
AcDbLine
 10
143.801878
 20
21.966578
 30
0.0
 11
135.733277
 21
15.959742
 31
0.0
  0
LINE
  5
19f
100
AcDbEntity
  8
0
 62
7
100
AcDbLine
 10
151.118570
 20
28.869530
 30
0.0
 11
143.801878
 21
21.966578
 31
0.0
  0
LINE
  5
1a0
100
AcDbEntity
  8
0
 62
7
100
AcDbLine
 10
157.584405
 20
36.575208
 30
0.0
 11
151.118570
 21
28.869530
 31
0.0
  0
LINE
  5
1a1
100
AcDbEntity
  8
0
 62
7
100
AcDbLine
 10
163.111945
 20
44.979427
 30
0.0
 11
157.584405
 21
36.575208
 31
0.0
  0
LINE
  5
1a2
100
AcDbEntity
  8
0
 62
7
100
AcDbLine
 10
167.626443
 20
53.968527
 30
0.0
 11
163.111945
 21
44.979427
 31
0.0
  0
LINE
  5
1a3
100
AcDbEntity
  8
0
 62
7
100
AcDbLine
 10
171.066841
 20
63.420946
 30
0.0
 11
167.626443
 21
53.968527
 31
0.0
  0
LINE
  5
1a4
100
AcDbEntity
  8
0
 62
7
100
AcDbLine
 10
173.386620
 20
73.208858
 30
0.0
 11
171.066841
 21
63.420946
 31
0.0
  0
LINE
  5
1a5
100
AcDbEntity
  8
0
 62
7
100
AcDbLine
 10
174.554404
 20
83.199900
 30
0.0
 11
173.386620
 21
73.208858
 31
0.0
  0
LINE
  5
1a6
100
AcDbEntity
  8
0
 62
7
100
AcDbLine
 10
174.554404
 20
93.258954
 30
0.0
 11
174.554404
 21
83.199900
 31
0.0
  0
LINE
  5
1a7
100
AcDbEntity
  8
0
 62
7
100
AcDbLine
 10
173.386620
 20
103.249993
 30
0.0
 11
174.554404
 21
93.258954
 31
0.0
  0
LINE
  5
1a8
100
AcDbEntity
  8
0
 62
7
100
AcDbLine
 10
171.066841
 20
113.037907
 30
0.0
 11
173.386620
 21
103.249993
 31
0.0
  0
LINE
  5
1a9
100
AcDbEntity
  8
0
 62
7
100
AcDbLine
 10
167.626443
 20
122.490327
 30
0.0
 11
171.066841
 21
113.037907
 31
0.0
  0
LINE
  5
1aa
100
AcDbEntity
  8
0
 62
7
100
AcDbLine
 10
163.111945
 20
131.479426
 30
0.0
 11
167.626443
 21
122.490327
 31
0.0
  0
LINE
  5
1ab
100
AcDbEntity
  8
0
 62
7
100
AcDbLine
 10
157.584405
 20
139.883646
 30
0.0
 11
163.111945
 21
131.479426
 31
0.0
  0
LINE
  5
1ac
100
AcDbEntity
  8
0
 62
7
100
AcDbLine
 10
151.118570
 20
147.589329
 30
0.0
 11
157.584405
 21
139.883646
 31
0.0
  0
LINE
  5
1ad
100
AcDbEntity
  8
0
 62
7
100
AcDbLine
 10
143.801878
 20
154.492271
 30
0.0
 11
151.118570
 21
147.589329
 31
0.0
  0
LINE
  5
1ae
100
AcDbEntity
  8
0
 62
7
100
AcDbLine
 10
135.733277
 20
160.499122
 30
0.0
 11
143.801878
 21
154.492271
 31
0.0
  0
LINE
  5
1af
100
AcDbEntity
  8
0
 62
7
100
AcDbLine
 10
127.021878
 20
165.528650
 30
0.0
 11
135.733277
 21
160.499122
 31
0.0
  0
LINE
  5
1b0
100
AcDbEntity
  8
0
 62
7
100
AcDbLine
 10
117.785491
 20
169.512839
 30
0.0
 11
127.021878
 21
165.528650
 31
0.0
  0
LINE
  5
1b1
100
AcDbEntity
  8
0
 62
7
100
AcDbLine
 10
108.149022
 20
172.397808
 30
0.0
 11
117.785491
 21
169.512839
 31
0.0
  0
LINE
  5
1b2
100
AcDbEntity
  8
0
 62
7
100
AcDbLine
 10
98.242787
 20
174.144544
 30
0.0
 11
108.149022
 21
172.397808
 31
0.0
  0
LINE
  5
1b3
100
AcDbEntity
  8
0
 62
7
100
AcDbLine
 10
88.200749
 20
174.729427
 30
0.0
 11
98.242787
 21
174.144544
 31
0.0
  0
LINE
  5
1b4
100
AcDbEntity
  8
0
 62
7
100
AcDbLine
 10
78.158713
 20
174.144544
 30
0.0
 11
88.200749
 21
174.729427
 31
0.0
  0
LINE
  5
1b5
100
AcDbEntity
  8
0
 62
7
100
AcDbLine
 10
68.252475
 20
172.397808
 30
0.0
 11
78.158713
 21
174.144544
 31
0.0
  0
LINE
  5
1b6
100
AcDbEntity
  8
0
 62
7
100
AcDbLine
 10
58.616006
 20
169.512839
 30
0.0
 11
68.252475
 21
172.397808
 31
0.0
  0
LINE
  5
1b7
100
AcDbEntity
  8
0
 62
7
100
AcDbLine
 10
49.379619
 20
165.528650
 30
0.0
 11
58.616006
 21
169.512839
 31
0.0
  0
LINE
  5
1b8
100
AcDbEntity
  8
0
 62
7
100
AcDbLine
 10
40.668223
 20
160.499122
 30
0.0
 11
49.379619
 21
165.528650
 31
0.0
  0
LINE
  5
1b9
100
AcDbEntity
  8
0
 62
7
100
AcDbLine
 10
32.599622
 20
154.492271
 30
0.0
 11
40.668223
 21
160.499122
 31
0.0
  0
LINE
  5
1ba
100
AcDbEntity
  8
0
 62
7
100
AcDbLine
 10
25.282929
 20
147.589329
 30
0.0
 11
32.599622
 21
154.492271
 31
0.0
  0
LINE
  5
1bb
100
AcDbEntity
  8
0
 62
7
100
AcDbLine
 10
18.817093
 20
139.883646
 30
0.0
 11
25.282929
 21
147.589329
 31
0.0
  0
LINE
  5
1bc
100
AcDbEntity
  8
0
 62
7
100
AcDbLine
 10
13.289552
 20
131.479426
 30
0.0
 11
18.817093
 21
139.883646
 31
0.0
  0
LINE
  5
1bd
100
AcDbEntity
  8
0
 62
7
100
AcDbLine
 10
8.775056
 20
122.490327
 30
0.0
 11
13.289552
 21
131.479426
 31
0.0
  0
LINE
  5
1be
100
AcDbEntity
  8
0
 62
7
100
AcDbLine
 10
5.334656
 20
113.037907
 30
0.0
 11
8.775056
 21
122.490327
 31
0.0
  0
LINE
  5
1bf
100
AcDbEntity
  8
0
 62
7
100
AcDbLine
 10
3.014878
 20
103.249993
 30
0.0
 11
5.334656
 21
113.037907
 31
0.0
  0
LINE
  5
1c0
100
AcDbEntity
  8
0
 62
7
100
AcDbLine
 10
1.847093
 20
93.258954
 30
0.0
 11
3.014878
 21
103.249993
 31
0.0
  0
LINE
  5
1c1
100
AcDbEntity
  8
0
 62
7
100
AcDbLine
 10
1.847093
 20
83.199900
 30
0.0
 11
1.847093
 21
93.258954
 31
0.0
  0
LINE
  5
1c2
100
AcDbEntity
  8
0
 62
7
100
AcDbLine
 10
3.014878
 20
73.208858
 30
0.0
 11
1.847093
 21
83.199900
 31
0.0
  0
LINE
  5
1c3
100
AcDbEntity
  8
0
 62
7
100
AcDbLine
 10
5.334656
 20
63.420946
 30
0.0
 11
3.014878
 21
73.208858
 31
0.0
  0
LINE
  5
1c4
100
AcDbEntity
  8
0
 62
7
100
AcDbLine
 10
8.775056
 20
53.968527
 30
0.0
 11
5.334656
 21
63.420946
 31
0.0
  0
LINE
  5
1c5
100
AcDbEntity
  8
0
 62
7
100
AcDbLine
 10
13.289552
 20
44.979427
 30
0.0
 11
8.775056
 21
53.968527
 31
0.0
  0
LINE
  5
1c6
100
AcDbEntity
  8
0
 62
7
100
AcDbLine
 10
18.817093
 20
36.575208
 30
0.0
 11
13.289552
 21
44.979427
 31
0.0
  0
LINE
  5
1c7
100
AcDbEntity
  8
0
 62
7
100
AcDbLine
 10
25.282929
 20
28.869530
 30
0.0
 11
18.817093
 21
36.575208
 31
0.0
  0
LINE
  5
1c8
100
AcDbEntity
  8
0
 62
7
100
AcDbLine
 10
32.599622
 20
21.966578
 30
0.0
 11
25.282929
 21
28.869530
 31
0.0
  0
LINE
  5
1c9
100
AcDbEntity
  8
0
 62
7
100
AcDbLine
 10
40.668223
 20
15.959742
 30
0.0
 11
32.599622
 21
21.966578
 31
0.0
  0
LINE
  5
1ca
100
AcDbEntity
  8
0
 62
7
100
AcDbLine
 10
49.379619
 20
10.930198
 30
0.0
 11
40.668223
 21
15.959742
 31
0.0
  0
LINE
  5
1cb
100
AcDbEntity
  8
0
 62
7
100
AcDbLine
 10
58.616006
 20
6.946023
 30
0.0
 11
49.379619
 21
10.930198
 31
0.0
  0
LINE
  5
1cc
100
AcDbEntity
  8
0
 62
7
100
AcDbLine
 10
68.252475
 20
4.061033
 30
0.0
 11
58.616006
 21
6.946023
 31
0.0
  0
LINE
  5
1cd
100
AcDbEntity
  8
0
 62
7
100
AcDbLine
 10
78.158713
 20
2.314306
 30
0.0
 11
68.252475
 21
4.061033
 31
0.0
  0
LINE
  5
1ce
100
AcDbEntity
  8
0
 62
7
100
AcDbLine
 10
88.200749
 20
1.729419
 30
0.0
 11
78.158713
 21
2.314306
 31
0.0
  0
ENDSEC
  0
SECTION
  2
OBJECTS
  0
DICTIONARY
  5
C
330
0
100
AcDbDictionary
  3
ACAD_GROUP
350
D
  3
ACAD_MLINESTYLE
350
17
  0
DICTIONARY
  5
D
330
C
100
AcDbDictionary
  0
DICTIONARY
  5
1A
330
C
100
AcDbDictionary
  0
DICTIONARY
  5
17
330
C
100
AcDbDictionary
  3
STANDARD
350
18
  0
DICTIONARY
  5
19
330
C
100
AcDbDictionary
  0
ENDSEC
  0
EOF
