<?xml version="1.0" encoding="UTF-8" standalone="no"?>
<svg
   xmlns:dc="http://purl.org/dc/elements/1.1/"
   xmlns:cc="http://creativecommons.org/ns#"
   xmlns:rdf="http://www.w3.org/1999/02/22-rdf-syntax-ns#"
   xmlns:svg="http://www.w3.org/2000/svg"
   xmlns="http://www.w3.org/2000/svg"
   xmlns:sodipodi="http://sodipodi.sourceforge.net/DTD/sodipodi-0.dtd"
   xmlns:inkscape="http://www.inkscape.org/namespaces/inkscape"
   width="203.8647571682527mm"
   height="203.9310416826323mm"
   viewBox="0 0 203.8647571682527 203.9310416826323"
   version="1.1"
   id="svg144"
   sodipodi:docname="disk_drive_cut.svg"
   inkscape:version="0.92.5 (2060ec1f9f, 2020-04-08)">
  <metadata
     id="metadata150">
    <rdf:RDF>
      <cc:Work
         rdf:about="">
        <dc:format>image/svg+xml</dc:format>
        <dc:type
           rdf:resource="http://purl.org/dc/dcmitype/StillImage" />
      </cc:Work>
    </rdf:RDF>
  </metadata>
  <defs
     id="defs148" />
  <sodipodi:namedview
     pagecolor="#ffffff"
     bordercolor="#666666"
     borderopacity="1"
     objecttolerance="10"
     gridtolerance="10"
     guidetolerance="10"
     inkscape:pageopacity="0"
     inkscape:pageshadow="2"
     inkscape:window-width="1920"
     inkscape:window-height="1016"
     id="namedview146"
     showgrid="false"
     inkscape:zoom="0.53713009"
     inkscape:cx="709.22501"
     inkscape:cy="227.36714"
     inkscape:window-x="0"
     inkscape:window-y="0"
     inkscape:window-maximized="1"
     inkscape:current-layer="svg144"
     showguides="true"
     inkscape:guide-bbox="true">
    <sodipodi:guide
       position="99.009997,201.65282"
       orientation="1,0"
       id="guide3863"
       inkscape:locked="false" />
    <sodipodi:guide
       position="-2.6123373,94.784306"
       orientation="0,1"
       id="guide3867"
       inkscape:locked="false" />
  </sodipodi:namedview>
  <g
     id="Cut065"
     transform="matrix(1,0,0,-1,99.403147,53.539047)"
     style="fill:#ffffff">
    <path
       d="m 100,-56 -0.513068,-10.116832 -1.533938,-10.01302 -2.539068,-9.80646 -3.518145,-9.499274 -4.461119,-9.094614 -5.358318,-8.59662 -6.200532,-8.01043 -6.97912,-7.34203 -7.686094,-6.59829 -8.314197,-5.78686 -8.856986,-4.91602 -9.30889,-3.99476 -9.665272,-3.0325 -9.922475,-2.03912 -10.0778611,-1.02482 H -5.0649169 l -10.0778611,1.02482 -9.922475,2.03912 -9.665272,3.0325 -9.30889,3.99476 -8.856986,4.91602 -8.314197,5.78686 -7.686094,6.59829 -6.97912,7.34203 -6.200532,8.01043 -5.358318,8.59662 -4.461119,9.094614 -3.518145,9.499274 -2.539068,9.80646 -1.533938,10.01302 L -100,-56 l 0.513068,10.116832 1.533938,10.01302 2.539068,9.80646 3.518145,9.499274 4.461119,9.0946103 5.358318,8.5966252 6.200532,8.0104268 6.97912,7.3420307 7.686094,6.598295 8.314197,5.786852 8.856986,4.916028 9.30889,3.994759 9.665272,3.032499 9.922475,2.03912 10.0778611,1.024819 H 5.0649169 l 10.0778611,-1.024819 9.922475,-2.03912 9.665272,-3.032499 9.30889,-3.994759 8.856986,-4.916028 8.314197,-5.786852 7.686094,-6.598295 6.97912,-7.3420307 6.200532,-8.0104268 5.358318,-8.5966252 4.461119,-9.0946103 3.518145,-9.499274 2.539068,-9.80646 1.533938,-10.01302 L 100,-56"
       style="fill:#ffffff;stroke:#191919;stroke-width:0.34999999;stroke-miterlimit:4;stroke-dasharray:none"
       id="path100"
       inkscape:connector-curvature="0" />
    <path
       d="m 100,-56 -0.513068,-10.116832 -1.533938,-10.01302 -2.539068,-9.80646 -3.518145,-9.499274 -4.461119,-9.094614 -5.358318,-8.59662 -6.200532,-8.01043 -6.97912,-7.34203 -7.686094,-6.59829 -8.314197,-5.78686 -8.856986,-4.91602 -9.30889,-3.99476 -9.665272,-3.0325 -9.922475,-2.03912 -10.0778611,-1.02482 H -5.0649169 l -10.0778611,1.02482 -9.922475,2.03912 -9.665272,3.0325 -9.30889,3.99476 -8.856986,4.91602 -8.314197,5.78686 -7.686094,6.59829 -6.97912,7.34203 -6.200532,8.01043 -5.358318,8.59662 -4.461119,9.094614 -3.518145,9.499274 -2.539068,9.80646 -1.533938,10.01302 L -100,-56 l 0.513068,10.116832 1.533938,10.01302 2.539068,9.80646 3.518145,9.499274 4.461119,9.0946103 5.358318,8.5966252 6.200532,8.0104268 6.97912,7.3420307 7.686094,6.598295 8.314197,5.786852 8.856986,4.916028 9.30889,3.994759 9.665272,3.032499 9.922475,2.03912 10.0778611,1.024819 H 5.0649169 l 10.0778611,-1.024819 9.922475,-2.03912 9.665272,-3.032499 9.30889,-3.994759 8.856986,-4.916028 8.314197,-5.786852 7.686094,-6.598295 6.97912,-7.3420307 6.200532,-8.0104268 5.358318,-8.5966252 4.461119,-9.0946103 3.518145,-9.499274 2.539068,-9.80646 1.533938,-10.01302 L 100,-56"
       style="fill:#ffffff;stroke:#191919;stroke-width:0.34999999;stroke-miterlimit:4;stroke-dasharray:none"
       id="path102"
       inkscape:connector-curvature="0" />
    <path
       d="m 100,-56 -0.513068,-10.116832 -1.533938,-10.01302 -2.539068,-9.80646 -3.518145,-9.499274 -4.461119,-9.094614 -5.358318,-8.59662 -6.200532,-8.01043 -6.97912,-7.34203 -7.686094,-6.59829 -8.314197,-5.78686 -8.856986,-4.91602 -9.30889,-3.99476 -9.665272,-3.0325 -9.922475,-2.03912 -10.0778611,-1.02482 H -5.0649169 l -10.0778611,1.02482 -9.922475,2.03912 -9.665272,3.0325 -9.30889,3.99476 -8.856986,4.91602 -8.314197,5.78686 -7.686094,6.59829 -6.97912,7.34203 -6.200532,8.01043 -5.358318,8.59662 -4.461119,9.094614 -3.518145,9.499274 -2.539068,9.80646 -1.533938,10.01302 L -100,-56 l 0.513068,10.116832 1.533938,10.01302 2.539068,9.80646 3.518145,9.499274 4.461119,9.0946103 5.358318,8.5966252 6.200532,8.0104268 6.97912,7.3420307 7.686094,6.598295 8.314197,5.786852 8.856986,4.916028 9.30889,3.994759 9.665272,3.032499 9.922475,2.03912 10.0778611,1.024819 H 5.0649169 l 10.0778611,-1.024819 9.922475,-2.03912 9.665272,-3.032499 9.30889,-3.994759 8.856986,-4.916028 8.314197,-5.786852 7.686094,-6.598295 6.97912,-7.3420307 6.200532,-8.0104268 5.358318,-8.5966252 4.461119,-9.0946103 3.518145,-9.499274 2.539068,-9.80646 1.533938,-10.01302 L 100,-56"
       style="fill:#ffffff;stroke:#191919;stroke-width:0.34999999;stroke-miterlimit:4;stroke-dasharray:none"
       id="path104"
       inkscape:connector-curvature="0" />
    <path
       id="Cut065_f0003"
       d="m 10,-6 v 0 h 38.5 m 0,0 H 38.299464 10 Z"
       style="fill:#ffffff;fill-opacity:1;fill-rule:evenodd;stroke:#191919;stroke-width:0.34999999;stroke-miterlimit:4;stroke-dasharray:none"
       inkscape:connector-curvature="0" />
    <path
       id="Cut065_f0004"
       d="m 10,-6 v -100 0 z"
       style="fill:#ffffff;fill-opacity:1;fill-rule:evenodd;stroke:#191919;stroke-width:0.34999999;stroke-miterlimit:4;stroke-dasharray:none"
       inkscape:connector-curvature="0" />
    <path
       id="Cut065_f0005"
       d="m 10,-106 h 28.299464 m 0,0 H 48.5 10 v 0 z"
       style="fill:#ffffff;fill-opacity:1;fill-rule:evenodd;stroke:#191919;stroke-width:0.34999999;stroke-miterlimit:4;stroke-dasharray:none"
       inkscape:connector-curvature="0" />
    <path
       id="Cut065_f0007"
       d="m -36.299464,-112 m 0,0 H -46.5 h 95 m 0,0 H 38.299464 -36.299464 Z"
       style="fill:#ffffff;fill-opacity:1;fill-rule:evenodd;stroke:#191919;stroke-width:0.34999999;stroke-miterlimit:4;stroke-dasharray:none"
       inkscape:connector-curvature="0" />
    <path
       id="Cut065_f0009"
       d="m -36.299464,-106 m 0,0 H -46.5 -10 v 0 z"
       style="fill:#ffffff;fill-opacity:1;fill-rule:evenodd;stroke:#191919;stroke-width:0.34999999;stroke-miterlimit:4;stroke-dasharray:none"
       inkscape:connector-curvature="0" />
    <path
       id="Cut065_f0010"
       d="m -10,-6 v 0 -100 0 z"
       style="fill:#ffffff;fill-opacity:1;fill-rule:evenodd;stroke:#191919;stroke-width:0.34999999;stroke-miterlimit:4;stroke-dasharray:none"
       inkscape:connector-curvature="0" />
    <path
       id="Cut065_f0011"
       d="m -10,-6 h -36.5 m 0,0 H -36.299464 -10 v 0 z"
       style="fill:#ffffff;fill-opacity:1;fill-rule:evenodd;stroke:#191919;stroke-width:0.34999999;stroke-miterlimit:4;stroke-dasharray:none"
       inkscape:connector-curvature="0" />
    <path
       id="Cut065_f0013"
       d="m -36.299464,0 h 74.598928 m 0,0 H 48.5 h -95 m 0,0 h 10.200536 z"
       style="fill:#ffffff;fill-opacity:1;fill-rule:evenodd;stroke:#191919;stroke-width:0.34999999;stroke-miterlimit:4;stroke-dasharray:none"
       inkscape:connector-curvature="0" />
    <path
       id="Cut065_f0018"
       d="m 2,-6 v 0 c 0,-51.566839 0,-51.566839 0,0 z"
       style="fill:#ffffff;fill-opacity:1;fill-rule:evenodd;stroke:#191919;stroke-width:0.34999999;stroke-miterlimit:4;stroke-dasharray:none"
       inkscape:connector-curvature="0"
       sodipodi:nodetypes="ccc" />
    <title
       id="title141">b'Drive_Disk'</title>
  </g>
  <path
     style="fill:none;stroke:#000000;stroke-width:0.26458332px;stroke-linecap:butt;stroke-linejoin:miter;stroke-opacity:1"
     d="M 52.533706,59.108033 V 53.108032"
     id="path152"
     inkscape:connector-curvature="0" />
  <path
     style="fill:none;stroke:#000000;stroke-width:0.26458332px;stroke-linecap:butt;stroke-linejoin:miter;stroke-opacity:1"
     d="m 147.5337,53.108032 v 6.000001"
     id="path154"
     inkscape:connector-curvature="0" />
  <path
     style="fill:none;stroke:#000000;stroke-width:0.26458332px;stroke-linecap:butt;stroke-linejoin:miter;stroke-opacity:1"
     d="m 147.5337,165.10803 v -6"
     id="path156"
     inkscape:connector-curvature="0" />
  <path
     style="fill:none;stroke:#000000;stroke-width:0.26458332px;stroke-linecap:butt;stroke-linejoin:miter;stroke-opacity:1"
     d="m 52.533706,159.10803 v 6"
     id="path158"
     inkscape:connector-curvature="0" />
  <path
     style="fill:none;stroke:#000000;stroke-linecap:butt;stroke-linejoin:miter;stroke-opacity:1"
     d="M 0,0 0,0"
     id="path3865"
     inkscape:connector-curvature="0" />
</svg>
