  0
SECTION
  2
HEADER
  9
$ACADVER
  1
AC1009
  9
$INSBASE
 10
0.0
 20
0.0
 30
0.0
  9
$EXTMIN
 10
0.0
 20
0.0
 30
0.0
  9
$EXTMAX
 10
0.0
 20
0.0
 30
0.0
  0
ENDSEC
  0
SECTION
  2
TABLES
  0
TABLE
  2
VPORT
 70
0
  0
ENDTAB
  0
TABLE
  2
LTYPE
 70
1
  0
LTYPE
  2
CONTINUOUS
 70
0
  3
Solid line
 72
65
 73
0
 40
0.0
  0
ENDTAB
  0
TABLE
  2
LAYER
 70
1
  0
LAYER
  2
0
 70
64
 62
7
  6
continuous
  0
ENDTAB
  0
TABLE
  2
STYLE
 70
1
  0
STYLE
  2
STANDARD
 70
0
 40
0
 41
1.0
 50
0.0
 71
0
 42
1
 3
ARIAL.TTF
 4

  0
ENDTAB
  0
TABLE
  2
VIEW
 70
0
  0
ENDTAB
  0
ENDSEC
  0
SECTION
  2
BLOCKS
  0
BLOCK
  8
0
  2
CUT056
 70
0
 10
0.0
 20
0.0
 30
0.0
  3
CUT056
  0
POLYLINE
  8
0
 62
0
 70
0
 66
1
 10
0.0
 20
0.0
 30
0.0
  0
VERTEX
  8
0
 10
-86.5
 20
106.0
 30
0.0
  0
VERTEX
  8
0
 10
-85.6325057614911
 20
106.0
 30
0.0
  0
VERTEX
  8
0
 10
-84.76501152298219
 20
106.0
 30
0.0
  0
VERTEX
  8
0
 10
-83.05177293769404
 20
106.0
 30
0.0
  0
VERTEX
  8
0
 10
-80.49279000562665
 20
106.0
 30
0.0
  0
VERTEX
  8
0
 10
-77.93380707355925
 20
106.0
 30
0.0
  0
VERTEX
  8
0
 10
-73.81165353752938
 20
106.0
 30
0.0
  0
VERTEX
  8
0
 10
-69.68950000149951
 20
106.0
 30
0.0
  0
VERTEX
  8
0
 10
-64.88911215894376
 20
106.0
 30
0.0
  0
VERTEX
  8
0
 10
-59.41049000986211
 20
106.0
 30
0.0
  0
VERTEX
  8
0
 10
-53.93186786078046
 20
106.0
 30
0.0
  0
VERTEX
  8
0
 10
-47.37149808993579
 20
106.0
 30
0.0
  0
VERTEX
  8
0
 10
-40.811128319091125
 20
106.0
 30
0.0
  0
VERTEX
  8
0
 10
-33.87436690437927
 20
106.0
 30
0.0
  0
VERTEX
  8
0
 10
-26.56121384580024
 20
106.0
 30
0.0
  0
VERTEX
  8
0
 10
-19.248060787221206
 20
106.0
 30
0.0
  0
VERTEX
  8
0
 10
-11.548836472332727
 20
106.0
 30
0.0
  0
VERTEX
  8
0
 10
-3.8496121574442466
 20
106.0
 30
0.0
  0
VERTEX
  8
0
 10
3.8496121574442292
 20
106.0
 30
0.0
  0
VERTEX
  8
0
 10
11.548836472332708
 20
106.0
 30
0.0
  0
VERTEX
  8
0
 10
19.248060787221185
 20
106.0
 30
0.0
  0
VERTEX
  8
0
 10
26.561213845800218
 20
106.0
 30
0.0
  0
VERTEX
  8
0
 10
33.87436690437925
 20
106.0
 30
0.0
  0
VERTEX
  8
0
 10
40.811128319091104
 20
106.0
 30
0.0
  0
VERTEX
  8
0
 10
47.37149808993577
 20
106.0
 30
0.0
  0
VERTEX
  8
0
 10
53.931867860780436
 20
106.0
 30
0.0
  0
VERTEX
  8
0
 10
59.41049000986209
 20
106.0
 30
0.0
  0
VERTEX
  8
0
 10
64.88911215894375
 20
106.0
 30
0.0
  0
VERTEX
  8
0
 10
69.68950000149951
 20
106.0
 30
0.0
  0
VERTEX
  8
0
 10
73.81165353752938
 20
106.0
 30
0.0
  0
VERTEX
  8
0
 10
77.93380707355925
 20
106.0
 30
0.0
  0
VERTEX
  8
0
 10
80.49279000562665
 20
106.0
 30
0.0
  0
VERTEX
  8
0
 10
83.05177293769404
 20
106.0
 30
0.0
  0
VERTEX
  8
0
 10
84.76501152298219
 20
106.0
 30
0.0
  0
VERTEX
  8
0
 10
85.6325057614911
 20
106.0
 30
0.0
  0
VERTEX
  8
0
 10
86.5
 20
106.0
 30
0.0
  0
SEQEND
  8
0
  0
POLYLINE
  8
0
 62
0
 70
0
 66
1
 10
0.0
 20
0.0
 30
0.0
  0
VERTEX
  8
0
 10
-86.5
 20
103.0
 30
0.0
  0
VERTEX
  8
0
 10
-85.6325057614911
 20
103.0
 30
0.0
  0
VERTEX
  8
0
 10
-84.76501152298219
 20
103.0
 30
0.0
  0
VERTEX
  8
0
 10
-83.05177293769404
 20
103.0
 30
0.0
  0
VERTEX
  8
0
 10
-80.49279000562665
 20
103.0
 30
0.0
  0
VERTEX
  8
0
 10
-77.93380707355925
 20
103.0
 30
0.0
  0
VERTEX
  8
0
 10
-73.81165353752938
 20
103.0
 30
0.0
  0
VERTEX
  8
0
 10
-69.68950000149951
 20
103.0
 30
0.0
  0
VERTEX
  8
0
 10
-64.88911215894376
 20
103.0
 30
0.0
  0
VERTEX
  8
0
 10
-59.41049000986211
 20
103.0
 30
0.0
  0
VERTEX
  8
0
 10
-53.93186786078046
 20
103.0
 30
0.0
  0
VERTEX
  8
0
 10
-47.37149808993579
 20
103.0
 30
0.0
  0
VERTEX
  8
0
 10
-40.811128319091125
 20
103.0
 30
0.0
  0
VERTEX
  8
0
 10
-33.87436690437927
 20
103.0
 30
0.0
  0
VERTEX
  8
0
 10
-26.56121384580024
 20
103.0
 30
0.0
  0
VERTEX
  8
0
 10
-19.248060787221206
 20
103.0
 30
0.0
  0
VERTEX
  8
0
 10
-11.548836472332727
 20
103.0
 30
0.0
  0
VERTEX
  8
0
 10
-3.8496121574442466
 20
103.0
 30
0.0
  0
VERTEX
  8
0
 10
3.8496121574442292
 20
103.0
 30
0.0
  0
VERTEX
  8
0
 10
11.548836472332708
 20
103.0
 30
0.0
  0
VERTEX
  8
0
 10
19.248060787221185
 20
103.0
 30
0.0
  0
VERTEX
  8
0
 10
26.561213845800218
 20
103.0
 30
0.0
  0
VERTEX
  8
0
 10
33.87436690437925
 20
103.0
 30
0.0
  0
VERTEX
  8
0
 10
40.811128319091104
 20
103.0
 30
0.0
  0
VERTEX
  8
0
 10
47.37149808993577
 20
103.0
 30
0.0
  0
VERTEX
  8
0
 10
53.931867860780436
 20
103.0
 30
0.0
  0
VERTEX
  8
0
 10
59.41049000986209
 20
103.0
 30
0.0
  0
VERTEX
  8
0
 10
64.88911215894375
 20
103.0
 30
0.0
  0
VERTEX
  8
0
 10
69.68950000149951
 20
103.0
 30
0.0
  0
VERTEX
  8
0
 10
73.81165353752938
 20
103.0
 30
0.0
  0
VERTEX
  8
0
 10
77.93380707355925
 20
103.0
 30
0.0
  0
VERTEX
  8
0
 10
80.49279000562665
 20
103.0
 30
0.0
  0
VERTEX
  8
0
 10
83.05177293769404
 20
103.0
 30
0.0
  0
VERTEX
  8
0
 10
84.76501152298219
 20
103.0
 30
0.0
  0
VERTEX
  8
0
 10
85.6325057614911
 20
103.0
 30
0.0
  0
VERTEX
  8
0
 10
86.5
 20
103.0
 30
0.0
  0
SEQEND
  8
0
  0
LINE
  8
0
 62
0
 10
86.5
 20
103.0
 30
0.0
 11
86.5
 21
106.0
 31
0.0
  0
LINE
  8
0
 62
0
 10
-86.5
 20
103.0
 30
0.0
 11
-86.5
 21
106.0
 31
0.0
  0
ENDBLK
  0
ENDSEC
  0
SECTION
  2
ENTITIES
  0
INSERT
  2
CUT056
  8
0
 62
0
 10
0.0
 20
0.0
 30
0.0
  0
ENDSEC
  0
EOF
