<?xml version="1.0"?>
<!DOCTYPE svg PUBLIC "-//W3C//DTD SVG 1.1//EN" "http://www.w3.org/Graphics/SVG/1.1/DTD/svg11.dtd">
<svg width="175.857299635957mm" height="12.448182345803204mm" viewBox="0 0 175.857299635957 12.448182345803204" xmlns="http://www.w3.org/2000/svg" version="1.1">
<g id="Cut063" transform="translate(87.928650,95.724091) scale(1,-1)">
<path id="Cut063_f0000"  d="M -4.9534829915431775e-14 93.99999999999997 M -7.072121954068099e-14 93.99999999999997 L -10.042037071832484 93.99999999999996 L -19.948272819221142 93.99999999999996 L -29.58474239767041 93.99999999999996 L -38.82112908734005 93.99999999999996 L -47.53252660312479 93.99999999999994 L -55.60112823788571 93.99999999999994 L -62.91781999606877 93.99999999999994 L -69.38365617331134 93.99999999999994 L -74.91119742735398 93.99999999999994 L -79.42569324514375 93.99999999999996 L -82.86609281528983 93.99999999999996 L -85.18587063555603 93.99999999999996 L -86.35365569046472 93.99999999999996 L -86.35365569046472 93.99999999999997 L -85.18587063555603 93.99999999999997 L -82.8660928152898 93.99999999999997 L -79.42569324514372 93.99999999999997 L -74.91119742735397 93.99999999999999 L -69.38365617331131 93.99999999999999 L -62.917819996068744 94.0 L -55.601128237885675 94.0 L -47.53252660312474 94.0 L -38.82112908733999 94.00000000000001 L -29.584742397670354 94.00000000000001 L -19.948272819221078 94.00000000000003 L -10.042037071832421 94.00000000000003 L -4.486981049244752e-15 94.00000000000003 L 10.04203707183241 94.00000000000004 L 19.948272819221113 94.00000000000004 L 29.584742397670343 94.00000000000004 L 38.821129087339976 94.00000000000004 L 47.53252660312468 94.00000000000006 L 55.60112823788564 94.00000000000006 L 62.9178199960687 94.00000000000006 L 69.38365617331128 94.00000000000006 L 74.91119742735391 94.00000000000006 L 79.42569324514369 94.00000000000004 L 82.86609281528976 94.00000000000004 L 85.18587063555597 94.00000000000004 L 86.35365569046466 94.00000000000004 L 86.35365569046466 94.00000000000003 L 85.18587063555597 94.00000000000003 L 82.86609281528975 94.00000000000003 L 79.42569324514366 94.00000000000003 L 74.9111974273539 94.00000000000001 L 69.38365617331125 94.00000000000001 L 62.91781999606869 94.0 L 55.60112823788561 94.0 L 47.53252660312464 94.0 L 38.821129087339926 93.99999999999999 L 29.584742397670333 93.99999999999999 L 19.948272819221028 93.99999999999997 L 10.04203707183233 93.99999999999997 L -4.9534829915431775e-14 93.99999999999997 L -4.5538027026781206e-14 84.99999999999997 M -6.672441665203042e-14 84.99999999999997 L -10.04203707183248 84.99999999999996 L -19.94827281922114 84.99999999999996 L -29.584742397670407 84.99999999999996 L -38.82112908734004 84.99999999999996 L -47.532526603124786 84.99999999999996 L -55.6011282378857 84.99999999999994 L -62.917819996068765 84.99999999999994 L -69.38365617331134 84.99999999999994 L -74.91119742735398 84.99999999999994 L -79.42569324514375 84.99999999999996 L -82.86609281528983 84.99999999999996 L -85.18587063555603 84.99999999999996 L -86.35365569046472 84.99999999999996 L -86.35365569046472 84.99999999999996 L -85.18587063555603 84.99999999999997 L -82.8660928152898 84.99999999999997 L -79.42569324514372 84.99999999999997 L -74.91119742735397 84.99999999999999 L -69.38365617331131 84.99999999999999 L -62.91781999606874 85.0 L -55.60112823788567 85.0 L -47.53252660312473 85.0 L -38.82112908733998 85.00000000000001 L -29.58474239767035 85.00000000000001 L -19.948272819221074 85.00000000000003 L -10.042037071832418 85.00000000000003 L -4.901781605941881e-16 85.00000000000003 L 10.042037071832414 85.00000000000004 L 19.948272819221117 85.00000000000004 L 29.584742397670347 85.00000000000004 L 38.82112908733998 85.00000000000004 L 47.53252660312469 85.00000000000004 L 55.601128237885646 85.00000000000006 L 62.91781999606871 85.00000000000006 L 69.38365617331128 85.00000000000006 L 74.91119742735391 85.00000000000006 L 79.42569324514369 85.00000000000004 L 82.86609281528976 85.00000000000004 L 85.18587063555597 85.00000000000004 L 86.35365569046466 85.00000000000004 L 86.35365569046466 85.00000000000004 L 85.18587063555597 85.00000000000003 L 82.86609281528975 85.00000000000003 L 79.42569324514366 85.00000000000003 L 74.9111974273539 85.00000000000001 L 69.38365617331125 85.00000000000001 L 62.917819996068694 85.0 L 55.60112823788562 85.0 L 47.532526603124644 85.0 L 38.82112908733993 84.99999999999999 L 29.584742397670336 84.99999999999999 L 19.94827281922103 84.99999999999997 L 10.042037071832334 84.99999999999997 L -4.5538027026781206e-14 84.99999999999997 Z " stroke="#191919" stroke-width="0.35 px" style="stroke-width:0.35;stroke-miterlimit:4;stroke-dasharray:none;fill:#cccccc;fill-opacity:1.0;fill-rule: evenodd "/>
<path id="Cut063_f0001"  d="M -4.9534829915431775e-14 93.99999999999997 M -7.072121954068099e-14 93.99999999999997 L -10.042037071832484 93.99999999999996 L -19.948272819221142 93.99999999999996 L -29.58474239767041 93.99999999999996 L -38.82112908734005 93.99999999999996 L -47.53252660312479 93.99999999999994 L -55.60112823788571 93.99999999999994 L -62.91781999606877 93.99999999999994 L -69.38365617331134 93.99999999999994 L -74.91119742735398 93.99999999999994 L -79.42569324514375 93.99999999999996 L -82.86609281528983 93.99999999999996 L -85.18587063555603 93.99999999999996 L -86.35365569046472 93.99999999999996 L -86.35365569046472 93.99999999999997 L -85.18587063555603 93.99999999999997 L -82.8660928152898 93.99999999999997 L -79.42569324514372 93.99999999999997 L -74.91119742735397 93.99999999999999 L -69.38365617331131 93.99999999999999 L -62.917819996068744 94.0 L -55.601128237885675 94.0 L -47.53252660312474 94.0 L -38.82112908733999 94.00000000000001 L -29.584742397670354 94.00000000000001 L -19.948272819221078 94.00000000000003 L -10.042037071832421 94.00000000000003 L -4.486981049244752e-15 94.00000000000003 L 10.04203707183241 94.00000000000004 L 19.948272819221113 94.00000000000004 L 29.584742397670343 94.00000000000004 L 38.821129087339976 94.00000000000004 L 47.53252660312468 94.00000000000006 L 55.60112823788564 94.00000000000006 L 62.9178199960687 94.00000000000006 L 69.38365617331128 94.00000000000006 L 74.91119742735391 94.00000000000006 L 79.42569324514369 94.00000000000004 L 82.86609281528976 94.00000000000004 L 85.18587063555597 94.00000000000004 L 86.35365569046466 94.00000000000004 L 86.35365569046466 94.00000000000003 L 85.18587063555597 94.00000000000003 L 82.86609281528975 94.00000000000003 L 79.42569324514366 94.00000000000003 L 74.9111974273539 94.00000000000001 L 69.38365617331125 94.00000000000001 L 62.91781999606869 94.0 L 55.60112823788561 94.0 L 47.53252660312464 94.0 L 38.821129087339926 93.99999999999999 L 29.584742397670333 93.99999999999999 L 19.948272819221028 93.99999999999997 L 10.04203707183233 93.99999999999997 L -4.9534829915431775e-14 93.99999999999997 Z M 22.0 93.99999999999999 L -22.0 93.99999999999997 L -22.0 93.99999999999999 L 22.0 94.00000000000003 L 22.0 94.0 Z " stroke="#191919" stroke-width="0.35 px" style="stroke-width:0.35;stroke-miterlimit:4;stroke-dasharray:none;fill:#cccccc;fill-opacity:1.0;fill-rule: evenodd "/>
<path id="Cut063_f0002"  d="M -4.5538027026781206e-14 84.99999999999997 M -6.672441665203042e-14 84.99999999999997 L -10.04203707183248 84.99999999999996 L -19.94827281922114 84.99999999999996 L -29.584742397670407 84.99999999999996 L -38.82112908734004 84.99999999999996 L -47.532526603124786 84.99999999999996 L -55.6011282378857 84.99999999999994 L -62.917819996068765 84.99999999999994 L -69.38365617331134 84.99999999999994 L -74.91119742735398 84.99999999999994 L -79.42569324514375 84.99999999999996 L -82.86609281528983 84.99999999999996 L -85.18587063555603 84.99999999999996 L -86.35365569046472 84.99999999999996 L -86.35365569046472 84.99999999999996 L -85.18587063555603 84.99999999999997 L -82.8660928152898 84.99999999999997 L -79.42569324514372 84.99999999999997 L -74.91119742735397 84.99999999999999 L -69.38365617331131 84.99999999999999 L -62.91781999606874 85.0 L -55.60112823788567 85.0 L -47.53252660312473 85.0 L -38.82112908733998 85.00000000000001 L -29.58474239767035 85.00000000000001 L -19.948272819221074 85.00000000000003 L -10.042037071832418 85.00000000000003 L -4.901781605941881e-16 85.00000000000003 L 10.042037071832414 85.00000000000004 L 19.948272819221117 85.00000000000004 L 29.584742397670347 85.00000000000004 L 38.82112908733998 85.00000000000004 L 47.53252660312469 85.00000000000004 L 55.601128237885646 85.00000000000006 L 62.91781999606871 85.00000000000006 L 69.38365617331128 85.00000000000006 L 74.91119742735391 85.00000000000006 L 79.42569324514369 85.00000000000004 L 82.86609281528976 85.00000000000004 L 85.18587063555597 85.00000000000004 L 86.35365569046466 85.00000000000004 L 86.35365569046466 85.00000000000004 L 85.18587063555597 85.00000000000003 L 82.86609281528975 85.00000000000003 L 79.42569324514366 85.00000000000003 L 74.9111974273539 85.00000000000001 L 69.38365617331125 85.00000000000001 L 62.917819996068694 85.0 L 55.60112823788562 85.0 L 47.532526603124644 85.0 L 38.82112908733993 84.99999999999999 L 29.584742397670336 84.99999999999999 L 19.94827281922103 84.99999999999997 L 10.042037071832334 84.99999999999997 L -4.5538027026781206e-14 84.99999999999997 Z M -33.87107910887997 84.99999999999997 L -33.87107910887997 84.99999999999997 L 33.87107910887991 84.99999999999999 L 33.87107910887991 84.99999999999999 L 22.0 85.0 L 22.0 85.00000000000001 L 33.87107910887983 85.00000000000003 L 33.87107910887983 85.00000000000003 L -33.871079108879876 85.0 L -33.87107910887989 85.0 L -22.0 85.0 L -22.0 84.99999999999997 L -33.871079108879975 84.99999999999997 Z " stroke="#191919" stroke-width="0.35 px" style="stroke-width:0.35;stroke-miterlimit:4;stroke-dasharray:none;fill:#cccccc;fill-opacity:1.0;fill-rule: evenodd "/>
<path id="Cut063_f0003"  d="M 21.999999999999424 88.81582066276285 A 91.5 91.5 0 0 1 -22 88.8158L -22.0 94.0 L 22.0 94.00000000000003 L 22.0 88.81582066276285 Z " stroke="#191919" stroke-width="0.35 px" style="stroke-width:0.35;stroke-miterlimit:4;stroke-dasharray:none;fill:#cccccc;fill-opacity:1.0;fill-rule: evenodd "/>
<path id="Cut063_f0004"  d="M 21.999999999999424 88.81582066276285 L 22.0 94.0 L 22.0 94.00000000000001 L 22.0 88.81582066276285 L 22.0 85.00000000000003 L 22.0 85.0 L 21.999999999999424 88.81582066276285 Z " stroke="#191919" stroke-width="0.35 px" style="stroke-width:0.35;stroke-miterlimit:4;stroke-dasharray:none;fill:#cccccc;fill-opacity:1.0;fill-rule: evenodd "/>
<path id="Cut063_f0005"  d="M 22.0 94.0 L 22.0 88.81582066276285 A 91.5 91.5 0 0 1 -22 88.8158L -22.0 93.99999999999997 L 22.0 94.0 Z " stroke="#191919" stroke-width="0.35 px" style="stroke-width:0.35;stroke-miterlimit:4;stroke-dasharray:none;fill:#cccccc;fill-opacity:1.0;fill-rule: evenodd "/>
<path id="Cut063_f0006"  d="M -22.0 94.0 L -22.0 93.99999999999997 L -22.0 88.8158206627622 L -22.0 84.99999999999997 L -22.0 84.99999999999999 L -22.0000000000007 88.8158206627622 L -22.0 94.0 Z " stroke="#191919" stroke-width="0.35 px" style="stroke-width:0.35;stroke-miterlimit:4;stroke-dasharray:none;fill:#cccccc;fill-opacity:1.0;fill-rule: evenodd "/>
<path id="Cut063_f0007"  d="M -22.0 85.0 L -22.0000000000007 88.8158206627622 A 91.5 91.5 0 0 1 -33.8711 85L -22.0 85.0 Z " stroke="#191919" stroke-width="0.35 px" style="stroke-width:0.35;stroke-miterlimit:4;stroke-dasharray:none;fill:#cccccc;fill-opacity:1.0;fill-rule: evenodd "/>
<path id="Cut063_f0008"  d="M 33.87107910887983 85.00000000000003 L 33.87107910887983 85.00000000000003 A 91.5 91.5 0 0 1 -33.8711 85L -33.87107910887989 85.0 A 91.5 91.5 0 0 0 -22 88.8158A 91.5 91.5 0 0 0 22 88.8158A 91.5 91.5 0 0 0 33.8711 85Z " stroke="#191919" stroke-width="0.35 px" style="stroke-width:0.35;stroke-miterlimit:4;stroke-dasharray:none;fill:#cccccc;fill-opacity:1.0;fill-rule: evenodd "/>
<path id="Cut063_f0009"  d="M 33.87107910887983 85.00000000000003 A 91.5 91.5 0 0 1 -33.8711 85L 33.87107910887983 85.00000000000003 Z " stroke="#191919" stroke-width="0.35 px" style="stroke-width:0.35;stroke-miterlimit:4;stroke-dasharray:none;fill:#cccccc;fill-opacity:1.0;fill-rule: evenodd "/>
<path id="Cut063_f0010"  d="M 22.0 85.00000000000003 L 33.87107910887983 85.00000000000003 A 91.5 91.5 0 0 1 22 88.8158L 22.0 85.00000000000003 Z " stroke="#191919" stroke-width="0.35 px" style="stroke-width:0.35;stroke-miterlimit:4;stroke-dasharray:none;fill:#cccccc;fill-opacity:1.0;fill-rule: evenodd "/>
<path id="Cut063_f0011"  d="M 22.0 85.0 L 33.87107910887991 84.99999999999999 A 91.5 91.5 0 0 1 22 88.8158L 22.0 85.0 Z " stroke="#191919" stroke-width="0.35 px" style="stroke-width:0.35;stroke-miterlimit:4;stroke-dasharray:none;fill:#cccccc;fill-opacity:1.0;fill-rule: evenodd "/>
<path id="Cut063_f0012"  d="M 33.87107910887991 84.99999999999999 L 33.87107910887991 84.99999999999999 A 91.5 91.5 0 0 1 22 88.8158A 91.5 91.5 0 0 1 -22 88.8158A 91.5 91.5 0 0 1 -33.8711 85L -33.87107910887997 84.99999999999997 A 91.5 91.5 0 0 0 33.8711 85Z " stroke="#191919" stroke-width="0.35 px" style="stroke-width:0.35;stroke-miterlimit:4;stroke-dasharray:none;fill:#cccccc;fill-opacity:1.0;fill-rule: evenodd "/>
<path id="Cut063_f0013"  d="M -33.871079108879975 84.99999999999997 L 33.87107910887991 84.99999999999999 A 91.5 91.5 0 0 1 -33.8711 85Z " stroke="#191919" stroke-width="0.35 px" style="stroke-width:0.35;stroke-miterlimit:4;stroke-dasharray:none;fill:#cccccc;fill-opacity:1.0;fill-rule: evenodd "/>
<path id="Cut063_f0014"  d="M -22.0 84.99999999999997 L -22.0000000000007 88.8158206627622 A 91.5 91.5 0 0 1 -33.8711 85L -22.0 84.99999999999997 Z " stroke="#191919" stroke-width="0.35 px" style="stroke-width:0.35;stroke-miterlimit:4;stroke-dasharray:none;fill:#cccccc;fill-opacity:1.0;fill-rule: evenodd "/>
<title>b'Drive_Disk'</title>
</g>
</svg>