<?xml version="1.0" encoding="UTF-8" standalone="no"?>
<svg
   xmlns:dc="http://purl.org/dc/elements/1.1/"
   xmlns:cc="http://creativecommons.org/ns#"
   xmlns:rdf="http://www.w3.org/1999/02/22-rdf-syntax-ns#"
   xmlns:svg="http://www.w3.org/2000/svg"
   xmlns="http://www.w3.org/2000/svg"
   xmlns:sodipodi="http://sodipodi.sourceforge.net/DTD/sodipodi-0.dtd"
   xmlns:inkscape="http://www.inkscape.org/namespaces/inkscape"
   width="217.11596638418914mm"
   height="217.18655939200337mm"
   viewBox="0 0 217.11596638418914 217.18655939200337"
   version="1.1"
   id="svg49"
   sodipodi:docname="flatrings_6mm.svg"
   inkscape:version="0.92.5 (2060ec1f9f, 2020-04-08)">
  <metadata
     id="metadata55">
    <rdf:RDF>
      <cc:Work
         rdf:about="">
        <dc:format>image/svg+xml</dc:format>
        <dc:type
           rdf:resource="http://purl.org/dc/dcmitype/StillImage" />
        <dc:title></dc:title>
      </cc:Work>
    </rdf:RDF>
  </metadata>
  <defs
     id="defs53" />
  <sodipodi:namedview
     pagecolor="#ffffff"
     bordercolor="#666666"
     borderopacity="1"
     objecttolerance="10"
     gridtolerance="10"
     guidetolerance="10"
     inkscape:pageopacity="0"
     inkscape:pageshadow="2"
     inkscape:window-width="1920"
     inkscape:window-height="1016"
     id="namedview51"
     showgrid="false"
     inkscape:zoom="1.008695"
     inkscape:cx="410.29789"
     inkscape:cy="410.43128"
     inkscape:window-x="0"
     inkscape:window-y="0"
     inkscape:window-maximized="1"
     inkscape:current-layer="svg49" />
  <g
     id="Cut061"
     transform="translate(108.487378,108.593280) scale(1,-1)"
     style="fill:#ffffff">
    <path
       style="fill:#ffffff;stroke:#191919;stroke-width:0.34999999;stroke-miterlimit:4;stroke-dasharray:none"
       d="M 106.5,0 A 106.5,106.5 0 0 1 0,106.5 106.5,106.5 0 0 1 -106.5,0 106.5,106.5 0 0 1 0,-106.5 106.5,106.5 0 0 1 106.5,0 Z"
       id="circle10" />
    <path
       style="fill:#ffffff;stroke:#191919;stroke-width:0.34999999;stroke-miterlimit:4;stroke-dasharray:none"
       d="M 106.5,0 A 106.5,106.5 0 0 1 0,106.5 106.5,106.5 0 0 1 -106.5,0 106.5,106.5 0 0 1 0,-106.5 106.5,106.5 0 0 1 106.5,0 Z"
       id="circle12" />
    <path
       style="fill:#ffffff;stroke:#191919;stroke-width:0.34999999;stroke-miterlimit:4;stroke-dasharray:none"
       d="M 106.5,0 A 106.5,106.5 0 0 1 0,106.5 106.5,106.5 0 0 1 -106.5,0 106.5,106.5 0 0 1 0,-106.5 106.5,106.5 0 0 1 106.5,0 Z"
       id="circle14" />
    <path
       id="Cut061_f0003"
       d="M 64.73214039408863 10.0 L 64.73214039408863 10.0 A 65.5 65.5 0 0 1 -23.7058 61.0597L -23.705816159199905 61.059678022621576 A 65.5 65.5 0 0 0 64.7321 10Z "
       stroke="#191919"
       stroke-width="0.35 px"
       style="stroke-width:0.35;stroke-miterlimit:4;stroke-dasharray:none;fill:#ffffff;fill-opacity:1;fill-rule:evenodd" />
    <path
       id="Cut061_f0004"
       d="M -23.705816159199905 61.059678022621576 L -23.705816159199905 61.059678022621576 L -32.83974596215561 76.88010851410846 L -32.839745962155604 76.88010851410844 L -23.705816159199905 61.059678022621576 Z "
       stroke="#191919"
       stroke-width="0.35 px"
       style="stroke-width:0.35;stroke-miterlimit:4;stroke-dasharray:none;fill:#ffffff;fill-opacity:1;fill-rule:evenodd" />
    <path
       id="Cut061_f0005"
       d="M -32.839745962155604 76.88010851410844 L -32.839745962155604 76.88010851410844 L -37.16987298107778 74.38010851410841 L -37.16987298107778 74.38010851410841 L -32.83974596215561 76.88010851410846 Z "
       stroke="#191919"
       stroke-width="0.35 px"
       style="stroke-width:0.35;stroke-miterlimit:4;stroke-dasharray:none;fill:#ffffff;fill-opacity:1;fill-rule:evenodd" />
    <path
       id="Cut061_f0006"
       d="M -39.33493649053891 73.13010851410846 L -37.16987298107781 74.38010851410846 L -37.16987298107778 74.38010851410841 L -39.33493649053889 73.13010851410841 L -39.33493649053889 73.13010851410841 Z "
       stroke="#191919"
       stroke-width="0.35 px"
       style="stroke-width:0.35;stroke-miterlimit:4;stroke-dasharray:none;fill:#ffffff;fill-opacity:1;fill-rule:evenodd" />
    <path
       id="Cut061_f0007"
       d="M -39.33493649053889 73.13010851410841 L -39.33493649053889 73.13010851410841 L -42.33493649053888 78.32626093681505 L -42.33493649053888 78.32626093681505 L -39.33493649053888 73.1301085141084 Z "
       stroke="#191919"
       stroke-width="0.35 px"
       style="stroke-width:0.35;stroke-miterlimit:4;stroke-dasharray:none;fill:#ffffff;fill-opacity:1;fill-rule:evenodd" />
    <path
       id="Cut061_f0008"
       d="M -42.33493649053888 78.32626093681505 L -42.33493649053888 78.32626093681505 L -46.665063509461085 75.82626093681506 L -46.66506350946108 75.82626093681505 L -42.33493649053888 78.32626093681505 Z "
       stroke="#191919"
       stroke-width="0.35 px"
       style="stroke-width:0.35;stroke-miterlimit:4;stroke-dasharray:none;fill:#ffffff;fill-opacity:1;fill-rule:evenodd" />
    <path
       id="Cut061_f0009"
       d="M -43.66506350946108 70.63010851410841 L -46.66506350946108 75.82626093681505 L -46.66506350946108 75.82626093681505 L -43.66506350946108 70.63010851410841 L -43.66506350946108 70.63010851410841 Z "
       stroke="#191919"
       stroke-width="0.35 px"
       style="stroke-width:0.35;stroke-miterlimit:4;stroke-dasharray:none;fill:#ffffff;fill-opacity:1;fill-rule:evenodd" />
    <path
       id="Cut061_f0010"
       d="M -45.8301270189222 69.38010851410846 L -43.665063509461106 70.63010851410846 L -43.66506350946108 70.63010851410841 L -45.83012701892217 69.38010851410841 L -45.83012701892217 69.38010851410841 Z "
       stroke="#191919"
       stroke-width="0.35 px"
       style="stroke-width:0.35;stroke-miterlimit:4;stroke-dasharray:none;fill:#ffffff;fill-opacity:1;fill-rule:evenodd" />
    <path
       id="Cut061_f0011"
       d="M -45.83012701892217 69.38010851410841 L -50.160254037844396 66.88010851410844 L -50.160254037844396 66.88010851410844 L -45.8301270189222 69.38010851410846 L -45.83012701892217 69.38010851410841 Z "
       stroke="#191919"
       stroke-width="0.35 px"
       style="stroke-width:0.35;stroke-miterlimit:4;stroke-dasharray:none;fill:#ffffff;fill-opacity:1;fill-rule:evenodd" />
    <path
       id="Cut061_f0012"
       d="M -41.02632423488869 51.05967802262158 L -50.160254037844396 66.88010851410846 L -50.160254037844396 66.88010851410844 L -41.0263242348887 51.059678022621576 L -41.0263242348887 51.059678022621576 Z "
       stroke="#191919"
       stroke-width="0.35 px"
       style="stroke-width:0.35;stroke-miterlimit:4;stroke-dasharray:none;fill:#ffffff;fill-opacity:1;fill-rule:evenodd" />
    <path
       id="Cut061_f0013"
       d="M -41.0263242348887 51.059678022621576 L -41.0263242348887 51.059678022621576 A 65.5 65.5 0 0 1 -41.0263 -51.0597L -41.02632423488871 -51.059678022621554 A 65.5 65.5 0 0 0 -41.0263 51.0597Z "
       stroke="#191919"
       stroke-width="0.35 px"
       style="stroke-width:0.35;stroke-miterlimit:4;stroke-dasharray:none;fill:#ffffff;fill-opacity:1;fill-rule:evenodd" />
    <path
       id="Cut061_f0014"
       d="M -41.02632423488871 -51.059678022621554 L -41.02632423488871 -51.059678022621554 L -50.160254037844396 -66.88010851410837 L -50.160254037844396 -66.88010851410837 L -41.026324234888754 -51.05967802262153 Z "
       stroke="#191919"
       stroke-width="0.35 px"
       style="stroke-width:0.35;stroke-miterlimit:4;stroke-dasharray:none;fill:#ffffff;fill-opacity:1;fill-rule:evenodd" />
    <path
       id="Cut061_f0015"
       d="M -50.160254037844396 -66.88010851410837 L -50.160254037844396 -66.88010851410837 L -45.83012701892223 -69.38010851410839 L -45.83012701892223 -69.38010851410839 L -50.160254037844396 -66.88010851410837 Z "
       stroke="#191919"
       stroke-width="0.35 px"
       style="stroke-width:0.35;stroke-miterlimit:4;stroke-dasharray:none;fill:#ffffff;fill-opacity:1;fill-rule:evenodd" />
    <path
       id="Cut061_f0016"
       d="M -43.66506350946112 -70.63010851410837 L -45.83012701892222 -69.38010851410837 L -45.83012701892223 -69.38010851410839 L -43.665063509461135 -70.63010851410839 L -43.665063509461135 -70.63010851410839 Z "
       stroke="#191919"
       stroke-width="0.35 px"
       style="stroke-width:0.35;stroke-miterlimit:4;stroke-dasharray:none;fill:#ffffff;fill-opacity:1;fill-rule:evenodd" />
    <path
       id="Cut061_f0017"
       d="M -43.665063509461135 -70.63010851410839 L -43.665063509461135 -70.63010851410839 L -46.665063509461135 -75.82626093681502 L -46.665063509461135 -75.82626093681502 L -43.665063509461135 -70.6301085141084 Z "
       stroke="#191919"
       stroke-width="0.35 px"
       style="stroke-width:0.35;stroke-miterlimit:4;stroke-dasharray:none;fill:#ffffff;fill-opacity:1;fill-rule:evenodd" />
    <path
       id="Cut061_f0018"
       d="M -46.665063509461135 -75.82626093681502 L -46.665063509461135 -75.82626093681502 L -42.33493649053895 -78.32626093681503 L -42.334936490538944 -78.32626093681502 L -46.665063509461135 -75.82626093681502 Z "
       stroke="#191919"
       stroke-width="0.35 px"
       style="stroke-width:0.35;stroke-miterlimit:4;stroke-dasharray:none;fill:#ffffff;fill-opacity:1;fill-rule:evenodd" />
    <path
       id="Cut061_f0019"
       d="M -39.33493649053894 -73.13010851410839 L -42.334936490538944 -78.32626093681502 L -42.334936490538944 -78.32626093681502 L -39.334936490538944 -73.1301085141084 L -39.33493649053894 -73.13010851410839 Z "
       stroke="#191919"
       stroke-width="0.35 px"
       style="stroke-width:0.35;stroke-miterlimit:4;stroke-dasharray:none;fill:#ffffff;fill-opacity:1;fill-rule:evenodd" />
    <path
       id="Cut061_f0020"
       d="M -37.16987298107784 -74.38010851410837 L -39.33493649053893 -73.13010851410837 L -39.33493649053894 -73.13010851410839 L -37.169872981077845 -74.38010851410839 L -37.169872981077845 -74.38010851410839 Z "
       stroke="#191919"
       stroke-width="0.35 px"
       style="stroke-width:0.35;stroke-miterlimit:4;stroke-dasharray:none;fill:#ffffff;fill-opacity:1;fill-rule:evenodd" />
    <path
       id="Cut061_f0021"
       d="M -37.169872981077845 -74.38010851410839 L -32.83974596215563 -76.88010851410837 L -32.83974596215563 -76.88010851410837 L -37.16987298107784 -74.38010851410837 L -37.169872981077845 -74.38010851410839 Z "
       stroke="#191919"
       stroke-width="0.35 px"
       style="stroke-width:0.35;stroke-miterlimit:4;stroke-dasharray:none;fill:#ffffff;fill-opacity:1;fill-rule:evenodd" />
    <path
       id="Cut061_f0022"
       d="M -23.705816159199955 -61.05967802262157 L -32.83974596215563 -76.88010851410837 L -32.83974596215563 -76.88010851410837 L -23.705816159199973 -61.059678022621554 L -23.705816159199973 -61.059678022621554 Z "
       stroke="#191919"
       stroke-width="0.35 px"
       style="stroke-width:0.35;stroke-miterlimit:4;stroke-dasharray:none;fill:#ffffff;fill-opacity:1;fill-rule:evenodd" />
    <path
       id="Cut061_f0023"
       d="M -23.705816159199973 -61.059678022621554 A 65.5 65.5 0 0 1 64.7321 -10L 64.73214039408862 -10.0 A 65.5 65.5 0 0 0 -23.7058 -61.0597L -23.705816159199973 -61.059678022621554 Z "
       stroke="#191919"
       stroke-width="0.35 px"
       style="stroke-width:0.35;stroke-miterlimit:4;stroke-dasharray:none;fill:#ffffff;fill-opacity:1;fill-rule:evenodd" />
    <path
       id="Cut061_f0024"
       d="M 64.73214039408862 -10.0 L 64.73214039408862 -10.0 L 83.0 -10.0 L 83.0 -10.0 L 64.73214039408863 -9.999999999999995 Z "
       stroke="#191919"
       stroke-width="0.35 px"
       style="stroke-width:0.35;stroke-miterlimit:4;stroke-dasharray:none;fill:#ffffff;fill-opacity:1;fill-rule:evenodd" />
    <path
       id="Cut061_f0025"
       d="M 83.0 -10.0 L 83.0 -10.0 L 83.0 -5.0 L 83.0 -5.0 L 83.0 -10.0 Z "
       stroke="#191919"
       stroke-width="0.35 px"
       style="stroke-width:0.35;stroke-miterlimit:4;stroke-dasharray:none;fill:#ffffff;fill-opacity:1;fill-rule:evenodd" />
    <path
       id="Cut061_f0026"
       d="M 83.0 -2.5 L 83.0 -5.0 L 83.0 -5.0 L 83.0 -2.5 L 83.0 -2.5 Z "
       stroke="#191919"
       stroke-width="0.35 px"
       style="stroke-width:0.35;stroke-miterlimit:4;stroke-dasharray:none;fill:#ffffff;fill-opacity:1;fill-rule:evenodd" />
    <path
       id="Cut061_f0027"
       d="M 83.0 -2.5 L 83.0 -2.5 L 89.0 -2.500000000000001 L 89.0 -2.500000000000001 L 83.0 -2.5000000000000004 Z "
       stroke="#191919"
       stroke-width="0.35 px"
       style="stroke-width:0.35;stroke-miterlimit:4;stroke-dasharray:none;fill:#ffffff;fill-opacity:1;fill-rule:evenodd" />
    <path
       id="Cut061_f0028"
       d="M 89.0 -2.500000000000001 L 89.0 -2.500000000000001 L 89.0 2.499999999999999 L 89.0 2.499999999999999 L 89.0 -2.500000000000001 Z "
       stroke="#191919"
       stroke-width="0.35 px"
       style="stroke-width:0.35;stroke-miterlimit:4;stroke-dasharray:none;fill:#ffffff;fill-opacity:1;fill-rule:evenodd" />
    <path
       id="Cut061_f0029"
       d="M 83.0 2.5 L 89.0 2.499999999999999 L 89.0 2.499999999999999 L 83.0 2.4999999999999996 L 83.0 2.5 Z "
       stroke="#191919"
       stroke-width="0.35 px"
       style="stroke-width:0.35;stroke-miterlimit:4;stroke-dasharray:none;fill:#ffffff;fill-opacity:1;fill-rule:evenodd" />
    <path
       id="Cut061_f0030"
       d="M 83.0 5.0 L 83.0 2.5 L 83.0 2.5 L 83.0 5.0 L 83.0 5.0 Z "
       stroke="#191919"
       stroke-width="0.35 px"
       style="stroke-width:0.35;stroke-miterlimit:4;stroke-dasharray:none;fill:#ffffff;fill-opacity:1;fill-rule:evenodd" />
    <path
       id="Cut061_f0031"
       d="M 83.0 5.0 L 83.0 10.0 L 83.0 10.0 L 83.0 5.0 L 83.0 5.0 Z "
       stroke="#191919"
       stroke-width="0.35 px"
       style="stroke-width:0.35;stroke-miterlimit:4;stroke-dasharray:none;fill:#ffffff;fill-opacity:1;fill-rule:evenodd" />
    <path
       id="Cut061_f0032"
       d="M 64.73214039408863 10.0 L 83.0 10.0 L 83.0 10.0 L 64.73214039408863 10.0 L 64.73214039408863 10.0 Z "
       stroke="#191919"
       stroke-width="0.35 px"
       style="stroke-width:0.35;stroke-miterlimit:4;stroke-dasharray:none;fill:#ffffff;fill-opacity:1;fill-rule:evenodd" />
    <title
       id="title46">b'Cut061'</title>
  </g>
</svg>
