<?xml version="1.0"?>
<!DOCTYPE svg PUBLIC "-//W3C//DTD SVG 1.1//EN" "http://www.w3.org/Graphics/SVG/1.1/DTD/svg11.dtd">
<svg width="44.88mm" height="30.879999999999995mm" viewBox="0 0 44.88 30.879999999999995" xmlns="http://www.w3.org/2000/svg" version="1.1">
<g id="Cut060" transform="translate(22.440000,95.440000) scale(1,-1)">
<path id="Cut060_f0000"  d="M -22.0 95.0 L -22.0 65.0 L -22.0 65.0 L -22.0 95.0 L -22.0 95.0 Z " stroke="#191919" stroke-width="0.35 px" style="stroke-width:0.35;stroke-miterlimit:4;stroke-dasharray:none;fill:#cccccc;fill-opacity:1.0;fill-rule: evenodd "/>
<path id="Cut060_f0001"  d="M 22.0 65.0 L -22.0 65.0 L -22.0 65.0 L 22.0 65.0 L 22.0 65.0 Z M -0.4800000000000074 65.0 M -0.4800000000000084 65.0 L -0.48000000000000537 65.0 L -0.4800000000000074 65.0 Z " stroke="#191919" stroke-width="0.35 px" style="stroke-width:0.35;stroke-miterlimit:4;stroke-dasharray:none;fill:#cccccc;fill-opacity:1.0;fill-rule: evenodd "/>
<path id="Cut060_f0002"  d="M -22.0 95.0 L -22.0 65.0 L 22.0 65.0 L 22.0 95.0 L -22.0 95.0 Z " stroke="#191919" stroke-width="0.35 px" style="stroke-width:0.35;stroke-miterlimit:4;stroke-dasharray:none;fill:#cccccc;fill-opacity:1.0;fill-rule: evenodd "/>
<path id="Cut060_f0003"  d="M 22.0 95.0 L -22.0 95.0 L -22.0 95.0 L 22.0 95.0 L 22.0 95.0 Z M -0.48000000000002074 95.0 M -0.48000000000002174 95.0 L -0.4800000000000187 95.0 L -0.48000000000002074 95.0 Z " stroke="#191919" stroke-width="0.35 px" style="stroke-width:0.35;stroke-miterlimit:4;stroke-dasharray:none;fill:#cccccc;fill-opacity:1.0;fill-rule: evenodd "/>
<path id="Cut060_f0004"  d="M 22.0 65.0 L -22.0 65.0 L -22.0 95.0 L 22.0 95.0 L 22.0 65.0 Z " stroke="#191919" stroke-width="0.35 px" style="stroke-width:0.35;stroke-miterlimit:4;stroke-dasharray:none;fill:#cccccc;fill-opacity:1.0;fill-rule: evenodd "/>
<path id="Cut060_f0005"  d="M 22.0 65.0 L 22.0 65.0 L 22.0 95.0 L 22.0 95.0 L 22.0 65.0 Z " stroke="#191919" stroke-width="0.35 px" style="stroke-width:0.35;stroke-miterlimit:4;stroke-dasharray:none;fill:#cccccc;fill-opacity:1.0;fill-rule: evenodd "/>
<path id="Cut060_f0006"  d="M -0.4800000000000074 65.0 M -0.4800000000000084 65.0 L -0.48000000000000537 65.0 L -0.4800000000000074 65.0 L -0.48000000000002074 95.0 M -0.48000000000002174 95.0 L -0.4800000000000187 95.0 L -0.48000000000002074 95.0 Z " stroke="#191919" stroke-width="0.35 px" style="stroke-width:0.35;stroke-miterlimit:4;stroke-dasharray:none;fill:#cccccc;fill-opacity:1.0;fill-rule: evenodd "/>
<title>b'RingBlock'</title>
</g>
</svg>