  0
SECTION
  2
HEADER
  9
$ACADVER
  1
AC1014
  9
$HANDSEED
  5
FFFF
  9
$MEASUREMENT
 70
     1
  0
ENDSEC
  0
SECTION
  2
TABLES
  0
TABLE
  2
VPORT
  5
8
330
0
100
AcDbSymbolTable
 70
     4
  0
VPORT
  5
2E
330
8
100
AcDbSymbolTableRecord
100
AcDbViewportTableRecord
  2
*ACTIVE
 70
     0
 10
0.0
 20
0.0
 11
1.0
 21
1.0
 12
210.0
 22
148.5
 13
0.0
 23
0.0
 14
10.0
 24
10.0
 15
10.0
 25
10.0
 16
0.0
 26
0.0
 36
1.0
 17
0.0
 27
0.0
 37
0.0
 40
341.0
 41
1.24
 42
50.0
 43
0.0
 44
0.0
 50
0.0
 51
0.0
 71
     0
 72
   100
 73
     1
 74
     3
 75
     0
 76
     0
 77
     0
 78
     0
  0
ENDTAB
  0
TABLE
  2
LTYPE
  5
5
330
0
100
AcDbSymbolTable
 70
     1
  0
LTYPE
  5
14
330
5
100
AcDbSymbolTableRecord
100
AcDbLinetypeTableRecord
  2
BYBLOCK
 70
     0
  3

 72
    65
 73
     0
 40
0.0
  0
LTYPE
  5
15
330
5
100
AcDbSymbolTableRecord
100
AcDbLinetypeTableRecord
  2
BYLAYER
 70
     0
  3

 72
    65
 73
     0
 40
0.0
  0
LTYPE
  5
16
330
5
100
AcDbSymbolTableRecord
100
AcDbLinetypeTableRecord
  2
CONTINUOUS
 70
     0
  3
Solid line
 72
    65
 73
     0
 40
0.0
  0
ENDTAB
  0
TABLE
  2
LAYER
  5
2
100
AcDbSymbolTable
 70
1
  0
LAYER
  5
50
100
AcDbSymbolTableRecord
100
AcDbLayerTableRecord
  2
0
 70
0
  6
CONTINUOUS
  0
ENDTAB
  0
TABLE
  2
STYLE
  5
3
330
0
100
AcDbSymbolTable
 70
     1
  0
STYLE
  5
11
330
3
100
AcDbSymbolTableRecord
100
AcDbTextStyleTableRecord
  2
STANDARD
 70
     0
 40
0.0
 41
1.0
 50
0.0
 71
     0
 42
2.5
  3
txt
  4

  0
ENDTAB
  0
TABLE
  2
VIEW
  5
6
330
0
100
AcDbSymbolTable
 70
     0
  0
ENDTAB
  0
TABLE
  2
UCS
  5
7
330
0
100
AcDbSymbolTable
 70
     0
  0
ENDTAB
  0
TABLE
  2
APPID
  5
9
330
0
100
AcDbSymbolTable
 70
     2
  0
APPID
  5
12
330
9
100
AcDbSymbolTableRecord
100
AcDbRegAppTableRecord
  2
ACAD
 70
     0
  0
ENDTAB
  0
TABLE
  2
DIMSTYLE
  5
A
330
0
100
AcDbSymbolTable
 70
     1
  0
DIMSTYLE
105
27
330
A
100
AcDbSymbolTableRecord
100
AcDbDimStyleTableRecord
  2
ISO-25
 70
     0
  3

  4

  5

  6

  7

 40
1.0
 41
2.5
 42
0.625
 43
3.75
 44
1.25
 45
0.0
 46
0.0
 47
0.0
 48
0.0
140
2.5
141
2.5
142
0.0
143
0.03937007874016
144
1.0
145
0.0
146
1.0
147
0.625
 71
     0
 72
     0
 73
     0
 74
     0
 75
     0
 76
     0
 77
     1
 78
     8
170
     0
171
     3
172
     1
173
     0
174
     0
175
     0
176
     0
177
     0
178
     0
270
     2
271
     2
272
     2
273
     2
274
     3
340
11
275
     0
280
     0
281
     0
282
     0
283
     0
284
     8
285
     0
286
     0
287
     3
288
     0
  0
ENDTAB
  0
TABLE
  2
BLOCK_RECORD
  5
1
330
0
100
AcDbSymbolTable
 70
     1
  0
BLOCK_RECORD
  5
1F
330
1
100
AcDbSymbolTableRecord
100
AcDbBlockTableRecord
  2
*MODEL_SPACE
  0
BLOCK_RECORD
  5
1B
330
1
100
AcDbSymbolTableRecord
100
AcDbBlockTableRecord
  2
*PAPER_SPACE
  0
ENDTAB
  0
ENDSEC
  0
SECTION
  2
BLOCKS
  0
BLOCK
  5
20
330
1F
100
AcDbEntity
  8
0
100
AcDbBlockBegin
  2
*MODEL_SPACE
 70
     0
 10
0.0
 20
0.0
 30
0.0
  3
*MODEL_SPACE
  1

  0
ENDBLK
  5
21
330
1F
100
AcDbEntity
  8
0
100
AcDbBlockEnd
  0
BLOCK
  5
1C
330
1B
100
AcDbEntity
 67
     1
  8
0
100
AcDbBlockBegin
  2
*PAPER_SPACE
  1

  0
ENDBLK
  5
1D
330
1B
100
AcDbEntity
 67
     1
  8
0
100
AcDbBlockEnd
  0
ENDSEC
  0
SECTION
  2
ENTITIES
  0
SPLINE
  5
100
100
AcDbEntity
  8
0
 62
1
100
AcDbSpline
 70
8
 71
3
 72
8
 73
4
 74
0
 40
0
 40
0
 40
0
 40
0
 40
1
 40
1
 40
1
 40
1
 10
214.987378
 20
108.593279
 30
0.0
 10
214.987378
 20
136.838836
 30
0.0
 10
203.766875
 20
163.927527
 30
0.0
 10
183.794250
 20
183.900152
 30
0.0
  0
SPLINE
  5
101
100
AcDbEntity
  8
0
 62
1
100
AcDbSpline
 70
8
 71
3
 72
8
 73
4
 74
0
 40
0
 40
0
 40
0
 40
0
 40
1
 40
1
 40
1
 40
1
 10
183.794250
 20
183.900152
 30
0.0
 10
163.821626
 20
203.872776
 30
0.0
 10
136.732934
 20
215.093279
 30
0.0
 10
108.487378
 20
215.093279
 30
0.0
  0
SPLINE
  5
102
100
AcDbEntity
  8
0
 62
1
100
AcDbSpline
 70
8
 71
3
 72
8
 73
4
 74
0
 40
0
 40
0
 40
0
 40
0
 40
1
 40
1
 40
1
 40
1
 10
108.487378
 20
215.093279
 30
0.0
 10
80.241822
 20
215.093279
 30
0.0
 10
53.153130
 20
203.872776
 30
0.0
 10
33.180506
 20
183.900152
 30
0.0
  0
SPLINE
  5
103
100
AcDbEntity
  8
0
 62
1
100
AcDbSpline
 70
8
 71
3
 72
8
 73
4
 74
0
 40
0
 40
0
 40
0
 40
0
 40
1
 40
1
 40
1
 40
1
 10
33.180506
 20
183.900152
 30
0.0
 10
13.207881
 20
163.927527
 30
0.0
 10
1.987378
 20
136.838836
 30
0.0
 10
1.987378
 20
108.593279
 30
0.0
  0
SPLINE
  5
104
100
AcDbEntity
  8
0
 62
1
100
AcDbSpline
 70
8
 71
3
 72
8
 73
4
 74
0
 40
0
 40
0
 40
0
 40
0
 40
1
 40
1
 40
1
 40
1
 10
1.987378
 20
108.593279
 30
0.0
 10
1.987378
 20
80.347723
 30
0.0
 10
13.207881
 20
53.259032
 30
0.0
 10
33.180506
 20
33.286407
 30
0.0
  0
SPLINE
  5
105
100
AcDbEntity
  8
0
 62
1
100
AcDbSpline
 70
8
 71
3
 72
8
 73
4
 74
0
 40
0
 40
0
 40
0
 40
0
 40
1
 40
1
 40
1
 40
1
 10
33.180506
 20
33.286407
 30
0.0
 10
53.153130
 20
13.313783
 30
0.0
 10
80.241822
 20
2.093279
 30
0.0
 10
108.487378
 20
2.093279
 30
0.0
  0
SPLINE
  5
106
100
AcDbEntity
  8
0
 62
1
100
AcDbSpline
 70
8
 71
3
 72
8
 73
4
 74
0
 40
0
 40
0
 40
0
 40
0
 40
1
 40
1
 40
1
 40
1
 10
108.487378
 20
2.093279
 30
0.0
 10
136.732934
 20
2.093279
 30
0.0
 10
163.821626
 20
13.313783
 30
0.0
 10
183.794250
 20
33.286407
 30
0.0
  0
SPLINE
  5
107
100
AcDbEntity
  8
0
 62
1
100
AcDbSpline
 70
8
 71
3
 72
8
 73
4
 74
0
 40
0
 40
0
 40
0
 40
0
 40
1
 40
1
 40
1
 40
1
 10
183.794250
 20
33.286407
 30
0.0
 10
203.766875
 20
53.259032
 30
0.0
 10
214.987378
 20
80.347723
 30
0.0
 10
214.987378
 20
108.593279
 30
0.0
  0
LINE
  5
108
100
AcDbEntity
  8
0
 62
1
100
AcDbLine
 10
214.987378
 20
108.593279
 30
0.0
 11
214.987378
 21
108.593279
 31
0.0
  0
SPLINE
  5
109
100
AcDbEntity
  8
0
 62
1
100
AcDbSpline
 70
8
 71
3
 72
8
 73
4
 74
0
 40
0
 40
0
 40
0
 40
0
 40
1
 40
1
 40
1
 40
1
 10
214.987378
 20
108.593279
 30
0.0
 10
214.987378
 20
136.838836
 30
0.0
 10
203.766875
 20
163.927527
 30
0.0
 10
183.794250
 20
183.900152
 30
0.0
  0
SPLINE
  5
10a
100
AcDbEntity
  8
0
 62
1
100
AcDbSpline
 70
8
 71
3
 72
8
 73
4
 74
0
 40
0
 40
0
 40
0
 40
0
 40
1
 40
1
 40
1
 40
1
 10
183.794250
 20
183.900152
 30
0.0
 10
163.821626
 20
203.872776
 30
0.0
 10
136.732934
 20
215.093279
 30
0.0
 10
108.487378
 20
215.093279
 30
0.0
  0
SPLINE
  5
10b
100
AcDbEntity
  8
0
 62
1
100
AcDbSpline
 70
8
 71
3
 72
8
 73
4
 74
0
 40
0
 40
0
 40
0
 40
0
 40
1
 40
1
 40
1
 40
1
 10
108.487378
 20
215.093279
 30
0.0
 10
80.241822
 20
215.093279
 30
0.0
 10
53.153130
 20
203.872776
 30
0.0
 10
33.180506
 20
183.900152
 30
0.0
  0
SPLINE
  5
10c
100
AcDbEntity
  8
0
 62
1
100
AcDbSpline
 70
8
 71
3
 72
8
 73
4
 74
0
 40
0
 40
0
 40
0
 40
0
 40
1
 40
1
 40
1
 40
1
 10
33.180506
 20
183.900152
 30
0.0
 10
13.207881
 20
163.927527
 30
0.0
 10
1.987378
 20
136.838836
 30
0.0
 10
1.987378
 20
108.593279
 30
0.0
  0
SPLINE
  5
10d
100
AcDbEntity
  8
0
 62
1
100
AcDbSpline
 70
8
 71
3
 72
8
 73
4
 74
0
 40
0
 40
0
 40
0
 40
0
 40
1
 40
1
 40
1
 40
1
 10
1.987378
 20
108.593279
 30
0.0
 10
1.987378
 20
80.347723
 30
0.0
 10
13.207881
 20
53.259032
 30
0.0
 10
33.180506
 20
33.286407
 30
0.0
  0
SPLINE
  5
10e
100
AcDbEntity
  8
0
 62
1
100
AcDbSpline
 70
8
 71
3
 72
8
 73
4
 74
0
 40
0
 40
0
 40
0
 40
0
 40
1
 40
1
 40
1
 40
1
 10
33.180506
 20
33.286407
 30
0.0
 10
53.153130
 20
13.313783
 30
0.0
 10
80.241822
 20
2.093279
 30
0.0
 10
108.487378
 20
2.093279
 30
0.0
  0
SPLINE
  5
10f
100
AcDbEntity
  8
0
 62
1
100
AcDbSpline
 70
8
 71
3
 72
8
 73
4
 74
0
 40
0
 40
0
 40
0
 40
0
 40
1
 40
1
 40
1
 40
1
 10
108.487378
 20
2.093279
 30
0.0
 10
136.732934
 20
2.093279
 30
0.0
 10
163.821626
 20
13.313783
 30
0.0
 10
183.794250
 20
33.286407
 30
0.0
  0
SPLINE
  5
110
100
AcDbEntity
  8
0
 62
1
100
AcDbSpline
 70
8
 71
3
 72
8
 73
4
 74
0
 40
0
 40
0
 40
0
 40
0
 40
1
 40
1
 40
1
 40
1
 10
183.794250
 20
33.286407
 30
0.0
 10
203.766875
 20
53.259032
 30
0.0
 10
214.987378
 20
80.347723
 30
0.0
 10
214.987378
 20
108.593279
 30
0.0
  0
LINE
  5
111
100
AcDbEntity
  8
0
 62
1
100
AcDbLine
 10
214.987378
 20
108.593279
 30
0.0
 11
214.987378
 21
108.593279
 31
0.0
  0
SPLINE
  5
112
100
AcDbEntity
  8
0
 62
1
100
AcDbSpline
 70
8
 71
3
 72
8
 73
4
 74
0
 40
0
 40
0
 40
0
 40
0
 40
1
 40
1
 40
1
 40
1
 10
214.987378
 20
108.593279
 30
0.0
 10
214.987378
 20
136.838836
 30
0.0
 10
203.766875
 20
163.927527
 30
0.0
 10
183.794250
 20
183.900152
 30
0.0
  0
SPLINE
  5
113
100
AcDbEntity
  8
0
 62
1
100
AcDbSpline
 70
8
 71
3
 72
8
 73
4
 74
0
 40
0
 40
0
 40
0
 40
0
 40
1
 40
1
 40
1
 40
1
 10
183.794250
 20
183.900152
 30
0.0
 10
163.821626
 20
203.872776
 30
0.0
 10
136.732934
 20
215.093279
 30
0.0
 10
108.487378
 20
215.093279
 30
0.0
  0
SPLINE
  5
114
100
AcDbEntity
  8
0
 62
1
100
AcDbSpline
 70
8
 71
3
 72
8
 73
4
 74
0
 40
0
 40
0
 40
0
 40
0
 40
1
 40
1
 40
1
 40
1
 10
108.487378
 20
215.093279
 30
0.0
 10
80.241822
 20
215.093279
 30
0.0
 10
53.153130
 20
203.872776
 30
0.0
 10
33.180506
 20
183.900152
 30
0.0
  0
SPLINE
  5
115
100
AcDbEntity
  8
0
 62
1
100
AcDbSpline
 70
8
 71
3
 72
8
 73
4
 74
0
 40
0
 40
0
 40
0
 40
0
 40
1
 40
1
 40
1
 40
1
 10
33.180506
 20
183.900152
 30
0.0
 10
13.207881
 20
163.927527
 30
0.0
 10
1.987378
 20
136.838836
 30
0.0
 10
1.987378
 20
108.593279
 30
0.0
  0
SPLINE
  5
116
100
AcDbEntity
  8
0
 62
1
100
AcDbSpline
 70
8
 71
3
 72
8
 73
4
 74
0
 40
0
 40
0
 40
0
 40
0
 40
1
 40
1
 40
1
 40
1
 10
1.987378
 20
108.593279
 30
0.0
 10
1.987378
 20
80.347723
 30
0.0
 10
13.207881
 20
53.259032
 30
0.0
 10
33.180506
 20
33.286407
 30
0.0
  0
SPLINE
  5
117
100
AcDbEntity
  8
0
 62
1
100
AcDbSpline
 70
8
 71
3
 72
8
 73
4
 74
0
 40
0
 40
0
 40
0
 40
0
 40
1
 40
1
 40
1
 40
1
 10
33.180506
 20
33.286407
 30
0.0
 10
53.153130
 20
13.313783
 30
0.0
 10
80.241822
 20
2.093279
 30
0.0
 10
108.487378
 20
2.093279
 30
0.0
  0
SPLINE
  5
118
100
AcDbEntity
  8
0
 62
1
100
AcDbSpline
 70
8
 71
3
 72
8
 73
4
 74
0
 40
0
 40
0
 40
0
 40
0
 40
1
 40
1
 40
1
 40
1
 10
108.487378
 20
2.093279
 30
0.0
 10
136.732934
 20
2.093279
 30
0.0
 10
163.821626
 20
13.313783
 30
0.0
 10
183.794250
 20
33.286407
 30
0.0
  0
SPLINE
  5
119
100
AcDbEntity
  8
0
 62
1
100
AcDbSpline
 70
8
 71
3
 72
8
 73
4
 74
0
 40
0
 40
0
 40
0
 40
0
 40
1
 40
1
 40
1
 40
1
 10
183.794250
 20
33.286407
 30
0.0
 10
203.766875
 20
53.259032
 30
0.0
 10
214.987378
 20
80.347723
 30
0.0
 10
214.987378
 20
108.593279
 30
0.0
  0
LINE
  5
11a
100
AcDbEntity
  8
0
 62
1
100
AcDbLine
 10
214.987378
 20
108.593279
 30
0.0
 11
214.987378
 21
108.593279
 31
0.0
  0
SPLINE
  5
11b
100
AcDbEntity
  8
0
 62
7
100
AcDbSpline
 70
8
 71
3
 72
8
 73
4
 74
0
 40
0
 40
0
 40
0
 40
0
 40
1
 40
1
 40
1
 40
1
 10
173.219518
 20
118.593279
 30
0.0
 10
173.219518
 20
118.593279
 30
0.0
 10
173.219518
 20
118.593279
 30
0.0
 10
173.219518
 20
118.593279
 30
0.0
  0
SPLINE
  5
11c
100
AcDbEntity
  8
0
 62
7
100
AcDbSpline
 70
8
 71
3
 72
8
 73
4
 74
0
 40
0
 40
0
 40
0
 40
0
 40
1
 40
1
 40
1
 40
1
 10
173.219518
 20
118.593279
 30
0.0
 10
170.189150
 20
138.209533
 30
0.0
 10
158.427077
 20
155.393473
 30
0.0
 10
141.237391
 20
165.317949
 30
0.0
  0
SPLINE
  5
11d
100
AcDbEntity
  8
0
 62
7
100
AcDbSpline
 70
8
 71
3
 72
8
 73
4
 74
0
 40
0
 40
0
 40
0
 40
0
 40
1
 40
1
 40
1
 40
1
 10
141.237391
 20
165.317949
 30
0.0
 10
124.047705
 20
175.242425
 30
0.0
 10
103.284940
 20
176.836720
 30
0.0
 10
84.781578
 20
169.652979
 30
0.0
  0
LINE
  5
11e
100
AcDbEntity
  8
0
 62
7
100
AcDbLine
 10
84.781578
 20
169.652979
 30
0.0
 11
84.781562
 21
169.652957
 31
0.0
  0
SPLINE
  5
11f
100
AcDbEntity
  8
0
 62
7
100
AcDbSpline
 70
8
 71
3
 72
8
 73
4
 74
0
 40
0
 40
0
 40
0
 40
0
 40
1
 40
1
 40
1
 40
1
 10
84.781562
 20
169.652957
 30
0.0
 10
103.284918
 20
176.836689
 30
0.0
 10
124.047672
 20
175.242392
 30
0.0
 10
141.237351
 20
165.317922
 30
0.0
  0
SPLINE
  5
120
100
AcDbEntity
  8
0
 62
7
100
AcDbSpline
 70
8
 71
3
 72
8
 73
4
 74
0
 40
0
 40
0
 40
0
 40
0
 40
1
 40
1
 40
1
 40
1
 10
141.237351
 20
165.317922
 30
0.0
 10
158.427030
 20
155.393452
 30
0.0
 10
170.189102
 20
138.209523
 30
0.0
 10
173.219478
 20
118.593279
 30
0.0
  0
LINE
  5
121
100
AcDbEntity
  8
0
 62
7
100
AcDbLine
 10
173.219478
 20
118.593279
 30
0.0
 11
173.219518
 21
118.593279
 31
0.0
  0
LINE
  5
122
100
AcDbEntity
  8
0
 62
7
100
AcDbLine
 10
84.781562
 20
169.652957
 30
0.0
 11
84.781562
 21
169.652957
 31
0.0
  0
LINE
  5
123
100
AcDbEntity
  8
0
 62
7
100
AcDbLine
 10
84.781562
 20
169.652957
 30
0.0
 11
75.647632
 21
185.473388
 31
0.0
  0
LINE
  5
124
100
AcDbEntity
  8
0
 62
7
100
AcDbLine
 10
75.647632
 20
185.473388
 30
0.0
 11
75.647632
 21
185.473388
 31
0.0
  0
LINE
  5
125
100
AcDbEntity
  8
0
 62
7
100
AcDbLine
 10
75.647632
 20
185.473388
 30
0.0
 11
84.781562
 21
169.652957
 31
0.0
  0
LINE
  5
126
100
AcDbEntity
  8
0
 62
7
100
AcDbLine
 10
84.781562
 20
169.652957
 30
0.0
 11
84.781562
 21
169.652957
 31
0.0
  0
LINE
  5
127
100
AcDbEntity
  8
0
 62
7
100
AcDbLine
 10
75.647632
 20
185.473388
 30
0.0
 11
75.647632
 21
185.473388
 31
0.0
  0
LINE
  5
128
100
AcDbEntity
  8
0
 62
7
100
AcDbLine
 10
75.647632
 20
185.473388
 30
0.0
 11
69.152442
 21
181.723388
 31
0.0
  0
LINE
  5
129
100
AcDbEntity
  8
0
 62
7
100
AcDbLine
 10
69.152442
 20
181.723388
 30
0.0
 11
69.152442
 21
181.723388
 31
0.0
  0
LINE
  5
12a
100
AcDbEntity
  8
0
 62
7
100
AcDbLine
 10
69.152442
 20
181.723388
 30
0.0
 11
75.647632
 21
185.473388
 31
0.0
  0
LINE
  5
12b
100
AcDbEntity
  8
0
 62
7
100
AcDbLine
 10
75.647632
 20
185.473388
 30
0.0
 11
75.647632
 21
185.473388
 31
0.0
  0
LINE
  5
12c
100
AcDbEntity
  8
0
 62
7
100
AcDbLine
 10
69.152442
 20
181.723388
 30
0.0
 11
69.152442
 21
181.723388
 31
0.0
  0
LINE
  5
12d
100
AcDbEntity
  8
0
 62
7
100
AcDbLine
 10
69.152442
 20
181.723388
 30
0.0
 11
67.652442
 21
184.321464
 31
0.0
  0
LINE
  5
12e
100
AcDbEntity
  8
0
 62
7
100
AcDbLine
 10
67.652442
 20
184.321464
 30
0.0
 11
67.652442
 21
184.321464
 31
0.0
  0
LINE
  5
12f
100
AcDbEntity
  8
0
 62
7
100
AcDbLine
 10
67.652442
 20
184.321464
 30
0.0
 11
69.152442
 21
181.723388
 31
0.0
  0
LINE
  5
130
100
AcDbEntity
  8
0
 62
7
100
AcDbLine
 10
69.152442
 20
181.723388
 30
0.0
 11
69.152442
 21
181.723388
 31
0.0
  0
LINE
  5
131
100
AcDbEntity
  8
0
 62
7
100
AcDbLine
 10
67.652442
 20
184.321464
 30
0.0
 11
67.652442
 21
184.321464
 31
0.0
  0
LINE
  5
132
100
AcDbEntity
  8
0
 62
7
100
AcDbLine
 10
67.652442
 20
184.321464
 30
0.0
 11
63.322314
 21
181.821464
 31
0.0
  0
LINE
  5
133
100
AcDbEntity
  8
0
 62
7
100
AcDbLine
 10
63.322314
 20
181.821464
 30
0.0
 11
63.322314
 21
181.821464
 31
0.0
  0
LINE
  5
134
100
AcDbEntity
  8
0
 62
7
100
AcDbLine
 10
63.322314
 20
181.821464
 30
0.0
 11
67.652442
 21
184.321464
 31
0.0
  0
LINE
  5
135
100
AcDbEntity
  8
0
 62
7
100
AcDbLine
 10
67.652442
 20
184.321464
 30
0.0
 11
67.652442
 21
184.321464
 31
0.0
  0
LINE
  5
136
100
AcDbEntity
  8
0
 62
7
100
AcDbLine
 10
64.822314
 20
179.223388
 30
0.0
 11
63.322314
 21
181.821464
 31
0.0
  0
LINE
  5
137
100
AcDbEntity
  8
0
 62
7
100
AcDbLine
 10
63.322314
 20
181.821464
 30
0.0
 11
63.322314
 21
181.821464
 31
0.0
  0
LINE
  5
138
100
AcDbEntity
  8
0
 62
7
100
AcDbLine
 10
63.322314
 20
181.821464
 30
0.0
 11
64.822314
 21
179.223388
 31
0.0
  0
LINE
  5
139
100
AcDbEntity
  8
0
 62
7
100
AcDbLine
 10
64.822314
 20
179.223388
 30
0.0
 11
64.822314
 21
179.223388
 31
0.0
  0
LINE
  5
13a
100
AcDbEntity
  8
0
 62
7
100
AcDbLine
 10
64.822314
 20
179.223388
 30
0.0
 11
64.822314
 21
179.223388
 31
0.0
  0
LINE
  5
13b
100
AcDbEntity
  8
0
 62
7
100
AcDbLine
 10
64.822314
 20
179.223388
 30
0.0
 11
58.327124
 21
175.473388
 31
0.0
  0
LINE
  5
13c
100
AcDbEntity
  8
0
 62
7
100
AcDbLine
 10
58.327124
 20
175.473388
 30
0.0
 11
58.327124
 21
175.473388
 31
0.0
  0
LINE
  5
13d
100
AcDbEntity
  8
0
 62
7
100
AcDbLine
 10
58.327124
 20
175.473388
 30
0.0
 11
64.822314
 21
179.223388
 31
0.0
  0
LINE
  5
13e
100
AcDbEntity
  8
0
 62
7
100
AcDbLine
 10
64.822314
 20
179.223388
 30
0.0
 11
64.822314
 21
179.223388
 31
0.0
  0
LINE
  5
13f
100
AcDbEntity
  8
0
 62
7
100
AcDbLine
 10
64.822314
 20
179.223388
 30
0.0
 11
64.822314
 21
179.223388
 31
0.0
  0
LINE
  5
140
100
AcDbEntity
  8
0
 62
7
100
AcDbLine
 10
67.461054
 20
159.652957
 30
0.0
 11
58.327124
 21
175.473388
 31
0.0
  0
LINE
  5
141
100
AcDbEntity
  8
0
 62
7
100
AcDbLine
 10
58.327124
 20
175.473388
 30
0.0
 11
58.327124
 21
175.473388
 31
0.0
  0
LINE
  5
142
100
AcDbEntity
  8
0
 62
7
100
AcDbLine
 10
58.327124
 20
175.473388
 30
0.0
 11
67.461054
 21
159.652957
 31
0.0
  0
LINE
  5
143
100
AcDbEntity
  8
0
 62
7
100
AcDbLine
 10
67.461054
 20
159.652957
 30
0.0
 11
67.461054
 21
159.652957
 31
0.0
  0
LINE
  5
144
100
AcDbEntity
  8
0
 62
7
100
AcDbLine
 10
67.461054
 20
159.652957
 30
0.0
 11
67.461054
 21
159.652957
 31
0.0
  0
LINE
  5
145
100
AcDbEntity
  8
0
 62
7
100
AcDbLine
 10
67.461054
 20
159.652957
 30
0.0
 11
67.461054
 21
159.652957
 31
0.0
  0
SPLINE
  5
146
100
AcDbEntity
  8
0
 62
7
100
AcDbSpline
 70
8
 71
3
 72
8
 73
4
 74
0
 40
0
 40
0
 40
0
 40
0
 40
1
 40
1
 40
1
 40
1
 10
67.461054
 20
159.652957
 30
0.0
 10
51.988061
 20
147.220447
 30
0.0
 10
42.987372
 20
128.442213
 30
0.0
 10
42.987376
 20
108.593263
 30
0.0
  0
SPLINE
  5
147
100
AcDbEntity
  8
0
 62
7
100
AcDbSpline
 70
8
 71
3
 72
8
 73
4
 74
0
 40
0
 40
0
 40
0
 40
0
 40
1
 40
1
 40
1
 40
1
 10
42.987376
 20
108.593263
 30
0.0
 10
42.987381
 20
88.744313
 30
0.0
 10
51.988079
 20
69.966082
 30
0.0
 10
67.461078
 20
57.533579
 30
0.0
  0
SPLINE
  5
148
100
AcDbEntity
  8
0
 62
7
100
AcDbSpline
 70
8
 71
3
 72
8
 73
4
 74
0
 40
0
 40
0
 40
0
 40
0
 40
1
 40
1
 40
1
 40
1
 10
67.461078
 20
57.533579
 30
0.0
 10
67.461078
 20
57.533579
 30
0.0
 10
67.461054
 20
57.533601
 30
0.0
 10
67.461054
 20
57.533601
 30
0.0
  0
SPLINE
  5
149
100
AcDbEntity
  8
0
 62
7
100
AcDbSpline
 70
8
 71
3
 72
8
 73
4
 74
0
 40
0
 40
0
 40
0
 40
0
 40
1
 40
1
 40
1
 40
1
 10
67.461054
 20
57.533601
 30
0.0
 10
51.988061
 20
69.966112
 30
0.0
 10
42.987372
 20
88.744346
 30
0.0
 10
42.987376
 20
108.593296
 30
0.0
  0
SPLINE
  5
14a
100
AcDbEntity
  8
0
 62
7
100
AcDbSpline
 70
8
 71
3
 72
8
 73
4
 74
0
 40
0
 40
0
 40
0
 40
0
 40
1
 40
1
 40
1
 40
1
 10
42.987376
 20
108.593296
 30
0.0
 10
42.987381
 20
128.442246
 30
0.0
 10
51.988079
 20
147.220476
 30
0.0
 10
67.461078
 20
159.652979
 30
0.0
  0
LINE
  5
14b
100
AcDbEntity
  8
0
 62
7
100
AcDbLine
 10
67.461078
 20
159.652979
 30
0.0
 11
67.461054
 21
159.652957
 31
0.0
  0
LINE
  5
14c
100
AcDbEntity
  8
0
 62
7
100
AcDbLine
 10
67.461054
 20
57.533601
 30
0.0
 11
67.461054
 21
57.533601
 31
0.0
  0
LINE
  5
14d
100
AcDbEntity
  8
0
 62
7
100
AcDbLine
 10
67.461054
 20
57.533601
 30
0.0
 11
58.327124
 21
41.713171
 31
0.0
  0
LINE
  5
14e
100
AcDbEntity
  8
0
 62
7
100
AcDbLine
 10
58.327124
 20
41.713171
 30
0.0
 11
58.327124
 21
41.713171
 31
0.0
  0
LINE
  5
14f
100
AcDbEntity
  8
0
 62
7
100
AcDbLine
 10
58.327124
 20
41.713171
 30
0.0
 11
67.461054
 21
57.533601
 31
0.0
  0
LINE
  5
150
100
AcDbEntity
  8
0
 62
7
100
AcDbLine
 10
67.461054
 20
57.533601
 30
0.0
 11
67.461054
 21
57.533601
 31
0.0
  0
LINE
  5
151
100
AcDbEntity
  8
0
 62
7
100
AcDbLine
 10
58.327124
 20
41.713171
 30
0.0
 11
58.327124
 21
41.713171
 31
0.0
  0
LINE
  5
152
100
AcDbEntity
  8
0
 62
7
100
AcDbLine
 10
58.327124
 20
41.713171
 30
0.0
 11
64.822314
 21
37.963171
 31
0.0
  0
LINE
  5
153
100
AcDbEntity
  8
0
 62
7
100
AcDbLine
 10
64.822314
 20
37.963171
 30
0.0
 11
64.822314
 21
37.963171
 31
0.0
  0
LINE
  5
154
100
AcDbEntity
  8
0
 62
7
100
AcDbLine
 10
64.822314
 20
37.963171
 30
0.0
 11
58.327124
 21
41.713171
 31
0.0
  0
LINE
  5
155
100
AcDbEntity
  8
0
 62
7
100
AcDbLine
 10
58.327124
 20
41.713171
 30
0.0
 11
58.327124
 21
41.713171
 31
0.0
  0
LINE
  5
156
100
AcDbEntity
  8
0
 62
7
100
AcDbLine
 10
64.822314
 20
37.963171
 30
0.0
 11
64.822314
 21
37.963171
 31
0.0
  0
LINE
  5
157
100
AcDbEntity
  8
0
 62
7
100
AcDbLine
 10
64.822314
 20
37.963171
 30
0.0
 11
63.322314
 21
35.365095
 31
0.0
  0
LINE
  5
158
100
AcDbEntity
  8
0
 62
7
100
AcDbLine
 10
63.322314
 20
35.365095
 30
0.0
 11
63.322314
 21
35.365095
 31
0.0
  0
LINE
  5
159
100
AcDbEntity
  8
0
 62
7
100
AcDbLine
 10
63.322314
 20
35.365095
 30
0.0
 11
64.822314
 21
37.963171
 31
0.0
  0
LINE
  5
15a
100
AcDbEntity
  8
0
 62
7
100
AcDbLine
 10
64.822314
 20
37.963171
 30
0.0
 11
64.822314
 21
37.963171
 31
0.0
  0
LINE
  5
15b
100
AcDbEntity
  8
0
 62
7
100
AcDbLine
 10
63.322314
 20
35.365095
 30
0.0
 11
63.322314
 21
35.365095
 31
0.0
  0
LINE
  5
15c
100
AcDbEntity
  8
0
 62
7
100
AcDbLine
 10
63.322314
 20
35.365095
 30
0.0
 11
67.652442
 21
32.865095
 31
0.0
  0
LINE
  5
15d
100
AcDbEntity
  8
0
 62
7
100
AcDbLine
 10
67.652442
 20
32.865095
 30
0.0
 11
67.652442
 21
32.865095
 31
0.0
  0
LINE
  5
15e
100
AcDbEntity
  8
0
 62
7
100
AcDbLine
 10
67.652442
 20
32.865095
 30
0.0
 11
63.322314
 21
35.365095
 31
0.0
  0
LINE
  5
15f
100
AcDbEntity
  8
0
 62
7
100
AcDbLine
 10
63.322314
 20
35.365095
 30
0.0
 11
63.322314
 21
35.365095
 31
0.0
  0
LINE
  5
160
100
AcDbEntity
  8
0
 62
7
100
AcDbLine
 10
69.152442
 20
35.463171
 30
0.0
 11
67.652442
 21
32.865095
 31
0.0
  0
LINE
  5
161
100
AcDbEntity
  8
0
 62
7
100
AcDbLine
 10
67.652442
 20
32.865095
 30
0.0
 11
67.652442
 21
32.865095
 31
0.0
  0
LINE
  5
162
100
AcDbEntity
  8
0
 62
7
100
AcDbLine
 10
67.652442
 20
32.865095
 30
0.0
 11
69.152442
 21
35.463171
 31
0.0
  0
LINE
  5
163
100
AcDbEntity
  8
0
 62
7
100
AcDbLine
 10
69.152442
 20
35.463171
 30
0.0
 11
69.152442
 21
35.463171
 31
0.0
  0
LINE
  5
164
100
AcDbEntity
  8
0
 62
7
100
AcDbLine
 10
69.152442
 20
35.463171
 30
0.0
 11
69.152442
 21
35.463171
 31
0.0
  0
LINE
  5
165
100
AcDbEntity
  8
0
 62
7
100
AcDbLine
 10
69.152442
 20
35.463171
 30
0.0
 11
75.647632
 21
31.713171
 31
0.0
  0
LINE
  5
166
100
AcDbEntity
  8
0
 62
7
100
AcDbLine
 10
75.647632
 20
31.713171
 30
0.0
 11
75.647632
 21
31.713171
 31
0.0
  0
LINE
  5
167
100
AcDbEntity
  8
0
 62
7
100
AcDbLine
 10
75.647632
 20
31.713171
 30
0.0
 11
69.152442
 21
35.463171
 31
0.0
  0
LINE
  5
168
100
AcDbEntity
  8
0
 62
7
100
AcDbLine
 10
69.152442
 20
35.463171
 30
0.0
 11
69.152442
 21
35.463171
 31
0.0
  0
LINE
  5
169
100
AcDbEntity
  8
0
 62
7
100
AcDbLine
 10
69.152442
 20
35.463171
 30
0.0
 11
69.152442
 21
35.463171
 31
0.0
  0
LINE
  5
16a
100
AcDbEntity
  8
0
 62
7
100
AcDbLine
 10
84.781562
 20
47.533601
 30
0.0
 11
75.647632
 21
31.713171
 31
0.0
  0
LINE
  5
16b
100
AcDbEntity
  8
0
 62
7
100
AcDbLine
 10
75.647632
 20
31.713171
 30
0.0
 11
75.647632
 21
31.713171
 31
0.0
  0
LINE
  5
16c
100
AcDbEntity
  8
0
 62
7
100
AcDbLine
 10
75.647632
 20
31.713171
 30
0.0
 11
84.781562
 21
47.533601
 31
0.0
  0
LINE
  5
16d
100
AcDbEntity
  8
0
 62
7
100
AcDbLine
 10
84.781562
 20
47.533601
 30
0.0
 11
84.781562
 21
47.533601
 31
0.0
  0
LINE
  5
16e
100
AcDbEntity
  8
0
 62
7
100
AcDbLine
 10
84.781562
 20
47.533601
 30
0.0
 11
84.781562
 21
47.533601
 31
0.0
  0
SPLINE
  5
16f
100
AcDbEntity
  8
0
 62
7
100
AcDbSpline
 70
8
 71
3
 72
8
 73
4
 74
0
 40
0
 40
0
 40
0
 40
0
 40
1
 40
1
 40
1
 40
1
 10
84.781562
 20
47.533601
 30
0.0
 10
103.284918
 20
40.349870
 30
0.0
 10
124.047672
 20
41.944166
 30
0.0
 10
141.237351
 20
51.868637
 30
0.0
  0
SPLINE
  5
170
100
AcDbEntity
  8
0
 62
7
100
AcDbSpline
 70
8
 71
3
 72
8
 73
4
 74
0
 40
0
 40
0
 40
0
 40
0
 40
1
 40
1
 40
1
 40
1
 10
141.237351
 20
51.868637
 30
0.0
 10
158.427030
 20
61.793107
 30
0.0
 10
170.189102
 20
78.977036
 30
0.0
 10
173.219478
 20
98.593279
 30
0.0
  0
SPLINE
  5
171
100
AcDbEntity
  8
0
 62
7
100
AcDbSpline
 70
8
 71
3
 72
8
 73
4
 74
0
 40
0
 40
0
 40
0
 40
0
 40
1
 40
1
 40
1
 40
1
 10
173.219478
 20
98.593279
 30
0.0
 10
173.219478
 20
98.593279
 30
0.0
 10
173.219518
 20
98.593279
 30
0.0
 10
173.219518
 20
98.593279
 30
0.0
  0
SPLINE
  5
172
100
AcDbEntity
  8
0
 62
7
100
AcDbSpline
 70
8
 71
3
 72
8
 73
4
 74
0
 40
0
 40
0
 40
0
 40
0
 40
1
 40
1
 40
1
 40
1
 10
173.219518
 20
98.593279
 30
0.0
 10
170.189150
 20
78.977026
 30
0.0
 10
158.427077
 20
61.793085
 30
0.0
 10
141.237391
 20
51.868609
 30
0.0
  0
SPLINE
  5
173
100
AcDbEntity
  8
0
 62
7
100
AcDbSpline
 70
8
 71
3
 72
8
 73
4
 74
0
 40
0
 40
0
 40
0
 40
0
 40
1
 40
1
 40
1
 40
1
 10
141.237391
 20
51.868609
 30
0.0
 10
124.047705
 20
41.944133
 30
0.0
 10
103.284940
 20
40.349839
 30
0.0
 10
84.781578
 20
47.533579
 30
0.0
  0
LINE
  5
174
100
AcDbEntity
  8
0
 62
7
100
AcDbLine
 10
84.781578
 20
47.533579
 30
0.0
 11
84.781562
 21
47.533601
 31
0.0
  0
LINE
  5
175
100
AcDbEntity
  8
0
 62
7
100
AcDbLine
 10
84.781562
 20
47.533601
 30
0.0
 11
84.781562
 21
47.533601
 31
0.0
  0
LINE
  5
176
100
AcDbEntity
  8
0
 62
7
100
AcDbLine
 10
173.219518
 20
98.593279
 30
0.0
 11
173.219518
 21
98.593279
 31
0.0
  0
LINE
  5
177
100
AcDbEntity
  8
0
 62
7
100
AcDbLine
 10
173.219518
 20
98.593279
 30
0.0
 11
191.487378
 21
98.593279
 31
0.0
  0
LINE
  5
178
100
AcDbEntity
  8
0
 62
7
100
AcDbLine
 10
191.487378
 20
98.593279
 30
0.0
 11
191.487378
 21
98.593279
 31
0.0
  0
LINE
  5
179
100
AcDbEntity
  8
0
 62
7
100
AcDbLine
 10
191.487378
 20
98.593279
 30
0.0
 11
173.219518
 21
98.593279
 31
0.0
  0
LINE
  5
17a
100
AcDbEntity
  8
0
 62
7
100
AcDbLine
 10
173.219518
 20
98.593279
 30
0.0
 11
173.219518
 21
98.593279
 31
0.0
  0
LINE
  5
17b
100
AcDbEntity
  8
0
 62
7
100
AcDbLine
 10
191.487378
 20
98.593279
 30
0.0
 11
191.487378
 21
98.593279
 31
0.0
  0
LINE
  5
17c
100
AcDbEntity
  8
0
 62
7
100
AcDbLine
 10
191.487378
 20
98.593279
 30
0.0
 11
191.487378
 21
106.093279
 31
0.0
  0
LINE
  5
17d
100
AcDbEntity
  8
0
 62
7
100
AcDbLine
 10
191.487378
 20
106.093279
 30
0.0
 11
191.487378
 21
106.093279
 31
0.0
  0
LINE
  5
17e
100
AcDbEntity
  8
0
 62
7
100
AcDbLine
 10
191.487378
 20
106.093279
 30
0.0
 11
191.487378
 21
98.593279
 31
0.0
  0
LINE
  5
17f
100
AcDbEntity
  8
0
 62
7
100
AcDbLine
 10
191.487378
 20
98.593279
 30
0.0
 11
191.487378
 21
98.593279
 31
0.0
  0
LINE
  5
180
100
AcDbEntity
  8
0
 62
7
100
AcDbLine
 10
191.487378
 20
106.093279
 30
0.0
 11
191.487378
 21
106.093279
 31
0.0
  0
LINE
  5
181
100
AcDbEntity
  8
0
 62
7
100
AcDbLine
 10
191.487378
 20
106.093279
 30
0.0
 11
194.487378
 21
106.093279
 31
0.0
  0
LINE
  5
182
100
AcDbEntity
  8
0
 62
7
100
AcDbLine
 10
194.487378
 20
106.093279
 30
0.0
 11
194.487378
 21
106.093279
 31
0.0
  0
LINE
  5
183
100
AcDbEntity
  8
0
 62
7
100
AcDbLine
 10
194.487378
 20
106.093279
 30
0.0
 11
191.487378
 21
106.093279
 31
0.0
  0
LINE
  5
184
100
AcDbEntity
  8
0
 62
7
100
AcDbLine
 10
191.487378
 20
106.093279
 30
0.0
 11
191.487378
 21
106.093279
 31
0.0
  0
LINE
  5
185
100
AcDbEntity
  8
0
 62
7
100
AcDbLine
 10
194.487378
 20
106.093279
 30
0.0
 11
194.487378
 21
106.093279
 31
0.0
  0
LINE
  5
186
100
AcDbEntity
  8
0
 62
7
100
AcDbLine
 10
194.487378
 20
106.093279
 30
0.0
 11
194.487378
 21
111.093279
 31
0.0
  0
LINE
  5
187
100
AcDbEntity
  8
0
 62
7
100
AcDbLine
 10
194.487378
 20
111.093279
 30
0.0
 11
194.487378
 21
111.093279
 31
0.0
  0
LINE
  5
188
100
AcDbEntity
  8
0
 62
7
100
AcDbLine
 10
194.487378
 20
111.093279
 30
0.0
 11
194.487378
 21
106.093279
 31
0.0
  0
LINE
  5
189
100
AcDbEntity
  8
0
 62
7
100
AcDbLine
 10
194.487378
 20
106.093279
 30
0.0
 11
194.487378
 21
106.093279
 31
0.0
  0
LINE
  5
18a
100
AcDbEntity
  8
0
 62
7
100
AcDbLine
 10
191.487378
 20
111.093279
 30
0.0
 11
194.487378
 21
111.093279
 31
0.0
  0
LINE
  5
18b
100
AcDbEntity
  8
0
 62
7
100
AcDbLine
 10
194.487378
 20
111.093279
 30
0.0
 11
194.487378
 21
111.093279
 31
0.0
  0
LINE
  5
18c
100
AcDbEntity
  8
0
 62
7
100
AcDbLine
 10
194.487378
 20
111.093279
 30
0.0
 11
191.487378
 21
111.093279
 31
0.0
  0
LINE
  5
18d
100
AcDbEntity
  8
0
 62
7
100
AcDbLine
 10
191.487378
 20
111.093279
 30
0.0
 11
191.487378
 21
111.093279
 31
0.0
  0
LINE
  5
18e
100
AcDbEntity
  8
0
 62
7
100
AcDbLine
 10
191.487378
 20
111.093279
 30
0.0
 11
191.487378
 21
111.093279
 31
0.0
  0
LINE
  5
18f
100
AcDbEntity
  8
0
 62
7
100
AcDbLine
 10
191.487378
 20
111.093279
 30
0.0
 11
191.487378
 21
118.593279
 31
0.0
  0
LINE
  5
190
100
AcDbEntity
  8
0
 62
7
100
AcDbLine
 10
191.487378
 20
118.593279
 30
0.0
 11
191.487378
 21
118.593279
 31
0.0
  0
LINE
  5
191
100
AcDbEntity
  8
0
 62
7
100
AcDbLine
 10
191.487378
 20
118.593279
 30
0.0
 11
191.487378
 21
111.093279
 31
0.0
  0
LINE
  5
192
100
AcDbEntity
  8
0
 62
7
100
AcDbLine
 10
191.487378
 20
111.093279
 30
0.0
 11
191.487378
 21
111.093279
 31
0.0
  0
LINE
  5
193
100
AcDbEntity
  8
0
 62
7
100
AcDbLine
 10
191.487378
 20
111.093279
 30
0.0
 11
191.487378
 21
111.093279
 31
0.0
  0
LINE
  5
194
100
AcDbEntity
  8
0
 62
7
100
AcDbLine
 10
173.219518
 20
118.593279
 30
0.0
 11
191.487378
 21
118.593279
 31
0.0
  0
LINE
  5
195
100
AcDbEntity
  8
0
 62
7
100
AcDbLine
 10
191.487378
 20
118.593279
 30
0.0
 11
191.487378
 21
118.593279
 31
0.0
  0
LINE
  5
196
100
AcDbEntity
  8
0
 62
7
100
AcDbLine
 10
191.487378
 20
118.593279
 30
0.0
 11
173.219518
 21
118.593279
 31
0.0
  0
LINE
  5
197
100
AcDbEntity
  8
0
 62
7
100
AcDbLine
 10
173.219518
 20
118.593279
 30
0.0
 11
173.219518
 21
118.593279
 31
0.0
  0
LINE
  5
198
100
AcDbEntity
  8
0
 62
7
100
AcDbLine
 10
173.219518
 20
118.593279
 30
0.0
 11
173.219518
 21
118.593279
 31
0.0
  0
ENDSEC
  0
SECTION
  2
OBJECTS
  0
DICTIONARY
  5
C
330
0
100
AcDbDictionary
  3
ACAD_GROUP
350
D
  3
ACAD_MLINESTYLE
350
17
  0
DICTIONARY
  5
D
330
C
100
AcDbDictionary
  0
DICTIONARY
  5
1A
330
C
100
AcDbDictionary
  0
DICTIONARY
  5
17
330
C
100
AcDbDictionary
  3
STANDARD
350
18
  0
DICTIONARY
  5
19
330
C
100
AcDbDictionary
  0
ENDSEC
  0
EOF
