<?xml version="1.0"?>
<!DOCTYPE svg PUBLIC "-//W3C//DTD SVG 1.1//EN" "http://www.w3.org/Graphics/SVG/1.1/DTD/svg11.dtd">
<svg width="186.28428085857564mm" height="186.46836413507185mm" viewBox="0 0 186.28428085857564 186.46836413507185" xmlns="http://www.w3.org/2000/svg" version="1.1">
<g id="Cut059" transform="translate(92.957964,93.234182) scale(1,-1)">
<circle cx="0.0" cy="0.0" r="91.5" stroke="#191919" stroke-width="0.35 px" style="stroke-width:0.35;stroke-miterlimit:4;stroke-dasharray:none;fill:#cccccc"/>
<circle cx="0.0" cy="0.0" r="91.5" stroke="#191919" stroke-width="0.35 px" style="stroke-width:0.35;stroke-miterlimit:4;stroke-dasharray:none;fill:#cccccc"/>
<circle cx="0.0" cy="0.0" r="91.5" stroke="#191919" stroke-width="0.35 px" style="stroke-width:0.35;stroke-miterlimit:4;stroke-dasharray:none;fill:#cccccc"/>
<path id="Cut059_f0003"  d="M 64.73214039408863 10.0 L 64.73214039408863 10.0 A 65.5 65.5 0 0 1 -23.7058 61.0597L -23.705816159199905 61.059678022621576 A 65.5 65.5 0 0 0 64.7321 10Z " stroke="#191919" stroke-width="0.35 px" style="stroke-width:0.35;stroke-miterlimit:4;stroke-dasharray:none;fill:#cccccc;fill-opacity:1.0;fill-rule: evenodd "/>
<path id="Cut059_f0004"  d="M -23.705816159199905 61.059678022621576 L -23.705816159199905 61.059678022621576 L -32.839745962155604 76.88010851410843 L -32.83974596215559 76.88010851410843 L -23.705816159199905 61.059678022621576 Z " stroke="#191919" stroke-width="0.35 px" style="stroke-width:0.35;stroke-miterlimit:4;stroke-dasharray:none;fill:#cccccc;fill-opacity:1.0;fill-rule: evenodd "/>
<path id="Cut059_f0005"  d="M -32.83974596215559 76.88010851410843 L -32.83974596215559 76.88010851410843 L -39.33493649053888 73.13010851410843 L -39.33493649053888 73.13010851410843 L -32.83974596215559 76.88010851410843 Z " stroke="#191919" stroke-width="0.35 px" style="stroke-width:0.35;stroke-miterlimit:4;stroke-dasharray:none;fill:#cccccc;fill-opacity:1.0;fill-rule: evenodd "/>
<path id="Cut059_f0006"  d="M -39.33493649053888 73.13010851410843 L -39.33493649053888 73.13010851410843 L -40.83493649053888 75.72818472546174 L -40.83493649053888 75.72818472546174 L -39.33493649053888 73.13010851410843 Z " stroke="#191919" stroke-width="0.35 px" style="stroke-width:0.35;stroke-miterlimit:4;stroke-dasharray:none;fill:#cccccc;fill-opacity:1.0;fill-rule: evenodd "/>
<path id="Cut059_f0007"  d="M -40.83493649053888 75.72818472546174 L -40.83493649053888 75.72818472546174 L -45.16506350946108 73.22818472546174 L -45.16506350946108 73.22818472546174 L -40.83493649053888 75.72818472546174 Z M -42.99999999999998 74.47818472546174 M -42.999999999999986 74.47818472546174 L -42.999999999999986 74.47818472546174 Z " stroke="#191919" stroke-width="0.35 px" style="stroke-width:0.35;stroke-miterlimit:4;stroke-dasharray:none;fill:#cccccc;fill-opacity:1.0;fill-rule: evenodd "/>
<path id="Cut059_f0008"  d="M -43.66506350946108 70.63010851410843 L -45.16506350946108 73.22818472546174 L -45.16506350946108 73.22818472546174 L -43.66506350946108 70.63010851410843 L -43.66506350946108 70.63010851410843 Z " stroke="#191919" stroke-width="0.35 px" style="stroke-width:0.35;stroke-miterlimit:4;stroke-dasharray:none;fill:#cccccc;fill-opacity:1.0;fill-rule: evenodd "/>
<path id="Cut059_f0009"  d="M -50.16025403784437 66.88010851410843 L -50.16025403784437 66.88010851410843 L -43.66506350946108 70.63010851410843 L -43.66506350946108 70.63010851410843 L -50.16025403784437 66.88010851410843 Z " stroke="#191919" stroke-width="0.35 px" style="stroke-width:0.35;stroke-miterlimit:4;stroke-dasharray:none;fill:#cccccc;fill-opacity:1.0;fill-rule: evenodd "/>
<path id="Cut059_f0010"  d="M -41.02632423488869 51.0596780226216 L -50.160254037844375 66.88010851410843 L -50.16025403784437 66.88010851410843 L -41.02632423488869 51.05967802262158 L -41.02632423488869 51.05967802262158 Z " stroke="#191919" stroke-width="0.35 px" style="stroke-width:0.35;stroke-miterlimit:4;stroke-dasharray:none;fill:#cccccc;fill-opacity:1.0;fill-rule: evenodd "/>
<path id="Cut059_f0011"  d="M -41.02632423488869 51.05967802262158 L -41.02632423488869 51.05967802262158 A 65.5 65.5 0 0 1 -41.0263 -51.0597L -41.02632423488872 -51.05967802262154 A 65.5 65.5 0 0 0 -41.0263 51.0597Z " stroke="#191919" stroke-width="0.35 px" style="stroke-width:0.35;stroke-miterlimit:4;stroke-dasharray:none;fill:#cccccc;fill-opacity:1.0;fill-rule: evenodd "/>
<path id="Cut059_f0012"  d="M -41.02632423488872 -51.05967802262154 L -41.02632423488872 -51.05967802262154 L -50.16025403784441 -66.88010851410837 L -50.16025403784442 -66.88010851410837 L -41.026324234888754 -51.05967802262153 Z " stroke="#191919" stroke-width="0.35 px" style="stroke-width:0.35;stroke-miterlimit:4;stroke-dasharray:none;fill:#cccccc;fill-opacity:1.0;fill-rule: evenodd "/>
<path id="Cut059_f0013"  d="M -50.16025403784442 -66.88010851410837 L -50.16025403784442 -66.88010851410837 L -43.66506350946112 -70.63010851410837 L -43.66506350946112 -70.63010851410837 L -50.16025403784442 -66.88010851410837 Z " stroke="#191919" stroke-width="0.35 px" style="stroke-width:0.35;stroke-miterlimit:4;stroke-dasharray:none;fill:#cccccc;fill-opacity:1.0;fill-rule: evenodd "/>
<path id="Cut059_f0014"  d="M -43.66506350946112 -70.63010851410837 L -43.66506350946112 -70.63010851410837 L -45.165063509461135 -73.2281847254617 L -45.165063509461135 -73.2281847254617 L -43.66506350946112 -70.63010851410837 Z " stroke="#191919" stroke-width="0.35 px" style="stroke-width:0.35;stroke-miterlimit:4;stroke-dasharray:none;fill:#cccccc;fill-opacity:1.0;fill-rule: evenodd "/>
<path id="Cut059_f0015"  d="M -45.165063509461135 -73.2281847254617 L -45.165063509461135 -73.2281847254617 L -40.834936490538944 -75.7281847254617 L -40.834936490538944 -75.7281847254617 L -45.165063509461135 -73.2281847254617 Z M -43.000000000000036 -74.4781847254617 M -43.000000000000036 -74.4781847254617 L -43.000000000000036 -74.4781847254617 Z " stroke="#191919" stroke-width="0.35 px" style="stroke-width:0.35;stroke-miterlimit:4;stroke-dasharray:none;fill:#cccccc;fill-opacity:1.0;fill-rule: evenodd "/>
<path id="Cut059_f0016"  d="M -39.33493649053894 -73.13010851410837 L -40.834936490538944 -75.7281847254617 L -40.834936490538944 -75.7281847254617 L -39.33493649053894 -73.13010851410837 L -39.33493649053894 -73.13010851410837 Z " stroke="#191919" stroke-width="0.35 px" style="stroke-width:0.35;stroke-miterlimit:4;stroke-dasharray:none;fill:#cccccc;fill-opacity:1.0;fill-rule: evenodd "/>
<path id="Cut059_f0017"  d="M -32.839745962155654 -76.88010851410839 L -32.839745962155654 -76.88010851410839 L -39.33493649053894 -73.13010851410837 L -39.33493649053894 -73.13010851410837 L -32.839745962155654 -76.88010851410839 Z " stroke="#191919" stroke-width="0.35 px" style="stroke-width:0.35;stroke-miterlimit:4;stroke-dasharray:none;fill:#cccccc;fill-opacity:1.0;fill-rule: evenodd "/>
<path id="Cut059_f0018"  d="M -23.70581615919996 -61.059678022621554 L -32.83974596215565 -76.88010851410837 L -32.839745962155654 -76.88010851410839 L -23.705816159199973 -61.059678022621554 L -23.705816159199973 -61.059678022621554 Z " stroke="#191919" stroke-width="0.35 px" style="stroke-width:0.35;stroke-miterlimit:4;stroke-dasharray:none;fill:#cccccc;fill-opacity:1.0;fill-rule: evenodd "/>
<path id="Cut059_f0019"  d="M -23.705816159199973 -61.059678022621554 A 65.5 65.5 0 0 1 64.7321 -10L 64.73214039408862 -10.0 A 65.5 65.5 0 0 0 -23.7058 -61.0597L -23.705816159199973 -61.059678022621554 Z " stroke="#191919" stroke-width="0.35 px" style="stroke-width:0.35;stroke-miterlimit:4;stroke-dasharray:none;fill:#cccccc;fill-opacity:1.0;fill-rule: evenodd "/>
<path id="Cut059_f0020"  d="M 64.73214039408862 -10.0 L 64.73214039408862 -10.0 L 83.0 -10.0 L 83.0 -10.0 L 64.73214039408863 -9.999999999999995 Z " stroke="#191919" stroke-width="0.35 px" style="stroke-width:0.35;stroke-miterlimit:4;stroke-dasharray:none;fill:#cccccc;fill-opacity:1.0;fill-rule: evenodd "/>
<path id="Cut059_f0021"  d="M 83.0 -10.0 L 83.0 -10.0 L 83.0 -2.5 L 83.0 -2.5 L 83.0 -10.0 Z " stroke="#191919" stroke-width="0.35 px" style="stroke-width:0.35;stroke-miterlimit:4;stroke-dasharray:none;fill:#cccccc;fill-opacity:1.0;fill-rule: evenodd "/>
<path id="Cut059_f0022"  d="M 83.0 -2.5 L 83.0 -2.5 L 86.0 -2.5 L 86.0 -2.5 L 83.0 -2.5 Z " stroke="#191919" stroke-width="0.35 px" style="stroke-width:0.35;stroke-miterlimit:4;stroke-dasharray:none;fill:#cccccc;fill-opacity:1.0;fill-rule: evenodd "/>
<path id="Cut059_f0023"  d="M 86.0 -2.5 L 86.0 -2.5 L 86.0 2.5 L 86.0 2.5 L 86.0 -2.5 Z M 86.0 4.898587196589413e-16 M 86.0 0.0 L 86.0 4.898587196589413e-16 Z " stroke="#191919" stroke-width="0.35 px" style="stroke-width:0.35;stroke-miterlimit:4;stroke-dasharray:none;fill:#cccccc;fill-opacity:1.0;fill-rule: evenodd "/>
<path id="Cut059_f0024"  d="M 83.0 2.5 L 86.0 2.5 L 86.0 2.5 L 83.0 2.5 L 83.0 2.5 Z " stroke="#191919" stroke-width="0.35 px" style="stroke-width:0.35;stroke-miterlimit:4;stroke-dasharray:none;fill:#cccccc;fill-opacity:1.0;fill-rule: evenodd "/>
<path id="Cut059_f0025"  d="M 83.0 10.0 L 83.0 10.0 L 83.0 2.5 L 83.0 2.5 L 83.0 10.0 Z " stroke="#191919" stroke-width="0.35 px" style="stroke-width:0.35;stroke-miterlimit:4;stroke-dasharray:none;fill:#cccccc;fill-opacity:1.0;fill-rule: evenodd "/>
<path id="Cut059_f0026"  d="M 64.73214039408863 10.0 L 83.0 10.0 L 83.0 10.0 L 64.73214039408863 10.0 L 64.73214039408863 10.0 Z " stroke="#191919" stroke-width="0.35 px" style="stroke-width:0.35;stroke-miterlimit:4;stroke-dasharray:none;fill:#cccccc;fill-opacity:1.0;fill-rule: evenodd "/>
<path id="Cut059_f0027"  d="M -42.99999999999998 74.47818472546174 M -42.999999999999986 74.47818472546174 L -42.999999999999986 74.47818472546174 L -41.49999999999998 71.88010851410843 M -41.49999999999998 71.88010851410843 L -41.499999999999986 71.88010851410843 Z " stroke="#191919" stroke-width="0.35 px" style="stroke-width:0.35;stroke-miterlimit:4;stroke-dasharray:none;fill:#cccccc;fill-opacity:1.0;fill-rule: evenodd "/>
<path id="Cut059_f0028"  d="M -43.000000000000036 -74.4781847254617 M -43.000000000000036 -74.4781847254617 L -43.000000000000036 -74.4781847254617 L -41.500000000000036 -71.88010851410837 M -41.500000000000036 -71.88010851410837 L -41.500000000000036 -71.88010851410837 Z " stroke="#191919" stroke-width="0.35 px" style="stroke-width:0.35;stroke-miterlimit:4;stroke-dasharray:none;fill:#cccccc;fill-opacity:1.0;fill-rule: evenodd "/>
<path id="Cut059_f0029"  d="M 86.0 4.898587196589413e-16 M 86.0 0.0 L 86.0 4.898587196589413e-16 L 83.0 4.898587196589413e-16 M 83.0 0.0 L 83.0 4.898587196589413e-16 Z " stroke="#191919" stroke-width="0.35 px" style="stroke-width:0.35;stroke-miterlimit:4;stroke-dasharray:none;fill:#cccccc;fill-opacity:1.0;fill-rule: evenodd "/>
<path id="Cut059_f0030"  d="M -41.49999999999998 71.88010851410843 M -41.49999999999998 71.88010851410843 L -41.499999999999986 71.88010851410843 Z " stroke="#191919" stroke-width="0.35 px" style="stroke-width:0.35;stroke-miterlimit:4;stroke-dasharray:none;fill:#cccccc;fill-opacity:1.0;fill-rule: evenodd "/>
<path id="Cut059_f0031"  d="M -41.500000000000036 -71.88010851410837 M -41.500000000000036 -71.88010851410837 L -41.500000000000036 -71.88010851410837 Z " stroke="#191919" stroke-width="0.35 px" style="stroke-width:0.35;stroke-miterlimit:4;stroke-dasharray:none;fill:#cccccc;fill-opacity:1.0;fill-rule: evenodd "/>
<path id="Cut059_f0032"  d="M 83.0 4.898587196589413e-16 M 83.0 0.0 L 83.0 4.898587196589413e-16 Z " stroke="#191919" stroke-width="0.35 px" style="stroke-width:0.35;stroke-miterlimit:4;stroke-dasharray:none;fill:#cccccc;fill-opacity:1.0;fill-rule: evenodd "/>
<circle cx="0.0" cy="0.0" r="91.5" stroke="#191919" stroke-width="0.35 px" style="stroke-width:0.35;stroke-miterlimit:4;stroke-dasharray:none;fill:#cccccc"/>
<circle cx="0.0" cy="0.0" r="91.5" stroke="#191919" stroke-width="0.35 px" style="stroke-width:0.35;stroke-miterlimit:4;stroke-dasharray:none;fill:#cccccc"/>
<circle cx="0.0" cy="0.0" r="91.5" stroke="#191919" stroke-width="0.35 px" style="stroke-width:0.35;stroke-miterlimit:4;stroke-dasharray:none;fill:#cccccc"/>
<title>b'flat_rings'</title>
</g>
</svg>