<?xml version="1.0" encoding="UTF-8" standalone="no"?>
<svg
   xmlns:dc="http://purl.org/dc/elements/1.1/"
   xmlns:cc="http://creativecommons.org/ns#"
   xmlns:rdf="http://www.w3.org/1999/02/22-rdf-syntax-ns#"
   xmlns:svg="http://www.w3.org/2000/svg"
   xmlns="http://www.w3.org/2000/svg"
   xmlns:sodipodi="http://sodipodi.sourceforge.net/DTD/sodipodi-0.dtd"
   xmlns:inkscape="http://www.inkscape.org/namespaces/inkscape"
   width="203.66924543mm"
   height="203.831314251mm"
   viewBox="0 0 203.66924543 203.831314251"
   version="1.1"
   id="svg907"
   sodipodi:docname="top_plate.svg"
   inkscape:version="0.92.5 (0.92.5+68)">
  <metadata
     id="metadata913">
    <rdf:RDF>
      <cc:Work
         rdf:about="">
        <dc:format>image/svg+xml</dc:format>
        <dc:type
           rdf:resource="http://purl.org/dc/dcmitype/StillImage" />
        <dc:title></dc:title>
      </cc:Work>
    </rdf:RDF>
  </metadata>
  <defs
     id="defs911" />
  <sodipodi:namedview
     pagecolor="#ffffff"
     bordercolor="#666666"
     borderopacity="1"
     objecttolerance="10"
     gridtolerance="10"
     guidetolerance="10"
     inkscape:pageopacity="0"
     inkscape:pageshadow="2"
     inkscape:window-width="1920"
     inkscape:window-height="1053"
     id="namedview909"
     showgrid="false"
     showguides="true"
     inkscape:guide-bbox="true"
     inkscape:zoom="0.55751268"
     inkscape:cx="950.76446"
     inkscape:cy="454.90042"
     inkscape:window-x="0"
     inkscape:window-y="0"
     inkscape:window-maximized="1"
     inkscape:current-layer="svg907">
    <sodipodi:guide
       position="101.67996,150.33869"
       orientation="1,0"
       id="guide1095"
       inkscape:locked="false" />
  </sodipodi:namedview>
  <g
     id="Cut016"
     transform="matrix(1,0,0,-1,102.09845,101.58008)"
     style="fill:#ffffff">
    <path
       style="fill:#ffffff;stroke:#191919;stroke-width:0.34999999;stroke-miterlimit:4;stroke-dasharray:none"
       d="M 100,0 A 100,100 0 0 1 0,100 100,100 0 0 1 -100,0 100,100 0 0 1 0,-100 100,100 0 0 1 100,0 Z"
       id="circle884"
       inkscape:connector-curvature="0" />
    <path
       style="fill:#ffffff;stroke:#191919;stroke-width:0.34999999;stroke-miterlimit:4;stroke-dasharray:none"
       d="M 100,0 A 100,100 0 0 1 0,100 100,100 0 0 1 -100,0 100,100 0 0 1 0,-100 100,100 0 0 1 100,0 Z"
       id="circle886"
       inkscape:connector-curvature="0" />
    <path
       style="fill:#ffffff;stroke:#191919;stroke-width:0.34999999;stroke-miterlimit:4;stroke-dasharray:none"
       d="M 100,0 A 100,100 0 0 1 0,100 100,100 0 0 1 -100,0 100,100 0 0 1 0,-100 100,100 0 0 1 100,0 Z"
       id="circle888"
       inkscape:connector-curvature="0" />
    <path
       style="fill:#ffffff;stroke:#191919;stroke-width:0.34999999;stroke-miterlimit:4;stroke-dasharray:none"
       d="M 82.5,13 A 4.5,4.5 0 0 1 78,17.5 4.5,4.5 0 0 1 73.5,13 4.5,4.5 0 0 1 78,8.5 4.5,4.5 0 0 1 82.5,13 Z"
       id="circle890"
       inkscape:connector-curvature="0" />
    <path
       style="fill:#ffffff;stroke:#191919;stroke-width:0.34999999;stroke-miterlimit:4;stroke-dasharray:none"
       d="M 82.5,-13 A 4.5,4.5 0 0 1 78,-8.5 4.5,4.5 0 0 1 73.5,-13 4.5,4.5 0 0 1 78,-17.5 4.5,4.5 0 0 1 82.5,-13 Z"
       id="circle892"
       inkscape:connector-curvature="0" />
    <path
       style="fill:#ffffff;stroke:#191919;stroke-width:0.34999999;stroke-miterlimit:4;stroke-dasharray:none"
       d="M 60,0 A 60,60 0 0 1 0,60 60,60 0 0 1 -60,0 60,60 0 0 1 0,-60 60,60 0 0 1 60,0 Z"
       id="circle894"
       inkscape:connector-curvature="0" />
    <path
       style="fill:#ffffff;stroke:#191919;stroke-width:0.34999999;stroke-miterlimit:4;stroke-dasharray:none"
       d="m -45.758331,61.04998 a 4.5,4.5 0 0 1 -4.5,4.5 4.5,4.5 0 0 1 -4.5,-4.5 4.5,4.5 0 0 1 4.5,-4.5 4.5,4.5 0 0 1 4.5,4.5 z"
       id="circle896"
       inkscape:connector-curvature="0" />
    <path
       style="fill:#ffffff;stroke:#191919;stroke-width:0.34999999;stroke-miterlimit:4;stroke-dasharray:none"
       d="m -45.758331,-61.04998 a 4.5,4.5 0 0 1 -4.5,4.5 4.5,4.5 0 0 1 -4.5,-4.5 4.5,4.5 0 0 1 4.5,-4.5 4.5,4.5 0 0 1 4.5,4.5 z"
       id="circle898"
       inkscape:connector-curvature="0" />
    <path
       style="fill:#ffffff;stroke:#191919;stroke-width:0.34999999;stroke-miterlimit:4;stroke-dasharray:none"
       d="m -23.241671,74.04998 a 4.5,4.5 0 0 1 -4.5,4.5 4.5,4.5 0 0 1 -4.5,-4.5 4.5,4.5 0 0 1 4.5,-4.5 4.5,4.5 0 0 1 4.5,4.5 z"
       id="circle900"
       inkscape:connector-curvature="0" />
    <path
       style="fill:#ffffff;stroke:#191919;stroke-width:0.34999999;stroke-miterlimit:4;stroke-dasharray:none"
       d="m -23.241671,-74.04998 a 4.5,4.5 0 0 1 -4.5,4.5 4.5,4.5 0 0 1 -4.5,-4.5 4.5,4.5 0 0 1 4.5,-4.5 4.5,4.5 0 0 1 4.5,4.5 z"
       id="circle902"
       inkscape:connector-curvature="0" />
    <title
       id="title904">Top_Plate</title>
  </g>
  <g
     aria-label="Triscope
Topplate
20201023
"
     transform="matrix(0.26458333,0,0,0.26458333,67.917597,-56.250909)"
     style="font-style:normal;font-variant:normal;font-weight:normal;font-stretch:normal;font-size:15px;line-height:125%;font-family:'URW Gothic L';-inkscape-font-specification:'URW Gothic L, Normal';text-align:start;letter-spacing:0px;word-spacing:0px;writing-mode:lr-tb;text-anchor:start;fill:#000000;fill-opacity:1;stroke:none;stroke-width:1px;stroke-linecap:butt;stroke-linejoin:miter;stroke-opacity:1"
     id="flowRoot925">
    <path
       d="m 97.765,860.42015 h 1.11 v -10.08 h 2.535 v -1.005 h -6.18 v 1.005 h 2.535 z"
       id="path1097"
       inkscape:connector-curvature="0" />
    <path
       d="m 102.45672,860.42015 h 1.11 v -4.785 c 0,-1.53 0.78,-2.37 2.325,-2.52 v -1.095 c -1.185,0.06 -1.89,0.465 -2.325,1.365 v -1.17 h -1.11 z"
       id="path1099"
       inkscape:connector-curvature="0" />
    <path
       d="m 106.96844,860.42015 h 1.11 v -8.205 h -1.11 z m 0,-9.195 h 1.11 v -1.89 h -1.11 z"
       id="path1101"
       inkscape:connector-curvature="0" />
    <path
       d="m 109.28172,858.00515 c 0.015,1.59 1.065,2.61 2.64,2.61 1.47,0 2.505,-1.05 2.505,-2.55 0,-1.005 -0.465,-1.695 -1.425,-2.1 -1.245,-0.51 -1.305,-0.54 -1.545,-0.66 -0.51,-0.255 -0.75,-0.6 -0.75,-1.08 0,-0.66 0.525,-1.185 1.185,-1.185 0.72,0 1.14,0.42 1.2,1.2 h 1.125 c -0.045,-1.32 -0.99,-2.22 -2.31,-2.22 -1.335,0 -2.325,0.975 -2.325,2.31 0,0.585 0.21,1.095 0.615,1.47 0.345,0.315 0.36,0.315 1.515,0.795 0.495,0.195 0.855,0.375 1.065,0.51 0.33,0.225 0.525,0.615 0.525,1.065 0,0.825 -0.585,1.425 -1.38,1.425 -0.915,0 -1.485,-0.585 -1.545,-1.59 z"
       id="path1103"
       inkscape:connector-curvature="0" />
    <path
       d="m 122.7018,858.00515 c -0.855,1.14 -1.65,1.59 -2.805,1.59 -1.845,0 -3.3,-1.455 -3.3,-3.27 0,-1.845 1.425,-3.285 3.255,-3.285 1.215,0 2.22,0.585 2.85,1.665 h 1.245 c -0.66,-1.65 -2.235,-2.685 -4.08,-2.685 -2.46,0 -4.395,1.89 -4.395,4.275 0,2.445 1.95,4.32 4.47,4.32 1.02,0 1.965,-0.33 2.73,-0.93 0.525,-0.42 0.84,-0.825 1.29,-1.68 z"
       id="path1105"
       inkscape:connector-curvature="0" />
    <path
       d="m 129.47406,852.02015 c -2.43,0 -4.305,1.845 -4.305,4.245 0,2.52 1.845,4.35 4.395,4.35 2.4,0 4.17,-1.815 4.17,-4.275 0,-2.505 -1.8,-4.32 -4.26,-4.32 z m 0,1.02 c 1.8,0 3.135,1.41 3.135,3.315 0,1.875 -1.29,3.24 -3.075,3.24 -1.89,0 -3.24,-1.38 -3.24,-3.3 0,-1.86 1.365,-3.255 3.18,-3.255 z"
       id="path1107"
       inkscape:connector-curvature="0" />
    <path
       d="m 135.29852,852.21515 v 11.085 h 1.11 v -4.29 c 0.72,1.05 1.83,1.605 3.195,1.605 2.445,0 4.35,-1.875 4.35,-4.275 0,-2.445 -1.875,-4.32 -4.32,-4.32 -1.395,0 -2.535,0.57 -3.225,1.605 v -1.41 z m 4.29,0.825 c 1.845,0 3.24,1.41 3.24,3.3 0,1.845 -1.395,3.255 -3.225,3.255 -1.875,0 -3.27,-1.425 -3.27,-3.315 0,-1.815 1.44,-3.24 3.255,-3.24 z"
       id="path1109"
       inkscape:connector-curvature="0" />
    <path
       d="m 153.74312,856.68515 c 0,-1.125 -0.15,-1.815 -0.55499,-2.535 -0.73501,-1.305 -2.16001,-2.13 -3.72001,-2.13 -2.385,0 -4.26,1.875 -4.26,4.26 0,2.43 1.905,4.335 4.335,4.335 1.05,0 2.04,-0.39 2.79,-1.095 0.585,-0.555 0.975,-1.125 1.2,-1.8 h -1.155 c -0.465,1.125 -1.62,1.875 -2.865,1.875 -1.68,0 -3.105,-1.29 -3.195,-2.91 z m -7.395,-1.005 c 0.3,-1.575 1.545,-2.64 3.105,-2.64 1.59,0 2.805,1.005 3.18,2.64 z"
       id="path1111"
       inkscape:connector-curvature="0" />
    <path
       d="m 97.765,879.17015 h 1.11 v -10.08 h 2.535 v -1.005 h -6.18 v 1.005 h 2.535 z"
       id="path1113"
       inkscape:connector-curvature="0" />
    <path
       d="m 106.44672,870.77015 c -2.43,0 -4.305,1.845 -4.305,4.245 0,2.52 1.845,4.35 4.395,4.35 2.4,0 4.17,-1.815 4.17,-4.275 0,-2.505 -1.8,-4.32 -4.26,-4.32 z m 0,1.02 c 1.8,0 3.135,1.41 3.135,3.315 0,1.875 -1.29,3.24 -3.075,3.24 -1.89,0 -3.24,-1.38 -3.24,-3.3 0,-1.86 1.365,-3.255 3.18,-3.255 z"
       id="path1115"
       inkscape:connector-curvature="0" />
    <path
       d="m 112.27117,870.96515 v 11.085 h 1.11 v -4.29 c 0.72,1.05 1.83,1.605 3.195,1.605 2.445,0 4.35,-1.875 4.35,-4.275 0,-2.445 -1.875,-4.32 -4.32,-4.32 -1.395,0 -2.535,0.57 -3.225,1.605 v -1.41 z m 4.29,0.825 c 1.845,0 3.24,1.41 3.24,3.3 0,1.845 -1.395,3.255 -3.225,3.255 -1.875,0 -3.27,-1.425 -3.27,-3.315 0,-1.815 1.44,-3.24 3.255,-3.24 z"
       id="path1117"
       inkscape:connector-curvature="0" />
    <path
       d="m 122.49578,870.96515 v 11.085 h 1.11 v -4.29 c 0.72,1.05 1.83,1.605 3.195,1.605 2.445,0 4.35,-1.875 4.35,-4.275 0,-2.445 -1.875,-4.32 -4.32,-4.32 -1.395,0 -2.535,0.57 -3.225,1.605 v -1.41 z m 4.29,0.825 c 1.845,0 3.24,1.41 3.24,3.3 0,1.845 -1.395,3.255 -3.225,3.255 -1.875,0 -3.27,-1.425 -3.27,-3.315 0,-1.815 1.44,-3.24 3.255,-3.24 z"
       id="path1119"
       inkscape:connector-curvature="0" />
    <path
       d="m 132.72039,879.17015 h 1.11 v -11.085 h -1.11 z"
       id="path1121"
       inkscape:connector-curvature="0" />
    <path
       d="m 144.06367,870.96515 h -1.11 v 1.455 c -0.81,-1.14 -1.815,-1.65 -3.24,-1.65 -2.46,0 -4.32,1.86 -4.32,4.32 0,2.445 1.875,4.275 4.395,4.275 1.395,0 2.295,-0.465 3.165,-1.635 v 1.44 h 1.11 z m -4.32,0.825 c 1.8,0 3.21,1.41 3.21,3.24 0,1.86 -1.38,3.315 -3.15,3.315 -1.86,0 -3.285,-1.455 -3.285,-3.33 0,-1.785 1.44,-3.225 3.225,-3.225 z"
       id="path1123"
       inkscape:connector-curvature="0" />
    <path
       d="m 146.96758,879.17015 h 1.11 v -7.2 h 1.845 v -1.005 h -1.845 v -2.88 h -1.11 v 2.88 h -1.77 v 1.005 h 1.77 z"
       id="path1125"
       inkscape:connector-curvature="0" />
    <path
       d="m 159.28023,875.43515 c 0,-1.125 -0.15,-1.815 -0.555,-2.535 -0.735,-1.305 -2.16,-2.13 -3.72,-2.13 -2.385,0 -4.26,1.875 -4.26,4.26 0,2.43 1.905,4.335 4.335,4.335 1.05,0 2.04,-0.39 2.79,-1.095 0.585,-0.555 0.975,-1.125 1.2,-1.8 h -1.155 c -0.465,1.125 -1.62,1.875 -2.865,1.875 -1.68,0 -3.105,-1.29 -3.195,-2.91 z m -7.395,-1.005 c 0.3,-1.575 1.545,-2.64 3.105,-2.64 1.59,0 2.805,1.005 3.18,2.64 z"
       id="path1127"
       inkscape:connector-curvature="0" />
    <path
       d="m 95.62,897.92015 h 7.035 v -1.005 H 97.12 l 3.555,-3.405 c 1.56,-1.485 2.04,-2.31 2.04,-3.495 0,-1.95 -1.47,-3.375 -3.495,-3.375 -1.545,0 -2.775,0.81 -3.27,2.16 -0.195,0.525 -0.24,0.84 -0.24,1.62 h 1.095 c 0,-0.69 0.09,-1.125 0.285,-1.53 0.39,-0.78 1.17,-1.245 2.115,-1.245 1.395,0 2.4,0.975 2.4,2.31 0,0.66 -0.24,1.23 -0.78,1.86 -0.33,0.405 -0.33,0.405 -1.32,1.35 l -3.885,3.75 z"
       id="path1129"
       inkscape:connector-curvature="0" />
    <path
       d="m 103.89531,893.88515 c 0,1.11 0.18,1.95 0.54,2.565 0.645,1.095 1.77,1.665 3.255,1.665 1.335,0 2.34,-0.465 2.97,-1.38 0.435,-0.645 0.66,-1.605 0.66,-2.85 v -3.15 c 0,-1.26 -0.165,-1.935 -0.645,-2.61 -0.66,-0.96 -1.755,-1.485 -3.075,-1.485 -1.245,0 -2.265,0.435 -2.91,1.245 -0.555,0.69 -0.795,1.545 -0.795,2.85 z m 6.33,-0.18 c 0,0.975 -0.12,1.74 -0.36,2.205 -0.39,0.765 -1.2,1.2 -2.22,1.2 -0.945,0 -1.695,-0.36 -2.16,-1.05 -0.345,-0.495 -0.495,-1.215 -0.495,-2.355 v -2.715 c 0,-1.035 0.12,-1.71 0.39,-2.175 0.435,-0.735 1.26,-1.17 2.235,-1.17 0.87,0 1.635,0.36 2.1,0.99 0.375,0.51 0.51,1.14 0.51,2.355 z"
       id="path1131"
       inkscape:connector-curvature="0" />
    <path
       d="m 112.26063,897.92015 h 7.035 v -1.005 h -5.535 l 3.55499,-3.405 c 1.56001,-1.485 2.04001,-2.31 2.04001,-3.495 0,-1.95 -1.47,-3.375 -3.495,-3.375 -1.54501,0 -2.77501,0.81 -3.27,2.16 -0.19501,0.525 -0.24001,0.84 -0.24001,1.62 h 1.09501 c 0,-0.69 0.09,-1.125 0.285,-1.53 0.39,-0.78 1.17,-1.245 2.11499,-1.245 1.395,0 2.40001,0.975 2.40001,2.31 0,0.66 -0.24001,1.23 -0.78,1.86 -0.33,0.405 -0.33,0.405 -1.32001,1.35 l -3.88499,3.75 z"
       id="path1133"
       inkscape:connector-curvature="0" />
    <path
       d="m 120.53594,893.88515 c 0,1.11 0.18,1.95 0.54,2.565 0.645,1.095 1.77,1.665 3.255,1.665 1.335,0 2.34,-0.465 2.97,-1.38 0.435,-0.645 0.66,-1.605 0.66,-2.85 v -3.15 c 0,-1.26 -0.165,-1.935 -0.645,-2.61 -0.66,-0.96 -1.755,-1.485 -3.075,-1.485 -1.245,0 -2.265,0.435 -2.91,1.245 -0.555,0.69 -0.795,1.545 -0.795,2.85 z m 6.33,-0.18 c 0,0.975 -0.12,1.74 -0.36,2.205 -0.39,0.765 -1.2,1.2 -2.22,1.2 -0.945,0 -1.695,-0.36 -2.16,-1.05 -0.345,-0.495 -0.495,-1.215 -0.495,-2.355 v -2.715 c 0,-1.035 0.12,-1.71 0.39,-2.175 0.435,-0.735 1.26,-1.17 2.235,-1.17 0.87,0 1.635,0.36 2.1,0.99 0.375,0.51 0.51,1.14 0.51,2.355 z"
       id="path1135"
       inkscape:connector-curvature="0" />
    <path
       d="m 132.62125,897.92015 h 1.095 v -11.085 h -2.985 v 1.005 h 1.89 z"
       id="path1137"
       inkscape:connector-curvature="0" />
    <path
       d="m 137.17656,893.88515 c 0,1.11 0.18,1.95 0.54,2.565 0.645,1.095 1.77,1.665 3.255,1.665 1.335,0 2.34,-0.465 2.97,-1.38 0.435,-0.645 0.66,-1.605 0.66,-2.85 v -3.15 c 0,-1.26 -0.165,-1.935 -0.645,-2.61 -0.66,-0.96 -1.755,-1.485 -3.075,-1.485 -1.245,0 -2.265,0.435 -2.91,1.245 -0.555,0.69 -0.795,1.545 -0.795,2.85 z m 6.33,-0.18 c 0,0.975 -0.12,1.74 -0.36,2.205 -0.39,0.765 -1.2,1.2 -2.22,1.2 -0.945,0 -1.695,-0.36 -2.16,-1.05 -0.345,-0.495 -0.495,-1.215 -0.495,-2.355 v -2.715 c 0,-1.035 0.12,-1.71 0.39,-2.175 0.435,-0.735 1.26,-1.17 2.235,-1.17 0.87,0 1.635,0.36 2.1,0.99 0.375,0.51 0.51,1.14 0.51,2.355 z"
       id="path1139"
       inkscape:connector-curvature="0" />
    <path
       d="m 145.54187,897.92015 h 7.035 v -1.005 h -5.535 l 3.555,-3.405 c 1.56001,-1.485 2.04,-2.31 2.04,-3.495 0,-1.95 -1.47,-3.375 -3.495,-3.375 -1.545,0 -2.775,0.81 -3.27,2.16 -0.195,0.525 -0.24,0.84 -0.24,1.62 h 1.095 c 0,-0.69 0.09,-1.125 0.285,-1.53 0.39,-0.78 1.17,-1.245 2.115,-1.245 1.395,0 2.4,0.975 2.4,2.31 0,0.66 -0.24,1.23 -0.78,1.86 -0.33,0.405 -0.33,0.405 -1.32,1.35 l -3.885,3.75 z"
       id="path1141"
       inkscape:connector-curvature="0" />
    <path
       d="m 155.69219,889.59515 c 0.015,-1.23 0.63,-1.95 1.71,-1.95 0.99,0 1.68,0.72 1.68,1.755 0,1.05 -0.735,1.74 -1.89,1.74 -0.045,0 -0.15,0 -0.285,-0.015 l -0.255,-0.015 v 0.99 c 0.735,0.015 0.99,0.03 1.29,0.09 1.11,0.27 1.875,1.26 1.875,2.43 0,1.41 -1.05,2.49 -2.4,2.49 -0.84,0 -1.56,-0.39 -2.025,-1.08 -0.27,-0.405 -0.375,-0.78 -0.435,-1.575 h -1.095 c 0.03,0.81 0.165,1.365 0.48,1.92 0.615,1.08 1.785,1.74 3.105,1.74 1.95,0 3.48,-1.56 3.48,-3.555 0,-1.335 -0.63,-2.355 -1.875,-2.985 0.78,-0.54 1.14,-1.215 1.14,-2.13 0,-1.65 -1.155,-2.805 -2.79,-2.805 -1.665,0 -2.745,1.14 -2.805,2.955 z"
       id="path1143"
       inkscape:connector-curvature="0" />
  </g>
  <g
     id="surface1"
     transform="matrix(0.26458333,0,0,0.26458333,85.611379,186.65848)">
    <path
       id="path1028"
       d="M 3.410156,0.453125 116.76172,0.652344 c 1.58594,0 3,-0.234375 3,3.164062 l -0.14063,37.328125 H 0.546875 V 3.675781 C 0.546875,2 0.710938,0.453125 3.410156,0.453125 Z"
       style="fill:#a8b0ab;fill-opacity:1;fill-rule:nonzero;stroke:none"
       inkscape:connector-curvature="0" />
    <path
       id="path1030"
       d="M 117.75391,0 H 2.246094 C 1.007813,0 0,1.007813 0,2.246094 V 41.492188 C 0,41.773438 0.226563,42 0.507813,42 H 119.49219 C 119.77344,42 120,41.773438 120,41.492188 V 2.246094 C 120,1.007813 118.99219,0 117.75391,0 Z M 2.246094,1.015625 H 117.75391 c 0.67968,0 1.23047,0.550781 1.23047,1.230469 0,0 0,15.796875 0,27.222656 H 36.429688 c -3.027344,5.46875 -8.859375,9.183594 -15.546875,9.183594 -6.695313,0 -12.523438,-3.710938 -15.546875,-9.183594 H 1.015625 c 0,-11.425781 0,-27.222656 0,-27.222656 0,-0.679688 0.550781,-1.230469 1.230469,-1.230469 z"
       style="fill:#0000ff;fill-opacity:1;fill-rule:nonzero;stroke:#1919eb;stroke-opacity:1"
       inkscape:connector-curvature="0" />
    <path
       id="path1032"
       d="m 34.523438,19.550781 c 0.0039,7.53125 -6.097657,13.636719 -13.628907,13.640625 -7.527343,0.0078 -13.636718,-6.09375 -13.640625,-13.625 0,-0.0039 0,-0.0078 0,-0.01563 -0.00781,-7.527343 6.09375,-13.636718 13.625,-13.640625 7.53125,-0.00391 13.640625,6.09375 13.644532,13.625 0,0.0039 0,0.01172 0,0.01563 z"
       style="fill:#ffffff;fill-opacity:1;fill-rule:nonzero;stroke:none"
       inkscape:connector-curvature="0" />
    <path
       id="path1034"
       d="m 31.972656,8.445313 c 3.023438,3.023437 4.535157,6.726562 4.535157,11.105468 0,4.378907 -1.488282,8.042969 -4.457032,10.988282 -3.15625,3.101562 -6.882812,4.652343 -11.183593,4.652343 -4.25,0 -7.910157,-1.539062 -10.984375,-4.613281 -3.078125,-3.074219 -4.613282,-6.75 -4.613282,-11.027344 0,-4.273437 1.535157,-7.976562 4.613282,-11.105468 2.996093,-3.023438 6.65625,-4.535157 10.984375,-4.535157 4.378906,0 8.082031,1.511719 11.105468,4.535157 z m -20.054687,2.035156 c -2.558594,2.582031 -3.835938,5.605469 -3.835938,9.074219 0,3.46875 1.265625,6.46875 3.792969,8.996093 2.53125,2.53125 5.542969,3.792969 9.039063,3.792969 3.496093,0 6.53125,-1.277344 9.113281,-3.832031 2.453125,-2.371094 3.679687,-5.359375 3.679687,-8.957031 0,-3.570313 -1.246093,-6.601563 -3.738281,-9.09375 -2.492187,-2.488282 -5.507812,-3.734375 -9.054687,-3.734375 -3.546875,0 -6.546875,1.25 -8.996094,3.753906 z m 6.726562,7.550781 c -0.390625,-0.851562 -0.976562,-1.277344 -1.757812,-1.277344 -1.375,0 -2.066406,0.925782 -2.066406,2.78125 0,1.855469 0.691406,2.785157 2.066406,2.785157 0.910156,0 1.5625,-0.453125 1.953125,-1.359375 L 20.75,21.980469 c -0.910156,1.617187 -2.277344,2.425781 -4.097656,2.425781 -1.40625,0 -2.53125,-0.429687 -3.378906,-1.292969 -0.84375,-0.859375 -1.269532,-2.046875 -1.269532,-3.5625 0,-1.488281 0.4375,-2.667968 1.308594,-3.542968 0.871094,-0.875 1.960938,-1.3125 3.261719,-1.3125 1.925781,0 3.304687,0.757812 4.136719,2.277343 z m 8.988282,0 c -0.390625,-0.851562 -0.964844,-1.277344 -1.71875,-1.277344 -1.40625,0 -2.109375,0.925782 -2.109375,2.78125 0,1.855469 0.703125,2.785157 2.109375,2.785157 0.914062,0 1.550781,-0.453125 1.914062,-1.359375 l 1.953125,1.019531 c -0.910156,1.617187 -2.273437,2.425781 -4.089844,2.425781 -1.40625,0 -2.527343,-0.429687 -3.375,-1.292969 -0.839843,-0.859375 -1.265625,-2.046875 -1.265625,-3.5625 0,-1.488281 0.429688,-2.667968 1.289063,-3.542968 0.855469,-0.875 1.945312,-1.3125 3.273437,-1.3125 1.921875,0 3.296875,0.757812 4.128907,2.277343 z"
       style="fill:#0000ff;fill-opacity:1;fill-rule:nonzero;stroke:#1919eb;stroke-opacity:1"
       inkscape:connector-curvature="0" />
    <path
       id="path1036"
       d="m 62.503906,15.222656 c 0,5.929688 -4.808593,10.738282 -10.742187,10.738282 -5.929688,0 -10.738281,-4.808594 -10.738281,-10.738282 0,-5.929687 4.808593,-10.738281 10.738281,-10.738281 5.933594,0 10.742187,4.808594 10.742187,10.738281 z"
       style="fill:#ffffff;fill-opacity:1;fill-rule:nonzero;stroke:none"
       inkscape:connector-curvature="0" />
    <path
       id="path1038"
       d="m 54.871094,12.117188 c 0,-0.414063 -0.335938,-0.75 -0.75,-0.75 h -4.742188 c -0.414062,0 -0.75,0.335937 -0.75,0.75 v 4.742187 h 1.324219 v 5.617188 h 3.59375 v -5.617188 h 1.324219 z"
       style="fill:#0000ff;fill-opacity:1;fill-rule:nonzero;stroke:none"
       inkscape:connector-curvature="0" />
    <path
       id="path1040"
       d="m 53.371094,9.121094 c 0,0.894531 -0.722656,1.621094 -1.621094,1.621094 -0.894531,0 -1.621094,-0.726563 -1.621094,-1.621094 C 50.128906,8.226563 50.855469,7.5 51.75,7.5 c 0.898438,0 1.621094,0.726563 1.621094,1.621094 z"
       style="fill:#0000ff;fill-opacity:1;fill-rule:nonzero;stroke:none"
       inkscape:connector-curvature="0" />
    <path
       id="path1042"
       d="m 51.734375,3.390625 c -3.210937,0 -5.929687,1.121094 -8.15625,3.363281 -2.28125,2.320313 -3.421875,5.0625 -3.421875,8.234375 0,3.167969 1.140625,5.894532 3.421875,8.171875 2.285156,2.28125 5.003906,3.421875 8.15625,3.421875 3.195313,0 5.960938,-1.148437 8.304688,-3.449218 2.207031,-2.183594 3.308593,-4.898438 3.308593,-8.144532 0,-3.25 -1.121093,-5.992187 -3.367187,-8.234375 C 57.734375,4.511719 54.988281,3.390625 51.734375,3.390625 Z m 0.03125,2.089844 c 2.632813,0 4.867188,0.925781 6.703125,2.78125 1.859375,1.835937 2.789063,4.078125 2.789063,6.726562 0,2.664063 -0.910157,4.878907 -2.730469,6.636719 -1.914063,1.894531 -4.167969,2.839844 -6.761719,2.839844 -2.59375,0 -4.828125,-0.9375 -6.707031,-2.8125 -1.875,-1.871094 -2.8125,-4.09375 -2.8125,-6.664063 0,-2.570312 0.945312,-4.8125 2.84375,-6.726562 1.820312,-1.855469 4.042969,-2.78125 6.675781,-2.78125 z"
       style="fill:#0000ff;fill-opacity:1;fill-rule:evenodd;stroke:none"
       inkscape:connector-curvature="0" />
    <path
       id="path1044"
       d="m 48.402344,32.746094 c 0.3125,0 0.601562,0.03125 0.863281,0.08594 0.257813,0.05469 0.484375,0.144532 0.667969,0.273438 0.1875,0.125 0.328125,0.292969 0.433594,0.503906 0.101562,0.210938 0.152343,0.46875 0.152343,0.777344 0,0.335937 -0.07422,0.613281 -0.226562,0.835937 -0.152344,0.222657 -0.378906,0.402344 -0.675781,0.546875 0.410156,0.117188 0.714843,0.324219 0.917968,0.617188 0.203125,0.292969 0.304688,0.648437 0.304688,1.0625 0,0.332031 -0.06641,0.621094 -0.195313,0.867187 -0.132812,0.242188 -0.308593,0.445313 -0.527343,0.597657 -0.21875,0.15625 -0.472657,0.269531 -0.753907,0.34375 -0.28125,0.07422 -0.570312,0.113281 -0.867187,0.113281 h -3.21875 v -6.625 z m -0.1875,2.679687 c 0.261719,0 0.472656,-0.0625 0.640625,-0.183593 0.167969,-0.125 0.25,-0.324219 0.25,-0.601563 0,-0.15625 -0.02734,-0.28125 -0.08203,-0.378906 -0.05469,-0.101563 -0.128907,-0.175781 -0.222657,-0.234375 -0.09375,-0.05469 -0.199218,-0.09375 -0.320312,-0.113281 -0.121094,-0.02344 -0.246094,-0.03516 -0.378906,-0.03516 h -1.363282 v 1.546875 z m 0.08594,2.808594 c 0.140625,0 0.277344,-0.01172 0.40625,-0.03906 0.132813,-0.02734 0.246094,-0.07422 0.347657,-0.140625 0.09766,-0.0625 0.175781,-0.152344 0.234375,-0.265625 0.05859,-0.109375 0.08984,-0.25 0.08984,-0.425782 0,-0.339843 -0.09766,-0.582031 -0.289062,-0.726562 -0.191406,-0.144531 -0.445313,-0.21875 -0.761719,-0.21875 h -1.589844 v 1.816406 z"
       style="fill:#ffffff;fill-opacity:1;fill-rule:nonzero;stroke:none"
       inkscape:connector-curvature="0" />
    <path
       id="path1046"
       d="m 51.09375,32.746094 h 1.632813 l 1.550781,2.617187 1.542969,-2.617187 h 1.625 l -2.460938,4.082031 v 2.542969 h -1.460937 v -2.582031 z"
       style="fill:#ffffff;fill-opacity:1;fill-rule:nonzero;stroke:none"
       inkscape:connector-curvature="0" />
    <path
       id="path1048"
       d="m 98.441406,37.730469 c 0.07813,0.15625 0.183594,0.28125 0.320313,0.378906 0.132812,0.09375 0.285156,0.164063 0.464844,0.210938 0.179687,0.04687 0.363281,0.07031 0.554687,0.07031 0.128906,0 0.26953,-0.01172 0.41797,-0.03125 0.14844,-0.02344 0.28516,-0.0625 0.41797,-0.125 0.1289,-0.0625 0.23437,-0.148437 0.32422,-0.257812 0.082,-0.105469 0.1289,-0.246094 0.1289,-0.410157 0,-0.179687 -0.0586,-0.324218 -0.17187,-0.4375 -0.11328,-0.109375 -0.26563,-0.203125 -0.44922,-0.277343 -0.1875,-0.07422 -0.39844,-0.140625 -0.628907,-0.195313 -0.238282,-0.05469 -0.472657,-0.117187 -0.714844,-0.183594 -0.246094,-0.0625 -0.488281,-0.140625 -0.722656,-0.230468 -0.234375,-0.08594 -0.445313,-0.203125 -0.628907,-0.347657 -0.1875,-0.140625 -0.335937,-0.320312 -0.449218,-0.53125 -0.113282,-0.214843 -0.171875,-0.472656 -0.171875,-0.773437 0,-0.34375 0.07422,-0.636719 0.21875,-0.886719 0.144531,-0.25 0.332031,-0.460937 0.566406,-0.628906 0.234375,-0.164063 0.503906,-0.289063 0.800781,-0.371094 0.292969,-0.07813 0.589844,-0.117187 0.886719,-0.117187 0.347656,0 0.679691,0.03906 0.996091,0.113281 0.32032,0.07813 0.60157,0.203125 0.84766,0.378906 0.25,0.171875 0.44531,0.394531 0.58984,0.660156 0.14453,0.273438 0.21875,0.597657 0.21875,0.980469 h -1.41406 c -0.0117,-0.199219 -0.0547,-0.363281 -0.125,-0.492187 -0.0703,-0.128907 -0.16406,-0.230469 -0.28125,-0.304688 -0.11719,-0.07422 -0.25,-0.128906 -0.40234,-0.15625 -0.148441,-0.03125 -0.31641,-0.04687 -0.492191,-0.04687 -0.117188,0 -0.234375,0.01172 -0.351563,0.03516 -0.117187,0.02734 -0.222656,0.07031 -0.316406,0.128907 -0.09766,0.0625 -0.175781,0.140625 -0.238281,0.234375 -0.05859,0.09375 -0.08984,0.210937 -0.08984,0.351562 0,0.128906 0.02344,0.234375 0.07031,0.316406 0.05078,0.07813 0.148437,0.15625 0.292968,0.222657 0.148438,0.06641 0.347657,0.136718 0.601563,0.203125 0.257812,0.06641 0.59375,0.15625 1.00781,0.261718 0.1211,0.02344 0.29297,0.07031 0.51172,0.132813 0.21875,0.06641 0.4375,0.167969 0.65234,0.3125 0.21875,0.140625 0.40235,0.332031 0.5625,0.570312 0.15625,0.238282 0.23438,0.542969 0.23438,0.914063 0,0.300781 -0.0586,0.582031 -0.17578,0.84375 -0.11719,0.257812 -0.29297,0.484375 -0.52344,0.671875 -0.23047,0.1875 -0.51953,0.335937 -0.86328,0.441406 -0.34375,0.105469 -0.73828,0.15625 -1.191406,0.15625 -0.363282,0 -0.71875,-0.04297 -1.0625,-0.132812 -0.34375,-0.08984 -0.644532,-0.230469 -0.90625,-0.425782 -0.265625,-0.191406 -0.472657,-0.4375 -0.628907,-0.734375 -0.152343,-0.296875 -0.226562,-0.648437 -0.222656,-1.054687 h 1.414063 c 0,0.222656 0.03906,0.410156 0.121093,0.5625 z"
       style="fill:#ffffff;fill-opacity:1;fill-rule:nonzero;stroke:none"
       inkscape:connector-curvature="0" />
    <path
       id="path1050"
       d="m 106.64453,32.746094 2.47656,6.625 h -1.51171 l -0.5,-1.476563 h -2.47657 l -0.51953,1.476563 h -1.46484 l 2.5039,-6.625 z m 0.0859,4.0625 -0.83594,-2.429688 h -0.0195 l -0.85937,2.429688 z"
       style="fill:#ffffff;fill-opacity:1;fill-rule:nonzero;stroke:none"
       inkscape:connector-curvature="0" />
    <path
       id="path1052"
       d="m 72.519531,32.746094 2.765625,4.445312 h 0.01563 v -4.445312 h 1.367188 v 6.625 H 75.210938 L 72.453125,34.9375 h -0.01953 v 4.433594 h -1.363281 v -6.625 z"
       style="fill:#ffffff;fill-opacity:1;fill-rule:nonzero;stroke:none"
       inkscape:connector-curvature="0" />
    <path
       id="path1054"
       d="M 82.195313,34.511719 C 82.109375,34.371094 82,34.25 81.871094,34.144531 81.742188,34.039063 81.59375,33.957031 81.429688,33.898438 81.265625,33.839844 81.09375,33.8125 80.914063,33.8125 c -0.328125,0 -0.605469,0.0625 -0.835938,0.1875 -0.226562,0.128906 -0.414062,0.296875 -0.554687,0.511719 -0.140625,0.210937 -0.246094,0.453125 -0.3125,0.726562 -0.0625,0.273438 -0.09766,0.554688 -0.09766,0.84375 0,0.277344 0.03516,0.550782 0.09766,0.8125 0.06641,0.261719 0.171875,0.5 0.3125,0.707032 0.140625,0.210937 0.328125,0.378906 0.554687,0.507812 0.230469,0.125 0.507813,0.1875 0.835938,0.1875 0.445312,0 0.792968,-0.132812 1.042968,-0.40625 0.253907,-0.273437 0.40625,-0.632812 0.460938,-1.078125 h 1.410156 c -0.03516,0.414063 -0.132812,0.789063 -0.289062,1.125 -0.152344,0.332031 -0.359375,0.617188 -0.609375,0.851563 -0.253907,0.238281 -0.550782,0.417968 -0.890625,0.542968 -0.339844,0.121094 -0.714844,0.183594 -1.125,0.183594 -0.507813,0 -0.960938,-0.08594 -1.367188,-0.265625 -0.40625,-0.171875 -0.746094,-0.417969 -1.027344,-0.726562 -0.277343,-0.308594 -0.492187,-0.671875 -0.640625,-1.089844 -0.148437,-0.417969 -0.222656,-0.867188 -0.222656,-1.351563 0,-0.496093 0.07422,-0.953125 0.222656,-1.378906 0.148438,-0.421875 0.363282,-0.792969 0.640625,-1.109375 0.28125,-0.3125 0.621094,-0.5625 1.027344,-0.742187 0.40625,-0.179688 0.859375,-0.265625 1.367188,-0.265625 0.367187,0 0.710937,0.05078 1.035156,0.15625 0.324219,0.105468 0.617187,0.257812 0.871094,0.460937 0.257812,0.199219 0.46875,0.449219 0.636718,0.746094 0.167969,0.296875 0.273438,0.636719 0.316407,1.019531 h -1.410157 c -0.02734,-0.164062 -0.08203,-0.320312 -0.167968,-0.457031 z"
       style="fill:#ffffff;fill-opacity:1;fill-rule:nonzero;stroke:none"
       inkscape:connector-curvature="0" />
    <path
       id="path1056"
       d="m 114.57813,14.980469 c 0.008,5.84375 -4.73047,10.585937 -10.57422,10.59375 -5.84766,0 -10.589847,-4.730469 -10.593754,-10.578125 0,-0.0039 0,-0.01172 0,-0.01563 -0.0039,-5.84375 4.730469,-10.585938 10.578124,-10.589844 5.84375,-0.00781 10.58594,4.730469 10.58985,10.574219 0,0.0039 0,0.01172 0,0.01563 z"
       style="fill:#ffffff;fill-opacity:1;fill-rule:nonzero;stroke:none"
       inkscape:connector-curvature="0" />
    <path
       id="path1058"
       d="m 103.91797,3.386719 c -3.21094,0 -5.929689,1.121094 -8.156251,3.359375 -2.28125,2.320312 -3.425781,5.066406 -3.425781,8.234375 0,3.167969 1.144531,5.894531 3.425781,8.175781 2.285156,2.28125 5.003911,3.417969 8.156251,3.417969 3.19531,0 5.96094,-1.148438 8.30078,-3.449219 2.20703,-2.183594 3.3125,-4.898437 3.3125,-8.144531 0,-3.246094 -1.125,-5.992188 -3.36719,-8.234375 -2.24609,-2.238281 -4.99218,-3.359375 -8.24609,-3.359375 z m 0.0312,2.085937 c 2.62891,0 4.86328,0.925782 6.70312,2.785157 1.85938,1.832031 2.78516,4.074218 2.78516,6.722656 0,2.667969 -0.90625,4.878906 -2.72656,6.640625 -1.91406,1.890625 -4.17188,2.839844 -6.76172,2.839844 -2.59375,0 -4.828126,-0.9375 -6.707032,-2.8125 -1.875,-1.875 -2.816407,-4.097657 -2.816407,-6.667969 0,-2.570313 0.949219,-4.8125 2.847657,-6.722656 1.816406,-1.859375 4.042972,-2.785157 6.675782,-2.785157 z"
       style="fill:#0000ff;fill-opacity:1;fill-rule:nonzero;stroke:none"
       inkscape:connector-curvature="0" />
    <path
       id="path1060"
       d="m 98.777344,13.34375 c 0.464844,-2.917969 2.515626,-4.476562 5.093746,-4.476562 3.69922,0 5.95704,2.6875 5.95704,6.269531 0,3.492187 -2.40235,6.207031 -6.01563,6.207031 -2.48828,0 -4.714844,-1.527344 -5.121094,-4.535156 h 2.921874 c 0.0859,1.5625 1.09766,2.109375 2.54688,2.109375 1.64453,0 2.71875,-1.53125 2.71875,-3.871094 0,-2.453125 -0.92578,-3.753906 -2.66407,-3.753906 -1.26953,0 -2.37109,0.464844 -2.60156,2.050781 l 0.84766,-0.0039 -2.29688,2.296875 -2.300779,-2.296875 z"
       style="fill:#0000ff;fill-opacity:1;fill-rule:nonzero;stroke:none"
       inkscape:connector-curvature="0" />
    <path
       id="path1062"
       d="m 88.628906,14.980469 c 0.0039,5.957031 -4.820312,10.789062 -10.777343,10.792969 -5.957032,0.0039 -10.792969,-4.820313 -10.796875,-10.777344 0,-0.0039 0,-0.01172 0,-0.01563 C 67.050781,9.023438 71.878906,4.191406 77.835938,4.1875 83.792969,4.183594 88.625,9.007813 88.628906,14.964844 c 0,0.0039 0,0.01172 0,0.01563 z"
       style="fill:#ffffff;fill-opacity:1;fill-rule:nonzero;stroke:none"
       inkscape:connector-curvature="0" />
    <path
       id="path1064"
       d="m 77.828125,3.386719 c 3.25,0 5.996094,1.121094 8.242188,3.359375 2.246093,2.242187 3.367187,4.988281 3.367187,8.234375 0,3.246094 -1.101562,5.960937 -3.308594,8.144531 -2.339843,2.300781 -5.109375,3.449219 -8.300781,3.449219 -3.15625,0 -5.875,-1.136719 -8.15625,-3.417969 -2.285156,-2.28125 -3.425781,-5.007812 -3.425781,-8.175781 0,-3.167969 1.140625,-5.914063 3.425781,-8.234375 2.226563,-2.238281 4.941406,-3.359375 8.15625,-3.359375 z m -8.972656,8.480469 c -0.347656,0.976562 -0.519531,2.015625 -0.519531,3.113281 0,2.570312 0.9375,4.792969 2.816406,6.667969 1.875,1.875 4.109375,2.8125 6.703125,2.8125 2.59375,0 4.847656,-0.949219 6.765625,-2.84375 C 85.261719,21 85.789063,20.324219 86.203125,19.589844 l -4.371094,-1.945313 c -0.296875,1.46875 -1.605468,2.464844 -3.191406,2.582032 v 1.785156 H 77.308594 V 20.226563 C 76.007813,20.210938 74.75,19.675781 73.789063,18.835938 l 1.597656,-1.609375 c 0.769531,0.722656 1.539062,1.046875 2.589844,1.046875 0.679687,0 1.433593,-0.265625 1.433593,-1.152344 0,-0.3125 -0.121093,-0.53125 -0.3125,-0.695313 l -1.105468,-0.492187 -1.378907,-0.613281 c -0.679687,-0.304688 -1.257812,-0.558594 -1.835937,-0.816407 z m 9,-6.394532 c -2.632813,0 -4.855469,0.925782 -6.675781,2.785157 -0.496094,0.496093 -0.925782,1.019531 -1.289063,1.5625 l 4.429688,1.976562 c 0.402343,-1.230469 1.570312,-1.976562 2.988281,-2.058594 V 7.949219 h 1.332031 v 1.789062 c 0.917969,0.042969 1.921875,0.292969 2.914063,1.0625 L 80.03125,12.367188 C 79.46875,11.96875 78.757813,11.6875 78.046875,11.6875 c -0.574219,0 -1.386719,0.175781 -1.386719,0.898438 0,0.113281 0.03516,0.210937 0.101563,0.296875 l 1.484375,0.660156 1.003906,0.445312 c 0.640625,0.285157 1.253906,0.558594 1.863281,0.828125 l 5.941407,2.648438 c 0.195312,-0.78125 0.292968,-1.609375 0.292968,-2.484375 0,-2.648438 -0.929687,-4.890625 -2.785156,-6.722656 C 82.722656,6.398438 80.488281,5.472656 77.855469,5.472656 Z"
       style="fill:#0000ff;fill-opacity:1;fill-rule:nonzero;stroke:none"
       inkscape:connector-curvature="0" />
  </g>
</svg>
