  0
SECTION
  2
HEADER
  9
$ACADVER
  1
AC1014
  9
$HANDSEED
  5
FFFF
  9
$MEASUREMENT
 70
     1
  0
ENDSEC
  0
SECTION
  2
TABLES
  0
TABLE
  2
VPORT
  5
8
330
0
100
AcDbSymbolTable
 70
     4
  0
VPORT
  5
2E
330
8
100
AcDbSymbolTableRecord
100
AcDbViewportTableRecord
  2
*ACTIVE
 70
     0
 10
0.0
 20
0.0
 11
1.0
 21
1.0
 12
210.0
 22
148.5
 13
0.0
 23
0.0
 14
10.0
 24
10.0
 15
10.0
 25
10.0
 16
0.0
 26
0.0
 36
1.0
 17
0.0
 27
0.0
 37
0.0
 40
341.0
 41
1.24
 42
50.0
 43
0.0
 44
0.0
 50
0.0
 51
0.0
 71
     0
 72
   100
 73
     1
 74
     3
 75
     0
 76
     0
 77
     0
 78
     0
  0
ENDTAB
  0
TABLE
  2
LTYPE
  5
5
330
0
100
AcDbSymbolTable
 70
     1
  0
LTYPE
  5
14
330
5
100
AcDbSymbolTableRecord
100
AcDbLinetypeTableRecord
  2
BYBLOCK
 70
     0
  3

 72
    65
 73
     0
 40
0.0
  0
LTYPE
  5
15
330
5
100
AcDbSymbolTableRecord
100
AcDbLinetypeTableRecord
  2
BYLAYER
 70
     0
  3

 72
    65
 73
     0
 40
0.0
  0
LTYPE
  5
16
330
5
100
AcDbSymbolTableRecord
100
AcDbLinetypeTableRecord
  2
CONTINUOUS
 70
     0
  3
Solid line
 72
    65
 73
     0
 40
0.0
  0
ENDTAB
  0
TABLE
  2
LAYER
  5
2
100
AcDbSymbolTable
 70
1
  0
LAYER
  5
50
100
AcDbSymbolTableRecord
100
AcDbLayerTableRecord
  2
0
 70
0
  6
CONTINUOUS
  0
ENDTAB
  0
TABLE
  2
STYLE
  5
3
330
0
100
AcDbSymbolTable
 70
     1
  0
STYLE
  5
11
330
3
100
AcDbSymbolTableRecord
100
AcDbTextStyleTableRecord
  2
STANDARD
 70
     0
 40
0.0
 41
1.0
 50
0.0
 71
     0
 42
2.5
  3
txt
  4

  0
ENDTAB
  0
TABLE
  2
VIEW
  5
6
330
0
100
AcDbSymbolTable
 70
     0
  0
ENDTAB
  0
TABLE
  2
UCS
  5
7
330
0
100
AcDbSymbolTable
 70
     0
  0
ENDTAB
  0
TABLE
  2
APPID
  5
9
330
0
100
AcDbSymbolTable
 70
     2
  0
APPID
  5
12
330
9
100
AcDbSymbolTableRecord
100
AcDbRegAppTableRecord
  2
ACAD
 70
     0
  0
ENDTAB
  0
TABLE
  2
DIMSTYLE
  5
A
330
0
100
AcDbSymbolTable
 70
     1
  0
DIMSTYLE
105
27
330
A
100
AcDbSymbolTableRecord
100
AcDbDimStyleTableRecord
  2
ISO-25
 70
     0
  3

  4

  5

  6

  7

 40
1.0
 41
2.5
 42
0.625
 43
3.75
 44
1.25
 45
0.0
 46
0.0
 47
0.0
 48
0.0
140
2.5
141
2.5
142
0.0
143
0.03937007874016
144
1.0
145
0.0
146
1.0
147
0.625
 71
     0
 72
     0
 73
     0
 74
     0
 75
     0
 76
     0
 77
     1
 78
     8
170
     0
171
     3
172
     1
173
     0
174
     0
175
     0
176
     0
177
     0
178
     0
270
     2
271
     2
272
     2
273
     2
274
     3
340
11
275
     0
280
     0
281
     0
282
     0
283
     0
284
     8
285
     0
286
     0
287
     3
288
     0
  0
ENDTAB
  0
TABLE
  2
BLOCK_RECORD
  5
1
330
0
100
AcDbSymbolTable
 70
     1
  0
BLOCK_RECORD
  5
1F
330
1
100
AcDbSymbolTableRecord
100
AcDbBlockTableRecord
  2
*MODEL_SPACE
  0
BLOCK_RECORD
  5
1B
330
1
100
AcDbSymbolTableRecord
100
AcDbBlockTableRecord
  2
*PAPER_SPACE
  0
ENDTAB
  0
ENDSEC
  0
SECTION
  2
BLOCKS
  0
BLOCK
  5
20
330
1F
100
AcDbEntity
  8
0
100
AcDbBlockBegin
  2
*MODEL_SPACE
 70
     0
 10
0.0
 20
0.0
 30
0.0
  3
*MODEL_SPACE
  1

  0
ENDBLK
  5
21
330
1F
100
AcDbEntity
  8
0
100
AcDbBlockEnd
  0
BLOCK
  5
1C
330
1B
100
AcDbEntity
 67
     1
  8
0
100
AcDbBlockBegin
  2
*PAPER_SPACE
  1

  0
ENDBLK
  5
1D
330
1B
100
AcDbEntity
 67
     1
  8
0
100
AcDbBlockEnd
  0
ENDSEC
  0
SECTION
  2
ENTITIES
  0
SPLINE
  5
100
100
AcDbEntity
  8
0
 62
7
100
AcDbSpline
 70
0
 71
3
 72
61
 73
57
 74
55
 40
0.000000
 40
0.000000
 40
0.000000
 40
0.000000
 40
34.896412
 40
69.293401
 40
104.189812
 40
139.086224
 40
173.483213
 40
208.379624
 40
243.276036
 40
277.673025
 40
312.569437
 40
347.465848
 40
381.862837
 40
416.759249
 40
451.655660
 40
486.052650
 40
520.949061
 40
555.845473
 40
590.242462
 40
625.138873
 40
660.035285
 40
694.432274
 40
729.328686
 40
764.225097
 40
798.622086
 40
833.518498
 40
868.414909
 40
902.811898
 40
937.708310
 40
972.604721
 40
1007.001711
 40
1041.898122
 40
1076.794534
 40
1111.191523
 40
1146.087934
 40
1180.984346
 40
1215.381335
 40
1250.277747
 40
1285.174158
 40
1319.571147
 40
1354.467559
 40
1389.363970
 40
1423.760960
 40
1458.657371
 40
1493.553783
 40
1527.950772
 40
1562.847183
 40
1597.743595
 40
1632.140584
 40
1667.036996
 40
1701.933407
 40
1736.330396
 40
1771.226808
 40
1806.123219
 40
1840.520208
 40
1875.416620
 40
1875.416620
 40
1875.416620
 40
1875.416620
 10
201.672488
 20
101.915657
 30
0.0
 10
200.477692
 20
113.607121
 30
0.0
 10
198.105200
 20
136.822725
 30
0.0
 10
179.698532
 20
167.502504
 30
0.0
 10
152.748055
 20
190.312114
 30
0.0
 10
119.374964
 20
202.409572
 30
0.0
 10
83.962352
 20
202.409572
 30
0.0
 10
50.636003
 20
190.312114
 30
0.0
 10
23.498896
 20
167.502504
 30
0.0
 10
5.785661
 20
136.822725
 30
0.0
 10
-0.398934
 20
101.915657
 30
0.0
 10
5.785712
 20
67.008589
 30
0.0
 10
23.498695
 20
36.328811
 30
0.0
 10
50.636769
 20
13.519200
 30
0.0
 10
83.959510
 20
1.421743
 30
0.0
 10
119.385466
 20
1.421743
 30
0.0
 10
152.708206
 20
13.519200
 30
0.0
 10
179.846282
 20
36.328811
 30
0.0
 10
197.559260
 20
67.008589
 30
0.0
 10
203.743925
 20
101.915657
 30
0.0
 10
197.559260
 20
136.822725
 30
0.0
 10
179.846282
 20
167.502504
 30
0.0
 10
152.708206
 20
190.312114
 30
0.0
 10
119.385466
 20
202.409572
 30
0.0
 10
83.959510
 20
202.409572
 30
0.0
 10
50.636770
 20
190.312114
 30
0.0
 10
23.498694
 20
167.502504
 30
0.0
 10
5.785716
 20
136.822725
 30
0.0
 10
-0.398949
 20
101.915657
 30
0.0
 10
5.785716
 20
67.008589
 30
0.0
 10
23.498694
 20
36.328811
 30
0.0
 10
50.636770
 20
13.519200
 30
0.0
 10
83.959510
 20
1.421743
 30
0.0
 10
119.385466
 20
1.421743
 30
0.0
 10
152.708206
 20
13.519200
 30
0.0
 10
179.846282
 20
36.328811
 30
0.0
 10
197.559260
 20
67.008589
 30
0.0
 10
203.743925
 20
101.915657
 30
0.0
 10
197.559260
 20
136.822725
 30
0.0
 10
179.846282
 20
167.502504
 30
0.0
 10
152.708206
 20
190.312114
 30
0.0
 10
119.385466
 20
202.409572
 30
0.0
 10
83.959510
 20
202.409572
 30
0.0
 10
50.636769
 20
190.312114
 30
0.0
 10
23.498695
 20
167.502504
 30
0.0
 10
5.785712
 20
136.822725
 30
0.0
 10
-0.398934
 20
101.915657
 30
0.0
 10
5.785661
 20
67.008589
 30
0.0
 10
23.498896
 20
36.328811
 30
0.0
 10
50.636003
 20
13.519200
 30
0.0
 10
83.962352
 20
1.421743
 30
0.0
 10
119.374964
 20
1.421743
 30
0.0
 10
152.748055
 20
13.519200
 30
0.0
 10
179.698532
 20
36.328811
 30
0.0
 10
198.105200
 20
67.008589
 30
0.0
 10
200.477692
 20
90.224194
 30
0.0
 10
201.672488
 20
101.915657
 30
0.0
 11
201.672488
 21
101.915657
 31
0.0
 11
195.585105
 21
136.277021
 31
0.0
 11
178.386610
 21
166.065687
 31
0.0
 11
151.672488
 21
188.518198
 31
0.0
 11
118.870983
 21
200.427051
 31
0.0
 11
84.473993
 21
200.427051
 31
0.0
 11
51.672488
 21
188.518198
 31
0.0
 11
24.958366
 21
166.065687
 31
0.0
 11
7.759871
 21
136.277021
 31
0.0
 11
1.672488
 21
101.915657
 31
0.0
 11
7.759871
 21
67.554294
 31
0.0
 11
24.958366
 21
37.765627
 31
0.0
 11
51.672488
 21
15.313117
 31
0.0
 11
84.473993
 21
3.404264
 31
0.0
 11
118.870983
 21
3.404264
 31
0.0
 11
151.672488
 21
15.313117
 31
0.0
 11
178.386610
 21
37.765627
 31
0.0
 11
195.585105
 21
67.554294
 31
0.0
 11
201.672488
 21
101.915657
 31
0.0
 11
195.585105
 21
136.277021
 31
0.0
 11
178.386610
 21
166.065687
 31
0.0
 11
151.672488
 21
188.518198
 31
0.0
 11
118.870983
 21
200.427051
 31
0.0
 11
84.473993
 21
200.427051
 31
0.0
 11
51.672488
 21
188.518198
 31
0.0
 11
24.958366
 21
166.065687
 31
0.0
 11
7.759871
 21
136.277021
 31
0.0
 11
1.672488
 21
101.915657
 31
0.0
 11
7.759871
 21
67.554294
 31
0.0
 11
24.958366
 21
37.765627
 31
0.0
 11
51.672488
 21
15.313117
 31
0.0
 11
84.473993
 21
3.404264
 31
0.0
 11
118.870983
 21
3.404264
 31
0.0
 11
151.672488
 21
15.313117
 31
0.0
 11
178.386610
 21
37.765627
 31
0.0
 11
195.585105
 21
67.554294
 31
0.0
 11
201.672488
 21
101.915657
 31
0.0
 11
195.585105
 21
136.277021
 31
0.0
 11
178.386610
 21
166.065687
 31
0.0
 11
151.672488
 21
188.518198
 31
0.0
 11
118.870983
 21
200.427051
 31
0.0
 11
84.473993
 21
200.427051
 31
0.0
 11
51.672488
 21
188.518198
 31
0.0
 11
24.958366
 21
166.065687
 31
0.0
 11
7.759871
 21
136.277021
 31
0.0
 11
1.672488
 21
101.915657
 31
0.0
 11
7.759871
 21
67.554294
 31
0.0
 11
24.958366
 21
37.765627
 31
0.0
 11
51.672488
 21
15.313117
 31
0.0
 11
84.473993
 21
3.404264
 31
0.0
 11
118.870983
 21
3.404264
 31
0.0
 11
151.672488
 21
15.313117
 31
0.0
 11
178.386610
 21
37.765627
 31
0.0
 11
195.585105
 21
67.554294
 31
0.0
 11
201.672488
 21
101.915657
 31
0.0
  0
LWPOLYLINE
  5
101
100
AcDbEntity
  8
0
 62
7
100
AcDbPolyline
 90
3
 70
1
 10
201.672488
 20
101.915657
 30
0.0
 10
201.672488
 20
101.915657
 30
0.0
 10
201.672488
 20
101.915657
 30
0.0
  0
SPLINE
  5
102
100
AcDbEntity
  8
0
 62
7
100
AcDbSpline
 70
0
 71
3
 72
25
 73
21
 74
19
 40
0.000000
 40
0.000000
 40
0.000000
 40
0.000000
 40
1.570339
 40
3.118203
 40
4.688542
 40
6.258880
 40
7.806745
 40
9.377083
 40
10.947422
 40
12.495286
 40
14.065625
 40
15.635963
 40
17.183828
 40
18.754166
 40
20.324505
 40
21.872369
 40
23.442708
 40
25.013046
 40
26.560911
 40
28.131249
 40
28.131249
 40
28.131249
 40
28.131249
 10
184.172488
 20
114.915657
 30
0.0
 10
184.118722
 20
115.441773
 30
0.0
 10
184.011960
 20
116.486475
 30
0.0
 10
183.183660
 20
117.867065
 30
0.0
 10
181.970888
 20
118.893498
 30
0.0
 10
180.469099
 20
119.437883
 30
0.0
 10
178.875532
 20
119.437883
 30
0.0
 10
177.375846
 20
118.893498
 30
0.0
 10
176.154676
 20
117.867065
 30
0.0
 10
175.357581
 20
116.486475
 30
0.0
 10
175.079275
 20
114.915657
 30
0.0
 10
175.357581
 20
113.344839
 30
0.0
 10
176.154676
 20
111.964249
 30
0.0
 10
177.375846
 20
110.937817
 30
0.0
 10
178.875532
 20
110.393431
 30
0.0
 10
180.469099
 20
110.393431
 30
0.0
 10
181.970888
 20
110.937817
 30
0.0
 10
183.183660
 20
111.964249
 30
0.0
 10
184.011960
 20
113.344839
 30
0.0
 10
184.118722
 20
114.389541
 30
0.0
 10
184.172488
 20
114.915657
 30
0.0
 11
184.172488
 21
114.915657
 31
0.0
 11
183.898556
 21
116.461919
 31
0.0
 11
183.124623
 21
117.802409
 31
0.0
 11
181.922488
 21
118.812772
 31
0.0
 11
180.446420
 21
119.348670
 31
0.0
 11
178.898556
 21
119.348670
 31
0.0
 11
177.422488
 21
118.812772
 31
0.0
 11
176.220353
 21
117.802409
 31
0.0
 11
175.446420
 21
116.461919
 31
0.0
 11
175.172488
 21
114.915657
 31
0.0
 11
175.446420
 21
113.369396
 31
0.0
 11
176.220353
 21
112.028906
 31
0.0
 11
177.422488
 21
111.018543
 31
0.0
 11
178.898556
 21
110.482645
 31
0.0
 11
180.446420
 21
110.482645
 31
0.0
 11
181.922488
 21
111.018543
 31
0.0
 11
183.124623
 21
112.028906
 31
0.0
 11
183.898556
 21
113.369396
 31
0.0
 11
184.172488
 21
114.915657
 31
0.0
  0
LWPOLYLINE
  5
103
100
AcDbEntity
  8
0
 62
7
100
AcDbPolyline
 90
1
 70
1
 10
184.172488
 20
114.915657
 30
0.0
  0
SPLINE
  5
104
100
AcDbEntity
  8
0
 62
7
100
AcDbSpline
 70
0
 71
3
 72
25
 73
21
 74
19
 40
0.000000
 40
0.000000
 40
0.000000
 40
0.000000
 40
1.570339
 40
3.118203
 40
4.688542
 40
6.258880
 40
7.806745
 40
9.377083
 40
10.947422
 40
12.495286
 40
14.065625
 40
15.635963
 40
17.183828
 40
18.754166
 40
20.324505
 40
21.872369
 40
23.442708
 40
25.013046
 40
26.560911
 40
28.131249
 40
28.131249
 40
28.131249
 40
28.131249
 10
184.172488
 20
88.915657
 30
0.0
 10
184.118722
 20
89.441773
 30
0.0
 10
184.011960
 20
90.486475
 30
0.0
 10
183.183660
 20
91.867065
 30
0.0
 10
181.970888
 20
92.893498
 30
0.0
 10
180.469099
 20
93.437883
 30
0.0
 10
178.875532
 20
93.437883
 30
0.0
 10
177.375846
 20
92.893498
 30
0.0
 10
176.154676
 20
91.867065
 30
0.0
 10
175.357581
 20
90.486475
 30
0.0
 10
175.079275
 20
88.915657
 30
0.0
 10
175.357581
 20
87.344839
 30
0.0
 10
176.154676
 20
85.964249
 30
0.0
 10
177.375846
 20
84.937817
 30
0.0
 10
178.875532
 20
84.393431
 30
0.0
 10
180.469099
 20
84.393431
 30
0.0
 10
181.970888
 20
84.937817
 30
0.0
 10
183.183660
 20
85.964249
 30
0.0
 10
184.011960
 20
87.344839
 30
0.0
 10
184.118722
 20
88.389541
 30
0.0
 10
184.172488
 20
88.915657
 30
0.0
 11
184.172488
 21
88.915657
 31
0.0
 11
183.898556
 21
90.461919
 31
0.0
 11
183.124623
 21
91.802409
 31
0.0
 11
181.922488
 21
92.812772
 31
0.0
 11
180.446420
 21
93.348670
 31
0.0
 11
178.898556
 21
93.348670
 31
0.0
 11
177.422488
 21
92.812772
 31
0.0
 11
176.220353
 21
91.802409
 31
0.0
 11
175.446420
 21
90.461919
 31
0.0
 11
175.172488
 21
88.915657
 31
0.0
 11
175.446420
 21
87.369396
 31
0.0
 11
176.220353
 21
86.028906
 31
0.0
 11
177.422488
 21
85.018543
 31
0.0
 11
178.898556
 21
84.482645
 31
0.0
 11
180.446420
 21
84.482645
 31
0.0
 11
181.922488
 21
85.018543
 31
0.0
 11
183.124623
 21
86.028906
 31
0.0
 11
183.898556
 21
87.369396
 31
0.0
 11
184.172488
 21
88.915657
 31
0.0
  0
LWPOLYLINE
  5
105
100
AcDbEntity
  8
0
 62
7
100
AcDbPolyline
 90
1
 70
1
 10
184.172488
 20
88.915657
 30
0.0
  0
SPLINE
  5
106
100
AcDbEntity
  8
0
 62
7
100
AcDbSpline
 70
0
 71
3
 72
25
 73
21
 74
19
 40
0.000000
 40
0.000000
 40
0.000000
 40
0.000000
 40
20.937847
 40
41.576040
 40
62.513887
 40
83.451734
 40
104.089928
 40
125.027775
 40
145.965622
 40
166.603815
 40
187.541662
 40
208.479509
 40
229.117702
 40
250.055549
 40
270.993396
 40
291.631590
 40
312.569437
 40
333.507284
 40
354.145477
 40
375.083324
 40
375.083324
 40
375.083324
 40
375.083324
 10
161.672488
 20
101.915657
 30
0.0
 10
160.955611
 20
108.930535
 30
0.0
 10
159.532115
 20
122.859898
 30
0.0
 10
148.488114
 20
141.267765
 30
0.0
 10
132.317828
 20
154.953532
 30
0.0
 10
112.293974
 20
162.212006
 30
0.0
 10
91.046406
 20
162.212006
 30
0.0
 10
71.050597
 20
154.953532
 30
0.0
 10
54.768334
 20
141.267765
 30
0.0
 10
44.140390
 20
122.859898
 30
0.0
 10
40.429644
 20
101.915657
 30
0.0
 10
44.140390
 20
80.971416
 30
0.0
 10
54.768334
 20
62.563549
 30
0.0
 10
71.050597
 20
48.877783
 30
0.0
 10
91.046406
 20
41.619309
 30
0.0
 10
112.293974
 20
41.619309
 30
0.0
 10
132.317828
 20
48.877783
 30
0.0
 10
148.488114
 20
62.563549
 30
0.0
 10
159.532115
 20
80.971416
 30
0.0
 10
160.955611
 20
94.900779
 30
0.0
 10
161.672488
 20
101.915657
 30
0.0
 11
161.672488
 21
101.915657
 31
0.0
 11
158.020058
 21
122.532475
 31
0.0
 11
147.700961
 21
140.405675
 31
0.0
 11
131.672488
 21
153.877181
 31
0.0
 11
111.991585
 21
161.022493
 31
0.0
 11
91.353391
 21
161.022493
 31
0.0
 11
71.672488
 21
153.877181
 31
0.0
 11
55.644015
 21
140.405675
 31
0.0
 11
45.324918
 21
122.532475
 31
0.0
 11
41.672488
 21
101.915657
 31
0.0
 11
45.324918
 21
81.298839
 31
0.0
 11
55.644015
 21
63.425639
 31
0.0
 11
71.672488
 21
49.954133
 31
0.0
 11
91.353391
 21
42.808821
 31
0.0
 11
111.991585
 21
42.808821
 31
0.0
 11
131.672488
 21
49.954133
 31
0.0
 11
147.700961
 21
63.425639
 31
0.0
 11
158.020058
 21
81.298839
 31
0.0
 11
161.672488
 21
101.915657
 31
0.0
  0
LWPOLYLINE
  5
107
100
AcDbEntity
  8
0
 62
7
100
AcDbPolyline
 90
1
 70
1
 10
161.672488
 20
101.915657
 30
0.0
  0
SPLINE
  5
108
100
AcDbEntity
  8
0
 62
7
100
AcDbSpline
 70
0
 71
3
 72
25
 73
21
 74
19
 40
0.000000
 40
0.000000
 40
0.000000
 40
0.000000
 40
1.570339
 40
3.118203
 40
4.688542
 40
6.258880
 40
7.806745
 40
9.377083
 40
10.947422
 40
12.495286
 40
14.065625
 40
15.635963
 40
17.183828
 40
18.754166
 40
20.324505
 40
21.872369
 40
23.442708
 40
25.013046
 40
26.560911
 40
28.131249
 40
28.131249
 40
28.131249
 40
28.131249
 10
55.914158
 20
162.965639
 30
0.0
 10
55.860392
 20
163.491755
 30
0.0
 10
55.753630
 20
164.536457
 30
0.0
 10
54.925330
 20
165.917047
 30
0.0
 10
53.712558
 20
166.943479
 30
0.0
 10
52.210769
 20
167.487865
 30
0.0
 10
50.617202
 20
167.487865
 30
0.0
 10
49.117516
 20
166.943479
 30
0.0
 10
47.896346
 20
165.917047
 30
0.0
 10
47.099250
 20
164.536457
 30
0.0
 10
46.820944
 20
162.965639
 30
0.0
 10
47.099250
 20
161.394821
 30
0.0
 10
47.896346
 20
160.014231
 30
0.0
 10
49.117516
 20
158.987798
 30
0.0
 10
50.617202
 20
158.443413
 30
0.0
 10
52.210769
 20
158.443413
 30
0.0
 10
53.712558
 20
158.987798
 30
0.0
 10
54.925330
 20
160.014231
 30
0.0
 10
55.753630
 20
161.394821
 30
0.0
 10
55.860392
 20
162.439523
 30
0.0
 10
55.914158
 20
162.965639
 30
0.0
 11
55.914158
 21
162.965639
 31
0.0
 11
55.640225
 21
164.511900
 31
0.0
 11
54.866293
 21
165.852390
 31
0.0
 11
53.664158
 21
166.862753
 31
0.0
 11
52.188090
 21
167.398651
 31
0.0
 11
50.640225
 21
167.398651
 31
0.0
 11
49.164158
 21
166.862753
 31
0.0
 11
47.962022
 21
165.852390
 31
0.0
 11
47.188090
 21
164.511900
 31
0.0
 11
46.914158
 21
162.965639
 31
0.0
 11
47.188090
 21
161.419377
 31
0.0
 11
47.962022
 21
160.078887
 31
0.0
 11
49.164158
 21
159.068524
 31
0.0
 11
50.640225
 21
158.532626
 31
0.0
 11
52.188090
 21
158.532626
 31
0.0
 11
53.664158
 21
159.068524
 31
0.0
 11
54.866293
 21
160.078887
 31
0.0
 11
55.640225
 21
161.419377
 31
0.0
 11
55.914158
 21
162.965639
 31
0.0
  0
LWPOLYLINE
  5
109
100
AcDbEntity
  8
0
 62
7
100
AcDbPolyline
 90
1
 70
1
 10
55.914158
 20
162.965639
 30
0.0
  0
SPLINE
  5
10a
100
AcDbEntity
  8
0
 62
7
100
AcDbSpline
 70
0
 71
3
 72
25
 73
21
 74
19
 40
0.000000
 40
0.000000
 40
0.000000
 40
0.000000
 40
1.570339
 40
3.118203
 40
4.688542
 40
6.258880
 40
7.806745
 40
9.377083
 40
10.947422
 40
12.495286
 40
14.065625
 40
15.635963
 40
17.183828
 40
18.754166
 40
20.324505
 40
21.872369
 40
23.442708
 40
25.013046
 40
26.560911
 40
28.131249
 40
28.131249
 40
28.131249
 40
28.131249
 10
55.914158
 20
40.865676
 30
0.0
 10
55.860392
 20
41.391792
 30
0.0
 10
55.753630
 20
42.436494
 30
0.0
 10
54.925330
 20
43.817084
 30
0.0
 10
53.712558
 20
44.843516
 30
0.0
 10
52.210769
 20
45.387902
 30
0.0
 10
50.617202
 20
45.387902
 30
0.0
 10
49.117516
 20
44.843516
 30
0.0
 10
47.896346
 20
43.817084
 30
0.0
 10
47.099250
 20
42.436494
 30
0.0
 10
46.820944
 20
40.865676
 30
0.0
 10
47.099250
 20
39.294858
 30
0.0
 10
47.896346
 20
37.914268
 30
0.0
 10
49.117516
 20
36.887835
 30
0.0
 10
50.617202
 20
36.343450
 30
0.0
 10
52.210769
 20
36.343450
 30
0.0
 10
53.712558
 20
36.887835
 30
0.0
 10
54.925330
 20
37.914268
 30
0.0
 10
55.753630
 20
39.294858
 30
0.0
 10
55.860392
 20
40.339560
 30
0.0
 10
55.914158
 20
40.865676
 30
0.0
 11
55.914158
 21
40.865676
 31
0.0
 11
55.640225
 21
42.411937
 31
0.0
 11
54.866293
 21
43.752427
 31
0.0
 11
53.664158
 21
44.762790
 31
0.0
 11
52.188090
 21
45.298688
 31
0.0
 11
50.640225
 21
45.298688
 31
0.0
 11
49.164158
 21
44.762790
 31
0.0
 11
47.962022
 21
43.752427
 31
0.0
 11
47.188090
 21
42.411937
 31
0.0
 11
46.914158
 21
40.865676
 31
0.0
 11
47.188090
 21
39.319414
 31
0.0
 11
47.962022
 21
37.978924
 31
0.0
 11
49.164158
 21
36.968561
 31
0.0
 11
50.640225
 21
36.432663
 31
0.0
 11
52.188090
 21
36.432663
 31
0.0
 11
53.664158
 21
36.968561
 31
0.0
 11
54.866293
 21
37.978924
 31
0.0
 11
55.640225
 21
39.319414
 31
0.0
 11
55.914158
 21
40.865676
 31
0.0
  0
LWPOLYLINE
  5
10b
100
AcDbEntity
  8
0
 62
7
100
AcDbPolyline
 90
1
 70
1
 10
55.914158
 20
40.865676
 30
0.0
  0
SPLINE
  5
10c
100
AcDbEntity
  8
0
 62
7
100
AcDbSpline
 70
0
 71
3
 72
25
 73
21
 74
19
 40
0.000000
 40
0.000000
 40
0.000000
 40
0.000000
 40
1.570339
 40
3.118203
 40
4.688542
 40
6.258880
 40
7.806745
 40
9.377083
 40
10.947422
 40
12.495286
 40
14.065625
 40
15.635963
 40
17.183828
 40
18.754166
 40
20.324505
 40
21.872369
 40
23.442708
 40
25.013046
 40
26.560911
 40
28.131249
 40
28.131249
 40
28.131249
 40
28.131249
 10
78.430818
 20
175.965639
 30
0.0
 10
78.377052
 20
176.491755
 30
0.0
 10
78.270290
 20
177.536457
 30
0.0
 10
77.441990
 20
178.917047
 30
0.0
 10
76.229219
 20
179.943479
 30
0.0
 10
74.727430
 20
180.487865
 30
0.0
 10
73.133862
 20
180.487865
 30
0.0
 10
71.634176
 20
179.943479
 30
0.0
 10
70.413007
 20
178.917047
 30
0.0
 10
69.615911
 20
177.536457
 30
0.0
 10
69.337605
 20
175.965639
 30
0.0
 10
69.615911
 20
174.394821
 30
0.0
 10
70.413007
 20
173.014231
 30
0.0
 10
71.634176
 20
171.987798
 30
0.0
 10
73.133862
 20
171.443413
 30
0.0
 10
74.727430
 20
171.443413
 30
0.0
 10
76.229219
 20
171.987798
 30
0.0
 10
77.441990
 20
173.014231
 30
0.0
 10
78.270290
 20
174.394821
 30
0.0
 10
78.377052
 20
175.439523
 30
0.0
 10
78.430818
 20
175.965639
 30
0.0
 11
78.430818
 21
175.965639
 31
0.0
 11
78.156886
 21
177.511900
 31
0.0
 11
77.382954
 21
178.852390
 31
0.0
 11
76.180818
 21
179.862753
 31
0.0
 11
74.704751
 21
180.398651
 31
0.0
 11
73.156886
 21
180.398651
 31
0.0
 11
71.680818
 21
179.862753
 31
0.0
 11
70.478683
 21
178.852390
 31
0.0
 11
69.704751
 21
177.511900
 31
0.0
 11
69.430818
 21
175.965639
 31
0.0
 11
69.704751
 21
174.419377
 31
0.0
 11
70.478683
 21
173.078887
 31
0.0
 11
71.680818
 21
172.068524
 31
0.0
 11
73.156886
 21
171.532626
 31
0.0
 11
74.704751
 21
171.532626
 31
0.0
 11
76.180818
 21
172.068524
 31
0.0
 11
77.382954
 21
173.078887
 31
0.0
 11
78.156886
 21
174.419377
 31
0.0
 11
78.430818
 21
175.965639
 31
0.0
  0
LWPOLYLINE
  5
10d
100
AcDbEntity
  8
0
 62
7
100
AcDbPolyline
 90
1
 70
1
 10
78.430818
 20
175.965639
 30
0.0
  0
SPLINE
  5
10e
100
AcDbEntity
  8
0
 62
7
100
AcDbSpline
 70
0
 71
3
 72
25
 73
21
 74
19
 40
0.000000
 40
0.000000
 40
0.000000
 40
0.000000
 40
1.570339
 40
3.118203
 40
4.688542
 40
6.258880
 40
7.806745
 40
9.377083
 40
10.947422
 40
12.495286
 40
14.065625
 40
15.635963
 40
17.183828
 40
18.754166
 40
20.324505
 40
21.872369
 40
23.442708
 40
25.013046
 40
26.560911
 40
28.131249
 40
28.131249
 40
28.131249
 40
28.131249
 10
78.430818
 20
27.865676
 30
0.0
 10
78.377052
 20
28.391792
 30
0.0
 10
78.270290
 20
29.436494
 30
0.0
 10
77.441990
 20
30.817084
 30
0.0
 10
76.229219
 20
31.843516
 30
0.0
 10
74.727430
 20
32.387902
 30
0.0
 10
73.133862
 20
32.387902
 30
0.0
 10
71.634176
 20
31.843516
 30
0.0
 10
70.413007
 20
30.817084
 30
0.0
 10
69.615911
 20
29.436494
 30
0.0
 10
69.337605
 20
27.865676
 30
0.0
 10
69.615911
 20
26.294858
 30
0.0
 10
70.413007
 20
24.914268
 30
0.0
 10
71.634176
 20
23.887835
 30
0.0
 10
73.133862
 20
23.343450
 30
0.0
 10
74.727430
 20
23.343450
 30
0.0
 10
76.229219
 20
23.887835
 30
0.0
 10
77.441990
 20
24.914268
 30
0.0
 10
78.270290
 20
26.294858
 30
0.0
 10
78.377052
 20
27.339560
 30
0.0
 10
78.430818
 20
27.865676
 30
0.0
 11
78.430818
 21
27.865676
 31
0.0
 11
78.156886
 21
29.411937
 31
0.0
 11
77.382954
 21
30.752427
 31
0.0
 11
76.180818
 21
31.762790
 31
0.0
 11
74.704751
 21
32.298688
 31
0.0
 11
73.156886
 21
32.298688
 31
0.0
 11
71.680818
 21
31.762790
 31
0.0
 11
70.478683
 21
30.752427
 31
0.0
 11
69.704751
 21
29.411937
 31
0.0
 11
69.430818
 21
27.865676
 31
0.0
 11
69.704751
 21
26.319414
 31
0.0
 11
70.478683
 21
24.978924
 31
0.0
 11
71.680818
 21
23.968561
 31
0.0
 11
73.156886
 21
23.432663
 31
0.0
 11
74.704751
 21
23.432663
 31
0.0
 11
76.180818
 21
23.968561
 31
0.0
 11
77.382954
 21
24.978924
 31
0.0
 11
78.156886
 21
26.319414
 31
0.0
 11
78.430818
 21
27.865676
 31
0.0
  0
LWPOLYLINE
  5
10f
100
AcDbEntity
  8
0
 62
7
100
AcDbPolyline
 90
1
 70
1
 10
78.430818
 20
27.865676
 30
0.0
  0
ENDSEC
  0
SECTION
  2
OBJECTS
  0
DICTIONARY
  5
C
330
0
100
AcDbDictionary
  3
ACAD_GROUP
350
D
  3
ACAD_MLINESTYLE
350
17
  0
DICTIONARY
  5
D
330
C
100
AcDbDictionary
  0
DICTIONARY
  5
1A
330
C
100
AcDbDictionary
  0
DICTIONARY
  5
17
330
C
100
AcDbDictionary
  3
STANDARD
350
18
  0
DICTIONARY
  5
19
330
C
100
AcDbDictionary
  0
ENDSEC
  0
EOF
